G04 #@! TF.GenerationSoftware,KiCad,Pcbnew,5.1.4*
G04 #@! TF.CreationDate,2019-09-16T18:09:56+12:00*
G04 #@! TF.ProjectId,spiroBoardV2,73706972-6f42-46f6-9172-6456322e6b69,rev?*
G04 #@! TF.SameCoordinates,Original*
G04 #@! TF.FileFunction,Soldermask,Bot*
G04 #@! TF.FilePolarity,Negative*
%FSLAX46Y46*%
G04 Gerber Fmt 4.6, Leading zero omitted, Abs format (unit mm)*
G04 Created by KiCad (PCBNEW 5.1.4) date 2019-09-16 18:09:56*
%MOMM*%
%LPD*%
G04 APERTURE LIST*
%ADD10C,0.100000*%
G04 APERTURE END LIST*
D10*
G36*
X106501000Y-153501000D02*
G01*
X104399000Y-153501000D01*
X104399000Y-151699000D01*
X106501000Y-151699000D01*
X106501000Y-153501000D01*
X106501000Y-153501000D01*
G37*
G36*
X97601000Y-153501000D02*
G01*
X95499000Y-153501000D01*
X95499000Y-151699000D01*
X97601000Y-151699000D01*
X97601000Y-153501000D01*
X97601000Y-153501000D01*
G37*
G36*
X68598254Y-149027818D02*
G01*
X68971511Y-149182426D01*
X68971513Y-149182427D01*
X69090168Y-149261710D01*
X69307436Y-149406884D01*
X69593116Y-149692564D01*
X69817574Y-150028489D01*
X69972182Y-150401746D01*
X70051000Y-150797993D01*
X70051000Y-151202007D01*
X69972182Y-151598254D01*
X69817574Y-151971511D01*
X69817573Y-151971513D01*
X69593116Y-152307436D01*
X69307436Y-152593116D01*
X68971513Y-152817573D01*
X68971512Y-152817574D01*
X68971511Y-152817574D01*
X68598254Y-152972182D01*
X68202007Y-153051000D01*
X67797993Y-153051000D01*
X67401746Y-152972182D01*
X67028489Y-152817574D01*
X67028488Y-152817574D01*
X67028487Y-152817573D01*
X66692564Y-152593116D01*
X66406884Y-152307436D01*
X66182427Y-151971513D01*
X66182426Y-151971511D01*
X66027818Y-151598254D01*
X65949000Y-151202007D01*
X65949000Y-150797993D01*
X66027818Y-150401746D01*
X66182426Y-150028489D01*
X66406884Y-149692564D01*
X66692564Y-149406884D01*
X66909832Y-149261710D01*
X67028487Y-149182427D01*
X67028489Y-149182426D01*
X67401746Y-149027818D01*
X67797993Y-148949000D01*
X68202007Y-148949000D01*
X68598254Y-149027818D01*
X68598254Y-149027818D01*
G37*
G36*
X127598254Y-149027818D02*
G01*
X127971511Y-149182426D01*
X127971513Y-149182427D01*
X128090168Y-149261710D01*
X128307436Y-149406884D01*
X128593116Y-149692564D01*
X128817574Y-150028489D01*
X128972182Y-150401746D01*
X129051000Y-150797993D01*
X129051000Y-151202007D01*
X128972182Y-151598254D01*
X128817574Y-151971511D01*
X128817573Y-151971513D01*
X128593116Y-152307436D01*
X128307436Y-152593116D01*
X127971513Y-152817573D01*
X127971512Y-152817574D01*
X127971511Y-152817574D01*
X127598254Y-152972182D01*
X127202007Y-153051000D01*
X126797993Y-153051000D01*
X126401746Y-152972182D01*
X126028489Y-152817574D01*
X126028488Y-152817574D01*
X126028487Y-152817573D01*
X125692564Y-152593116D01*
X125406884Y-152307436D01*
X125182427Y-151971513D01*
X125182426Y-151971511D01*
X125027818Y-151598254D01*
X124949000Y-151202007D01*
X124949000Y-150797993D01*
X125027818Y-150401746D01*
X125182426Y-150028489D01*
X125406884Y-149692564D01*
X125692564Y-149406884D01*
X125909832Y-149261710D01*
X126028487Y-149182427D01*
X126028489Y-149182426D01*
X126401746Y-149027818D01*
X126797993Y-148949000D01*
X127202007Y-148949000D01*
X127598254Y-149027818D01*
X127598254Y-149027818D01*
G37*
G36*
X98960721Y-149220174D02*
G01*
X99060995Y-149261709D01*
X99060996Y-149261710D01*
X99151242Y-149322010D01*
X99227990Y-149398758D01*
X99258345Y-149444188D01*
X99288291Y-149489005D01*
X99329826Y-149589279D01*
X99351000Y-149695730D01*
X99351000Y-149804270D01*
X99329826Y-149910721D01*
X99288291Y-150010995D01*
X99288290Y-150010996D01*
X99227990Y-150101242D01*
X99151242Y-150177990D01*
X99105812Y-150208345D01*
X99060995Y-150238291D01*
X98960721Y-150279826D01*
X98854270Y-150301000D01*
X98745730Y-150301000D01*
X98639279Y-150279826D01*
X98539005Y-150238291D01*
X98494188Y-150208345D01*
X98448758Y-150177990D01*
X98372010Y-150101242D01*
X98311710Y-150010996D01*
X98311709Y-150010995D01*
X98270174Y-149910721D01*
X98249000Y-149804270D01*
X98249000Y-149695730D01*
X98270174Y-149589279D01*
X98311709Y-149489005D01*
X98341655Y-149444188D01*
X98372010Y-149398758D01*
X98448758Y-149322010D01*
X98539004Y-149261710D01*
X98539005Y-149261709D01*
X98639279Y-149220174D01*
X98745730Y-149199000D01*
X98854270Y-149199000D01*
X98960721Y-149220174D01*
X98960721Y-149220174D01*
G37*
G36*
X103360721Y-149220174D02*
G01*
X103460995Y-149261709D01*
X103460996Y-149261710D01*
X103551242Y-149322010D01*
X103627990Y-149398758D01*
X103658345Y-149444188D01*
X103688291Y-149489005D01*
X103729826Y-149589279D01*
X103751000Y-149695730D01*
X103751000Y-149804270D01*
X103729826Y-149910721D01*
X103688291Y-150010995D01*
X103688290Y-150010996D01*
X103627990Y-150101242D01*
X103551242Y-150177990D01*
X103505812Y-150208345D01*
X103460995Y-150238291D01*
X103360721Y-150279826D01*
X103254270Y-150301000D01*
X103145730Y-150301000D01*
X103039279Y-150279826D01*
X102939005Y-150238291D01*
X102894188Y-150208345D01*
X102848758Y-150177990D01*
X102772010Y-150101242D01*
X102711710Y-150010996D01*
X102711709Y-150010995D01*
X102670174Y-149910721D01*
X102649000Y-149804270D01*
X102649000Y-149695730D01*
X102670174Y-149589279D01*
X102711709Y-149489005D01*
X102741655Y-149444188D01*
X102772010Y-149398758D01*
X102848758Y-149322010D01*
X102939004Y-149261710D01*
X102939005Y-149261709D01*
X103039279Y-149220174D01*
X103145730Y-149199000D01*
X103254270Y-149199000D01*
X103360721Y-149220174D01*
X103360721Y-149220174D01*
G37*
G36*
X120101000Y-146585085D02*
G01*
X120099583Y-146585515D01*
X120077972Y-146597066D01*
X120059030Y-146612611D01*
X120043485Y-146631553D01*
X120031934Y-146653164D01*
X120024821Y-146676613D01*
X120022419Y-146700999D01*
X120024821Y-146725385D01*
X120031934Y-146748834D01*
X120043485Y-146770445D01*
X120050793Y-146780298D01*
X120062494Y-146794556D01*
X120083275Y-146833434D01*
X120096074Y-146875627D01*
X120101000Y-146925641D01*
X120101000Y-147614359D01*
X120096074Y-147664373D01*
X120083275Y-147706566D01*
X120062494Y-147745444D01*
X120034525Y-147779525D01*
X119999371Y-147808375D01*
X119982044Y-147825702D01*
X119968431Y-147846076D01*
X119959053Y-147868715D01*
X119954273Y-147892748D01*
X119954273Y-147917253D01*
X119959054Y-147941286D01*
X119968431Y-147963925D01*
X119982045Y-147984299D01*
X119999371Y-148001625D01*
X120034525Y-148030475D01*
X120062494Y-148064556D01*
X120083275Y-148103434D01*
X120096074Y-148145627D01*
X120101000Y-148195641D01*
X120101000Y-148884359D01*
X120096074Y-148934373D01*
X120083275Y-148976566D01*
X120062494Y-149015444D01*
X120034525Y-149049525D01*
X120000444Y-149077494D01*
X119961566Y-149098275D01*
X119919373Y-149111074D01*
X119869359Y-149116000D01*
X118730641Y-149116000D01*
X118680627Y-149111074D01*
X118638434Y-149098275D01*
X118599556Y-149077494D01*
X118565475Y-149049525D01*
X118537506Y-149015444D01*
X118516725Y-148976566D01*
X118503926Y-148934373D01*
X118499000Y-148884359D01*
X118499000Y-148195641D01*
X118503926Y-148145627D01*
X118516725Y-148103434D01*
X118537506Y-148064556D01*
X118565475Y-148030475D01*
X118600629Y-148001625D01*
X118617956Y-147984298D01*
X118631569Y-147963924D01*
X118640947Y-147941285D01*
X118645727Y-147917252D01*
X118645727Y-147892747D01*
X118640946Y-147868714D01*
X118631569Y-147846075D01*
X118617955Y-147825701D01*
X118600629Y-147808375D01*
X118565475Y-147779525D01*
X118537506Y-147745444D01*
X118516725Y-147706566D01*
X118503926Y-147664373D01*
X118499000Y-147614359D01*
X118499000Y-146925641D01*
X118503926Y-146875627D01*
X118516725Y-146833434D01*
X118537506Y-146794556D01*
X118549207Y-146780298D01*
X118562821Y-146759924D01*
X118572198Y-146737285D01*
X118576979Y-146713252D01*
X118576979Y-146688748D01*
X118572199Y-146664714D01*
X118562822Y-146642075D01*
X118549208Y-146621701D01*
X118531881Y-146604374D01*
X118511507Y-146590760D01*
X118499000Y-146585580D01*
X118499000Y-145424000D01*
X120101000Y-145424000D01*
X120101000Y-146585085D01*
X120101000Y-146585085D01*
G37*
G36*
X113051000Y-148801000D02*
G01*
X112149000Y-148801000D01*
X112149000Y-145999000D01*
X113051000Y-145999000D01*
X113051000Y-148801000D01*
X113051000Y-148801000D01*
G37*
G36*
X115351000Y-148801000D02*
G01*
X114449000Y-148801000D01*
X114449000Y-145999000D01*
X115351000Y-145999000D01*
X115351000Y-148801000D01*
X115351000Y-148801000D01*
G37*
G36*
X82470443Y-146405519D02*
G01*
X82536627Y-146412037D01*
X82706466Y-146463557D01*
X82862991Y-146547222D01*
X82898057Y-146576000D01*
X83000186Y-146659814D01*
X83068074Y-146742537D01*
X83112778Y-146797009D01*
X83196443Y-146953534D01*
X83247963Y-147123373D01*
X83265359Y-147300000D01*
X83247963Y-147476627D01*
X83196443Y-147646466D01*
X83112778Y-147802991D01*
X83108359Y-147808375D01*
X83000186Y-147940186D01*
X82898729Y-148023448D01*
X82862991Y-148052778D01*
X82706466Y-148136443D01*
X82536627Y-148187963D01*
X82470443Y-148194481D01*
X82404260Y-148201000D01*
X82315740Y-148201000D01*
X82249557Y-148194481D01*
X82183373Y-148187963D01*
X82013534Y-148136443D01*
X81857009Y-148052778D01*
X81821271Y-148023448D01*
X81719814Y-147940186D01*
X81611641Y-147808375D01*
X81607222Y-147802991D01*
X81523557Y-147646466D01*
X81472037Y-147476627D01*
X81454641Y-147300000D01*
X81472037Y-147123373D01*
X81523557Y-146953534D01*
X81607222Y-146797009D01*
X81651926Y-146742537D01*
X81719814Y-146659814D01*
X81821943Y-146576000D01*
X81857009Y-146547222D01*
X82013534Y-146463557D01*
X82183373Y-146412037D01*
X82249557Y-146405519D01*
X82315740Y-146399000D01*
X82404260Y-146399000D01*
X82470443Y-146405519D01*
X82470443Y-146405519D01*
G37*
G36*
X85801000Y-148201000D02*
G01*
X83999000Y-148201000D01*
X83999000Y-146399000D01*
X85801000Y-146399000D01*
X85801000Y-148201000D01*
X85801000Y-148201000D01*
G37*
G36*
X102901000Y-148101000D02*
G01*
X99099000Y-148101000D01*
X99099000Y-145999000D01*
X102901000Y-145999000D01*
X102901000Y-148101000D01*
X102901000Y-148101000D01*
G37*
G36*
X97601000Y-148051000D02*
G01*
X95499000Y-148051000D01*
X95499000Y-146249000D01*
X97601000Y-146249000D01*
X97601000Y-148051000D01*
X97601000Y-148051000D01*
G37*
G36*
X106501000Y-148051000D02*
G01*
X104399000Y-148051000D01*
X104399000Y-146249000D01*
X106501000Y-146249000D01*
X106501000Y-148051000D01*
X106501000Y-148051000D01*
G37*
G36*
X69301000Y-146101000D02*
G01*
X67499000Y-146101000D01*
X67499000Y-144299000D01*
X69301000Y-144299000D01*
X69301000Y-146101000D01*
X69301000Y-146101000D01*
G37*
G36*
X85010442Y-143865518D02*
G01*
X85076627Y-143872037D01*
X85246466Y-143923557D01*
X85402991Y-144007222D01*
X85438729Y-144036552D01*
X85540186Y-144119814D01*
X85623448Y-144221271D01*
X85652778Y-144257009D01*
X85736443Y-144413534D01*
X85787963Y-144583373D01*
X85805359Y-144760000D01*
X85787963Y-144936627D01*
X85736443Y-145106466D01*
X85652778Y-145262991D01*
X85623448Y-145298729D01*
X85540186Y-145400186D01*
X85438729Y-145483448D01*
X85402991Y-145512778D01*
X85246466Y-145596443D01*
X85076627Y-145647963D01*
X85010442Y-145654482D01*
X84944260Y-145661000D01*
X84855740Y-145661000D01*
X84789558Y-145654482D01*
X84723373Y-145647963D01*
X84553534Y-145596443D01*
X84397009Y-145512778D01*
X84361271Y-145483448D01*
X84259814Y-145400186D01*
X84176552Y-145298729D01*
X84147222Y-145262991D01*
X84063557Y-145106466D01*
X84012037Y-144936627D01*
X83994641Y-144760000D01*
X84012037Y-144583373D01*
X84063557Y-144413534D01*
X84147222Y-144257009D01*
X84176552Y-144221271D01*
X84259814Y-144119814D01*
X84361271Y-144036552D01*
X84397009Y-144007222D01*
X84553534Y-143923557D01*
X84723373Y-143872037D01*
X84789558Y-143865518D01*
X84855740Y-143859000D01*
X84944260Y-143859000D01*
X85010442Y-143865518D01*
X85010442Y-143865518D01*
G37*
G36*
X82470442Y-143865518D02*
G01*
X82536627Y-143872037D01*
X82706466Y-143923557D01*
X82862991Y-144007222D01*
X82898729Y-144036552D01*
X83000186Y-144119814D01*
X83083448Y-144221271D01*
X83112778Y-144257009D01*
X83196443Y-144413534D01*
X83247963Y-144583373D01*
X83265359Y-144760000D01*
X83247963Y-144936627D01*
X83196443Y-145106466D01*
X83112778Y-145262991D01*
X83083448Y-145298729D01*
X83000186Y-145400186D01*
X82898729Y-145483448D01*
X82862991Y-145512778D01*
X82706466Y-145596443D01*
X82536627Y-145647963D01*
X82470442Y-145654482D01*
X82404260Y-145661000D01*
X82315740Y-145661000D01*
X82249558Y-145654482D01*
X82183373Y-145647963D01*
X82013534Y-145596443D01*
X81857009Y-145512778D01*
X81821271Y-145483448D01*
X81719814Y-145400186D01*
X81636552Y-145298729D01*
X81607222Y-145262991D01*
X81523557Y-145106466D01*
X81472037Y-144936627D01*
X81454641Y-144760000D01*
X81472037Y-144583373D01*
X81523557Y-144413534D01*
X81607222Y-144257009D01*
X81636552Y-144221271D01*
X81719814Y-144119814D01*
X81821271Y-144036552D01*
X81857009Y-144007222D01*
X82013534Y-143923557D01*
X82183373Y-143872037D01*
X82249558Y-143865518D01*
X82315740Y-143859000D01*
X82404260Y-143859000D01*
X82470442Y-143865518D01*
X82470442Y-143865518D01*
G37*
G36*
X107501000Y-144601000D02*
G01*
X106299000Y-144601000D01*
X106299000Y-143399000D01*
X107501000Y-143399000D01*
X107501000Y-144601000D01*
X107501000Y-144601000D01*
G37*
G36*
X110301000Y-144601000D02*
G01*
X109099000Y-144601000D01*
X109099000Y-143399000D01*
X110301000Y-143399000D01*
X110301000Y-144601000D01*
X110301000Y-144601000D01*
G37*
G36*
X114451000Y-144551000D02*
G01*
X113149000Y-144551000D01*
X113149000Y-143549000D01*
X114451000Y-143549000D01*
X114451000Y-144551000D01*
X114451000Y-144551000D01*
G37*
G36*
X97351000Y-144351000D02*
G01*
X95049000Y-144351000D01*
X95049000Y-142849000D01*
X97351000Y-142849000D01*
X97351000Y-144351000D01*
X97351000Y-144351000D01*
G37*
G36*
X68506813Y-141765161D02*
G01*
X68576627Y-141772037D01*
X68746466Y-141823557D01*
X68746468Y-141823558D01*
X68763962Y-141832909D01*
X68902991Y-141907222D01*
X68931660Y-141930750D01*
X69040186Y-142019814D01*
X69123448Y-142121271D01*
X69152778Y-142157009D01*
X69236443Y-142313534D01*
X69287963Y-142483373D01*
X69305359Y-142660000D01*
X69287963Y-142836627D01*
X69236443Y-143006466D01*
X69152778Y-143162991D01*
X69123448Y-143198729D01*
X69040186Y-143300186D01*
X68938729Y-143383448D01*
X68902991Y-143412778D01*
X68746466Y-143496443D01*
X68576627Y-143547963D01*
X68510442Y-143554482D01*
X68444260Y-143561000D01*
X68355740Y-143561000D01*
X68289558Y-143554482D01*
X68223373Y-143547963D01*
X68053534Y-143496443D01*
X67897009Y-143412778D01*
X67861271Y-143383448D01*
X67759814Y-143300186D01*
X67676552Y-143198729D01*
X67647222Y-143162991D01*
X67563557Y-143006466D01*
X67512037Y-142836627D01*
X67494641Y-142660000D01*
X67512037Y-142483373D01*
X67563557Y-142313534D01*
X67647222Y-142157009D01*
X67676552Y-142121271D01*
X67759814Y-142019814D01*
X67868340Y-141930750D01*
X67897009Y-141907222D01*
X68036038Y-141832909D01*
X68053532Y-141823558D01*
X68053534Y-141823557D01*
X68223373Y-141772037D01*
X68293187Y-141765161D01*
X68355740Y-141759000D01*
X68444260Y-141759000D01*
X68506813Y-141765161D01*
X68506813Y-141765161D01*
G37*
G36*
X127801000Y-143501000D02*
G01*
X125999000Y-143501000D01*
X125999000Y-141699000D01*
X127801000Y-141699000D01*
X127801000Y-143501000D01*
X127801000Y-143501000D01*
G37*
G36*
X85010443Y-141325519D02*
G01*
X85076627Y-141332037D01*
X85246466Y-141383557D01*
X85402991Y-141467222D01*
X85403266Y-141467448D01*
X85540186Y-141579814D01*
X85623448Y-141681271D01*
X85652778Y-141717009D01*
X85736443Y-141873534D01*
X85787963Y-142043373D01*
X85805359Y-142220000D01*
X85787963Y-142396627D01*
X85739937Y-142554948D01*
X85736442Y-142566468D01*
X85712314Y-142611607D01*
X85652778Y-142722991D01*
X85623448Y-142758729D01*
X85540186Y-142860186D01*
X85438729Y-142943448D01*
X85402991Y-142972778D01*
X85246466Y-143056443D01*
X85076627Y-143107963D01*
X85010442Y-143114482D01*
X84944260Y-143121000D01*
X84855740Y-143121000D01*
X84789558Y-143114482D01*
X84723373Y-143107963D01*
X84553534Y-143056443D01*
X84397009Y-142972778D01*
X84361271Y-142943448D01*
X84259814Y-142860186D01*
X84176552Y-142758729D01*
X84147222Y-142722991D01*
X84087686Y-142611607D01*
X84063558Y-142566468D01*
X84060063Y-142554948D01*
X84012037Y-142396627D01*
X83994641Y-142220000D01*
X84012037Y-142043373D01*
X84063557Y-141873534D01*
X84147222Y-141717009D01*
X84176552Y-141681271D01*
X84259814Y-141579814D01*
X84396734Y-141467448D01*
X84397009Y-141467222D01*
X84553534Y-141383557D01*
X84723373Y-141332037D01*
X84789557Y-141325519D01*
X84855740Y-141319000D01*
X84944260Y-141319000D01*
X85010443Y-141325519D01*
X85010443Y-141325519D01*
G37*
G36*
X82470443Y-141325519D02*
G01*
X82536627Y-141332037D01*
X82706466Y-141383557D01*
X82862991Y-141467222D01*
X82863266Y-141467448D01*
X83000186Y-141579814D01*
X83083448Y-141681271D01*
X83112778Y-141717009D01*
X83196443Y-141873534D01*
X83247963Y-142043373D01*
X83265359Y-142220000D01*
X83247963Y-142396627D01*
X83199937Y-142554948D01*
X83196442Y-142566468D01*
X83172314Y-142611607D01*
X83112778Y-142722991D01*
X83083448Y-142758729D01*
X83000186Y-142860186D01*
X82898729Y-142943448D01*
X82862991Y-142972778D01*
X82706466Y-143056443D01*
X82536627Y-143107963D01*
X82470442Y-143114482D01*
X82404260Y-143121000D01*
X82315740Y-143121000D01*
X82249558Y-143114482D01*
X82183373Y-143107963D01*
X82013534Y-143056443D01*
X81857009Y-142972778D01*
X81821271Y-142943448D01*
X81719814Y-142860186D01*
X81636552Y-142758729D01*
X81607222Y-142722991D01*
X81547686Y-142611607D01*
X81523558Y-142566468D01*
X81520063Y-142554948D01*
X81472037Y-142396627D01*
X81454641Y-142220000D01*
X81472037Y-142043373D01*
X81523557Y-141873534D01*
X81607222Y-141717009D01*
X81636552Y-141681271D01*
X81719814Y-141579814D01*
X81856734Y-141467448D01*
X81857009Y-141467222D01*
X82013534Y-141383557D01*
X82183373Y-141332037D01*
X82249557Y-141325519D01*
X82315740Y-141319000D01*
X82404260Y-141319000D01*
X82470443Y-141325519D01*
X82470443Y-141325519D01*
G37*
G36*
X103179591Y-141715585D02*
G01*
X103213569Y-141725893D01*
X103244890Y-141742634D01*
X103272339Y-141765161D01*
X103294866Y-141792610D01*
X103311607Y-141823931D01*
X103321915Y-141857909D01*
X103326000Y-141899390D01*
X103326000Y-142500610D01*
X103321915Y-142542091D01*
X103311607Y-142576069D01*
X103294866Y-142607390D01*
X103272339Y-142634839D01*
X103244890Y-142657366D01*
X103213569Y-142674107D01*
X103179591Y-142684415D01*
X103138110Y-142688500D01*
X102461890Y-142688500D01*
X102420409Y-142684415D01*
X102386431Y-142674107D01*
X102355110Y-142657366D01*
X102327661Y-142634839D01*
X102305134Y-142607390D01*
X102288393Y-142576069D01*
X102278085Y-142542091D01*
X102274000Y-142500610D01*
X102274000Y-141899390D01*
X102278085Y-141857909D01*
X102288393Y-141823931D01*
X102305134Y-141792610D01*
X102327661Y-141765161D01*
X102355110Y-141742634D01*
X102386431Y-141725893D01*
X102420409Y-141715585D01*
X102461890Y-141711500D01*
X103138110Y-141711500D01*
X103179591Y-141715585D01*
X103179591Y-141715585D01*
G37*
G36*
X101379591Y-141690585D02*
G01*
X101413569Y-141700893D01*
X101444890Y-141717634D01*
X101472339Y-141740161D01*
X101494866Y-141767610D01*
X101511607Y-141798931D01*
X101521915Y-141832909D01*
X101526000Y-141874390D01*
X101526000Y-142475610D01*
X101521915Y-142517091D01*
X101511607Y-142551069D01*
X101494866Y-142582390D01*
X101472339Y-142609839D01*
X101444890Y-142632366D01*
X101413569Y-142649107D01*
X101379591Y-142659415D01*
X101338110Y-142663500D01*
X100661890Y-142663500D01*
X100620409Y-142659415D01*
X100586431Y-142649107D01*
X100555110Y-142632366D01*
X100527661Y-142609839D01*
X100505134Y-142582390D01*
X100488393Y-142551069D01*
X100478085Y-142517091D01*
X100474000Y-142475610D01*
X100474000Y-141874390D01*
X100478085Y-141832909D01*
X100488393Y-141798931D01*
X100505134Y-141767610D01*
X100527661Y-141740161D01*
X100555110Y-141717634D01*
X100586431Y-141700893D01*
X100620409Y-141690585D01*
X100661890Y-141686500D01*
X101338110Y-141686500D01*
X101379591Y-141690585D01*
X101379591Y-141690585D01*
G37*
G36*
X120242091Y-141578085D02*
G01*
X120276069Y-141588393D01*
X120307390Y-141605134D01*
X120334839Y-141627661D01*
X120357366Y-141655110D01*
X120374107Y-141686431D01*
X120384415Y-141720409D01*
X120388500Y-141761890D01*
X120388500Y-142438110D01*
X120384415Y-142479591D01*
X120374107Y-142513569D01*
X120357366Y-142544890D01*
X120334839Y-142572339D01*
X120307390Y-142594866D01*
X120276069Y-142611607D01*
X120242091Y-142621915D01*
X120200610Y-142626000D01*
X119599390Y-142626000D01*
X119557909Y-142621915D01*
X119523931Y-142611607D01*
X119492610Y-142594866D01*
X119465161Y-142572339D01*
X119442634Y-142544890D01*
X119425893Y-142513569D01*
X119415585Y-142479591D01*
X119411500Y-142438110D01*
X119411500Y-141761890D01*
X119415585Y-141720409D01*
X119425893Y-141686431D01*
X119442634Y-141655110D01*
X119465161Y-141627661D01*
X119492610Y-141605134D01*
X119523931Y-141588393D01*
X119557909Y-141578085D01*
X119599390Y-141574000D01*
X120200610Y-141574000D01*
X120242091Y-141578085D01*
X120242091Y-141578085D01*
G37*
G36*
X118667091Y-141578085D02*
G01*
X118701069Y-141588393D01*
X118732390Y-141605134D01*
X118759839Y-141627661D01*
X118782366Y-141655110D01*
X118799107Y-141686431D01*
X118809415Y-141720409D01*
X118813500Y-141761890D01*
X118813500Y-142438110D01*
X118809415Y-142479591D01*
X118799107Y-142513569D01*
X118782366Y-142544890D01*
X118759839Y-142572339D01*
X118732390Y-142594866D01*
X118701069Y-142611607D01*
X118667091Y-142621915D01*
X118625610Y-142626000D01*
X118024390Y-142626000D01*
X117982909Y-142621915D01*
X117948931Y-142611607D01*
X117917610Y-142594866D01*
X117890161Y-142572339D01*
X117867634Y-142544890D01*
X117850893Y-142513569D01*
X117840585Y-142479591D01*
X117836500Y-142438110D01*
X117836500Y-141761890D01*
X117840585Y-141720409D01*
X117850893Y-141686431D01*
X117867634Y-141655110D01*
X117890161Y-141627661D01*
X117917610Y-141605134D01*
X117948931Y-141588393D01*
X117982909Y-141578085D01*
X118024390Y-141574000D01*
X118625610Y-141574000D01*
X118667091Y-141578085D01*
X118667091Y-141578085D01*
G37*
G36*
X110581000Y-141826000D02*
G01*
X108919000Y-141826000D01*
X108919000Y-139174000D01*
X110581000Y-139174000D01*
X110581000Y-141826000D01*
X110581000Y-141826000D01*
G37*
G36*
X107881000Y-141826000D02*
G01*
X106219000Y-141826000D01*
X106219000Y-141074000D01*
X107881000Y-141074000D01*
X107881000Y-141826000D01*
X107881000Y-141826000D01*
G37*
G36*
X99479591Y-140603085D02*
G01*
X99513569Y-140613393D01*
X99544890Y-140630134D01*
X99572339Y-140652661D01*
X99594866Y-140680110D01*
X99611607Y-140711431D01*
X99621915Y-140745409D01*
X99626000Y-140786890D01*
X99626000Y-141388110D01*
X99621915Y-141429591D01*
X99611607Y-141463569D01*
X99594866Y-141494890D01*
X99572339Y-141522339D01*
X99544890Y-141544866D01*
X99513569Y-141561607D01*
X99479591Y-141571915D01*
X99438110Y-141576000D01*
X98761890Y-141576000D01*
X98720409Y-141571915D01*
X98686431Y-141561607D01*
X98655110Y-141544866D01*
X98627661Y-141522339D01*
X98605134Y-141494890D01*
X98588393Y-141463569D01*
X98578085Y-141429591D01*
X98574000Y-141388110D01*
X98574000Y-140786890D01*
X98578085Y-140745409D01*
X98588393Y-140711431D01*
X98605134Y-140680110D01*
X98627661Y-140652661D01*
X98655110Y-140630134D01*
X98686431Y-140613393D01*
X98720409Y-140603085D01*
X98761890Y-140599000D01*
X99438110Y-140599000D01*
X99479591Y-140603085D01*
X99479591Y-140603085D01*
G37*
G36*
X114451000Y-141251000D02*
G01*
X113149000Y-141251000D01*
X113149000Y-140249000D01*
X114451000Y-140249000D01*
X114451000Y-141251000D01*
X114451000Y-141251000D01*
G37*
G36*
X103179591Y-140140585D02*
G01*
X103213569Y-140150893D01*
X103244890Y-140167634D01*
X103272339Y-140190161D01*
X103294866Y-140217610D01*
X103311607Y-140248931D01*
X103321915Y-140282909D01*
X103326000Y-140324390D01*
X103326000Y-140925610D01*
X103321915Y-140967091D01*
X103311607Y-141001069D01*
X103294866Y-141032390D01*
X103272339Y-141059839D01*
X103244890Y-141082366D01*
X103213569Y-141099107D01*
X103179591Y-141109415D01*
X103138110Y-141113500D01*
X102461890Y-141113500D01*
X102420409Y-141109415D01*
X102386431Y-141099107D01*
X102355110Y-141082366D01*
X102327661Y-141059839D01*
X102305134Y-141032390D01*
X102288393Y-141001069D01*
X102278085Y-140967091D01*
X102274000Y-140925610D01*
X102274000Y-140324390D01*
X102278085Y-140282909D01*
X102288393Y-140248931D01*
X102305134Y-140217610D01*
X102327661Y-140190161D01*
X102355110Y-140167634D01*
X102386431Y-140150893D01*
X102420409Y-140140585D01*
X102461890Y-140136500D01*
X103138110Y-140136500D01*
X103179591Y-140140585D01*
X103179591Y-140140585D01*
G37*
G36*
X101379591Y-140115585D02*
G01*
X101413569Y-140125893D01*
X101444890Y-140142634D01*
X101472339Y-140165161D01*
X101494866Y-140192610D01*
X101511607Y-140223931D01*
X101521915Y-140257909D01*
X101526000Y-140299390D01*
X101526000Y-140900610D01*
X101521915Y-140942091D01*
X101511607Y-140976069D01*
X101494866Y-141007390D01*
X101472339Y-141034839D01*
X101444890Y-141057366D01*
X101413569Y-141074107D01*
X101379591Y-141084415D01*
X101338110Y-141088500D01*
X100661890Y-141088500D01*
X100620409Y-141084415D01*
X100586431Y-141074107D01*
X100555110Y-141057366D01*
X100527661Y-141034839D01*
X100505134Y-141007390D01*
X100488393Y-140976069D01*
X100478085Y-140942091D01*
X100474000Y-140900610D01*
X100474000Y-140299390D01*
X100478085Y-140257909D01*
X100488393Y-140223931D01*
X100505134Y-140192610D01*
X100527661Y-140165161D01*
X100555110Y-140142634D01*
X100586431Y-140125893D01*
X100620409Y-140115585D01*
X100661890Y-140111500D01*
X101338110Y-140111500D01*
X101379591Y-140115585D01*
X101379591Y-140115585D01*
G37*
G36*
X68490527Y-139223557D02*
G01*
X68576627Y-139232037D01*
X68746466Y-139283557D01*
X68902991Y-139367222D01*
X68938729Y-139396552D01*
X69040186Y-139479814D01*
X69103537Y-139557009D01*
X69152778Y-139617009D01*
X69236443Y-139773534D01*
X69287963Y-139943373D01*
X69305359Y-140120000D01*
X69287963Y-140296627D01*
X69236443Y-140466466D01*
X69152778Y-140622991D01*
X69141647Y-140636554D01*
X69040186Y-140760186D01*
X68938971Y-140843250D01*
X68902991Y-140872778D01*
X68902989Y-140872779D01*
X68773317Y-140942091D01*
X68746466Y-140956443D01*
X68576627Y-141007963D01*
X68510443Y-141014481D01*
X68444260Y-141021000D01*
X68355740Y-141021000D01*
X68289557Y-141014481D01*
X68223373Y-141007963D01*
X68053534Y-140956443D01*
X68026684Y-140942091D01*
X67897011Y-140872779D01*
X67897009Y-140872778D01*
X67861029Y-140843250D01*
X67759814Y-140760186D01*
X67658353Y-140636554D01*
X67647222Y-140622991D01*
X67563557Y-140466466D01*
X67512037Y-140296627D01*
X67494641Y-140120000D01*
X67512037Y-139943373D01*
X67563557Y-139773534D01*
X67647222Y-139617009D01*
X67696463Y-139557009D01*
X67759814Y-139479814D01*
X67861271Y-139396552D01*
X67897009Y-139367222D01*
X68053534Y-139283557D01*
X68223373Y-139232037D01*
X68309473Y-139223557D01*
X68355740Y-139219000D01*
X68444260Y-139219000D01*
X68490527Y-139223557D01*
X68490527Y-139223557D01*
G37*
G36*
X127010443Y-139165519D02*
G01*
X127076627Y-139172037D01*
X127246466Y-139223557D01*
X127402991Y-139307222D01*
X127438729Y-139336552D01*
X127540186Y-139419814D01*
X127623448Y-139521271D01*
X127652778Y-139557009D01*
X127736443Y-139713534D01*
X127787963Y-139883373D01*
X127805359Y-140060000D01*
X127787963Y-140236627D01*
X127736443Y-140406466D01*
X127652778Y-140562991D01*
X127652240Y-140563646D01*
X127540186Y-140700186D01*
X127438729Y-140783448D01*
X127402991Y-140812778D01*
X127402989Y-140812779D01*
X127254964Y-140891901D01*
X127246466Y-140896443D01*
X127076627Y-140947963D01*
X127010442Y-140954482D01*
X126944260Y-140961000D01*
X126855740Y-140961000D01*
X126789558Y-140954482D01*
X126723373Y-140947963D01*
X126553534Y-140896443D01*
X126545037Y-140891901D01*
X126397011Y-140812779D01*
X126397009Y-140812778D01*
X126361271Y-140783448D01*
X126259814Y-140700186D01*
X126147760Y-140563646D01*
X126147222Y-140562991D01*
X126063557Y-140406466D01*
X126012037Y-140236627D01*
X125994641Y-140060000D01*
X126012037Y-139883373D01*
X126063557Y-139713534D01*
X126147222Y-139557009D01*
X126176552Y-139521271D01*
X126259814Y-139419814D01*
X126361271Y-139336552D01*
X126397009Y-139307222D01*
X126553534Y-139223557D01*
X126723373Y-139172037D01*
X126789557Y-139165519D01*
X126855740Y-139159000D01*
X126944260Y-139159000D01*
X127010443Y-139165519D01*
X127010443Y-139165519D01*
G37*
G36*
X120264499Y-139578445D02*
G01*
X120301995Y-139589820D01*
X120336554Y-139608292D01*
X120366847Y-139633153D01*
X120391708Y-139663446D01*
X120410180Y-139698005D01*
X120421555Y-139735501D01*
X120426000Y-139780638D01*
X120426000Y-140519362D01*
X120421555Y-140564499D01*
X120410180Y-140601995D01*
X120391708Y-140636554D01*
X120366847Y-140666847D01*
X120336554Y-140691708D01*
X120301995Y-140710180D01*
X120264499Y-140721555D01*
X120219362Y-140726000D01*
X119580638Y-140726000D01*
X119535501Y-140721555D01*
X119498005Y-140710180D01*
X119463446Y-140691708D01*
X119433153Y-140666847D01*
X119408292Y-140636554D01*
X119389820Y-140601995D01*
X119378445Y-140564499D01*
X119374000Y-140519362D01*
X119374000Y-139780638D01*
X119378445Y-139735501D01*
X119389820Y-139698005D01*
X119408292Y-139663446D01*
X119433153Y-139633153D01*
X119463446Y-139608292D01*
X119498005Y-139589820D01*
X119535501Y-139578445D01*
X119580638Y-139574000D01*
X120219362Y-139574000D01*
X120264499Y-139578445D01*
X120264499Y-139578445D01*
G37*
G36*
X99479591Y-139028085D02*
G01*
X99513569Y-139038393D01*
X99544890Y-139055134D01*
X99572339Y-139077661D01*
X99594866Y-139105110D01*
X99611607Y-139136431D01*
X99621915Y-139170409D01*
X99626000Y-139211890D01*
X99626000Y-139813110D01*
X99621915Y-139854591D01*
X99611607Y-139888569D01*
X99594866Y-139919890D01*
X99572339Y-139947339D01*
X99544890Y-139969866D01*
X99513569Y-139986607D01*
X99479591Y-139996915D01*
X99438110Y-140001000D01*
X98761890Y-140001000D01*
X98720409Y-139996915D01*
X98686431Y-139986607D01*
X98655110Y-139969866D01*
X98627661Y-139947339D01*
X98605134Y-139919890D01*
X98588393Y-139888569D01*
X98578085Y-139854591D01*
X98574000Y-139813110D01*
X98574000Y-139211890D01*
X98578085Y-139170409D01*
X98588393Y-139136431D01*
X98605134Y-139105110D01*
X98627661Y-139077661D01*
X98655110Y-139055134D01*
X98686431Y-139038393D01*
X98720409Y-139028085D01*
X98761890Y-139024000D01*
X99438110Y-139024000D01*
X99479591Y-139028085D01*
X99479591Y-139028085D01*
G37*
G36*
X107881000Y-139926000D02*
G01*
X106219000Y-139926000D01*
X106219000Y-139174000D01*
X107881000Y-139174000D01*
X107881000Y-139926000D01*
X107881000Y-139926000D01*
G37*
G36*
X120264499Y-137828445D02*
G01*
X120301995Y-137839820D01*
X120336554Y-137858292D01*
X120366847Y-137883153D01*
X120391708Y-137913446D01*
X120410180Y-137948005D01*
X120421555Y-137985501D01*
X120426000Y-138030638D01*
X120426000Y-138769362D01*
X120421555Y-138814499D01*
X120410180Y-138851995D01*
X120391708Y-138886554D01*
X120366847Y-138916847D01*
X120336554Y-138941708D01*
X120301995Y-138960180D01*
X120264499Y-138971555D01*
X120219362Y-138976000D01*
X119580638Y-138976000D01*
X119535501Y-138971555D01*
X119498005Y-138960180D01*
X119463446Y-138941708D01*
X119433153Y-138916847D01*
X119408292Y-138886554D01*
X119389820Y-138851995D01*
X119378445Y-138814499D01*
X119374000Y-138769362D01*
X119374000Y-138030638D01*
X119378445Y-137985501D01*
X119389820Y-137948005D01*
X119408292Y-137913446D01*
X119433153Y-137883153D01*
X119463446Y-137858292D01*
X119498005Y-137839820D01*
X119535501Y-137828445D01*
X119580638Y-137824000D01*
X120219362Y-137824000D01*
X120264499Y-137828445D01*
X120264499Y-137828445D01*
G37*
G36*
X68490527Y-136683557D02*
G01*
X68576627Y-136692037D01*
X68746466Y-136743557D01*
X68902991Y-136827222D01*
X68927503Y-136847339D01*
X69040186Y-136939814D01*
X69103537Y-137017009D01*
X69152778Y-137077009D01*
X69166716Y-137103085D01*
X69229428Y-137220409D01*
X69236443Y-137233534D01*
X69287963Y-137403373D01*
X69305359Y-137580000D01*
X69287963Y-137756627D01*
X69236821Y-137925220D01*
X69236442Y-137926468D01*
X69210383Y-137975220D01*
X69152778Y-138082991D01*
X69132739Y-138107408D01*
X69040186Y-138220186D01*
X68968031Y-138279401D01*
X68902991Y-138332778D01*
X68746466Y-138416443D01*
X68576627Y-138467963D01*
X68510443Y-138474481D01*
X68444260Y-138481000D01*
X68355740Y-138481000D01*
X68289557Y-138474481D01*
X68223373Y-138467963D01*
X68053534Y-138416443D01*
X67897009Y-138332778D01*
X67831969Y-138279401D01*
X67759814Y-138220186D01*
X67667261Y-138107408D01*
X67647222Y-138082991D01*
X67589617Y-137975220D01*
X67563558Y-137926468D01*
X67563179Y-137925220D01*
X67512037Y-137756627D01*
X67494641Y-137580000D01*
X67512037Y-137403373D01*
X67563557Y-137233534D01*
X67570573Y-137220409D01*
X67633284Y-137103085D01*
X67647222Y-137077009D01*
X67696463Y-137017009D01*
X67759814Y-136939814D01*
X67872497Y-136847339D01*
X67897009Y-136827222D01*
X68053534Y-136743557D01*
X68223373Y-136692037D01*
X68309473Y-136683557D01*
X68355740Y-136679000D01*
X68444260Y-136679000D01*
X68490527Y-136683557D01*
X68490527Y-136683557D01*
G37*
G36*
X103779591Y-137503085D02*
G01*
X103813569Y-137513393D01*
X103844890Y-137530134D01*
X103872339Y-137552661D01*
X103894866Y-137580110D01*
X103911607Y-137611431D01*
X103921915Y-137645409D01*
X103926000Y-137686890D01*
X103926000Y-138288110D01*
X103921915Y-138329591D01*
X103911607Y-138363569D01*
X103894866Y-138394890D01*
X103872339Y-138422339D01*
X103844890Y-138444866D01*
X103813569Y-138461607D01*
X103779591Y-138471915D01*
X103738110Y-138476000D01*
X103061890Y-138476000D01*
X103020409Y-138471915D01*
X102986431Y-138461607D01*
X102955110Y-138444866D01*
X102927661Y-138422339D01*
X102905134Y-138394890D01*
X102888393Y-138363569D01*
X102878085Y-138329591D01*
X102874000Y-138288110D01*
X102874000Y-137686890D01*
X102878085Y-137645409D01*
X102888393Y-137611431D01*
X102905134Y-137580110D01*
X102927661Y-137552661D01*
X102955110Y-137530134D01*
X102986431Y-137513393D01*
X103020409Y-137503085D01*
X103061890Y-137499000D01*
X103738110Y-137499000D01*
X103779591Y-137503085D01*
X103779591Y-137503085D01*
G37*
G36*
X127010442Y-136625518D02*
G01*
X127076627Y-136632037D01*
X127246466Y-136683557D01*
X127402991Y-136767222D01*
X127429002Y-136788569D01*
X127540186Y-136879814D01*
X127623448Y-136981271D01*
X127652778Y-137017009D01*
X127736443Y-137173534D01*
X127787963Y-137343373D01*
X127805359Y-137520000D01*
X127787963Y-137696627D01*
X127736443Y-137866466D01*
X127736442Y-137866468D01*
X127705038Y-137925220D01*
X127652778Y-138022991D01*
X127634806Y-138044890D01*
X127540186Y-138160186D01*
X127438729Y-138243448D01*
X127402991Y-138272778D01*
X127246466Y-138356443D01*
X127076627Y-138407963D01*
X127010443Y-138414481D01*
X126944260Y-138421000D01*
X126855740Y-138421000D01*
X126789557Y-138414481D01*
X126723373Y-138407963D01*
X126553534Y-138356443D01*
X126397009Y-138272778D01*
X126361271Y-138243448D01*
X126259814Y-138160186D01*
X126165194Y-138044890D01*
X126147222Y-138022991D01*
X126094962Y-137925220D01*
X126063558Y-137866468D01*
X126063557Y-137866466D01*
X126012037Y-137696627D01*
X125994641Y-137520000D01*
X126012037Y-137343373D01*
X126063557Y-137173534D01*
X126147222Y-137017009D01*
X126176552Y-136981271D01*
X126259814Y-136879814D01*
X126370998Y-136788569D01*
X126397009Y-136767222D01*
X126553534Y-136683557D01*
X126723373Y-136632037D01*
X126789558Y-136625518D01*
X126855740Y-136619000D01*
X126944260Y-136619000D01*
X127010442Y-136625518D01*
X127010442Y-136625518D01*
G37*
G36*
X114889499Y-137178445D02*
G01*
X114926995Y-137189820D01*
X114961554Y-137208292D01*
X114991847Y-137233153D01*
X115016708Y-137263446D01*
X115035180Y-137298005D01*
X115046555Y-137335501D01*
X115051000Y-137380638D01*
X115051000Y-138019362D01*
X115046555Y-138064499D01*
X115035180Y-138101995D01*
X115016708Y-138136554D01*
X114991847Y-138166847D01*
X114961554Y-138191708D01*
X114926995Y-138210180D01*
X114889499Y-138221555D01*
X114844362Y-138226000D01*
X114105638Y-138226000D01*
X114060501Y-138221555D01*
X114023005Y-138210180D01*
X113988446Y-138191708D01*
X113958153Y-138166847D01*
X113933292Y-138136554D01*
X113914820Y-138101995D01*
X113903445Y-138064499D01*
X113899000Y-138019362D01*
X113899000Y-137380638D01*
X113903445Y-137335501D01*
X113914820Y-137298005D01*
X113933292Y-137263446D01*
X113958153Y-137233153D01*
X113988446Y-137208292D01*
X114023005Y-137189820D01*
X114060501Y-137178445D01*
X114105638Y-137174000D01*
X114844362Y-137174000D01*
X114889499Y-137178445D01*
X114889499Y-137178445D01*
G37*
G36*
X113139499Y-137178445D02*
G01*
X113176995Y-137189820D01*
X113211554Y-137208292D01*
X113241847Y-137233153D01*
X113266708Y-137263446D01*
X113285180Y-137298005D01*
X113296555Y-137335501D01*
X113301000Y-137380638D01*
X113301000Y-138019362D01*
X113296555Y-138064499D01*
X113285180Y-138101995D01*
X113266708Y-138136554D01*
X113241847Y-138166847D01*
X113211554Y-138191708D01*
X113176995Y-138210180D01*
X113139499Y-138221555D01*
X113094362Y-138226000D01*
X112355638Y-138226000D01*
X112310501Y-138221555D01*
X112273005Y-138210180D01*
X112238446Y-138191708D01*
X112208153Y-138166847D01*
X112183292Y-138136554D01*
X112164820Y-138101995D01*
X112153445Y-138064499D01*
X112149000Y-138019362D01*
X112149000Y-137380638D01*
X112153445Y-137335501D01*
X112164820Y-137298005D01*
X112183292Y-137263446D01*
X112208153Y-137233153D01*
X112238446Y-137208292D01*
X112273005Y-137189820D01*
X112310501Y-137178445D01*
X112355638Y-137174000D01*
X113094362Y-137174000D01*
X113139499Y-137178445D01*
X113139499Y-137178445D01*
G37*
G36*
X99442091Y-137078085D02*
G01*
X99476069Y-137088393D01*
X99507390Y-137105134D01*
X99534839Y-137127661D01*
X99557366Y-137155110D01*
X99574107Y-137186431D01*
X99584415Y-137220409D01*
X99588500Y-137261890D01*
X99588500Y-137938110D01*
X99584415Y-137979591D01*
X99574107Y-138013569D01*
X99557366Y-138044890D01*
X99534839Y-138072339D01*
X99507390Y-138094866D01*
X99476069Y-138111607D01*
X99442091Y-138121915D01*
X99400610Y-138126000D01*
X98799390Y-138126000D01*
X98757909Y-138121915D01*
X98723931Y-138111607D01*
X98692610Y-138094866D01*
X98665161Y-138072339D01*
X98642634Y-138044890D01*
X98625893Y-138013569D01*
X98615585Y-137979591D01*
X98611500Y-137938110D01*
X98611500Y-137261890D01*
X98615585Y-137220409D01*
X98625893Y-137186431D01*
X98642634Y-137155110D01*
X98665161Y-137127661D01*
X98692610Y-137105134D01*
X98723931Y-137088393D01*
X98757909Y-137078085D01*
X98799390Y-137074000D01*
X99400610Y-137074000D01*
X99442091Y-137078085D01*
X99442091Y-137078085D01*
G37*
G36*
X97867091Y-137078085D02*
G01*
X97901069Y-137088393D01*
X97932390Y-137105134D01*
X97959839Y-137127661D01*
X97982366Y-137155110D01*
X97999107Y-137186431D01*
X98009415Y-137220409D01*
X98013500Y-137261890D01*
X98013500Y-137938110D01*
X98009415Y-137979591D01*
X97999107Y-138013569D01*
X97982366Y-138044890D01*
X97959839Y-138072339D01*
X97932390Y-138094866D01*
X97901069Y-138111607D01*
X97867091Y-138121915D01*
X97825610Y-138126000D01*
X97224390Y-138126000D01*
X97182909Y-138121915D01*
X97148931Y-138111607D01*
X97117610Y-138094866D01*
X97090161Y-138072339D01*
X97067634Y-138044890D01*
X97050893Y-138013569D01*
X97040585Y-137979591D01*
X97036500Y-137938110D01*
X97036500Y-137261890D01*
X97040585Y-137220409D01*
X97050893Y-137186431D01*
X97067634Y-137155110D01*
X97090161Y-137127661D01*
X97117610Y-137105134D01*
X97148931Y-137088393D01*
X97182909Y-137078085D01*
X97224390Y-137074000D01*
X97825610Y-137074000D01*
X97867091Y-137078085D01*
X97867091Y-137078085D01*
G37*
G36*
X106179591Y-137103085D02*
G01*
X106213569Y-137113393D01*
X106244890Y-137130134D01*
X106272339Y-137152661D01*
X106294866Y-137180110D01*
X106311607Y-137211431D01*
X106321915Y-137245409D01*
X106326000Y-137286890D01*
X106326000Y-137888110D01*
X106321915Y-137929591D01*
X106311607Y-137963569D01*
X106294866Y-137994890D01*
X106272339Y-138022339D01*
X106244890Y-138044866D01*
X106213569Y-138061607D01*
X106179591Y-138071915D01*
X106138110Y-138076000D01*
X105461890Y-138076000D01*
X105420409Y-138071915D01*
X105386431Y-138061607D01*
X105355110Y-138044866D01*
X105327661Y-138022339D01*
X105305134Y-137994890D01*
X105288393Y-137963569D01*
X105278085Y-137929591D01*
X105274000Y-137888110D01*
X105274000Y-137286890D01*
X105278085Y-137245409D01*
X105288393Y-137211431D01*
X105305134Y-137180110D01*
X105327661Y-137152661D01*
X105355110Y-137130134D01*
X105386431Y-137113393D01*
X105420409Y-137103085D01*
X105461890Y-137099000D01*
X106138110Y-137099000D01*
X106179591Y-137103085D01*
X106179591Y-137103085D01*
G37*
G36*
X103779591Y-135928085D02*
G01*
X103813569Y-135938393D01*
X103844890Y-135955134D01*
X103872339Y-135977661D01*
X103894866Y-136005110D01*
X103911607Y-136036431D01*
X103921915Y-136070409D01*
X103926000Y-136111890D01*
X103926000Y-136713110D01*
X103921915Y-136754591D01*
X103911607Y-136788569D01*
X103894866Y-136819890D01*
X103872339Y-136847339D01*
X103844890Y-136869866D01*
X103813569Y-136886607D01*
X103779591Y-136896915D01*
X103738110Y-136901000D01*
X103061890Y-136901000D01*
X103020409Y-136896915D01*
X102986431Y-136886607D01*
X102955110Y-136869866D01*
X102927661Y-136847339D01*
X102905134Y-136819890D01*
X102888393Y-136788569D01*
X102878085Y-136754591D01*
X102874000Y-136713110D01*
X102874000Y-136111890D01*
X102878085Y-136070409D01*
X102888393Y-136036431D01*
X102905134Y-136005110D01*
X102927661Y-135977661D01*
X102955110Y-135955134D01*
X102986431Y-135938393D01*
X103020409Y-135928085D01*
X103061890Y-135924000D01*
X103738110Y-135924000D01*
X103779591Y-135928085D01*
X103779591Y-135928085D01*
G37*
G36*
X106179591Y-135528085D02*
G01*
X106213569Y-135538393D01*
X106244890Y-135555134D01*
X106272339Y-135577661D01*
X106294866Y-135605110D01*
X106311607Y-135636431D01*
X106321915Y-135670409D01*
X106326000Y-135711890D01*
X106326000Y-136313110D01*
X106321915Y-136354591D01*
X106311607Y-136388569D01*
X106294866Y-136419890D01*
X106272339Y-136447339D01*
X106244890Y-136469866D01*
X106213569Y-136486607D01*
X106179591Y-136496915D01*
X106138110Y-136501000D01*
X105461890Y-136501000D01*
X105420409Y-136496915D01*
X105386431Y-136486607D01*
X105355110Y-136469866D01*
X105327661Y-136447339D01*
X105305134Y-136419890D01*
X105288393Y-136388569D01*
X105278085Y-136354591D01*
X105274000Y-136313110D01*
X105274000Y-135711890D01*
X105278085Y-135670409D01*
X105288393Y-135636431D01*
X105305134Y-135605110D01*
X105327661Y-135577661D01*
X105355110Y-135555134D01*
X105386431Y-135538393D01*
X105420409Y-135528085D01*
X105461890Y-135524000D01*
X106138110Y-135524000D01*
X106179591Y-135528085D01*
X106179591Y-135528085D01*
G37*
G36*
X68490527Y-134143557D02*
G01*
X68576627Y-134152037D01*
X68746466Y-134203557D01*
X68746468Y-134203558D01*
X68782850Y-134223005D01*
X68902991Y-134287222D01*
X68925431Y-134305638D01*
X69040186Y-134399814D01*
X69103537Y-134477009D01*
X69152778Y-134537009D01*
X69236443Y-134693534D01*
X69287963Y-134863373D01*
X69305359Y-135040000D01*
X69287963Y-135216627D01*
X69236443Y-135386466D01*
X69152778Y-135542991D01*
X69142812Y-135555134D01*
X69040186Y-135680186D01*
X68938729Y-135763448D01*
X68902991Y-135792778D01*
X68746466Y-135876443D01*
X68576627Y-135927963D01*
X68510442Y-135934482D01*
X68444260Y-135941000D01*
X68355740Y-135941000D01*
X68289558Y-135934482D01*
X68223373Y-135927963D01*
X68053534Y-135876443D01*
X67897009Y-135792778D01*
X67861271Y-135763448D01*
X67759814Y-135680186D01*
X67657188Y-135555134D01*
X67647222Y-135542991D01*
X67563557Y-135386466D01*
X67512037Y-135216627D01*
X67494641Y-135040000D01*
X67512037Y-134863373D01*
X67563557Y-134693534D01*
X67647222Y-134537009D01*
X67696463Y-134477009D01*
X67759814Y-134399814D01*
X67874569Y-134305638D01*
X67897009Y-134287222D01*
X68017150Y-134223005D01*
X68053532Y-134203558D01*
X68053534Y-134203557D01*
X68223373Y-134152037D01*
X68309473Y-134143557D01*
X68355740Y-134139000D01*
X68444260Y-134139000D01*
X68490527Y-134143557D01*
X68490527Y-134143557D01*
G37*
G36*
X127010442Y-134085518D02*
G01*
X127076627Y-134092037D01*
X127246466Y-134143557D01*
X127402991Y-134227222D01*
X127438729Y-134256552D01*
X127540186Y-134339814D01*
X127619577Y-134436554D01*
X127652778Y-134477009D01*
X127736443Y-134633534D01*
X127787963Y-134803373D01*
X127805359Y-134980000D01*
X127787963Y-135156627D01*
X127736443Y-135326466D01*
X127652778Y-135482991D01*
X127623448Y-135518729D01*
X127540186Y-135620186D01*
X127438729Y-135703448D01*
X127402991Y-135732778D01*
X127246466Y-135816443D01*
X127076627Y-135867963D01*
X127010443Y-135874481D01*
X126944260Y-135881000D01*
X126855740Y-135881000D01*
X126789557Y-135874481D01*
X126723373Y-135867963D01*
X126553534Y-135816443D01*
X126397009Y-135732778D01*
X126361271Y-135703448D01*
X126259814Y-135620186D01*
X126176552Y-135518729D01*
X126147222Y-135482991D01*
X126063557Y-135326466D01*
X126012037Y-135156627D01*
X125994641Y-134980000D01*
X126012037Y-134803373D01*
X126063557Y-134633534D01*
X126147222Y-134477009D01*
X126180423Y-134436554D01*
X126259814Y-134339814D01*
X126361271Y-134256552D01*
X126397009Y-134227222D01*
X126553534Y-134143557D01*
X126723373Y-134092037D01*
X126789558Y-134085518D01*
X126855740Y-134079000D01*
X126944260Y-134079000D01*
X127010442Y-134085518D01*
X127010442Y-134085518D01*
G37*
G36*
X88429591Y-134278085D02*
G01*
X88463569Y-134288393D01*
X88494890Y-134305134D01*
X88522339Y-134327661D01*
X88544866Y-134355110D01*
X88561607Y-134386431D01*
X88571915Y-134420409D01*
X88576000Y-134461890D01*
X88576000Y-135138110D01*
X88571915Y-135179591D01*
X88561607Y-135213569D01*
X88544866Y-135244890D01*
X88522339Y-135272339D01*
X88494890Y-135294866D01*
X88463569Y-135311607D01*
X88429591Y-135321915D01*
X88388110Y-135326000D01*
X87786890Y-135326000D01*
X87745409Y-135321915D01*
X87711431Y-135311607D01*
X87680110Y-135294866D01*
X87652661Y-135272339D01*
X87630134Y-135244890D01*
X87613393Y-135213569D01*
X87603085Y-135179591D01*
X87599000Y-135138110D01*
X87599000Y-134461890D01*
X87603085Y-134420409D01*
X87613393Y-134386431D01*
X87630134Y-134355110D01*
X87652661Y-134327661D01*
X87680110Y-134305134D01*
X87711431Y-134288393D01*
X87745409Y-134278085D01*
X87786890Y-134274000D01*
X88388110Y-134274000D01*
X88429591Y-134278085D01*
X88429591Y-134278085D01*
G37*
G36*
X86854591Y-134278085D02*
G01*
X86888569Y-134288393D01*
X86919890Y-134305134D01*
X86947339Y-134327661D01*
X86969866Y-134355110D01*
X86986607Y-134386431D01*
X86996915Y-134420409D01*
X87001000Y-134461890D01*
X87001000Y-135138110D01*
X86996915Y-135179591D01*
X86986607Y-135213569D01*
X86969866Y-135244890D01*
X86947339Y-135272339D01*
X86919890Y-135294866D01*
X86888569Y-135311607D01*
X86854591Y-135321915D01*
X86813110Y-135326000D01*
X86211890Y-135326000D01*
X86170409Y-135321915D01*
X86136431Y-135311607D01*
X86105110Y-135294866D01*
X86077661Y-135272339D01*
X86055134Y-135244890D01*
X86038393Y-135213569D01*
X86028085Y-135179591D01*
X86024000Y-135138110D01*
X86024000Y-134461890D01*
X86028085Y-134420409D01*
X86038393Y-134386431D01*
X86055134Y-134355110D01*
X86077661Y-134327661D01*
X86105110Y-134305134D01*
X86136431Y-134288393D01*
X86170409Y-134278085D01*
X86211890Y-134274000D01*
X86813110Y-134274000D01*
X86854591Y-134278085D01*
X86854591Y-134278085D01*
G37*
G36*
X83264499Y-134103445D02*
G01*
X83301995Y-134114820D01*
X83336554Y-134133292D01*
X83366847Y-134158153D01*
X83391708Y-134188446D01*
X83410180Y-134223005D01*
X83421555Y-134260501D01*
X83426000Y-134305638D01*
X83426000Y-135044362D01*
X83421555Y-135089499D01*
X83410180Y-135126995D01*
X83391708Y-135161554D01*
X83366847Y-135191847D01*
X83336554Y-135216708D01*
X83301995Y-135235180D01*
X83264499Y-135246555D01*
X83219362Y-135251000D01*
X82580638Y-135251000D01*
X82535501Y-135246555D01*
X82498005Y-135235180D01*
X82463446Y-135216708D01*
X82433153Y-135191847D01*
X82408292Y-135161554D01*
X82389820Y-135126995D01*
X82378445Y-135089499D01*
X82374000Y-135044362D01*
X82374000Y-134305638D01*
X82378445Y-134260501D01*
X82389820Y-134223005D01*
X82408292Y-134188446D01*
X82433153Y-134158153D01*
X82463446Y-134133292D01*
X82498005Y-134114820D01*
X82535501Y-134103445D01*
X82580638Y-134099000D01*
X83219362Y-134099000D01*
X83264499Y-134103445D01*
X83264499Y-134103445D01*
G37*
G36*
X109529591Y-133978085D02*
G01*
X109563569Y-133988393D01*
X109594890Y-134005134D01*
X109622339Y-134027661D01*
X109644866Y-134055110D01*
X109661607Y-134086431D01*
X109671915Y-134120409D01*
X109676000Y-134161890D01*
X109676000Y-134838110D01*
X109671915Y-134879591D01*
X109661607Y-134913569D01*
X109644866Y-134944890D01*
X109622339Y-134972339D01*
X109594890Y-134994866D01*
X109563569Y-135011607D01*
X109529591Y-135021915D01*
X109488110Y-135026000D01*
X108886890Y-135026000D01*
X108845409Y-135021915D01*
X108811431Y-135011607D01*
X108780110Y-134994866D01*
X108752661Y-134972339D01*
X108730134Y-134944890D01*
X108713393Y-134913569D01*
X108703085Y-134879591D01*
X108699000Y-134838110D01*
X108699000Y-134161890D01*
X108703085Y-134120409D01*
X108713393Y-134086431D01*
X108730134Y-134055110D01*
X108752661Y-134027661D01*
X108780110Y-134005134D01*
X108811431Y-133988393D01*
X108845409Y-133978085D01*
X108886890Y-133974000D01*
X109488110Y-133974000D01*
X109529591Y-133978085D01*
X109529591Y-133978085D01*
G37*
G36*
X107954591Y-133978085D02*
G01*
X107988569Y-133988393D01*
X108019890Y-134005134D01*
X108047339Y-134027661D01*
X108069866Y-134055110D01*
X108086607Y-134086431D01*
X108096915Y-134120409D01*
X108101000Y-134161890D01*
X108101000Y-134838110D01*
X108096915Y-134879591D01*
X108086607Y-134913569D01*
X108069866Y-134944890D01*
X108047339Y-134972339D01*
X108019890Y-134994866D01*
X107988569Y-135011607D01*
X107954591Y-135021915D01*
X107913110Y-135026000D01*
X107311890Y-135026000D01*
X107270409Y-135021915D01*
X107236431Y-135011607D01*
X107205110Y-134994866D01*
X107177661Y-134972339D01*
X107155134Y-134944890D01*
X107138393Y-134913569D01*
X107128085Y-134879591D01*
X107124000Y-134838110D01*
X107124000Y-134161890D01*
X107128085Y-134120409D01*
X107138393Y-134086431D01*
X107155134Y-134055110D01*
X107177661Y-134027661D01*
X107205110Y-134005134D01*
X107236431Y-133988393D01*
X107270409Y-133978085D01*
X107311890Y-133974000D01*
X107913110Y-133974000D01*
X107954591Y-133978085D01*
X107954591Y-133978085D01*
G37*
G36*
X98655355Y-126875083D02*
G01*
X98660029Y-126876501D01*
X98664330Y-126878800D01*
X98670702Y-126884029D01*
X98691076Y-126897643D01*
X98713715Y-126907020D01*
X98737749Y-126911800D01*
X98762253Y-126911800D01*
X98786286Y-126907019D01*
X98808925Y-126897642D01*
X98829298Y-126884029D01*
X98835670Y-126878800D01*
X98839971Y-126876501D01*
X98844645Y-126875083D01*
X98855641Y-126874000D01*
X99144359Y-126874000D01*
X99155355Y-126875083D01*
X99160029Y-126876501D01*
X99164330Y-126878800D01*
X99170702Y-126884029D01*
X99191076Y-126897643D01*
X99213715Y-126907020D01*
X99237749Y-126911800D01*
X99262253Y-126911800D01*
X99286286Y-126907019D01*
X99308925Y-126897642D01*
X99329298Y-126884029D01*
X99335670Y-126878800D01*
X99339971Y-126876501D01*
X99344645Y-126875083D01*
X99355641Y-126874000D01*
X99644359Y-126874000D01*
X99655355Y-126875083D01*
X99660029Y-126876501D01*
X99664330Y-126878800D01*
X99670702Y-126884029D01*
X99691076Y-126897643D01*
X99713715Y-126907020D01*
X99737749Y-126911800D01*
X99762253Y-126911800D01*
X99786286Y-126907019D01*
X99808925Y-126897642D01*
X99829298Y-126884029D01*
X99835670Y-126878800D01*
X99839971Y-126876501D01*
X99844645Y-126875083D01*
X99855641Y-126874000D01*
X100144359Y-126874000D01*
X100155355Y-126875083D01*
X100160029Y-126876501D01*
X100164330Y-126878800D01*
X100170702Y-126884029D01*
X100191076Y-126897643D01*
X100213715Y-126907020D01*
X100237749Y-126911800D01*
X100262253Y-126911800D01*
X100286286Y-126907019D01*
X100308925Y-126897642D01*
X100329298Y-126884029D01*
X100335670Y-126878800D01*
X100339971Y-126876501D01*
X100344645Y-126875083D01*
X100355641Y-126874000D01*
X100644359Y-126874000D01*
X100655355Y-126875083D01*
X100660029Y-126876501D01*
X100664330Y-126878800D01*
X100670702Y-126884029D01*
X100691076Y-126897643D01*
X100713715Y-126907020D01*
X100737749Y-126911800D01*
X100762253Y-126911800D01*
X100786286Y-126907019D01*
X100808925Y-126897642D01*
X100829298Y-126884029D01*
X100835670Y-126878800D01*
X100839971Y-126876501D01*
X100844645Y-126875083D01*
X100855641Y-126874000D01*
X101144359Y-126874000D01*
X101155355Y-126875083D01*
X101160029Y-126876501D01*
X101164330Y-126878800D01*
X101170702Y-126884029D01*
X101191076Y-126897643D01*
X101213715Y-126907020D01*
X101237749Y-126911800D01*
X101262253Y-126911800D01*
X101286286Y-126907019D01*
X101308925Y-126897642D01*
X101329298Y-126884029D01*
X101335670Y-126878800D01*
X101339971Y-126876501D01*
X101344645Y-126875083D01*
X101355641Y-126874000D01*
X101644359Y-126874000D01*
X101655355Y-126875083D01*
X101660029Y-126876501D01*
X101664330Y-126878800D01*
X101670702Y-126884029D01*
X101691076Y-126897643D01*
X101713715Y-126907020D01*
X101737749Y-126911800D01*
X101762253Y-126911800D01*
X101786286Y-126907019D01*
X101808925Y-126897642D01*
X101829298Y-126884029D01*
X101835670Y-126878800D01*
X101839971Y-126876501D01*
X101844645Y-126875083D01*
X101855641Y-126874000D01*
X102144359Y-126874000D01*
X102155355Y-126875083D01*
X102160029Y-126876501D01*
X102164330Y-126878800D01*
X102170702Y-126884029D01*
X102191076Y-126897643D01*
X102213715Y-126907020D01*
X102237749Y-126911800D01*
X102262253Y-126911800D01*
X102286286Y-126907019D01*
X102308925Y-126897642D01*
X102329298Y-126884029D01*
X102335670Y-126878800D01*
X102339971Y-126876501D01*
X102344645Y-126875083D01*
X102355641Y-126874000D01*
X102644359Y-126874000D01*
X102655355Y-126875083D01*
X102660029Y-126876501D01*
X102664330Y-126878800D01*
X102670702Y-126884029D01*
X102691076Y-126897643D01*
X102713715Y-126907020D01*
X102737749Y-126911800D01*
X102762253Y-126911800D01*
X102786286Y-126907019D01*
X102808925Y-126897642D01*
X102829298Y-126884029D01*
X102835670Y-126878800D01*
X102839971Y-126876501D01*
X102844645Y-126875083D01*
X102855641Y-126874000D01*
X103144359Y-126874000D01*
X103155355Y-126875083D01*
X103160029Y-126876501D01*
X103164330Y-126878800D01*
X103170702Y-126884029D01*
X103191076Y-126897643D01*
X103213715Y-126907020D01*
X103237749Y-126911800D01*
X103262253Y-126911800D01*
X103286286Y-126907019D01*
X103308925Y-126897642D01*
X103329298Y-126884029D01*
X103335670Y-126878800D01*
X103339971Y-126876501D01*
X103344645Y-126875083D01*
X103355641Y-126874000D01*
X103644359Y-126874000D01*
X103655355Y-126875083D01*
X103660029Y-126876501D01*
X103664331Y-126878800D01*
X103668104Y-126881896D01*
X103671200Y-126885669D01*
X103673499Y-126889971D01*
X103674917Y-126894645D01*
X103676000Y-126905641D01*
X103676000Y-127999001D01*
X103678402Y-128023387D01*
X103685515Y-128046836D01*
X103697066Y-128068447D01*
X103712611Y-128087389D01*
X103731553Y-128102934D01*
X103753164Y-128114485D01*
X103776613Y-128121598D01*
X103800999Y-128124000D01*
X104894359Y-128124000D01*
X104905355Y-128125083D01*
X104910029Y-128126501D01*
X104914331Y-128128800D01*
X104918104Y-128131896D01*
X104921200Y-128135669D01*
X104923499Y-128139971D01*
X104924917Y-128144645D01*
X104926000Y-128155641D01*
X104926000Y-128444359D01*
X104924917Y-128455355D01*
X104923499Y-128460029D01*
X104921200Y-128464330D01*
X104915971Y-128470702D01*
X104902357Y-128491076D01*
X104892980Y-128513715D01*
X104888200Y-128537749D01*
X104888200Y-128562253D01*
X104892981Y-128586286D01*
X104902358Y-128608925D01*
X104915971Y-128629298D01*
X104921200Y-128635670D01*
X104923499Y-128639971D01*
X104924917Y-128644645D01*
X104926000Y-128655641D01*
X104926000Y-128944359D01*
X104924917Y-128955355D01*
X104923499Y-128960029D01*
X104921200Y-128964330D01*
X104915971Y-128970702D01*
X104902357Y-128991076D01*
X104892980Y-129013715D01*
X104888200Y-129037749D01*
X104888200Y-129062253D01*
X104892981Y-129086286D01*
X104902358Y-129108925D01*
X104915971Y-129129298D01*
X104921200Y-129135670D01*
X104923499Y-129139971D01*
X104924917Y-129144645D01*
X104926000Y-129155641D01*
X104926000Y-129444359D01*
X104924917Y-129455355D01*
X104923499Y-129460029D01*
X104921200Y-129464330D01*
X104915971Y-129470702D01*
X104902357Y-129491076D01*
X104892980Y-129513715D01*
X104888200Y-129537749D01*
X104888200Y-129562253D01*
X104892981Y-129586286D01*
X104902358Y-129608925D01*
X104915971Y-129629298D01*
X104921200Y-129635670D01*
X104923499Y-129639971D01*
X104924917Y-129644645D01*
X104926000Y-129655641D01*
X104926000Y-129944359D01*
X104924917Y-129955355D01*
X104923499Y-129960029D01*
X104921200Y-129964330D01*
X104915971Y-129970702D01*
X104902357Y-129991076D01*
X104892980Y-130013715D01*
X104888200Y-130037749D01*
X104888200Y-130062253D01*
X104892981Y-130086286D01*
X104902358Y-130108925D01*
X104915971Y-130129298D01*
X104921200Y-130135670D01*
X104923499Y-130139971D01*
X104924917Y-130144645D01*
X104926000Y-130155641D01*
X104926000Y-130444359D01*
X104924917Y-130455355D01*
X104923499Y-130460029D01*
X104921200Y-130464330D01*
X104915971Y-130470702D01*
X104902357Y-130491076D01*
X104892980Y-130513715D01*
X104888200Y-130537749D01*
X104888200Y-130562253D01*
X104892981Y-130586286D01*
X104902358Y-130608925D01*
X104915971Y-130629298D01*
X104921200Y-130635670D01*
X104923499Y-130639971D01*
X104924917Y-130644645D01*
X104926000Y-130655641D01*
X104926000Y-130944359D01*
X104924917Y-130955355D01*
X104923499Y-130960029D01*
X104921200Y-130964330D01*
X104915971Y-130970702D01*
X104902357Y-130991076D01*
X104892980Y-131013715D01*
X104888200Y-131037749D01*
X104888200Y-131062253D01*
X104892981Y-131086286D01*
X104902358Y-131108925D01*
X104915971Y-131129298D01*
X104921200Y-131135670D01*
X104923499Y-131139971D01*
X104924917Y-131144645D01*
X104926000Y-131155641D01*
X104926000Y-131444359D01*
X104924917Y-131455355D01*
X104923499Y-131460029D01*
X104921200Y-131464330D01*
X104915971Y-131470702D01*
X104902357Y-131491076D01*
X104892980Y-131513715D01*
X104888200Y-131537749D01*
X104888200Y-131562253D01*
X104892981Y-131586286D01*
X104902358Y-131608925D01*
X104915971Y-131629298D01*
X104921200Y-131635670D01*
X104923499Y-131639971D01*
X104924917Y-131644645D01*
X104926000Y-131655641D01*
X104926000Y-131944359D01*
X104924917Y-131955355D01*
X104923499Y-131960029D01*
X104921200Y-131964330D01*
X104915971Y-131970702D01*
X104902357Y-131991076D01*
X104892980Y-132013715D01*
X104888200Y-132037749D01*
X104888200Y-132062253D01*
X104892981Y-132086286D01*
X104902358Y-132108925D01*
X104915971Y-132129298D01*
X104921200Y-132135670D01*
X104923499Y-132139971D01*
X104924917Y-132144645D01*
X104926000Y-132155641D01*
X104926000Y-132444359D01*
X104924917Y-132455355D01*
X104923499Y-132460029D01*
X104921200Y-132464330D01*
X104915971Y-132470702D01*
X104902357Y-132491076D01*
X104892980Y-132513715D01*
X104888200Y-132537749D01*
X104888200Y-132562253D01*
X104892981Y-132586286D01*
X104902358Y-132608925D01*
X104915971Y-132629298D01*
X104921200Y-132635670D01*
X104923499Y-132639971D01*
X104924917Y-132644645D01*
X104926000Y-132655641D01*
X104926000Y-132944359D01*
X104924917Y-132955355D01*
X104923499Y-132960029D01*
X104921200Y-132964330D01*
X104915971Y-132970702D01*
X104902357Y-132991076D01*
X104892980Y-133013715D01*
X104888200Y-133037749D01*
X104888200Y-133062253D01*
X104892981Y-133086286D01*
X104902358Y-133108925D01*
X104915971Y-133129298D01*
X104921200Y-133135670D01*
X104923499Y-133139971D01*
X104924917Y-133144645D01*
X104926000Y-133155641D01*
X104926000Y-133444359D01*
X104924917Y-133455355D01*
X104923499Y-133460029D01*
X104921200Y-133464331D01*
X104918104Y-133468104D01*
X104914331Y-133471200D01*
X104910029Y-133473499D01*
X104905355Y-133474917D01*
X104894359Y-133476000D01*
X103800999Y-133476000D01*
X103776613Y-133478402D01*
X103753164Y-133485515D01*
X103731553Y-133497066D01*
X103712611Y-133512611D01*
X103697066Y-133531553D01*
X103685515Y-133553164D01*
X103678402Y-133576613D01*
X103676000Y-133600999D01*
X103676000Y-134694359D01*
X103674917Y-134705355D01*
X103673499Y-134710029D01*
X103671200Y-134714331D01*
X103668104Y-134718104D01*
X103664331Y-134721200D01*
X103660029Y-134723499D01*
X103655355Y-134724917D01*
X103644359Y-134726000D01*
X103355641Y-134726000D01*
X103344645Y-134724917D01*
X103339971Y-134723499D01*
X103335670Y-134721200D01*
X103329298Y-134715971D01*
X103308924Y-134702357D01*
X103286285Y-134692980D01*
X103262251Y-134688200D01*
X103237747Y-134688200D01*
X103213714Y-134692981D01*
X103191075Y-134702358D01*
X103170702Y-134715971D01*
X103164330Y-134721200D01*
X103160029Y-134723499D01*
X103155355Y-134724917D01*
X103144359Y-134726000D01*
X102855641Y-134726000D01*
X102844645Y-134724917D01*
X102839971Y-134723499D01*
X102835670Y-134721200D01*
X102829298Y-134715971D01*
X102808924Y-134702357D01*
X102786285Y-134692980D01*
X102762251Y-134688200D01*
X102737747Y-134688200D01*
X102713714Y-134692981D01*
X102691075Y-134702358D01*
X102670702Y-134715971D01*
X102664330Y-134721200D01*
X102660029Y-134723499D01*
X102655355Y-134724917D01*
X102644359Y-134726000D01*
X102355641Y-134726000D01*
X102344645Y-134724917D01*
X102339971Y-134723499D01*
X102335670Y-134721200D01*
X102329298Y-134715971D01*
X102308924Y-134702357D01*
X102286285Y-134692980D01*
X102262251Y-134688200D01*
X102237747Y-134688200D01*
X102213714Y-134692981D01*
X102191075Y-134702358D01*
X102170702Y-134715971D01*
X102164330Y-134721200D01*
X102160029Y-134723499D01*
X102155355Y-134724917D01*
X102144359Y-134726000D01*
X101855641Y-134726000D01*
X101844645Y-134724917D01*
X101839971Y-134723499D01*
X101835670Y-134721200D01*
X101829298Y-134715971D01*
X101808924Y-134702357D01*
X101786285Y-134692980D01*
X101762251Y-134688200D01*
X101737747Y-134688200D01*
X101713714Y-134692981D01*
X101691075Y-134702358D01*
X101670702Y-134715971D01*
X101664330Y-134721200D01*
X101660029Y-134723499D01*
X101655355Y-134724917D01*
X101644359Y-134726000D01*
X101355641Y-134726000D01*
X101344645Y-134724917D01*
X101339971Y-134723499D01*
X101335670Y-134721200D01*
X101329298Y-134715971D01*
X101308924Y-134702357D01*
X101286285Y-134692980D01*
X101262251Y-134688200D01*
X101237747Y-134688200D01*
X101213714Y-134692981D01*
X101191075Y-134702358D01*
X101170702Y-134715971D01*
X101164330Y-134721200D01*
X101160029Y-134723499D01*
X101155355Y-134724917D01*
X101144359Y-134726000D01*
X100855641Y-134726000D01*
X100844645Y-134724917D01*
X100839971Y-134723499D01*
X100835670Y-134721200D01*
X100829298Y-134715971D01*
X100808924Y-134702357D01*
X100786285Y-134692980D01*
X100762251Y-134688200D01*
X100737747Y-134688200D01*
X100713714Y-134692981D01*
X100691075Y-134702358D01*
X100670702Y-134715971D01*
X100664330Y-134721200D01*
X100660029Y-134723499D01*
X100655355Y-134724917D01*
X100644359Y-134726000D01*
X100355641Y-134726000D01*
X100344645Y-134724917D01*
X100339971Y-134723499D01*
X100335670Y-134721200D01*
X100329298Y-134715971D01*
X100308924Y-134702357D01*
X100286285Y-134692980D01*
X100262251Y-134688200D01*
X100237747Y-134688200D01*
X100213714Y-134692981D01*
X100191075Y-134702358D01*
X100170702Y-134715971D01*
X100164330Y-134721200D01*
X100160029Y-134723499D01*
X100155355Y-134724917D01*
X100144359Y-134726000D01*
X99855641Y-134726000D01*
X99844645Y-134724917D01*
X99839971Y-134723499D01*
X99835670Y-134721200D01*
X99829298Y-134715971D01*
X99808924Y-134702357D01*
X99786285Y-134692980D01*
X99762251Y-134688200D01*
X99737747Y-134688200D01*
X99713714Y-134692981D01*
X99691075Y-134702358D01*
X99670702Y-134715971D01*
X99664330Y-134721200D01*
X99660029Y-134723499D01*
X99655355Y-134724917D01*
X99644359Y-134726000D01*
X99355641Y-134726000D01*
X99344645Y-134724917D01*
X99339971Y-134723499D01*
X99335670Y-134721200D01*
X99329298Y-134715971D01*
X99308924Y-134702357D01*
X99286285Y-134692980D01*
X99262251Y-134688200D01*
X99237747Y-134688200D01*
X99213714Y-134692981D01*
X99191075Y-134702358D01*
X99170702Y-134715971D01*
X99164330Y-134721200D01*
X99160029Y-134723499D01*
X99155355Y-134724917D01*
X99144359Y-134726000D01*
X98855641Y-134726000D01*
X98844645Y-134724917D01*
X98839971Y-134723499D01*
X98835670Y-134721200D01*
X98829298Y-134715971D01*
X98808924Y-134702357D01*
X98786285Y-134692980D01*
X98762251Y-134688200D01*
X98737747Y-134688200D01*
X98713714Y-134692981D01*
X98691075Y-134702358D01*
X98670702Y-134715971D01*
X98664330Y-134721200D01*
X98660029Y-134723499D01*
X98655355Y-134724917D01*
X98644359Y-134726000D01*
X98355641Y-134726000D01*
X98344645Y-134724917D01*
X98339971Y-134723499D01*
X98335669Y-134721200D01*
X98331896Y-134718104D01*
X98328800Y-134714331D01*
X98326501Y-134710029D01*
X98325083Y-134705355D01*
X98324000Y-134694359D01*
X98324000Y-133600999D01*
X98321598Y-133576613D01*
X98314485Y-133553164D01*
X98302934Y-133531553D01*
X98287389Y-133512611D01*
X98268447Y-133497066D01*
X98246836Y-133485515D01*
X98223387Y-133478402D01*
X98199001Y-133476000D01*
X97105641Y-133476000D01*
X97094645Y-133474917D01*
X97089971Y-133473499D01*
X97085669Y-133471200D01*
X97081896Y-133468104D01*
X97078800Y-133464331D01*
X97076501Y-133460029D01*
X97075083Y-133455355D01*
X97074000Y-133444359D01*
X97074000Y-133155641D01*
X97075083Y-133144645D01*
X97076501Y-133139971D01*
X97078800Y-133135670D01*
X97084029Y-133129298D01*
X97097643Y-133108924D01*
X97107020Y-133086285D01*
X97111800Y-133062251D01*
X97111800Y-133037747D01*
X97107019Y-133013714D01*
X97097642Y-132991075D01*
X97084029Y-132970702D01*
X97078800Y-132964330D01*
X97076501Y-132960029D01*
X97075083Y-132955355D01*
X97074000Y-132944359D01*
X97074000Y-132655641D01*
X97075083Y-132644645D01*
X97076501Y-132639971D01*
X97078800Y-132635670D01*
X97084029Y-132629298D01*
X97097643Y-132608924D01*
X97107020Y-132586285D01*
X97111800Y-132562251D01*
X97111800Y-132537747D01*
X97107019Y-132513714D01*
X97097642Y-132491075D01*
X97084029Y-132470702D01*
X97078800Y-132464330D01*
X97076501Y-132460029D01*
X97075083Y-132455355D01*
X97074000Y-132444359D01*
X97074000Y-132155641D01*
X97075083Y-132144645D01*
X97076501Y-132139971D01*
X97078800Y-132135670D01*
X97084029Y-132129298D01*
X97097643Y-132108924D01*
X97107020Y-132086285D01*
X97111800Y-132062251D01*
X97111800Y-132037747D01*
X97107019Y-132013714D01*
X97097642Y-131991075D01*
X97084029Y-131970702D01*
X97078800Y-131964330D01*
X97076501Y-131960029D01*
X97075083Y-131955355D01*
X97074000Y-131944359D01*
X97074000Y-131655641D01*
X97075083Y-131644645D01*
X97076501Y-131639971D01*
X97078800Y-131635670D01*
X97084029Y-131629298D01*
X97097643Y-131608924D01*
X97107020Y-131586285D01*
X97111800Y-131562251D01*
X97111800Y-131537747D01*
X97107019Y-131513714D01*
X97097642Y-131491075D01*
X97084029Y-131470702D01*
X97078800Y-131464330D01*
X97076501Y-131460029D01*
X97075083Y-131455355D01*
X97074000Y-131444359D01*
X97074000Y-131155641D01*
X97075083Y-131144645D01*
X97076501Y-131139971D01*
X97078800Y-131135670D01*
X97084029Y-131129298D01*
X97097643Y-131108924D01*
X97107020Y-131086285D01*
X97111800Y-131062251D01*
X97111800Y-131037747D01*
X97107019Y-131013714D01*
X97097642Y-130991075D01*
X97084029Y-130970702D01*
X97078800Y-130964330D01*
X97076501Y-130960029D01*
X97075083Y-130955355D01*
X97074000Y-130944359D01*
X97074000Y-130655641D01*
X97075083Y-130644645D01*
X97076501Y-130639971D01*
X97078800Y-130635670D01*
X97084029Y-130629298D01*
X97097643Y-130608924D01*
X97107020Y-130586285D01*
X97111800Y-130562251D01*
X97111800Y-130537747D01*
X97107019Y-130513714D01*
X97097642Y-130491075D01*
X97084029Y-130470702D01*
X97078800Y-130464330D01*
X97076501Y-130460029D01*
X97075083Y-130455355D01*
X97074000Y-130444359D01*
X97074000Y-130155641D01*
X97075083Y-130144645D01*
X97076501Y-130139971D01*
X97078800Y-130135670D01*
X97084029Y-130129298D01*
X97097643Y-130108924D01*
X97107020Y-130086285D01*
X97111800Y-130062251D01*
X97111800Y-130037747D01*
X97107019Y-130013714D01*
X97097642Y-129991075D01*
X97084029Y-129970702D01*
X97078800Y-129964330D01*
X97076501Y-129960029D01*
X97075083Y-129955355D01*
X97074000Y-129944359D01*
X97074000Y-129655641D01*
X97075083Y-129644645D01*
X97076501Y-129639971D01*
X97078800Y-129635670D01*
X97084029Y-129629298D01*
X97097643Y-129608924D01*
X97107020Y-129586285D01*
X97111800Y-129562251D01*
X97111800Y-129537747D01*
X97107019Y-129513714D01*
X97097642Y-129491075D01*
X97084029Y-129470702D01*
X97078800Y-129464330D01*
X97076501Y-129460029D01*
X97075083Y-129455355D01*
X97074000Y-129444359D01*
X97074000Y-129155641D01*
X97075083Y-129144645D01*
X97076501Y-129139971D01*
X97078800Y-129135670D01*
X97084029Y-129129298D01*
X97097643Y-129108924D01*
X97107020Y-129086285D01*
X97111800Y-129062251D01*
X97111800Y-129037747D01*
X97107019Y-129013714D01*
X97097642Y-128991075D01*
X97084029Y-128970702D01*
X97078800Y-128964330D01*
X97076501Y-128960029D01*
X97075083Y-128955355D01*
X97074000Y-128944359D01*
X97074000Y-128655641D01*
X97075083Y-128644645D01*
X97076501Y-128639971D01*
X97078800Y-128635670D01*
X97084029Y-128629298D01*
X97097643Y-128608924D01*
X97107020Y-128586285D01*
X97111800Y-128562251D01*
X97111800Y-128537747D01*
X97107019Y-128513714D01*
X97097642Y-128491075D01*
X97084029Y-128470702D01*
X97078800Y-128464330D01*
X97076501Y-128460029D01*
X97075083Y-128455355D01*
X97074000Y-128444359D01*
X97074000Y-128155641D01*
X97075083Y-128144645D01*
X97076501Y-128139971D01*
X97078800Y-128135669D01*
X97081896Y-128131896D01*
X97085669Y-128128800D01*
X97089971Y-128126501D01*
X97094645Y-128125083D01*
X97105641Y-128124000D01*
X98199001Y-128124000D01*
X98223387Y-128121598D01*
X98246836Y-128114485D01*
X98268447Y-128102934D01*
X98287389Y-128087389D01*
X98302934Y-128068447D01*
X98314485Y-128046836D01*
X98321598Y-128023387D01*
X98324000Y-127999001D01*
X98324000Y-126905641D01*
X98325083Y-126894645D01*
X98326501Y-126889971D01*
X98328800Y-126885669D01*
X98331896Y-126881896D01*
X98335669Y-126878800D01*
X98339971Y-126876501D01*
X98344645Y-126875083D01*
X98355641Y-126874000D01*
X98644359Y-126874000D01*
X98655355Y-126875083D01*
X98655355Y-126875083D01*
G37*
G36*
X113214499Y-133478445D02*
G01*
X113251995Y-133489820D01*
X113286554Y-133508292D01*
X113316847Y-133533153D01*
X113341708Y-133563446D01*
X113360180Y-133598005D01*
X113371555Y-133635501D01*
X113376000Y-133680638D01*
X113376000Y-134319362D01*
X113371555Y-134364499D01*
X113360180Y-134401995D01*
X113341708Y-134436554D01*
X113316847Y-134466847D01*
X113286554Y-134491708D01*
X113251995Y-134510180D01*
X113214499Y-134521555D01*
X113169362Y-134526000D01*
X112430638Y-134526000D01*
X112385501Y-134521555D01*
X112348005Y-134510180D01*
X112313446Y-134491708D01*
X112283153Y-134466847D01*
X112258292Y-134436554D01*
X112239820Y-134401995D01*
X112228445Y-134364499D01*
X112224000Y-134319362D01*
X112224000Y-133680638D01*
X112228445Y-133635501D01*
X112239820Y-133598005D01*
X112258292Y-133563446D01*
X112283153Y-133533153D01*
X112313446Y-133508292D01*
X112348005Y-133489820D01*
X112385501Y-133478445D01*
X112430638Y-133474000D01*
X113169362Y-133474000D01*
X113214499Y-133478445D01*
X113214499Y-133478445D01*
G37*
G36*
X114964499Y-133478445D02*
G01*
X115001995Y-133489820D01*
X115036554Y-133508292D01*
X115066847Y-133533153D01*
X115091708Y-133563446D01*
X115110180Y-133598005D01*
X115121555Y-133635501D01*
X115126000Y-133680638D01*
X115126000Y-134319362D01*
X115121555Y-134364499D01*
X115110180Y-134401995D01*
X115091708Y-134436554D01*
X115066847Y-134466847D01*
X115036554Y-134491708D01*
X115001995Y-134510180D01*
X114964499Y-134521555D01*
X114919362Y-134526000D01*
X114180638Y-134526000D01*
X114135501Y-134521555D01*
X114098005Y-134510180D01*
X114063446Y-134491708D01*
X114033153Y-134466847D01*
X114008292Y-134436554D01*
X113989820Y-134401995D01*
X113978445Y-134364499D01*
X113974000Y-134319362D01*
X113974000Y-133680638D01*
X113978445Y-133635501D01*
X113989820Y-133598005D01*
X114008292Y-133563446D01*
X114033153Y-133533153D01*
X114063446Y-133508292D01*
X114098005Y-133489820D01*
X114135501Y-133478445D01*
X114180638Y-133474000D01*
X114919362Y-133474000D01*
X114964499Y-133478445D01*
X114964499Y-133478445D01*
G37*
G36*
X83264499Y-132353445D02*
G01*
X83301995Y-132364820D01*
X83336554Y-132383292D01*
X83366847Y-132408153D01*
X83391708Y-132438446D01*
X83410180Y-132473005D01*
X83421555Y-132510501D01*
X83426000Y-132555638D01*
X83426000Y-133294362D01*
X83421555Y-133339499D01*
X83410180Y-133376995D01*
X83391708Y-133411554D01*
X83366847Y-133441847D01*
X83336554Y-133466708D01*
X83301995Y-133485180D01*
X83264499Y-133496555D01*
X83219362Y-133501000D01*
X82580638Y-133501000D01*
X82535501Y-133496555D01*
X82498005Y-133485180D01*
X82463446Y-133466708D01*
X82433153Y-133441847D01*
X82408292Y-133411554D01*
X82389820Y-133376995D01*
X82378445Y-133339499D01*
X82374000Y-133294362D01*
X82374000Y-132555638D01*
X82378445Y-132510501D01*
X82389820Y-132473005D01*
X82408292Y-132438446D01*
X82433153Y-132408153D01*
X82463446Y-132383292D01*
X82498005Y-132364820D01*
X82535501Y-132353445D01*
X82580638Y-132349000D01*
X83219362Y-132349000D01*
X83264499Y-132353445D01*
X83264499Y-132353445D01*
G37*
G36*
X68490527Y-131603557D02*
G01*
X68576627Y-131612037D01*
X68746466Y-131663557D01*
X68902991Y-131747222D01*
X68907632Y-131751031D01*
X69040186Y-131859814D01*
X69103530Y-131937000D01*
X69152778Y-131997009D01*
X69152779Y-131997011D01*
X69223489Y-132129298D01*
X69236443Y-132153534D01*
X69287963Y-132323373D01*
X69305359Y-132500000D01*
X69287963Y-132676627D01*
X69236443Y-132846466D01*
X69152778Y-133002991D01*
X69143977Y-133013715D01*
X69040186Y-133140186D01*
X68941338Y-133221307D01*
X68902991Y-133252778D01*
X68746466Y-133336443D01*
X68576627Y-133387963D01*
X68510442Y-133394482D01*
X68444260Y-133401000D01*
X68355740Y-133401000D01*
X68289558Y-133394482D01*
X68223373Y-133387963D01*
X68053534Y-133336443D01*
X67897009Y-133252778D01*
X67858662Y-133221307D01*
X67759814Y-133140186D01*
X67656023Y-133013715D01*
X67647222Y-133002991D01*
X67563557Y-132846466D01*
X67512037Y-132676627D01*
X67494641Y-132500000D01*
X67512037Y-132323373D01*
X67563557Y-132153534D01*
X67576512Y-132129298D01*
X67647221Y-131997011D01*
X67647222Y-131997009D01*
X67696470Y-131937000D01*
X67759814Y-131859814D01*
X67892368Y-131751031D01*
X67897009Y-131747222D01*
X68053534Y-131663557D01*
X68223373Y-131612037D01*
X68309473Y-131603557D01*
X68355740Y-131599000D01*
X68444260Y-131599000D01*
X68490527Y-131603557D01*
X68490527Y-131603557D01*
G37*
G36*
X127010442Y-131545518D02*
G01*
X127076627Y-131552037D01*
X127246466Y-131603557D01*
X127246468Y-131603558D01*
X127294624Y-131629298D01*
X127402991Y-131687222D01*
X127433183Y-131712000D01*
X127540186Y-131799814D01*
X127612557Y-131888000D01*
X127652778Y-131937009D01*
X127736443Y-132093534D01*
X127787963Y-132263373D01*
X127805359Y-132440000D01*
X127787963Y-132616627D01*
X127740728Y-132772339D01*
X127736442Y-132786468D01*
X127704372Y-132846466D01*
X127652778Y-132942991D01*
X127635265Y-132964330D01*
X127540186Y-133080186D01*
X127455390Y-133149775D01*
X127402991Y-133192778D01*
X127246466Y-133276443D01*
X127076627Y-133327963D01*
X127010442Y-133334482D01*
X126944260Y-133341000D01*
X126855740Y-133341000D01*
X126789558Y-133334482D01*
X126723373Y-133327963D01*
X126553534Y-133276443D01*
X126397009Y-133192778D01*
X126344610Y-133149775D01*
X126259814Y-133080186D01*
X126164735Y-132964330D01*
X126147222Y-132942991D01*
X126095628Y-132846466D01*
X126063558Y-132786468D01*
X126059272Y-132772339D01*
X126012037Y-132616627D01*
X125994641Y-132440000D01*
X126012037Y-132263373D01*
X126063557Y-132093534D01*
X126147222Y-131937009D01*
X126187443Y-131888000D01*
X126259814Y-131799814D01*
X126366817Y-131712000D01*
X126397009Y-131687222D01*
X126505376Y-131629298D01*
X126553532Y-131603558D01*
X126553534Y-131603557D01*
X126723373Y-131552037D01*
X126789558Y-131545518D01*
X126855740Y-131539000D01*
X126944260Y-131539000D01*
X127010442Y-131545518D01*
X127010442Y-131545518D01*
G37*
G36*
X86854591Y-132278085D02*
G01*
X86888569Y-132288393D01*
X86919890Y-132305134D01*
X86947339Y-132327661D01*
X86969866Y-132355110D01*
X86986607Y-132386431D01*
X86996915Y-132420409D01*
X87001000Y-132461890D01*
X87001000Y-133138110D01*
X86996915Y-133179591D01*
X86986607Y-133213569D01*
X86969866Y-133244890D01*
X86947339Y-133272339D01*
X86919890Y-133294866D01*
X86888569Y-133311607D01*
X86854591Y-133321915D01*
X86813110Y-133326000D01*
X86211890Y-133326000D01*
X86170409Y-133321915D01*
X86136431Y-133311607D01*
X86105110Y-133294866D01*
X86077661Y-133272339D01*
X86055134Y-133244890D01*
X86038393Y-133213569D01*
X86028085Y-133179591D01*
X86024000Y-133138110D01*
X86024000Y-132461890D01*
X86028085Y-132420409D01*
X86038393Y-132386431D01*
X86055134Y-132355110D01*
X86077661Y-132327661D01*
X86105110Y-132305134D01*
X86136431Y-132288393D01*
X86170409Y-132278085D01*
X86211890Y-132274000D01*
X86813110Y-132274000D01*
X86854591Y-132278085D01*
X86854591Y-132278085D01*
G37*
G36*
X88429591Y-132278085D02*
G01*
X88463569Y-132288393D01*
X88494890Y-132305134D01*
X88522339Y-132327661D01*
X88544866Y-132355110D01*
X88561607Y-132386431D01*
X88571915Y-132420409D01*
X88576000Y-132461890D01*
X88576000Y-133138110D01*
X88571915Y-133179591D01*
X88561607Y-133213569D01*
X88544866Y-133244890D01*
X88522339Y-133272339D01*
X88494890Y-133294866D01*
X88463569Y-133311607D01*
X88429591Y-133321915D01*
X88388110Y-133326000D01*
X87786890Y-133326000D01*
X87745409Y-133321915D01*
X87711431Y-133311607D01*
X87680110Y-133294866D01*
X87652661Y-133272339D01*
X87630134Y-133244890D01*
X87613393Y-133213569D01*
X87603085Y-133179591D01*
X87599000Y-133138110D01*
X87599000Y-132461890D01*
X87603085Y-132420409D01*
X87613393Y-132386431D01*
X87630134Y-132355110D01*
X87652661Y-132327661D01*
X87680110Y-132305134D01*
X87711431Y-132288393D01*
X87745409Y-132278085D01*
X87786890Y-132274000D01*
X88388110Y-132274000D01*
X88429591Y-132278085D01*
X88429591Y-132278085D01*
G37*
G36*
X107954591Y-132178085D02*
G01*
X107988569Y-132188393D01*
X108019890Y-132205134D01*
X108047339Y-132227661D01*
X108069866Y-132255110D01*
X108086607Y-132286431D01*
X108096915Y-132320409D01*
X108101000Y-132361890D01*
X108101000Y-133038110D01*
X108096915Y-133079591D01*
X108086607Y-133113569D01*
X108069866Y-133144890D01*
X108047339Y-133172339D01*
X108019890Y-133194866D01*
X107988569Y-133211607D01*
X107954591Y-133221915D01*
X107913110Y-133226000D01*
X107311890Y-133226000D01*
X107270409Y-133221915D01*
X107236431Y-133211607D01*
X107205110Y-133194866D01*
X107177661Y-133172339D01*
X107155134Y-133144890D01*
X107138393Y-133113569D01*
X107128085Y-133079591D01*
X107124000Y-133038110D01*
X107124000Y-132361890D01*
X107128085Y-132320409D01*
X107138393Y-132286431D01*
X107155134Y-132255110D01*
X107177661Y-132227661D01*
X107205110Y-132205134D01*
X107236431Y-132188393D01*
X107270409Y-132178085D01*
X107311890Y-132174000D01*
X107913110Y-132174000D01*
X107954591Y-132178085D01*
X107954591Y-132178085D01*
G37*
G36*
X109529591Y-132178085D02*
G01*
X109563569Y-132188393D01*
X109594890Y-132205134D01*
X109622339Y-132227661D01*
X109644866Y-132255110D01*
X109661607Y-132286431D01*
X109671915Y-132320409D01*
X109676000Y-132361890D01*
X109676000Y-133038110D01*
X109671915Y-133079591D01*
X109661607Y-133113569D01*
X109644866Y-133144890D01*
X109622339Y-133172339D01*
X109594890Y-133194866D01*
X109563569Y-133211607D01*
X109529591Y-133221915D01*
X109488110Y-133226000D01*
X108886890Y-133226000D01*
X108845409Y-133221915D01*
X108811431Y-133211607D01*
X108780110Y-133194866D01*
X108752661Y-133172339D01*
X108730134Y-133144890D01*
X108713393Y-133113569D01*
X108703085Y-133079591D01*
X108699000Y-133038110D01*
X108699000Y-132361890D01*
X108703085Y-132320409D01*
X108713393Y-132286431D01*
X108730134Y-132255110D01*
X108752661Y-132227661D01*
X108780110Y-132205134D01*
X108811431Y-132188393D01*
X108845409Y-132178085D01*
X108886890Y-132174000D01*
X109488110Y-132174000D01*
X109529591Y-132178085D01*
X109529591Y-132178085D01*
G37*
G36*
X95329591Y-131778085D02*
G01*
X95363569Y-131788393D01*
X95394890Y-131805134D01*
X95422339Y-131827661D01*
X95444866Y-131855110D01*
X95461607Y-131886431D01*
X95471915Y-131920409D01*
X95476000Y-131961890D01*
X95476000Y-132638110D01*
X95471915Y-132679591D01*
X95461607Y-132713569D01*
X95444866Y-132744890D01*
X95422339Y-132772339D01*
X95394890Y-132794866D01*
X95363569Y-132811607D01*
X95329591Y-132821915D01*
X95288110Y-132826000D01*
X94686890Y-132826000D01*
X94645409Y-132821915D01*
X94611431Y-132811607D01*
X94580110Y-132794866D01*
X94552661Y-132772339D01*
X94530134Y-132744890D01*
X94513393Y-132713569D01*
X94503085Y-132679591D01*
X94499000Y-132638110D01*
X94499000Y-131961890D01*
X94503085Y-131920409D01*
X94513393Y-131886431D01*
X94530134Y-131855110D01*
X94552661Y-131827661D01*
X94580110Y-131805134D01*
X94611431Y-131788393D01*
X94645409Y-131778085D01*
X94686890Y-131774000D01*
X95288110Y-131774000D01*
X95329591Y-131778085D01*
X95329591Y-131778085D01*
G37*
G36*
X93754591Y-131778085D02*
G01*
X93788569Y-131788393D01*
X93819890Y-131805134D01*
X93847339Y-131827661D01*
X93869866Y-131855110D01*
X93886607Y-131886431D01*
X93896915Y-131920409D01*
X93901000Y-131961890D01*
X93901000Y-132638110D01*
X93896915Y-132679591D01*
X93886607Y-132713569D01*
X93869866Y-132744890D01*
X93847339Y-132772339D01*
X93819890Y-132794866D01*
X93788569Y-132811607D01*
X93754591Y-132821915D01*
X93713110Y-132826000D01*
X93111890Y-132826000D01*
X93070409Y-132821915D01*
X93036431Y-132811607D01*
X93005110Y-132794866D01*
X92977661Y-132772339D01*
X92955134Y-132744890D01*
X92938393Y-132713569D01*
X92928085Y-132679591D01*
X92924000Y-132638110D01*
X92924000Y-131961890D01*
X92928085Y-131920409D01*
X92938393Y-131886431D01*
X92955134Y-131855110D01*
X92977661Y-131827661D01*
X93005110Y-131805134D01*
X93036431Y-131788393D01*
X93070409Y-131778085D01*
X93111890Y-131774000D01*
X93713110Y-131774000D01*
X93754591Y-131778085D01*
X93754591Y-131778085D01*
G37*
G36*
X113264499Y-131678445D02*
G01*
X113301995Y-131689820D01*
X113336554Y-131708292D01*
X113366847Y-131733153D01*
X113391708Y-131763446D01*
X113410180Y-131798005D01*
X113421555Y-131835501D01*
X113426000Y-131880638D01*
X113426000Y-132519362D01*
X113421555Y-132564499D01*
X113410180Y-132601995D01*
X113391708Y-132636554D01*
X113366847Y-132666847D01*
X113336554Y-132691708D01*
X113301995Y-132710180D01*
X113264499Y-132721555D01*
X113219362Y-132726000D01*
X112480638Y-132726000D01*
X112435501Y-132721555D01*
X112398005Y-132710180D01*
X112363446Y-132691708D01*
X112333153Y-132666847D01*
X112308292Y-132636554D01*
X112289820Y-132601995D01*
X112278445Y-132564499D01*
X112274000Y-132519362D01*
X112274000Y-131880638D01*
X112278445Y-131835501D01*
X112289820Y-131798005D01*
X112308292Y-131763446D01*
X112333153Y-131733153D01*
X112363446Y-131708292D01*
X112398005Y-131689820D01*
X112435501Y-131678445D01*
X112480638Y-131674000D01*
X113219362Y-131674000D01*
X113264499Y-131678445D01*
X113264499Y-131678445D01*
G37*
G36*
X115014499Y-131678445D02*
G01*
X115051995Y-131689820D01*
X115086554Y-131708292D01*
X115116847Y-131733153D01*
X115141708Y-131763446D01*
X115160180Y-131798005D01*
X115171555Y-131835501D01*
X115176000Y-131880638D01*
X115176000Y-132519362D01*
X115171555Y-132564499D01*
X115160180Y-132601995D01*
X115141708Y-132636554D01*
X115116847Y-132666847D01*
X115086554Y-132691708D01*
X115051995Y-132710180D01*
X115014499Y-132721555D01*
X114969362Y-132726000D01*
X114230638Y-132726000D01*
X114185501Y-132721555D01*
X114148005Y-132710180D01*
X114113446Y-132691708D01*
X114083153Y-132666847D01*
X114058292Y-132636554D01*
X114039820Y-132601995D01*
X114028445Y-132564499D01*
X114024000Y-132519362D01*
X114024000Y-131880638D01*
X114028445Y-131835501D01*
X114039820Y-131798005D01*
X114058292Y-131763446D01*
X114083153Y-131733153D01*
X114113446Y-131708292D01*
X114148005Y-131689820D01*
X114185501Y-131678445D01*
X114230638Y-131674000D01*
X114969362Y-131674000D01*
X115014499Y-131678445D01*
X115014499Y-131678445D01*
G37*
G36*
X68490527Y-129063557D02*
G01*
X68576627Y-129072037D01*
X68746466Y-129123557D01*
X68746468Y-129123558D01*
X68820464Y-129163110D01*
X68902991Y-129207222D01*
X68938729Y-129236552D01*
X69040186Y-129319814D01*
X69115373Y-129411431D01*
X69152778Y-129457009D01*
X69236443Y-129613534D01*
X69287963Y-129783373D01*
X69305359Y-129960000D01*
X69287963Y-130136627D01*
X69236443Y-130306466D01*
X69152778Y-130462991D01*
X69138549Y-130480329D01*
X69040186Y-130600186D01*
X68944973Y-130678324D01*
X68902991Y-130712778D01*
X68746466Y-130796443D01*
X68576627Y-130847963D01*
X68510443Y-130854481D01*
X68444260Y-130861000D01*
X68355740Y-130861000D01*
X68289557Y-130854481D01*
X68223373Y-130847963D01*
X68053534Y-130796443D01*
X67897009Y-130712778D01*
X67855027Y-130678324D01*
X67759814Y-130600186D01*
X67661451Y-130480329D01*
X67647222Y-130462991D01*
X67563557Y-130306466D01*
X67512037Y-130136627D01*
X67494641Y-129960000D01*
X67512037Y-129783373D01*
X67563557Y-129613534D01*
X67647222Y-129457009D01*
X67684627Y-129411431D01*
X67759814Y-129319814D01*
X67861271Y-129236552D01*
X67897009Y-129207222D01*
X67979536Y-129163110D01*
X68053532Y-129123558D01*
X68053534Y-129123557D01*
X68223373Y-129072037D01*
X68309473Y-129063557D01*
X68355740Y-129059000D01*
X68444260Y-129059000D01*
X68490527Y-129063557D01*
X68490527Y-129063557D01*
G37*
G36*
X127010443Y-129005519D02*
G01*
X127076627Y-129012037D01*
X127246466Y-129063557D01*
X127402991Y-129147222D01*
X127422350Y-129163110D01*
X127540186Y-129259814D01*
X127616382Y-129352661D01*
X127652778Y-129397009D01*
X127736443Y-129553534D01*
X127787963Y-129723373D01*
X127805359Y-129900000D01*
X127787963Y-130076627D01*
X127736443Y-130246466D01*
X127652778Y-130402991D01*
X127635369Y-130424204D01*
X127540186Y-130540186D01*
X127456427Y-130608924D01*
X127402991Y-130652778D01*
X127246466Y-130736443D01*
X127076627Y-130787963D01*
X127010442Y-130794482D01*
X126944260Y-130801000D01*
X126855740Y-130801000D01*
X126789558Y-130794482D01*
X126723373Y-130787963D01*
X126553534Y-130736443D01*
X126397009Y-130652778D01*
X126343573Y-130608924D01*
X126259814Y-130540186D01*
X126164631Y-130424204D01*
X126147222Y-130402991D01*
X126063557Y-130246466D01*
X126012037Y-130076627D01*
X125994641Y-129900000D01*
X126012037Y-129723373D01*
X126063557Y-129553534D01*
X126147222Y-129397009D01*
X126183618Y-129352661D01*
X126259814Y-129259814D01*
X126377650Y-129163110D01*
X126397009Y-129147222D01*
X126553534Y-129063557D01*
X126723373Y-129012037D01*
X126789557Y-129005519D01*
X126855740Y-128999000D01*
X126944260Y-128999000D01*
X127010443Y-129005519D01*
X127010443Y-129005519D01*
G37*
G36*
X92126000Y-130551000D02*
G01*
X90874000Y-130551000D01*
X90874000Y-129049000D01*
X92126000Y-129049000D01*
X92126000Y-130551000D01*
X92126000Y-130551000D01*
G37*
G36*
X90526000Y-130551000D02*
G01*
X89274000Y-130551000D01*
X89274000Y-129049000D01*
X90526000Y-129049000D01*
X90526000Y-130551000D01*
X90526000Y-130551000D01*
G37*
G36*
X110781938Y-129841716D02*
G01*
X110802557Y-129847971D01*
X110821553Y-129858124D01*
X110838208Y-129871792D01*
X110851876Y-129888447D01*
X110862029Y-129907443D01*
X110868284Y-129928062D01*
X110871000Y-129955640D01*
X110871000Y-130414360D01*
X110868284Y-130441938D01*
X110862029Y-130462557D01*
X110851876Y-130481553D01*
X110838208Y-130498208D01*
X110821553Y-130511876D01*
X110802557Y-130522029D01*
X110781938Y-130528284D01*
X110754360Y-130531000D01*
X110245640Y-130531000D01*
X110218062Y-130528284D01*
X110197443Y-130522029D01*
X110178447Y-130511876D01*
X110161792Y-130498208D01*
X110148124Y-130481553D01*
X110137971Y-130462557D01*
X110131716Y-130441938D01*
X110129000Y-130414360D01*
X110129000Y-129955640D01*
X110131716Y-129928062D01*
X110137971Y-129907443D01*
X110148124Y-129888447D01*
X110161792Y-129871792D01*
X110178447Y-129858124D01*
X110197443Y-129847971D01*
X110218062Y-129841716D01*
X110245640Y-129839000D01*
X110754360Y-129839000D01*
X110781938Y-129841716D01*
X110781938Y-129841716D01*
G37*
G36*
X88379591Y-129303085D02*
G01*
X88413569Y-129313393D01*
X88444890Y-129330134D01*
X88472339Y-129352661D01*
X88494866Y-129380110D01*
X88511607Y-129411431D01*
X88521915Y-129445409D01*
X88526000Y-129486890D01*
X88526000Y-130088110D01*
X88521915Y-130129591D01*
X88511607Y-130163569D01*
X88494866Y-130194890D01*
X88472339Y-130222339D01*
X88444890Y-130244866D01*
X88413569Y-130261607D01*
X88379591Y-130271915D01*
X88338110Y-130276000D01*
X87661890Y-130276000D01*
X87620409Y-130271915D01*
X87586431Y-130261607D01*
X87555110Y-130244866D01*
X87527661Y-130222339D01*
X87505134Y-130194890D01*
X87488393Y-130163569D01*
X87478085Y-130129591D01*
X87474000Y-130088110D01*
X87474000Y-129486890D01*
X87478085Y-129445409D01*
X87488393Y-129411431D01*
X87505134Y-129380110D01*
X87527661Y-129352661D01*
X87555110Y-129330134D01*
X87586431Y-129313393D01*
X87620409Y-129303085D01*
X87661890Y-129299000D01*
X88338110Y-129299000D01*
X88379591Y-129303085D01*
X88379591Y-129303085D01*
G37*
G36*
X77551000Y-129901000D02*
G01*
X76149000Y-129901000D01*
X76149000Y-128249000D01*
X77551000Y-128249000D01*
X77551000Y-129901000D01*
X77551000Y-129901000D01*
G37*
G36*
X82051000Y-129901000D02*
G01*
X80649000Y-129901000D01*
X80649000Y-128249000D01*
X82051000Y-128249000D01*
X82051000Y-129901000D01*
X82051000Y-129901000D01*
G37*
G36*
X110781938Y-128871716D02*
G01*
X110802557Y-128877971D01*
X110821553Y-128888124D01*
X110838208Y-128901792D01*
X110851876Y-128918447D01*
X110862029Y-128937443D01*
X110868284Y-128958062D01*
X110871000Y-128985640D01*
X110871000Y-129444360D01*
X110868284Y-129471938D01*
X110862029Y-129492557D01*
X110851876Y-129511553D01*
X110838208Y-129528208D01*
X110821553Y-129541876D01*
X110802557Y-129552029D01*
X110781938Y-129558284D01*
X110754360Y-129561000D01*
X110245640Y-129561000D01*
X110218062Y-129558284D01*
X110197443Y-129552029D01*
X110178447Y-129541876D01*
X110161792Y-129528208D01*
X110148124Y-129511553D01*
X110137971Y-129492557D01*
X110131716Y-129471938D01*
X110129000Y-129444360D01*
X110129000Y-128985640D01*
X110131716Y-128958062D01*
X110137971Y-128937443D01*
X110148124Y-128918447D01*
X110161792Y-128901792D01*
X110178447Y-128888124D01*
X110197443Y-128877971D01*
X110218062Y-128871716D01*
X110245640Y-128869000D01*
X110754360Y-128869000D01*
X110781938Y-128871716D01*
X110781938Y-128871716D01*
G37*
G36*
X88379591Y-127728085D02*
G01*
X88413569Y-127738393D01*
X88444890Y-127755134D01*
X88472339Y-127777661D01*
X88494866Y-127805110D01*
X88511607Y-127836431D01*
X88521915Y-127870409D01*
X88526000Y-127911890D01*
X88526000Y-128513110D01*
X88521915Y-128554591D01*
X88511607Y-128588569D01*
X88494866Y-128619890D01*
X88472339Y-128647339D01*
X88444890Y-128669866D01*
X88413569Y-128686607D01*
X88379591Y-128696915D01*
X88338110Y-128701000D01*
X87661890Y-128701000D01*
X87620409Y-128696915D01*
X87586431Y-128686607D01*
X87555110Y-128669866D01*
X87527661Y-128647339D01*
X87505134Y-128619890D01*
X87488393Y-128588569D01*
X87478085Y-128554591D01*
X87474000Y-128513110D01*
X87474000Y-127911890D01*
X87478085Y-127870409D01*
X87488393Y-127836431D01*
X87505134Y-127805110D01*
X87527661Y-127777661D01*
X87555110Y-127755134D01*
X87586431Y-127738393D01*
X87620409Y-127728085D01*
X87661890Y-127724000D01*
X88338110Y-127724000D01*
X88379591Y-127728085D01*
X88379591Y-127728085D01*
G37*
G36*
X92126000Y-128351000D02*
G01*
X90874000Y-128351000D01*
X90874000Y-126849000D01*
X92126000Y-126849000D01*
X92126000Y-128351000D01*
X92126000Y-128351000D01*
G37*
G36*
X90526000Y-128351000D02*
G01*
X89274000Y-128351000D01*
X89274000Y-126849000D01*
X90526000Y-126849000D01*
X90526000Y-128351000D01*
X90526000Y-128351000D01*
G37*
G36*
X68490527Y-126523557D02*
G01*
X68576627Y-126532037D01*
X68746466Y-126583557D01*
X68902991Y-126667222D01*
X68938729Y-126696552D01*
X69040186Y-126779814D01*
X69122979Y-126880699D01*
X69152778Y-126917009D01*
X69236443Y-127073534D01*
X69287963Y-127243373D01*
X69305359Y-127420000D01*
X69287963Y-127596627D01*
X69236443Y-127766466D01*
X69152778Y-127922991D01*
X69123448Y-127958729D01*
X69040186Y-128060186D01*
X68956578Y-128128800D01*
X68902991Y-128172778D01*
X68746466Y-128256443D01*
X68576627Y-128307963D01*
X68510442Y-128314482D01*
X68444260Y-128321000D01*
X68355740Y-128321000D01*
X68289558Y-128314482D01*
X68223373Y-128307963D01*
X68053534Y-128256443D01*
X67897009Y-128172778D01*
X67843422Y-128128800D01*
X67759814Y-128060186D01*
X67676552Y-127958729D01*
X67647222Y-127922991D01*
X67563557Y-127766466D01*
X67512037Y-127596627D01*
X67494641Y-127420000D01*
X67512037Y-127243373D01*
X67563557Y-127073534D01*
X67647222Y-126917009D01*
X67677021Y-126880699D01*
X67759814Y-126779814D01*
X67861271Y-126696552D01*
X67897009Y-126667222D01*
X68053534Y-126583557D01*
X68223373Y-126532037D01*
X68309473Y-126523557D01*
X68355740Y-126519000D01*
X68444260Y-126519000D01*
X68490527Y-126523557D01*
X68490527Y-126523557D01*
G37*
G36*
X127010442Y-126465518D02*
G01*
X127076627Y-126472037D01*
X127246466Y-126523557D01*
X127402991Y-126607222D01*
X127438729Y-126636552D01*
X127540186Y-126719814D01*
X127623448Y-126821271D01*
X127652778Y-126857009D01*
X127736443Y-127013534D01*
X127787963Y-127183373D01*
X127805359Y-127360000D01*
X127787963Y-127536627D01*
X127736443Y-127706466D01*
X127652778Y-127862991D01*
X127646690Y-127870409D01*
X127540186Y-128000186D01*
X127457008Y-128068447D01*
X127402991Y-128112778D01*
X127246466Y-128196443D01*
X127076627Y-128247963D01*
X127010442Y-128254482D01*
X126944260Y-128261000D01*
X126855740Y-128261000D01*
X126789558Y-128254482D01*
X126723373Y-128247963D01*
X126553534Y-128196443D01*
X126397009Y-128112778D01*
X126342992Y-128068447D01*
X126259814Y-128000186D01*
X126153310Y-127870409D01*
X126147222Y-127862991D01*
X126063557Y-127706466D01*
X126012037Y-127536627D01*
X125994641Y-127360000D01*
X126012037Y-127183373D01*
X126063557Y-127013534D01*
X126147222Y-126857009D01*
X126176552Y-126821271D01*
X126259814Y-126719814D01*
X126361271Y-126636552D01*
X126397009Y-126607222D01*
X126553534Y-126523557D01*
X126723373Y-126472037D01*
X126789558Y-126465518D01*
X126855740Y-126459000D01*
X126944260Y-126459000D01*
X127010442Y-126465518D01*
X127010442Y-126465518D01*
G37*
G36*
X116551000Y-127451000D02*
G01*
X114249000Y-127451000D01*
X114249000Y-125949000D01*
X116551000Y-125949000D01*
X116551000Y-127451000D01*
X116551000Y-127451000D01*
G37*
G36*
X121551000Y-127451000D02*
G01*
X119249000Y-127451000D01*
X119249000Y-125949000D01*
X121551000Y-125949000D01*
X121551000Y-127451000D01*
X121551000Y-127451000D01*
G37*
G36*
X106879591Y-125403085D02*
G01*
X106913569Y-125413393D01*
X106944890Y-125430134D01*
X106972339Y-125452661D01*
X106994866Y-125480110D01*
X107011607Y-125511431D01*
X107021915Y-125545409D01*
X107026000Y-125586890D01*
X107026000Y-126188110D01*
X107021915Y-126229591D01*
X107011607Y-126263569D01*
X106994866Y-126294890D01*
X106972339Y-126322339D01*
X106944890Y-126344866D01*
X106913569Y-126361607D01*
X106879591Y-126371915D01*
X106838110Y-126376000D01*
X106161890Y-126376000D01*
X106120409Y-126371915D01*
X106086431Y-126361607D01*
X106055110Y-126344866D01*
X106027661Y-126322339D01*
X106005134Y-126294890D01*
X105988393Y-126263569D01*
X105978085Y-126229591D01*
X105974000Y-126188110D01*
X105974000Y-125586890D01*
X105978085Y-125545409D01*
X105988393Y-125511431D01*
X106005134Y-125480110D01*
X106027661Y-125452661D01*
X106055110Y-125430134D01*
X106086431Y-125413393D01*
X106120409Y-125403085D01*
X106161890Y-125399000D01*
X106838110Y-125399000D01*
X106879591Y-125403085D01*
X106879591Y-125403085D01*
G37*
G36*
X68510442Y-123985518D02*
G01*
X68576627Y-123992037D01*
X68746466Y-124043557D01*
X68902991Y-124127222D01*
X68910387Y-124133292D01*
X69040186Y-124239814D01*
X69123448Y-124341271D01*
X69152778Y-124377009D01*
X69236443Y-124533534D01*
X69287963Y-124703373D01*
X69305359Y-124880000D01*
X69287963Y-125056627D01*
X69236443Y-125226466D01*
X69152778Y-125382991D01*
X69124381Y-125417592D01*
X69040186Y-125520186D01*
X68938729Y-125603448D01*
X68902991Y-125632778D01*
X68746466Y-125716443D01*
X68576627Y-125767963D01*
X68510442Y-125774482D01*
X68444260Y-125781000D01*
X68355740Y-125781000D01*
X68289558Y-125774482D01*
X68223373Y-125767963D01*
X68053534Y-125716443D01*
X67897009Y-125632778D01*
X67861271Y-125603448D01*
X67759814Y-125520186D01*
X67675619Y-125417592D01*
X67647222Y-125382991D01*
X67563557Y-125226466D01*
X67512037Y-125056627D01*
X67494641Y-124880000D01*
X67512037Y-124703373D01*
X67563557Y-124533534D01*
X67647222Y-124377009D01*
X67676552Y-124341271D01*
X67759814Y-124239814D01*
X67889613Y-124133292D01*
X67897009Y-124127222D01*
X68053534Y-124043557D01*
X68223373Y-123992037D01*
X68289558Y-123985518D01*
X68355740Y-123979000D01*
X68444260Y-123979000D01*
X68510442Y-123985518D01*
X68510442Y-123985518D01*
G37*
G36*
X111101000Y-125251000D02*
G01*
X109499000Y-125251000D01*
X109499000Y-122849000D01*
X111101000Y-122849000D01*
X111101000Y-125251000D01*
X111101000Y-125251000D01*
G37*
G36*
X84064499Y-124103445D02*
G01*
X84101995Y-124114820D01*
X84136554Y-124133292D01*
X84166847Y-124158153D01*
X84191708Y-124188446D01*
X84210180Y-124223005D01*
X84221555Y-124260501D01*
X84226000Y-124305638D01*
X84226000Y-125044362D01*
X84221555Y-125089499D01*
X84210180Y-125126995D01*
X84191708Y-125161554D01*
X84166847Y-125191847D01*
X84136554Y-125216708D01*
X84101995Y-125235180D01*
X84064499Y-125246555D01*
X84019362Y-125251000D01*
X83380638Y-125251000D01*
X83335501Y-125246555D01*
X83298005Y-125235180D01*
X83263446Y-125216708D01*
X83233153Y-125191847D01*
X83208292Y-125161554D01*
X83189820Y-125126995D01*
X83178445Y-125089499D01*
X83174000Y-125044362D01*
X83174000Y-124305638D01*
X83178445Y-124260501D01*
X83189820Y-124223005D01*
X83208292Y-124188446D01*
X83233153Y-124158153D01*
X83263446Y-124133292D01*
X83298005Y-124114820D01*
X83335501Y-124103445D01*
X83380638Y-124099000D01*
X84019362Y-124099000D01*
X84064499Y-124103445D01*
X84064499Y-124103445D01*
G37*
G36*
X96879591Y-124203085D02*
G01*
X96913569Y-124213393D01*
X96944890Y-124230134D01*
X96972339Y-124252661D01*
X96994866Y-124280110D01*
X97011607Y-124311431D01*
X97021915Y-124345409D01*
X97026000Y-124386890D01*
X97026000Y-124988110D01*
X97021915Y-125029591D01*
X97011607Y-125063569D01*
X96994866Y-125094890D01*
X96972339Y-125122339D01*
X96944890Y-125144866D01*
X96913569Y-125161607D01*
X96879591Y-125171915D01*
X96838110Y-125176000D01*
X96161890Y-125176000D01*
X96120409Y-125171915D01*
X96086431Y-125161607D01*
X96055110Y-125144866D01*
X96027661Y-125122339D01*
X96005134Y-125094890D01*
X95988393Y-125063569D01*
X95978085Y-125029591D01*
X95974000Y-124988110D01*
X95974000Y-124386890D01*
X95978085Y-124345409D01*
X95988393Y-124311431D01*
X96005134Y-124280110D01*
X96027661Y-124252661D01*
X96055110Y-124230134D01*
X96086431Y-124213393D01*
X96120409Y-124203085D01*
X96161890Y-124199000D01*
X96838110Y-124199000D01*
X96879591Y-124203085D01*
X96879591Y-124203085D01*
G37*
G36*
X91829591Y-124078085D02*
G01*
X91863569Y-124088393D01*
X91894890Y-124105134D01*
X91922339Y-124127661D01*
X91944866Y-124155110D01*
X91961607Y-124186431D01*
X91971915Y-124220409D01*
X91976000Y-124261890D01*
X91976000Y-124938110D01*
X91971915Y-124979591D01*
X91961607Y-125013569D01*
X91944866Y-125044890D01*
X91922339Y-125072339D01*
X91894890Y-125094866D01*
X91863569Y-125111607D01*
X91829591Y-125121915D01*
X91788110Y-125126000D01*
X91186890Y-125126000D01*
X91145409Y-125121915D01*
X91111431Y-125111607D01*
X91080110Y-125094866D01*
X91052661Y-125072339D01*
X91030134Y-125044890D01*
X91013393Y-125013569D01*
X91003085Y-124979591D01*
X90999000Y-124938110D01*
X90999000Y-124261890D01*
X91003085Y-124220409D01*
X91013393Y-124186431D01*
X91030134Y-124155110D01*
X91052661Y-124127661D01*
X91080110Y-124105134D01*
X91111431Y-124088393D01*
X91145409Y-124078085D01*
X91186890Y-124074000D01*
X91788110Y-124074000D01*
X91829591Y-124078085D01*
X91829591Y-124078085D01*
G37*
G36*
X90254591Y-124078085D02*
G01*
X90288569Y-124088393D01*
X90319890Y-124105134D01*
X90347339Y-124127661D01*
X90369866Y-124155110D01*
X90386607Y-124186431D01*
X90396915Y-124220409D01*
X90401000Y-124261890D01*
X90401000Y-124938110D01*
X90396915Y-124979591D01*
X90386607Y-125013569D01*
X90369866Y-125044890D01*
X90347339Y-125072339D01*
X90319890Y-125094866D01*
X90288569Y-125111607D01*
X90254591Y-125121915D01*
X90213110Y-125126000D01*
X89611890Y-125126000D01*
X89570409Y-125121915D01*
X89536431Y-125111607D01*
X89505110Y-125094866D01*
X89477661Y-125072339D01*
X89455134Y-125044890D01*
X89438393Y-125013569D01*
X89428085Y-124979591D01*
X89424000Y-124938110D01*
X89424000Y-124261890D01*
X89428085Y-124220409D01*
X89438393Y-124186431D01*
X89455134Y-124155110D01*
X89477661Y-124127661D01*
X89505110Y-124105134D01*
X89536431Y-124088393D01*
X89570409Y-124078085D01*
X89611890Y-124074000D01*
X90213110Y-124074000D01*
X90254591Y-124078085D01*
X90254591Y-124078085D01*
G37*
G36*
X106879591Y-123828085D02*
G01*
X106913569Y-123838393D01*
X106944890Y-123855134D01*
X106972339Y-123877661D01*
X106994866Y-123905110D01*
X107011607Y-123936431D01*
X107021915Y-123970409D01*
X107026000Y-124011890D01*
X107026000Y-124613110D01*
X107021915Y-124654591D01*
X107011607Y-124688569D01*
X106994866Y-124719890D01*
X106972339Y-124747339D01*
X106944890Y-124769866D01*
X106913569Y-124786607D01*
X106879591Y-124796915D01*
X106838110Y-124801000D01*
X106161890Y-124801000D01*
X106120409Y-124796915D01*
X106086431Y-124786607D01*
X106055110Y-124769866D01*
X106027661Y-124747339D01*
X106005134Y-124719890D01*
X105988393Y-124688569D01*
X105978085Y-124654591D01*
X105974000Y-124613110D01*
X105974000Y-124011890D01*
X105978085Y-123970409D01*
X105988393Y-123936431D01*
X106005134Y-123905110D01*
X106027661Y-123877661D01*
X106055110Y-123855134D01*
X106086431Y-123838393D01*
X106120409Y-123828085D01*
X106161890Y-123824000D01*
X106838110Y-123824000D01*
X106879591Y-123828085D01*
X106879591Y-123828085D01*
G37*
G36*
X104071938Y-123231716D02*
G01*
X104092557Y-123237971D01*
X104111553Y-123248124D01*
X104128208Y-123261792D01*
X104141876Y-123278447D01*
X104152029Y-123297443D01*
X104158284Y-123318062D01*
X104161000Y-123345640D01*
X104161000Y-123854360D01*
X104158284Y-123881938D01*
X104152029Y-123902557D01*
X104141876Y-123921553D01*
X104128208Y-123938208D01*
X104111553Y-123951876D01*
X104092557Y-123962029D01*
X104071938Y-123968284D01*
X104044360Y-123971000D01*
X103585640Y-123971000D01*
X103558062Y-123968284D01*
X103537443Y-123962029D01*
X103518447Y-123951876D01*
X103501792Y-123938208D01*
X103488124Y-123921553D01*
X103477971Y-123902557D01*
X103471716Y-123881938D01*
X103469000Y-123854360D01*
X103469000Y-123345640D01*
X103471716Y-123318062D01*
X103477971Y-123297443D01*
X103488124Y-123278447D01*
X103501792Y-123261792D01*
X103518447Y-123248124D01*
X103537443Y-123237971D01*
X103558062Y-123231716D01*
X103585640Y-123229000D01*
X104044360Y-123229000D01*
X104071938Y-123231716D01*
X104071938Y-123231716D01*
G37*
G36*
X105041938Y-123231716D02*
G01*
X105062557Y-123237971D01*
X105081553Y-123248124D01*
X105098208Y-123261792D01*
X105111876Y-123278447D01*
X105122029Y-123297443D01*
X105128284Y-123318062D01*
X105131000Y-123345640D01*
X105131000Y-123854360D01*
X105128284Y-123881938D01*
X105122029Y-123902557D01*
X105111876Y-123921553D01*
X105098208Y-123938208D01*
X105081553Y-123951876D01*
X105062557Y-123962029D01*
X105041938Y-123968284D01*
X105014360Y-123971000D01*
X104555640Y-123971000D01*
X104528062Y-123968284D01*
X104507443Y-123962029D01*
X104488447Y-123951876D01*
X104471792Y-123938208D01*
X104458124Y-123921553D01*
X104447971Y-123902557D01*
X104441716Y-123881938D01*
X104439000Y-123854360D01*
X104439000Y-123345640D01*
X104441716Y-123318062D01*
X104447971Y-123297443D01*
X104458124Y-123278447D01*
X104471792Y-123261792D01*
X104488447Y-123248124D01*
X104507443Y-123237971D01*
X104528062Y-123231716D01*
X104555640Y-123229000D01*
X105014360Y-123229000D01*
X105041938Y-123231716D01*
X105041938Y-123231716D01*
G37*
G36*
X96879591Y-122628085D02*
G01*
X96913569Y-122638393D01*
X96944890Y-122655134D01*
X96972339Y-122677661D01*
X96994866Y-122705110D01*
X97011607Y-122736431D01*
X97021915Y-122770409D01*
X97026000Y-122811890D01*
X97026000Y-123413110D01*
X97021915Y-123454591D01*
X97011607Y-123488569D01*
X96994866Y-123519890D01*
X96972339Y-123547339D01*
X96944890Y-123569866D01*
X96913569Y-123586607D01*
X96879591Y-123596915D01*
X96838110Y-123601000D01*
X96161890Y-123601000D01*
X96120409Y-123596915D01*
X96086431Y-123586607D01*
X96055110Y-123569866D01*
X96027661Y-123547339D01*
X96005134Y-123519890D01*
X95988393Y-123488569D01*
X95978085Y-123454591D01*
X95974000Y-123413110D01*
X95974000Y-122811890D01*
X95978085Y-122770409D01*
X95988393Y-122736431D01*
X96005134Y-122705110D01*
X96027661Y-122677661D01*
X96055110Y-122655134D01*
X96086431Y-122638393D01*
X96120409Y-122628085D01*
X96161890Y-122624000D01*
X96838110Y-122624000D01*
X96879591Y-122628085D01*
X96879591Y-122628085D01*
G37*
G36*
X84064499Y-122353445D02*
G01*
X84101995Y-122364820D01*
X84136554Y-122383292D01*
X84166847Y-122408153D01*
X84191708Y-122438446D01*
X84210180Y-122473005D01*
X84221555Y-122510501D01*
X84226000Y-122555638D01*
X84226000Y-123294362D01*
X84221555Y-123339499D01*
X84210180Y-123376995D01*
X84191708Y-123411554D01*
X84166847Y-123441847D01*
X84136554Y-123466708D01*
X84101995Y-123485180D01*
X84064499Y-123496555D01*
X84019362Y-123501000D01*
X83380638Y-123501000D01*
X83335501Y-123496555D01*
X83298005Y-123485180D01*
X83263446Y-123466708D01*
X83233153Y-123441847D01*
X83208292Y-123411554D01*
X83189820Y-123376995D01*
X83178445Y-123339499D01*
X83174000Y-123294362D01*
X83174000Y-122555638D01*
X83178445Y-122510501D01*
X83189820Y-122473005D01*
X83208292Y-122438446D01*
X83233153Y-122408153D01*
X83263446Y-122383292D01*
X83298005Y-122364820D01*
X83335501Y-122353445D01*
X83380638Y-122349000D01*
X84019362Y-122349000D01*
X84064499Y-122353445D01*
X84064499Y-122353445D01*
G37*
G36*
X68510443Y-121445519D02*
G01*
X68576627Y-121452037D01*
X68746466Y-121503557D01*
X68902991Y-121587222D01*
X68938729Y-121616552D01*
X69040186Y-121699814D01*
X69123448Y-121801271D01*
X69152778Y-121837009D01*
X69236443Y-121993534D01*
X69287963Y-122163373D01*
X69305359Y-122340000D01*
X69287963Y-122516627D01*
X69239114Y-122677661D01*
X69236442Y-122686468D01*
X69211809Y-122732552D01*
X69152778Y-122842991D01*
X69132048Y-122868250D01*
X69040186Y-122980186D01*
X68938729Y-123063448D01*
X68902991Y-123092778D01*
X68746466Y-123176443D01*
X68576627Y-123227963D01*
X68532348Y-123232324D01*
X68444260Y-123241000D01*
X68355740Y-123241000D01*
X68267652Y-123232324D01*
X68223373Y-123227963D01*
X68053534Y-123176443D01*
X67897009Y-123092778D01*
X67861271Y-123063448D01*
X67759814Y-122980186D01*
X67667952Y-122868250D01*
X67647222Y-122842991D01*
X67588191Y-122732552D01*
X67563558Y-122686468D01*
X67560886Y-122677661D01*
X67512037Y-122516627D01*
X67494641Y-122340000D01*
X67512037Y-122163373D01*
X67563557Y-121993534D01*
X67647222Y-121837009D01*
X67676552Y-121801271D01*
X67759814Y-121699814D01*
X67861271Y-121616552D01*
X67897009Y-121587222D01*
X68053534Y-121503557D01*
X68223373Y-121452037D01*
X68289557Y-121445519D01*
X68355740Y-121439000D01*
X68444260Y-121439000D01*
X68510443Y-121445519D01*
X68510443Y-121445519D01*
G37*
G36*
X77551000Y-121951000D02*
G01*
X76149000Y-121951000D01*
X76149000Y-120299000D01*
X77551000Y-120299000D01*
X77551000Y-121951000D01*
X77551000Y-121951000D01*
G37*
G36*
X82051000Y-121951000D02*
G01*
X80649000Y-121951000D01*
X80649000Y-120299000D01*
X82051000Y-120299000D01*
X82051000Y-121951000D01*
X82051000Y-121951000D01*
G37*
G36*
X68510443Y-118905519D02*
G01*
X68576627Y-118912037D01*
X68746466Y-118963557D01*
X68902991Y-119047222D01*
X68938729Y-119076552D01*
X69040186Y-119159814D01*
X69123448Y-119261271D01*
X69152778Y-119297009D01*
X69236443Y-119453534D01*
X69287963Y-119623373D01*
X69305359Y-119800000D01*
X69287963Y-119976627D01*
X69236443Y-120146466D01*
X69152778Y-120302991D01*
X69147752Y-120309115D01*
X69040186Y-120440186D01*
X68938729Y-120523448D01*
X68902991Y-120552778D01*
X68746466Y-120636443D01*
X68576627Y-120687963D01*
X68510443Y-120694481D01*
X68444260Y-120701000D01*
X68355740Y-120701000D01*
X68289557Y-120694481D01*
X68223373Y-120687963D01*
X68053534Y-120636443D01*
X67897009Y-120552778D01*
X67861271Y-120523448D01*
X67759814Y-120440186D01*
X67652248Y-120309115D01*
X67647222Y-120302991D01*
X67563557Y-120146466D01*
X67512037Y-119976627D01*
X67494641Y-119800000D01*
X67512037Y-119623373D01*
X67563557Y-119453534D01*
X67647222Y-119297009D01*
X67676552Y-119261271D01*
X67759814Y-119159814D01*
X67861271Y-119076552D01*
X67897009Y-119047222D01*
X68053534Y-118963557D01*
X68223373Y-118912037D01*
X68289557Y-118905519D01*
X68355740Y-118899000D01*
X68444260Y-118899000D01*
X68510443Y-118905519D01*
X68510443Y-118905519D01*
G37*
G36*
X116851000Y-120551000D02*
G01*
X114949000Y-120551000D01*
X114949000Y-116049000D01*
X116851000Y-116049000D01*
X116851000Y-120551000D01*
X116851000Y-120551000D01*
G37*
G36*
X92089499Y-119378445D02*
G01*
X92126995Y-119389820D01*
X92161554Y-119408292D01*
X92191847Y-119433153D01*
X92216708Y-119463446D01*
X92235180Y-119498005D01*
X92246555Y-119535501D01*
X92251000Y-119580638D01*
X92251000Y-120219362D01*
X92246555Y-120264499D01*
X92235180Y-120301995D01*
X92216708Y-120336554D01*
X92191847Y-120366847D01*
X92161554Y-120391708D01*
X92126995Y-120410180D01*
X92089499Y-120421555D01*
X92044362Y-120426000D01*
X91305638Y-120426000D01*
X91260501Y-120421555D01*
X91223005Y-120410180D01*
X91188446Y-120391708D01*
X91158153Y-120366847D01*
X91133292Y-120336554D01*
X91114820Y-120301995D01*
X91103445Y-120264499D01*
X91099000Y-120219362D01*
X91099000Y-119580638D01*
X91103445Y-119535501D01*
X91114820Y-119498005D01*
X91133292Y-119463446D01*
X91158153Y-119433153D01*
X91188446Y-119408292D01*
X91223005Y-119389820D01*
X91260501Y-119378445D01*
X91305638Y-119374000D01*
X92044362Y-119374000D01*
X92089499Y-119378445D01*
X92089499Y-119378445D01*
G37*
G36*
X90339499Y-119378445D02*
G01*
X90376995Y-119389820D01*
X90411554Y-119408292D01*
X90441847Y-119433153D01*
X90466708Y-119463446D01*
X90485180Y-119498005D01*
X90496555Y-119535501D01*
X90501000Y-119580638D01*
X90501000Y-120219362D01*
X90496555Y-120264499D01*
X90485180Y-120301995D01*
X90466708Y-120336554D01*
X90441847Y-120366847D01*
X90411554Y-120391708D01*
X90376995Y-120410180D01*
X90339499Y-120421555D01*
X90294362Y-120426000D01*
X89555638Y-120426000D01*
X89510501Y-120421555D01*
X89473005Y-120410180D01*
X89438446Y-120391708D01*
X89408153Y-120366847D01*
X89383292Y-120336554D01*
X89364820Y-120301995D01*
X89353445Y-120264499D01*
X89349000Y-120219362D01*
X89349000Y-119580638D01*
X89353445Y-119535501D01*
X89364820Y-119498005D01*
X89383292Y-119463446D01*
X89408153Y-119433153D01*
X89438446Y-119408292D01*
X89473005Y-119389820D01*
X89510501Y-119378445D01*
X89555638Y-119374000D01*
X90294362Y-119374000D01*
X90339499Y-119378445D01*
X90339499Y-119378445D01*
G37*
G36*
X121886424Y-116262760D02*
G01*
X121886427Y-116262761D01*
X121886428Y-116262761D01*
X122065692Y-116317140D01*
X122065695Y-116317142D01*
X122065696Y-116317142D01*
X122230903Y-116405446D01*
X122375712Y-116524288D01*
X122494554Y-116669097D01*
X122582858Y-116834303D01*
X122582860Y-116834307D01*
X122582860Y-116834308D01*
X122637240Y-117013575D01*
X122651000Y-117153282D01*
X122651000Y-119446718D01*
X122637240Y-119586425D01*
X122637239Y-119586428D01*
X122637239Y-119586429D01*
X122582860Y-119765693D01*
X122582858Y-119765696D01*
X122582858Y-119765697D01*
X122494554Y-119930903D01*
X122375712Y-120075712D01*
X122230903Y-120194554D01*
X122101640Y-120263646D01*
X122065693Y-120282860D01*
X121886429Y-120337239D01*
X121886428Y-120337239D01*
X121886425Y-120337240D01*
X121700000Y-120355601D01*
X121513576Y-120337240D01*
X121513573Y-120337239D01*
X121513572Y-120337239D01*
X121334308Y-120282860D01*
X121298361Y-120263646D01*
X121169098Y-120194554D01*
X121024289Y-120075712D01*
X120905447Y-119930903D01*
X120817143Y-119765697D01*
X120817143Y-119765696D01*
X120817141Y-119765693D01*
X120762762Y-119586429D01*
X120762762Y-119586428D01*
X120762761Y-119586425D01*
X120749001Y-119446718D01*
X120749000Y-117153283D01*
X120762760Y-117013576D01*
X120762761Y-117013572D01*
X120817140Y-116834308D01*
X120817143Y-116834303D01*
X120905446Y-116669097D01*
X121024288Y-116524288D01*
X121169097Y-116405446D01*
X121334303Y-116317142D01*
X121334304Y-116317142D01*
X121334307Y-116317140D01*
X121513571Y-116262761D01*
X121513572Y-116262761D01*
X121513575Y-116262760D01*
X121700000Y-116244399D01*
X121886424Y-116262760D01*
X121886424Y-116262760D01*
G37*
G36*
X90254591Y-117378085D02*
G01*
X90288569Y-117388393D01*
X90319890Y-117405134D01*
X90347339Y-117427661D01*
X90369866Y-117455110D01*
X90386607Y-117486431D01*
X90396915Y-117520409D01*
X90401000Y-117561890D01*
X90401000Y-118238110D01*
X90396915Y-118279591D01*
X90386607Y-118313569D01*
X90369866Y-118344890D01*
X90347339Y-118372339D01*
X90319890Y-118394866D01*
X90288569Y-118411607D01*
X90254591Y-118421915D01*
X90213110Y-118426000D01*
X89611890Y-118426000D01*
X89570409Y-118421915D01*
X89536431Y-118411607D01*
X89505110Y-118394866D01*
X89477661Y-118372339D01*
X89455134Y-118344890D01*
X89438393Y-118313569D01*
X89428085Y-118279591D01*
X89424000Y-118238110D01*
X89424000Y-117561890D01*
X89428085Y-117520409D01*
X89438393Y-117486431D01*
X89455134Y-117455110D01*
X89477661Y-117427661D01*
X89505110Y-117405134D01*
X89536431Y-117388393D01*
X89570409Y-117378085D01*
X89611890Y-117374000D01*
X90213110Y-117374000D01*
X90254591Y-117378085D01*
X90254591Y-117378085D01*
G37*
G36*
X91829591Y-117378085D02*
G01*
X91863569Y-117388393D01*
X91894890Y-117405134D01*
X91922339Y-117427661D01*
X91944866Y-117455110D01*
X91961607Y-117486431D01*
X91971915Y-117520409D01*
X91976000Y-117561890D01*
X91976000Y-118238110D01*
X91971915Y-118279591D01*
X91961607Y-118313569D01*
X91944866Y-118344890D01*
X91922339Y-118372339D01*
X91894890Y-118394866D01*
X91863569Y-118411607D01*
X91829591Y-118421915D01*
X91788110Y-118426000D01*
X91186890Y-118426000D01*
X91145409Y-118421915D01*
X91111431Y-118411607D01*
X91080110Y-118394866D01*
X91052661Y-118372339D01*
X91030134Y-118344890D01*
X91013393Y-118313569D01*
X91003085Y-118279591D01*
X90999000Y-118238110D01*
X90999000Y-117561890D01*
X91003085Y-117520409D01*
X91013393Y-117486431D01*
X91030134Y-117455110D01*
X91052661Y-117427661D01*
X91080110Y-117405134D01*
X91111431Y-117388393D01*
X91145409Y-117378085D01*
X91186890Y-117374000D01*
X91788110Y-117374000D01*
X91829591Y-117378085D01*
X91829591Y-117378085D01*
G37*
G36*
X99275562Y-114015681D02*
G01*
X99310481Y-114026274D01*
X99342663Y-114043476D01*
X99370873Y-114066627D01*
X99394024Y-114094837D01*
X99411226Y-114127019D01*
X99421819Y-114161938D01*
X99426000Y-114204395D01*
X99426000Y-115345605D01*
X99421819Y-115388062D01*
X99411226Y-115422981D01*
X99394024Y-115455163D01*
X99370873Y-115483373D01*
X99342663Y-115506524D01*
X99310481Y-115523726D01*
X99275562Y-115534319D01*
X99233105Y-115538500D01*
X97766895Y-115538500D01*
X97724438Y-115534319D01*
X97689519Y-115523726D01*
X97657337Y-115506524D01*
X97629127Y-115483373D01*
X97605976Y-115455163D01*
X97588774Y-115422981D01*
X97578181Y-115388062D01*
X97574000Y-115345605D01*
X97574000Y-114204395D01*
X97578181Y-114161938D01*
X97588774Y-114127019D01*
X97605976Y-114094837D01*
X97629127Y-114066627D01*
X97657337Y-114043476D01*
X97689519Y-114026274D01*
X97724438Y-114015681D01*
X97766895Y-114011500D01*
X99233105Y-114011500D01*
X99275562Y-114015681D01*
X99275562Y-114015681D01*
G37*
G36*
X112975562Y-113640681D02*
G01*
X113010481Y-113651274D01*
X113042663Y-113668476D01*
X113070873Y-113691627D01*
X113094024Y-113719837D01*
X113111226Y-113752019D01*
X113121819Y-113786938D01*
X113126000Y-113829395D01*
X113126000Y-114970605D01*
X113121819Y-115013062D01*
X113111226Y-115047981D01*
X113094024Y-115080163D01*
X113070873Y-115108373D01*
X113042663Y-115131524D01*
X113010481Y-115148726D01*
X112975562Y-115159319D01*
X112933105Y-115163500D01*
X111466895Y-115163500D01*
X111424438Y-115159319D01*
X111389519Y-115148726D01*
X111357337Y-115131524D01*
X111329127Y-115108373D01*
X111305976Y-115080163D01*
X111288774Y-115047981D01*
X111278181Y-115013062D01*
X111274000Y-114970605D01*
X111274000Y-113829395D01*
X111278181Y-113786938D01*
X111288774Y-113752019D01*
X111305976Y-113719837D01*
X111329127Y-113691627D01*
X111357337Y-113668476D01*
X111389519Y-113651274D01*
X111424438Y-113640681D01*
X111466895Y-113636500D01*
X112933105Y-113636500D01*
X112975562Y-113640681D01*
X112975562Y-113640681D01*
G37*
G36*
X102026000Y-114581000D02*
G01*
X101274000Y-114581000D01*
X101274000Y-113419000D01*
X102026000Y-113419000D01*
X102026000Y-114581000D01*
X102026000Y-114581000D01*
G37*
G36*
X109726000Y-114581000D02*
G01*
X108974000Y-114581000D01*
X108974000Y-113419000D01*
X109726000Y-113419000D01*
X109726000Y-114581000D01*
X109726000Y-114581000D01*
G37*
G36*
X103926000Y-114581000D02*
G01*
X103174000Y-114581000D01*
X103174000Y-113419000D01*
X103926000Y-113419000D01*
X103926000Y-114581000D01*
X103926000Y-114581000D01*
G37*
G36*
X107826000Y-114581000D02*
G01*
X107074000Y-114581000D01*
X107074000Y-113419000D01*
X107826000Y-113419000D01*
X107826000Y-114581000D01*
X107826000Y-114581000D01*
G37*
G36*
X95964499Y-113303445D02*
G01*
X96001995Y-113314820D01*
X96036554Y-113333292D01*
X96066847Y-113358153D01*
X96091708Y-113388446D01*
X96110180Y-113423005D01*
X96121555Y-113460501D01*
X96126000Y-113505638D01*
X96126000Y-114244362D01*
X96121555Y-114289499D01*
X96110180Y-114326995D01*
X96091708Y-114361554D01*
X96066847Y-114391847D01*
X96036554Y-114416708D01*
X96001995Y-114435180D01*
X95964499Y-114446555D01*
X95919362Y-114451000D01*
X95280638Y-114451000D01*
X95235501Y-114446555D01*
X95198005Y-114435180D01*
X95163446Y-114416708D01*
X95133153Y-114391847D01*
X95108292Y-114361554D01*
X95089820Y-114326995D01*
X95078445Y-114289499D01*
X95074000Y-114244362D01*
X95074000Y-113505638D01*
X95078445Y-113460501D01*
X95089820Y-113423005D01*
X95108292Y-113388446D01*
X95133153Y-113358153D01*
X95163446Y-113333292D01*
X95198005Y-113314820D01*
X95235501Y-113303445D01*
X95280638Y-113299000D01*
X95919362Y-113299000D01*
X95964499Y-113303445D01*
X95964499Y-113303445D01*
G37*
G36*
X120186425Y-112562760D02*
G01*
X120186428Y-112562761D01*
X120186429Y-112562761D01*
X120365693Y-112617140D01*
X120365696Y-112617142D01*
X120365697Y-112617142D01*
X120530903Y-112705446D01*
X120675712Y-112824288D01*
X120794554Y-112969097D01*
X120882858Y-113134303D01*
X120882860Y-113134307D01*
X120932819Y-113299000D01*
X120937240Y-113313575D01*
X120955601Y-113500000D01*
X120937240Y-113686425D01*
X120937239Y-113686428D01*
X120937239Y-113686429D01*
X120882860Y-113865693D01*
X120882858Y-113865696D01*
X120882858Y-113865697D01*
X120794554Y-114030903D01*
X120675712Y-114175712D01*
X120530903Y-114294554D01*
X120405554Y-114361554D01*
X120365693Y-114382860D01*
X120186429Y-114437239D01*
X120186428Y-114437239D01*
X120186425Y-114437240D01*
X120046718Y-114451000D01*
X117753282Y-114451000D01*
X117613575Y-114437240D01*
X117613572Y-114437239D01*
X117613571Y-114437239D01*
X117434307Y-114382860D01*
X117394446Y-114361554D01*
X117269097Y-114294554D01*
X117124288Y-114175712D01*
X117005446Y-114030903D01*
X116917142Y-113865697D01*
X116917142Y-113865696D01*
X116917140Y-113865693D01*
X116862761Y-113686429D01*
X116862761Y-113686428D01*
X116862760Y-113686425D01*
X116844399Y-113500000D01*
X116862760Y-113313575D01*
X116867181Y-113299000D01*
X116917140Y-113134307D01*
X116917142Y-113134303D01*
X117005446Y-112969097D01*
X117124288Y-112824288D01*
X117269097Y-112705446D01*
X117434303Y-112617142D01*
X117434304Y-112617142D01*
X117434307Y-112617140D01*
X117613571Y-112562761D01*
X117613572Y-112562761D01*
X117613575Y-112562760D01*
X117753282Y-112549000D01*
X120046718Y-112549000D01*
X120186425Y-112562760D01*
X120186425Y-112562760D01*
G37*
G36*
X95964499Y-111553445D02*
G01*
X96001995Y-111564820D01*
X96036554Y-111583292D01*
X96066847Y-111608153D01*
X96091708Y-111638446D01*
X96110180Y-111673005D01*
X96121555Y-111710501D01*
X96126000Y-111755638D01*
X96126000Y-112494362D01*
X96121555Y-112539499D01*
X96110180Y-112576995D01*
X96091708Y-112611554D01*
X96066847Y-112641847D01*
X96036554Y-112666708D01*
X96001995Y-112685180D01*
X95964499Y-112696555D01*
X95919362Y-112701000D01*
X95280638Y-112701000D01*
X95235501Y-112696555D01*
X95198005Y-112685180D01*
X95163446Y-112666708D01*
X95133153Y-112641847D01*
X95108292Y-112611554D01*
X95089820Y-112576995D01*
X95078445Y-112539499D01*
X95074000Y-112494362D01*
X95074000Y-111755638D01*
X95078445Y-111710501D01*
X95089820Y-111673005D01*
X95108292Y-111638446D01*
X95133153Y-111608153D01*
X95163446Y-111583292D01*
X95198005Y-111564820D01*
X95235501Y-111553445D01*
X95280638Y-111549000D01*
X95919362Y-111549000D01*
X95964499Y-111553445D01*
X95964499Y-111553445D01*
G37*
G36*
X99275562Y-111040681D02*
G01*
X99310481Y-111051274D01*
X99342663Y-111068476D01*
X99370873Y-111091627D01*
X99394024Y-111119837D01*
X99411226Y-111152019D01*
X99421819Y-111186938D01*
X99426000Y-111229395D01*
X99426000Y-112370605D01*
X99421819Y-112413062D01*
X99411226Y-112447981D01*
X99394024Y-112480163D01*
X99370873Y-112508373D01*
X99342663Y-112531524D01*
X99310481Y-112548726D01*
X99275562Y-112559319D01*
X99233105Y-112563500D01*
X97766895Y-112563500D01*
X97724438Y-112559319D01*
X97689519Y-112548726D01*
X97657337Y-112531524D01*
X97629127Y-112508373D01*
X97605976Y-112480163D01*
X97588774Y-112447981D01*
X97578181Y-112413062D01*
X97574000Y-112370605D01*
X97574000Y-111229395D01*
X97578181Y-111186938D01*
X97588774Y-111152019D01*
X97605976Y-111119837D01*
X97629127Y-111091627D01*
X97657337Y-111068476D01*
X97689519Y-111051274D01*
X97724438Y-111040681D01*
X97766895Y-111036500D01*
X99233105Y-111036500D01*
X99275562Y-111040681D01*
X99275562Y-111040681D01*
G37*
G36*
X109726000Y-112381000D02*
G01*
X107074000Y-112381000D01*
X107074000Y-111219000D01*
X109726000Y-111219000D01*
X109726000Y-112381000D01*
X109726000Y-112381000D01*
G37*
G36*
X103926000Y-112381000D02*
G01*
X101274000Y-112381000D01*
X101274000Y-111219000D01*
X103926000Y-111219000D01*
X103926000Y-112381000D01*
X103926000Y-112381000D01*
G37*
G36*
X112975562Y-110665681D02*
G01*
X113010481Y-110676274D01*
X113042663Y-110693476D01*
X113070873Y-110716627D01*
X113094024Y-110744837D01*
X113111226Y-110777019D01*
X113121819Y-110811938D01*
X113126000Y-110854395D01*
X113126000Y-111995605D01*
X113121819Y-112038062D01*
X113111226Y-112072981D01*
X113094024Y-112105163D01*
X113070873Y-112133373D01*
X113042663Y-112156524D01*
X113010481Y-112173726D01*
X112975562Y-112184319D01*
X112933105Y-112188500D01*
X111466895Y-112188500D01*
X111424438Y-112184319D01*
X111389519Y-112173726D01*
X111357337Y-112156524D01*
X111329127Y-112133373D01*
X111305976Y-112105163D01*
X111288774Y-112072981D01*
X111278181Y-112038062D01*
X111274000Y-111995605D01*
X111274000Y-110854395D01*
X111278181Y-110811938D01*
X111288774Y-110777019D01*
X111305976Y-110744837D01*
X111329127Y-110716627D01*
X111357337Y-110693476D01*
X111389519Y-110676274D01*
X111424438Y-110665681D01*
X111466895Y-110661500D01*
X112933105Y-110661500D01*
X112975562Y-110665681D01*
X112975562Y-110665681D01*
G37*
G36*
X103889499Y-108978445D02*
G01*
X103926995Y-108989820D01*
X103961554Y-109008292D01*
X103991847Y-109033153D01*
X104016708Y-109063446D01*
X104035180Y-109098005D01*
X104046555Y-109135501D01*
X104051000Y-109180638D01*
X104051000Y-109819362D01*
X104046555Y-109864499D01*
X104035180Y-109901995D01*
X104016708Y-109936554D01*
X103991847Y-109966847D01*
X103961554Y-109991708D01*
X103926995Y-110010180D01*
X103889499Y-110021555D01*
X103844362Y-110026000D01*
X103105638Y-110026000D01*
X103060501Y-110021555D01*
X103023005Y-110010180D01*
X102988446Y-109991708D01*
X102958153Y-109966847D01*
X102933292Y-109936554D01*
X102914820Y-109901995D01*
X102903445Y-109864499D01*
X102899000Y-109819362D01*
X102899000Y-109180638D01*
X102903445Y-109135501D01*
X102914820Y-109098005D01*
X102933292Y-109063446D01*
X102958153Y-109033153D01*
X102988446Y-109008292D01*
X103023005Y-108989820D01*
X103060501Y-108978445D01*
X103105638Y-108974000D01*
X103844362Y-108974000D01*
X103889499Y-108978445D01*
X103889499Y-108978445D01*
G37*
G36*
X102139499Y-108978445D02*
G01*
X102176995Y-108989820D01*
X102211554Y-109008292D01*
X102241847Y-109033153D01*
X102266708Y-109063446D01*
X102285180Y-109098005D01*
X102296555Y-109135501D01*
X102301000Y-109180638D01*
X102301000Y-109819362D01*
X102296555Y-109864499D01*
X102285180Y-109901995D01*
X102266708Y-109936554D01*
X102241847Y-109966847D01*
X102211554Y-109991708D01*
X102176995Y-110010180D01*
X102139499Y-110021555D01*
X102094362Y-110026000D01*
X101355638Y-110026000D01*
X101310501Y-110021555D01*
X101273005Y-110010180D01*
X101238446Y-109991708D01*
X101208153Y-109966847D01*
X101183292Y-109936554D01*
X101164820Y-109901995D01*
X101153445Y-109864499D01*
X101149000Y-109819362D01*
X101149000Y-109180638D01*
X101153445Y-109135501D01*
X101164820Y-109098005D01*
X101183292Y-109063446D01*
X101208153Y-109033153D01*
X101238446Y-109008292D01*
X101273005Y-108989820D01*
X101310501Y-108978445D01*
X101355638Y-108974000D01*
X102094362Y-108974000D01*
X102139499Y-108978445D01*
X102139499Y-108978445D01*
G37*
G36*
X99871000Y-107251000D02*
G01*
X97769000Y-107251000D01*
X97769000Y-105149000D01*
X99871000Y-105149000D01*
X99871000Y-107251000D01*
X99871000Y-107251000D01*
G37*
G36*
X117251000Y-107251000D02*
G01*
X115149000Y-107251000D01*
X115149000Y-105149000D01*
X117251000Y-105149000D01*
X117251000Y-107251000D01*
X117251000Y-107251000D01*
G37*
G36*
X121383097Y-105154069D02*
G01*
X121486032Y-105164207D01*
X121684146Y-105224305D01*
X121684149Y-105224306D01*
X121780975Y-105276061D01*
X121866729Y-105321897D01*
X122026765Y-105453235D01*
X122158103Y-105613271D01*
X122165986Y-105628020D01*
X122255694Y-105795851D01*
X122255695Y-105795854D01*
X122315793Y-105993968D01*
X122336085Y-106200000D01*
X122315793Y-106406032D01*
X122269663Y-106558099D01*
X122255694Y-106604149D01*
X122205782Y-106697527D01*
X122158103Y-106786729D01*
X122026765Y-106946765D01*
X121866729Y-107078103D01*
X121780975Y-107123939D01*
X121684149Y-107175694D01*
X121684146Y-107175695D01*
X121486032Y-107235793D01*
X121383097Y-107245931D01*
X121331631Y-107251000D01*
X121228369Y-107251000D01*
X121176903Y-107245931D01*
X121073968Y-107235793D01*
X120875854Y-107175695D01*
X120875851Y-107175694D01*
X120779025Y-107123939D01*
X120693271Y-107078103D01*
X120533235Y-106946765D01*
X120401897Y-106786729D01*
X120354218Y-106697527D01*
X120304306Y-106604149D01*
X120290337Y-106558099D01*
X120244207Y-106406032D01*
X120223915Y-106200000D01*
X120244207Y-105993968D01*
X120304305Y-105795854D01*
X120304306Y-105795851D01*
X120394014Y-105628020D01*
X120401897Y-105613271D01*
X120533235Y-105453235D01*
X120693271Y-105321897D01*
X120779025Y-105276061D01*
X120875851Y-105224306D01*
X120875854Y-105224305D01*
X121073968Y-105164207D01*
X121176903Y-105154069D01*
X121228369Y-105149000D01*
X121331631Y-105149000D01*
X121383097Y-105154069D01*
X121383097Y-105154069D01*
G37*
G36*
X104003097Y-105154069D02*
G01*
X104106032Y-105164207D01*
X104304146Y-105224305D01*
X104304149Y-105224306D01*
X104400975Y-105276061D01*
X104486729Y-105321897D01*
X104646765Y-105453235D01*
X104778103Y-105613271D01*
X104785986Y-105628020D01*
X104875694Y-105795851D01*
X104875695Y-105795854D01*
X104935793Y-105993968D01*
X104956085Y-106200000D01*
X104935793Y-106406032D01*
X104889663Y-106558099D01*
X104875694Y-106604149D01*
X104825782Y-106697527D01*
X104778103Y-106786729D01*
X104646765Y-106946765D01*
X104486729Y-107078103D01*
X104400975Y-107123939D01*
X104304149Y-107175694D01*
X104304146Y-107175695D01*
X104106032Y-107235793D01*
X104003097Y-107245931D01*
X103951631Y-107251000D01*
X103848369Y-107251000D01*
X103796903Y-107245931D01*
X103693968Y-107235793D01*
X103495854Y-107175695D01*
X103495851Y-107175694D01*
X103399025Y-107123939D01*
X103313271Y-107078103D01*
X103153235Y-106946765D01*
X103021897Y-106786729D01*
X102974218Y-106697527D01*
X102924306Y-106604149D01*
X102910337Y-106558099D01*
X102864207Y-106406032D01*
X102843915Y-106200000D01*
X102864207Y-105993968D01*
X102924305Y-105795854D01*
X102924306Y-105795851D01*
X103014014Y-105628020D01*
X103021897Y-105613271D01*
X103153235Y-105453235D01*
X103313271Y-105321897D01*
X103399025Y-105276061D01*
X103495851Y-105224306D01*
X103495854Y-105224305D01*
X103693968Y-105164207D01*
X103796903Y-105154069D01*
X103848369Y-105149000D01*
X103951631Y-105149000D01*
X104003097Y-105154069D01*
X104003097Y-105154069D01*
G37*
G36*
X84391981Y-104957468D02*
G01*
X84574151Y-105032926D01*
X84738100Y-105142473D01*
X84877527Y-105281900D01*
X84904252Y-105321897D01*
X84987075Y-105445851D01*
X85009175Y-105499205D01*
X85062532Y-105628019D01*
X85101000Y-105821410D01*
X85101000Y-106018590D01*
X85062532Y-106211981D01*
X84987074Y-106394151D01*
X84877527Y-106558100D01*
X84738100Y-106697527D01*
X84574151Y-106807074D01*
X84391981Y-106882532D01*
X84198591Y-106921000D01*
X84001409Y-106921000D01*
X83808019Y-106882532D01*
X83625849Y-106807074D01*
X83461900Y-106697527D01*
X83322473Y-106558100D01*
X83212926Y-106394151D01*
X83137468Y-106211981D01*
X83099000Y-106018590D01*
X83099000Y-105821410D01*
X83137468Y-105628019D01*
X83190825Y-105499205D01*
X83212925Y-105445851D01*
X83295748Y-105321897D01*
X83322473Y-105281900D01*
X83461900Y-105142473D01*
X83625849Y-105032926D01*
X83808019Y-104957468D01*
X84001409Y-104919000D01*
X84198591Y-104919000D01*
X84391981Y-104957468D01*
X84391981Y-104957468D01*
G37*
G36*
X84391981Y-102417468D02*
G01*
X84574151Y-102492926D01*
X84738100Y-102602473D01*
X84877527Y-102741900D01*
X84987074Y-102905849D01*
X85062532Y-103088019D01*
X85101000Y-103281410D01*
X85101000Y-103478590D01*
X85062532Y-103671981D01*
X84987074Y-103854151D01*
X84877527Y-104018100D01*
X84738100Y-104157527D01*
X84574151Y-104267074D01*
X84391981Y-104342532D01*
X84198591Y-104381000D01*
X84001409Y-104381000D01*
X83904715Y-104361766D01*
X83808019Y-104342532D01*
X83625849Y-104267074D01*
X83461900Y-104157527D01*
X83322473Y-104018100D01*
X83212926Y-103854151D01*
X83137468Y-103671981D01*
X83099000Y-103478590D01*
X83099000Y-103281410D01*
X83137468Y-103088019D01*
X83212926Y-102905849D01*
X83322473Y-102741900D01*
X83461900Y-102602473D01*
X83625849Y-102492926D01*
X83808019Y-102417468D01*
X83904715Y-102398234D01*
X84001409Y-102379000D01*
X84198591Y-102379000D01*
X84391981Y-102417468D01*
X84391981Y-102417468D01*
G37*
G36*
X84391981Y-99877468D02*
G01*
X84574151Y-99952926D01*
X84738100Y-100062473D01*
X84877527Y-100201900D01*
X84987074Y-100365849D01*
X85062532Y-100548019D01*
X85101000Y-100741410D01*
X85101000Y-100938590D01*
X85062532Y-101131981D01*
X84987074Y-101314151D01*
X84877527Y-101478100D01*
X84738100Y-101617527D01*
X84574151Y-101727074D01*
X84391981Y-101802532D01*
X84198591Y-101841000D01*
X84001409Y-101841000D01*
X83808019Y-101802532D01*
X83625849Y-101727074D01*
X83461900Y-101617527D01*
X83322473Y-101478100D01*
X83212926Y-101314151D01*
X83137468Y-101131981D01*
X83099000Y-100938590D01*
X83099000Y-100741410D01*
X83137468Y-100548019D01*
X83212926Y-100365849D01*
X83322473Y-100201900D01*
X83461900Y-100062473D01*
X83625849Y-99952926D01*
X83808019Y-99877468D01*
X83904715Y-99858234D01*
X84001409Y-99839000D01*
X84198591Y-99839000D01*
X84391981Y-99877468D01*
X84391981Y-99877468D01*
G37*
G36*
X97951000Y-101051000D02*
G01*
X95649000Y-101051000D01*
X95649000Y-99549000D01*
X97951000Y-99549000D01*
X97951000Y-101051000D01*
X97951000Y-101051000D01*
G37*
G36*
X115002585Y-96678802D02*
G01*
X115152410Y-96708604D01*
X115434674Y-96825521D01*
X115688705Y-96995259D01*
X115904741Y-97211295D01*
X116074479Y-97465326D01*
X116191396Y-97747590D01*
X116191396Y-97747591D01*
X116243199Y-98008019D01*
X116251000Y-98047240D01*
X116251000Y-98352760D01*
X116191396Y-98652410D01*
X116074479Y-98934674D01*
X115904741Y-99188705D01*
X115688705Y-99404741D01*
X115434674Y-99574479D01*
X115152410Y-99691396D01*
X115002585Y-99721198D01*
X114852761Y-99751000D01*
X114547239Y-99751000D01*
X114397415Y-99721198D01*
X114247590Y-99691396D01*
X113965326Y-99574479D01*
X113711295Y-99404741D01*
X113495259Y-99188705D01*
X113325521Y-98934674D01*
X113208604Y-98652410D01*
X113149000Y-98352760D01*
X113149000Y-98047240D01*
X113156802Y-98008019D01*
X113208604Y-97747591D01*
X113208604Y-97747590D01*
X113325521Y-97465326D01*
X113495259Y-97211295D01*
X113711295Y-96995259D01*
X113965326Y-96825521D01*
X114247590Y-96708604D01*
X114397415Y-96678802D01*
X114547239Y-96649000D01*
X114852761Y-96649000D01*
X115002585Y-96678802D01*
X115002585Y-96678802D01*
G37*
G36*
X119602585Y-96678802D02*
G01*
X119752410Y-96708604D01*
X120034674Y-96825521D01*
X120288705Y-96995259D01*
X120504741Y-97211295D01*
X120674479Y-97465326D01*
X120791396Y-97747590D01*
X120791396Y-97747591D01*
X120843199Y-98008019D01*
X120851000Y-98047240D01*
X120851000Y-98352760D01*
X120791396Y-98652410D01*
X120674479Y-98934674D01*
X120504741Y-99188705D01*
X120288705Y-99404741D01*
X120034674Y-99574479D01*
X119752410Y-99691396D01*
X119602585Y-99721198D01*
X119452761Y-99751000D01*
X119147239Y-99751000D01*
X118997415Y-99721198D01*
X118847590Y-99691396D01*
X118565326Y-99574479D01*
X118311295Y-99404741D01*
X118095259Y-99188705D01*
X117925521Y-98934674D01*
X117808604Y-98652410D01*
X117749000Y-98352760D01*
X117749000Y-98047240D01*
X117756802Y-98008019D01*
X117808604Y-97747591D01*
X117808604Y-97747590D01*
X117925521Y-97465326D01*
X118095259Y-97211295D01*
X118311295Y-96995259D01*
X118565326Y-96825521D01*
X118847590Y-96708604D01*
X118997415Y-96678802D01*
X119147239Y-96649000D01*
X119452761Y-96649000D01*
X119602585Y-96678802D01*
X119602585Y-96678802D01*
G37*
G36*
X124202585Y-96678802D02*
G01*
X124352410Y-96708604D01*
X124634674Y-96825521D01*
X124888705Y-96995259D01*
X125104741Y-97211295D01*
X125274479Y-97465326D01*
X125391396Y-97747590D01*
X125391396Y-97747591D01*
X125443199Y-98008019D01*
X125451000Y-98047240D01*
X125451000Y-98352760D01*
X125391396Y-98652410D01*
X125274479Y-98934674D01*
X125104741Y-99188705D01*
X124888705Y-99404741D01*
X124634674Y-99574479D01*
X124352410Y-99691396D01*
X124202585Y-99721198D01*
X124052761Y-99751000D01*
X123747239Y-99751000D01*
X123597415Y-99721198D01*
X123447590Y-99691396D01*
X123165326Y-99574479D01*
X122911295Y-99404741D01*
X122695259Y-99188705D01*
X122525521Y-98934674D01*
X122408604Y-98652410D01*
X122349000Y-98352760D01*
X122349000Y-98047240D01*
X122356802Y-98008019D01*
X122408604Y-97747591D01*
X122408604Y-97747590D01*
X122525521Y-97465326D01*
X122695259Y-97211295D01*
X122911295Y-96995259D01*
X123165326Y-96825521D01*
X123447590Y-96708604D01*
X123597415Y-96678802D01*
X123747239Y-96649000D01*
X124052761Y-96649000D01*
X124202585Y-96678802D01*
X124202585Y-96678802D01*
G37*
G36*
X109364499Y-98503445D02*
G01*
X109401995Y-98514820D01*
X109436554Y-98533292D01*
X109466847Y-98558153D01*
X109491708Y-98588446D01*
X109510180Y-98623005D01*
X109521555Y-98660501D01*
X109526000Y-98705638D01*
X109526000Y-99444362D01*
X109521555Y-99489499D01*
X109510180Y-99526995D01*
X109491708Y-99561554D01*
X109466847Y-99591847D01*
X109436554Y-99616708D01*
X109401995Y-99635180D01*
X109364499Y-99646555D01*
X109319362Y-99651000D01*
X108680638Y-99651000D01*
X108635501Y-99646555D01*
X108598005Y-99635180D01*
X108563446Y-99616708D01*
X108533153Y-99591847D01*
X108508292Y-99561554D01*
X108489820Y-99526995D01*
X108478445Y-99489499D01*
X108474000Y-99444362D01*
X108474000Y-98705638D01*
X108478445Y-98660501D01*
X108489820Y-98623005D01*
X108508292Y-98588446D01*
X108533153Y-98558153D01*
X108563446Y-98533292D01*
X108598005Y-98514820D01*
X108635501Y-98503445D01*
X108680638Y-98499000D01*
X109319362Y-98499000D01*
X109364499Y-98503445D01*
X109364499Y-98503445D01*
G37*
G36*
X84295285Y-97318234D02*
G01*
X84391981Y-97337468D01*
X84574151Y-97412926D01*
X84738100Y-97522473D01*
X84877527Y-97661900D01*
X84987074Y-97825849D01*
X84987075Y-97825851D01*
X85003999Y-97866708D01*
X85062532Y-98008019D01*
X85101000Y-98201410D01*
X85101000Y-98398590D01*
X85062532Y-98591981D01*
X84987074Y-98774151D01*
X84877527Y-98938100D01*
X84738100Y-99077527D01*
X84574151Y-99187074D01*
X84574150Y-99187075D01*
X84574149Y-99187075D01*
X84520795Y-99209175D01*
X84391981Y-99262532D01*
X84198591Y-99301000D01*
X84001409Y-99301000D01*
X83808019Y-99262532D01*
X83679205Y-99209175D01*
X83625851Y-99187075D01*
X83625850Y-99187075D01*
X83625849Y-99187074D01*
X83461900Y-99077527D01*
X83322473Y-98938100D01*
X83212926Y-98774151D01*
X83137468Y-98591981D01*
X83099000Y-98398590D01*
X83099000Y-98201410D01*
X83137468Y-98008019D01*
X83196001Y-97866708D01*
X83212925Y-97825851D01*
X83212926Y-97825849D01*
X83322473Y-97661900D01*
X83461900Y-97522473D01*
X83625849Y-97412926D01*
X83808019Y-97337468D01*
X83904715Y-97318234D01*
X84001409Y-97299000D01*
X84198591Y-97299000D01*
X84295285Y-97318234D01*
X84295285Y-97318234D01*
G37*
G36*
X109364499Y-96753445D02*
G01*
X109401995Y-96764820D01*
X109436554Y-96783292D01*
X109466847Y-96808153D01*
X109491708Y-96838446D01*
X109510180Y-96873005D01*
X109521555Y-96910501D01*
X109526000Y-96955638D01*
X109526000Y-97694362D01*
X109521555Y-97739499D01*
X109510180Y-97776995D01*
X109491708Y-97811554D01*
X109466847Y-97841847D01*
X109436554Y-97866708D01*
X109401995Y-97885180D01*
X109364499Y-97896555D01*
X109319362Y-97901000D01*
X108680638Y-97901000D01*
X108635501Y-97896555D01*
X108598005Y-97885180D01*
X108563446Y-97866708D01*
X108533153Y-97841847D01*
X108508292Y-97811554D01*
X108489820Y-97776995D01*
X108478445Y-97739499D01*
X108474000Y-97694362D01*
X108474000Y-96955638D01*
X108478445Y-96910501D01*
X108489820Y-96873005D01*
X108508292Y-96838446D01*
X108533153Y-96808153D01*
X108563446Y-96783292D01*
X108598005Y-96764820D01*
X108635501Y-96753445D01*
X108680638Y-96749000D01*
X109319362Y-96749000D01*
X109364499Y-96753445D01*
X109364499Y-96753445D01*
G37*
G36*
X102851000Y-96751000D02*
G01*
X100549000Y-96751000D01*
X100549000Y-95249000D01*
X102851000Y-95249000D01*
X102851000Y-96751000D01*
X102851000Y-96751000D01*
G37*
G36*
X97951000Y-96751000D02*
G01*
X95649000Y-96751000D01*
X95649000Y-95249000D01*
X97951000Y-95249000D01*
X97951000Y-96751000D01*
X97951000Y-96751000D01*
G37*
G36*
X109501000Y-94101000D02*
G01*
X108599000Y-94101000D01*
X108599000Y-93099000D01*
X109501000Y-93099000D01*
X109501000Y-94101000D01*
X109501000Y-94101000D01*
G37*
G36*
X107601000Y-94101000D02*
G01*
X106699000Y-94101000D01*
X106699000Y-93099000D01*
X107601000Y-93099000D01*
X107601000Y-94101000D01*
X107601000Y-94101000D01*
G37*
G36*
X115002585Y-90978802D02*
G01*
X115152410Y-91008604D01*
X115434674Y-91125521D01*
X115688705Y-91295259D01*
X115904741Y-91511295D01*
X116074479Y-91765326D01*
X116191396Y-92047590D01*
X116251000Y-92347240D01*
X116251000Y-92652760D01*
X116191396Y-92952410D01*
X116074479Y-93234674D01*
X115904741Y-93488705D01*
X115688705Y-93704741D01*
X115434674Y-93874479D01*
X115152410Y-93991396D01*
X115002585Y-94021198D01*
X114852761Y-94051000D01*
X114547239Y-94051000D01*
X114397415Y-94021198D01*
X114247590Y-93991396D01*
X113965326Y-93874479D01*
X113711295Y-93704741D01*
X113495259Y-93488705D01*
X113325521Y-93234674D01*
X113208604Y-92952410D01*
X113149000Y-92652760D01*
X113149000Y-92347240D01*
X113208604Y-92047590D01*
X113325521Y-91765326D01*
X113495259Y-91511295D01*
X113711295Y-91295259D01*
X113965326Y-91125521D01*
X114247590Y-91008604D01*
X114397415Y-90978802D01*
X114547239Y-90949000D01*
X114852761Y-90949000D01*
X115002585Y-90978802D01*
X115002585Y-90978802D01*
G37*
G36*
X119602585Y-90978802D02*
G01*
X119752410Y-91008604D01*
X120034674Y-91125521D01*
X120288705Y-91295259D01*
X120504741Y-91511295D01*
X120674479Y-91765326D01*
X120791396Y-92047590D01*
X120851000Y-92347240D01*
X120851000Y-92652760D01*
X120791396Y-92952410D01*
X120674479Y-93234674D01*
X120504741Y-93488705D01*
X120288705Y-93704741D01*
X120034674Y-93874479D01*
X119752410Y-93991396D01*
X119602585Y-94021198D01*
X119452761Y-94051000D01*
X119147239Y-94051000D01*
X118997415Y-94021198D01*
X118847590Y-93991396D01*
X118565326Y-93874479D01*
X118311295Y-93704741D01*
X118095259Y-93488705D01*
X117925521Y-93234674D01*
X117808604Y-92952410D01*
X117749000Y-92652760D01*
X117749000Y-92347240D01*
X117808604Y-92047590D01*
X117925521Y-91765326D01*
X118095259Y-91511295D01*
X118311295Y-91295259D01*
X118565326Y-91125521D01*
X118847590Y-91008604D01*
X118997415Y-90978802D01*
X119147239Y-90949000D01*
X119452761Y-90949000D01*
X119602585Y-90978802D01*
X119602585Y-90978802D01*
G37*
G36*
X124202585Y-90978802D02*
G01*
X124352410Y-91008604D01*
X124634674Y-91125521D01*
X124888705Y-91295259D01*
X125104741Y-91511295D01*
X125274479Y-91765326D01*
X125391396Y-92047590D01*
X125451000Y-92347240D01*
X125451000Y-92652760D01*
X125391396Y-92952410D01*
X125274479Y-93234674D01*
X125104741Y-93488705D01*
X124888705Y-93704741D01*
X124634674Y-93874479D01*
X124352410Y-93991396D01*
X124202585Y-94021198D01*
X124052761Y-94051000D01*
X123747239Y-94051000D01*
X123597415Y-94021198D01*
X123447590Y-93991396D01*
X123165326Y-93874479D01*
X122911295Y-93704741D01*
X122695259Y-93488705D01*
X122525521Y-93234674D01*
X122408604Y-92952410D01*
X122349000Y-92652760D01*
X122349000Y-92347240D01*
X122408604Y-92047590D01*
X122525521Y-91765326D01*
X122695259Y-91511295D01*
X122911295Y-91295259D01*
X123165326Y-91125521D01*
X123447590Y-91008604D01*
X123597415Y-90978802D01*
X123747239Y-90949000D01*
X124052761Y-90949000D01*
X124202585Y-90978802D01*
X124202585Y-90978802D01*
G37*
G36*
X97951000Y-92451000D02*
G01*
X95649000Y-92451000D01*
X95649000Y-90949000D01*
X97951000Y-90949000D01*
X97951000Y-92451000D01*
X97951000Y-92451000D01*
G37*
G36*
X102851000Y-92351000D02*
G01*
X100549000Y-92351000D01*
X100549000Y-90849000D01*
X102851000Y-90849000D01*
X102851000Y-92351000D01*
X102851000Y-92351000D01*
G37*
G36*
X108551000Y-92101000D02*
G01*
X107649000Y-92101000D01*
X107649000Y-91099000D01*
X108551000Y-91099000D01*
X108551000Y-92101000D01*
X108551000Y-92101000D01*
G37*
G36*
X78975285Y-86808233D02*
G01*
X79071981Y-86827467D01*
X79254151Y-86902925D01*
X79418100Y-87012472D01*
X79557527Y-87151899D01*
X79667074Y-87315848D01*
X79742532Y-87498018D01*
X79781000Y-87691409D01*
X79781000Y-87888589D01*
X79742532Y-88081980D01*
X79667074Y-88264150D01*
X79557527Y-88428099D01*
X79418100Y-88567526D01*
X79254151Y-88677073D01*
X79071981Y-88752531D01*
X78878591Y-88790999D01*
X78681409Y-88790999D01*
X78488019Y-88752531D01*
X78305849Y-88677073D01*
X78141900Y-88567526D01*
X78002473Y-88428099D01*
X77892926Y-88264150D01*
X77817468Y-88081980D01*
X77779000Y-87888589D01*
X77779000Y-87691409D01*
X77817468Y-87498018D01*
X77892926Y-87315848D01*
X78002473Y-87151899D01*
X78141900Y-87012472D01*
X78305849Y-86902925D01*
X78488019Y-86827467D01*
X78584715Y-86808233D01*
X78681409Y-86788999D01*
X78878591Y-86788999D01*
X78975285Y-86808233D01*
X78975285Y-86808233D01*
G37*
G36*
X84055285Y-86808233D02*
G01*
X84151981Y-86827467D01*
X84334151Y-86902925D01*
X84498100Y-87012472D01*
X84637527Y-87151899D01*
X84747074Y-87315848D01*
X84822532Y-87498018D01*
X84861000Y-87691409D01*
X84861000Y-87888589D01*
X84822532Y-88081980D01*
X84747074Y-88264150D01*
X84637527Y-88428099D01*
X84498100Y-88567526D01*
X84334151Y-88677073D01*
X84151981Y-88752531D01*
X83958591Y-88790999D01*
X83761409Y-88790999D01*
X83568019Y-88752531D01*
X83385849Y-88677073D01*
X83221900Y-88567526D01*
X83082473Y-88428099D01*
X82972926Y-88264150D01*
X82897468Y-88081980D01*
X82859000Y-87888589D01*
X82859000Y-87691409D01*
X82897468Y-87498018D01*
X82972926Y-87315848D01*
X83082473Y-87151899D01*
X83221900Y-87012472D01*
X83385849Y-86902925D01*
X83568019Y-86827467D01*
X83664715Y-86808233D01*
X83761409Y-86788999D01*
X83958591Y-86788999D01*
X84055285Y-86808233D01*
X84055285Y-86808233D01*
G37*
G36*
X86595285Y-86808233D02*
G01*
X86691981Y-86827467D01*
X86874151Y-86902925D01*
X87038100Y-87012472D01*
X87177527Y-87151899D01*
X87287074Y-87315848D01*
X87362532Y-87498018D01*
X87401000Y-87691409D01*
X87401000Y-87888589D01*
X87362532Y-88081980D01*
X87287074Y-88264150D01*
X87177527Y-88428099D01*
X87038100Y-88567526D01*
X86874151Y-88677073D01*
X86691981Y-88752531D01*
X86498591Y-88790999D01*
X86301409Y-88790999D01*
X86108019Y-88752531D01*
X85925849Y-88677073D01*
X85761900Y-88567526D01*
X85622473Y-88428099D01*
X85512926Y-88264150D01*
X85437468Y-88081980D01*
X85399000Y-87888589D01*
X85399000Y-87691409D01*
X85437468Y-87498018D01*
X85512926Y-87315848D01*
X85622473Y-87151899D01*
X85761900Y-87012472D01*
X85925849Y-86902925D01*
X86108019Y-86827467D01*
X86204715Y-86808233D01*
X86301409Y-86788999D01*
X86498591Y-86788999D01*
X86595285Y-86808233D01*
X86595285Y-86808233D01*
G37*
G36*
X81515285Y-86808233D02*
G01*
X81611981Y-86827467D01*
X81794151Y-86902925D01*
X81958100Y-87012472D01*
X82097527Y-87151899D01*
X82207074Y-87315848D01*
X82282532Y-87498018D01*
X82321000Y-87691409D01*
X82321000Y-87888589D01*
X82282532Y-88081980D01*
X82207074Y-88264150D01*
X82097527Y-88428099D01*
X81958100Y-88567526D01*
X81794151Y-88677073D01*
X81611981Y-88752531D01*
X81418591Y-88790999D01*
X81221409Y-88790999D01*
X81028019Y-88752531D01*
X80845849Y-88677073D01*
X80681900Y-88567526D01*
X80542473Y-88428099D01*
X80432926Y-88264150D01*
X80357468Y-88081980D01*
X80319000Y-87888589D01*
X80319000Y-87691409D01*
X80357468Y-87498018D01*
X80432926Y-87315848D01*
X80542473Y-87151899D01*
X80681900Y-87012472D01*
X80845849Y-86902925D01*
X81028019Y-86827467D01*
X81124715Y-86808233D01*
X81221409Y-86788999D01*
X81418591Y-86788999D01*
X81515285Y-86808233D01*
X81515285Y-86808233D01*
G37*
G36*
X125051000Y-85151000D02*
G01*
X122349000Y-85151000D01*
X122349000Y-82449000D01*
X125051000Y-82449000D01*
X125051000Y-85151000D01*
X125051000Y-85151000D01*
G37*
G36*
X101991981Y-82837468D02*
G01*
X102174151Y-82912926D01*
X102338100Y-83022473D01*
X102477527Y-83161900D01*
X102587074Y-83325849D01*
X102662532Y-83508019D01*
X102701000Y-83701410D01*
X102701000Y-83898590D01*
X102662532Y-84091981D01*
X102587074Y-84274151D01*
X102477527Y-84438100D01*
X102338100Y-84577527D01*
X102174151Y-84687074D01*
X101991981Y-84762532D01*
X101798591Y-84801000D01*
X101601409Y-84801000D01*
X101408019Y-84762532D01*
X101225849Y-84687074D01*
X101061900Y-84577527D01*
X100922473Y-84438100D01*
X100812926Y-84274151D01*
X100737468Y-84091981D01*
X100699000Y-83898590D01*
X100699000Y-83701410D01*
X100737468Y-83508019D01*
X100812926Y-83325849D01*
X100922473Y-83161900D01*
X101061900Y-83022473D01*
X101225849Y-82912926D01*
X101408019Y-82837468D01*
X101601409Y-82799000D01*
X101798591Y-82799000D01*
X101991981Y-82837468D01*
X101991981Y-82837468D01*
G37*
G36*
X113491981Y-82837468D02*
G01*
X113674151Y-82912926D01*
X113838100Y-83022473D01*
X113977527Y-83161900D01*
X114087074Y-83325849D01*
X114162532Y-83508019D01*
X114201000Y-83701410D01*
X114201000Y-83898590D01*
X114162532Y-84091981D01*
X114087074Y-84274151D01*
X113977527Y-84438100D01*
X113838100Y-84577527D01*
X113674151Y-84687074D01*
X113491981Y-84762532D01*
X113298591Y-84801000D01*
X113101409Y-84801000D01*
X112908019Y-84762532D01*
X112725849Y-84687074D01*
X112561900Y-84577527D01*
X112422473Y-84438100D01*
X112312926Y-84274151D01*
X112237468Y-84091981D01*
X112199000Y-83898590D01*
X112199000Y-83701410D01*
X112237468Y-83508019D01*
X112312926Y-83325849D01*
X112422473Y-83161900D01*
X112561900Y-83022473D01*
X112725849Y-82912926D01*
X112908019Y-82837468D01*
X113101409Y-82799000D01*
X113298591Y-82799000D01*
X113491981Y-82837468D01*
X113491981Y-82837468D01*
G37*
G36*
X124094072Y-77500918D02*
G01*
X124339939Y-77602759D01*
X124561212Y-77750610D01*
X124749390Y-77938788D01*
X124897241Y-78160061D01*
X124999082Y-78405928D01*
X125051000Y-78666938D01*
X125051000Y-78933062D01*
X124999082Y-79194072D01*
X124897241Y-79439939D01*
X124749390Y-79661212D01*
X124561212Y-79849390D01*
X124339939Y-79997241D01*
X124339938Y-79997242D01*
X124339937Y-79997242D01*
X124094072Y-80099082D01*
X123833063Y-80151000D01*
X123566937Y-80151000D01*
X123305928Y-80099082D01*
X123060063Y-79997242D01*
X123060062Y-79997242D01*
X123060061Y-79997241D01*
X122838788Y-79849390D01*
X122650610Y-79661212D01*
X122502759Y-79439939D01*
X122400918Y-79194072D01*
X122349000Y-78933062D01*
X122349000Y-78666938D01*
X122400918Y-78405928D01*
X122502759Y-78160061D01*
X122650610Y-77938788D01*
X122838788Y-77750610D01*
X123060061Y-77602759D01*
X123305928Y-77500918D01*
X123566937Y-77449000D01*
X123833063Y-77449000D01*
X124094072Y-77500918D01*
X124094072Y-77500918D01*
G37*
G36*
X113395285Y-72618234D02*
G01*
X113491981Y-72637468D01*
X113674151Y-72712926D01*
X113838100Y-72822473D01*
X113977527Y-72961900D01*
X114087074Y-73125849D01*
X114162532Y-73308019D01*
X114201000Y-73501410D01*
X114201000Y-73698590D01*
X114162532Y-73891981D01*
X114087074Y-74074151D01*
X113977527Y-74238100D01*
X113838100Y-74377527D01*
X113674151Y-74487074D01*
X113491981Y-74562532D01*
X113298591Y-74601000D01*
X113101409Y-74601000D01*
X112908019Y-74562532D01*
X112725849Y-74487074D01*
X112561900Y-74377527D01*
X112422473Y-74238100D01*
X112312926Y-74074151D01*
X112237468Y-73891981D01*
X112199000Y-73698590D01*
X112199000Y-73501410D01*
X112237468Y-73308019D01*
X112312926Y-73125849D01*
X112422473Y-72961900D01*
X112561900Y-72822473D01*
X112725849Y-72712926D01*
X112908019Y-72637468D01*
X113004715Y-72618234D01*
X113101409Y-72599000D01*
X113298591Y-72599000D01*
X113395285Y-72618234D01*
X113395285Y-72618234D01*
G37*
G36*
X101895285Y-72618234D02*
G01*
X101991981Y-72637468D01*
X102174151Y-72712926D01*
X102338100Y-72822473D01*
X102477527Y-72961900D01*
X102587074Y-73125849D01*
X102662532Y-73308019D01*
X102701000Y-73501410D01*
X102701000Y-73698590D01*
X102662532Y-73891981D01*
X102587074Y-74074151D01*
X102477527Y-74238100D01*
X102338100Y-74377527D01*
X102174151Y-74487074D01*
X101991981Y-74562532D01*
X101798591Y-74601000D01*
X101601409Y-74601000D01*
X101408019Y-74562532D01*
X101225849Y-74487074D01*
X101061900Y-74377527D01*
X100922473Y-74238100D01*
X100812926Y-74074151D01*
X100737468Y-73891981D01*
X100699000Y-73698590D01*
X100699000Y-73501410D01*
X100737468Y-73308019D01*
X100812926Y-73125849D01*
X100922473Y-72961900D01*
X101061900Y-72822473D01*
X101225849Y-72712926D01*
X101408019Y-72637468D01*
X101504715Y-72618234D01*
X101601409Y-72599000D01*
X101798591Y-72599000D01*
X101895285Y-72618234D01*
X101895285Y-72618234D01*
G37*
G36*
X86595285Y-70318234D02*
G01*
X86691981Y-70337468D01*
X86874151Y-70412926D01*
X87038100Y-70522473D01*
X87177527Y-70661900D01*
X87287074Y-70825849D01*
X87362532Y-71008019D01*
X87401000Y-71201410D01*
X87401000Y-71398590D01*
X87362532Y-71591981D01*
X87287074Y-71774151D01*
X87177527Y-71938100D01*
X87038100Y-72077527D01*
X86874151Y-72187074D01*
X86691981Y-72262532D01*
X86498591Y-72301000D01*
X86301409Y-72301000D01*
X86108019Y-72262532D01*
X85925849Y-72187074D01*
X85761900Y-72077527D01*
X85622473Y-71938100D01*
X85512926Y-71774151D01*
X85437468Y-71591981D01*
X85399000Y-71398590D01*
X85399000Y-71201410D01*
X85437468Y-71008019D01*
X85512926Y-70825849D01*
X85622473Y-70661900D01*
X85761900Y-70522473D01*
X85925849Y-70412926D01*
X86108019Y-70337468D01*
X86204715Y-70318234D01*
X86301409Y-70299000D01*
X86498591Y-70299000D01*
X86595285Y-70318234D01*
X86595285Y-70318234D01*
G37*
G36*
X84055285Y-70318234D02*
G01*
X84151981Y-70337468D01*
X84334151Y-70412926D01*
X84498100Y-70522473D01*
X84637527Y-70661900D01*
X84747074Y-70825849D01*
X84822532Y-71008019D01*
X84861000Y-71201410D01*
X84861000Y-71398590D01*
X84822532Y-71591981D01*
X84747074Y-71774151D01*
X84637527Y-71938100D01*
X84498100Y-72077527D01*
X84334151Y-72187074D01*
X84151981Y-72262532D01*
X83958591Y-72301000D01*
X83761409Y-72301000D01*
X83568019Y-72262532D01*
X83385849Y-72187074D01*
X83221900Y-72077527D01*
X83082473Y-71938100D01*
X82972926Y-71774151D01*
X82897468Y-71591981D01*
X82859000Y-71398590D01*
X82859000Y-71201410D01*
X82897468Y-71008019D01*
X82972926Y-70825849D01*
X83082473Y-70661900D01*
X83221900Y-70522473D01*
X83385849Y-70412926D01*
X83568019Y-70337468D01*
X83664715Y-70318234D01*
X83761409Y-70299000D01*
X83958591Y-70299000D01*
X84055285Y-70318234D01*
X84055285Y-70318234D01*
G37*
G36*
X81515285Y-70318234D02*
G01*
X81611981Y-70337468D01*
X81794151Y-70412926D01*
X81958100Y-70522473D01*
X82097527Y-70661900D01*
X82207074Y-70825849D01*
X82282532Y-71008019D01*
X82321000Y-71201410D01*
X82321000Y-71398590D01*
X82282532Y-71591981D01*
X82207074Y-71774151D01*
X82097527Y-71938100D01*
X81958100Y-72077527D01*
X81794151Y-72187074D01*
X81611981Y-72262532D01*
X81418591Y-72301000D01*
X81221409Y-72301000D01*
X81028019Y-72262532D01*
X80845849Y-72187074D01*
X80681900Y-72077527D01*
X80542473Y-71938100D01*
X80432926Y-71774151D01*
X80357468Y-71591981D01*
X80319000Y-71398590D01*
X80319000Y-71201410D01*
X80357468Y-71008019D01*
X80432926Y-70825849D01*
X80542473Y-70661900D01*
X80681900Y-70522473D01*
X80845849Y-70412926D01*
X81028019Y-70337468D01*
X81124715Y-70318234D01*
X81221409Y-70299000D01*
X81418591Y-70299000D01*
X81515285Y-70318234D01*
X81515285Y-70318234D01*
G37*
G36*
X78975285Y-70318234D02*
G01*
X79071981Y-70337468D01*
X79254151Y-70412926D01*
X79418100Y-70522473D01*
X79557527Y-70661900D01*
X79667074Y-70825849D01*
X79742532Y-71008019D01*
X79781000Y-71201410D01*
X79781000Y-71398590D01*
X79742532Y-71591981D01*
X79667074Y-71774151D01*
X79557527Y-71938100D01*
X79418100Y-72077527D01*
X79254151Y-72187074D01*
X79071981Y-72262532D01*
X78878591Y-72301000D01*
X78681409Y-72301000D01*
X78488019Y-72262532D01*
X78305849Y-72187074D01*
X78141900Y-72077527D01*
X78002473Y-71938100D01*
X77892926Y-71774151D01*
X77817468Y-71591981D01*
X77779000Y-71398590D01*
X77779000Y-71201410D01*
X77817468Y-71008019D01*
X77892926Y-70825849D01*
X78002473Y-70661900D01*
X78141900Y-70522473D01*
X78305849Y-70412926D01*
X78488019Y-70337468D01*
X78584715Y-70318234D01*
X78681409Y-70299000D01*
X78878591Y-70299000D01*
X78975285Y-70318234D01*
X78975285Y-70318234D01*
G37*
G36*
X127598254Y-67527818D02*
G01*
X127971511Y-67682426D01*
X127971513Y-67682427D01*
X128307436Y-67906884D01*
X128593116Y-68192564D01*
X128817574Y-68528489D01*
X128972182Y-68901746D01*
X129051000Y-69297993D01*
X129051000Y-69702007D01*
X128972182Y-70098254D01*
X128817574Y-70471511D01*
X128817573Y-70471513D01*
X128593116Y-70807436D01*
X128307436Y-71093116D01*
X127971513Y-71317573D01*
X127971512Y-71317574D01*
X127971511Y-71317574D01*
X127598254Y-71472182D01*
X127202007Y-71551000D01*
X126797993Y-71551000D01*
X126401746Y-71472182D01*
X126028489Y-71317574D01*
X126028488Y-71317574D01*
X126028487Y-71317573D01*
X125692564Y-71093116D01*
X125406884Y-70807436D01*
X125182427Y-70471513D01*
X125182426Y-70471511D01*
X125027818Y-70098254D01*
X124949000Y-69702007D01*
X124949000Y-69297993D01*
X125027818Y-68901746D01*
X125182426Y-68528489D01*
X125406884Y-68192564D01*
X125692564Y-67906884D01*
X126028487Y-67682427D01*
X126028489Y-67682426D01*
X126401746Y-67527818D01*
X126797993Y-67449000D01*
X127202007Y-67449000D01*
X127598254Y-67527818D01*
X127598254Y-67527818D01*
G37*
G36*
X68598254Y-67527818D02*
G01*
X68971511Y-67682426D01*
X68971513Y-67682427D01*
X69307436Y-67906884D01*
X69593116Y-68192564D01*
X69817574Y-68528489D01*
X69972182Y-68901746D01*
X70051000Y-69297993D01*
X70051000Y-69702007D01*
X69972182Y-70098254D01*
X69817574Y-70471511D01*
X69817573Y-70471513D01*
X69593116Y-70807436D01*
X69307436Y-71093116D01*
X68971513Y-71317573D01*
X68971512Y-71317574D01*
X68971511Y-71317574D01*
X68598254Y-71472182D01*
X68202007Y-71551000D01*
X67797993Y-71551000D01*
X67401746Y-71472182D01*
X67028489Y-71317574D01*
X67028488Y-71317574D01*
X67028487Y-71317573D01*
X66692564Y-71093116D01*
X66406884Y-70807436D01*
X66182427Y-70471513D01*
X66182426Y-70471511D01*
X66027818Y-70098254D01*
X65949000Y-69702007D01*
X65949000Y-69297993D01*
X66027818Y-68901746D01*
X66182426Y-68528489D01*
X66406884Y-68192564D01*
X66692564Y-67906884D01*
X67028487Y-67682427D01*
X67028489Y-67682426D01*
X67401746Y-67527818D01*
X67797993Y-67449000D01*
X68202007Y-67449000D01*
X68598254Y-67527818D01*
X68598254Y-67527818D01*
G37*
M02*
