G04 #@! TF.GenerationSoftware,KiCad,Pcbnew,5.1.4*
G04 #@! TF.CreationDate,2019-09-16T18:09:56+12:00*
G04 #@! TF.ProjectId,spiroBoardV2,73706972-6f42-46f6-9172-6456322e6b69,rev?*
G04 #@! TF.SameCoordinates,Original*
G04 #@! TF.FileFunction,Copper,L1,Top*
G04 #@! TF.FilePolarity,Positive*
%FSLAX46Y46*%
G04 Gerber Fmt 4.6, Leading zero omitted, Abs format (unit mm)*
G04 Created by KiCad (PCBNEW 5.1.4) date 2019-09-16 18:09:56*
%MOMM*%
%LPD*%
G04 APERTURE LIST*
%ADD10C,1.900000*%
%ADD11C,4.000000*%
%ADD12O,4.000000X1.800000*%
%ADD13O,1.800000X4.000000*%
%ADD14R,1.800000X4.400000*%
%ADD15R,2.600000X2.600000*%
%ADD16C,2.600000*%
%ADD17R,1.700000X1.700000*%
%ADD18O,1.700000X1.700000*%
%ADD19C,0.100000*%
%ADD20C,1.050000*%
%ADD21R,1.500000X1.050000*%
%ADD22C,3.000000*%
%ADD23R,2.000000X2.000000*%
%ADD24O,2.000000X2.000000*%
%ADD25C,0.800000*%
%ADD26C,0.250000*%
%ADD27C,0.500000*%
%ADD28C,1.500000*%
%ADD29C,0.254000*%
G04 APERTURE END LIST*
D10*
X113200000Y-83800000D03*
X101700000Y-83800000D03*
X113200000Y-73600000D03*
X101700000Y-73600000D03*
D11*
X127000000Y-69500000D03*
X127000000Y-151000000D03*
X68000000Y-151000000D03*
X68000000Y-69500000D03*
D12*
X118900000Y-113500000D03*
D13*
X121700000Y-118300000D03*
D14*
X115900000Y-118300000D03*
D15*
X123700000Y-83800000D03*
D16*
X123700000Y-78800000D03*
D17*
X84900000Y-147300000D03*
D18*
X82360000Y-147300000D03*
X84900000Y-144760000D03*
X82360000Y-144760000D03*
X84900000Y-142220000D03*
X82360000Y-142220000D03*
D10*
X86400000Y-71300000D03*
X86400000Y-87789999D03*
X83860000Y-71300000D03*
X83860000Y-87789999D03*
X81320000Y-71300000D03*
X81320000Y-87789999D03*
X78780000Y-71300000D03*
X78780000Y-87789999D03*
X84100000Y-98300000D03*
X84100000Y-100840000D03*
X84100000Y-103380000D03*
X84100000Y-105920000D03*
D19*
G36*
X119813229Y-146746264D02*
G01*
X119838711Y-146750044D01*
X119863700Y-146756303D01*
X119887954Y-146764982D01*
X119911242Y-146775996D01*
X119933337Y-146789239D01*
X119954028Y-146804585D01*
X119973116Y-146821884D01*
X119990415Y-146840972D01*
X120005761Y-146861663D01*
X120019004Y-146883758D01*
X120030018Y-146907046D01*
X120038697Y-146931300D01*
X120044956Y-146956289D01*
X120048736Y-146981771D01*
X120050000Y-147007500D01*
X120050000Y-147532500D01*
X120048736Y-147558229D01*
X120044956Y-147583711D01*
X120038697Y-147608700D01*
X120030018Y-147632954D01*
X120019004Y-147656242D01*
X120005761Y-147678337D01*
X119990415Y-147699028D01*
X119973116Y-147718116D01*
X119954028Y-147735415D01*
X119933337Y-147750761D01*
X119911242Y-147764004D01*
X119887954Y-147775018D01*
X119863700Y-147783697D01*
X119838711Y-147789956D01*
X119813229Y-147793736D01*
X119787500Y-147795000D01*
X118812500Y-147795000D01*
X118786771Y-147793736D01*
X118761289Y-147789956D01*
X118736300Y-147783697D01*
X118712046Y-147775018D01*
X118688758Y-147764004D01*
X118666663Y-147750761D01*
X118645972Y-147735415D01*
X118626884Y-147718116D01*
X118609585Y-147699028D01*
X118594239Y-147678337D01*
X118580996Y-147656242D01*
X118569982Y-147632954D01*
X118561303Y-147608700D01*
X118555044Y-147583711D01*
X118551264Y-147558229D01*
X118550000Y-147532500D01*
X118550000Y-147007500D01*
X118551264Y-146981771D01*
X118555044Y-146956289D01*
X118561303Y-146931300D01*
X118569982Y-146907046D01*
X118580996Y-146883758D01*
X118594239Y-146861663D01*
X118609585Y-146840972D01*
X118626884Y-146821884D01*
X118645972Y-146804585D01*
X118666663Y-146789239D01*
X118688758Y-146775996D01*
X118712046Y-146764982D01*
X118736300Y-146756303D01*
X118761289Y-146750044D01*
X118786771Y-146746264D01*
X118812500Y-146745000D01*
X119787500Y-146745000D01*
X119813229Y-146746264D01*
X119813229Y-146746264D01*
G37*
D20*
X119300000Y-147270000D03*
D19*
G36*
X119813229Y-148016264D02*
G01*
X119838711Y-148020044D01*
X119863700Y-148026303D01*
X119887954Y-148034982D01*
X119911242Y-148045996D01*
X119933337Y-148059239D01*
X119954028Y-148074585D01*
X119973116Y-148091884D01*
X119990415Y-148110972D01*
X120005761Y-148131663D01*
X120019004Y-148153758D01*
X120030018Y-148177046D01*
X120038697Y-148201300D01*
X120044956Y-148226289D01*
X120048736Y-148251771D01*
X120050000Y-148277500D01*
X120050000Y-148802500D01*
X120048736Y-148828229D01*
X120044956Y-148853711D01*
X120038697Y-148878700D01*
X120030018Y-148902954D01*
X120019004Y-148926242D01*
X120005761Y-148948337D01*
X119990415Y-148969028D01*
X119973116Y-148988116D01*
X119954028Y-149005415D01*
X119933337Y-149020761D01*
X119911242Y-149034004D01*
X119887954Y-149045018D01*
X119863700Y-149053697D01*
X119838711Y-149059956D01*
X119813229Y-149063736D01*
X119787500Y-149065000D01*
X118812500Y-149065000D01*
X118786771Y-149063736D01*
X118761289Y-149059956D01*
X118736300Y-149053697D01*
X118712046Y-149045018D01*
X118688758Y-149034004D01*
X118666663Y-149020761D01*
X118645972Y-149005415D01*
X118626884Y-148988116D01*
X118609585Y-148969028D01*
X118594239Y-148948337D01*
X118580996Y-148926242D01*
X118569982Y-148902954D01*
X118561303Y-148878700D01*
X118555044Y-148853711D01*
X118551264Y-148828229D01*
X118550000Y-148802500D01*
X118550000Y-148277500D01*
X118551264Y-148251771D01*
X118555044Y-148226289D01*
X118561303Y-148201300D01*
X118569982Y-148177046D01*
X118580996Y-148153758D01*
X118594239Y-148131663D01*
X118609585Y-148110972D01*
X118626884Y-148091884D01*
X118645972Y-148074585D01*
X118666663Y-148059239D01*
X118688758Y-148045996D01*
X118712046Y-148034982D01*
X118736300Y-148026303D01*
X118761289Y-148020044D01*
X118786771Y-148016264D01*
X118812500Y-148015000D01*
X119787500Y-148015000D01*
X119813229Y-148016264D01*
X119813229Y-148016264D01*
G37*
D20*
X119300000Y-148540000D03*
D21*
X119300000Y-146000000D03*
D22*
X123900000Y-92500000D03*
X123900000Y-98200000D03*
X119300000Y-92500000D03*
X119300000Y-98200000D03*
X114700000Y-92500000D03*
X114700000Y-98200000D03*
D17*
X68400000Y-145200000D03*
D18*
X68400000Y-142660000D03*
X68400000Y-140120000D03*
X68400000Y-137580000D03*
X68400000Y-135040000D03*
X68400000Y-132500000D03*
X68400000Y-129960000D03*
X68400000Y-127420000D03*
X68400000Y-124880000D03*
X68400000Y-122340000D03*
X68400000Y-119800000D03*
D17*
X126900000Y-142600000D03*
D18*
X126900000Y-140060000D03*
X126900000Y-137520000D03*
X126900000Y-134980000D03*
X126900000Y-132440000D03*
X126900000Y-129900000D03*
X126900000Y-127360000D03*
D23*
X116200000Y-106200000D03*
D24*
X121280000Y-106200000D03*
X103900000Y-106200000D03*
D23*
X98820000Y-106200000D03*
D25*
X108800000Y-147200000D03*
X84800000Y-136100000D03*
X90900000Y-133800000D03*
X106800000Y-128200000D03*
X115600000Y-139200000D03*
X94100000Y-138100000D03*
X96500000Y-120800000D03*
X98800000Y-144900000D03*
X80450000Y-143600000D03*
X101000000Y-138500000D03*
X104800000Y-139300000D03*
X110300000Y-121800000D03*
X97200000Y-139000000D03*
X88100000Y-136100000D03*
X99900000Y-129600000D03*
X102800000Y-132400000D03*
X100300000Y-124300000D03*
X100300000Y-122450000D03*
X100200000Y-144900000D03*
X102600000Y-144900000D03*
X101200000Y-117100000D03*
X110600000Y-137700000D03*
X104600000Y-137000000D03*
X118600000Y-136900000D03*
X92500000Y-133700000D03*
X104400000Y-127400000D03*
X110600000Y-126300000D03*
X116200000Y-130300000D03*
X106200000Y-118800000D03*
X103700000Y-118800000D03*
X95700000Y-134800000D03*
X103400000Y-125000000D03*
X104300000Y-125500000D03*
X93500000Y-130000000D03*
X94000000Y-129100000D03*
X94600000Y-128300000D03*
X95200000Y-127500000D03*
X97700000Y-125700000D03*
X95900000Y-126700000D03*
X98400000Y-124900000D03*
X99300000Y-124400000D03*
X104600000Y-135600000D03*
X106300000Y-132100000D03*
X107300000Y-131300000D03*
X108300000Y-130700000D03*
X108800000Y-129800000D03*
X108900000Y-128700000D03*
X108200000Y-127800000D03*
X92700000Y-145400000D03*
X92700000Y-141500000D03*
X92300000Y-137800000D03*
X82200000Y-136900000D03*
X105100000Y-126100000D03*
X108100000Y-124800000D03*
X101200000Y-118200000D03*
X102400000Y-124600000D03*
X102500000Y-122400000D03*
X99100000Y-118200000D03*
X101200000Y-119300000D03*
X101400000Y-124300000D03*
X101400000Y-122200000D03*
X99100000Y-119300000D03*
X89000000Y-103400000D03*
X91600000Y-101500000D03*
X99600000Y-136200000D03*
X108950001Y-103450001D03*
D26*
X101000000Y-138500000D02*
X101800000Y-139300000D01*
X101800000Y-139300000D02*
X104400000Y-139300000D01*
X104400000Y-139300000D02*
X104800000Y-139300000D01*
D27*
X88000000Y-136000000D02*
X88100000Y-136100000D01*
X84800000Y-136100000D02*
X88000000Y-136100000D01*
X100300000Y-124300000D02*
X100300000Y-123734315D01*
X100300000Y-123734315D02*
X100300000Y-123250001D01*
X100300000Y-123250001D02*
X100300000Y-122550000D01*
X100300000Y-122550000D02*
X100200000Y-122450000D01*
X102600000Y-144900000D02*
X100200000Y-144900000D01*
D26*
X110600000Y-137700000D02*
X105300000Y-137700000D01*
X105300000Y-137700000D02*
X104600000Y-137000000D01*
D27*
X110600000Y-137700000D02*
X110999999Y-137300001D01*
X110999999Y-137300001D02*
X111800000Y-136500000D01*
X111800000Y-136500000D02*
X118200000Y-136500000D01*
X118200000Y-136500000D02*
X118600000Y-136900000D01*
X101200000Y-117100000D02*
X94900000Y-117100000D01*
X94900000Y-117100000D02*
X88000000Y-110200000D01*
X88000000Y-89389999D02*
X86400000Y-87789999D01*
X88000000Y-104740000D02*
X88000000Y-107300000D01*
X84100000Y-100840000D02*
X88000000Y-104740000D01*
X88000000Y-110200000D02*
X88000000Y-107300000D01*
X88000000Y-107300000D02*
X88000000Y-89389999D01*
D26*
X92500000Y-133700000D02*
X98100000Y-133700000D01*
X98100000Y-133700000D02*
X104400000Y-127400000D01*
X111165685Y-126300000D02*
X115065685Y-130200000D01*
X110600000Y-126300000D02*
X111165685Y-126300000D01*
X115065685Y-130200000D02*
X116100000Y-130200000D01*
X116100000Y-130200000D02*
X116200000Y-130300000D01*
X106200000Y-118800000D02*
X103700000Y-118800000D01*
D28*
X123700000Y-83800000D02*
X113200000Y-83800000D01*
X98700000Y-106080000D02*
X98820000Y-106200000D01*
X113200000Y-83800000D02*
X98700000Y-98300000D01*
X98700000Y-98300000D02*
X98700000Y-106080000D01*
X101700000Y-83800000D02*
X101700000Y-73600000D01*
D27*
X79200000Y-139900000D02*
X73900000Y-145200000D01*
X73900000Y-145200000D02*
X70300000Y-145200000D01*
X94300000Y-139900000D02*
X79200000Y-139900000D01*
X95700000Y-134800000D02*
X95700000Y-138500000D01*
X95700000Y-138500000D02*
X94300000Y-139900000D01*
X70300000Y-145200000D02*
X68400000Y-145200000D01*
X98500000Y-122800000D02*
X79800000Y-122800000D01*
X103799999Y-124600001D02*
X103799999Y-121699999D01*
X79340000Y-122340000D02*
X70300000Y-122340000D01*
X103400000Y-125000000D02*
X103799999Y-124600001D01*
X103300000Y-121200000D02*
X100100000Y-121200000D01*
X79800000Y-122800000D02*
X79340000Y-122340000D01*
X103799999Y-121699999D02*
X103300000Y-121200000D01*
X100100000Y-121200000D02*
X98500000Y-122800000D01*
X70300000Y-122340000D02*
X68400000Y-122340000D01*
X99500000Y-120400000D02*
X98100000Y-121800000D01*
X103900000Y-120400000D02*
X99500000Y-120400000D01*
X104699999Y-125100001D02*
X104699999Y-121199999D01*
X104300000Y-125500000D02*
X104699999Y-125100001D01*
X104699999Y-121199999D02*
X103900000Y-120400000D01*
X98100000Y-121800000D02*
X81400000Y-121800000D01*
X79400000Y-119800000D02*
X70300000Y-119800000D01*
X81400000Y-121800000D02*
X79400000Y-119800000D01*
X70300000Y-119800000D02*
X68400000Y-119800000D01*
X92934315Y-130000000D02*
X93500000Y-130000000D01*
X87784316Y-135149999D02*
X92934315Y-130000000D01*
X82450001Y-135149999D02*
X87784316Y-135149999D01*
X74940000Y-142660000D02*
X82450001Y-135149999D01*
X70300000Y-142660000D02*
X74940000Y-142660000D01*
X70300000Y-142660000D02*
X68400000Y-142660000D01*
X93550001Y-129149999D02*
X92050001Y-129149999D01*
X94000000Y-129100000D02*
X93600000Y-129100000D01*
X93600000Y-129100000D02*
X93550001Y-129149999D01*
X92050001Y-129149999D02*
X87200000Y-134000000D01*
X70300000Y-140120000D02*
X76080000Y-140120000D01*
X82200000Y-134000000D02*
X87200000Y-134000000D01*
X76080000Y-140120000D02*
X82200000Y-134000000D01*
X70300000Y-140120000D02*
X68400000Y-140120000D01*
X94200001Y-127900001D02*
X91499999Y-127900001D01*
X94600000Y-128300000D02*
X94200001Y-127900001D01*
X91499999Y-127900001D02*
X86500000Y-132900000D01*
X70300000Y-137580000D02*
X77120000Y-137580000D01*
X81800000Y-132900000D02*
X86500000Y-132900000D01*
X77120000Y-137580000D02*
X81800000Y-132900000D01*
X70300000Y-137580000D02*
X68400000Y-137580000D01*
X94757993Y-127199991D02*
X90800009Y-127199991D01*
X95200000Y-127500000D02*
X95058002Y-127500000D01*
X95058002Y-127500000D02*
X94757993Y-127199991D01*
X90800009Y-127199991D02*
X86100000Y-131900000D01*
X70300000Y-135040000D02*
X78460000Y-135040000D01*
X81600000Y-131900000D02*
X86100000Y-131900000D01*
X78460000Y-135040000D02*
X81600000Y-131900000D01*
X70300000Y-135040000D02*
X68400000Y-135040000D01*
X97700000Y-125700000D02*
X89700000Y-125700000D01*
X85600000Y-129800000D02*
X81000000Y-129800000D01*
X81000000Y-129800000D02*
X80840000Y-129960000D01*
X70300000Y-129960000D02*
X68400000Y-129960000D01*
X89700000Y-125700000D02*
X85600000Y-129800000D01*
X80840000Y-129960000D02*
X70300000Y-129960000D01*
X90200019Y-126499981D02*
X85900000Y-130800000D01*
X95599981Y-126499981D02*
X90200019Y-126499981D01*
X95800000Y-126700000D02*
X95599981Y-126499981D01*
X95900000Y-126700000D02*
X95800000Y-126700000D01*
X70300000Y-132500000D02*
X79700000Y-132500000D01*
X81400000Y-130800000D02*
X85900000Y-130800000D01*
X79700000Y-132500000D02*
X81400000Y-130800000D01*
X70300000Y-132500000D02*
X68400000Y-132500000D01*
X73280000Y-127420000D02*
X70300000Y-127420000D01*
X75850001Y-124849999D02*
X73280000Y-127420000D01*
X98108001Y-124849999D02*
X75850001Y-124849999D01*
X98400000Y-124900000D02*
X98158002Y-124900000D01*
X98158002Y-124900000D02*
X98108001Y-124849999D01*
X70300000Y-127420000D02*
X68400000Y-127420000D01*
X99300000Y-124400000D02*
X98700000Y-123800000D01*
X70300000Y-124880000D02*
X72520000Y-124880000D01*
X73600000Y-123800000D02*
X74900000Y-123800000D01*
X98700000Y-123800000D02*
X74900000Y-123800000D01*
X72520000Y-124880000D02*
X73600000Y-123800000D01*
X74900000Y-123800000D02*
X74600000Y-123800000D01*
X70300000Y-124880000D02*
X68400000Y-124880000D01*
X124400000Y-141450000D02*
X125550000Y-142600000D01*
X125550000Y-142600000D02*
X126900000Y-142600000D01*
X124400000Y-140600000D02*
X124400000Y-141450000D01*
X104600000Y-135600000D02*
X119400000Y-135600000D01*
X119400000Y-135600000D02*
X124400000Y-140600000D01*
X125260000Y-140060000D02*
X126900000Y-140060000D01*
X106300000Y-132100000D02*
X109099990Y-134899990D01*
X109099990Y-134899990D02*
X120099990Y-134899990D01*
X120099990Y-134899990D02*
X125260000Y-140060000D01*
X126820000Y-137600000D02*
X126900000Y-137520000D01*
X125800000Y-137600000D02*
X126820000Y-137600000D01*
X122399980Y-134199980D02*
X125800000Y-137600000D01*
X107300000Y-131300000D02*
X110199980Y-134199980D01*
X110199980Y-134199980D02*
X122399980Y-134199980D01*
X108300000Y-130700000D02*
X111099970Y-133499970D01*
X111099970Y-133499970D02*
X123399970Y-133499970D01*
X124880000Y-134980000D02*
X126900000Y-134980000D01*
X123399970Y-133499970D02*
X124880000Y-134980000D01*
X108800000Y-129800000D02*
X109500000Y-129800000D01*
X109500000Y-129800000D02*
X112499960Y-132799960D01*
X112499960Y-132799960D02*
X121900040Y-132799960D01*
X122260000Y-132440000D02*
X126900000Y-132440000D01*
X121900040Y-132799960D02*
X122260000Y-132440000D01*
X108900000Y-128700000D02*
X110400001Y-128700001D01*
X110400001Y-128700001D02*
X113799950Y-132099950D01*
X113799950Y-132099950D02*
X119800050Y-132099950D01*
X122000000Y-129900000D02*
X126900000Y-129900000D01*
X119800050Y-132099950D02*
X122000000Y-129900000D01*
X108600000Y-127400000D02*
X110900000Y-127400000D01*
X108200000Y-127800000D02*
X108600000Y-127400000D01*
X110900000Y-127400000D02*
X114899940Y-131399940D01*
X114899940Y-131399940D02*
X119000060Y-131399940D01*
X123040000Y-127360000D02*
X126900000Y-127360000D01*
X119000060Y-131399940D02*
X123040000Y-127360000D01*
D26*
X92700000Y-141500000D02*
X92700000Y-145400000D01*
D27*
X92300000Y-137800000D02*
X85800000Y-137800000D01*
X85800000Y-137800000D02*
X84000000Y-137800000D01*
X84000000Y-137800000D02*
X83200000Y-137800000D01*
X83200000Y-137800000D02*
X83100000Y-137800000D01*
X83100000Y-137800000D02*
X82200000Y-136900000D01*
X105665685Y-126100000D02*
X106965685Y-124800000D01*
X105100000Y-126100000D02*
X105665685Y-126100000D01*
X106965685Y-124800000D02*
X107900000Y-124800000D01*
X107900000Y-124800000D02*
X108100000Y-124800000D01*
X102500000Y-124500000D02*
X102400000Y-124600000D01*
X102500000Y-122400000D02*
X102500000Y-124500000D01*
X101200000Y-118200000D02*
X99100000Y-118200000D01*
X101400000Y-124300000D02*
X101400000Y-122200000D01*
X101200000Y-119300000D02*
X99100000Y-119300000D01*
X90900000Y-101500000D02*
X91600000Y-101500000D01*
X89000000Y-103400000D02*
X90900000Y-101500000D01*
X99600000Y-136200000D02*
X99600000Y-133600000D01*
X108258002Y-125900000D02*
X108950001Y-125208001D01*
X107300000Y-125900000D02*
X108258002Y-125900000D01*
X108950001Y-103450001D02*
X108950001Y-103450001D01*
X108950001Y-125208001D02*
X108950001Y-103450001D01*
X99600000Y-133600000D02*
X107300000Y-125900000D01*
D29*
G36*
X127096633Y-66696469D02*
G01*
X127645904Y-66733915D01*
X128154975Y-66871273D01*
X128627666Y-67104891D01*
X129045980Y-67425876D01*
X129393981Y-67821997D01*
X129658414Y-68278168D01*
X129829207Y-68777013D01*
X129903574Y-69327047D01*
X129905000Y-69404861D01*
X129898096Y-150768036D01*
X129877056Y-151370542D01*
X129752197Y-151902879D01*
X129526314Y-152400835D01*
X129208017Y-152845429D01*
X128809424Y-153219732D01*
X128345721Y-153509486D01*
X127834566Y-153703656D01*
X127273763Y-153798509D01*
X127087861Y-153805000D01*
X68033991Y-153805000D01*
X67455820Y-153748310D01*
X66932371Y-153590271D01*
X66449581Y-153333568D01*
X66025848Y-152987980D01*
X65677311Y-152566670D01*
X65417245Y-152085687D01*
X65255557Y-151563353D01*
X65195015Y-150987345D01*
X65195317Y-150740475D01*
X65365000Y-150740475D01*
X65365000Y-151259525D01*
X65466261Y-151768601D01*
X65664893Y-152248141D01*
X65953262Y-152679715D01*
X66320285Y-153046738D01*
X66751859Y-153335107D01*
X67231399Y-153533739D01*
X67740475Y-153635000D01*
X68259525Y-153635000D01*
X68768601Y-153533739D01*
X69248141Y-153335107D01*
X69679715Y-153046738D01*
X70046738Y-152679715D01*
X70335107Y-152248141D01*
X70533739Y-151768601D01*
X70635000Y-151259525D01*
X70635000Y-150740475D01*
X70533739Y-150231399D01*
X70335107Y-149751859D01*
X70259171Y-149638212D01*
X97665000Y-149638212D01*
X97665000Y-149861788D01*
X97708617Y-150081067D01*
X97794176Y-150287624D01*
X97918388Y-150473520D01*
X98076480Y-150631612D01*
X98262376Y-150755824D01*
X98468933Y-150841383D01*
X98688212Y-150885000D01*
X98911788Y-150885000D01*
X99131067Y-150841383D01*
X99337624Y-150755824D01*
X99523520Y-150631612D01*
X99681612Y-150473520D01*
X99805824Y-150287624D01*
X99891383Y-150081067D01*
X99935000Y-149861788D01*
X99935000Y-149638212D01*
X102065000Y-149638212D01*
X102065000Y-149861788D01*
X102108617Y-150081067D01*
X102194176Y-150287624D01*
X102318388Y-150473520D01*
X102476480Y-150631612D01*
X102662376Y-150755824D01*
X102868933Y-150841383D01*
X103088212Y-150885000D01*
X103311788Y-150885000D01*
X103531067Y-150841383D01*
X103737624Y-150755824D01*
X103760595Y-150740475D01*
X124365000Y-150740475D01*
X124365000Y-151259525D01*
X124466261Y-151768601D01*
X124664893Y-152248141D01*
X124953262Y-152679715D01*
X125320285Y-153046738D01*
X125751859Y-153335107D01*
X126231399Y-153533739D01*
X126740475Y-153635000D01*
X127259525Y-153635000D01*
X127768601Y-153533739D01*
X128248141Y-153335107D01*
X128679715Y-153046738D01*
X129046738Y-152679715D01*
X129335107Y-152248141D01*
X129533739Y-151768601D01*
X129635000Y-151259525D01*
X129635000Y-150740475D01*
X129533739Y-150231399D01*
X129335107Y-149751859D01*
X129046738Y-149320285D01*
X128679715Y-148953262D01*
X128248141Y-148664893D01*
X127768601Y-148466261D01*
X127259525Y-148365000D01*
X126740475Y-148365000D01*
X126231399Y-148466261D01*
X125751859Y-148664893D01*
X125320285Y-148953262D01*
X124953262Y-149320285D01*
X124664893Y-149751859D01*
X124466261Y-150231399D01*
X124365000Y-150740475D01*
X103760595Y-150740475D01*
X103923520Y-150631612D01*
X104081612Y-150473520D01*
X104205824Y-150287624D01*
X104291383Y-150081067D01*
X104335000Y-149861788D01*
X104335000Y-149638212D01*
X104291383Y-149418933D01*
X104205824Y-149212376D01*
X104081612Y-149026480D01*
X103923520Y-148868388D01*
X103737624Y-148744176D01*
X103531067Y-148658617D01*
X103311788Y-148615000D01*
X103088212Y-148615000D01*
X102868933Y-148658617D01*
X102662376Y-148744176D01*
X102476480Y-148868388D01*
X102318388Y-149026480D01*
X102194176Y-149212376D01*
X102108617Y-149418933D01*
X102065000Y-149638212D01*
X99935000Y-149638212D01*
X99891383Y-149418933D01*
X99805824Y-149212376D01*
X99681612Y-149026480D01*
X99523520Y-148868388D01*
X99337624Y-148744176D01*
X99131067Y-148658617D01*
X98911788Y-148615000D01*
X98688212Y-148615000D01*
X98468933Y-148658617D01*
X98262376Y-148744176D01*
X98076480Y-148868388D01*
X97918388Y-149026480D01*
X97794176Y-149212376D01*
X97708617Y-149418933D01*
X97665000Y-149638212D01*
X70259171Y-149638212D01*
X70046738Y-149320285D01*
X69679715Y-148953262D01*
X69248141Y-148664893D01*
X68768601Y-148466261D01*
X68259525Y-148365000D01*
X67740475Y-148365000D01*
X67231399Y-148466261D01*
X66751859Y-148664893D01*
X66320285Y-148953262D01*
X65953262Y-149320285D01*
X65664893Y-149751859D01*
X65466261Y-150231399D01*
X65365000Y-150740475D01*
X65195317Y-150740475D01*
X65233234Y-119800000D01*
X66907815Y-119800000D01*
X66936487Y-120091111D01*
X67021401Y-120371034D01*
X67159294Y-120629014D01*
X67344866Y-120855134D01*
X67570986Y-121040706D01*
X67625791Y-121070000D01*
X67570986Y-121099294D01*
X67344866Y-121284866D01*
X67159294Y-121510986D01*
X67021401Y-121768966D01*
X66936487Y-122048889D01*
X66907815Y-122340000D01*
X66936487Y-122631111D01*
X67021401Y-122911034D01*
X67159294Y-123169014D01*
X67344866Y-123395134D01*
X67570986Y-123580706D01*
X67625791Y-123610000D01*
X67570986Y-123639294D01*
X67344866Y-123824866D01*
X67159294Y-124050986D01*
X67021401Y-124308966D01*
X66936487Y-124588889D01*
X66907815Y-124880000D01*
X66936487Y-125171111D01*
X67021401Y-125451034D01*
X67159294Y-125709014D01*
X67344866Y-125935134D01*
X67570986Y-126120706D01*
X67625791Y-126150000D01*
X67570986Y-126179294D01*
X67344866Y-126364866D01*
X67159294Y-126590986D01*
X67021401Y-126848966D01*
X66936487Y-127128889D01*
X66907815Y-127420000D01*
X66936487Y-127711111D01*
X67021401Y-127991034D01*
X67159294Y-128249014D01*
X67344866Y-128475134D01*
X67570986Y-128660706D01*
X67625791Y-128690000D01*
X67570986Y-128719294D01*
X67344866Y-128904866D01*
X67159294Y-129130986D01*
X67021401Y-129388966D01*
X66936487Y-129668889D01*
X66907815Y-129960000D01*
X66936487Y-130251111D01*
X67021401Y-130531034D01*
X67159294Y-130789014D01*
X67344866Y-131015134D01*
X67570986Y-131200706D01*
X67625791Y-131230000D01*
X67570986Y-131259294D01*
X67344866Y-131444866D01*
X67159294Y-131670986D01*
X67021401Y-131928966D01*
X66936487Y-132208889D01*
X66907815Y-132500000D01*
X66936487Y-132791111D01*
X67021401Y-133071034D01*
X67159294Y-133329014D01*
X67344866Y-133555134D01*
X67570986Y-133740706D01*
X67625791Y-133770000D01*
X67570986Y-133799294D01*
X67344866Y-133984866D01*
X67159294Y-134210986D01*
X67021401Y-134468966D01*
X66936487Y-134748889D01*
X66907815Y-135040000D01*
X66936487Y-135331111D01*
X67021401Y-135611034D01*
X67159294Y-135869014D01*
X67344866Y-136095134D01*
X67570986Y-136280706D01*
X67625791Y-136310000D01*
X67570986Y-136339294D01*
X67344866Y-136524866D01*
X67159294Y-136750986D01*
X67021401Y-137008966D01*
X66936487Y-137288889D01*
X66907815Y-137580000D01*
X66936487Y-137871111D01*
X67021401Y-138151034D01*
X67159294Y-138409014D01*
X67344866Y-138635134D01*
X67570986Y-138820706D01*
X67625791Y-138850000D01*
X67570986Y-138879294D01*
X67344866Y-139064866D01*
X67159294Y-139290986D01*
X67021401Y-139548966D01*
X66936487Y-139828889D01*
X66907815Y-140120000D01*
X66936487Y-140411111D01*
X67021401Y-140691034D01*
X67159294Y-140949014D01*
X67344866Y-141175134D01*
X67570986Y-141360706D01*
X67625791Y-141390000D01*
X67570986Y-141419294D01*
X67344866Y-141604866D01*
X67159294Y-141830986D01*
X67021401Y-142088966D01*
X66936487Y-142368889D01*
X66907815Y-142660000D01*
X66936487Y-142951111D01*
X67021401Y-143231034D01*
X67159294Y-143489014D01*
X67344866Y-143715134D01*
X67374687Y-143739607D01*
X67305820Y-143760498D01*
X67195506Y-143819463D01*
X67098815Y-143898815D01*
X67019463Y-143995506D01*
X66960498Y-144105820D01*
X66924188Y-144225518D01*
X66911928Y-144350000D01*
X66911928Y-146050000D01*
X66924188Y-146174482D01*
X66960498Y-146294180D01*
X67019463Y-146404494D01*
X67098815Y-146501185D01*
X67195506Y-146580537D01*
X67305820Y-146639502D01*
X67425518Y-146675812D01*
X67550000Y-146688072D01*
X69250000Y-146688072D01*
X69374482Y-146675812D01*
X69494180Y-146639502D01*
X69604494Y-146580537D01*
X69701185Y-146501185D01*
X69780537Y-146404494D01*
X69839502Y-146294180D01*
X69875812Y-146174482D01*
X69884625Y-146085000D01*
X73856531Y-146085000D01*
X73900000Y-146089281D01*
X73943469Y-146085000D01*
X73943477Y-146085000D01*
X74073490Y-146072195D01*
X74240313Y-146021589D01*
X74394059Y-145939411D01*
X74528817Y-145828817D01*
X74556534Y-145795044D01*
X79566579Y-140785000D01*
X81984839Y-140785000D01*
X81728748Y-140875843D01*
X81478645Y-141024822D01*
X81262412Y-141219731D01*
X81088359Y-141453080D01*
X80963175Y-141715901D01*
X80918524Y-141863110D01*
X81039845Y-142093000D01*
X82233000Y-142093000D01*
X82233000Y-142073000D01*
X82487000Y-142073000D01*
X82487000Y-142093000D01*
X82507000Y-142093000D01*
X82507000Y-142347000D01*
X82487000Y-142347000D01*
X82487000Y-142367000D01*
X82233000Y-142367000D01*
X82233000Y-142347000D01*
X81039845Y-142347000D01*
X80918524Y-142576890D01*
X80963175Y-142724099D01*
X81088359Y-142986920D01*
X81262412Y-143220269D01*
X81478645Y-143415178D01*
X81595523Y-143484799D01*
X81530986Y-143519294D01*
X81304866Y-143704866D01*
X81119294Y-143930986D01*
X80981401Y-144188966D01*
X80896487Y-144468889D01*
X80867815Y-144760000D01*
X80896487Y-145051111D01*
X80981401Y-145331034D01*
X81119294Y-145589014D01*
X81304866Y-145815134D01*
X81530986Y-146000706D01*
X81585791Y-146030000D01*
X81530986Y-146059294D01*
X81304866Y-146244866D01*
X81119294Y-146470986D01*
X80981401Y-146728966D01*
X80896487Y-147008889D01*
X80867815Y-147300000D01*
X80896487Y-147591111D01*
X80981401Y-147871034D01*
X81119294Y-148129014D01*
X81304866Y-148355134D01*
X81530986Y-148540706D01*
X81788966Y-148678599D01*
X82068889Y-148763513D01*
X82287050Y-148785000D01*
X82432950Y-148785000D01*
X82651111Y-148763513D01*
X82931034Y-148678599D01*
X83189014Y-148540706D01*
X83415134Y-148355134D01*
X83439607Y-148325313D01*
X83460498Y-148394180D01*
X83519463Y-148504494D01*
X83598815Y-148601185D01*
X83695506Y-148680537D01*
X83805820Y-148739502D01*
X83925518Y-148775812D01*
X84050000Y-148788072D01*
X85750000Y-148788072D01*
X85874482Y-148775812D01*
X85994180Y-148739502D01*
X86104494Y-148680537D01*
X86201185Y-148601185D01*
X86280537Y-148504494D01*
X86339502Y-148394180D01*
X86375812Y-148274482D01*
X86388072Y-148150000D01*
X86388072Y-146525000D01*
X117911928Y-146525000D01*
X117924188Y-146649482D01*
X117954364Y-146748959D01*
X117929232Y-146831807D01*
X117911928Y-147007500D01*
X117911928Y-147532500D01*
X117929232Y-147708193D01*
X117980480Y-147877134D01*
X117995375Y-147905000D01*
X117980480Y-147932866D01*
X117929232Y-148101807D01*
X117911928Y-148277500D01*
X117911928Y-148802500D01*
X117929232Y-148978193D01*
X117980480Y-149147134D01*
X118063702Y-149302831D01*
X118175699Y-149439301D01*
X118312169Y-149551298D01*
X118467866Y-149634520D01*
X118636807Y-149685768D01*
X118812500Y-149703072D01*
X119787500Y-149703072D01*
X119963193Y-149685768D01*
X120132134Y-149634520D01*
X120287831Y-149551298D01*
X120424301Y-149439301D01*
X120536298Y-149302831D01*
X120619520Y-149147134D01*
X120670768Y-148978193D01*
X120688072Y-148802500D01*
X120688072Y-148277500D01*
X120670768Y-148101807D01*
X120619520Y-147932866D01*
X120604625Y-147905000D01*
X120619520Y-147877134D01*
X120670768Y-147708193D01*
X120688072Y-147532500D01*
X120688072Y-147007500D01*
X120670768Y-146831807D01*
X120645636Y-146748959D01*
X120675812Y-146649482D01*
X120688072Y-146525000D01*
X120685000Y-146285750D01*
X120526250Y-146127000D01*
X119972318Y-146127000D01*
X119963193Y-146124232D01*
X119787500Y-146106928D01*
X118812500Y-146106928D01*
X118636807Y-146124232D01*
X118627682Y-146127000D01*
X118073750Y-146127000D01*
X117915000Y-146285750D01*
X117911928Y-146525000D01*
X86388072Y-146525000D01*
X86388072Y-146450000D01*
X86375812Y-146325518D01*
X86339502Y-146205820D01*
X86280537Y-146095506D01*
X86201185Y-145998815D01*
X86104494Y-145919463D01*
X85994180Y-145860498D01*
X85925313Y-145839607D01*
X85955134Y-145815134D01*
X86140706Y-145589014D01*
X86278599Y-145331034D01*
X86363513Y-145051111D01*
X86392185Y-144760000D01*
X86363513Y-144468889D01*
X86278599Y-144188966D01*
X86140706Y-143930986D01*
X85955134Y-143704866D01*
X85729014Y-143519294D01*
X85674209Y-143490000D01*
X85729014Y-143460706D01*
X85955134Y-143275134D01*
X86140706Y-143049014D01*
X86278599Y-142791034D01*
X86363513Y-142511111D01*
X86392185Y-142220000D01*
X86363513Y-141928889D01*
X86278599Y-141648966D01*
X86140706Y-141390986D01*
X85955134Y-141164866D01*
X85729014Y-140979294D01*
X85471034Y-140841401D01*
X85285105Y-140785000D01*
X91951289Y-140785000D01*
X91896063Y-140840226D01*
X91782795Y-141009744D01*
X91704774Y-141198102D01*
X91665000Y-141398061D01*
X91665000Y-141601939D01*
X91704774Y-141801898D01*
X91782795Y-141990256D01*
X91896063Y-142159774D01*
X91940000Y-142203711D01*
X91940001Y-144696288D01*
X91896063Y-144740226D01*
X91782795Y-144909744D01*
X91704774Y-145098102D01*
X91665000Y-145298061D01*
X91665000Y-145501939D01*
X91704774Y-145701898D01*
X91782795Y-145890256D01*
X91896063Y-146059774D01*
X92040226Y-146203937D01*
X92209744Y-146317205D01*
X92398102Y-146395226D01*
X92598061Y-146435000D01*
X92801939Y-146435000D01*
X93001898Y-146395226D01*
X93190256Y-146317205D01*
X93359774Y-146203937D01*
X93503937Y-146059774D01*
X93617205Y-145890256D01*
X93695226Y-145701898D01*
X93735000Y-145501939D01*
X93735000Y-145298061D01*
X93695226Y-145098102D01*
X93617205Y-144909744D01*
X93542582Y-144798061D01*
X99165000Y-144798061D01*
X99165000Y-145001939D01*
X99204774Y-145201898D01*
X99282795Y-145390256D01*
X99396063Y-145559774D01*
X99540226Y-145703937D01*
X99709744Y-145817205D01*
X99898102Y-145895226D01*
X100098061Y-145935000D01*
X100301939Y-145935000D01*
X100501898Y-145895226D01*
X100690256Y-145817205D01*
X100738454Y-145785000D01*
X102061546Y-145785000D01*
X102109744Y-145817205D01*
X102298102Y-145895226D01*
X102498061Y-145935000D01*
X102701939Y-145935000D01*
X102901898Y-145895226D01*
X103090256Y-145817205D01*
X103259774Y-145703937D01*
X103403937Y-145559774D01*
X103460581Y-145475000D01*
X117911928Y-145475000D01*
X117915000Y-145714250D01*
X118073750Y-145873000D01*
X119173000Y-145873000D01*
X119173000Y-144998750D01*
X119427000Y-144998750D01*
X119427000Y-145873000D01*
X120526250Y-145873000D01*
X120685000Y-145714250D01*
X120688072Y-145475000D01*
X120675812Y-145350518D01*
X120639502Y-145230820D01*
X120580537Y-145120506D01*
X120501185Y-145023815D01*
X120404494Y-144944463D01*
X120294180Y-144885498D01*
X120174482Y-144849188D01*
X120050000Y-144836928D01*
X119585750Y-144840000D01*
X119427000Y-144998750D01*
X119173000Y-144998750D01*
X119014250Y-144840000D01*
X118550000Y-144836928D01*
X118425518Y-144849188D01*
X118305820Y-144885498D01*
X118195506Y-144944463D01*
X118098815Y-145023815D01*
X118019463Y-145120506D01*
X117960498Y-145230820D01*
X117924188Y-145350518D01*
X117911928Y-145475000D01*
X103460581Y-145475000D01*
X103517205Y-145390256D01*
X103595226Y-145201898D01*
X103635000Y-145001939D01*
X103635000Y-144798061D01*
X103595226Y-144598102D01*
X103517205Y-144409744D01*
X103403937Y-144240226D01*
X103259774Y-144096063D01*
X103090256Y-143982795D01*
X102901898Y-143904774D01*
X102701939Y-143865000D01*
X102498061Y-143865000D01*
X102298102Y-143904774D01*
X102109744Y-143982795D01*
X102061546Y-144015000D01*
X100738454Y-144015000D01*
X100690256Y-143982795D01*
X100501898Y-143904774D01*
X100301939Y-143865000D01*
X100098061Y-143865000D01*
X99898102Y-143904774D01*
X99709744Y-143982795D01*
X99540226Y-144096063D01*
X99396063Y-144240226D01*
X99282795Y-144409744D01*
X99204774Y-144598102D01*
X99165000Y-144798061D01*
X93542582Y-144798061D01*
X93503937Y-144740226D01*
X93460000Y-144696289D01*
X93460000Y-142203711D01*
X93503937Y-142159774D01*
X93617205Y-141990256D01*
X93695226Y-141801898D01*
X93735000Y-141601939D01*
X93735000Y-141398061D01*
X93695226Y-141198102D01*
X93617205Y-141009744D01*
X93503937Y-140840226D01*
X93448711Y-140785000D01*
X94256531Y-140785000D01*
X94300000Y-140789281D01*
X94343469Y-140785000D01*
X94343477Y-140785000D01*
X94473490Y-140772195D01*
X94640313Y-140721589D01*
X94794059Y-140639411D01*
X94928817Y-140528817D01*
X94956534Y-140495044D01*
X96295049Y-139156530D01*
X96328817Y-139128817D01*
X96370185Y-139078411D01*
X96439410Y-138994060D01*
X96439411Y-138994059D01*
X96521589Y-138840313D01*
X96558934Y-138717205D01*
X96572195Y-138673491D01*
X96575986Y-138635000D01*
X96585000Y-138543477D01*
X96585000Y-138543469D01*
X96589281Y-138500000D01*
X96585000Y-138456531D01*
X96585000Y-135338454D01*
X96617205Y-135290256D01*
X96695226Y-135101898D01*
X96735000Y-134901939D01*
X96735000Y-134698061D01*
X96695226Y-134498102D01*
X96679444Y-134460000D01*
X98062678Y-134460000D01*
X98100000Y-134463676D01*
X98137322Y-134460000D01*
X98137333Y-134460000D01*
X98248986Y-134449003D01*
X98392247Y-134405546D01*
X98524276Y-134334974D01*
X98640001Y-134240001D01*
X98663804Y-134210997D01*
X98715001Y-134159800D01*
X98715000Y-135661545D01*
X98682795Y-135709744D01*
X98604774Y-135898102D01*
X98565000Y-136098061D01*
X98565000Y-136301939D01*
X98604774Y-136501898D01*
X98682795Y-136690256D01*
X98796063Y-136859774D01*
X98940226Y-137003937D01*
X99109744Y-137117205D01*
X99298102Y-137195226D01*
X99498061Y-137235000D01*
X99701939Y-137235000D01*
X99901898Y-137195226D01*
X100090256Y-137117205D01*
X100259774Y-137003937D01*
X100403937Y-136859774D01*
X100517205Y-136690256D01*
X100595226Y-136501898D01*
X100635000Y-136301939D01*
X100635000Y-136098061D01*
X100595226Y-135898102D01*
X100517205Y-135709744D01*
X100485000Y-135661546D01*
X100485000Y-133966578D01*
X107666579Y-126785000D01*
X107959844Y-126785000D01*
X107952495Y-126793955D01*
X107898102Y-126804774D01*
X107709744Y-126882795D01*
X107540226Y-126996063D01*
X107396063Y-127140226D01*
X107282795Y-127309744D01*
X107204774Y-127498102D01*
X107165000Y-127698061D01*
X107165000Y-127901939D01*
X107204774Y-128101898D01*
X107282795Y-128290256D01*
X107396063Y-128459774D01*
X107540226Y-128603937D01*
X107709744Y-128717205D01*
X107865000Y-128781515D01*
X107865000Y-128801939D01*
X107904774Y-129001898D01*
X107975080Y-129171630D01*
X107882795Y-129309744D01*
X107804774Y-129498102D01*
X107765000Y-129698061D01*
X107765000Y-129812692D01*
X107640226Y-129896063D01*
X107496063Y-130040226D01*
X107382795Y-130209744D01*
X107359907Y-130265000D01*
X107198061Y-130265000D01*
X106998102Y-130304774D01*
X106809744Y-130382795D01*
X106640226Y-130496063D01*
X106496063Y-130640226D01*
X106382795Y-130809744D01*
X106304774Y-130998102D01*
X106291467Y-131065000D01*
X106198061Y-131065000D01*
X105998102Y-131104774D01*
X105809744Y-131182795D01*
X105640226Y-131296063D01*
X105496063Y-131440226D01*
X105382795Y-131609744D01*
X105304774Y-131798102D01*
X105265000Y-131998061D01*
X105265000Y-132201939D01*
X105304774Y-132401898D01*
X105382795Y-132590256D01*
X105496063Y-132759774D01*
X105640226Y-132903937D01*
X105809744Y-133017205D01*
X105998102Y-133095226D01*
X106054957Y-133106535D01*
X107663421Y-134715000D01*
X105138454Y-134715000D01*
X105090256Y-134682795D01*
X104901898Y-134604774D01*
X104701939Y-134565000D01*
X104498061Y-134565000D01*
X104298102Y-134604774D01*
X104109744Y-134682795D01*
X103940226Y-134796063D01*
X103796063Y-134940226D01*
X103682795Y-135109744D01*
X103604774Y-135298102D01*
X103565000Y-135498061D01*
X103565000Y-135701939D01*
X103604774Y-135901898D01*
X103682795Y-136090256D01*
X103796063Y-136259774D01*
X103836289Y-136300000D01*
X103796063Y-136340226D01*
X103682795Y-136509744D01*
X103604774Y-136698102D01*
X103565000Y-136898061D01*
X103565000Y-137101939D01*
X103604774Y-137301898D01*
X103682795Y-137490256D01*
X103796063Y-137659774D01*
X103940226Y-137803937D01*
X104109744Y-137917205D01*
X104298102Y-137995226D01*
X104498061Y-138035000D01*
X104560198Y-138035000D01*
X104736205Y-138211008D01*
X104759999Y-138240001D01*
X104788992Y-138263795D01*
X104788996Y-138263799D01*
X104856759Y-138319410D01*
X104875724Y-138334974D01*
X105007753Y-138405546D01*
X105151014Y-138449003D01*
X105262667Y-138460000D01*
X105262676Y-138460000D01*
X105299999Y-138463676D01*
X105337322Y-138460000D01*
X109896289Y-138460000D01*
X109940226Y-138503937D01*
X110109744Y-138617205D01*
X110298102Y-138695226D01*
X110498061Y-138735000D01*
X110701939Y-138735000D01*
X110901898Y-138695226D01*
X111090256Y-138617205D01*
X111259774Y-138503937D01*
X111403937Y-138359774D01*
X111517205Y-138190256D01*
X111595226Y-138001898D01*
X111606535Y-137945043D01*
X111656531Y-137895047D01*
X112166579Y-137385000D01*
X117680618Y-137385000D01*
X117682795Y-137390256D01*
X117796063Y-137559774D01*
X117940226Y-137703937D01*
X118109744Y-137817205D01*
X118298102Y-137895226D01*
X118498061Y-137935000D01*
X118701939Y-137935000D01*
X118901898Y-137895226D01*
X119090256Y-137817205D01*
X119259774Y-137703937D01*
X119403937Y-137559774D01*
X119517205Y-137390256D01*
X119595226Y-137201898D01*
X119620958Y-137072536D01*
X123515000Y-140966579D01*
X123515000Y-141406531D01*
X123510719Y-141450000D01*
X123515000Y-141493469D01*
X123515000Y-141493477D01*
X123520075Y-141545000D01*
X123527805Y-141623490D01*
X123578412Y-141790313D01*
X123660590Y-141944059D01*
X123743468Y-142045046D01*
X123743471Y-142045049D01*
X123771184Y-142078817D01*
X123804951Y-142106529D01*
X124893470Y-143195049D01*
X124921183Y-143228817D01*
X124954951Y-143256530D01*
X124954953Y-143256532D01*
X125055941Y-143339411D01*
X125209686Y-143421589D01*
X125303344Y-143450000D01*
X125376510Y-143472195D01*
X125414482Y-143475935D01*
X125424188Y-143574482D01*
X125460498Y-143694180D01*
X125519463Y-143804494D01*
X125598815Y-143901185D01*
X125695506Y-143980537D01*
X125805820Y-144039502D01*
X125925518Y-144075812D01*
X126050000Y-144088072D01*
X127750000Y-144088072D01*
X127874482Y-144075812D01*
X127994180Y-144039502D01*
X128104494Y-143980537D01*
X128201185Y-143901185D01*
X128280537Y-143804494D01*
X128339502Y-143694180D01*
X128375812Y-143574482D01*
X128388072Y-143450000D01*
X128388072Y-141750000D01*
X128375812Y-141625518D01*
X128339502Y-141505820D01*
X128280537Y-141395506D01*
X128201185Y-141298815D01*
X128104494Y-141219463D01*
X127994180Y-141160498D01*
X127925313Y-141139607D01*
X127955134Y-141115134D01*
X128140706Y-140889014D01*
X128278599Y-140631034D01*
X128363513Y-140351111D01*
X128392185Y-140060000D01*
X128363513Y-139768889D01*
X128278599Y-139488966D01*
X128140706Y-139230986D01*
X127955134Y-139004866D01*
X127729014Y-138819294D01*
X127674209Y-138790000D01*
X127729014Y-138760706D01*
X127955134Y-138575134D01*
X128140706Y-138349014D01*
X128278599Y-138091034D01*
X128363513Y-137811111D01*
X128392185Y-137520000D01*
X128363513Y-137228889D01*
X128278599Y-136948966D01*
X128140706Y-136690986D01*
X127955134Y-136464866D01*
X127729014Y-136279294D01*
X127674209Y-136250000D01*
X127729014Y-136220706D01*
X127955134Y-136035134D01*
X128140706Y-135809014D01*
X128278599Y-135551034D01*
X128363513Y-135271111D01*
X128392185Y-134980000D01*
X128363513Y-134688889D01*
X128278599Y-134408966D01*
X128140706Y-134150986D01*
X127955134Y-133924866D01*
X127729014Y-133739294D01*
X127674209Y-133710000D01*
X127729014Y-133680706D01*
X127955134Y-133495134D01*
X128140706Y-133269014D01*
X128278599Y-133011034D01*
X128363513Y-132731111D01*
X128392185Y-132440000D01*
X128363513Y-132148889D01*
X128278599Y-131868966D01*
X128140706Y-131610986D01*
X127955134Y-131384866D01*
X127729014Y-131199294D01*
X127674209Y-131170000D01*
X127729014Y-131140706D01*
X127955134Y-130955134D01*
X128140706Y-130729014D01*
X128278599Y-130471034D01*
X128363513Y-130191111D01*
X128392185Y-129900000D01*
X128363513Y-129608889D01*
X128278599Y-129328966D01*
X128140706Y-129070986D01*
X127955134Y-128844866D01*
X127729014Y-128659294D01*
X127674209Y-128630000D01*
X127729014Y-128600706D01*
X127955134Y-128415134D01*
X128140706Y-128189014D01*
X128278599Y-127931034D01*
X128363513Y-127651111D01*
X128392185Y-127360000D01*
X128363513Y-127068889D01*
X128278599Y-126788966D01*
X128140706Y-126530986D01*
X127955134Y-126304866D01*
X127729014Y-126119294D01*
X127471034Y-125981401D01*
X127191111Y-125896487D01*
X126972950Y-125875000D01*
X126827050Y-125875000D01*
X126608889Y-125896487D01*
X126328966Y-125981401D01*
X126070986Y-126119294D01*
X125844866Y-126304866D01*
X125705241Y-126475000D01*
X123083469Y-126475000D01*
X123040000Y-126470719D01*
X122996531Y-126475000D01*
X122996523Y-126475000D01*
X122881306Y-126486348D01*
X122866509Y-126487805D01*
X122826372Y-126499981D01*
X122699687Y-126538411D01*
X122545941Y-126620589D01*
X122526768Y-126636324D01*
X122444953Y-126703468D01*
X122444951Y-126703470D01*
X122411183Y-126731183D01*
X122383470Y-126764951D01*
X118633482Y-130514940D01*
X117212523Y-130514940D01*
X117235000Y-130401939D01*
X117235000Y-130198061D01*
X117195226Y-129998102D01*
X117117205Y-129809744D01*
X117003937Y-129640226D01*
X116859774Y-129496063D01*
X116690256Y-129382795D01*
X116501898Y-129304774D01*
X116301939Y-129265000D01*
X116098061Y-129265000D01*
X115898102Y-129304774D01*
X115709744Y-129382795D01*
X115624130Y-129440000D01*
X115380487Y-129440000D01*
X111729489Y-125789003D01*
X111705686Y-125759999D01*
X111589961Y-125665026D01*
X111457932Y-125594454D01*
X111314724Y-125551013D01*
X111259774Y-125496063D01*
X111090256Y-125382795D01*
X110901898Y-125304774D01*
X110701939Y-125265000D01*
X110498061Y-125265000D01*
X110298102Y-125304774D01*
X110109744Y-125382795D01*
X109940226Y-125496063D01*
X109796063Y-125640226D01*
X109682795Y-125809744D01*
X109604774Y-125998102D01*
X109565000Y-126198061D01*
X109565000Y-126401939D01*
X109587489Y-126515000D01*
X108898158Y-126515000D01*
X108914536Y-126495044D01*
X109545051Y-125864530D01*
X109578818Y-125836818D01*
X109607477Y-125801898D01*
X109683705Y-125709014D01*
X109689412Y-125702060D01*
X109771590Y-125548314D01*
X109822196Y-125381491D01*
X109835001Y-125251478D01*
X109835001Y-125251468D01*
X109839282Y-125208002D01*
X109835001Y-125164536D01*
X109835001Y-116100000D01*
X114361928Y-116100000D01*
X114361928Y-120500000D01*
X114374188Y-120624482D01*
X114410498Y-120744180D01*
X114469463Y-120854494D01*
X114548815Y-120951185D01*
X114645506Y-121030537D01*
X114755820Y-121089502D01*
X114875518Y-121125812D01*
X115000000Y-121138072D01*
X116800000Y-121138072D01*
X116924482Y-121125812D01*
X117044180Y-121089502D01*
X117154494Y-121030537D01*
X117251185Y-120951185D01*
X117330537Y-120854494D01*
X117389502Y-120744180D01*
X117425812Y-120624482D01*
X117438072Y-120500000D01*
X117438072Y-118427000D01*
X120165000Y-118427000D01*
X120165000Y-119527000D01*
X120219271Y-119824023D01*
X120330446Y-120104751D01*
X120494252Y-120358396D01*
X120704394Y-120575210D01*
X120952796Y-120746862D01*
X121229913Y-120866755D01*
X121335260Y-120891036D01*
X121573000Y-120770378D01*
X121573000Y-118427000D01*
X121827000Y-118427000D01*
X121827000Y-120770378D01*
X122064740Y-120891036D01*
X122170087Y-120866755D01*
X122447204Y-120746862D01*
X122695606Y-120575210D01*
X122905748Y-120358396D01*
X123069554Y-120104751D01*
X123180729Y-119824023D01*
X123235000Y-119527000D01*
X123235000Y-118427000D01*
X121827000Y-118427000D01*
X121573000Y-118427000D01*
X120165000Y-118427000D01*
X117438072Y-118427000D01*
X117438072Y-117073000D01*
X120165000Y-117073000D01*
X120165000Y-118173000D01*
X121573000Y-118173000D01*
X121573000Y-115829622D01*
X121827000Y-115829622D01*
X121827000Y-118173000D01*
X123235000Y-118173000D01*
X123235000Y-117073000D01*
X123180729Y-116775977D01*
X123069554Y-116495249D01*
X122905748Y-116241604D01*
X122695606Y-116024790D01*
X122447204Y-115853138D01*
X122170087Y-115733245D01*
X122064740Y-115708964D01*
X121827000Y-115829622D01*
X121573000Y-115829622D01*
X121335260Y-115708964D01*
X121229913Y-115733245D01*
X120952796Y-115853138D01*
X120704394Y-116024790D01*
X120494252Y-116241604D01*
X120330446Y-116495249D01*
X120219271Y-116775977D01*
X120165000Y-117073000D01*
X117438072Y-117073000D01*
X117438072Y-116100000D01*
X117425812Y-115975518D01*
X117389502Y-115855820D01*
X117330537Y-115745506D01*
X117251185Y-115648815D01*
X117154494Y-115569463D01*
X117044180Y-115510498D01*
X116924482Y-115474188D01*
X116800000Y-115461928D01*
X115000000Y-115461928D01*
X114875518Y-115474188D01*
X114755820Y-115510498D01*
X114645506Y-115569463D01*
X114548815Y-115648815D01*
X114469463Y-115745506D01*
X114410498Y-115855820D01*
X114374188Y-115975518D01*
X114361928Y-116100000D01*
X109835001Y-116100000D01*
X109835001Y-113500000D01*
X116257573Y-113500000D01*
X116287210Y-113800913D01*
X116374983Y-114090261D01*
X116517519Y-114356927D01*
X116709339Y-114590661D01*
X116943073Y-114782481D01*
X117209739Y-114925017D01*
X117499087Y-115012790D01*
X117724592Y-115035000D01*
X120075408Y-115035000D01*
X120300913Y-115012790D01*
X120590261Y-114925017D01*
X120856927Y-114782481D01*
X121090661Y-114590661D01*
X121282481Y-114356927D01*
X121425017Y-114090261D01*
X121512790Y-113800913D01*
X121542427Y-113500000D01*
X121512790Y-113199087D01*
X121425017Y-112909739D01*
X121282481Y-112643073D01*
X121090661Y-112409339D01*
X120856927Y-112217519D01*
X120590261Y-112074983D01*
X120300913Y-111987210D01*
X120075408Y-111965000D01*
X117724592Y-111965000D01*
X117499087Y-111987210D01*
X117209739Y-112074983D01*
X116943073Y-112217519D01*
X116709339Y-112409339D01*
X116517519Y-112643073D01*
X116374983Y-112909739D01*
X116287210Y-113199087D01*
X116257573Y-113500000D01*
X109835001Y-113500000D01*
X109835001Y-105200000D01*
X114561928Y-105200000D01*
X114561928Y-107200000D01*
X114574188Y-107324482D01*
X114610498Y-107444180D01*
X114669463Y-107554494D01*
X114748815Y-107651185D01*
X114845506Y-107730537D01*
X114955820Y-107789502D01*
X115075518Y-107825812D01*
X115200000Y-107838072D01*
X117200000Y-107838072D01*
X117324482Y-107825812D01*
X117444180Y-107789502D01*
X117554494Y-107730537D01*
X117651185Y-107651185D01*
X117730537Y-107554494D01*
X117789502Y-107444180D01*
X117825812Y-107324482D01*
X117838072Y-107200000D01*
X117838072Y-106200000D01*
X119637089Y-106200000D01*
X119668657Y-106520516D01*
X119762148Y-106828715D01*
X119913969Y-107112752D01*
X120118286Y-107361714D01*
X120367248Y-107566031D01*
X120651285Y-107717852D01*
X120959484Y-107811343D01*
X121199678Y-107835000D01*
X121360322Y-107835000D01*
X121600516Y-107811343D01*
X121908715Y-107717852D01*
X122192752Y-107566031D01*
X122441714Y-107361714D01*
X122646031Y-107112752D01*
X122797852Y-106828715D01*
X122891343Y-106520516D01*
X122922911Y-106200000D01*
X122891343Y-105879484D01*
X122797852Y-105571285D01*
X122646031Y-105287248D01*
X122441714Y-105038286D01*
X122192752Y-104833969D01*
X121908715Y-104682148D01*
X121600516Y-104588657D01*
X121360322Y-104565000D01*
X121199678Y-104565000D01*
X120959484Y-104588657D01*
X120651285Y-104682148D01*
X120367248Y-104833969D01*
X120118286Y-105038286D01*
X119913969Y-105287248D01*
X119762148Y-105571285D01*
X119668657Y-105879484D01*
X119637089Y-106200000D01*
X117838072Y-106200000D01*
X117838072Y-105200000D01*
X117825812Y-105075518D01*
X117789502Y-104955820D01*
X117730537Y-104845506D01*
X117651185Y-104748815D01*
X117554494Y-104669463D01*
X117444180Y-104610498D01*
X117324482Y-104574188D01*
X117200000Y-104561928D01*
X115200000Y-104561928D01*
X115075518Y-104574188D01*
X114955820Y-104610498D01*
X114845506Y-104669463D01*
X114748815Y-104748815D01*
X114669463Y-104845506D01*
X114610498Y-104955820D01*
X114574188Y-105075518D01*
X114561928Y-105200000D01*
X109835001Y-105200000D01*
X109835001Y-103988455D01*
X109867206Y-103940257D01*
X109945227Y-103751899D01*
X109985001Y-103551940D01*
X109985001Y-103348062D01*
X109945227Y-103148103D01*
X109867206Y-102959745D01*
X109753938Y-102790227D01*
X109609775Y-102646064D01*
X109440257Y-102532796D01*
X109251899Y-102454775D01*
X109051940Y-102415001D01*
X108848062Y-102415001D01*
X108648103Y-102454775D01*
X108459745Y-102532796D01*
X108290227Y-102646064D01*
X108146064Y-102790227D01*
X108032796Y-102959745D01*
X107954775Y-103148103D01*
X107915001Y-103348062D01*
X107915001Y-103551940D01*
X107954775Y-103751899D01*
X108032796Y-103940257D01*
X108065002Y-103988457D01*
X108065001Y-123765000D01*
X107998061Y-123765000D01*
X107798102Y-123804774D01*
X107609744Y-123882795D01*
X107561546Y-123915000D01*
X107009154Y-123915000D01*
X106965685Y-123910719D01*
X106922216Y-123915000D01*
X106922208Y-123915000D01*
X106792195Y-123927805D01*
X106625371Y-123978411D01*
X106471626Y-124060589D01*
X106370638Y-124143468D01*
X106370636Y-124143470D01*
X106336868Y-124171183D01*
X106309155Y-124204951D01*
X105584999Y-124929108D01*
X105584999Y-121243464D01*
X105589280Y-121199998D01*
X105584999Y-121156532D01*
X105584999Y-121156522D01*
X105572194Y-121026509D01*
X105521588Y-120859686D01*
X105439410Y-120705940D01*
X105372559Y-120624482D01*
X105356531Y-120604952D01*
X105356529Y-120604950D01*
X105328816Y-120571182D01*
X105295047Y-120543468D01*
X104556534Y-119804956D01*
X104528817Y-119771183D01*
X104394059Y-119660589D01*
X104327906Y-119625230D01*
X104359774Y-119603937D01*
X104403711Y-119560000D01*
X105496289Y-119560000D01*
X105540226Y-119603937D01*
X105709744Y-119717205D01*
X105898102Y-119795226D01*
X106098061Y-119835000D01*
X106301939Y-119835000D01*
X106501898Y-119795226D01*
X106690256Y-119717205D01*
X106859774Y-119603937D01*
X107003937Y-119459774D01*
X107117205Y-119290256D01*
X107195226Y-119101898D01*
X107235000Y-118901939D01*
X107235000Y-118698061D01*
X107195226Y-118498102D01*
X107117205Y-118309744D01*
X107003937Y-118140226D01*
X106859774Y-117996063D01*
X106690256Y-117882795D01*
X106501898Y-117804774D01*
X106301939Y-117765000D01*
X106098061Y-117765000D01*
X105898102Y-117804774D01*
X105709744Y-117882795D01*
X105540226Y-117996063D01*
X105496289Y-118040000D01*
X104403711Y-118040000D01*
X104359774Y-117996063D01*
X104190256Y-117882795D01*
X104001898Y-117804774D01*
X103801939Y-117765000D01*
X103598061Y-117765000D01*
X103398102Y-117804774D01*
X103209744Y-117882795D01*
X103040226Y-117996063D01*
X102896063Y-118140226D01*
X102782795Y-118309744D01*
X102704774Y-118498102D01*
X102665000Y-118698061D01*
X102665000Y-118901939D01*
X102704774Y-119101898D01*
X102782795Y-119290256D01*
X102896063Y-119459774D01*
X102951289Y-119515000D01*
X102212511Y-119515000D01*
X102235000Y-119401939D01*
X102235000Y-119198061D01*
X102195226Y-118998102D01*
X102117205Y-118809744D01*
X102077285Y-118750000D01*
X102117205Y-118690256D01*
X102195226Y-118501898D01*
X102235000Y-118301939D01*
X102235000Y-118098061D01*
X102195226Y-117898102D01*
X102117205Y-117709744D01*
X102077285Y-117650000D01*
X102117205Y-117590256D01*
X102195226Y-117401898D01*
X102235000Y-117201939D01*
X102235000Y-116998061D01*
X102195226Y-116798102D01*
X102117205Y-116609744D01*
X102003937Y-116440226D01*
X101859774Y-116296063D01*
X101690256Y-116182795D01*
X101501898Y-116104774D01*
X101301939Y-116065000D01*
X101098061Y-116065000D01*
X100898102Y-116104774D01*
X100709744Y-116182795D01*
X100661546Y-116215000D01*
X95266579Y-116215000D01*
X88885000Y-109833422D01*
X88885000Y-105200000D01*
X97181928Y-105200000D01*
X97181928Y-107200000D01*
X97194188Y-107324482D01*
X97230498Y-107444180D01*
X97289463Y-107554494D01*
X97368815Y-107651185D01*
X97465506Y-107730537D01*
X97575820Y-107789502D01*
X97695518Y-107825812D01*
X97820000Y-107838072D01*
X99820000Y-107838072D01*
X99944482Y-107825812D01*
X100064180Y-107789502D01*
X100174494Y-107730537D01*
X100271185Y-107651185D01*
X100350537Y-107554494D01*
X100409502Y-107444180D01*
X100445812Y-107324482D01*
X100458072Y-107200000D01*
X100458072Y-106200000D01*
X102257089Y-106200000D01*
X102288657Y-106520516D01*
X102382148Y-106828715D01*
X102533969Y-107112752D01*
X102738286Y-107361714D01*
X102987248Y-107566031D01*
X103271285Y-107717852D01*
X103579484Y-107811343D01*
X103819678Y-107835000D01*
X103980322Y-107835000D01*
X104220516Y-107811343D01*
X104528715Y-107717852D01*
X104812752Y-107566031D01*
X105061714Y-107361714D01*
X105266031Y-107112752D01*
X105417852Y-106828715D01*
X105511343Y-106520516D01*
X105542911Y-106200000D01*
X105511343Y-105879484D01*
X105417852Y-105571285D01*
X105266031Y-105287248D01*
X105061714Y-105038286D01*
X104812752Y-104833969D01*
X104528715Y-104682148D01*
X104220516Y-104588657D01*
X103980322Y-104565000D01*
X103819678Y-104565000D01*
X103579484Y-104588657D01*
X103271285Y-104682148D01*
X102987248Y-104833969D01*
X102738286Y-105038286D01*
X102533969Y-105287248D01*
X102382148Y-105571285D01*
X102288657Y-105879484D01*
X102257089Y-106200000D01*
X100458072Y-106200000D01*
X100458072Y-105200000D01*
X100445812Y-105075518D01*
X100409502Y-104955820D01*
X100350537Y-104845506D01*
X100271185Y-104748815D01*
X100174494Y-104669463D01*
X100085000Y-104621627D01*
X100085000Y-98873685D01*
X100968964Y-97989721D01*
X112565000Y-97989721D01*
X112565000Y-98410279D01*
X112647047Y-98822756D01*
X112807988Y-99211302D01*
X113041637Y-99560983D01*
X113339017Y-99858363D01*
X113688698Y-100092012D01*
X114077244Y-100252953D01*
X114489721Y-100335000D01*
X114910279Y-100335000D01*
X115322756Y-100252953D01*
X115711302Y-100092012D01*
X116060983Y-99858363D01*
X116358363Y-99560983D01*
X116592012Y-99211302D01*
X116752953Y-98822756D01*
X116835000Y-98410279D01*
X116835000Y-97989721D01*
X117165000Y-97989721D01*
X117165000Y-98410279D01*
X117247047Y-98822756D01*
X117407988Y-99211302D01*
X117641637Y-99560983D01*
X117939017Y-99858363D01*
X118288698Y-100092012D01*
X118677244Y-100252953D01*
X119089721Y-100335000D01*
X119510279Y-100335000D01*
X119922756Y-100252953D01*
X120311302Y-100092012D01*
X120660983Y-99858363D01*
X120958363Y-99560983D01*
X121192012Y-99211302D01*
X121352953Y-98822756D01*
X121435000Y-98410279D01*
X121435000Y-97989721D01*
X121765000Y-97989721D01*
X121765000Y-98410279D01*
X121847047Y-98822756D01*
X122007988Y-99211302D01*
X122241637Y-99560983D01*
X122539017Y-99858363D01*
X122888698Y-100092012D01*
X123277244Y-100252953D01*
X123689721Y-100335000D01*
X124110279Y-100335000D01*
X124522756Y-100252953D01*
X124911302Y-100092012D01*
X125260983Y-99858363D01*
X125558363Y-99560983D01*
X125792012Y-99211302D01*
X125952953Y-98822756D01*
X126035000Y-98410279D01*
X126035000Y-97989721D01*
X125952953Y-97577244D01*
X125792012Y-97188698D01*
X125558363Y-96839017D01*
X125260983Y-96541637D01*
X124911302Y-96307988D01*
X124522756Y-96147047D01*
X124110279Y-96065000D01*
X123689721Y-96065000D01*
X123277244Y-96147047D01*
X122888698Y-96307988D01*
X122539017Y-96541637D01*
X122241637Y-96839017D01*
X122007988Y-97188698D01*
X121847047Y-97577244D01*
X121765000Y-97989721D01*
X121435000Y-97989721D01*
X121352953Y-97577244D01*
X121192012Y-97188698D01*
X120958363Y-96839017D01*
X120660983Y-96541637D01*
X120311302Y-96307988D01*
X119922756Y-96147047D01*
X119510279Y-96065000D01*
X119089721Y-96065000D01*
X118677244Y-96147047D01*
X118288698Y-96307988D01*
X117939017Y-96541637D01*
X117641637Y-96839017D01*
X117407988Y-97188698D01*
X117247047Y-97577244D01*
X117165000Y-97989721D01*
X116835000Y-97989721D01*
X116752953Y-97577244D01*
X116592012Y-97188698D01*
X116358363Y-96839017D01*
X116060983Y-96541637D01*
X115711302Y-96307988D01*
X115322756Y-96147047D01*
X114910279Y-96065000D01*
X114489721Y-96065000D01*
X114077244Y-96147047D01*
X113688698Y-96307988D01*
X113339017Y-96541637D01*
X113041637Y-96839017D01*
X112807988Y-97188698D01*
X112647047Y-97577244D01*
X112565000Y-97989721D01*
X100968964Y-97989721D01*
X106668964Y-92289721D01*
X112565000Y-92289721D01*
X112565000Y-92710279D01*
X112647047Y-93122756D01*
X112807988Y-93511302D01*
X113041637Y-93860983D01*
X113339017Y-94158363D01*
X113688698Y-94392012D01*
X114077244Y-94552953D01*
X114489721Y-94635000D01*
X114910279Y-94635000D01*
X115322756Y-94552953D01*
X115711302Y-94392012D01*
X116060983Y-94158363D01*
X116358363Y-93860983D01*
X116592012Y-93511302D01*
X116752953Y-93122756D01*
X116835000Y-92710279D01*
X116835000Y-92289721D01*
X117165000Y-92289721D01*
X117165000Y-92710279D01*
X117247047Y-93122756D01*
X117407988Y-93511302D01*
X117641637Y-93860983D01*
X117939017Y-94158363D01*
X118288698Y-94392012D01*
X118677244Y-94552953D01*
X119089721Y-94635000D01*
X119510279Y-94635000D01*
X119922756Y-94552953D01*
X120311302Y-94392012D01*
X120660983Y-94158363D01*
X120958363Y-93860983D01*
X121192012Y-93511302D01*
X121352953Y-93122756D01*
X121435000Y-92710279D01*
X121435000Y-92289721D01*
X121765000Y-92289721D01*
X121765000Y-92710279D01*
X121847047Y-93122756D01*
X122007988Y-93511302D01*
X122241637Y-93860983D01*
X122539017Y-94158363D01*
X122888698Y-94392012D01*
X123277244Y-94552953D01*
X123689721Y-94635000D01*
X124110279Y-94635000D01*
X124522756Y-94552953D01*
X124911302Y-94392012D01*
X125260983Y-94158363D01*
X125558363Y-93860983D01*
X125792012Y-93511302D01*
X125952953Y-93122756D01*
X126035000Y-92710279D01*
X126035000Y-92289721D01*
X125952953Y-91877244D01*
X125792012Y-91488698D01*
X125558363Y-91139017D01*
X125260983Y-90841637D01*
X124911302Y-90607988D01*
X124522756Y-90447047D01*
X124110279Y-90365000D01*
X123689721Y-90365000D01*
X123277244Y-90447047D01*
X122888698Y-90607988D01*
X122539017Y-90841637D01*
X122241637Y-91139017D01*
X122007988Y-91488698D01*
X121847047Y-91877244D01*
X121765000Y-92289721D01*
X121435000Y-92289721D01*
X121352953Y-91877244D01*
X121192012Y-91488698D01*
X120958363Y-91139017D01*
X120660983Y-90841637D01*
X120311302Y-90607988D01*
X119922756Y-90447047D01*
X119510279Y-90365000D01*
X119089721Y-90365000D01*
X118677244Y-90447047D01*
X118288698Y-90607988D01*
X117939017Y-90841637D01*
X117641637Y-91139017D01*
X117407988Y-91488698D01*
X117247047Y-91877244D01*
X117165000Y-92289721D01*
X116835000Y-92289721D01*
X116752953Y-91877244D01*
X116592012Y-91488698D01*
X116358363Y-91139017D01*
X116060983Y-90841637D01*
X115711302Y-90607988D01*
X115322756Y-90447047D01*
X114910279Y-90365000D01*
X114489721Y-90365000D01*
X114077244Y-90447047D01*
X113688698Y-90607988D01*
X113339017Y-90841637D01*
X113041637Y-91139017D01*
X112807988Y-91488698D01*
X112647047Y-91877244D01*
X112565000Y-92289721D01*
X106668964Y-92289721D01*
X113627711Y-85330975D01*
X113662327Y-85324089D01*
X113950779Y-85204609D01*
X113980126Y-85185000D01*
X121770299Y-85185000D01*
X121774188Y-85224482D01*
X121810498Y-85344180D01*
X121869463Y-85454494D01*
X121948815Y-85551185D01*
X122045506Y-85630537D01*
X122155820Y-85689502D01*
X122275518Y-85725812D01*
X122400000Y-85738072D01*
X125000000Y-85738072D01*
X125124482Y-85725812D01*
X125244180Y-85689502D01*
X125354494Y-85630537D01*
X125451185Y-85551185D01*
X125530537Y-85454494D01*
X125589502Y-85344180D01*
X125625812Y-85224482D01*
X125638072Y-85100000D01*
X125638072Y-82500000D01*
X125625812Y-82375518D01*
X125589502Y-82255820D01*
X125530537Y-82145506D01*
X125451185Y-82048815D01*
X125354494Y-81969463D01*
X125244180Y-81910498D01*
X125124482Y-81874188D01*
X125000000Y-81861928D01*
X122400000Y-81861928D01*
X122275518Y-81874188D01*
X122155820Y-81910498D01*
X122045506Y-81969463D01*
X121948815Y-82048815D01*
X121869463Y-82145506D01*
X121810498Y-82255820D01*
X121774188Y-82375518D01*
X121770299Y-82415000D01*
X113980126Y-82415000D01*
X113950779Y-82395391D01*
X113662327Y-82275911D01*
X113356109Y-82215000D01*
X113043891Y-82215000D01*
X112737673Y-82275911D01*
X112449221Y-82395391D01*
X112189621Y-82568850D01*
X111968850Y-82789621D01*
X111795391Y-83049221D01*
X111675911Y-83337673D01*
X111669025Y-83372289D01*
X97768765Y-97272550D01*
X97715919Y-97315920D01*
X97672550Y-97368765D01*
X97672548Y-97368767D01*
X97542844Y-97526812D01*
X97414236Y-97767420D01*
X97346802Y-97989721D01*
X97335040Y-98028494D01*
X97315000Y-98231964D01*
X97315000Y-98231971D01*
X97308300Y-98300000D01*
X97315000Y-98368029D01*
X97315001Y-104814388D01*
X97289463Y-104845506D01*
X97230498Y-104955820D01*
X97194188Y-105075518D01*
X97181928Y-105200000D01*
X88885000Y-105200000D01*
X88885000Y-104783469D01*
X88889281Y-104740000D01*
X88885000Y-104696531D01*
X88885000Y-104432402D01*
X88898061Y-104435000D01*
X89101939Y-104435000D01*
X89301898Y-104395226D01*
X89490256Y-104317205D01*
X89659774Y-104203937D01*
X89803937Y-104059774D01*
X89917205Y-103890256D01*
X89995226Y-103701898D01*
X90006535Y-103645043D01*
X91197870Y-102453708D01*
X91298102Y-102495226D01*
X91498061Y-102535000D01*
X91701939Y-102535000D01*
X91901898Y-102495226D01*
X92090256Y-102417205D01*
X92259774Y-102303937D01*
X92403937Y-102159774D01*
X92517205Y-101990256D01*
X92595226Y-101801898D01*
X92635000Y-101601939D01*
X92635000Y-101398061D01*
X92595226Y-101198102D01*
X92517205Y-101009744D01*
X92403937Y-100840226D01*
X92259774Y-100696063D01*
X92090256Y-100582795D01*
X91901898Y-100504774D01*
X91701939Y-100465000D01*
X91498061Y-100465000D01*
X91298102Y-100504774D01*
X91109744Y-100582795D01*
X91061546Y-100615000D01*
X90943469Y-100615000D01*
X90900000Y-100610719D01*
X90856531Y-100615000D01*
X90856523Y-100615000D01*
X90726510Y-100627805D01*
X90559687Y-100678411D01*
X90405941Y-100760589D01*
X90304953Y-100843468D01*
X90304951Y-100843470D01*
X90271183Y-100871183D01*
X90243470Y-100904951D01*
X88885000Y-102263422D01*
X88885000Y-89433468D01*
X88889281Y-89389999D01*
X88885000Y-89346530D01*
X88885000Y-89346522D01*
X88872195Y-89216509D01*
X88821589Y-89049686D01*
X88739411Y-88895940D01*
X88628817Y-88761182D01*
X88595049Y-88733469D01*
X87955582Y-88094002D01*
X87985000Y-87946108D01*
X87985000Y-87633890D01*
X87924089Y-87327672D01*
X87804609Y-87039220D01*
X87631150Y-86779620D01*
X87410379Y-86558849D01*
X87150779Y-86385390D01*
X86862327Y-86265910D01*
X86556109Y-86204999D01*
X86243891Y-86204999D01*
X85937673Y-86265910D01*
X85649221Y-86385390D01*
X85389621Y-86558849D01*
X85168850Y-86779620D01*
X85130000Y-86837763D01*
X85091150Y-86779620D01*
X84870379Y-86558849D01*
X84610779Y-86385390D01*
X84322327Y-86265910D01*
X84016109Y-86204999D01*
X83703891Y-86204999D01*
X83397673Y-86265910D01*
X83109221Y-86385390D01*
X82849621Y-86558849D01*
X82628850Y-86779620D01*
X82540613Y-86911675D01*
X82419752Y-86869852D01*
X81499605Y-87789999D01*
X82419752Y-88710146D01*
X82540613Y-88668323D01*
X82628850Y-88800378D01*
X82849621Y-89021149D01*
X83109221Y-89194608D01*
X83397673Y-89314088D01*
X83703891Y-89374999D01*
X84016109Y-89374999D01*
X84322327Y-89314088D01*
X84610779Y-89194608D01*
X84870379Y-89021149D01*
X85091150Y-88800378D01*
X85130000Y-88742235D01*
X85168850Y-88800378D01*
X85389621Y-89021149D01*
X85649221Y-89194608D01*
X85937673Y-89314088D01*
X86243891Y-89374999D01*
X86556109Y-89374999D01*
X86704003Y-89345581D01*
X87115001Y-89756579D01*
X87115000Y-102603422D01*
X85655582Y-101144003D01*
X85685000Y-100996109D01*
X85685000Y-100683891D01*
X85624089Y-100377673D01*
X85504609Y-100089221D01*
X85331150Y-99829621D01*
X85110379Y-99608850D01*
X85052236Y-99570000D01*
X85110379Y-99531150D01*
X85331150Y-99310379D01*
X85504609Y-99050779D01*
X85624089Y-98762327D01*
X85685000Y-98456109D01*
X85685000Y-98143891D01*
X85624089Y-97837673D01*
X85504609Y-97549221D01*
X85331150Y-97289621D01*
X85110379Y-97068850D01*
X84850779Y-96895391D01*
X84562327Y-96775911D01*
X84256109Y-96715000D01*
X83943891Y-96715000D01*
X83637673Y-96775911D01*
X83349221Y-96895391D01*
X83089621Y-97068850D01*
X82868850Y-97289621D01*
X82695391Y-97549221D01*
X82575911Y-97837673D01*
X82515000Y-98143891D01*
X82515000Y-98456109D01*
X82575911Y-98762327D01*
X82695391Y-99050779D01*
X82868850Y-99310379D01*
X83089621Y-99531150D01*
X83147764Y-99570000D01*
X83089621Y-99608850D01*
X82868850Y-99829621D01*
X82695391Y-100089221D01*
X82575911Y-100377673D01*
X82515000Y-100683891D01*
X82515000Y-100996109D01*
X82575911Y-101302327D01*
X82695391Y-101590779D01*
X82868850Y-101850379D01*
X83089621Y-102071150D01*
X83147764Y-102110000D01*
X83089621Y-102148850D01*
X82868850Y-102369621D01*
X82695391Y-102629221D01*
X82575911Y-102917673D01*
X82515000Y-103223891D01*
X82515000Y-103536109D01*
X82575911Y-103842327D01*
X82695391Y-104130779D01*
X82868850Y-104390379D01*
X83089621Y-104611150D01*
X83221676Y-104699387D01*
X83179853Y-104820248D01*
X84100000Y-105740395D01*
X85020147Y-104820248D01*
X84978324Y-104699387D01*
X85110379Y-104611150D01*
X85331150Y-104390379D01*
X85504609Y-104130779D01*
X85624089Y-103842327D01*
X85661694Y-103653273D01*
X87115000Y-105106579D01*
X87115000Y-107343476D01*
X87115001Y-107343486D01*
X87115000Y-110156531D01*
X87110719Y-110200000D01*
X87115000Y-110243469D01*
X87115000Y-110243476D01*
X87127805Y-110373489D01*
X87178411Y-110540312D01*
X87260589Y-110694058D01*
X87371183Y-110828817D01*
X87404956Y-110856534D01*
X94243470Y-117695049D01*
X94271183Y-117728817D01*
X94304951Y-117756530D01*
X94304953Y-117756532D01*
X94405941Y-117839411D01*
X94559686Y-117921589D01*
X94726510Y-117972195D01*
X94856523Y-117985000D01*
X94856531Y-117985000D01*
X94900000Y-117989281D01*
X94943469Y-117985000D01*
X98087489Y-117985000D01*
X98065000Y-118098061D01*
X98065000Y-118301939D01*
X98104774Y-118501898D01*
X98182795Y-118690256D01*
X98222715Y-118750000D01*
X98182795Y-118809744D01*
X98104774Y-118998102D01*
X98065000Y-119198061D01*
X98065000Y-119401939D01*
X98104774Y-119601898D01*
X98182795Y-119790256D01*
X98296063Y-119959774D01*
X98440226Y-120103937D01*
X98502724Y-120145697D01*
X97733422Y-120915000D01*
X81766579Y-120915000D01*
X80056534Y-119204956D01*
X80028817Y-119171183D01*
X79894059Y-119060589D01*
X79740313Y-118978411D01*
X79573490Y-118927805D01*
X79443477Y-118915000D01*
X79443469Y-118915000D01*
X79400000Y-118910719D01*
X79356531Y-118915000D01*
X69594759Y-118915000D01*
X69455134Y-118744866D01*
X69229014Y-118559294D01*
X68971034Y-118421401D01*
X68691111Y-118336487D01*
X68472950Y-118315000D01*
X68327050Y-118315000D01*
X68108889Y-118336487D01*
X67828966Y-118421401D01*
X67570986Y-118559294D01*
X67344866Y-118744866D01*
X67159294Y-118970986D01*
X67021401Y-119228966D01*
X66936487Y-119508889D01*
X66907815Y-119800000D01*
X65233234Y-119800000D01*
X65248895Y-107019752D01*
X83179853Y-107019752D01*
X83269579Y-107279042D01*
X83550671Y-107414935D01*
X83852873Y-107493379D01*
X84164573Y-107511359D01*
X84473791Y-107468184D01*
X84768644Y-107365513D01*
X84930421Y-107279042D01*
X85020147Y-107019752D01*
X84100000Y-106099605D01*
X83179853Y-107019752D01*
X65248895Y-107019752D01*
X65250164Y-105984573D01*
X82508641Y-105984573D01*
X82551816Y-106293791D01*
X82654487Y-106588644D01*
X82740958Y-106750421D01*
X83000248Y-106840147D01*
X83920395Y-105920000D01*
X84279605Y-105920000D01*
X85199752Y-106840147D01*
X85459042Y-106750421D01*
X85594935Y-106469329D01*
X85673379Y-106167127D01*
X85691359Y-105855427D01*
X85648184Y-105546209D01*
X85545513Y-105251356D01*
X85459042Y-105089579D01*
X85199752Y-104999853D01*
X84279605Y-105920000D01*
X83920395Y-105920000D01*
X83000248Y-104999853D01*
X82740958Y-105089579D01*
X82605065Y-105370671D01*
X82526621Y-105672873D01*
X82508641Y-105984573D01*
X65250164Y-105984573D01*
X65272654Y-87633890D01*
X77195000Y-87633890D01*
X77195000Y-87946108D01*
X77255911Y-88252326D01*
X77375391Y-88540778D01*
X77548850Y-88800378D01*
X77769621Y-89021149D01*
X78029221Y-89194608D01*
X78317673Y-89314088D01*
X78623891Y-89374999D01*
X78936109Y-89374999D01*
X79242327Y-89314088D01*
X79530779Y-89194608D01*
X79790379Y-89021149D01*
X79921777Y-88889751D01*
X80399853Y-88889751D01*
X80489579Y-89149041D01*
X80770671Y-89284934D01*
X81072873Y-89363378D01*
X81384573Y-89381358D01*
X81693791Y-89338183D01*
X81988644Y-89235512D01*
X82150421Y-89149041D01*
X82240147Y-88889751D01*
X81320000Y-87969604D01*
X80399853Y-88889751D01*
X79921777Y-88889751D01*
X80011150Y-88800378D01*
X80099387Y-88668323D01*
X80220248Y-88710146D01*
X81140395Y-87789999D01*
X80220248Y-86869852D01*
X80099387Y-86911675D01*
X80011150Y-86779620D01*
X79921777Y-86690247D01*
X80399853Y-86690247D01*
X81320000Y-87610394D01*
X82240147Y-86690247D01*
X82150421Y-86430957D01*
X81869329Y-86295064D01*
X81567127Y-86216620D01*
X81255427Y-86198640D01*
X80946209Y-86241815D01*
X80651356Y-86344486D01*
X80489579Y-86430957D01*
X80399853Y-86690247D01*
X79921777Y-86690247D01*
X79790379Y-86558849D01*
X79530779Y-86385390D01*
X79242327Y-86265910D01*
X78936109Y-86204999D01*
X78623891Y-86204999D01*
X78317673Y-86265910D01*
X78029221Y-86385390D01*
X77769621Y-86558849D01*
X77548850Y-86779620D01*
X77375391Y-87039220D01*
X77255911Y-87327672D01*
X77195000Y-87633890D01*
X65272654Y-87633890D01*
X65290044Y-73443891D01*
X100115000Y-73443891D01*
X100115000Y-73756109D01*
X100175911Y-74062327D01*
X100295391Y-74350779D01*
X100315001Y-74380127D01*
X100315000Y-83019874D01*
X100295391Y-83049221D01*
X100175911Y-83337673D01*
X100115000Y-83643891D01*
X100115000Y-83956109D01*
X100175911Y-84262327D01*
X100295391Y-84550779D01*
X100468850Y-84810379D01*
X100689621Y-85031150D01*
X100949221Y-85204609D01*
X101237673Y-85324089D01*
X101543891Y-85385000D01*
X101856109Y-85385000D01*
X102162327Y-85324089D01*
X102450779Y-85204609D01*
X102710379Y-85031150D01*
X102931150Y-84810379D01*
X103104609Y-84550779D01*
X103224089Y-84262327D01*
X103285000Y-83956109D01*
X103285000Y-83643891D01*
X103224089Y-83337673D01*
X103104609Y-83049221D01*
X103085000Y-83019874D01*
X103085000Y-78609419D01*
X121765000Y-78609419D01*
X121765000Y-78990581D01*
X121839361Y-79364419D01*
X121985225Y-79716566D01*
X122196987Y-80033491D01*
X122466509Y-80303013D01*
X122783434Y-80514775D01*
X123135581Y-80660639D01*
X123509419Y-80735000D01*
X123890581Y-80735000D01*
X124264419Y-80660639D01*
X124616566Y-80514775D01*
X124933491Y-80303013D01*
X125203013Y-80033491D01*
X125414775Y-79716566D01*
X125560639Y-79364419D01*
X125635000Y-78990581D01*
X125635000Y-78609419D01*
X125560639Y-78235581D01*
X125414775Y-77883434D01*
X125203013Y-77566509D01*
X124933491Y-77296987D01*
X124616566Y-77085225D01*
X124264419Y-76939361D01*
X123890581Y-76865000D01*
X123509419Y-76865000D01*
X123135581Y-76939361D01*
X122783434Y-77085225D01*
X122466509Y-77296987D01*
X122196987Y-77566509D01*
X121985225Y-77883434D01*
X121839361Y-78235581D01*
X121765000Y-78609419D01*
X103085000Y-78609419D01*
X103085000Y-74699752D01*
X112279853Y-74699752D01*
X112369579Y-74959042D01*
X112650671Y-75094935D01*
X112952873Y-75173379D01*
X113264573Y-75191359D01*
X113573791Y-75148184D01*
X113868644Y-75045513D01*
X114030421Y-74959042D01*
X114120147Y-74699752D01*
X113200000Y-73779605D01*
X112279853Y-74699752D01*
X103085000Y-74699752D01*
X103085000Y-74380126D01*
X103104609Y-74350779D01*
X103224089Y-74062327D01*
X103285000Y-73756109D01*
X103285000Y-73664573D01*
X111608641Y-73664573D01*
X111651816Y-73973791D01*
X111754487Y-74268644D01*
X111840958Y-74430421D01*
X112100248Y-74520147D01*
X113020395Y-73600000D01*
X113379605Y-73600000D01*
X114299752Y-74520147D01*
X114559042Y-74430421D01*
X114694935Y-74149329D01*
X114773379Y-73847127D01*
X114791359Y-73535427D01*
X114748184Y-73226209D01*
X114645513Y-72931356D01*
X114559042Y-72769579D01*
X114299752Y-72679853D01*
X113379605Y-73600000D01*
X113020395Y-73600000D01*
X112100248Y-72679853D01*
X111840958Y-72769579D01*
X111705065Y-73050671D01*
X111626621Y-73352873D01*
X111608641Y-73664573D01*
X103285000Y-73664573D01*
X103285000Y-73443891D01*
X103224089Y-73137673D01*
X103104609Y-72849221D01*
X102931150Y-72589621D01*
X102841777Y-72500248D01*
X112279853Y-72500248D01*
X113200000Y-73420395D01*
X114120147Y-72500248D01*
X114030421Y-72240958D01*
X113749329Y-72105065D01*
X113447127Y-72026621D01*
X113135427Y-72008641D01*
X112826209Y-72051816D01*
X112531356Y-72154487D01*
X112369579Y-72240958D01*
X112279853Y-72500248D01*
X102841777Y-72500248D01*
X102710379Y-72368850D01*
X102450779Y-72195391D01*
X102162327Y-72075911D01*
X101856109Y-72015000D01*
X101543891Y-72015000D01*
X101237673Y-72075911D01*
X100949221Y-72195391D01*
X100689621Y-72368850D01*
X100468850Y-72589621D01*
X100295391Y-72849221D01*
X100175911Y-73137673D01*
X100115000Y-73443891D01*
X65290044Y-73443891D01*
X65294958Y-69434418D01*
X65313974Y-69240475D01*
X65365000Y-69240475D01*
X65365000Y-69759525D01*
X65466261Y-70268601D01*
X65664893Y-70748141D01*
X65953262Y-71179715D01*
X66320285Y-71546738D01*
X66751859Y-71835107D01*
X67231399Y-72033739D01*
X67740475Y-72135000D01*
X68259525Y-72135000D01*
X68768601Y-72033739D01*
X69248141Y-71835107D01*
X69679715Y-71546738D01*
X70046738Y-71179715D01*
X70070674Y-71143891D01*
X77195000Y-71143891D01*
X77195000Y-71456109D01*
X77255911Y-71762327D01*
X77375391Y-72050779D01*
X77548850Y-72310379D01*
X77769621Y-72531150D01*
X78029221Y-72704609D01*
X78317673Y-72824089D01*
X78623891Y-72885000D01*
X78936109Y-72885000D01*
X79242327Y-72824089D01*
X79530779Y-72704609D01*
X79790379Y-72531150D01*
X80011150Y-72310379D01*
X80050000Y-72252236D01*
X80088850Y-72310379D01*
X80309621Y-72531150D01*
X80569221Y-72704609D01*
X80857673Y-72824089D01*
X81163891Y-72885000D01*
X81476109Y-72885000D01*
X81782327Y-72824089D01*
X82070779Y-72704609D01*
X82330379Y-72531150D01*
X82551150Y-72310379D01*
X82590000Y-72252236D01*
X82628850Y-72310379D01*
X82849621Y-72531150D01*
X83109221Y-72704609D01*
X83397673Y-72824089D01*
X83703891Y-72885000D01*
X84016109Y-72885000D01*
X84322327Y-72824089D01*
X84610779Y-72704609D01*
X84870379Y-72531150D01*
X85091150Y-72310379D01*
X85130000Y-72252236D01*
X85168850Y-72310379D01*
X85389621Y-72531150D01*
X85649221Y-72704609D01*
X85937673Y-72824089D01*
X86243891Y-72885000D01*
X86556109Y-72885000D01*
X86862327Y-72824089D01*
X87150779Y-72704609D01*
X87410379Y-72531150D01*
X87631150Y-72310379D01*
X87804609Y-72050779D01*
X87924089Y-71762327D01*
X87985000Y-71456109D01*
X87985000Y-71143891D01*
X87924089Y-70837673D01*
X87804609Y-70549221D01*
X87631150Y-70289621D01*
X87410379Y-70068850D01*
X87150779Y-69895391D01*
X86862327Y-69775911D01*
X86556109Y-69715000D01*
X86243891Y-69715000D01*
X85937673Y-69775911D01*
X85649221Y-69895391D01*
X85389621Y-70068850D01*
X85168850Y-70289621D01*
X85130000Y-70347764D01*
X85091150Y-70289621D01*
X84870379Y-70068850D01*
X84610779Y-69895391D01*
X84322327Y-69775911D01*
X84016109Y-69715000D01*
X83703891Y-69715000D01*
X83397673Y-69775911D01*
X83109221Y-69895391D01*
X82849621Y-70068850D01*
X82628850Y-70289621D01*
X82590000Y-70347764D01*
X82551150Y-70289621D01*
X82330379Y-70068850D01*
X82070779Y-69895391D01*
X81782327Y-69775911D01*
X81476109Y-69715000D01*
X81163891Y-69715000D01*
X80857673Y-69775911D01*
X80569221Y-69895391D01*
X80309621Y-70068850D01*
X80088850Y-70289621D01*
X80050000Y-70347764D01*
X80011150Y-70289621D01*
X79790379Y-70068850D01*
X79530779Y-69895391D01*
X79242327Y-69775911D01*
X78936109Y-69715000D01*
X78623891Y-69715000D01*
X78317673Y-69775911D01*
X78029221Y-69895391D01*
X77769621Y-70068850D01*
X77548850Y-70289621D01*
X77375391Y-70549221D01*
X77255911Y-70837673D01*
X77195000Y-71143891D01*
X70070674Y-71143891D01*
X70335107Y-70748141D01*
X70533739Y-70268601D01*
X70635000Y-69759525D01*
X70635000Y-69240475D01*
X124365000Y-69240475D01*
X124365000Y-69759525D01*
X124466261Y-70268601D01*
X124664893Y-70748141D01*
X124953262Y-71179715D01*
X125320285Y-71546738D01*
X125751859Y-71835107D01*
X126231399Y-72033739D01*
X126740475Y-72135000D01*
X127259525Y-72135000D01*
X127768601Y-72033739D01*
X128248141Y-71835107D01*
X128679715Y-71546738D01*
X129046738Y-71179715D01*
X129335107Y-70748141D01*
X129533739Y-70268601D01*
X129635000Y-69759525D01*
X129635000Y-69240475D01*
X129533739Y-68731399D01*
X129335107Y-68251859D01*
X129046738Y-67820285D01*
X128679715Y-67453262D01*
X128248141Y-67164893D01*
X127768601Y-66966261D01*
X127259525Y-66865000D01*
X126740475Y-66865000D01*
X126231399Y-66966261D01*
X125751859Y-67164893D01*
X125320285Y-67453262D01*
X124953262Y-67820285D01*
X124664893Y-68251859D01*
X124466261Y-68731399D01*
X124365000Y-69240475D01*
X70635000Y-69240475D01*
X70533739Y-68731399D01*
X70335107Y-68251859D01*
X70046738Y-67820285D01*
X69679715Y-67453262D01*
X69248141Y-67164893D01*
X68768601Y-66966261D01*
X68259525Y-66865000D01*
X67740475Y-66865000D01*
X67231399Y-66966261D01*
X66751859Y-67164893D01*
X66320285Y-67453262D01*
X65953262Y-67820285D01*
X65664893Y-68251859D01*
X65466261Y-68731399D01*
X65365000Y-69240475D01*
X65313974Y-69240475D01*
X65349785Y-68875243D01*
X65502184Y-68370474D01*
X65749722Y-67904923D01*
X66082975Y-67496314D01*
X66489248Y-67160216D01*
X66953065Y-66909431D01*
X67456750Y-66753514D01*
X68013478Y-66695000D01*
X127096633Y-66696469D01*
X127096633Y-66696469D01*
G37*
X127096633Y-66696469D02*
X127645904Y-66733915D01*
X128154975Y-66871273D01*
X128627666Y-67104891D01*
X129045980Y-67425876D01*
X129393981Y-67821997D01*
X129658414Y-68278168D01*
X129829207Y-68777013D01*
X129903574Y-69327047D01*
X129905000Y-69404861D01*
X129898096Y-150768036D01*
X129877056Y-151370542D01*
X129752197Y-151902879D01*
X129526314Y-152400835D01*
X129208017Y-152845429D01*
X128809424Y-153219732D01*
X128345721Y-153509486D01*
X127834566Y-153703656D01*
X127273763Y-153798509D01*
X127087861Y-153805000D01*
X68033991Y-153805000D01*
X67455820Y-153748310D01*
X66932371Y-153590271D01*
X66449581Y-153333568D01*
X66025848Y-152987980D01*
X65677311Y-152566670D01*
X65417245Y-152085687D01*
X65255557Y-151563353D01*
X65195015Y-150987345D01*
X65195317Y-150740475D01*
X65365000Y-150740475D01*
X65365000Y-151259525D01*
X65466261Y-151768601D01*
X65664893Y-152248141D01*
X65953262Y-152679715D01*
X66320285Y-153046738D01*
X66751859Y-153335107D01*
X67231399Y-153533739D01*
X67740475Y-153635000D01*
X68259525Y-153635000D01*
X68768601Y-153533739D01*
X69248141Y-153335107D01*
X69679715Y-153046738D01*
X70046738Y-152679715D01*
X70335107Y-152248141D01*
X70533739Y-151768601D01*
X70635000Y-151259525D01*
X70635000Y-150740475D01*
X70533739Y-150231399D01*
X70335107Y-149751859D01*
X70259171Y-149638212D01*
X97665000Y-149638212D01*
X97665000Y-149861788D01*
X97708617Y-150081067D01*
X97794176Y-150287624D01*
X97918388Y-150473520D01*
X98076480Y-150631612D01*
X98262376Y-150755824D01*
X98468933Y-150841383D01*
X98688212Y-150885000D01*
X98911788Y-150885000D01*
X99131067Y-150841383D01*
X99337624Y-150755824D01*
X99523520Y-150631612D01*
X99681612Y-150473520D01*
X99805824Y-150287624D01*
X99891383Y-150081067D01*
X99935000Y-149861788D01*
X99935000Y-149638212D01*
X102065000Y-149638212D01*
X102065000Y-149861788D01*
X102108617Y-150081067D01*
X102194176Y-150287624D01*
X102318388Y-150473520D01*
X102476480Y-150631612D01*
X102662376Y-150755824D01*
X102868933Y-150841383D01*
X103088212Y-150885000D01*
X103311788Y-150885000D01*
X103531067Y-150841383D01*
X103737624Y-150755824D01*
X103760595Y-150740475D01*
X124365000Y-150740475D01*
X124365000Y-151259525D01*
X124466261Y-151768601D01*
X124664893Y-152248141D01*
X124953262Y-152679715D01*
X125320285Y-153046738D01*
X125751859Y-153335107D01*
X126231399Y-153533739D01*
X126740475Y-153635000D01*
X127259525Y-153635000D01*
X127768601Y-153533739D01*
X128248141Y-153335107D01*
X128679715Y-153046738D01*
X129046738Y-152679715D01*
X129335107Y-152248141D01*
X129533739Y-151768601D01*
X129635000Y-151259525D01*
X129635000Y-150740475D01*
X129533739Y-150231399D01*
X129335107Y-149751859D01*
X129046738Y-149320285D01*
X128679715Y-148953262D01*
X128248141Y-148664893D01*
X127768601Y-148466261D01*
X127259525Y-148365000D01*
X126740475Y-148365000D01*
X126231399Y-148466261D01*
X125751859Y-148664893D01*
X125320285Y-148953262D01*
X124953262Y-149320285D01*
X124664893Y-149751859D01*
X124466261Y-150231399D01*
X124365000Y-150740475D01*
X103760595Y-150740475D01*
X103923520Y-150631612D01*
X104081612Y-150473520D01*
X104205824Y-150287624D01*
X104291383Y-150081067D01*
X104335000Y-149861788D01*
X104335000Y-149638212D01*
X104291383Y-149418933D01*
X104205824Y-149212376D01*
X104081612Y-149026480D01*
X103923520Y-148868388D01*
X103737624Y-148744176D01*
X103531067Y-148658617D01*
X103311788Y-148615000D01*
X103088212Y-148615000D01*
X102868933Y-148658617D01*
X102662376Y-148744176D01*
X102476480Y-148868388D01*
X102318388Y-149026480D01*
X102194176Y-149212376D01*
X102108617Y-149418933D01*
X102065000Y-149638212D01*
X99935000Y-149638212D01*
X99891383Y-149418933D01*
X99805824Y-149212376D01*
X99681612Y-149026480D01*
X99523520Y-148868388D01*
X99337624Y-148744176D01*
X99131067Y-148658617D01*
X98911788Y-148615000D01*
X98688212Y-148615000D01*
X98468933Y-148658617D01*
X98262376Y-148744176D01*
X98076480Y-148868388D01*
X97918388Y-149026480D01*
X97794176Y-149212376D01*
X97708617Y-149418933D01*
X97665000Y-149638212D01*
X70259171Y-149638212D01*
X70046738Y-149320285D01*
X69679715Y-148953262D01*
X69248141Y-148664893D01*
X68768601Y-148466261D01*
X68259525Y-148365000D01*
X67740475Y-148365000D01*
X67231399Y-148466261D01*
X66751859Y-148664893D01*
X66320285Y-148953262D01*
X65953262Y-149320285D01*
X65664893Y-149751859D01*
X65466261Y-150231399D01*
X65365000Y-150740475D01*
X65195317Y-150740475D01*
X65233234Y-119800000D01*
X66907815Y-119800000D01*
X66936487Y-120091111D01*
X67021401Y-120371034D01*
X67159294Y-120629014D01*
X67344866Y-120855134D01*
X67570986Y-121040706D01*
X67625791Y-121070000D01*
X67570986Y-121099294D01*
X67344866Y-121284866D01*
X67159294Y-121510986D01*
X67021401Y-121768966D01*
X66936487Y-122048889D01*
X66907815Y-122340000D01*
X66936487Y-122631111D01*
X67021401Y-122911034D01*
X67159294Y-123169014D01*
X67344866Y-123395134D01*
X67570986Y-123580706D01*
X67625791Y-123610000D01*
X67570986Y-123639294D01*
X67344866Y-123824866D01*
X67159294Y-124050986D01*
X67021401Y-124308966D01*
X66936487Y-124588889D01*
X66907815Y-124880000D01*
X66936487Y-125171111D01*
X67021401Y-125451034D01*
X67159294Y-125709014D01*
X67344866Y-125935134D01*
X67570986Y-126120706D01*
X67625791Y-126150000D01*
X67570986Y-126179294D01*
X67344866Y-126364866D01*
X67159294Y-126590986D01*
X67021401Y-126848966D01*
X66936487Y-127128889D01*
X66907815Y-127420000D01*
X66936487Y-127711111D01*
X67021401Y-127991034D01*
X67159294Y-128249014D01*
X67344866Y-128475134D01*
X67570986Y-128660706D01*
X67625791Y-128690000D01*
X67570986Y-128719294D01*
X67344866Y-128904866D01*
X67159294Y-129130986D01*
X67021401Y-129388966D01*
X66936487Y-129668889D01*
X66907815Y-129960000D01*
X66936487Y-130251111D01*
X67021401Y-130531034D01*
X67159294Y-130789014D01*
X67344866Y-131015134D01*
X67570986Y-131200706D01*
X67625791Y-131230000D01*
X67570986Y-131259294D01*
X67344866Y-131444866D01*
X67159294Y-131670986D01*
X67021401Y-131928966D01*
X66936487Y-132208889D01*
X66907815Y-132500000D01*
X66936487Y-132791111D01*
X67021401Y-133071034D01*
X67159294Y-133329014D01*
X67344866Y-133555134D01*
X67570986Y-133740706D01*
X67625791Y-133770000D01*
X67570986Y-133799294D01*
X67344866Y-133984866D01*
X67159294Y-134210986D01*
X67021401Y-134468966D01*
X66936487Y-134748889D01*
X66907815Y-135040000D01*
X66936487Y-135331111D01*
X67021401Y-135611034D01*
X67159294Y-135869014D01*
X67344866Y-136095134D01*
X67570986Y-136280706D01*
X67625791Y-136310000D01*
X67570986Y-136339294D01*
X67344866Y-136524866D01*
X67159294Y-136750986D01*
X67021401Y-137008966D01*
X66936487Y-137288889D01*
X66907815Y-137580000D01*
X66936487Y-137871111D01*
X67021401Y-138151034D01*
X67159294Y-138409014D01*
X67344866Y-138635134D01*
X67570986Y-138820706D01*
X67625791Y-138850000D01*
X67570986Y-138879294D01*
X67344866Y-139064866D01*
X67159294Y-139290986D01*
X67021401Y-139548966D01*
X66936487Y-139828889D01*
X66907815Y-140120000D01*
X66936487Y-140411111D01*
X67021401Y-140691034D01*
X67159294Y-140949014D01*
X67344866Y-141175134D01*
X67570986Y-141360706D01*
X67625791Y-141390000D01*
X67570986Y-141419294D01*
X67344866Y-141604866D01*
X67159294Y-141830986D01*
X67021401Y-142088966D01*
X66936487Y-142368889D01*
X66907815Y-142660000D01*
X66936487Y-142951111D01*
X67021401Y-143231034D01*
X67159294Y-143489014D01*
X67344866Y-143715134D01*
X67374687Y-143739607D01*
X67305820Y-143760498D01*
X67195506Y-143819463D01*
X67098815Y-143898815D01*
X67019463Y-143995506D01*
X66960498Y-144105820D01*
X66924188Y-144225518D01*
X66911928Y-144350000D01*
X66911928Y-146050000D01*
X66924188Y-146174482D01*
X66960498Y-146294180D01*
X67019463Y-146404494D01*
X67098815Y-146501185D01*
X67195506Y-146580537D01*
X67305820Y-146639502D01*
X67425518Y-146675812D01*
X67550000Y-146688072D01*
X69250000Y-146688072D01*
X69374482Y-146675812D01*
X69494180Y-146639502D01*
X69604494Y-146580537D01*
X69701185Y-146501185D01*
X69780537Y-146404494D01*
X69839502Y-146294180D01*
X69875812Y-146174482D01*
X69884625Y-146085000D01*
X73856531Y-146085000D01*
X73900000Y-146089281D01*
X73943469Y-146085000D01*
X73943477Y-146085000D01*
X74073490Y-146072195D01*
X74240313Y-146021589D01*
X74394059Y-145939411D01*
X74528817Y-145828817D01*
X74556534Y-145795044D01*
X79566579Y-140785000D01*
X81984839Y-140785000D01*
X81728748Y-140875843D01*
X81478645Y-141024822D01*
X81262412Y-141219731D01*
X81088359Y-141453080D01*
X80963175Y-141715901D01*
X80918524Y-141863110D01*
X81039845Y-142093000D01*
X82233000Y-142093000D01*
X82233000Y-142073000D01*
X82487000Y-142073000D01*
X82487000Y-142093000D01*
X82507000Y-142093000D01*
X82507000Y-142347000D01*
X82487000Y-142347000D01*
X82487000Y-142367000D01*
X82233000Y-142367000D01*
X82233000Y-142347000D01*
X81039845Y-142347000D01*
X80918524Y-142576890D01*
X80963175Y-142724099D01*
X81088359Y-142986920D01*
X81262412Y-143220269D01*
X81478645Y-143415178D01*
X81595523Y-143484799D01*
X81530986Y-143519294D01*
X81304866Y-143704866D01*
X81119294Y-143930986D01*
X80981401Y-144188966D01*
X80896487Y-144468889D01*
X80867815Y-144760000D01*
X80896487Y-145051111D01*
X80981401Y-145331034D01*
X81119294Y-145589014D01*
X81304866Y-145815134D01*
X81530986Y-146000706D01*
X81585791Y-146030000D01*
X81530986Y-146059294D01*
X81304866Y-146244866D01*
X81119294Y-146470986D01*
X80981401Y-146728966D01*
X80896487Y-147008889D01*
X80867815Y-147300000D01*
X80896487Y-147591111D01*
X80981401Y-147871034D01*
X81119294Y-148129014D01*
X81304866Y-148355134D01*
X81530986Y-148540706D01*
X81788966Y-148678599D01*
X82068889Y-148763513D01*
X82287050Y-148785000D01*
X82432950Y-148785000D01*
X82651111Y-148763513D01*
X82931034Y-148678599D01*
X83189014Y-148540706D01*
X83415134Y-148355134D01*
X83439607Y-148325313D01*
X83460498Y-148394180D01*
X83519463Y-148504494D01*
X83598815Y-148601185D01*
X83695506Y-148680537D01*
X83805820Y-148739502D01*
X83925518Y-148775812D01*
X84050000Y-148788072D01*
X85750000Y-148788072D01*
X85874482Y-148775812D01*
X85994180Y-148739502D01*
X86104494Y-148680537D01*
X86201185Y-148601185D01*
X86280537Y-148504494D01*
X86339502Y-148394180D01*
X86375812Y-148274482D01*
X86388072Y-148150000D01*
X86388072Y-146525000D01*
X117911928Y-146525000D01*
X117924188Y-146649482D01*
X117954364Y-146748959D01*
X117929232Y-146831807D01*
X117911928Y-147007500D01*
X117911928Y-147532500D01*
X117929232Y-147708193D01*
X117980480Y-147877134D01*
X117995375Y-147905000D01*
X117980480Y-147932866D01*
X117929232Y-148101807D01*
X117911928Y-148277500D01*
X117911928Y-148802500D01*
X117929232Y-148978193D01*
X117980480Y-149147134D01*
X118063702Y-149302831D01*
X118175699Y-149439301D01*
X118312169Y-149551298D01*
X118467866Y-149634520D01*
X118636807Y-149685768D01*
X118812500Y-149703072D01*
X119787500Y-149703072D01*
X119963193Y-149685768D01*
X120132134Y-149634520D01*
X120287831Y-149551298D01*
X120424301Y-149439301D01*
X120536298Y-149302831D01*
X120619520Y-149147134D01*
X120670768Y-148978193D01*
X120688072Y-148802500D01*
X120688072Y-148277500D01*
X120670768Y-148101807D01*
X120619520Y-147932866D01*
X120604625Y-147905000D01*
X120619520Y-147877134D01*
X120670768Y-147708193D01*
X120688072Y-147532500D01*
X120688072Y-147007500D01*
X120670768Y-146831807D01*
X120645636Y-146748959D01*
X120675812Y-146649482D01*
X120688072Y-146525000D01*
X120685000Y-146285750D01*
X120526250Y-146127000D01*
X119972318Y-146127000D01*
X119963193Y-146124232D01*
X119787500Y-146106928D01*
X118812500Y-146106928D01*
X118636807Y-146124232D01*
X118627682Y-146127000D01*
X118073750Y-146127000D01*
X117915000Y-146285750D01*
X117911928Y-146525000D01*
X86388072Y-146525000D01*
X86388072Y-146450000D01*
X86375812Y-146325518D01*
X86339502Y-146205820D01*
X86280537Y-146095506D01*
X86201185Y-145998815D01*
X86104494Y-145919463D01*
X85994180Y-145860498D01*
X85925313Y-145839607D01*
X85955134Y-145815134D01*
X86140706Y-145589014D01*
X86278599Y-145331034D01*
X86363513Y-145051111D01*
X86392185Y-144760000D01*
X86363513Y-144468889D01*
X86278599Y-144188966D01*
X86140706Y-143930986D01*
X85955134Y-143704866D01*
X85729014Y-143519294D01*
X85674209Y-143490000D01*
X85729014Y-143460706D01*
X85955134Y-143275134D01*
X86140706Y-143049014D01*
X86278599Y-142791034D01*
X86363513Y-142511111D01*
X86392185Y-142220000D01*
X86363513Y-141928889D01*
X86278599Y-141648966D01*
X86140706Y-141390986D01*
X85955134Y-141164866D01*
X85729014Y-140979294D01*
X85471034Y-140841401D01*
X85285105Y-140785000D01*
X91951289Y-140785000D01*
X91896063Y-140840226D01*
X91782795Y-141009744D01*
X91704774Y-141198102D01*
X91665000Y-141398061D01*
X91665000Y-141601939D01*
X91704774Y-141801898D01*
X91782795Y-141990256D01*
X91896063Y-142159774D01*
X91940000Y-142203711D01*
X91940001Y-144696288D01*
X91896063Y-144740226D01*
X91782795Y-144909744D01*
X91704774Y-145098102D01*
X91665000Y-145298061D01*
X91665000Y-145501939D01*
X91704774Y-145701898D01*
X91782795Y-145890256D01*
X91896063Y-146059774D01*
X92040226Y-146203937D01*
X92209744Y-146317205D01*
X92398102Y-146395226D01*
X92598061Y-146435000D01*
X92801939Y-146435000D01*
X93001898Y-146395226D01*
X93190256Y-146317205D01*
X93359774Y-146203937D01*
X93503937Y-146059774D01*
X93617205Y-145890256D01*
X93695226Y-145701898D01*
X93735000Y-145501939D01*
X93735000Y-145298061D01*
X93695226Y-145098102D01*
X93617205Y-144909744D01*
X93542582Y-144798061D01*
X99165000Y-144798061D01*
X99165000Y-145001939D01*
X99204774Y-145201898D01*
X99282795Y-145390256D01*
X99396063Y-145559774D01*
X99540226Y-145703937D01*
X99709744Y-145817205D01*
X99898102Y-145895226D01*
X100098061Y-145935000D01*
X100301939Y-145935000D01*
X100501898Y-145895226D01*
X100690256Y-145817205D01*
X100738454Y-145785000D01*
X102061546Y-145785000D01*
X102109744Y-145817205D01*
X102298102Y-145895226D01*
X102498061Y-145935000D01*
X102701939Y-145935000D01*
X102901898Y-145895226D01*
X103090256Y-145817205D01*
X103259774Y-145703937D01*
X103403937Y-145559774D01*
X103460581Y-145475000D01*
X117911928Y-145475000D01*
X117915000Y-145714250D01*
X118073750Y-145873000D01*
X119173000Y-145873000D01*
X119173000Y-144998750D01*
X119427000Y-144998750D01*
X119427000Y-145873000D01*
X120526250Y-145873000D01*
X120685000Y-145714250D01*
X120688072Y-145475000D01*
X120675812Y-145350518D01*
X120639502Y-145230820D01*
X120580537Y-145120506D01*
X120501185Y-145023815D01*
X120404494Y-144944463D01*
X120294180Y-144885498D01*
X120174482Y-144849188D01*
X120050000Y-144836928D01*
X119585750Y-144840000D01*
X119427000Y-144998750D01*
X119173000Y-144998750D01*
X119014250Y-144840000D01*
X118550000Y-144836928D01*
X118425518Y-144849188D01*
X118305820Y-144885498D01*
X118195506Y-144944463D01*
X118098815Y-145023815D01*
X118019463Y-145120506D01*
X117960498Y-145230820D01*
X117924188Y-145350518D01*
X117911928Y-145475000D01*
X103460581Y-145475000D01*
X103517205Y-145390256D01*
X103595226Y-145201898D01*
X103635000Y-145001939D01*
X103635000Y-144798061D01*
X103595226Y-144598102D01*
X103517205Y-144409744D01*
X103403937Y-144240226D01*
X103259774Y-144096063D01*
X103090256Y-143982795D01*
X102901898Y-143904774D01*
X102701939Y-143865000D01*
X102498061Y-143865000D01*
X102298102Y-143904774D01*
X102109744Y-143982795D01*
X102061546Y-144015000D01*
X100738454Y-144015000D01*
X100690256Y-143982795D01*
X100501898Y-143904774D01*
X100301939Y-143865000D01*
X100098061Y-143865000D01*
X99898102Y-143904774D01*
X99709744Y-143982795D01*
X99540226Y-144096063D01*
X99396063Y-144240226D01*
X99282795Y-144409744D01*
X99204774Y-144598102D01*
X99165000Y-144798061D01*
X93542582Y-144798061D01*
X93503937Y-144740226D01*
X93460000Y-144696289D01*
X93460000Y-142203711D01*
X93503937Y-142159774D01*
X93617205Y-141990256D01*
X93695226Y-141801898D01*
X93735000Y-141601939D01*
X93735000Y-141398061D01*
X93695226Y-141198102D01*
X93617205Y-141009744D01*
X93503937Y-140840226D01*
X93448711Y-140785000D01*
X94256531Y-140785000D01*
X94300000Y-140789281D01*
X94343469Y-140785000D01*
X94343477Y-140785000D01*
X94473490Y-140772195D01*
X94640313Y-140721589D01*
X94794059Y-140639411D01*
X94928817Y-140528817D01*
X94956534Y-140495044D01*
X96295049Y-139156530D01*
X96328817Y-139128817D01*
X96370185Y-139078411D01*
X96439410Y-138994060D01*
X96439411Y-138994059D01*
X96521589Y-138840313D01*
X96558934Y-138717205D01*
X96572195Y-138673491D01*
X96575986Y-138635000D01*
X96585000Y-138543477D01*
X96585000Y-138543469D01*
X96589281Y-138500000D01*
X96585000Y-138456531D01*
X96585000Y-135338454D01*
X96617205Y-135290256D01*
X96695226Y-135101898D01*
X96735000Y-134901939D01*
X96735000Y-134698061D01*
X96695226Y-134498102D01*
X96679444Y-134460000D01*
X98062678Y-134460000D01*
X98100000Y-134463676D01*
X98137322Y-134460000D01*
X98137333Y-134460000D01*
X98248986Y-134449003D01*
X98392247Y-134405546D01*
X98524276Y-134334974D01*
X98640001Y-134240001D01*
X98663804Y-134210997D01*
X98715001Y-134159800D01*
X98715000Y-135661545D01*
X98682795Y-135709744D01*
X98604774Y-135898102D01*
X98565000Y-136098061D01*
X98565000Y-136301939D01*
X98604774Y-136501898D01*
X98682795Y-136690256D01*
X98796063Y-136859774D01*
X98940226Y-137003937D01*
X99109744Y-137117205D01*
X99298102Y-137195226D01*
X99498061Y-137235000D01*
X99701939Y-137235000D01*
X99901898Y-137195226D01*
X100090256Y-137117205D01*
X100259774Y-137003937D01*
X100403937Y-136859774D01*
X100517205Y-136690256D01*
X100595226Y-136501898D01*
X100635000Y-136301939D01*
X100635000Y-136098061D01*
X100595226Y-135898102D01*
X100517205Y-135709744D01*
X100485000Y-135661546D01*
X100485000Y-133966578D01*
X107666579Y-126785000D01*
X107959844Y-126785000D01*
X107952495Y-126793955D01*
X107898102Y-126804774D01*
X107709744Y-126882795D01*
X107540226Y-126996063D01*
X107396063Y-127140226D01*
X107282795Y-127309744D01*
X107204774Y-127498102D01*
X107165000Y-127698061D01*
X107165000Y-127901939D01*
X107204774Y-128101898D01*
X107282795Y-128290256D01*
X107396063Y-128459774D01*
X107540226Y-128603937D01*
X107709744Y-128717205D01*
X107865000Y-128781515D01*
X107865000Y-128801939D01*
X107904774Y-129001898D01*
X107975080Y-129171630D01*
X107882795Y-129309744D01*
X107804774Y-129498102D01*
X107765000Y-129698061D01*
X107765000Y-129812692D01*
X107640226Y-129896063D01*
X107496063Y-130040226D01*
X107382795Y-130209744D01*
X107359907Y-130265000D01*
X107198061Y-130265000D01*
X106998102Y-130304774D01*
X106809744Y-130382795D01*
X106640226Y-130496063D01*
X106496063Y-130640226D01*
X106382795Y-130809744D01*
X106304774Y-130998102D01*
X106291467Y-131065000D01*
X106198061Y-131065000D01*
X105998102Y-131104774D01*
X105809744Y-131182795D01*
X105640226Y-131296063D01*
X105496063Y-131440226D01*
X105382795Y-131609744D01*
X105304774Y-131798102D01*
X105265000Y-131998061D01*
X105265000Y-132201939D01*
X105304774Y-132401898D01*
X105382795Y-132590256D01*
X105496063Y-132759774D01*
X105640226Y-132903937D01*
X105809744Y-133017205D01*
X105998102Y-133095226D01*
X106054957Y-133106535D01*
X107663421Y-134715000D01*
X105138454Y-134715000D01*
X105090256Y-134682795D01*
X104901898Y-134604774D01*
X104701939Y-134565000D01*
X104498061Y-134565000D01*
X104298102Y-134604774D01*
X104109744Y-134682795D01*
X103940226Y-134796063D01*
X103796063Y-134940226D01*
X103682795Y-135109744D01*
X103604774Y-135298102D01*
X103565000Y-135498061D01*
X103565000Y-135701939D01*
X103604774Y-135901898D01*
X103682795Y-136090256D01*
X103796063Y-136259774D01*
X103836289Y-136300000D01*
X103796063Y-136340226D01*
X103682795Y-136509744D01*
X103604774Y-136698102D01*
X103565000Y-136898061D01*
X103565000Y-137101939D01*
X103604774Y-137301898D01*
X103682795Y-137490256D01*
X103796063Y-137659774D01*
X103940226Y-137803937D01*
X104109744Y-137917205D01*
X104298102Y-137995226D01*
X104498061Y-138035000D01*
X104560198Y-138035000D01*
X104736205Y-138211008D01*
X104759999Y-138240001D01*
X104788992Y-138263795D01*
X104788996Y-138263799D01*
X104856759Y-138319410D01*
X104875724Y-138334974D01*
X105007753Y-138405546D01*
X105151014Y-138449003D01*
X105262667Y-138460000D01*
X105262676Y-138460000D01*
X105299999Y-138463676D01*
X105337322Y-138460000D01*
X109896289Y-138460000D01*
X109940226Y-138503937D01*
X110109744Y-138617205D01*
X110298102Y-138695226D01*
X110498061Y-138735000D01*
X110701939Y-138735000D01*
X110901898Y-138695226D01*
X111090256Y-138617205D01*
X111259774Y-138503937D01*
X111403937Y-138359774D01*
X111517205Y-138190256D01*
X111595226Y-138001898D01*
X111606535Y-137945043D01*
X111656531Y-137895047D01*
X112166579Y-137385000D01*
X117680618Y-137385000D01*
X117682795Y-137390256D01*
X117796063Y-137559774D01*
X117940226Y-137703937D01*
X118109744Y-137817205D01*
X118298102Y-137895226D01*
X118498061Y-137935000D01*
X118701939Y-137935000D01*
X118901898Y-137895226D01*
X119090256Y-137817205D01*
X119259774Y-137703937D01*
X119403937Y-137559774D01*
X119517205Y-137390256D01*
X119595226Y-137201898D01*
X119620958Y-137072536D01*
X123515000Y-140966579D01*
X123515000Y-141406531D01*
X123510719Y-141450000D01*
X123515000Y-141493469D01*
X123515000Y-141493477D01*
X123520075Y-141545000D01*
X123527805Y-141623490D01*
X123578412Y-141790313D01*
X123660590Y-141944059D01*
X123743468Y-142045046D01*
X123743471Y-142045049D01*
X123771184Y-142078817D01*
X123804951Y-142106529D01*
X124893470Y-143195049D01*
X124921183Y-143228817D01*
X124954951Y-143256530D01*
X124954953Y-143256532D01*
X125055941Y-143339411D01*
X125209686Y-143421589D01*
X125303344Y-143450000D01*
X125376510Y-143472195D01*
X125414482Y-143475935D01*
X125424188Y-143574482D01*
X125460498Y-143694180D01*
X125519463Y-143804494D01*
X125598815Y-143901185D01*
X125695506Y-143980537D01*
X125805820Y-144039502D01*
X125925518Y-144075812D01*
X126050000Y-144088072D01*
X127750000Y-144088072D01*
X127874482Y-144075812D01*
X127994180Y-144039502D01*
X128104494Y-143980537D01*
X128201185Y-143901185D01*
X128280537Y-143804494D01*
X128339502Y-143694180D01*
X128375812Y-143574482D01*
X128388072Y-143450000D01*
X128388072Y-141750000D01*
X128375812Y-141625518D01*
X128339502Y-141505820D01*
X128280537Y-141395506D01*
X128201185Y-141298815D01*
X128104494Y-141219463D01*
X127994180Y-141160498D01*
X127925313Y-141139607D01*
X127955134Y-141115134D01*
X128140706Y-140889014D01*
X128278599Y-140631034D01*
X128363513Y-140351111D01*
X128392185Y-140060000D01*
X128363513Y-139768889D01*
X128278599Y-139488966D01*
X128140706Y-139230986D01*
X127955134Y-139004866D01*
X127729014Y-138819294D01*
X127674209Y-138790000D01*
X127729014Y-138760706D01*
X127955134Y-138575134D01*
X128140706Y-138349014D01*
X128278599Y-138091034D01*
X128363513Y-137811111D01*
X128392185Y-137520000D01*
X128363513Y-137228889D01*
X128278599Y-136948966D01*
X128140706Y-136690986D01*
X127955134Y-136464866D01*
X127729014Y-136279294D01*
X127674209Y-136250000D01*
X127729014Y-136220706D01*
X127955134Y-136035134D01*
X128140706Y-135809014D01*
X128278599Y-135551034D01*
X128363513Y-135271111D01*
X128392185Y-134980000D01*
X128363513Y-134688889D01*
X128278599Y-134408966D01*
X128140706Y-134150986D01*
X127955134Y-133924866D01*
X127729014Y-133739294D01*
X127674209Y-133710000D01*
X127729014Y-133680706D01*
X127955134Y-133495134D01*
X128140706Y-133269014D01*
X128278599Y-133011034D01*
X128363513Y-132731111D01*
X128392185Y-132440000D01*
X128363513Y-132148889D01*
X128278599Y-131868966D01*
X128140706Y-131610986D01*
X127955134Y-131384866D01*
X127729014Y-131199294D01*
X127674209Y-131170000D01*
X127729014Y-131140706D01*
X127955134Y-130955134D01*
X128140706Y-130729014D01*
X128278599Y-130471034D01*
X128363513Y-130191111D01*
X128392185Y-129900000D01*
X128363513Y-129608889D01*
X128278599Y-129328966D01*
X128140706Y-129070986D01*
X127955134Y-128844866D01*
X127729014Y-128659294D01*
X127674209Y-128630000D01*
X127729014Y-128600706D01*
X127955134Y-128415134D01*
X128140706Y-128189014D01*
X128278599Y-127931034D01*
X128363513Y-127651111D01*
X128392185Y-127360000D01*
X128363513Y-127068889D01*
X128278599Y-126788966D01*
X128140706Y-126530986D01*
X127955134Y-126304866D01*
X127729014Y-126119294D01*
X127471034Y-125981401D01*
X127191111Y-125896487D01*
X126972950Y-125875000D01*
X126827050Y-125875000D01*
X126608889Y-125896487D01*
X126328966Y-125981401D01*
X126070986Y-126119294D01*
X125844866Y-126304866D01*
X125705241Y-126475000D01*
X123083469Y-126475000D01*
X123040000Y-126470719D01*
X122996531Y-126475000D01*
X122996523Y-126475000D01*
X122881306Y-126486348D01*
X122866509Y-126487805D01*
X122826372Y-126499981D01*
X122699687Y-126538411D01*
X122545941Y-126620589D01*
X122526768Y-126636324D01*
X122444953Y-126703468D01*
X122444951Y-126703470D01*
X122411183Y-126731183D01*
X122383470Y-126764951D01*
X118633482Y-130514940D01*
X117212523Y-130514940D01*
X117235000Y-130401939D01*
X117235000Y-130198061D01*
X117195226Y-129998102D01*
X117117205Y-129809744D01*
X117003937Y-129640226D01*
X116859774Y-129496063D01*
X116690256Y-129382795D01*
X116501898Y-129304774D01*
X116301939Y-129265000D01*
X116098061Y-129265000D01*
X115898102Y-129304774D01*
X115709744Y-129382795D01*
X115624130Y-129440000D01*
X115380487Y-129440000D01*
X111729489Y-125789003D01*
X111705686Y-125759999D01*
X111589961Y-125665026D01*
X111457932Y-125594454D01*
X111314724Y-125551013D01*
X111259774Y-125496063D01*
X111090256Y-125382795D01*
X110901898Y-125304774D01*
X110701939Y-125265000D01*
X110498061Y-125265000D01*
X110298102Y-125304774D01*
X110109744Y-125382795D01*
X109940226Y-125496063D01*
X109796063Y-125640226D01*
X109682795Y-125809744D01*
X109604774Y-125998102D01*
X109565000Y-126198061D01*
X109565000Y-126401939D01*
X109587489Y-126515000D01*
X108898158Y-126515000D01*
X108914536Y-126495044D01*
X109545051Y-125864530D01*
X109578818Y-125836818D01*
X109607477Y-125801898D01*
X109683705Y-125709014D01*
X109689412Y-125702060D01*
X109771590Y-125548314D01*
X109822196Y-125381491D01*
X109835001Y-125251478D01*
X109835001Y-125251468D01*
X109839282Y-125208002D01*
X109835001Y-125164536D01*
X109835001Y-116100000D01*
X114361928Y-116100000D01*
X114361928Y-120500000D01*
X114374188Y-120624482D01*
X114410498Y-120744180D01*
X114469463Y-120854494D01*
X114548815Y-120951185D01*
X114645506Y-121030537D01*
X114755820Y-121089502D01*
X114875518Y-121125812D01*
X115000000Y-121138072D01*
X116800000Y-121138072D01*
X116924482Y-121125812D01*
X117044180Y-121089502D01*
X117154494Y-121030537D01*
X117251185Y-120951185D01*
X117330537Y-120854494D01*
X117389502Y-120744180D01*
X117425812Y-120624482D01*
X117438072Y-120500000D01*
X117438072Y-118427000D01*
X120165000Y-118427000D01*
X120165000Y-119527000D01*
X120219271Y-119824023D01*
X120330446Y-120104751D01*
X120494252Y-120358396D01*
X120704394Y-120575210D01*
X120952796Y-120746862D01*
X121229913Y-120866755D01*
X121335260Y-120891036D01*
X121573000Y-120770378D01*
X121573000Y-118427000D01*
X121827000Y-118427000D01*
X121827000Y-120770378D01*
X122064740Y-120891036D01*
X122170087Y-120866755D01*
X122447204Y-120746862D01*
X122695606Y-120575210D01*
X122905748Y-120358396D01*
X123069554Y-120104751D01*
X123180729Y-119824023D01*
X123235000Y-119527000D01*
X123235000Y-118427000D01*
X121827000Y-118427000D01*
X121573000Y-118427000D01*
X120165000Y-118427000D01*
X117438072Y-118427000D01*
X117438072Y-117073000D01*
X120165000Y-117073000D01*
X120165000Y-118173000D01*
X121573000Y-118173000D01*
X121573000Y-115829622D01*
X121827000Y-115829622D01*
X121827000Y-118173000D01*
X123235000Y-118173000D01*
X123235000Y-117073000D01*
X123180729Y-116775977D01*
X123069554Y-116495249D01*
X122905748Y-116241604D01*
X122695606Y-116024790D01*
X122447204Y-115853138D01*
X122170087Y-115733245D01*
X122064740Y-115708964D01*
X121827000Y-115829622D01*
X121573000Y-115829622D01*
X121335260Y-115708964D01*
X121229913Y-115733245D01*
X120952796Y-115853138D01*
X120704394Y-116024790D01*
X120494252Y-116241604D01*
X120330446Y-116495249D01*
X120219271Y-116775977D01*
X120165000Y-117073000D01*
X117438072Y-117073000D01*
X117438072Y-116100000D01*
X117425812Y-115975518D01*
X117389502Y-115855820D01*
X117330537Y-115745506D01*
X117251185Y-115648815D01*
X117154494Y-115569463D01*
X117044180Y-115510498D01*
X116924482Y-115474188D01*
X116800000Y-115461928D01*
X115000000Y-115461928D01*
X114875518Y-115474188D01*
X114755820Y-115510498D01*
X114645506Y-115569463D01*
X114548815Y-115648815D01*
X114469463Y-115745506D01*
X114410498Y-115855820D01*
X114374188Y-115975518D01*
X114361928Y-116100000D01*
X109835001Y-116100000D01*
X109835001Y-113500000D01*
X116257573Y-113500000D01*
X116287210Y-113800913D01*
X116374983Y-114090261D01*
X116517519Y-114356927D01*
X116709339Y-114590661D01*
X116943073Y-114782481D01*
X117209739Y-114925017D01*
X117499087Y-115012790D01*
X117724592Y-115035000D01*
X120075408Y-115035000D01*
X120300913Y-115012790D01*
X120590261Y-114925017D01*
X120856927Y-114782481D01*
X121090661Y-114590661D01*
X121282481Y-114356927D01*
X121425017Y-114090261D01*
X121512790Y-113800913D01*
X121542427Y-113500000D01*
X121512790Y-113199087D01*
X121425017Y-112909739D01*
X121282481Y-112643073D01*
X121090661Y-112409339D01*
X120856927Y-112217519D01*
X120590261Y-112074983D01*
X120300913Y-111987210D01*
X120075408Y-111965000D01*
X117724592Y-111965000D01*
X117499087Y-111987210D01*
X117209739Y-112074983D01*
X116943073Y-112217519D01*
X116709339Y-112409339D01*
X116517519Y-112643073D01*
X116374983Y-112909739D01*
X116287210Y-113199087D01*
X116257573Y-113500000D01*
X109835001Y-113500000D01*
X109835001Y-105200000D01*
X114561928Y-105200000D01*
X114561928Y-107200000D01*
X114574188Y-107324482D01*
X114610498Y-107444180D01*
X114669463Y-107554494D01*
X114748815Y-107651185D01*
X114845506Y-107730537D01*
X114955820Y-107789502D01*
X115075518Y-107825812D01*
X115200000Y-107838072D01*
X117200000Y-107838072D01*
X117324482Y-107825812D01*
X117444180Y-107789502D01*
X117554494Y-107730537D01*
X117651185Y-107651185D01*
X117730537Y-107554494D01*
X117789502Y-107444180D01*
X117825812Y-107324482D01*
X117838072Y-107200000D01*
X117838072Y-106200000D01*
X119637089Y-106200000D01*
X119668657Y-106520516D01*
X119762148Y-106828715D01*
X119913969Y-107112752D01*
X120118286Y-107361714D01*
X120367248Y-107566031D01*
X120651285Y-107717852D01*
X120959484Y-107811343D01*
X121199678Y-107835000D01*
X121360322Y-107835000D01*
X121600516Y-107811343D01*
X121908715Y-107717852D01*
X122192752Y-107566031D01*
X122441714Y-107361714D01*
X122646031Y-107112752D01*
X122797852Y-106828715D01*
X122891343Y-106520516D01*
X122922911Y-106200000D01*
X122891343Y-105879484D01*
X122797852Y-105571285D01*
X122646031Y-105287248D01*
X122441714Y-105038286D01*
X122192752Y-104833969D01*
X121908715Y-104682148D01*
X121600516Y-104588657D01*
X121360322Y-104565000D01*
X121199678Y-104565000D01*
X120959484Y-104588657D01*
X120651285Y-104682148D01*
X120367248Y-104833969D01*
X120118286Y-105038286D01*
X119913969Y-105287248D01*
X119762148Y-105571285D01*
X119668657Y-105879484D01*
X119637089Y-106200000D01*
X117838072Y-106200000D01*
X117838072Y-105200000D01*
X117825812Y-105075518D01*
X117789502Y-104955820D01*
X117730537Y-104845506D01*
X117651185Y-104748815D01*
X117554494Y-104669463D01*
X117444180Y-104610498D01*
X117324482Y-104574188D01*
X117200000Y-104561928D01*
X115200000Y-104561928D01*
X115075518Y-104574188D01*
X114955820Y-104610498D01*
X114845506Y-104669463D01*
X114748815Y-104748815D01*
X114669463Y-104845506D01*
X114610498Y-104955820D01*
X114574188Y-105075518D01*
X114561928Y-105200000D01*
X109835001Y-105200000D01*
X109835001Y-103988455D01*
X109867206Y-103940257D01*
X109945227Y-103751899D01*
X109985001Y-103551940D01*
X109985001Y-103348062D01*
X109945227Y-103148103D01*
X109867206Y-102959745D01*
X109753938Y-102790227D01*
X109609775Y-102646064D01*
X109440257Y-102532796D01*
X109251899Y-102454775D01*
X109051940Y-102415001D01*
X108848062Y-102415001D01*
X108648103Y-102454775D01*
X108459745Y-102532796D01*
X108290227Y-102646064D01*
X108146064Y-102790227D01*
X108032796Y-102959745D01*
X107954775Y-103148103D01*
X107915001Y-103348062D01*
X107915001Y-103551940D01*
X107954775Y-103751899D01*
X108032796Y-103940257D01*
X108065002Y-103988457D01*
X108065001Y-123765000D01*
X107998061Y-123765000D01*
X107798102Y-123804774D01*
X107609744Y-123882795D01*
X107561546Y-123915000D01*
X107009154Y-123915000D01*
X106965685Y-123910719D01*
X106922216Y-123915000D01*
X106922208Y-123915000D01*
X106792195Y-123927805D01*
X106625371Y-123978411D01*
X106471626Y-124060589D01*
X106370638Y-124143468D01*
X106370636Y-124143470D01*
X106336868Y-124171183D01*
X106309155Y-124204951D01*
X105584999Y-124929108D01*
X105584999Y-121243464D01*
X105589280Y-121199998D01*
X105584999Y-121156532D01*
X105584999Y-121156522D01*
X105572194Y-121026509D01*
X105521588Y-120859686D01*
X105439410Y-120705940D01*
X105372559Y-120624482D01*
X105356531Y-120604952D01*
X105356529Y-120604950D01*
X105328816Y-120571182D01*
X105295047Y-120543468D01*
X104556534Y-119804956D01*
X104528817Y-119771183D01*
X104394059Y-119660589D01*
X104327906Y-119625230D01*
X104359774Y-119603937D01*
X104403711Y-119560000D01*
X105496289Y-119560000D01*
X105540226Y-119603937D01*
X105709744Y-119717205D01*
X105898102Y-119795226D01*
X106098061Y-119835000D01*
X106301939Y-119835000D01*
X106501898Y-119795226D01*
X106690256Y-119717205D01*
X106859774Y-119603937D01*
X107003937Y-119459774D01*
X107117205Y-119290256D01*
X107195226Y-119101898D01*
X107235000Y-118901939D01*
X107235000Y-118698061D01*
X107195226Y-118498102D01*
X107117205Y-118309744D01*
X107003937Y-118140226D01*
X106859774Y-117996063D01*
X106690256Y-117882795D01*
X106501898Y-117804774D01*
X106301939Y-117765000D01*
X106098061Y-117765000D01*
X105898102Y-117804774D01*
X105709744Y-117882795D01*
X105540226Y-117996063D01*
X105496289Y-118040000D01*
X104403711Y-118040000D01*
X104359774Y-117996063D01*
X104190256Y-117882795D01*
X104001898Y-117804774D01*
X103801939Y-117765000D01*
X103598061Y-117765000D01*
X103398102Y-117804774D01*
X103209744Y-117882795D01*
X103040226Y-117996063D01*
X102896063Y-118140226D01*
X102782795Y-118309744D01*
X102704774Y-118498102D01*
X102665000Y-118698061D01*
X102665000Y-118901939D01*
X102704774Y-119101898D01*
X102782795Y-119290256D01*
X102896063Y-119459774D01*
X102951289Y-119515000D01*
X102212511Y-119515000D01*
X102235000Y-119401939D01*
X102235000Y-119198061D01*
X102195226Y-118998102D01*
X102117205Y-118809744D01*
X102077285Y-118750000D01*
X102117205Y-118690256D01*
X102195226Y-118501898D01*
X102235000Y-118301939D01*
X102235000Y-118098061D01*
X102195226Y-117898102D01*
X102117205Y-117709744D01*
X102077285Y-117650000D01*
X102117205Y-117590256D01*
X102195226Y-117401898D01*
X102235000Y-117201939D01*
X102235000Y-116998061D01*
X102195226Y-116798102D01*
X102117205Y-116609744D01*
X102003937Y-116440226D01*
X101859774Y-116296063D01*
X101690256Y-116182795D01*
X101501898Y-116104774D01*
X101301939Y-116065000D01*
X101098061Y-116065000D01*
X100898102Y-116104774D01*
X100709744Y-116182795D01*
X100661546Y-116215000D01*
X95266579Y-116215000D01*
X88885000Y-109833422D01*
X88885000Y-105200000D01*
X97181928Y-105200000D01*
X97181928Y-107200000D01*
X97194188Y-107324482D01*
X97230498Y-107444180D01*
X97289463Y-107554494D01*
X97368815Y-107651185D01*
X97465506Y-107730537D01*
X97575820Y-107789502D01*
X97695518Y-107825812D01*
X97820000Y-107838072D01*
X99820000Y-107838072D01*
X99944482Y-107825812D01*
X100064180Y-107789502D01*
X100174494Y-107730537D01*
X100271185Y-107651185D01*
X100350537Y-107554494D01*
X100409502Y-107444180D01*
X100445812Y-107324482D01*
X100458072Y-107200000D01*
X100458072Y-106200000D01*
X102257089Y-106200000D01*
X102288657Y-106520516D01*
X102382148Y-106828715D01*
X102533969Y-107112752D01*
X102738286Y-107361714D01*
X102987248Y-107566031D01*
X103271285Y-107717852D01*
X103579484Y-107811343D01*
X103819678Y-107835000D01*
X103980322Y-107835000D01*
X104220516Y-107811343D01*
X104528715Y-107717852D01*
X104812752Y-107566031D01*
X105061714Y-107361714D01*
X105266031Y-107112752D01*
X105417852Y-106828715D01*
X105511343Y-106520516D01*
X105542911Y-106200000D01*
X105511343Y-105879484D01*
X105417852Y-105571285D01*
X105266031Y-105287248D01*
X105061714Y-105038286D01*
X104812752Y-104833969D01*
X104528715Y-104682148D01*
X104220516Y-104588657D01*
X103980322Y-104565000D01*
X103819678Y-104565000D01*
X103579484Y-104588657D01*
X103271285Y-104682148D01*
X102987248Y-104833969D01*
X102738286Y-105038286D01*
X102533969Y-105287248D01*
X102382148Y-105571285D01*
X102288657Y-105879484D01*
X102257089Y-106200000D01*
X100458072Y-106200000D01*
X100458072Y-105200000D01*
X100445812Y-105075518D01*
X100409502Y-104955820D01*
X100350537Y-104845506D01*
X100271185Y-104748815D01*
X100174494Y-104669463D01*
X100085000Y-104621627D01*
X100085000Y-98873685D01*
X100968964Y-97989721D01*
X112565000Y-97989721D01*
X112565000Y-98410279D01*
X112647047Y-98822756D01*
X112807988Y-99211302D01*
X113041637Y-99560983D01*
X113339017Y-99858363D01*
X113688698Y-100092012D01*
X114077244Y-100252953D01*
X114489721Y-100335000D01*
X114910279Y-100335000D01*
X115322756Y-100252953D01*
X115711302Y-100092012D01*
X116060983Y-99858363D01*
X116358363Y-99560983D01*
X116592012Y-99211302D01*
X116752953Y-98822756D01*
X116835000Y-98410279D01*
X116835000Y-97989721D01*
X117165000Y-97989721D01*
X117165000Y-98410279D01*
X117247047Y-98822756D01*
X117407988Y-99211302D01*
X117641637Y-99560983D01*
X117939017Y-99858363D01*
X118288698Y-100092012D01*
X118677244Y-100252953D01*
X119089721Y-100335000D01*
X119510279Y-100335000D01*
X119922756Y-100252953D01*
X120311302Y-100092012D01*
X120660983Y-99858363D01*
X120958363Y-99560983D01*
X121192012Y-99211302D01*
X121352953Y-98822756D01*
X121435000Y-98410279D01*
X121435000Y-97989721D01*
X121765000Y-97989721D01*
X121765000Y-98410279D01*
X121847047Y-98822756D01*
X122007988Y-99211302D01*
X122241637Y-99560983D01*
X122539017Y-99858363D01*
X122888698Y-100092012D01*
X123277244Y-100252953D01*
X123689721Y-100335000D01*
X124110279Y-100335000D01*
X124522756Y-100252953D01*
X124911302Y-100092012D01*
X125260983Y-99858363D01*
X125558363Y-99560983D01*
X125792012Y-99211302D01*
X125952953Y-98822756D01*
X126035000Y-98410279D01*
X126035000Y-97989721D01*
X125952953Y-97577244D01*
X125792012Y-97188698D01*
X125558363Y-96839017D01*
X125260983Y-96541637D01*
X124911302Y-96307988D01*
X124522756Y-96147047D01*
X124110279Y-96065000D01*
X123689721Y-96065000D01*
X123277244Y-96147047D01*
X122888698Y-96307988D01*
X122539017Y-96541637D01*
X122241637Y-96839017D01*
X122007988Y-97188698D01*
X121847047Y-97577244D01*
X121765000Y-97989721D01*
X121435000Y-97989721D01*
X121352953Y-97577244D01*
X121192012Y-97188698D01*
X120958363Y-96839017D01*
X120660983Y-96541637D01*
X120311302Y-96307988D01*
X119922756Y-96147047D01*
X119510279Y-96065000D01*
X119089721Y-96065000D01*
X118677244Y-96147047D01*
X118288698Y-96307988D01*
X117939017Y-96541637D01*
X117641637Y-96839017D01*
X117407988Y-97188698D01*
X117247047Y-97577244D01*
X117165000Y-97989721D01*
X116835000Y-97989721D01*
X116752953Y-97577244D01*
X116592012Y-97188698D01*
X116358363Y-96839017D01*
X116060983Y-96541637D01*
X115711302Y-96307988D01*
X115322756Y-96147047D01*
X114910279Y-96065000D01*
X114489721Y-96065000D01*
X114077244Y-96147047D01*
X113688698Y-96307988D01*
X113339017Y-96541637D01*
X113041637Y-96839017D01*
X112807988Y-97188698D01*
X112647047Y-97577244D01*
X112565000Y-97989721D01*
X100968964Y-97989721D01*
X106668964Y-92289721D01*
X112565000Y-92289721D01*
X112565000Y-92710279D01*
X112647047Y-93122756D01*
X112807988Y-93511302D01*
X113041637Y-93860983D01*
X113339017Y-94158363D01*
X113688698Y-94392012D01*
X114077244Y-94552953D01*
X114489721Y-94635000D01*
X114910279Y-94635000D01*
X115322756Y-94552953D01*
X115711302Y-94392012D01*
X116060983Y-94158363D01*
X116358363Y-93860983D01*
X116592012Y-93511302D01*
X116752953Y-93122756D01*
X116835000Y-92710279D01*
X116835000Y-92289721D01*
X117165000Y-92289721D01*
X117165000Y-92710279D01*
X117247047Y-93122756D01*
X117407988Y-93511302D01*
X117641637Y-93860983D01*
X117939017Y-94158363D01*
X118288698Y-94392012D01*
X118677244Y-94552953D01*
X119089721Y-94635000D01*
X119510279Y-94635000D01*
X119922756Y-94552953D01*
X120311302Y-94392012D01*
X120660983Y-94158363D01*
X120958363Y-93860983D01*
X121192012Y-93511302D01*
X121352953Y-93122756D01*
X121435000Y-92710279D01*
X121435000Y-92289721D01*
X121765000Y-92289721D01*
X121765000Y-92710279D01*
X121847047Y-93122756D01*
X122007988Y-93511302D01*
X122241637Y-93860983D01*
X122539017Y-94158363D01*
X122888698Y-94392012D01*
X123277244Y-94552953D01*
X123689721Y-94635000D01*
X124110279Y-94635000D01*
X124522756Y-94552953D01*
X124911302Y-94392012D01*
X125260983Y-94158363D01*
X125558363Y-93860983D01*
X125792012Y-93511302D01*
X125952953Y-93122756D01*
X126035000Y-92710279D01*
X126035000Y-92289721D01*
X125952953Y-91877244D01*
X125792012Y-91488698D01*
X125558363Y-91139017D01*
X125260983Y-90841637D01*
X124911302Y-90607988D01*
X124522756Y-90447047D01*
X124110279Y-90365000D01*
X123689721Y-90365000D01*
X123277244Y-90447047D01*
X122888698Y-90607988D01*
X122539017Y-90841637D01*
X122241637Y-91139017D01*
X122007988Y-91488698D01*
X121847047Y-91877244D01*
X121765000Y-92289721D01*
X121435000Y-92289721D01*
X121352953Y-91877244D01*
X121192012Y-91488698D01*
X120958363Y-91139017D01*
X120660983Y-90841637D01*
X120311302Y-90607988D01*
X119922756Y-90447047D01*
X119510279Y-90365000D01*
X119089721Y-90365000D01*
X118677244Y-90447047D01*
X118288698Y-90607988D01*
X117939017Y-90841637D01*
X117641637Y-91139017D01*
X117407988Y-91488698D01*
X117247047Y-91877244D01*
X117165000Y-92289721D01*
X116835000Y-92289721D01*
X116752953Y-91877244D01*
X116592012Y-91488698D01*
X116358363Y-91139017D01*
X116060983Y-90841637D01*
X115711302Y-90607988D01*
X115322756Y-90447047D01*
X114910279Y-90365000D01*
X114489721Y-90365000D01*
X114077244Y-90447047D01*
X113688698Y-90607988D01*
X113339017Y-90841637D01*
X113041637Y-91139017D01*
X112807988Y-91488698D01*
X112647047Y-91877244D01*
X112565000Y-92289721D01*
X106668964Y-92289721D01*
X113627711Y-85330975D01*
X113662327Y-85324089D01*
X113950779Y-85204609D01*
X113980126Y-85185000D01*
X121770299Y-85185000D01*
X121774188Y-85224482D01*
X121810498Y-85344180D01*
X121869463Y-85454494D01*
X121948815Y-85551185D01*
X122045506Y-85630537D01*
X122155820Y-85689502D01*
X122275518Y-85725812D01*
X122400000Y-85738072D01*
X125000000Y-85738072D01*
X125124482Y-85725812D01*
X125244180Y-85689502D01*
X125354494Y-85630537D01*
X125451185Y-85551185D01*
X125530537Y-85454494D01*
X125589502Y-85344180D01*
X125625812Y-85224482D01*
X125638072Y-85100000D01*
X125638072Y-82500000D01*
X125625812Y-82375518D01*
X125589502Y-82255820D01*
X125530537Y-82145506D01*
X125451185Y-82048815D01*
X125354494Y-81969463D01*
X125244180Y-81910498D01*
X125124482Y-81874188D01*
X125000000Y-81861928D01*
X122400000Y-81861928D01*
X122275518Y-81874188D01*
X122155820Y-81910498D01*
X122045506Y-81969463D01*
X121948815Y-82048815D01*
X121869463Y-82145506D01*
X121810498Y-82255820D01*
X121774188Y-82375518D01*
X121770299Y-82415000D01*
X113980126Y-82415000D01*
X113950779Y-82395391D01*
X113662327Y-82275911D01*
X113356109Y-82215000D01*
X113043891Y-82215000D01*
X112737673Y-82275911D01*
X112449221Y-82395391D01*
X112189621Y-82568850D01*
X111968850Y-82789621D01*
X111795391Y-83049221D01*
X111675911Y-83337673D01*
X111669025Y-83372289D01*
X97768765Y-97272550D01*
X97715919Y-97315920D01*
X97672550Y-97368765D01*
X97672548Y-97368767D01*
X97542844Y-97526812D01*
X97414236Y-97767420D01*
X97346802Y-97989721D01*
X97335040Y-98028494D01*
X97315000Y-98231964D01*
X97315000Y-98231971D01*
X97308300Y-98300000D01*
X97315000Y-98368029D01*
X97315001Y-104814388D01*
X97289463Y-104845506D01*
X97230498Y-104955820D01*
X97194188Y-105075518D01*
X97181928Y-105200000D01*
X88885000Y-105200000D01*
X88885000Y-104783469D01*
X88889281Y-104740000D01*
X88885000Y-104696531D01*
X88885000Y-104432402D01*
X88898061Y-104435000D01*
X89101939Y-104435000D01*
X89301898Y-104395226D01*
X89490256Y-104317205D01*
X89659774Y-104203937D01*
X89803937Y-104059774D01*
X89917205Y-103890256D01*
X89995226Y-103701898D01*
X90006535Y-103645043D01*
X91197870Y-102453708D01*
X91298102Y-102495226D01*
X91498061Y-102535000D01*
X91701939Y-102535000D01*
X91901898Y-102495226D01*
X92090256Y-102417205D01*
X92259774Y-102303937D01*
X92403937Y-102159774D01*
X92517205Y-101990256D01*
X92595226Y-101801898D01*
X92635000Y-101601939D01*
X92635000Y-101398061D01*
X92595226Y-101198102D01*
X92517205Y-101009744D01*
X92403937Y-100840226D01*
X92259774Y-100696063D01*
X92090256Y-100582795D01*
X91901898Y-100504774D01*
X91701939Y-100465000D01*
X91498061Y-100465000D01*
X91298102Y-100504774D01*
X91109744Y-100582795D01*
X91061546Y-100615000D01*
X90943469Y-100615000D01*
X90900000Y-100610719D01*
X90856531Y-100615000D01*
X90856523Y-100615000D01*
X90726510Y-100627805D01*
X90559687Y-100678411D01*
X90405941Y-100760589D01*
X90304953Y-100843468D01*
X90304951Y-100843470D01*
X90271183Y-100871183D01*
X90243470Y-100904951D01*
X88885000Y-102263422D01*
X88885000Y-89433468D01*
X88889281Y-89389999D01*
X88885000Y-89346530D01*
X88885000Y-89346522D01*
X88872195Y-89216509D01*
X88821589Y-89049686D01*
X88739411Y-88895940D01*
X88628817Y-88761182D01*
X88595049Y-88733469D01*
X87955582Y-88094002D01*
X87985000Y-87946108D01*
X87985000Y-87633890D01*
X87924089Y-87327672D01*
X87804609Y-87039220D01*
X87631150Y-86779620D01*
X87410379Y-86558849D01*
X87150779Y-86385390D01*
X86862327Y-86265910D01*
X86556109Y-86204999D01*
X86243891Y-86204999D01*
X85937673Y-86265910D01*
X85649221Y-86385390D01*
X85389621Y-86558849D01*
X85168850Y-86779620D01*
X85130000Y-86837763D01*
X85091150Y-86779620D01*
X84870379Y-86558849D01*
X84610779Y-86385390D01*
X84322327Y-86265910D01*
X84016109Y-86204999D01*
X83703891Y-86204999D01*
X83397673Y-86265910D01*
X83109221Y-86385390D01*
X82849621Y-86558849D01*
X82628850Y-86779620D01*
X82540613Y-86911675D01*
X82419752Y-86869852D01*
X81499605Y-87789999D01*
X82419752Y-88710146D01*
X82540613Y-88668323D01*
X82628850Y-88800378D01*
X82849621Y-89021149D01*
X83109221Y-89194608D01*
X83397673Y-89314088D01*
X83703891Y-89374999D01*
X84016109Y-89374999D01*
X84322327Y-89314088D01*
X84610779Y-89194608D01*
X84870379Y-89021149D01*
X85091150Y-88800378D01*
X85130000Y-88742235D01*
X85168850Y-88800378D01*
X85389621Y-89021149D01*
X85649221Y-89194608D01*
X85937673Y-89314088D01*
X86243891Y-89374999D01*
X86556109Y-89374999D01*
X86704003Y-89345581D01*
X87115001Y-89756579D01*
X87115000Y-102603422D01*
X85655582Y-101144003D01*
X85685000Y-100996109D01*
X85685000Y-100683891D01*
X85624089Y-100377673D01*
X85504609Y-100089221D01*
X85331150Y-99829621D01*
X85110379Y-99608850D01*
X85052236Y-99570000D01*
X85110379Y-99531150D01*
X85331150Y-99310379D01*
X85504609Y-99050779D01*
X85624089Y-98762327D01*
X85685000Y-98456109D01*
X85685000Y-98143891D01*
X85624089Y-97837673D01*
X85504609Y-97549221D01*
X85331150Y-97289621D01*
X85110379Y-97068850D01*
X84850779Y-96895391D01*
X84562327Y-96775911D01*
X84256109Y-96715000D01*
X83943891Y-96715000D01*
X83637673Y-96775911D01*
X83349221Y-96895391D01*
X83089621Y-97068850D01*
X82868850Y-97289621D01*
X82695391Y-97549221D01*
X82575911Y-97837673D01*
X82515000Y-98143891D01*
X82515000Y-98456109D01*
X82575911Y-98762327D01*
X82695391Y-99050779D01*
X82868850Y-99310379D01*
X83089621Y-99531150D01*
X83147764Y-99570000D01*
X83089621Y-99608850D01*
X82868850Y-99829621D01*
X82695391Y-100089221D01*
X82575911Y-100377673D01*
X82515000Y-100683891D01*
X82515000Y-100996109D01*
X82575911Y-101302327D01*
X82695391Y-101590779D01*
X82868850Y-101850379D01*
X83089621Y-102071150D01*
X83147764Y-102110000D01*
X83089621Y-102148850D01*
X82868850Y-102369621D01*
X82695391Y-102629221D01*
X82575911Y-102917673D01*
X82515000Y-103223891D01*
X82515000Y-103536109D01*
X82575911Y-103842327D01*
X82695391Y-104130779D01*
X82868850Y-104390379D01*
X83089621Y-104611150D01*
X83221676Y-104699387D01*
X83179853Y-104820248D01*
X84100000Y-105740395D01*
X85020147Y-104820248D01*
X84978324Y-104699387D01*
X85110379Y-104611150D01*
X85331150Y-104390379D01*
X85504609Y-104130779D01*
X85624089Y-103842327D01*
X85661694Y-103653273D01*
X87115000Y-105106579D01*
X87115000Y-107343476D01*
X87115001Y-107343486D01*
X87115000Y-110156531D01*
X87110719Y-110200000D01*
X87115000Y-110243469D01*
X87115000Y-110243476D01*
X87127805Y-110373489D01*
X87178411Y-110540312D01*
X87260589Y-110694058D01*
X87371183Y-110828817D01*
X87404956Y-110856534D01*
X94243470Y-117695049D01*
X94271183Y-117728817D01*
X94304951Y-117756530D01*
X94304953Y-117756532D01*
X94405941Y-117839411D01*
X94559686Y-117921589D01*
X94726510Y-117972195D01*
X94856523Y-117985000D01*
X94856531Y-117985000D01*
X94900000Y-117989281D01*
X94943469Y-117985000D01*
X98087489Y-117985000D01*
X98065000Y-118098061D01*
X98065000Y-118301939D01*
X98104774Y-118501898D01*
X98182795Y-118690256D01*
X98222715Y-118750000D01*
X98182795Y-118809744D01*
X98104774Y-118998102D01*
X98065000Y-119198061D01*
X98065000Y-119401939D01*
X98104774Y-119601898D01*
X98182795Y-119790256D01*
X98296063Y-119959774D01*
X98440226Y-120103937D01*
X98502724Y-120145697D01*
X97733422Y-120915000D01*
X81766579Y-120915000D01*
X80056534Y-119204956D01*
X80028817Y-119171183D01*
X79894059Y-119060589D01*
X79740313Y-118978411D01*
X79573490Y-118927805D01*
X79443477Y-118915000D01*
X79443469Y-118915000D01*
X79400000Y-118910719D01*
X79356531Y-118915000D01*
X69594759Y-118915000D01*
X69455134Y-118744866D01*
X69229014Y-118559294D01*
X68971034Y-118421401D01*
X68691111Y-118336487D01*
X68472950Y-118315000D01*
X68327050Y-118315000D01*
X68108889Y-118336487D01*
X67828966Y-118421401D01*
X67570986Y-118559294D01*
X67344866Y-118744866D01*
X67159294Y-118970986D01*
X67021401Y-119228966D01*
X66936487Y-119508889D01*
X66907815Y-119800000D01*
X65233234Y-119800000D01*
X65248895Y-107019752D01*
X83179853Y-107019752D01*
X83269579Y-107279042D01*
X83550671Y-107414935D01*
X83852873Y-107493379D01*
X84164573Y-107511359D01*
X84473791Y-107468184D01*
X84768644Y-107365513D01*
X84930421Y-107279042D01*
X85020147Y-107019752D01*
X84100000Y-106099605D01*
X83179853Y-107019752D01*
X65248895Y-107019752D01*
X65250164Y-105984573D01*
X82508641Y-105984573D01*
X82551816Y-106293791D01*
X82654487Y-106588644D01*
X82740958Y-106750421D01*
X83000248Y-106840147D01*
X83920395Y-105920000D01*
X84279605Y-105920000D01*
X85199752Y-106840147D01*
X85459042Y-106750421D01*
X85594935Y-106469329D01*
X85673379Y-106167127D01*
X85691359Y-105855427D01*
X85648184Y-105546209D01*
X85545513Y-105251356D01*
X85459042Y-105089579D01*
X85199752Y-104999853D01*
X84279605Y-105920000D01*
X83920395Y-105920000D01*
X83000248Y-104999853D01*
X82740958Y-105089579D01*
X82605065Y-105370671D01*
X82526621Y-105672873D01*
X82508641Y-105984573D01*
X65250164Y-105984573D01*
X65272654Y-87633890D01*
X77195000Y-87633890D01*
X77195000Y-87946108D01*
X77255911Y-88252326D01*
X77375391Y-88540778D01*
X77548850Y-88800378D01*
X77769621Y-89021149D01*
X78029221Y-89194608D01*
X78317673Y-89314088D01*
X78623891Y-89374999D01*
X78936109Y-89374999D01*
X79242327Y-89314088D01*
X79530779Y-89194608D01*
X79790379Y-89021149D01*
X79921777Y-88889751D01*
X80399853Y-88889751D01*
X80489579Y-89149041D01*
X80770671Y-89284934D01*
X81072873Y-89363378D01*
X81384573Y-89381358D01*
X81693791Y-89338183D01*
X81988644Y-89235512D01*
X82150421Y-89149041D01*
X82240147Y-88889751D01*
X81320000Y-87969604D01*
X80399853Y-88889751D01*
X79921777Y-88889751D01*
X80011150Y-88800378D01*
X80099387Y-88668323D01*
X80220248Y-88710146D01*
X81140395Y-87789999D01*
X80220248Y-86869852D01*
X80099387Y-86911675D01*
X80011150Y-86779620D01*
X79921777Y-86690247D01*
X80399853Y-86690247D01*
X81320000Y-87610394D01*
X82240147Y-86690247D01*
X82150421Y-86430957D01*
X81869329Y-86295064D01*
X81567127Y-86216620D01*
X81255427Y-86198640D01*
X80946209Y-86241815D01*
X80651356Y-86344486D01*
X80489579Y-86430957D01*
X80399853Y-86690247D01*
X79921777Y-86690247D01*
X79790379Y-86558849D01*
X79530779Y-86385390D01*
X79242327Y-86265910D01*
X78936109Y-86204999D01*
X78623891Y-86204999D01*
X78317673Y-86265910D01*
X78029221Y-86385390D01*
X77769621Y-86558849D01*
X77548850Y-86779620D01*
X77375391Y-87039220D01*
X77255911Y-87327672D01*
X77195000Y-87633890D01*
X65272654Y-87633890D01*
X65290044Y-73443891D01*
X100115000Y-73443891D01*
X100115000Y-73756109D01*
X100175911Y-74062327D01*
X100295391Y-74350779D01*
X100315001Y-74380127D01*
X100315000Y-83019874D01*
X100295391Y-83049221D01*
X100175911Y-83337673D01*
X100115000Y-83643891D01*
X100115000Y-83956109D01*
X100175911Y-84262327D01*
X100295391Y-84550779D01*
X100468850Y-84810379D01*
X100689621Y-85031150D01*
X100949221Y-85204609D01*
X101237673Y-85324089D01*
X101543891Y-85385000D01*
X101856109Y-85385000D01*
X102162327Y-85324089D01*
X102450779Y-85204609D01*
X102710379Y-85031150D01*
X102931150Y-84810379D01*
X103104609Y-84550779D01*
X103224089Y-84262327D01*
X103285000Y-83956109D01*
X103285000Y-83643891D01*
X103224089Y-83337673D01*
X103104609Y-83049221D01*
X103085000Y-83019874D01*
X103085000Y-78609419D01*
X121765000Y-78609419D01*
X121765000Y-78990581D01*
X121839361Y-79364419D01*
X121985225Y-79716566D01*
X122196987Y-80033491D01*
X122466509Y-80303013D01*
X122783434Y-80514775D01*
X123135581Y-80660639D01*
X123509419Y-80735000D01*
X123890581Y-80735000D01*
X124264419Y-80660639D01*
X124616566Y-80514775D01*
X124933491Y-80303013D01*
X125203013Y-80033491D01*
X125414775Y-79716566D01*
X125560639Y-79364419D01*
X125635000Y-78990581D01*
X125635000Y-78609419D01*
X125560639Y-78235581D01*
X125414775Y-77883434D01*
X125203013Y-77566509D01*
X124933491Y-77296987D01*
X124616566Y-77085225D01*
X124264419Y-76939361D01*
X123890581Y-76865000D01*
X123509419Y-76865000D01*
X123135581Y-76939361D01*
X122783434Y-77085225D01*
X122466509Y-77296987D01*
X122196987Y-77566509D01*
X121985225Y-77883434D01*
X121839361Y-78235581D01*
X121765000Y-78609419D01*
X103085000Y-78609419D01*
X103085000Y-74699752D01*
X112279853Y-74699752D01*
X112369579Y-74959042D01*
X112650671Y-75094935D01*
X112952873Y-75173379D01*
X113264573Y-75191359D01*
X113573791Y-75148184D01*
X113868644Y-75045513D01*
X114030421Y-74959042D01*
X114120147Y-74699752D01*
X113200000Y-73779605D01*
X112279853Y-74699752D01*
X103085000Y-74699752D01*
X103085000Y-74380126D01*
X103104609Y-74350779D01*
X103224089Y-74062327D01*
X103285000Y-73756109D01*
X103285000Y-73664573D01*
X111608641Y-73664573D01*
X111651816Y-73973791D01*
X111754487Y-74268644D01*
X111840958Y-74430421D01*
X112100248Y-74520147D01*
X113020395Y-73600000D01*
X113379605Y-73600000D01*
X114299752Y-74520147D01*
X114559042Y-74430421D01*
X114694935Y-74149329D01*
X114773379Y-73847127D01*
X114791359Y-73535427D01*
X114748184Y-73226209D01*
X114645513Y-72931356D01*
X114559042Y-72769579D01*
X114299752Y-72679853D01*
X113379605Y-73600000D01*
X113020395Y-73600000D01*
X112100248Y-72679853D01*
X111840958Y-72769579D01*
X111705065Y-73050671D01*
X111626621Y-73352873D01*
X111608641Y-73664573D01*
X103285000Y-73664573D01*
X103285000Y-73443891D01*
X103224089Y-73137673D01*
X103104609Y-72849221D01*
X102931150Y-72589621D01*
X102841777Y-72500248D01*
X112279853Y-72500248D01*
X113200000Y-73420395D01*
X114120147Y-72500248D01*
X114030421Y-72240958D01*
X113749329Y-72105065D01*
X113447127Y-72026621D01*
X113135427Y-72008641D01*
X112826209Y-72051816D01*
X112531356Y-72154487D01*
X112369579Y-72240958D01*
X112279853Y-72500248D01*
X102841777Y-72500248D01*
X102710379Y-72368850D01*
X102450779Y-72195391D01*
X102162327Y-72075911D01*
X101856109Y-72015000D01*
X101543891Y-72015000D01*
X101237673Y-72075911D01*
X100949221Y-72195391D01*
X100689621Y-72368850D01*
X100468850Y-72589621D01*
X100295391Y-72849221D01*
X100175911Y-73137673D01*
X100115000Y-73443891D01*
X65290044Y-73443891D01*
X65294958Y-69434418D01*
X65313974Y-69240475D01*
X65365000Y-69240475D01*
X65365000Y-69759525D01*
X65466261Y-70268601D01*
X65664893Y-70748141D01*
X65953262Y-71179715D01*
X66320285Y-71546738D01*
X66751859Y-71835107D01*
X67231399Y-72033739D01*
X67740475Y-72135000D01*
X68259525Y-72135000D01*
X68768601Y-72033739D01*
X69248141Y-71835107D01*
X69679715Y-71546738D01*
X70046738Y-71179715D01*
X70070674Y-71143891D01*
X77195000Y-71143891D01*
X77195000Y-71456109D01*
X77255911Y-71762327D01*
X77375391Y-72050779D01*
X77548850Y-72310379D01*
X77769621Y-72531150D01*
X78029221Y-72704609D01*
X78317673Y-72824089D01*
X78623891Y-72885000D01*
X78936109Y-72885000D01*
X79242327Y-72824089D01*
X79530779Y-72704609D01*
X79790379Y-72531150D01*
X80011150Y-72310379D01*
X80050000Y-72252236D01*
X80088850Y-72310379D01*
X80309621Y-72531150D01*
X80569221Y-72704609D01*
X80857673Y-72824089D01*
X81163891Y-72885000D01*
X81476109Y-72885000D01*
X81782327Y-72824089D01*
X82070779Y-72704609D01*
X82330379Y-72531150D01*
X82551150Y-72310379D01*
X82590000Y-72252236D01*
X82628850Y-72310379D01*
X82849621Y-72531150D01*
X83109221Y-72704609D01*
X83397673Y-72824089D01*
X83703891Y-72885000D01*
X84016109Y-72885000D01*
X84322327Y-72824089D01*
X84610779Y-72704609D01*
X84870379Y-72531150D01*
X85091150Y-72310379D01*
X85130000Y-72252236D01*
X85168850Y-72310379D01*
X85389621Y-72531150D01*
X85649221Y-72704609D01*
X85937673Y-72824089D01*
X86243891Y-72885000D01*
X86556109Y-72885000D01*
X86862327Y-72824089D01*
X87150779Y-72704609D01*
X87410379Y-72531150D01*
X87631150Y-72310379D01*
X87804609Y-72050779D01*
X87924089Y-71762327D01*
X87985000Y-71456109D01*
X87985000Y-71143891D01*
X87924089Y-70837673D01*
X87804609Y-70549221D01*
X87631150Y-70289621D01*
X87410379Y-70068850D01*
X87150779Y-69895391D01*
X86862327Y-69775911D01*
X86556109Y-69715000D01*
X86243891Y-69715000D01*
X85937673Y-69775911D01*
X85649221Y-69895391D01*
X85389621Y-70068850D01*
X85168850Y-70289621D01*
X85130000Y-70347764D01*
X85091150Y-70289621D01*
X84870379Y-70068850D01*
X84610779Y-69895391D01*
X84322327Y-69775911D01*
X84016109Y-69715000D01*
X83703891Y-69715000D01*
X83397673Y-69775911D01*
X83109221Y-69895391D01*
X82849621Y-70068850D01*
X82628850Y-70289621D01*
X82590000Y-70347764D01*
X82551150Y-70289621D01*
X82330379Y-70068850D01*
X82070779Y-69895391D01*
X81782327Y-69775911D01*
X81476109Y-69715000D01*
X81163891Y-69715000D01*
X80857673Y-69775911D01*
X80569221Y-69895391D01*
X80309621Y-70068850D01*
X80088850Y-70289621D01*
X80050000Y-70347764D01*
X80011150Y-70289621D01*
X79790379Y-70068850D01*
X79530779Y-69895391D01*
X79242327Y-69775911D01*
X78936109Y-69715000D01*
X78623891Y-69715000D01*
X78317673Y-69775911D01*
X78029221Y-69895391D01*
X77769621Y-70068850D01*
X77548850Y-70289621D01*
X77375391Y-70549221D01*
X77255911Y-70837673D01*
X77195000Y-71143891D01*
X70070674Y-71143891D01*
X70335107Y-70748141D01*
X70533739Y-70268601D01*
X70635000Y-69759525D01*
X70635000Y-69240475D01*
X124365000Y-69240475D01*
X124365000Y-69759525D01*
X124466261Y-70268601D01*
X124664893Y-70748141D01*
X124953262Y-71179715D01*
X125320285Y-71546738D01*
X125751859Y-71835107D01*
X126231399Y-72033739D01*
X126740475Y-72135000D01*
X127259525Y-72135000D01*
X127768601Y-72033739D01*
X128248141Y-71835107D01*
X128679715Y-71546738D01*
X129046738Y-71179715D01*
X129335107Y-70748141D01*
X129533739Y-70268601D01*
X129635000Y-69759525D01*
X129635000Y-69240475D01*
X129533739Y-68731399D01*
X129335107Y-68251859D01*
X129046738Y-67820285D01*
X128679715Y-67453262D01*
X128248141Y-67164893D01*
X127768601Y-66966261D01*
X127259525Y-66865000D01*
X126740475Y-66865000D01*
X126231399Y-66966261D01*
X125751859Y-67164893D01*
X125320285Y-67453262D01*
X124953262Y-67820285D01*
X124664893Y-68251859D01*
X124466261Y-68731399D01*
X124365000Y-69240475D01*
X70635000Y-69240475D01*
X70533739Y-68731399D01*
X70335107Y-68251859D01*
X70046738Y-67820285D01*
X69679715Y-67453262D01*
X69248141Y-67164893D01*
X68768601Y-66966261D01*
X68259525Y-66865000D01*
X67740475Y-66865000D01*
X67231399Y-66966261D01*
X66751859Y-67164893D01*
X66320285Y-67453262D01*
X65953262Y-67820285D01*
X65664893Y-68251859D01*
X65466261Y-68731399D01*
X65365000Y-69240475D01*
X65313974Y-69240475D01*
X65349785Y-68875243D01*
X65502184Y-68370474D01*
X65749722Y-67904923D01*
X66082975Y-67496314D01*
X66489248Y-67160216D01*
X66953065Y-66909431D01*
X67456750Y-66753514D01*
X68013478Y-66695000D01*
X127096633Y-66696469D01*
G36*
X100909744Y-125217205D02*
G01*
X101098102Y-125295226D01*
X101298061Y-125335000D01*
X101501939Y-125335000D01*
X101643192Y-125306903D01*
X101740226Y-125403937D01*
X101909744Y-125517205D01*
X102098102Y-125595226D01*
X102298061Y-125635000D01*
X102501939Y-125635000D01*
X102570409Y-125621381D01*
X102596063Y-125659774D01*
X102740226Y-125803937D01*
X102909744Y-125917205D01*
X103098102Y-125995226D01*
X103298061Y-126035000D01*
X103412692Y-126035000D01*
X103496063Y-126159774D01*
X103640226Y-126303937D01*
X103809744Y-126417205D01*
X103938918Y-126470711D01*
X103909744Y-126482795D01*
X103740226Y-126596063D01*
X103596063Y-126740226D01*
X103482795Y-126909744D01*
X103404774Y-127098102D01*
X103365000Y-127298061D01*
X103365000Y-127360197D01*
X97785199Y-132940000D01*
X93203711Y-132940000D01*
X93159774Y-132896063D01*
X92990256Y-132782795D01*
X92801898Y-132704774D01*
X92601939Y-132665000D01*
X92398061Y-132665000D01*
X92198102Y-132704774D01*
X92009744Y-132782795D01*
X91840226Y-132896063D01*
X91696063Y-133040226D01*
X91582795Y-133209744D01*
X91504774Y-133398102D01*
X91465000Y-133598061D01*
X91465000Y-133801939D01*
X91504774Y-134001898D01*
X91582795Y-134190256D01*
X91696063Y-134359774D01*
X91840226Y-134503937D01*
X92009744Y-134617205D01*
X92198102Y-134695226D01*
X92398061Y-134735000D01*
X92601939Y-134735000D01*
X92801898Y-134695226D01*
X92990256Y-134617205D01*
X93159774Y-134503937D01*
X93203711Y-134460000D01*
X94720556Y-134460000D01*
X94704774Y-134498102D01*
X94665000Y-134698061D01*
X94665000Y-134901939D01*
X94704774Y-135101898D01*
X94782795Y-135290256D01*
X94815000Y-135338455D01*
X94815001Y-138133420D01*
X93933422Y-139015000D01*
X79836579Y-139015000D01*
X81354303Y-137497276D01*
X81396063Y-137559774D01*
X81540226Y-137703937D01*
X81709744Y-137817205D01*
X81898102Y-137895226D01*
X81954957Y-137906535D01*
X82443470Y-138395049D01*
X82471183Y-138428817D01*
X82504951Y-138456530D01*
X82504953Y-138456532D01*
X82544858Y-138489281D01*
X82605941Y-138539411D01*
X82759687Y-138621589D01*
X82926510Y-138672195D01*
X83056523Y-138685000D01*
X83056533Y-138685000D01*
X83099999Y-138689281D01*
X83143465Y-138685000D01*
X91761546Y-138685000D01*
X91809744Y-138717205D01*
X91998102Y-138795226D01*
X92198061Y-138835000D01*
X92401939Y-138835000D01*
X92601898Y-138795226D01*
X92790256Y-138717205D01*
X92959774Y-138603937D01*
X93103937Y-138459774D01*
X93217205Y-138290256D01*
X93295226Y-138101898D01*
X93335000Y-137901939D01*
X93335000Y-137698061D01*
X93295226Y-137498102D01*
X93217205Y-137309744D01*
X93103937Y-137140226D01*
X92959774Y-136996063D01*
X92790256Y-136882795D01*
X92601898Y-136804774D01*
X92401939Y-136765000D01*
X92198061Y-136765000D01*
X91998102Y-136804774D01*
X91809744Y-136882795D01*
X91761546Y-136915000D01*
X83466579Y-136915000D01*
X83206535Y-136654957D01*
X83195226Y-136598102D01*
X83117205Y-136409744D01*
X83003937Y-136240226D01*
X82859774Y-136096063D01*
X82797276Y-136054303D01*
X82816580Y-136034999D01*
X87740847Y-136034999D01*
X87784316Y-136039280D01*
X87827785Y-136034999D01*
X87827793Y-136034999D01*
X87957806Y-136022194D01*
X88124629Y-135971588D01*
X88278375Y-135889410D01*
X88413133Y-135778816D01*
X88440850Y-135745043D01*
X93192845Y-130993049D01*
X93198102Y-130995226D01*
X93398061Y-131035000D01*
X93601939Y-131035000D01*
X93801898Y-130995226D01*
X93990256Y-130917205D01*
X94159774Y-130803937D01*
X94303937Y-130659774D01*
X94417205Y-130490256D01*
X94495226Y-130301898D01*
X94535000Y-130101939D01*
X94535000Y-129987308D01*
X94659774Y-129903937D01*
X94803937Y-129759774D01*
X94917205Y-129590256D01*
X94995226Y-129401898D01*
X95026729Y-129243519D01*
X95090256Y-129217205D01*
X95259774Y-129103937D01*
X95403937Y-128959774D01*
X95517205Y-128790256D01*
X95595226Y-128601898D01*
X95626729Y-128443519D01*
X95690256Y-128417205D01*
X95859774Y-128303937D01*
X96003937Y-128159774D01*
X96117205Y-127990256D01*
X96195226Y-127801898D01*
X96217750Y-127688660D01*
X96390256Y-127617205D01*
X96559774Y-127503937D01*
X96703937Y-127359774D01*
X96817205Y-127190256D01*
X96895226Y-127001898D01*
X96935000Y-126801939D01*
X96935000Y-126598061D01*
X96932402Y-126585000D01*
X97161546Y-126585000D01*
X97209744Y-126617205D01*
X97398102Y-126695226D01*
X97598061Y-126735000D01*
X97801939Y-126735000D01*
X98001898Y-126695226D01*
X98190256Y-126617205D01*
X98359774Y-126503937D01*
X98503937Y-126359774D01*
X98617205Y-126190256D01*
X98695226Y-126001898D01*
X98717750Y-125888660D01*
X98890256Y-125817205D01*
X99059774Y-125703937D01*
X99203937Y-125559774D01*
X99287308Y-125435000D01*
X99401939Y-125435000D01*
X99601898Y-125395226D01*
X99790256Y-125317205D01*
X99890102Y-125250490D01*
X99998102Y-125295226D01*
X100198061Y-125335000D01*
X100401939Y-125335000D01*
X100601898Y-125295226D01*
X100790256Y-125217205D01*
X100850000Y-125177285D01*
X100909744Y-125217205D01*
X100909744Y-125217205D01*
G37*
X100909744Y-125217205D02*
X101098102Y-125295226D01*
X101298061Y-125335000D01*
X101501939Y-125335000D01*
X101643192Y-125306903D01*
X101740226Y-125403937D01*
X101909744Y-125517205D01*
X102098102Y-125595226D01*
X102298061Y-125635000D01*
X102501939Y-125635000D01*
X102570409Y-125621381D01*
X102596063Y-125659774D01*
X102740226Y-125803937D01*
X102909744Y-125917205D01*
X103098102Y-125995226D01*
X103298061Y-126035000D01*
X103412692Y-126035000D01*
X103496063Y-126159774D01*
X103640226Y-126303937D01*
X103809744Y-126417205D01*
X103938918Y-126470711D01*
X103909744Y-126482795D01*
X103740226Y-126596063D01*
X103596063Y-126740226D01*
X103482795Y-126909744D01*
X103404774Y-127098102D01*
X103365000Y-127298061D01*
X103365000Y-127360197D01*
X97785199Y-132940000D01*
X93203711Y-132940000D01*
X93159774Y-132896063D01*
X92990256Y-132782795D01*
X92801898Y-132704774D01*
X92601939Y-132665000D01*
X92398061Y-132665000D01*
X92198102Y-132704774D01*
X92009744Y-132782795D01*
X91840226Y-132896063D01*
X91696063Y-133040226D01*
X91582795Y-133209744D01*
X91504774Y-133398102D01*
X91465000Y-133598061D01*
X91465000Y-133801939D01*
X91504774Y-134001898D01*
X91582795Y-134190256D01*
X91696063Y-134359774D01*
X91840226Y-134503937D01*
X92009744Y-134617205D01*
X92198102Y-134695226D01*
X92398061Y-134735000D01*
X92601939Y-134735000D01*
X92801898Y-134695226D01*
X92990256Y-134617205D01*
X93159774Y-134503937D01*
X93203711Y-134460000D01*
X94720556Y-134460000D01*
X94704774Y-134498102D01*
X94665000Y-134698061D01*
X94665000Y-134901939D01*
X94704774Y-135101898D01*
X94782795Y-135290256D01*
X94815000Y-135338455D01*
X94815001Y-138133420D01*
X93933422Y-139015000D01*
X79836579Y-139015000D01*
X81354303Y-137497276D01*
X81396063Y-137559774D01*
X81540226Y-137703937D01*
X81709744Y-137817205D01*
X81898102Y-137895226D01*
X81954957Y-137906535D01*
X82443470Y-138395049D01*
X82471183Y-138428817D01*
X82504951Y-138456530D01*
X82504953Y-138456532D01*
X82544858Y-138489281D01*
X82605941Y-138539411D01*
X82759687Y-138621589D01*
X82926510Y-138672195D01*
X83056523Y-138685000D01*
X83056533Y-138685000D01*
X83099999Y-138689281D01*
X83143465Y-138685000D01*
X91761546Y-138685000D01*
X91809744Y-138717205D01*
X91998102Y-138795226D01*
X92198061Y-138835000D01*
X92401939Y-138835000D01*
X92601898Y-138795226D01*
X92790256Y-138717205D01*
X92959774Y-138603937D01*
X93103937Y-138459774D01*
X93217205Y-138290256D01*
X93295226Y-138101898D01*
X93335000Y-137901939D01*
X93335000Y-137698061D01*
X93295226Y-137498102D01*
X93217205Y-137309744D01*
X93103937Y-137140226D01*
X92959774Y-136996063D01*
X92790256Y-136882795D01*
X92601898Y-136804774D01*
X92401939Y-136765000D01*
X92198061Y-136765000D01*
X91998102Y-136804774D01*
X91809744Y-136882795D01*
X91761546Y-136915000D01*
X83466579Y-136915000D01*
X83206535Y-136654957D01*
X83195226Y-136598102D01*
X83117205Y-136409744D01*
X83003937Y-136240226D01*
X82859774Y-136096063D01*
X82797276Y-136054303D01*
X82816580Y-136034999D01*
X87740847Y-136034999D01*
X87784316Y-136039280D01*
X87827785Y-136034999D01*
X87827793Y-136034999D01*
X87957806Y-136022194D01*
X88124629Y-135971588D01*
X88278375Y-135889410D01*
X88413133Y-135778816D01*
X88440850Y-135745043D01*
X93192845Y-130993049D01*
X93198102Y-130995226D01*
X93398061Y-131035000D01*
X93601939Y-131035000D01*
X93801898Y-130995226D01*
X93990256Y-130917205D01*
X94159774Y-130803937D01*
X94303937Y-130659774D01*
X94417205Y-130490256D01*
X94495226Y-130301898D01*
X94535000Y-130101939D01*
X94535000Y-129987308D01*
X94659774Y-129903937D01*
X94803937Y-129759774D01*
X94917205Y-129590256D01*
X94995226Y-129401898D01*
X95026729Y-129243519D01*
X95090256Y-129217205D01*
X95259774Y-129103937D01*
X95403937Y-128959774D01*
X95517205Y-128790256D01*
X95595226Y-128601898D01*
X95626729Y-128443519D01*
X95690256Y-128417205D01*
X95859774Y-128303937D01*
X96003937Y-128159774D01*
X96117205Y-127990256D01*
X96195226Y-127801898D01*
X96217750Y-127688660D01*
X96390256Y-127617205D01*
X96559774Y-127503937D01*
X96703937Y-127359774D01*
X96817205Y-127190256D01*
X96895226Y-127001898D01*
X96935000Y-126801939D01*
X96935000Y-126598061D01*
X96932402Y-126585000D01*
X97161546Y-126585000D01*
X97209744Y-126617205D01*
X97398102Y-126695226D01*
X97598061Y-126735000D01*
X97801939Y-126735000D01*
X98001898Y-126695226D01*
X98190256Y-126617205D01*
X98359774Y-126503937D01*
X98503937Y-126359774D01*
X98617205Y-126190256D01*
X98695226Y-126001898D01*
X98717750Y-125888660D01*
X98890256Y-125817205D01*
X99059774Y-125703937D01*
X99203937Y-125559774D01*
X99287308Y-125435000D01*
X99401939Y-125435000D01*
X99601898Y-125395226D01*
X99790256Y-125317205D01*
X99890102Y-125250490D01*
X99998102Y-125295226D01*
X100198061Y-125335000D01*
X100401939Y-125335000D01*
X100601898Y-125295226D01*
X100790256Y-125217205D01*
X100850000Y-125177285D01*
X100909744Y-125217205D01*
M02*
