G04 #@! TF.GenerationSoftware,KiCad,Pcbnew,5.1.4*
G04 #@! TF.CreationDate,2019-09-16T18:09:56+12:00*
G04 #@! TF.ProjectId,spiroBoardV2,73706972-6f42-46f6-9172-6456322e6b69,rev?*
G04 #@! TF.SameCoordinates,Original*
G04 #@! TF.FileFunction,Soldermask,Top*
G04 #@! TF.FilePolarity,Negative*
%FSLAX46Y46*%
G04 Gerber Fmt 4.6, Leading zero omitted, Abs format (unit mm)*
G04 Created by KiCad (PCBNEW 5.1.4) date 2019-09-16 18:09:56*
%MOMM*%
%LPD*%
G04 APERTURE LIST*
%ADD10C,0.100000*%
G04 APERTURE END LIST*
D10*
G36*
X127598254Y-149027818D02*
G01*
X127971511Y-149182426D01*
X127971513Y-149182427D01*
X128090168Y-149261710D01*
X128307436Y-149406884D01*
X128593116Y-149692564D01*
X128817574Y-150028489D01*
X128972182Y-150401746D01*
X129051000Y-150797993D01*
X129051000Y-151202007D01*
X128972182Y-151598254D01*
X128817574Y-151971511D01*
X128817573Y-151971513D01*
X128593116Y-152307436D01*
X128307436Y-152593116D01*
X127971513Y-152817573D01*
X127971512Y-152817574D01*
X127971511Y-152817574D01*
X127598254Y-152972182D01*
X127202007Y-153051000D01*
X126797993Y-153051000D01*
X126401746Y-152972182D01*
X126028489Y-152817574D01*
X126028488Y-152817574D01*
X126028487Y-152817573D01*
X125692564Y-152593116D01*
X125406884Y-152307436D01*
X125182427Y-151971513D01*
X125182426Y-151971511D01*
X125027818Y-151598254D01*
X124949000Y-151202007D01*
X124949000Y-150797993D01*
X125027818Y-150401746D01*
X125182426Y-150028489D01*
X125406884Y-149692564D01*
X125692564Y-149406884D01*
X125909832Y-149261710D01*
X126028487Y-149182427D01*
X126028489Y-149182426D01*
X126401746Y-149027818D01*
X126797993Y-148949000D01*
X127202007Y-148949000D01*
X127598254Y-149027818D01*
X127598254Y-149027818D01*
G37*
G36*
X68598254Y-149027818D02*
G01*
X68971511Y-149182426D01*
X68971513Y-149182427D01*
X69090168Y-149261710D01*
X69307436Y-149406884D01*
X69593116Y-149692564D01*
X69817574Y-150028489D01*
X69972182Y-150401746D01*
X70051000Y-150797993D01*
X70051000Y-151202007D01*
X69972182Y-151598254D01*
X69817574Y-151971511D01*
X69817573Y-151971513D01*
X69593116Y-152307436D01*
X69307436Y-152593116D01*
X68971513Y-152817573D01*
X68971512Y-152817574D01*
X68971511Y-152817574D01*
X68598254Y-152972182D01*
X68202007Y-153051000D01*
X67797993Y-153051000D01*
X67401746Y-152972182D01*
X67028489Y-152817574D01*
X67028488Y-152817574D01*
X67028487Y-152817573D01*
X66692564Y-152593116D01*
X66406884Y-152307436D01*
X66182427Y-151971513D01*
X66182426Y-151971511D01*
X66027818Y-151598254D01*
X65949000Y-151202007D01*
X65949000Y-150797993D01*
X66027818Y-150401746D01*
X66182426Y-150028489D01*
X66406884Y-149692564D01*
X66692564Y-149406884D01*
X66909832Y-149261710D01*
X67028487Y-149182427D01*
X67028489Y-149182426D01*
X67401746Y-149027818D01*
X67797993Y-148949000D01*
X68202007Y-148949000D01*
X68598254Y-149027818D01*
X68598254Y-149027818D01*
G37*
G36*
X98960721Y-149220174D02*
G01*
X99060995Y-149261709D01*
X99060996Y-149261710D01*
X99151242Y-149322010D01*
X99227990Y-149398758D01*
X99258345Y-149444188D01*
X99288291Y-149489005D01*
X99329826Y-149589279D01*
X99351000Y-149695730D01*
X99351000Y-149804270D01*
X99329826Y-149910721D01*
X99288291Y-150010995D01*
X99288290Y-150010996D01*
X99227990Y-150101242D01*
X99151242Y-150177990D01*
X99105812Y-150208345D01*
X99060995Y-150238291D01*
X98960721Y-150279826D01*
X98854270Y-150301000D01*
X98745730Y-150301000D01*
X98639279Y-150279826D01*
X98539005Y-150238291D01*
X98494188Y-150208345D01*
X98448758Y-150177990D01*
X98372010Y-150101242D01*
X98311710Y-150010996D01*
X98311709Y-150010995D01*
X98270174Y-149910721D01*
X98249000Y-149804270D01*
X98249000Y-149695730D01*
X98270174Y-149589279D01*
X98311709Y-149489005D01*
X98341655Y-149444188D01*
X98372010Y-149398758D01*
X98448758Y-149322010D01*
X98539004Y-149261710D01*
X98539005Y-149261709D01*
X98639279Y-149220174D01*
X98745730Y-149199000D01*
X98854270Y-149199000D01*
X98960721Y-149220174D01*
X98960721Y-149220174D01*
G37*
G36*
X103360721Y-149220174D02*
G01*
X103460995Y-149261709D01*
X103460996Y-149261710D01*
X103551242Y-149322010D01*
X103627990Y-149398758D01*
X103658345Y-149444188D01*
X103688291Y-149489005D01*
X103729826Y-149589279D01*
X103751000Y-149695730D01*
X103751000Y-149804270D01*
X103729826Y-149910721D01*
X103688291Y-150010995D01*
X103688290Y-150010996D01*
X103627990Y-150101242D01*
X103551242Y-150177990D01*
X103505812Y-150208345D01*
X103460995Y-150238291D01*
X103360721Y-150279826D01*
X103254270Y-150301000D01*
X103145730Y-150301000D01*
X103039279Y-150279826D01*
X102939005Y-150238291D01*
X102894188Y-150208345D01*
X102848758Y-150177990D01*
X102772010Y-150101242D01*
X102711710Y-150010996D01*
X102711709Y-150010995D01*
X102670174Y-149910721D01*
X102649000Y-149804270D01*
X102649000Y-149695730D01*
X102670174Y-149589279D01*
X102711709Y-149489005D01*
X102741655Y-149444188D01*
X102772010Y-149398758D01*
X102848758Y-149322010D01*
X102939004Y-149261710D01*
X102939005Y-149261709D01*
X103039279Y-149220174D01*
X103145730Y-149199000D01*
X103254270Y-149199000D01*
X103360721Y-149220174D01*
X103360721Y-149220174D01*
G37*
G36*
X120101000Y-146585085D02*
G01*
X120099583Y-146585515D01*
X120077972Y-146597066D01*
X120059030Y-146612611D01*
X120043485Y-146631553D01*
X120031934Y-146653164D01*
X120024821Y-146676613D01*
X120022419Y-146700999D01*
X120024821Y-146725385D01*
X120031934Y-146748834D01*
X120043485Y-146770445D01*
X120050793Y-146780298D01*
X120062494Y-146794556D01*
X120083275Y-146833434D01*
X120096074Y-146875627D01*
X120101000Y-146925641D01*
X120101000Y-147614359D01*
X120096074Y-147664373D01*
X120083275Y-147706566D01*
X120062494Y-147745444D01*
X120034525Y-147779525D01*
X119999371Y-147808375D01*
X119982044Y-147825702D01*
X119968431Y-147846076D01*
X119959053Y-147868715D01*
X119954273Y-147892748D01*
X119954273Y-147917253D01*
X119959054Y-147941286D01*
X119968431Y-147963925D01*
X119982045Y-147984299D01*
X119999371Y-148001625D01*
X120034525Y-148030475D01*
X120062494Y-148064556D01*
X120083275Y-148103434D01*
X120096074Y-148145627D01*
X120101000Y-148195641D01*
X120101000Y-148884359D01*
X120096074Y-148934373D01*
X120083275Y-148976566D01*
X120062494Y-149015444D01*
X120034525Y-149049525D01*
X120000444Y-149077494D01*
X119961566Y-149098275D01*
X119919373Y-149111074D01*
X119869359Y-149116000D01*
X118730641Y-149116000D01*
X118680627Y-149111074D01*
X118638434Y-149098275D01*
X118599556Y-149077494D01*
X118565475Y-149049525D01*
X118537506Y-149015444D01*
X118516725Y-148976566D01*
X118503926Y-148934373D01*
X118499000Y-148884359D01*
X118499000Y-148195641D01*
X118503926Y-148145627D01*
X118516725Y-148103434D01*
X118537506Y-148064556D01*
X118565475Y-148030475D01*
X118600629Y-148001625D01*
X118617956Y-147984298D01*
X118631569Y-147963924D01*
X118640947Y-147941285D01*
X118645727Y-147917252D01*
X118645727Y-147892747D01*
X118640946Y-147868714D01*
X118631569Y-147846075D01*
X118617955Y-147825701D01*
X118600629Y-147808375D01*
X118565475Y-147779525D01*
X118537506Y-147745444D01*
X118516725Y-147706566D01*
X118503926Y-147664373D01*
X118499000Y-147614359D01*
X118499000Y-146925641D01*
X118503926Y-146875627D01*
X118516725Y-146833434D01*
X118537506Y-146794556D01*
X118549207Y-146780298D01*
X118562821Y-146759924D01*
X118572198Y-146737285D01*
X118576979Y-146713252D01*
X118576979Y-146688748D01*
X118572199Y-146664714D01*
X118562822Y-146642075D01*
X118549208Y-146621701D01*
X118531881Y-146604374D01*
X118511507Y-146590760D01*
X118499000Y-146585580D01*
X118499000Y-145424000D01*
X120101000Y-145424000D01*
X120101000Y-146585085D01*
X120101000Y-146585085D01*
G37*
G36*
X85801000Y-148201000D02*
G01*
X83999000Y-148201000D01*
X83999000Y-146399000D01*
X85801000Y-146399000D01*
X85801000Y-148201000D01*
X85801000Y-148201000D01*
G37*
G36*
X82470443Y-146405519D02*
G01*
X82536627Y-146412037D01*
X82706466Y-146463557D01*
X82862991Y-146547222D01*
X82898057Y-146576000D01*
X83000186Y-146659814D01*
X83068074Y-146742537D01*
X83112778Y-146797009D01*
X83196443Y-146953534D01*
X83247963Y-147123373D01*
X83265359Y-147300000D01*
X83247963Y-147476627D01*
X83196443Y-147646466D01*
X83112778Y-147802991D01*
X83108359Y-147808375D01*
X83000186Y-147940186D01*
X82898729Y-148023448D01*
X82862991Y-148052778D01*
X82706466Y-148136443D01*
X82536627Y-148187963D01*
X82470443Y-148194481D01*
X82404260Y-148201000D01*
X82315740Y-148201000D01*
X82249557Y-148194481D01*
X82183373Y-148187963D01*
X82013534Y-148136443D01*
X81857009Y-148052778D01*
X81821271Y-148023448D01*
X81719814Y-147940186D01*
X81611641Y-147808375D01*
X81607222Y-147802991D01*
X81523557Y-147646466D01*
X81472037Y-147476627D01*
X81454641Y-147300000D01*
X81472037Y-147123373D01*
X81523557Y-146953534D01*
X81607222Y-146797009D01*
X81651926Y-146742537D01*
X81719814Y-146659814D01*
X81821943Y-146576000D01*
X81857009Y-146547222D01*
X82013534Y-146463557D01*
X82183373Y-146412037D01*
X82249557Y-146405519D01*
X82315740Y-146399000D01*
X82404260Y-146399000D01*
X82470443Y-146405519D01*
X82470443Y-146405519D01*
G37*
G36*
X69301000Y-146101000D02*
G01*
X67499000Y-146101000D01*
X67499000Y-144299000D01*
X69301000Y-144299000D01*
X69301000Y-146101000D01*
X69301000Y-146101000D01*
G37*
G36*
X85010442Y-143865518D02*
G01*
X85076627Y-143872037D01*
X85246466Y-143923557D01*
X85402991Y-144007222D01*
X85438729Y-144036552D01*
X85540186Y-144119814D01*
X85623448Y-144221271D01*
X85652778Y-144257009D01*
X85736443Y-144413534D01*
X85787963Y-144583373D01*
X85805359Y-144760000D01*
X85787963Y-144936627D01*
X85736443Y-145106466D01*
X85652778Y-145262991D01*
X85623448Y-145298729D01*
X85540186Y-145400186D01*
X85438729Y-145483448D01*
X85402991Y-145512778D01*
X85246466Y-145596443D01*
X85076627Y-145647963D01*
X85010442Y-145654482D01*
X84944260Y-145661000D01*
X84855740Y-145661000D01*
X84789558Y-145654482D01*
X84723373Y-145647963D01*
X84553534Y-145596443D01*
X84397009Y-145512778D01*
X84361271Y-145483448D01*
X84259814Y-145400186D01*
X84176552Y-145298729D01*
X84147222Y-145262991D01*
X84063557Y-145106466D01*
X84012037Y-144936627D01*
X83994641Y-144760000D01*
X84012037Y-144583373D01*
X84063557Y-144413534D01*
X84147222Y-144257009D01*
X84176552Y-144221271D01*
X84259814Y-144119814D01*
X84361271Y-144036552D01*
X84397009Y-144007222D01*
X84553534Y-143923557D01*
X84723373Y-143872037D01*
X84789558Y-143865518D01*
X84855740Y-143859000D01*
X84944260Y-143859000D01*
X85010442Y-143865518D01*
X85010442Y-143865518D01*
G37*
G36*
X82470442Y-143865518D02*
G01*
X82536627Y-143872037D01*
X82706466Y-143923557D01*
X82862991Y-144007222D01*
X82898729Y-144036552D01*
X83000186Y-144119814D01*
X83083448Y-144221271D01*
X83112778Y-144257009D01*
X83196443Y-144413534D01*
X83247963Y-144583373D01*
X83265359Y-144760000D01*
X83247963Y-144936627D01*
X83196443Y-145106466D01*
X83112778Y-145262991D01*
X83083448Y-145298729D01*
X83000186Y-145400186D01*
X82898729Y-145483448D01*
X82862991Y-145512778D01*
X82706466Y-145596443D01*
X82536627Y-145647963D01*
X82470442Y-145654482D01*
X82404260Y-145661000D01*
X82315740Y-145661000D01*
X82249558Y-145654482D01*
X82183373Y-145647963D01*
X82013534Y-145596443D01*
X81857009Y-145512778D01*
X81821271Y-145483448D01*
X81719814Y-145400186D01*
X81636552Y-145298729D01*
X81607222Y-145262991D01*
X81523557Y-145106466D01*
X81472037Y-144936627D01*
X81454641Y-144760000D01*
X81472037Y-144583373D01*
X81523557Y-144413534D01*
X81607222Y-144257009D01*
X81636552Y-144221271D01*
X81719814Y-144119814D01*
X81821271Y-144036552D01*
X81857009Y-144007222D01*
X82013534Y-143923557D01*
X82183373Y-143872037D01*
X82249558Y-143865518D01*
X82315740Y-143859000D01*
X82404260Y-143859000D01*
X82470442Y-143865518D01*
X82470442Y-143865518D01*
G37*
G36*
X68510443Y-141765519D02*
G01*
X68576627Y-141772037D01*
X68746466Y-141823557D01*
X68902991Y-141907222D01*
X68938729Y-141936552D01*
X69040186Y-142019814D01*
X69123448Y-142121271D01*
X69152778Y-142157009D01*
X69236443Y-142313534D01*
X69287963Y-142483373D01*
X69305359Y-142660000D01*
X69287963Y-142836627D01*
X69236443Y-143006466D01*
X69152778Y-143162991D01*
X69123448Y-143198729D01*
X69040186Y-143300186D01*
X68938729Y-143383448D01*
X68902991Y-143412778D01*
X68746466Y-143496443D01*
X68576627Y-143547963D01*
X68510442Y-143554482D01*
X68444260Y-143561000D01*
X68355740Y-143561000D01*
X68289558Y-143554482D01*
X68223373Y-143547963D01*
X68053534Y-143496443D01*
X67897009Y-143412778D01*
X67861271Y-143383448D01*
X67759814Y-143300186D01*
X67676552Y-143198729D01*
X67647222Y-143162991D01*
X67563557Y-143006466D01*
X67512037Y-142836627D01*
X67494641Y-142660000D01*
X67512037Y-142483373D01*
X67563557Y-142313534D01*
X67647222Y-142157009D01*
X67676552Y-142121271D01*
X67759814Y-142019814D01*
X67861271Y-141936552D01*
X67897009Y-141907222D01*
X68053534Y-141823557D01*
X68223373Y-141772037D01*
X68289557Y-141765519D01*
X68355740Y-141759000D01*
X68444260Y-141759000D01*
X68510443Y-141765519D01*
X68510443Y-141765519D01*
G37*
G36*
X127801000Y-143501000D02*
G01*
X125999000Y-143501000D01*
X125999000Y-141699000D01*
X127801000Y-141699000D01*
X127801000Y-143501000D01*
X127801000Y-143501000D01*
G37*
G36*
X82470443Y-141325519D02*
G01*
X82536627Y-141332037D01*
X82706466Y-141383557D01*
X82862991Y-141467222D01*
X82898729Y-141496552D01*
X83000186Y-141579814D01*
X83083448Y-141681271D01*
X83112778Y-141717009D01*
X83196443Y-141873534D01*
X83247963Y-142043373D01*
X83265359Y-142220000D01*
X83247963Y-142396627D01*
X83196443Y-142566466D01*
X83112778Y-142722991D01*
X83083448Y-142758729D01*
X83000186Y-142860186D01*
X82898729Y-142943448D01*
X82862991Y-142972778D01*
X82706466Y-143056443D01*
X82536627Y-143107963D01*
X82470442Y-143114482D01*
X82404260Y-143121000D01*
X82315740Y-143121000D01*
X82249558Y-143114482D01*
X82183373Y-143107963D01*
X82013534Y-143056443D01*
X81857009Y-142972778D01*
X81821271Y-142943448D01*
X81719814Y-142860186D01*
X81636552Y-142758729D01*
X81607222Y-142722991D01*
X81523557Y-142566466D01*
X81472037Y-142396627D01*
X81454641Y-142220000D01*
X81472037Y-142043373D01*
X81523557Y-141873534D01*
X81607222Y-141717009D01*
X81636552Y-141681271D01*
X81719814Y-141579814D01*
X81821271Y-141496552D01*
X81857009Y-141467222D01*
X82013534Y-141383557D01*
X82183373Y-141332037D01*
X82249557Y-141325519D01*
X82315740Y-141319000D01*
X82404260Y-141319000D01*
X82470443Y-141325519D01*
X82470443Y-141325519D01*
G37*
G36*
X85010443Y-141325519D02*
G01*
X85076627Y-141332037D01*
X85246466Y-141383557D01*
X85402991Y-141467222D01*
X85438729Y-141496552D01*
X85540186Y-141579814D01*
X85623448Y-141681271D01*
X85652778Y-141717009D01*
X85736443Y-141873534D01*
X85787963Y-142043373D01*
X85805359Y-142220000D01*
X85787963Y-142396627D01*
X85736443Y-142566466D01*
X85652778Y-142722991D01*
X85623448Y-142758729D01*
X85540186Y-142860186D01*
X85438729Y-142943448D01*
X85402991Y-142972778D01*
X85246466Y-143056443D01*
X85076627Y-143107963D01*
X85010442Y-143114482D01*
X84944260Y-143121000D01*
X84855740Y-143121000D01*
X84789558Y-143114482D01*
X84723373Y-143107963D01*
X84553534Y-143056443D01*
X84397009Y-142972778D01*
X84361271Y-142943448D01*
X84259814Y-142860186D01*
X84176552Y-142758729D01*
X84147222Y-142722991D01*
X84063557Y-142566466D01*
X84012037Y-142396627D01*
X83994641Y-142220000D01*
X84012037Y-142043373D01*
X84063557Y-141873534D01*
X84147222Y-141717009D01*
X84176552Y-141681271D01*
X84259814Y-141579814D01*
X84361271Y-141496552D01*
X84397009Y-141467222D01*
X84553534Y-141383557D01*
X84723373Y-141332037D01*
X84789557Y-141325519D01*
X84855740Y-141319000D01*
X84944260Y-141319000D01*
X85010443Y-141325519D01*
X85010443Y-141325519D01*
G37*
G36*
X68490527Y-139223557D02*
G01*
X68576627Y-139232037D01*
X68746466Y-139283557D01*
X68902991Y-139367222D01*
X68938729Y-139396552D01*
X69040186Y-139479814D01*
X69103537Y-139557009D01*
X69152778Y-139617009D01*
X69236443Y-139773534D01*
X69287963Y-139943373D01*
X69305359Y-140120000D01*
X69287963Y-140296627D01*
X69236443Y-140466466D01*
X69152778Y-140622991D01*
X69123448Y-140658729D01*
X69040186Y-140760186D01*
X68938729Y-140843448D01*
X68902991Y-140872778D01*
X68746466Y-140956443D01*
X68576627Y-141007963D01*
X68510443Y-141014481D01*
X68444260Y-141021000D01*
X68355740Y-141021000D01*
X68289557Y-141014481D01*
X68223373Y-141007963D01*
X68053534Y-140956443D01*
X67897009Y-140872778D01*
X67861271Y-140843448D01*
X67759814Y-140760186D01*
X67676552Y-140658729D01*
X67647222Y-140622991D01*
X67563557Y-140466466D01*
X67512037Y-140296627D01*
X67494641Y-140120000D01*
X67512037Y-139943373D01*
X67563557Y-139773534D01*
X67647222Y-139617009D01*
X67696463Y-139557009D01*
X67759814Y-139479814D01*
X67861271Y-139396552D01*
X67897009Y-139367222D01*
X68053534Y-139283557D01*
X68223373Y-139232037D01*
X68309473Y-139223557D01*
X68355740Y-139219000D01*
X68444260Y-139219000D01*
X68490527Y-139223557D01*
X68490527Y-139223557D01*
G37*
G36*
X127010443Y-139165519D02*
G01*
X127076627Y-139172037D01*
X127246466Y-139223557D01*
X127402991Y-139307222D01*
X127438729Y-139336552D01*
X127540186Y-139419814D01*
X127623448Y-139521271D01*
X127652778Y-139557009D01*
X127736443Y-139713534D01*
X127787963Y-139883373D01*
X127805359Y-140060000D01*
X127787963Y-140236627D01*
X127736443Y-140406466D01*
X127652778Y-140562991D01*
X127623448Y-140598729D01*
X127540186Y-140700186D01*
X127438729Y-140783448D01*
X127402991Y-140812778D01*
X127246466Y-140896443D01*
X127076627Y-140947963D01*
X127010442Y-140954482D01*
X126944260Y-140961000D01*
X126855740Y-140961000D01*
X126789558Y-140954482D01*
X126723373Y-140947963D01*
X126553534Y-140896443D01*
X126397009Y-140812778D01*
X126361271Y-140783448D01*
X126259814Y-140700186D01*
X126176552Y-140598729D01*
X126147222Y-140562991D01*
X126063557Y-140406466D01*
X126012037Y-140236627D01*
X125994641Y-140060000D01*
X126012037Y-139883373D01*
X126063557Y-139713534D01*
X126147222Y-139557009D01*
X126176552Y-139521271D01*
X126259814Y-139419814D01*
X126361271Y-139336552D01*
X126397009Y-139307222D01*
X126553534Y-139223557D01*
X126723373Y-139172037D01*
X126789557Y-139165519D01*
X126855740Y-139159000D01*
X126944260Y-139159000D01*
X127010443Y-139165519D01*
X127010443Y-139165519D01*
G37*
G36*
X68490527Y-136683557D02*
G01*
X68576627Y-136692037D01*
X68746466Y-136743557D01*
X68902991Y-136827222D01*
X68938729Y-136856552D01*
X69040186Y-136939814D01*
X69103537Y-137017009D01*
X69152778Y-137077009D01*
X69236443Y-137233534D01*
X69287963Y-137403373D01*
X69305359Y-137580000D01*
X69287963Y-137756627D01*
X69236443Y-137926466D01*
X69152778Y-138082991D01*
X69123448Y-138118729D01*
X69040186Y-138220186D01*
X68938729Y-138303448D01*
X68902991Y-138332778D01*
X68746466Y-138416443D01*
X68576627Y-138467963D01*
X68510443Y-138474481D01*
X68444260Y-138481000D01*
X68355740Y-138481000D01*
X68289557Y-138474481D01*
X68223373Y-138467963D01*
X68053534Y-138416443D01*
X67897009Y-138332778D01*
X67861271Y-138303448D01*
X67759814Y-138220186D01*
X67676552Y-138118729D01*
X67647222Y-138082991D01*
X67563557Y-137926466D01*
X67512037Y-137756627D01*
X67494641Y-137580000D01*
X67512037Y-137403373D01*
X67563557Y-137233534D01*
X67647222Y-137077009D01*
X67696463Y-137017009D01*
X67759814Y-136939814D01*
X67861271Y-136856552D01*
X67897009Y-136827222D01*
X68053534Y-136743557D01*
X68223373Y-136692037D01*
X68309473Y-136683557D01*
X68355740Y-136679000D01*
X68444260Y-136679000D01*
X68490527Y-136683557D01*
X68490527Y-136683557D01*
G37*
G36*
X127010442Y-136625518D02*
G01*
X127076627Y-136632037D01*
X127246466Y-136683557D01*
X127402991Y-136767222D01*
X127438729Y-136796552D01*
X127540186Y-136879814D01*
X127623448Y-136981271D01*
X127652778Y-137017009D01*
X127736443Y-137173534D01*
X127787963Y-137343373D01*
X127805359Y-137520000D01*
X127787963Y-137696627D01*
X127736443Y-137866466D01*
X127652778Y-138022991D01*
X127623448Y-138058729D01*
X127540186Y-138160186D01*
X127438729Y-138243448D01*
X127402991Y-138272778D01*
X127246466Y-138356443D01*
X127076627Y-138407963D01*
X127010443Y-138414481D01*
X126944260Y-138421000D01*
X126855740Y-138421000D01*
X126789557Y-138414481D01*
X126723373Y-138407963D01*
X126553534Y-138356443D01*
X126397009Y-138272778D01*
X126361271Y-138243448D01*
X126259814Y-138160186D01*
X126176552Y-138058729D01*
X126147222Y-138022991D01*
X126063557Y-137866466D01*
X126012037Y-137696627D01*
X125994641Y-137520000D01*
X126012037Y-137343373D01*
X126063557Y-137173534D01*
X126147222Y-137017009D01*
X126176552Y-136981271D01*
X126259814Y-136879814D01*
X126361271Y-136796552D01*
X126397009Y-136767222D01*
X126553534Y-136683557D01*
X126723373Y-136632037D01*
X126789558Y-136625518D01*
X126855740Y-136619000D01*
X126944260Y-136619000D01*
X127010442Y-136625518D01*
X127010442Y-136625518D01*
G37*
G36*
X68490527Y-134143557D02*
G01*
X68576627Y-134152037D01*
X68746466Y-134203557D01*
X68902991Y-134287222D01*
X68938729Y-134316552D01*
X69040186Y-134399814D01*
X69103537Y-134477009D01*
X69152778Y-134537009D01*
X69236443Y-134693534D01*
X69287963Y-134863373D01*
X69305359Y-135040000D01*
X69287963Y-135216627D01*
X69236443Y-135386466D01*
X69152778Y-135542991D01*
X69123448Y-135578729D01*
X69040186Y-135680186D01*
X68938729Y-135763448D01*
X68902991Y-135792778D01*
X68746466Y-135876443D01*
X68576627Y-135927963D01*
X68510442Y-135934482D01*
X68444260Y-135941000D01*
X68355740Y-135941000D01*
X68289558Y-135934482D01*
X68223373Y-135927963D01*
X68053534Y-135876443D01*
X67897009Y-135792778D01*
X67861271Y-135763448D01*
X67759814Y-135680186D01*
X67676552Y-135578729D01*
X67647222Y-135542991D01*
X67563557Y-135386466D01*
X67512037Y-135216627D01*
X67494641Y-135040000D01*
X67512037Y-134863373D01*
X67563557Y-134693534D01*
X67647222Y-134537009D01*
X67696463Y-134477009D01*
X67759814Y-134399814D01*
X67861271Y-134316552D01*
X67897009Y-134287222D01*
X68053534Y-134203557D01*
X68223373Y-134152037D01*
X68309473Y-134143557D01*
X68355740Y-134139000D01*
X68444260Y-134139000D01*
X68490527Y-134143557D01*
X68490527Y-134143557D01*
G37*
G36*
X127010442Y-134085518D02*
G01*
X127076627Y-134092037D01*
X127246466Y-134143557D01*
X127402991Y-134227222D01*
X127438729Y-134256552D01*
X127540186Y-134339814D01*
X127623448Y-134441271D01*
X127652778Y-134477009D01*
X127736443Y-134633534D01*
X127787963Y-134803373D01*
X127805359Y-134980000D01*
X127787963Y-135156627D01*
X127736443Y-135326466D01*
X127652778Y-135482991D01*
X127623448Y-135518729D01*
X127540186Y-135620186D01*
X127438729Y-135703448D01*
X127402991Y-135732778D01*
X127246466Y-135816443D01*
X127076627Y-135867963D01*
X127010443Y-135874481D01*
X126944260Y-135881000D01*
X126855740Y-135881000D01*
X126789557Y-135874481D01*
X126723373Y-135867963D01*
X126553534Y-135816443D01*
X126397009Y-135732778D01*
X126361271Y-135703448D01*
X126259814Y-135620186D01*
X126176552Y-135518729D01*
X126147222Y-135482991D01*
X126063557Y-135326466D01*
X126012037Y-135156627D01*
X125994641Y-134980000D01*
X126012037Y-134803373D01*
X126063557Y-134633534D01*
X126147222Y-134477009D01*
X126176552Y-134441271D01*
X126259814Y-134339814D01*
X126361271Y-134256552D01*
X126397009Y-134227222D01*
X126553534Y-134143557D01*
X126723373Y-134092037D01*
X126789558Y-134085518D01*
X126855740Y-134079000D01*
X126944260Y-134079000D01*
X127010442Y-134085518D01*
X127010442Y-134085518D01*
G37*
G36*
X68490527Y-131603557D02*
G01*
X68576627Y-131612037D01*
X68746466Y-131663557D01*
X68902991Y-131747222D01*
X68938729Y-131776552D01*
X69040186Y-131859814D01*
X69103537Y-131937009D01*
X69152778Y-131997009D01*
X69236443Y-132153534D01*
X69287963Y-132323373D01*
X69305359Y-132500000D01*
X69287963Y-132676627D01*
X69236443Y-132846466D01*
X69152778Y-133002991D01*
X69123448Y-133038729D01*
X69040186Y-133140186D01*
X68938729Y-133223448D01*
X68902991Y-133252778D01*
X68746466Y-133336443D01*
X68576627Y-133387963D01*
X68510442Y-133394482D01*
X68444260Y-133401000D01*
X68355740Y-133401000D01*
X68289558Y-133394482D01*
X68223373Y-133387963D01*
X68053534Y-133336443D01*
X67897009Y-133252778D01*
X67861271Y-133223448D01*
X67759814Y-133140186D01*
X67676552Y-133038729D01*
X67647222Y-133002991D01*
X67563557Y-132846466D01*
X67512037Y-132676627D01*
X67494641Y-132500000D01*
X67512037Y-132323373D01*
X67563557Y-132153534D01*
X67647222Y-131997009D01*
X67696463Y-131937009D01*
X67759814Y-131859814D01*
X67861271Y-131776552D01*
X67897009Y-131747222D01*
X68053534Y-131663557D01*
X68223373Y-131612037D01*
X68309473Y-131603557D01*
X68355740Y-131599000D01*
X68444260Y-131599000D01*
X68490527Y-131603557D01*
X68490527Y-131603557D01*
G37*
G36*
X127010442Y-131545518D02*
G01*
X127076627Y-131552037D01*
X127246466Y-131603557D01*
X127402991Y-131687222D01*
X127438729Y-131716552D01*
X127540186Y-131799814D01*
X127623448Y-131901271D01*
X127652778Y-131937009D01*
X127736443Y-132093534D01*
X127787963Y-132263373D01*
X127805359Y-132440000D01*
X127787963Y-132616627D01*
X127736443Y-132786466D01*
X127652778Y-132942991D01*
X127623448Y-132978729D01*
X127540186Y-133080186D01*
X127438729Y-133163448D01*
X127402991Y-133192778D01*
X127246466Y-133276443D01*
X127076627Y-133327963D01*
X127010442Y-133334482D01*
X126944260Y-133341000D01*
X126855740Y-133341000D01*
X126789558Y-133334482D01*
X126723373Y-133327963D01*
X126553534Y-133276443D01*
X126397009Y-133192778D01*
X126361271Y-133163448D01*
X126259814Y-133080186D01*
X126176552Y-132978729D01*
X126147222Y-132942991D01*
X126063557Y-132786466D01*
X126012037Y-132616627D01*
X125994641Y-132440000D01*
X126012037Y-132263373D01*
X126063557Y-132093534D01*
X126147222Y-131937009D01*
X126176552Y-131901271D01*
X126259814Y-131799814D01*
X126361271Y-131716552D01*
X126397009Y-131687222D01*
X126553534Y-131603557D01*
X126723373Y-131552037D01*
X126789558Y-131545518D01*
X126855740Y-131539000D01*
X126944260Y-131539000D01*
X127010442Y-131545518D01*
X127010442Y-131545518D01*
G37*
G36*
X68490527Y-129063557D02*
G01*
X68576627Y-129072037D01*
X68746466Y-129123557D01*
X68902991Y-129207222D01*
X68938729Y-129236552D01*
X69040186Y-129319814D01*
X69103537Y-129397009D01*
X69152778Y-129457009D01*
X69236443Y-129613534D01*
X69287963Y-129783373D01*
X69305359Y-129960000D01*
X69287963Y-130136627D01*
X69236443Y-130306466D01*
X69152778Y-130462991D01*
X69123448Y-130498729D01*
X69040186Y-130600186D01*
X68938729Y-130683448D01*
X68902991Y-130712778D01*
X68746466Y-130796443D01*
X68576627Y-130847963D01*
X68510443Y-130854481D01*
X68444260Y-130861000D01*
X68355740Y-130861000D01*
X68289557Y-130854481D01*
X68223373Y-130847963D01*
X68053534Y-130796443D01*
X67897009Y-130712778D01*
X67861271Y-130683448D01*
X67759814Y-130600186D01*
X67676552Y-130498729D01*
X67647222Y-130462991D01*
X67563557Y-130306466D01*
X67512037Y-130136627D01*
X67494641Y-129960000D01*
X67512037Y-129783373D01*
X67563557Y-129613534D01*
X67647222Y-129457009D01*
X67696463Y-129397009D01*
X67759814Y-129319814D01*
X67861271Y-129236552D01*
X67897009Y-129207222D01*
X68053534Y-129123557D01*
X68223373Y-129072037D01*
X68309473Y-129063557D01*
X68355740Y-129059000D01*
X68444260Y-129059000D01*
X68490527Y-129063557D01*
X68490527Y-129063557D01*
G37*
G36*
X127010443Y-129005519D02*
G01*
X127076627Y-129012037D01*
X127246466Y-129063557D01*
X127402991Y-129147222D01*
X127438729Y-129176552D01*
X127540186Y-129259814D01*
X127623448Y-129361271D01*
X127652778Y-129397009D01*
X127736443Y-129553534D01*
X127787963Y-129723373D01*
X127805359Y-129900000D01*
X127787963Y-130076627D01*
X127736443Y-130246466D01*
X127652778Y-130402991D01*
X127623448Y-130438729D01*
X127540186Y-130540186D01*
X127438729Y-130623448D01*
X127402991Y-130652778D01*
X127246466Y-130736443D01*
X127076627Y-130787963D01*
X127010442Y-130794482D01*
X126944260Y-130801000D01*
X126855740Y-130801000D01*
X126789558Y-130794482D01*
X126723373Y-130787963D01*
X126553534Y-130736443D01*
X126397009Y-130652778D01*
X126361271Y-130623448D01*
X126259814Y-130540186D01*
X126176552Y-130438729D01*
X126147222Y-130402991D01*
X126063557Y-130246466D01*
X126012037Y-130076627D01*
X125994641Y-129900000D01*
X126012037Y-129723373D01*
X126063557Y-129553534D01*
X126147222Y-129397009D01*
X126176552Y-129361271D01*
X126259814Y-129259814D01*
X126361271Y-129176552D01*
X126397009Y-129147222D01*
X126553534Y-129063557D01*
X126723373Y-129012037D01*
X126789557Y-129005519D01*
X126855740Y-128999000D01*
X126944260Y-128999000D01*
X127010443Y-129005519D01*
X127010443Y-129005519D01*
G37*
G36*
X68490527Y-126523557D02*
G01*
X68576627Y-126532037D01*
X68746466Y-126583557D01*
X68902991Y-126667222D01*
X68938729Y-126696552D01*
X69040186Y-126779814D01*
X69103537Y-126857009D01*
X69152778Y-126917009D01*
X69236443Y-127073534D01*
X69287963Y-127243373D01*
X69305359Y-127420000D01*
X69287963Y-127596627D01*
X69236443Y-127766466D01*
X69152778Y-127922991D01*
X69123448Y-127958729D01*
X69040186Y-128060186D01*
X68938729Y-128143448D01*
X68902991Y-128172778D01*
X68746466Y-128256443D01*
X68576627Y-128307963D01*
X68510442Y-128314482D01*
X68444260Y-128321000D01*
X68355740Y-128321000D01*
X68289558Y-128314482D01*
X68223373Y-128307963D01*
X68053534Y-128256443D01*
X67897009Y-128172778D01*
X67861271Y-128143448D01*
X67759814Y-128060186D01*
X67676552Y-127958729D01*
X67647222Y-127922991D01*
X67563557Y-127766466D01*
X67512037Y-127596627D01*
X67494641Y-127420000D01*
X67512037Y-127243373D01*
X67563557Y-127073534D01*
X67647222Y-126917009D01*
X67696463Y-126857009D01*
X67759814Y-126779814D01*
X67861271Y-126696552D01*
X67897009Y-126667222D01*
X68053534Y-126583557D01*
X68223373Y-126532037D01*
X68309473Y-126523557D01*
X68355740Y-126519000D01*
X68444260Y-126519000D01*
X68490527Y-126523557D01*
X68490527Y-126523557D01*
G37*
G36*
X127010442Y-126465518D02*
G01*
X127076627Y-126472037D01*
X127246466Y-126523557D01*
X127402991Y-126607222D01*
X127438729Y-126636552D01*
X127540186Y-126719814D01*
X127623448Y-126821271D01*
X127652778Y-126857009D01*
X127736443Y-127013534D01*
X127787963Y-127183373D01*
X127805359Y-127360000D01*
X127787963Y-127536627D01*
X127736443Y-127706466D01*
X127652778Y-127862991D01*
X127623448Y-127898729D01*
X127540186Y-128000186D01*
X127438729Y-128083448D01*
X127402991Y-128112778D01*
X127246466Y-128196443D01*
X127076627Y-128247963D01*
X127010442Y-128254482D01*
X126944260Y-128261000D01*
X126855740Y-128261000D01*
X126789558Y-128254482D01*
X126723373Y-128247963D01*
X126553534Y-128196443D01*
X126397009Y-128112778D01*
X126361271Y-128083448D01*
X126259814Y-128000186D01*
X126176552Y-127898729D01*
X126147222Y-127862991D01*
X126063557Y-127706466D01*
X126012037Y-127536627D01*
X125994641Y-127360000D01*
X126012037Y-127183373D01*
X126063557Y-127013534D01*
X126147222Y-126857009D01*
X126176552Y-126821271D01*
X126259814Y-126719814D01*
X126361271Y-126636552D01*
X126397009Y-126607222D01*
X126553534Y-126523557D01*
X126723373Y-126472037D01*
X126789558Y-126465518D01*
X126855740Y-126459000D01*
X126944260Y-126459000D01*
X127010442Y-126465518D01*
X127010442Y-126465518D01*
G37*
G36*
X68510442Y-123985518D02*
G01*
X68576627Y-123992037D01*
X68746466Y-124043557D01*
X68902991Y-124127222D01*
X68938729Y-124156552D01*
X69040186Y-124239814D01*
X69123448Y-124341271D01*
X69152778Y-124377009D01*
X69236443Y-124533534D01*
X69287963Y-124703373D01*
X69305359Y-124880000D01*
X69287963Y-125056627D01*
X69236443Y-125226466D01*
X69152778Y-125382991D01*
X69123448Y-125418729D01*
X69040186Y-125520186D01*
X68938729Y-125603448D01*
X68902991Y-125632778D01*
X68746466Y-125716443D01*
X68576627Y-125767963D01*
X68510442Y-125774482D01*
X68444260Y-125781000D01*
X68355740Y-125781000D01*
X68289558Y-125774482D01*
X68223373Y-125767963D01*
X68053534Y-125716443D01*
X67897009Y-125632778D01*
X67861271Y-125603448D01*
X67759814Y-125520186D01*
X67676552Y-125418729D01*
X67647222Y-125382991D01*
X67563557Y-125226466D01*
X67512037Y-125056627D01*
X67494641Y-124880000D01*
X67512037Y-124703373D01*
X67563557Y-124533534D01*
X67647222Y-124377009D01*
X67676552Y-124341271D01*
X67759814Y-124239814D01*
X67861271Y-124156552D01*
X67897009Y-124127222D01*
X68053534Y-124043557D01*
X68223373Y-123992037D01*
X68289558Y-123985518D01*
X68355740Y-123979000D01*
X68444260Y-123979000D01*
X68510442Y-123985518D01*
X68510442Y-123985518D01*
G37*
G36*
X68510443Y-121445519D02*
G01*
X68576627Y-121452037D01*
X68746466Y-121503557D01*
X68902991Y-121587222D01*
X68938729Y-121616552D01*
X69040186Y-121699814D01*
X69123448Y-121801271D01*
X69152778Y-121837009D01*
X69236443Y-121993534D01*
X69287963Y-122163373D01*
X69305359Y-122340000D01*
X69287963Y-122516627D01*
X69236443Y-122686466D01*
X69152778Y-122842991D01*
X69123448Y-122878729D01*
X69040186Y-122980186D01*
X68938729Y-123063448D01*
X68902991Y-123092778D01*
X68746466Y-123176443D01*
X68576627Y-123227963D01*
X68510442Y-123234482D01*
X68444260Y-123241000D01*
X68355740Y-123241000D01*
X68289558Y-123234482D01*
X68223373Y-123227963D01*
X68053534Y-123176443D01*
X67897009Y-123092778D01*
X67861271Y-123063448D01*
X67759814Y-122980186D01*
X67676552Y-122878729D01*
X67647222Y-122842991D01*
X67563557Y-122686466D01*
X67512037Y-122516627D01*
X67494641Y-122340000D01*
X67512037Y-122163373D01*
X67563557Y-121993534D01*
X67647222Y-121837009D01*
X67676552Y-121801271D01*
X67759814Y-121699814D01*
X67861271Y-121616552D01*
X67897009Y-121587222D01*
X68053534Y-121503557D01*
X68223373Y-121452037D01*
X68289557Y-121445519D01*
X68355740Y-121439000D01*
X68444260Y-121439000D01*
X68510443Y-121445519D01*
X68510443Y-121445519D01*
G37*
G36*
X68510443Y-118905519D02*
G01*
X68576627Y-118912037D01*
X68746466Y-118963557D01*
X68902991Y-119047222D01*
X68938729Y-119076552D01*
X69040186Y-119159814D01*
X69123448Y-119261271D01*
X69152778Y-119297009D01*
X69236443Y-119453534D01*
X69287963Y-119623373D01*
X69305359Y-119800000D01*
X69287963Y-119976627D01*
X69236443Y-120146466D01*
X69152778Y-120302991D01*
X69124671Y-120337239D01*
X69040186Y-120440186D01*
X68938729Y-120523448D01*
X68902991Y-120552778D01*
X68746466Y-120636443D01*
X68576627Y-120687963D01*
X68510443Y-120694481D01*
X68444260Y-120701000D01*
X68355740Y-120701000D01*
X68289557Y-120694481D01*
X68223373Y-120687963D01*
X68053534Y-120636443D01*
X67897009Y-120552778D01*
X67861271Y-120523448D01*
X67759814Y-120440186D01*
X67675329Y-120337239D01*
X67647222Y-120302991D01*
X67563557Y-120146466D01*
X67512037Y-119976627D01*
X67494641Y-119800000D01*
X67512037Y-119623373D01*
X67563557Y-119453534D01*
X67647222Y-119297009D01*
X67676552Y-119261271D01*
X67759814Y-119159814D01*
X67861271Y-119076552D01*
X67897009Y-119047222D01*
X68053534Y-118963557D01*
X68223373Y-118912037D01*
X68289557Y-118905519D01*
X68355740Y-118899000D01*
X68444260Y-118899000D01*
X68510443Y-118905519D01*
X68510443Y-118905519D01*
G37*
G36*
X116851000Y-120551000D02*
G01*
X114949000Y-120551000D01*
X114949000Y-116049000D01*
X116851000Y-116049000D01*
X116851000Y-120551000D01*
X116851000Y-120551000D01*
G37*
G36*
X121886424Y-116262760D02*
G01*
X121886427Y-116262761D01*
X121886428Y-116262761D01*
X122065692Y-116317140D01*
X122065695Y-116317142D01*
X122065696Y-116317142D01*
X122230903Y-116405446D01*
X122375712Y-116524288D01*
X122494554Y-116669097D01*
X122582858Y-116834303D01*
X122582860Y-116834307D01*
X122582860Y-116834308D01*
X122637240Y-117013575D01*
X122651000Y-117153282D01*
X122651000Y-119446718D01*
X122637240Y-119586425D01*
X122637239Y-119586428D01*
X122637239Y-119586429D01*
X122582860Y-119765693D01*
X122582858Y-119765696D01*
X122582858Y-119765697D01*
X122494554Y-119930903D01*
X122375712Y-120075712D01*
X122230903Y-120194554D01*
X122065697Y-120282858D01*
X122065693Y-120282860D01*
X121886429Y-120337239D01*
X121886428Y-120337239D01*
X121886425Y-120337240D01*
X121700000Y-120355601D01*
X121513576Y-120337240D01*
X121513573Y-120337239D01*
X121513572Y-120337239D01*
X121334308Y-120282860D01*
X121334304Y-120282858D01*
X121169098Y-120194554D01*
X121024289Y-120075712D01*
X120905447Y-119930903D01*
X120817143Y-119765697D01*
X120817143Y-119765696D01*
X120817141Y-119765693D01*
X120762762Y-119586429D01*
X120762762Y-119586428D01*
X120762761Y-119586425D01*
X120749001Y-119446718D01*
X120749000Y-117153283D01*
X120762760Y-117013576D01*
X120762761Y-117013572D01*
X120817140Y-116834308D01*
X120817143Y-116834303D01*
X120905446Y-116669097D01*
X121024288Y-116524288D01*
X121169097Y-116405446D01*
X121334303Y-116317142D01*
X121334304Y-116317142D01*
X121334307Y-116317140D01*
X121513571Y-116262761D01*
X121513572Y-116262761D01*
X121513575Y-116262760D01*
X121700000Y-116244399D01*
X121886424Y-116262760D01*
X121886424Y-116262760D01*
G37*
G36*
X120186425Y-112562760D02*
G01*
X120186428Y-112562761D01*
X120186429Y-112562761D01*
X120365693Y-112617140D01*
X120365696Y-112617142D01*
X120365697Y-112617142D01*
X120530903Y-112705446D01*
X120675712Y-112824288D01*
X120794554Y-112969097D01*
X120882858Y-113134303D01*
X120882860Y-113134307D01*
X120937239Y-113313571D01*
X120937240Y-113313575D01*
X120955601Y-113500000D01*
X120937240Y-113686425D01*
X120937239Y-113686428D01*
X120937239Y-113686429D01*
X120882860Y-113865693D01*
X120882858Y-113865696D01*
X120882858Y-113865697D01*
X120794554Y-114030903D01*
X120675712Y-114175712D01*
X120530903Y-114294554D01*
X120365697Y-114382858D01*
X120365693Y-114382860D01*
X120186429Y-114437239D01*
X120186428Y-114437239D01*
X120186425Y-114437240D01*
X120046718Y-114451000D01*
X117753282Y-114451000D01*
X117613575Y-114437240D01*
X117613572Y-114437239D01*
X117613571Y-114437239D01*
X117434307Y-114382860D01*
X117434303Y-114382858D01*
X117269097Y-114294554D01*
X117124288Y-114175712D01*
X117005446Y-114030903D01*
X116917142Y-113865697D01*
X116917142Y-113865696D01*
X116917140Y-113865693D01*
X116862761Y-113686429D01*
X116862761Y-113686428D01*
X116862760Y-113686425D01*
X116844399Y-113500000D01*
X116862760Y-113313575D01*
X116862761Y-113313571D01*
X116917140Y-113134307D01*
X116917142Y-113134303D01*
X117005446Y-112969097D01*
X117124288Y-112824288D01*
X117269097Y-112705446D01*
X117434303Y-112617142D01*
X117434304Y-112617142D01*
X117434307Y-112617140D01*
X117613571Y-112562761D01*
X117613572Y-112562761D01*
X117613575Y-112562760D01*
X117753282Y-112549000D01*
X120046718Y-112549000D01*
X120186425Y-112562760D01*
X120186425Y-112562760D01*
G37*
G36*
X121383097Y-105154069D02*
G01*
X121486032Y-105164207D01*
X121684146Y-105224305D01*
X121684149Y-105224306D01*
X121780975Y-105276061D01*
X121866729Y-105321897D01*
X122026765Y-105453235D01*
X122158103Y-105613271D01*
X122165986Y-105628020D01*
X122255694Y-105795851D01*
X122255695Y-105795854D01*
X122315793Y-105993968D01*
X122336085Y-106200000D01*
X122315793Y-106406032D01*
X122269663Y-106558099D01*
X122255694Y-106604149D01*
X122205782Y-106697527D01*
X122158103Y-106786729D01*
X122026765Y-106946765D01*
X121866729Y-107078103D01*
X121780975Y-107123939D01*
X121684149Y-107175694D01*
X121684146Y-107175695D01*
X121486032Y-107235793D01*
X121383097Y-107245931D01*
X121331631Y-107251000D01*
X121228369Y-107251000D01*
X121176903Y-107245931D01*
X121073968Y-107235793D01*
X120875854Y-107175695D01*
X120875851Y-107175694D01*
X120779025Y-107123939D01*
X120693271Y-107078103D01*
X120533235Y-106946765D01*
X120401897Y-106786729D01*
X120354218Y-106697527D01*
X120304306Y-106604149D01*
X120290337Y-106558099D01*
X120244207Y-106406032D01*
X120223915Y-106200000D01*
X120244207Y-105993968D01*
X120304305Y-105795854D01*
X120304306Y-105795851D01*
X120394014Y-105628020D01*
X120401897Y-105613271D01*
X120533235Y-105453235D01*
X120693271Y-105321897D01*
X120779025Y-105276061D01*
X120875851Y-105224306D01*
X120875854Y-105224305D01*
X121073968Y-105164207D01*
X121176903Y-105154069D01*
X121228369Y-105149000D01*
X121331631Y-105149000D01*
X121383097Y-105154069D01*
X121383097Y-105154069D01*
G37*
G36*
X104003097Y-105154069D02*
G01*
X104106032Y-105164207D01*
X104304146Y-105224305D01*
X104304149Y-105224306D01*
X104400975Y-105276061D01*
X104486729Y-105321897D01*
X104646765Y-105453235D01*
X104778103Y-105613271D01*
X104785986Y-105628020D01*
X104875694Y-105795851D01*
X104875695Y-105795854D01*
X104935793Y-105993968D01*
X104956085Y-106200000D01*
X104935793Y-106406032D01*
X104889663Y-106558099D01*
X104875694Y-106604149D01*
X104825782Y-106697527D01*
X104778103Y-106786729D01*
X104646765Y-106946765D01*
X104486729Y-107078103D01*
X104400975Y-107123939D01*
X104304149Y-107175694D01*
X104304146Y-107175695D01*
X104106032Y-107235793D01*
X104003097Y-107245931D01*
X103951631Y-107251000D01*
X103848369Y-107251000D01*
X103796903Y-107245931D01*
X103693968Y-107235793D01*
X103495854Y-107175695D01*
X103495851Y-107175694D01*
X103399025Y-107123939D01*
X103313271Y-107078103D01*
X103153235Y-106946765D01*
X103021897Y-106786729D01*
X102974218Y-106697527D01*
X102924306Y-106604149D01*
X102910337Y-106558099D01*
X102864207Y-106406032D01*
X102843915Y-106200000D01*
X102864207Y-105993968D01*
X102924305Y-105795854D01*
X102924306Y-105795851D01*
X103014014Y-105628020D01*
X103021897Y-105613271D01*
X103153235Y-105453235D01*
X103313271Y-105321897D01*
X103399025Y-105276061D01*
X103495851Y-105224306D01*
X103495854Y-105224305D01*
X103693968Y-105164207D01*
X103796903Y-105154069D01*
X103848369Y-105149000D01*
X103951631Y-105149000D01*
X104003097Y-105154069D01*
X104003097Y-105154069D01*
G37*
G36*
X99871000Y-107251000D02*
G01*
X97769000Y-107251000D01*
X97769000Y-105149000D01*
X99871000Y-105149000D01*
X99871000Y-107251000D01*
X99871000Y-107251000D01*
G37*
G36*
X117251000Y-107251000D02*
G01*
X115149000Y-107251000D01*
X115149000Y-105149000D01*
X117251000Y-105149000D01*
X117251000Y-107251000D01*
X117251000Y-107251000D01*
G37*
G36*
X84391981Y-104957468D02*
G01*
X84574151Y-105032926D01*
X84738100Y-105142473D01*
X84877527Y-105281900D01*
X84904252Y-105321897D01*
X84987075Y-105445851D01*
X85009175Y-105499205D01*
X85062532Y-105628019D01*
X85101000Y-105821410D01*
X85101000Y-106018590D01*
X85062532Y-106211981D01*
X84987074Y-106394151D01*
X84877527Y-106558100D01*
X84738100Y-106697527D01*
X84574151Y-106807074D01*
X84391981Y-106882532D01*
X84198591Y-106921000D01*
X84001409Y-106921000D01*
X83808019Y-106882532D01*
X83625849Y-106807074D01*
X83461900Y-106697527D01*
X83322473Y-106558100D01*
X83212926Y-106394151D01*
X83137468Y-106211981D01*
X83099000Y-106018590D01*
X83099000Y-105821410D01*
X83137468Y-105628019D01*
X83190825Y-105499205D01*
X83212925Y-105445851D01*
X83295748Y-105321897D01*
X83322473Y-105281900D01*
X83461900Y-105142473D01*
X83625849Y-105032926D01*
X83808019Y-104957468D01*
X84001409Y-104919000D01*
X84198591Y-104919000D01*
X84391981Y-104957468D01*
X84391981Y-104957468D01*
G37*
G36*
X84391981Y-102417468D02*
G01*
X84574151Y-102492926D01*
X84738100Y-102602473D01*
X84877527Y-102741900D01*
X84987074Y-102905849D01*
X85062532Y-103088019D01*
X85101000Y-103281410D01*
X85101000Y-103478590D01*
X85062532Y-103671981D01*
X84987074Y-103854151D01*
X84877527Y-104018100D01*
X84738100Y-104157527D01*
X84574151Y-104267074D01*
X84391981Y-104342532D01*
X84198591Y-104381000D01*
X84001409Y-104381000D01*
X83904715Y-104361766D01*
X83808019Y-104342532D01*
X83625849Y-104267074D01*
X83461900Y-104157527D01*
X83322473Y-104018100D01*
X83212926Y-103854151D01*
X83137468Y-103671981D01*
X83099000Y-103478590D01*
X83099000Y-103281410D01*
X83137468Y-103088019D01*
X83212926Y-102905849D01*
X83322473Y-102741900D01*
X83461900Y-102602473D01*
X83625849Y-102492926D01*
X83808019Y-102417468D01*
X83904715Y-102398234D01*
X84001409Y-102379000D01*
X84198591Y-102379000D01*
X84391981Y-102417468D01*
X84391981Y-102417468D01*
G37*
G36*
X84391981Y-99877468D02*
G01*
X84574151Y-99952926D01*
X84738100Y-100062473D01*
X84877527Y-100201900D01*
X84987074Y-100365849D01*
X85062532Y-100548019D01*
X85101000Y-100741410D01*
X85101000Y-100938590D01*
X85062532Y-101131981D01*
X84987074Y-101314151D01*
X84877527Y-101478100D01*
X84738100Y-101617527D01*
X84574151Y-101727074D01*
X84391981Y-101802532D01*
X84198591Y-101841000D01*
X84001409Y-101841000D01*
X83808019Y-101802532D01*
X83625849Y-101727074D01*
X83461900Y-101617527D01*
X83322473Y-101478100D01*
X83212926Y-101314151D01*
X83137468Y-101131981D01*
X83099000Y-100938590D01*
X83099000Y-100741410D01*
X83137468Y-100548019D01*
X83212926Y-100365849D01*
X83322473Y-100201900D01*
X83461900Y-100062473D01*
X83625849Y-99952926D01*
X83808019Y-99877468D01*
X83904715Y-99858234D01*
X84001409Y-99839000D01*
X84198591Y-99839000D01*
X84391981Y-99877468D01*
X84391981Y-99877468D01*
G37*
G36*
X124202585Y-96678802D02*
G01*
X124352410Y-96708604D01*
X124634674Y-96825521D01*
X124888705Y-96995259D01*
X125104741Y-97211295D01*
X125274479Y-97465326D01*
X125391396Y-97747590D01*
X125391396Y-97747591D01*
X125443199Y-98008019D01*
X125451000Y-98047240D01*
X125451000Y-98352760D01*
X125391396Y-98652410D01*
X125274479Y-98934674D01*
X125104741Y-99188705D01*
X124888705Y-99404741D01*
X124634674Y-99574479D01*
X124352410Y-99691396D01*
X124202585Y-99721198D01*
X124052761Y-99751000D01*
X123747239Y-99751000D01*
X123597415Y-99721198D01*
X123447590Y-99691396D01*
X123165326Y-99574479D01*
X122911295Y-99404741D01*
X122695259Y-99188705D01*
X122525521Y-98934674D01*
X122408604Y-98652410D01*
X122349000Y-98352760D01*
X122349000Y-98047240D01*
X122356802Y-98008019D01*
X122408604Y-97747591D01*
X122408604Y-97747590D01*
X122525521Y-97465326D01*
X122695259Y-97211295D01*
X122911295Y-96995259D01*
X123165326Y-96825521D01*
X123447590Y-96708604D01*
X123597415Y-96678802D01*
X123747239Y-96649000D01*
X124052761Y-96649000D01*
X124202585Y-96678802D01*
X124202585Y-96678802D01*
G37*
G36*
X119602585Y-96678802D02*
G01*
X119752410Y-96708604D01*
X120034674Y-96825521D01*
X120288705Y-96995259D01*
X120504741Y-97211295D01*
X120674479Y-97465326D01*
X120791396Y-97747590D01*
X120791396Y-97747591D01*
X120843199Y-98008019D01*
X120851000Y-98047240D01*
X120851000Y-98352760D01*
X120791396Y-98652410D01*
X120674479Y-98934674D01*
X120504741Y-99188705D01*
X120288705Y-99404741D01*
X120034674Y-99574479D01*
X119752410Y-99691396D01*
X119602585Y-99721198D01*
X119452761Y-99751000D01*
X119147239Y-99751000D01*
X118997415Y-99721198D01*
X118847590Y-99691396D01*
X118565326Y-99574479D01*
X118311295Y-99404741D01*
X118095259Y-99188705D01*
X117925521Y-98934674D01*
X117808604Y-98652410D01*
X117749000Y-98352760D01*
X117749000Y-98047240D01*
X117756802Y-98008019D01*
X117808604Y-97747591D01*
X117808604Y-97747590D01*
X117925521Y-97465326D01*
X118095259Y-97211295D01*
X118311295Y-96995259D01*
X118565326Y-96825521D01*
X118847590Y-96708604D01*
X118997415Y-96678802D01*
X119147239Y-96649000D01*
X119452761Y-96649000D01*
X119602585Y-96678802D01*
X119602585Y-96678802D01*
G37*
G36*
X115002585Y-96678802D02*
G01*
X115152410Y-96708604D01*
X115434674Y-96825521D01*
X115688705Y-96995259D01*
X115904741Y-97211295D01*
X116074479Y-97465326D01*
X116191396Y-97747590D01*
X116191396Y-97747591D01*
X116243199Y-98008019D01*
X116251000Y-98047240D01*
X116251000Y-98352760D01*
X116191396Y-98652410D01*
X116074479Y-98934674D01*
X115904741Y-99188705D01*
X115688705Y-99404741D01*
X115434674Y-99574479D01*
X115152410Y-99691396D01*
X115002585Y-99721198D01*
X114852761Y-99751000D01*
X114547239Y-99751000D01*
X114397415Y-99721198D01*
X114247590Y-99691396D01*
X113965326Y-99574479D01*
X113711295Y-99404741D01*
X113495259Y-99188705D01*
X113325521Y-98934674D01*
X113208604Y-98652410D01*
X113149000Y-98352760D01*
X113149000Y-98047240D01*
X113156802Y-98008019D01*
X113208604Y-97747591D01*
X113208604Y-97747590D01*
X113325521Y-97465326D01*
X113495259Y-97211295D01*
X113711295Y-96995259D01*
X113965326Y-96825521D01*
X114247590Y-96708604D01*
X114397415Y-96678802D01*
X114547239Y-96649000D01*
X114852761Y-96649000D01*
X115002585Y-96678802D01*
X115002585Y-96678802D01*
G37*
G36*
X84295285Y-97318234D02*
G01*
X84391981Y-97337468D01*
X84574151Y-97412926D01*
X84738100Y-97522473D01*
X84877527Y-97661900D01*
X84987074Y-97825849D01*
X85062532Y-98008019D01*
X85101000Y-98201410D01*
X85101000Y-98398590D01*
X85062532Y-98591981D01*
X84987074Y-98774151D01*
X84877527Y-98938100D01*
X84738100Y-99077527D01*
X84574151Y-99187074D01*
X84574150Y-99187075D01*
X84574149Y-99187075D01*
X84520795Y-99209175D01*
X84391981Y-99262532D01*
X84198591Y-99301000D01*
X84001409Y-99301000D01*
X83808019Y-99262532D01*
X83679205Y-99209175D01*
X83625851Y-99187075D01*
X83625850Y-99187075D01*
X83625849Y-99187074D01*
X83461900Y-99077527D01*
X83322473Y-98938100D01*
X83212926Y-98774151D01*
X83137468Y-98591981D01*
X83099000Y-98398590D01*
X83099000Y-98201410D01*
X83137468Y-98008019D01*
X83212926Y-97825849D01*
X83322473Y-97661900D01*
X83461900Y-97522473D01*
X83625849Y-97412926D01*
X83808019Y-97337468D01*
X83904715Y-97318234D01*
X84001409Y-97299000D01*
X84198591Y-97299000D01*
X84295285Y-97318234D01*
X84295285Y-97318234D01*
G37*
G36*
X115002585Y-90978802D02*
G01*
X115152410Y-91008604D01*
X115434674Y-91125521D01*
X115688705Y-91295259D01*
X115904741Y-91511295D01*
X116074479Y-91765326D01*
X116191396Y-92047590D01*
X116251000Y-92347240D01*
X116251000Y-92652760D01*
X116191396Y-92952410D01*
X116074479Y-93234674D01*
X115904741Y-93488705D01*
X115688705Y-93704741D01*
X115434674Y-93874479D01*
X115152410Y-93991396D01*
X115002585Y-94021198D01*
X114852761Y-94051000D01*
X114547239Y-94051000D01*
X114397415Y-94021198D01*
X114247590Y-93991396D01*
X113965326Y-93874479D01*
X113711295Y-93704741D01*
X113495259Y-93488705D01*
X113325521Y-93234674D01*
X113208604Y-92952410D01*
X113149000Y-92652760D01*
X113149000Y-92347240D01*
X113208604Y-92047590D01*
X113325521Y-91765326D01*
X113495259Y-91511295D01*
X113711295Y-91295259D01*
X113965326Y-91125521D01*
X114247590Y-91008604D01*
X114397415Y-90978802D01*
X114547239Y-90949000D01*
X114852761Y-90949000D01*
X115002585Y-90978802D01*
X115002585Y-90978802D01*
G37*
G36*
X119602585Y-90978802D02*
G01*
X119752410Y-91008604D01*
X120034674Y-91125521D01*
X120288705Y-91295259D01*
X120504741Y-91511295D01*
X120674479Y-91765326D01*
X120791396Y-92047590D01*
X120851000Y-92347240D01*
X120851000Y-92652760D01*
X120791396Y-92952410D01*
X120674479Y-93234674D01*
X120504741Y-93488705D01*
X120288705Y-93704741D01*
X120034674Y-93874479D01*
X119752410Y-93991396D01*
X119602585Y-94021198D01*
X119452761Y-94051000D01*
X119147239Y-94051000D01*
X118997415Y-94021198D01*
X118847590Y-93991396D01*
X118565326Y-93874479D01*
X118311295Y-93704741D01*
X118095259Y-93488705D01*
X117925521Y-93234674D01*
X117808604Y-92952410D01*
X117749000Y-92652760D01*
X117749000Y-92347240D01*
X117808604Y-92047590D01*
X117925521Y-91765326D01*
X118095259Y-91511295D01*
X118311295Y-91295259D01*
X118565326Y-91125521D01*
X118847590Y-91008604D01*
X118997415Y-90978802D01*
X119147239Y-90949000D01*
X119452761Y-90949000D01*
X119602585Y-90978802D01*
X119602585Y-90978802D01*
G37*
G36*
X124202585Y-90978802D02*
G01*
X124352410Y-91008604D01*
X124634674Y-91125521D01*
X124888705Y-91295259D01*
X125104741Y-91511295D01*
X125274479Y-91765326D01*
X125391396Y-92047590D01*
X125451000Y-92347240D01*
X125451000Y-92652760D01*
X125391396Y-92952410D01*
X125274479Y-93234674D01*
X125104741Y-93488705D01*
X124888705Y-93704741D01*
X124634674Y-93874479D01*
X124352410Y-93991396D01*
X124202585Y-94021198D01*
X124052761Y-94051000D01*
X123747239Y-94051000D01*
X123597415Y-94021198D01*
X123447590Y-93991396D01*
X123165326Y-93874479D01*
X122911295Y-93704741D01*
X122695259Y-93488705D01*
X122525521Y-93234674D01*
X122408604Y-92952410D01*
X122349000Y-92652760D01*
X122349000Y-92347240D01*
X122408604Y-92047590D01*
X122525521Y-91765326D01*
X122695259Y-91511295D01*
X122911295Y-91295259D01*
X123165326Y-91125521D01*
X123447590Y-91008604D01*
X123597415Y-90978802D01*
X123747239Y-90949000D01*
X124052761Y-90949000D01*
X124202585Y-90978802D01*
X124202585Y-90978802D01*
G37*
G36*
X86595285Y-86808233D02*
G01*
X86691981Y-86827467D01*
X86874151Y-86902925D01*
X87038100Y-87012472D01*
X87177527Y-87151899D01*
X87287074Y-87315848D01*
X87362532Y-87498018D01*
X87401000Y-87691409D01*
X87401000Y-87888589D01*
X87362532Y-88081980D01*
X87287074Y-88264150D01*
X87177527Y-88428099D01*
X87038100Y-88567526D01*
X86874151Y-88677073D01*
X86691981Y-88752531D01*
X86498591Y-88790999D01*
X86301409Y-88790999D01*
X86108019Y-88752531D01*
X85925849Y-88677073D01*
X85761900Y-88567526D01*
X85622473Y-88428099D01*
X85512926Y-88264150D01*
X85437468Y-88081980D01*
X85399000Y-87888589D01*
X85399000Y-87691409D01*
X85437468Y-87498018D01*
X85512926Y-87315848D01*
X85622473Y-87151899D01*
X85761900Y-87012472D01*
X85925849Y-86902925D01*
X86108019Y-86827467D01*
X86204715Y-86808233D01*
X86301409Y-86788999D01*
X86498591Y-86788999D01*
X86595285Y-86808233D01*
X86595285Y-86808233D01*
G37*
G36*
X81515285Y-86808233D02*
G01*
X81611981Y-86827467D01*
X81794151Y-86902925D01*
X81958100Y-87012472D01*
X82097527Y-87151899D01*
X82207074Y-87315848D01*
X82282532Y-87498018D01*
X82321000Y-87691409D01*
X82321000Y-87888589D01*
X82282532Y-88081980D01*
X82207074Y-88264150D01*
X82097527Y-88428099D01*
X81958100Y-88567526D01*
X81794151Y-88677073D01*
X81611981Y-88752531D01*
X81418591Y-88790999D01*
X81221409Y-88790999D01*
X81028019Y-88752531D01*
X80845849Y-88677073D01*
X80681900Y-88567526D01*
X80542473Y-88428099D01*
X80432926Y-88264150D01*
X80357468Y-88081980D01*
X80319000Y-87888589D01*
X80319000Y-87691409D01*
X80357468Y-87498018D01*
X80432926Y-87315848D01*
X80542473Y-87151899D01*
X80681900Y-87012472D01*
X80845849Y-86902925D01*
X81028019Y-86827467D01*
X81124715Y-86808233D01*
X81221409Y-86788999D01*
X81418591Y-86788999D01*
X81515285Y-86808233D01*
X81515285Y-86808233D01*
G37*
G36*
X84055285Y-86808233D02*
G01*
X84151981Y-86827467D01*
X84334151Y-86902925D01*
X84498100Y-87012472D01*
X84637527Y-87151899D01*
X84747074Y-87315848D01*
X84822532Y-87498018D01*
X84861000Y-87691409D01*
X84861000Y-87888589D01*
X84822532Y-88081980D01*
X84747074Y-88264150D01*
X84637527Y-88428099D01*
X84498100Y-88567526D01*
X84334151Y-88677073D01*
X84151981Y-88752531D01*
X83958591Y-88790999D01*
X83761409Y-88790999D01*
X83568019Y-88752531D01*
X83385849Y-88677073D01*
X83221900Y-88567526D01*
X83082473Y-88428099D01*
X82972926Y-88264150D01*
X82897468Y-88081980D01*
X82859000Y-87888589D01*
X82859000Y-87691409D01*
X82897468Y-87498018D01*
X82972926Y-87315848D01*
X83082473Y-87151899D01*
X83221900Y-87012472D01*
X83385849Y-86902925D01*
X83568019Y-86827467D01*
X83664715Y-86808233D01*
X83761409Y-86788999D01*
X83958591Y-86788999D01*
X84055285Y-86808233D01*
X84055285Y-86808233D01*
G37*
G36*
X78975285Y-86808233D02*
G01*
X79071981Y-86827467D01*
X79254151Y-86902925D01*
X79418100Y-87012472D01*
X79557527Y-87151899D01*
X79667074Y-87315848D01*
X79742532Y-87498018D01*
X79781000Y-87691409D01*
X79781000Y-87888589D01*
X79742532Y-88081980D01*
X79667074Y-88264150D01*
X79557527Y-88428099D01*
X79418100Y-88567526D01*
X79254151Y-88677073D01*
X79071981Y-88752531D01*
X78878591Y-88790999D01*
X78681409Y-88790999D01*
X78488019Y-88752531D01*
X78305849Y-88677073D01*
X78141900Y-88567526D01*
X78002473Y-88428099D01*
X77892926Y-88264150D01*
X77817468Y-88081980D01*
X77779000Y-87888589D01*
X77779000Y-87691409D01*
X77817468Y-87498018D01*
X77892926Y-87315848D01*
X78002473Y-87151899D01*
X78141900Y-87012472D01*
X78305849Y-86902925D01*
X78488019Y-86827467D01*
X78584715Y-86808233D01*
X78681409Y-86788999D01*
X78878591Y-86788999D01*
X78975285Y-86808233D01*
X78975285Y-86808233D01*
G37*
G36*
X125051000Y-85151000D02*
G01*
X122349000Y-85151000D01*
X122349000Y-82449000D01*
X125051000Y-82449000D01*
X125051000Y-85151000D01*
X125051000Y-85151000D01*
G37*
G36*
X101991981Y-82837468D02*
G01*
X102174151Y-82912926D01*
X102338100Y-83022473D01*
X102477527Y-83161900D01*
X102587074Y-83325849D01*
X102662532Y-83508019D01*
X102701000Y-83701410D01*
X102701000Y-83898590D01*
X102662532Y-84091981D01*
X102587074Y-84274151D01*
X102477527Y-84438100D01*
X102338100Y-84577527D01*
X102174151Y-84687074D01*
X101991981Y-84762532D01*
X101798591Y-84801000D01*
X101601409Y-84801000D01*
X101408019Y-84762532D01*
X101225849Y-84687074D01*
X101061900Y-84577527D01*
X100922473Y-84438100D01*
X100812926Y-84274151D01*
X100737468Y-84091981D01*
X100699000Y-83898590D01*
X100699000Y-83701410D01*
X100737468Y-83508019D01*
X100812926Y-83325849D01*
X100922473Y-83161900D01*
X101061900Y-83022473D01*
X101225849Y-82912926D01*
X101408019Y-82837468D01*
X101601409Y-82799000D01*
X101798591Y-82799000D01*
X101991981Y-82837468D01*
X101991981Y-82837468D01*
G37*
G36*
X113491981Y-82837468D02*
G01*
X113674151Y-82912926D01*
X113838100Y-83022473D01*
X113977527Y-83161900D01*
X114087074Y-83325849D01*
X114162532Y-83508019D01*
X114201000Y-83701410D01*
X114201000Y-83898590D01*
X114162532Y-84091981D01*
X114087074Y-84274151D01*
X113977527Y-84438100D01*
X113838100Y-84577527D01*
X113674151Y-84687074D01*
X113491981Y-84762532D01*
X113298591Y-84801000D01*
X113101409Y-84801000D01*
X112908019Y-84762532D01*
X112725849Y-84687074D01*
X112561900Y-84577527D01*
X112422473Y-84438100D01*
X112312926Y-84274151D01*
X112237468Y-84091981D01*
X112199000Y-83898590D01*
X112199000Y-83701410D01*
X112237468Y-83508019D01*
X112312926Y-83325849D01*
X112422473Y-83161900D01*
X112561900Y-83022473D01*
X112725849Y-82912926D01*
X112908019Y-82837468D01*
X113101409Y-82799000D01*
X113298591Y-82799000D01*
X113491981Y-82837468D01*
X113491981Y-82837468D01*
G37*
G36*
X124094072Y-77500918D02*
G01*
X124339939Y-77602759D01*
X124561212Y-77750610D01*
X124749390Y-77938788D01*
X124897241Y-78160061D01*
X124999082Y-78405928D01*
X125051000Y-78666938D01*
X125051000Y-78933062D01*
X124999082Y-79194072D01*
X124897241Y-79439939D01*
X124749390Y-79661212D01*
X124561212Y-79849390D01*
X124339939Y-79997241D01*
X124339938Y-79997242D01*
X124339937Y-79997242D01*
X124094072Y-80099082D01*
X123833063Y-80151000D01*
X123566937Y-80151000D01*
X123305928Y-80099082D01*
X123060063Y-79997242D01*
X123060062Y-79997242D01*
X123060061Y-79997241D01*
X122838788Y-79849390D01*
X122650610Y-79661212D01*
X122502759Y-79439939D01*
X122400918Y-79194072D01*
X122349000Y-78933062D01*
X122349000Y-78666938D01*
X122400918Y-78405928D01*
X122502759Y-78160061D01*
X122650610Y-77938788D01*
X122838788Y-77750610D01*
X123060061Y-77602759D01*
X123305928Y-77500918D01*
X123566937Y-77449000D01*
X123833063Y-77449000D01*
X124094072Y-77500918D01*
X124094072Y-77500918D01*
G37*
G36*
X113395285Y-72618234D02*
G01*
X113491981Y-72637468D01*
X113674151Y-72712926D01*
X113838100Y-72822473D01*
X113977527Y-72961900D01*
X114087074Y-73125849D01*
X114162532Y-73308019D01*
X114201000Y-73501410D01*
X114201000Y-73698590D01*
X114162532Y-73891981D01*
X114087074Y-74074151D01*
X113977527Y-74238100D01*
X113838100Y-74377527D01*
X113674151Y-74487074D01*
X113491981Y-74562532D01*
X113298591Y-74601000D01*
X113101409Y-74601000D01*
X112908019Y-74562532D01*
X112725849Y-74487074D01*
X112561900Y-74377527D01*
X112422473Y-74238100D01*
X112312926Y-74074151D01*
X112237468Y-73891981D01*
X112199000Y-73698590D01*
X112199000Y-73501410D01*
X112237468Y-73308019D01*
X112312926Y-73125849D01*
X112422473Y-72961900D01*
X112561900Y-72822473D01*
X112725849Y-72712926D01*
X112908019Y-72637468D01*
X113004715Y-72618234D01*
X113101409Y-72599000D01*
X113298591Y-72599000D01*
X113395285Y-72618234D01*
X113395285Y-72618234D01*
G37*
G36*
X101895285Y-72618234D02*
G01*
X101991981Y-72637468D01*
X102174151Y-72712926D01*
X102338100Y-72822473D01*
X102477527Y-72961900D01*
X102587074Y-73125849D01*
X102662532Y-73308019D01*
X102701000Y-73501410D01*
X102701000Y-73698590D01*
X102662532Y-73891981D01*
X102587074Y-74074151D01*
X102477527Y-74238100D01*
X102338100Y-74377527D01*
X102174151Y-74487074D01*
X101991981Y-74562532D01*
X101798591Y-74601000D01*
X101601409Y-74601000D01*
X101408019Y-74562532D01*
X101225849Y-74487074D01*
X101061900Y-74377527D01*
X100922473Y-74238100D01*
X100812926Y-74074151D01*
X100737468Y-73891981D01*
X100699000Y-73698590D01*
X100699000Y-73501410D01*
X100737468Y-73308019D01*
X100812926Y-73125849D01*
X100922473Y-72961900D01*
X101061900Y-72822473D01*
X101225849Y-72712926D01*
X101408019Y-72637468D01*
X101504715Y-72618234D01*
X101601409Y-72599000D01*
X101798591Y-72599000D01*
X101895285Y-72618234D01*
X101895285Y-72618234D01*
G37*
G36*
X86595285Y-70318234D02*
G01*
X86691981Y-70337468D01*
X86874151Y-70412926D01*
X87038100Y-70522473D01*
X87177527Y-70661900D01*
X87287074Y-70825849D01*
X87362532Y-71008019D01*
X87401000Y-71201410D01*
X87401000Y-71398590D01*
X87362532Y-71591981D01*
X87287074Y-71774151D01*
X87177527Y-71938100D01*
X87038100Y-72077527D01*
X86874151Y-72187074D01*
X86691981Y-72262532D01*
X86498591Y-72301000D01*
X86301409Y-72301000D01*
X86108019Y-72262532D01*
X85925849Y-72187074D01*
X85761900Y-72077527D01*
X85622473Y-71938100D01*
X85512926Y-71774151D01*
X85437468Y-71591981D01*
X85399000Y-71398590D01*
X85399000Y-71201410D01*
X85437468Y-71008019D01*
X85512926Y-70825849D01*
X85622473Y-70661900D01*
X85761900Y-70522473D01*
X85925849Y-70412926D01*
X86108019Y-70337468D01*
X86204715Y-70318234D01*
X86301409Y-70299000D01*
X86498591Y-70299000D01*
X86595285Y-70318234D01*
X86595285Y-70318234D01*
G37*
G36*
X78975285Y-70318234D02*
G01*
X79071981Y-70337468D01*
X79254151Y-70412926D01*
X79418100Y-70522473D01*
X79557527Y-70661900D01*
X79667074Y-70825849D01*
X79742532Y-71008019D01*
X79781000Y-71201410D01*
X79781000Y-71398590D01*
X79742532Y-71591981D01*
X79667074Y-71774151D01*
X79557527Y-71938100D01*
X79418100Y-72077527D01*
X79254151Y-72187074D01*
X79071981Y-72262532D01*
X78878591Y-72301000D01*
X78681409Y-72301000D01*
X78488019Y-72262532D01*
X78305849Y-72187074D01*
X78141900Y-72077527D01*
X78002473Y-71938100D01*
X77892926Y-71774151D01*
X77817468Y-71591981D01*
X77779000Y-71398590D01*
X77779000Y-71201410D01*
X77817468Y-71008019D01*
X77892926Y-70825849D01*
X78002473Y-70661900D01*
X78141900Y-70522473D01*
X78305849Y-70412926D01*
X78488019Y-70337468D01*
X78584715Y-70318234D01*
X78681409Y-70299000D01*
X78878591Y-70299000D01*
X78975285Y-70318234D01*
X78975285Y-70318234D01*
G37*
G36*
X81515285Y-70318234D02*
G01*
X81611981Y-70337468D01*
X81794151Y-70412926D01*
X81958100Y-70522473D01*
X82097527Y-70661900D01*
X82207074Y-70825849D01*
X82282532Y-71008019D01*
X82321000Y-71201410D01*
X82321000Y-71398590D01*
X82282532Y-71591981D01*
X82207074Y-71774151D01*
X82097527Y-71938100D01*
X81958100Y-72077527D01*
X81794151Y-72187074D01*
X81611981Y-72262532D01*
X81418591Y-72301000D01*
X81221409Y-72301000D01*
X81028019Y-72262532D01*
X80845849Y-72187074D01*
X80681900Y-72077527D01*
X80542473Y-71938100D01*
X80432926Y-71774151D01*
X80357468Y-71591981D01*
X80319000Y-71398590D01*
X80319000Y-71201410D01*
X80357468Y-71008019D01*
X80432926Y-70825849D01*
X80542473Y-70661900D01*
X80681900Y-70522473D01*
X80845849Y-70412926D01*
X81028019Y-70337468D01*
X81124715Y-70318234D01*
X81221409Y-70299000D01*
X81418591Y-70299000D01*
X81515285Y-70318234D01*
X81515285Y-70318234D01*
G37*
G36*
X84055285Y-70318234D02*
G01*
X84151981Y-70337468D01*
X84334151Y-70412926D01*
X84498100Y-70522473D01*
X84637527Y-70661900D01*
X84747074Y-70825849D01*
X84822532Y-71008019D01*
X84861000Y-71201410D01*
X84861000Y-71398590D01*
X84822532Y-71591981D01*
X84747074Y-71774151D01*
X84637527Y-71938100D01*
X84498100Y-72077527D01*
X84334151Y-72187074D01*
X84151981Y-72262532D01*
X83958591Y-72301000D01*
X83761409Y-72301000D01*
X83568019Y-72262532D01*
X83385849Y-72187074D01*
X83221900Y-72077527D01*
X83082473Y-71938100D01*
X82972926Y-71774151D01*
X82897468Y-71591981D01*
X82859000Y-71398590D01*
X82859000Y-71201410D01*
X82897468Y-71008019D01*
X82972926Y-70825849D01*
X83082473Y-70661900D01*
X83221900Y-70522473D01*
X83385849Y-70412926D01*
X83568019Y-70337468D01*
X83664715Y-70318234D01*
X83761409Y-70299000D01*
X83958591Y-70299000D01*
X84055285Y-70318234D01*
X84055285Y-70318234D01*
G37*
G36*
X127598254Y-67527818D02*
G01*
X127971511Y-67682426D01*
X127971513Y-67682427D01*
X128307436Y-67906884D01*
X128593116Y-68192564D01*
X128817574Y-68528489D01*
X128972182Y-68901746D01*
X129051000Y-69297993D01*
X129051000Y-69702007D01*
X128972182Y-70098254D01*
X128817574Y-70471511D01*
X128817573Y-70471513D01*
X128593116Y-70807436D01*
X128307436Y-71093116D01*
X127971513Y-71317573D01*
X127971512Y-71317574D01*
X127971511Y-71317574D01*
X127598254Y-71472182D01*
X127202007Y-71551000D01*
X126797993Y-71551000D01*
X126401746Y-71472182D01*
X126028489Y-71317574D01*
X126028488Y-71317574D01*
X126028487Y-71317573D01*
X125692564Y-71093116D01*
X125406884Y-70807436D01*
X125182427Y-70471513D01*
X125182426Y-70471511D01*
X125027818Y-70098254D01*
X124949000Y-69702007D01*
X124949000Y-69297993D01*
X125027818Y-68901746D01*
X125182426Y-68528489D01*
X125406884Y-68192564D01*
X125692564Y-67906884D01*
X126028487Y-67682427D01*
X126028489Y-67682426D01*
X126401746Y-67527818D01*
X126797993Y-67449000D01*
X127202007Y-67449000D01*
X127598254Y-67527818D01*
X127598254Y-67527818D01*
G37*
G36*
X68598254Y-67527818D02*
G01*
X68971511Y-67682426D01*
X68971513Y-67682427D01*
X69307436Y-67906884D01*
X69593116Y-68192564D01*
X69817574Y-68528489D01*
X69972182Y-68901746D01*
X70051000Y-69297993D01*
X70051000Y-69702007D01*
X69972182Y-70098254D01*
X69817574Y-70471511D01*
X69817573Y-70471513D01*
X69593116Y-70807436D01*
X69307436Y-71093116D01*
X68971513Y-71317573D01*
X68971512Y-71317574D01*
X68971511Y-71317574D01*
X68598254Y-71472182D01*
X68202007Y-71551000D01*
X67797993Y-71551000D01*
X67401746Y-71472182D01*
X67028489Y-71317574D01*
X67028488Y-71317574D01*
X67028487Y-71317573D01*
X66692564Y-71093116D01*
X66406884Y-70807436D01*
X66182427Y-70471513D01*
X66182426Y-70471511D01*
X66027818Y-70098254D01*
X65949000Y-69702007D01*
X65949000Y-69297993D01*
X66027818Y-68901746D01*
X66182426Y-68528489D01*
X66406884Y-68192564D01*
X66692564Y-67906884D01*
X67028487Y-67682427D01*
X67028489Y-67682426D01*
X67401746Y-67527818D01*
X67797993Y-67449000D01*
X68202007Y-67449000D01*
X68598254Y-67527818D01*
X68598254Y-67527818D01*
G37*
M02*
