M48
METRIC,TZ
T1C0.400
T2C0.750
T3C0.800
T4C1.000
T5C1.100
T6C1.300
T7C1.600
T8C1.650
%
G90
G05
T1
X80450Y-143600
X82200Y-136900
X84800Y-136100
X88100Y-136100
X89000Y-103400
X90900Y-133800
X91600Y-101500
X92300Y-137800
X92500Y-133700
X92700Y-141500
X92700Y-145400
X93500Y-130000
X94000Y-129100
X94100Y-138100
X94600Y-128300
X95200Y-127500
X95700Y-134800
X95900Y-126700
X96500Y-120800
X97200Y-139000
X97700Y-125700
X98400Y-124900
X98800Y-144900
X99100Y-118200
X99100Y-119300
X99300Y-124400
X99600Y-136200
X99900Y-129600
X100200Y-144900
X100300Y-122450
X100300Y-124300
X101000Y-138500
X101200Y-117100
X101200Y-118200
X101200Y-119300
X101400Y-122200
X101400Y-124300
X102400Y-124600
X102500Y-122400
X102600Y-144900
X102800Y-132400
X103400Y-125000
X103700Y-118800
X104300Y-125500
X104400Y-127400
X104600Y-135600
X104600Y-137000
X104800Y-139300
X105100Y-126100
X106200Y-118800
X106300Y-132100
X106800Y-128200
X107300Y-131300
X108100Y-124800
X108200Y-127800
X108300Y-130700
X108800Y-129800
X108800Y-147200
X108900Y-128700
X108950Y-103450
X110300Y-121800
X110600Y-126300
X110600Y-137700
X115600Y-139200
X116200Y-130300
X118600Y-136900
T2
X119300Y-146000
X119300Y-147270
X119300Y-148540
T4
X126900Y-127360
X126900Y-129900
X126900Y-132440
X126900Y-134980
X126900Y-137520
X126900Y-140060
X126900Y-142600
X68400Y-119800
X68400Y-122340
X68400Y-124880
X68400Y-127420
X68400Y-129960
X68400Y-132500
X68400Y-135040
X68400Y-137580
X68400Y-140120
X68400Y-142660
X68400Y-145200
X82360Y-142220
X82360Y-144760
X82360Y-147300
X84900Y-142220
X84900Y-144760
X84900Y-147300
T5
X116200Y-106200
X121280Y-106200
X98820Y-106200
X103900Y-106200
T6
X123700Y-78800
X123700Y-83800
T7
X84100Y-98300
X84100Y-100840
X84100Y-103380
X84100Y-105920
X101700Y-73600
X113200Y-73600
X78780Y-71300
X78780Y-87790
X81320Y-71300
X81320Y-87790
X83860Y-71300
X83860Y-87790
X86400Y-71300
X86400Y-87790
X101700Y-83800
X113200Y-83800
T8
X114700Y-92500
X114700Y-98200
X119300Y-92500
X119300Y-98200
X123900Y-92500
X123900Y-98200
T3
G00X115900Y-119600
M15
G01X115900Y-117000
M16
G05
G00X120000Y-113500
M15
G01X117800Y-113500
M16
G05
G00X121700Y-119400
M15
G01X121700Y-117200
M16
G05
T0
M30
