G04 #@! TF.GenerationSoftware,KiCad,Pcbnew,5.0.1*
G04 #@! TF.CreationDate,2018-12-04T10:53:53+13:00*
G04 #@! TF.ProjectId,jake_small,6A616B655F736D616C6C2E6B69636164,rev?*
G04 #@! TF.SameCoordinates,Original*
G04 #@! TF.FileFunction,Legend,Bot*
G04 #@! TF.FilePolarity,Positive*
%FSLAX46Y46*%
G04 Gerber Fmt 4.6, Leading zero omitted, Abs format (unit mm)*
G04 Created by KiCad (PCBNEW 5.0.1) date Tue 04 Dec 2018 10:53:53 NZDT*
%MOMM*%
%LPD*%
G01*
G04 APERTURE LIST*
%ADD10C,0.200000*%
%ADD11C,0.100000*%
%ADD12C,0.150000*%
G04 APERTURE END LIST*
D10*
X156569047Y-41788095D02*
X155826190Y-41788095D01*
X156197619Y-43088095D02*
X156197619Y-41788095D01*
X155392857Y-43088095D02*
X155392857Y-41788095D01*
X155392857Y-42407142D02*
X154650000Y-42407142D01*
X154650000Y-43088095D02*
X154650000Y-41788095D01*
X154030952Y-43088095D02*
X154030952Y-41788095D01*
X153473809Y-43026190D02*
X153288095Y-43088095D01*
X152978571Y-43088095D01*
X152854761Y-43026190D01*
X152792857Y-42964285D01*
X152730952Y-42840476D01*
X152730952Y-42716666D01*
X152792857Y-42592857D01*
X152854761Y-42530952D01*
X152978571Y-42469047D01*
X153226190Y-42407142D01*
X153350000Y-42345238D01*
X153411904Y-42283333D01*
X153473809Y-42159523D01*
X153473809Y-42035714D01*
X153411904Y-41911904D01*
X153350000Y-41850000D01*
X153226190Y-41788095D01*
X152916666Y-41788095D01*
X152730952Y-41850000D01*
X151245238Y-43026190D02*
X151059523Y-43088095D01*
X150750000Y-43088095D01*
X150626190Y-43026190D01*
X150564285Y-42964285D01*
X150502380Y-42840476D01*
X150502380Y-42716666D01*
X150564285Y-42592857D01*
X150626190Y-42530952D01*
X150750000Y-42469047D01*
X150997619Y-42407142D01*
X151121428Y-42345238D01*
X151183333Y-42283333D01*
X151245238Y-42159523D01*
X151245238Y-42035714D01*
X151183333Y-41911904D01*
X151121428Y-41850000D01*
X150997619Y-41788095D01*
X150688095Y-41788095D01*
X150502380Y-41850000D01*
X149945238Y-43088095D02*
X149945238Y-41788095D01*
X149326190Y-43088095D02*
X149326190Y-41788095D01*
X149016666Y-41788095D01*
X148830952Y-41850000D01*
X148707142Y-41973809D01*
X148645238Y-42097619D01*
X148583333Y-42345238D01*
X148583333Y-42530952D01*
X148645238Y-42778571D01*
X148707142Y-42902380D01*
X148830952Y-43026190D01*
X149016666Y-43088095D01*
X149326190Y-43088095D01*
X148026190Y-42407142D02*
X147592857Y-42407142D01*
X147407142Y-43088095D02*
X148026190Y-43088095D01*
X148026190Y-41788095D01*
X147407142Y-41788095D01*
X146045238Y-41788095D02*
X145302380Y-41788095D01*
X145673809Y-43088095D02*
X145673809Y-41788095D01*
X144621428Y-41788095D02*
X144373809Y-41788095D01*
X144250000Y-41850000D01*
X144126190Y-41973809D01*
X144064285Y-42221428D01*
X144064285Y-42654761D01*
X144126190Y-42902380D01*
X144250000Y-43026190D01*
X144373809Y-43088095D01*
X144621428Y-43088095D01*
X144745238Y-43026190D01*
X144869047Y-42902380D01*
X144930952Y-42654761D01*
X144930952Y-42221428D01*
X144869047Y-41973809D01*
X144745238Y-41850000D01*
X144621428Y-41788095D01*
X142578571Y-43026190D02*
X142392857Y-43088095D01*
X142083333Y-43088095D01*
X141959523Y-43026190D01*
X141897619Y-42964285D01*
X141835714Y-42840476D01*
X141835714Y-42716666D01*
X141897619Y-42592857D01*
X141959523Y-42530952D01*
X142083333Y-42469047D01*
X142330952Y-42407142D01*
X142454761Y-42345238D01*
X142516666Y-42283333D01*
X142578571Y-42159523D01*
X142578571Y-42035714D01*
X142516666Y-41911904D01*
X142454761Y-41850000D01*
X142330952Y-41788095D01*
X142021428Y-41788095D01*
X141835714Y-41850000D01*
X141278571Y-43088095D02*
X141278571Y-41788095D01*
X140535714Y-43088095D02*
X141092857Y-42345238D01*
X140535714Y-41788095D02*
X141278571Y-42530952D01*
X139978571Y-43088095D02*
X139978571Y-41788095D01*
X139359523Y-43088095D02*
X139359523Y-41788095D01*
X138616666Y-43088095D01*
X138616666Y-41788095D01*
D11*
X140750000Y-51850000D02*
X140750000Y-49850000D01*
X139150000Y-51850000D02*
X140750000Y-51850000D01*
X166500000Y-42550000D02*
X166500000Y-42750000D01*
X139150000Y-49850000D02*
X139150000Y-51850000D01*
X140750000Y-49850000D02*
X139150000Y-49850000D01*
D12*
X135952380Y-42523809D02*
X136761904Y-42523809D01*
X136857142Y-42571428D01*
X136904761Y-42619047D01*
X136952380Y-42714285D01*
X136952380Y-42904761D01*
X136904761Y-43000000D01*
X136857142Y-43047619D01*
X136761904Y-43095238D01*
X135952380Y-43095238D01*
X136857142Y-44142857D02*
X136904761Y-44095238D01*
X136952380Y-43952380D01*
X136952380Y-43857142D01*
X136904761Y-43714285D01*
X136809523Y-43619047D01*
X136714285Y-43571428D01*
X136523809Y-43523809D01*
X136380952Y-43523809D01*
X136190476Y-43571428D01*
X136095238Y-43619047D01*
X136000000Y-43714285D01*
X135952380Y-43857142D01*
X135952380Y-43952380D01*
X136000000Y-44095238D01*
X136047619Y-44142857D01*
X136857142Y-45904761D02*
X136904761Y-45857142D01*
X136952380Y-45714285D01*
X136952380Y-45619047D01*
X136904761Y-45476190D01*
X136809523Y-45380952D01*
X136714285Y-45333333D01*
X136523809Y-45285714D01*
X136380952Y-45285714D01*
X136190476Y-45333333D01*
X136095238Y-45380952D01*
X136000000Y-45476190D01*
X135952380Y-45619047D01*
X135952380Y-45714285D01*
X136000000Y-45857142D01*
X136047619Y-45904761D01*
X136428571Y-46666666D02*
X136476190Y-46809523D01*
X136523809Y-46857142D01*
X136619047Y-46904761D01*
X136761904Y-46904761D01*
X136857142Y-46857142D01*
X136904761Y-46809523D01*
X136952380Y-46714285D01*
X136952380Y-46333333D01*
X135952380Y-46333333D01*
X135952380Y-46666666D01*
X136000000Y-46761904D01*
X136047619Y-46809523D01*
X136142857Y-46857142D01*
X136238095Y-46857142D01*
X136333333Y-46809523D01*
X136380952Y-46761904D01*
X136428571Y-46666666D01*
X136428571Y-46333333D01*
X136571428Y-48095238D02*
X136571428Y-48857142D01*
X136952380Y-50571428D02*
X136952380Y-50095238D01*
X135952380Y-50095238D01*
X136952380Y-50904761D02*
X135952380Y-50904761D01*
X136428571Y-50904761D02*
X136428571Y-51476190D01*
X136952380Y-51476190D02*
X135952380Y-51476190D01*
X136952380Y-51952380D02*
X135952380Y-51952380D01*
X135952380Y-52333333D01*
X136000000Y-52428571D01*
X136047619Y-52476190D01*
X136142857Y-52523809D01*
X136285714Y-52523809D01*
X136380952Y-52476190D01*
X136428571Y-52428571D01*
X136476190Y-52333333D01*
X136476190Y-51952380D01*
G04 #@! TO.C,D2*
X144950000Y-48568048D02*
X145050000Y-48568048D01*
X145050000Y-45268048D02*
X144950000Y-45268048D01*
X145850000Y-47268048D02*
X145850000Y-46568048D01*
X144150000Y-47268048D02*
X144150000Y-46568048D01*
G04 #@! TO.C,D1*
X139150000Y-47268048D02*
X139150000Y-46568048D01*
X140850000Y-47268048D02*
X140850000Y-46568048D01*
X140050000Y-45268048D02*
X139950000Y-45268048D01*
X139950000Y-48568048D02*
X140050000Y-48568048D01*
G04 #@! TO.C,D3*
X149150000Y-47268048D02*
X149150000Y-46568048D01*
X150850000Y-47268048D02*
X150850000Y-46568048D01*
X150050000Y-45268048D02*
X149950000Y-45268048D01*
X149950000Y-48568048D02*
X150050000Y-48568048D01*
G04 #@! TO.C,D4*
X154950000Y-48568048D02*
X155050000Y-48568048D01*
X155050000Y-45268048D02*
X154950000Y-45268048D01*
X155850000Y-47268048D02*
X155850000Y-46568048D01*
X154150000Y-47268048D02*
X154150000Y-46568048D01*
G04 #@! TO.C,D2*
X145502380Y-50011904D02*
X144502380Y-50011904D01*
X144502380Y-50250000D01*
X144550000Y-50392857D01*
X144645238Y-50488095D01*
X144740476Y-50535714D01*
X144930952Y-50583333D01*
X145073809Y-50583333D01*
X145264285Y-50535714D01*
X145359523Y-50488095D01*
X145454761Y-50392857D01*
X145502380Y-50250000D01*
X145502380Y-50011904D01*
X144597619Y-50964285D02*
X144550000Y-51011904D01*
X144502380Y-51107142D01*
X144502380Y-51345238D01*
X144550000Y-51440476D01*
X144597619Y-51488095D01*
X144692857Y-51535714D01*
X144788095Y-51535714D01*
X144930952Y-51488095D01*
X145502380Y-50916666D01*
X145502380Y-51535714D01*
G04 #@! TO.C,D1*
X140452380Y-50061904D02*
X139452380Y-50061904D01*
X139452380Y-50300000D01*
X139500000Y-50442857D01*
X139595238Y-50538095D01*
X139690476Y-50585714D01*
X139880952Y-50633333D01*
X140023809Y-50633333D01*
X140214285Y-50585714D01*
X140309523Y-50538095D01*
X140404761Y-50442857D01*
X140452380Y-50300000D01*
X140452380Y-50061904D01*
X140452380Y-51585714D02*
X140452380Y-51014285D01*
X140452380Y-51300000D02*
X139452380Y-51300000D01*
X139595238Y-51204761D01*
X139690476Y-51109523D01*
X139738095Y-51014285D01*
G04 #@! TO.C,D3*
X150452380Y-50061904D02*
X149452380Y-50061904D01*
X149452380Y-50300000D01*
X149500000Y-50442857D01*
X149595238Y-50538095D01*
X149690476Y-50585714D01*
X149880952Y-50633333D01*
X150023809Y-50633333D01*
X150214285Y-50585714D01*
X150309523Y-50538095D01*
X150404761Y-50442857D01*
X150452380Y-50300000D01*
X150452380Y-50061904D01*
X149452380Y-50966666D02*
X149452380Y-51585714D01*
X149833333Y-51252380D01*
X149833333Y-51395238D01*
X149880952Y-51490476D01*
X149928571Y-51538095D01*
X150023809Y-51585714D01*
X150261904Y-51585714D01*
X150357142Y-51538095D01*
X150404761Y-51490476D01*
X150452380Y-51395238D01*
X150452380Y-51109523D01*
X150404761Y-51014285D01*
X150357142Y-50966666D01*
G04 #@! TO.C,D4*
X155402380Y-50111904D02*
X154402380Y-50111904D01*
X154402380Y-50350000D01*
X154450000Y-50492857D01*
X154545238Y-50588095D01*
X154640476Y-50635714D01*
X154830952Y-50683333D01*
X154973809Y-50683333D01*
X155164285Y-50635714D01*
X155259523Y-50588095D01*
X155354761Y-50492857D01*
X155402380Y-50350000D01*
X155402380Y-50111904D01*
X154735714Y-51540476D02*
X155402380Y-51540476D01*
X154354761Y-51302380D02*
X155069047Y-51064285D01*
X155069047Y-51683333D01*
G04 #@! TD*
M02*
