G04 #@! TF.GenerationSoftware,KiCad,Pcbnew,5.0.1*
G04 #@! TF.CreationDate,2018-12-04T10:53:53+13:00*
G04 #@! TF.ProjectId,jake_small,6A616B655F736D616C6C2E6B69636164,rev?*
G04 #@! TF.SameCoordinates,Original*
G04 #@! TF.FileFunction,Soldermask,Bot*
G04 #@! TF.FilePolarity,Negative*
%FSLAX46Y46*%
G04 Gerber Fmt 4.6, Leading zero omitted, Abs format (unit mm)*
G04 Created by KiCad (PCBNEW 5.0.1) date Tue 04 Dec 2018 10:53:53 NZDT*
%MOMM*%
%LPD*%
G01*
G04 APERTURE LIST*
%ADD10C,0.100000*%
G04 APERTURE END LIST*
D10*
G36*
X124353057Y-42875059D02*
X124579384Y-42943714D01*
X124692548Y-42978042D01*
X125005425Y-43145279D01*
X125279661Y-43370339D01*
X125504721Y-43644575D01*
X125671958Y-43957451D01*
X125706286Y-44070615D01*
X125774941Y-44296942D01*
X125801000Y-44561525D01*
X125801000Y-49238475D01*
X125774941Y-49503058D01*
X125740059Y-49618048D01*
X125671958Y-49842549D01*
X125504721Y-50155425D01*
X125279661Y-50429661D01*
X125005425Y-50654721D01*
X124692549Y-50821958D01*
X124579385Y-50856286D01*
X124353058Y-50924941D01*
X124000000Y-50959714D01*
X123646943Y-50924941D01*
X123420616Y-50856286D01*
X123307452Y-50821958D01*
X122994576Y-50654721D01*
X122720340Y-50429661D01*
X122495280Y-50155425D01*
X122328043Y-49842549D01*
X122259942Y-49618048D01*
X122225060Y-49503058D01*
X122199001Y-49238475D01*
X122199000Y-44561526D01*
X122225059Y-44296943D01*
X122328042Y-43957453D01*
X122328042Y-43957452D01*
X122495279Y-43644575D01*
X122720339Y-43370339D01*
X122994575Y-43145279D01*
X123307451Y-42978042D01*
X123420615Y-42943714D01*
X123646942Y-42875059D01*
X124000000Y-42840286D01*
X124353057Y-42875059D01*
X124353057Y-42875059D01*
G37*
G36*
X171353057Y-42875059D02*
X171579384Y-42943714D01*
X171692548Y-42978042D01*
X172005425Y-43145279D01*
X172279661Y-43370339D01*
X172504721Y-43644575D01*
X172671958Y-43957451D01*
X172706286Y-44070615D01*
X172774941Y-44296942D01*
X172801000Y-44561525D01*
X172801000Y-49238475D01*
X172774941Y-49503058D01*
X172740059Y-49618048D01*
X172671958Y-49842549D01*
X172504721Y-50155425D01*
X172279661Y-50429661D01*
X172005425Y-50654721D01*
X171692549Y-50821958D01*
X171579385Y-50856286D01*
X171353058Y-50924941D01*
X171000000Y-50959714D01*
X170646943Y-50924941D01*
X170420616Y-50856286D01*
X170307452Y-50821958D01*
X169994576Y-50654721D01*
X169720340Y-50429661D01*
X169495280Y-50155425D01*
X169328043Y-49842549D01*
X169259942Y-49618048D01*
X169225060Y-49503058D01*
X169199001Y-49238475D01*
X169199000Y-44561526D01*
X169225059Y-44296943D01*
X169328042Y-43957453D01*
X169328042Y-43957452D01*
X169495279Y-43644575D01*
X169720339Y-43370339D01*
X169994575Y-43145279D01*
X170307451Y-42978042D01*
X170420615Y-42943714D01*
X170646942Y-42875059D01*
X171000000Y-42840286D01*
X171353057Y-42875059D01*
X171353057Y-42875059D01*
G37*
G36*
X145900000Y-49618048D02*
X145150000Y-49618048D01*
X145150000Y-47418048D01*
X145900000Y-47418048D01*
X145900000Y-49618048D01*
X145900000Y-49618048D01*
G37*
G36*
X144850000Y-49618048D02*
X144100000Y-49618048D01*
X144100000Y-47418048D01*
X144850000Y-47418048D01*
X144850000Y-49618048D01*
X144850000Y-49618048D01*
G37*
G36*
X139850000Y-49618048D02*
X139100000Y-49618048D01*
X139100000Y-47418048D01*
X139850000Y-47418048D01*
X139850000Y-49618048D01*
X139850000Y-49618048D01*
G37*
G36*
X140900000Y-49618048D02*
X140150000Y-49618048D01*
X140150000Y-47418048D01*
X140900000Y-47418048D01*
X140900000Y-49618048D01*
X140900000Y-49618048D01*
G37*
G36*
X149850000Y-49618048D02*
X149100000Y-49618048D01*
X149100000Y-47418048D01*
X149850000Y-47418048D01*
X149850000Y-49618048D01*
X149850000Y-49618048D01*
G37*
G36*
X154850000Y-49618048D02*
X154100000Y-49618048D01*
X154100000Y-47418048D01*
X154850000Y-47418048D01*
X154850000Y-49618048D01*
X154850000Y-49618048D01*
G37*
G36*
X155900000Y-49618048D02*
X155150000Y-49618048D01*
X155150000Y-47418048D01*
X155900000Y-47418048D01*
X155900000Y-49618048D01*
X155900000Y-49618048D01*
G37*
G36*
X150900000Y-49618048D02*
X150150000Y-49618048D01*
X150150000Y-47418048D01*
X150900000Y-47418048D01*
X150900000Y-49618048D01*
X150900000Y-49618048D01*
G37*
G36*
X140900000Y-46418048D02*
X140150000Y-46418048D01*
X140150000Y-44218048D01*
X140900000Y-44218048D01*
X140900000Y-46418048D01*
X140900000Y-46418048D01*
G37*
G36*
X154850000Y-46418048D02*
X154100000Y-46418048D01*
X154100000Y-44218048D01*
X154850000Y-44218048D01*
X154850000Y-46418048D01*
X154850000Y-46418048D01*
G37*
G36*
X155900000Y-46418048D02*
X155150000Y-46418048D01*
X155150000Y-44218048D01*
X155900000Y-44218048D01*
X155900000Y-46418048D01*
X155900000Y-46418048D01*
G37*
G36*
X150900000Y-46418048D02*
X150150000Y-46418048D01*
X150150000Y-44218048D01*
X150900000Y-44218048D01*
X150900000Y-46418048D01*
X150900000Y-46418048D01*
G37*
G36*
X149850000Y-46418048D02*
X149100000Y-46418048D01*
X149100000Y-44218048D01*
X149850000Y-44218048D01*
X149850000Y-46418048D01*
X149850000Y-46418048D01*
G37*
G36*
X145900000Y-46418048D02*
X145150000Y-46418048D01*
X145150000Y-44218048D01*
X145900000Y-44218048D01*
X145900000Y-46418048D01*
X145900000Y-46418048D01*
G37*
G36*
X139850000Y-46418048D02*
X139100000Y-46418048D01*
X139100000Y-44218048D01*
X139850000Y-44218048D01*
X139850000Y-46418048D01*
X139850000Y-46418048D01*
G37*
G36*
X144850000Y-46418048D02*
X144100000Y-46418048D01*
X144100000Y-44218048D01*
X144850000Y-44218048D01*
X144850000Y-46418048D01*
X144850000Y-46418048D01*
G37*
M02*
