G04 #@! TF.GenerationSoftware,KiCad,Pcbnew,5.0.1*
G04 #@! TF.CreationDate,2018-12-04T10:53:53+13:00*
G04 #@! TF.ProjectId,jake_small,6A616B655F736D616C6C2E6B69636164,rev?*
G04 #@! TF.SameCoordinates,Original*
G04 #@! TF.FileFunction,Copper,L1,Top,Signal*
G04 #@! TF.FilePolarity,Positive*
%FSLAX46Y46*%
G04 Gerber Fmt 4.6, Leading zero omitted, Abs format (unit mm)*
G04 Created by KiCad (PCBNEW 5.0.1) date Tue 04 Dec 2018 10:53:53 NZDT*
%MOMM*%
%LPD*%
G01*
G04 APERTURE LIST*
G04 #@! TA.AperFunction,SMDPad,CuDef*
%ADD10R,2.400000X0.740000*%
G04 #@! TD*
G04 #@! TA.AperFunction,SMDPad,CuDef*
%ADD11R,0.500000X0.900000*%
G04 #@! TD*
G04 #@! TA.AperFunction,SMDPad,CuDef*
%ADD12R,0.500000X0.600000*%
G04 #@! TD*
G04 #@! TA.AperFunction,WasherPad*
%ADD13O,3.500000X8.000000*%
G04 #@! TD*
G04 #@! TA.AperFunction,SMDPad,CuDef*
%ADD14R,1.725000X1.725000*%
G04 #@! TD*
G04 #@! TA.AperFunction,SMDPad,CuDef*
%ADD15R,0.250000X0.700000*%
G04 #@! TD*
G04 #@! TA.AperFunction,SMDPad,CuDef*
%ADD16R,0.700000X0.250000*%
G04 #@! TD*
G04 #@! TA.AperFunction,SMDPad,CuDef*
%ADD17R,0.800000X1.600000*%
G04 #@! TD*
G04 #@! TA.AperFunction,SMDPad,CuDef*
%ADD18R,0.600000X0.700000*%
G04 #@! TD*
G04 #@! TA.AperFunction,SMDPad,CuDef*
%ADD19R,0.400000X0.600000*%
G04 #@! TD*
G04 #@! TA.AperFunction,ViaPad*
%ADD20C,0.450000*%
G04 #@! TD*
G04 #@! TA.AperFunction,ViaPad*
%ADD21C,0.800000*%
G04 #@! TD*
G04 #@! TA.AperFunction,Conductor*
%ADD22C,0.250000*%
G04 #@! TD*
G04 #@! TA.AperFunction,Conductor*
%ADD23C,0.500000*%
G04 #@! TD*
G04 APERTURE END LIST*
D10*
G04 #@! TO.P,J2,1*
G04 #@! TO.N,VCC*
X132950000Y-52405000D03*
G04 #@! TO.P,J2,2*
G04 #@! TO.N,/MISO*
X129050000Y-52405000D03*
G04 #@! TO.P,J2,3*
G04 #@! TO.N,/SCK*
X132950000Y-51135000D03*
G04 #@! TO.P,J2,4*
G04 #@! TO.N,/nSS*
X129050000Y-51135000D03*
G04 #@! TO.P,J2,5*
G04 #@! TO.N,/MOSI*
X132950000Y-49865000D03*
G04 #@! TO.P,J2,6*
G04 #@! TO.N,/nSS1*
X129050000Y-49865000D03*
G04 #@! TO.P,J2,7*
G04 #@! TO.N,GND*
X132950000Y-48595000D03*
G04 #@! TO.P,J2,8*
G04 #@! TO.N,/nSS3*
X129050000Y-48595000D03*
G04 #@! TD*
G04 #@! TO.P,J1,8*
G04 #@! TO.N,/nSS1*
X129050000Y-41745000D03*
G04 #@! TO.P,J1,7*
G04 #@! TO.N,GND*
X132950000Y-41745000D03*
G04 #@! TO.P,J1,6*
G04 #@! TO.N,N/C*
X129050000Y-43015000D03*
G04 #@! TO.P,J1,5*
G04 #@! TO.N,/MOSI*
X132950000Y-43015000D03*
G04 #@! TO.P,J1,4*
G04 #@! TO.N,/nSS3*
X129050000Y-44285000D03*
G04 #@! TO.P,J1,3*
G04 #@! TO.N,/SCK*
X132950000Y-44285000D03*
G04 #@! TO.P,J1,2*
G04 #@! TO.N,/MISO*
X129050000Y-45555000D03*
G04 #@! TO.P,J1,1*
G04 #@! TO.N,VCC*
X132950000Y-45555000D03*
G04 #@! TD*
D11*
G04 #@! TO.P,R8,2*
G04 #@! TO.N,/B_1a*
X165450000Y-52500000D03*
G04 #@! TO.P,R8,1*
G04 #@! TO.N,/A_2*
X166950000Y-52500000D03*
G04 #@! TD*
G04 #@! TO.P,R6,1*
G04 #@! TO.N,/A_1*
X166950000Y-50900000D03*
G04 #@! TO.P,R6,2*
G04 #@! TO.N,/B_2a*
X165450000Y-50900000D03*
G04 #@! TD*
D12*
G04 #@! TO.P,C1,2*
G04 #@! TO.N,GND*
X168000000Y-44975000D03*
G04 #@! TO.P,C1,1*
G04 #@! TO.N,VCC*
X168000000Y-46075000D03*
G04 #@! TD*
D13*
G04 #@! TO.P,H1,*
G04 #@! TO.N,*
X124000000Y-46900000D03*
G04 #@! TD*
G04 #@! TO.P,H2,*
G04 #@! TO.N,*
X171000000Y-46900000D03*
G04 #@! TD*
D14*
G04 #@! TO.P,U1,33*
G04 #@! TO.N,GND*
X163637500Y-46137500D03*
X163637500Y-47862500D03*
X165362500Y-46137500D03*
X165362500Y-47862500D03*
D15*
G04 #@! TO.P,U1,32*
G04 #@! TO.N,N/C*
X162750000Y-44600000D03*
G04 #@! TO.P,U1,31*
G04 #@! TO.N,/MISO*
X163250000Y-44600000D03*
G04 #@! TO.P,U1,30*
G04 #@! TO.N,/C6*
X163750000Y-44600000D03*
G04 #@! TO.P,U1,29*
G04 #@! TO.N,/C7*
X164250000Y-44600000D03*
G04 #@! TO.P,U1,28*
G04 #@! TO.N,/C1*
X164750000Y-44600000D03*
G04 #@! TO.P,U1,27*
G04 #@! TO.N,/C3*
X165250000Y-44600000D03*
G04 #@! TO.P,U1,26*
G04 #@! TO.N,/C5*
X165750000Y-44600000D03*
G04 #@! TO.P,U1,25*
G04 #@! TO.N,/B_2*
X166250000Y-44600000D03*
D16*
G04 #@! TO.P,U1,24*
G04 #@! TO.N,N/C*
X166900000Y-45250000D03*
G04 #@! TO.P,U1,23*
X166900000Y-45750000D03*
G04 #@! TO.P,U1,22*
X166900000Y-46250000D03*
G04 #@! TO.P,U1,21*
G04 #@! TO.N,GND*
X166900000Y-46750000D03*
G04 #@! TO.P,U1,20*
G04 #@! TO.N,VCC*
X166900000Y-47250000D03*
G04 #@! TO.P,U1,19*
G04 #@! TO.N,/B_1*
X166900000Y-47750000D03*
G04 #@! TO.P,U1,18*
G04 #@! TO.N,/A_2*
X166900000Y-48250000D03*
G04 #@! TO.P,U1,17*
G04 #@! TO.N,N/C*
X166900000Y-48750000D03*
D15*
G04 #@! TO.P,U1,16*
X166250000Y-49400000D03*
G04 #@! TO.P,U1,15*
G04 #@! TO.N,/A_1*
X165750000Y-49400000D03*
G04 #@! TO.P,U1,14*
G04 #@! TO.N,/nRES*
X165250000Y-49400000D03*
G04 #@! TO.P,U1,13*
G04 #@! TO.N,N/C*
X164750000Y-49400000D03*
G04 #@! TO.P,U1,12*
G04 #@! TO.N,/C2*
X164250000Y-49400000D03*
G04 #@! TO.P,U1,11*
G04 #@! TO.N,/nSS*
X163750000Y-49400000D03*
G04 #@! TO.P,U1,10*
G04 #@! TO.N,/SCK*
X163250000Y-49400000D03*
G04 #@! TO.P,U1,9*
G04 #@! TO.N,/MOSI*
X162750000Y-49400000D03*
D16*
G04 #@! TO.P,U1,8*
G04 #@! TO.N,N/C*
X162100000Y-48750000D03*
G04 #@! TO.P,U1,7*
X162100000Y-48250000D03*
G04 #@! TO.P,U1,6*
X162100000Y-47750000D03*
G04 #@! TO.P,U1,5*
G04 #@! TO.N,GND*
X162100000Y-47250000D03*
G04 #@! TO.P,U1,4*
G04 #@! TO.N,VCC*
X162100000Y-46750000D03*
G04 #@! TO.P,U1,3*
G04 #@! TO.N,/C4*
X162100000Y-46250000D03*
G04 #@! TO.P,U1,2*
G04 #@! TO.N,N/C*
X162100000Y-45750000D03*
G04 #@! TO.P,U1,1*
X162100000Y-45250000D03*
G04 #@! TD*
D11*
G04 #@! TO.P,R7,2*
G04 #@! TO.N,/A_1a*
X166500000Y-42900000D03*
G04 #@! TO.P,R7,1*
G04 #@! TO.N,/B_2*
X168000000Y-42900000D03*
G04 #@! TD*
G04 #@! TO.P,R5,2*
G04 #@! TO.N,/A_2a*
X167250000Y-41400000D03*
G04 #@! TO.P,R5,1*
G04 #@! TO.N,/B_1*
X168750000Y-41400000D03*
G04 #@! TD*
D17*
G04 #@! TO.P,J3,1*
G04 #@! TO.N,/nRES*
X169400000Y-52250000D03*
G04 #@! TD*
D18*
G04 #@! TO.P,D5,1*
G04 #@! TO.N,GND*
X122750000Y-42250000D03*
G04 #@! TO.P,D5,2*
G04 #@! TO.N,Net-(D5-Pad2)*
X123850000Y-42250000D03*
G04 #@! TD*
D17*
G04 #@! TO.P,J4,1*
G04 #@! TO.N,GND*
X171900000Y-52250000D03*
G04 #@! TD*
D19*
G04 #@! TO.P,R1,2*
G04 #@! TO.N,VCC*
X125750000Y-42250000D03*
G04 #@! TO.P,R1,1*
G04 #@! TO.N,Net-(D5-Pad2)*
X124850000Y-42250000D03*
G04 #@! TD*
D20*
G04 #@! TO.N,GND*
X165825000Y-47525000D03*
X164650000Y-47500000D03*
X163550000Y-45550000D03*
X164600000Y-45500000D03*
X165450000Y-45550000D03*
X172900000Y-52250000D03*
X161344334Y-47498229D03*
D21*
X167623680Y-44083914D03*
D20*
X127300000Y-51855000D03*
D21*
X134500000Y-41175028D03*
D20*
X163637500Y-47500000D03*
D21*
X134525000Y-48025000D03*
D20*
X162300000Y-44775000D03*
D21*
G04 #@! TO.N,VCC*
X131262653Y-45337347D03*
X168175000Y-47145194D03*
D20*
X127100000Y-42750000D03*
D21*
X130848802Y-51996895D03*
D20*
X160531872Y-47445961D03*
D21*
X134500000Y-52824954D03*
D20*
G04 #@! TO.N,/C7*
X140550000Y-43950000D03*
G04 #@! TO.N,/B_1a*
X160461916Y-48092198D03*
X166458890Y-51699995D03*
X140500000Y-48050004D03*
X150550000Y-48042628D03*
G04 #@! TO.N,/A_2a*
X139500000Y-43850000D03*
X149600000Y-41000000D03*
X149600000Y-42150000D03*
X149500000Y-43850000D03*
G04 #@! TO.N,/C5*
X145500000Y-43800000D03*
G04 #@! TO.N,/A_1a*
X166999990Y-42800010D03*
X144450000Y-45900000D03*
X154499979Y-45900021D03*
X161324986Y-45625000D03*
G04 #@! TO.N,/B_2a*
X165937663Y-51163976D03*
X160821616Y-48633614D03*
X145500000Y-48600000D03*
X155550000Y-48650000D03*
G04 #@! TO.N,/C6*
X160461091Y-45961091D03*
X144500000Y-46850000D03*
X160550000Y-43525000D03*
G04 #@! TO.N,/C4*
X149500000Y-47450000D03*
G04 #@! TO.N,/C3*
X150550000Y-43849990D03*
G04 #@! TO.N,/C1*
X154337173Y-43237173D03*
G04 #@! TO.N,/C2*
X164342553Y-50707518D03*
X160647296Y-49259815D03*
X154450000Y-49250000D03*
G04 #@! TO.N,/nSS3*
X127450000Y-48600000D03*
X127450000Y-44350000D03*
G04 #@! TO.N,/nSS1*
X127075020Y-49850000D03*
X127050000Y-41750000D03*
G04 #@! TO.N,/nSS*
X127400000Y-51100000D03*
X163382109Y-52132109D03*
G04 #@! TO.N,/SCK*
X130675000Y-51125000D03*
X130675028Y-43950000D03*
G04 #@! TO.N,/MOSI*
X131375000Y-43100000D03*
X130675058Y-49850000D03*
G04 #@! TO.N,/nRES*
X164800000Y-50245735D03*
X167872702Y-52272702D03*
G04 #@! TD*
D22*
G04 #@! TO.N,GND*
X163025000Y-47250000D02*
X163637500Y-47525000D01*
X162100000Y-47250000D02*
X163025000Y-47250000D01*
X165975000Y-46750000D02*
X165425000Y-46200000D01*
X166900000Y-46750000D02*
X165975000Y-46750000D01*
X163637500Y-47862500D02*
X163637500Y-47000000D01*
X163637500Y-46137500D02*
X164600000Y-46137500D01*
X165362500Y-46137500D02*
X165362500Y-47000000D01*
X163637500Y-46200000D02*
X163637500Y-46137500D01*
X165425000Y-46200000D02*
X165362500Y-46137500D01*
X165362500Y-47800000D02*
X165362500Y-47862500D01*
X163637500Y-47862500D02*
X163637500Y-47862500D01*
X163637500Y-47000000D02*
X163637500Y-46200000D01*
X165362500Y-47000000D02*
X165362500Y-47800000D01*
X164600000Y-46137500D02*
X165362500Y-46137500D01*
X172900000Y-52250000D02*
X171900000Y-52250000D01*
X122750000Y-42250000D02*
X122000000Y-42250000D01*
X122000000Y-42250000D02*
X121700000Y-41950000D01*
X121700000Y-41950000D02*
X121700000Y-41550000D01*
X122457381Y-40974897D02*
X122646496Y-40950000D01*
X121700000Y-41550000D02*
X122146214Y-41103786D01*
X122146214Y-41103786D02*
X122457381Y-40974897D01*
X130705000Y-40950000D02*
X131500000Y-41745000D01*
X131500000Y-41745000D02*
X132950000Y-41745000D01*
X122646496Y-40950000D02*
X130705000Y-40950000D01*
X161500000Y-47250000D02*
X161344334Y-47405666D01*
X161344334Y-47405666D02*
X161344334Y-47498229D01*
X162100000Y-47250000D02*
X161500000Y-47250000D01*
D23*
X168000000Y-44975000D02*
X168000000Y-44175000D01*
X168000000Y-44175000D02*
X167908914Y-44083914D01*
X167908914Y-44083914D02*
X167623680Y-44083914D01*
D22*
X163375000Y-47600000D02*
X163637500Y-47862500D01*
D23*
X132950000Y-41745000D02*
X133930026Y-41745000D01*
X133930026Y-41745000D02*
X134100001Y-41575027D01*
X134100001Y-41575027D02*
X134500000Y-41175028D01*
D22*
X134600000Y-41275028D02*
X134500000Y-41175028D01*
X163375000Y-47600000D02*
X163375000Y-47600000D01*
X163637500Y-47525000D02*
X163375000Y-47600000D01*
D23*
X134125001Y-48424999D02*
X134525000Y-48025000D01*
X132950000Y-48595000D02*
X133955000Y-48595000D01*
X133955000Y-48595000D02*
X134125001Y-48424999D01*
D22*
X126749999Y-46250001D02*
X126525020Y-46474980D01*
X130800012Y-46700012D02*
X130350001Y-46250001D01*
X126525020Y-51080020D02*
X127300000Y-51855000D01*
X139436399Y-46700012D02*
X130800012Y-46700012D01*
X126525020Y-46474980D02*
X126525020Y-51080020D01*
X140786410Y-45350000D02*
X139436399Y-46700012D01*
X162300000Y-44775000D02*
X162275001Y-44799999D01*
X161625000Y-44799999D02*
X161578088Y-44846911D01*
X130350001Y-46250001D02*
X126749999Y-46250001D01*
X161578088Y-44846911D02*
X154778090Y-44846911D01*
X162275001Y-44799999D02*
X161625000Y-44799999D01*
X154778090Y-44846911D02*
X154275001Y-45350000D01*
X154275001Y-45350000D02*
X140786410Y-45350000D01*
D23*
G04 #@! TO.N,VCC*
X168000000Y-46850001D02*
X168000000Y-46075000D01*
D22*
X167600001Y-47250000D02*
X167850001Y-47000000D01*
X166900000Y-47250000D02*
X167600001Y-47250000D01*
D23*
X132950000Y-45555000D02*
X131480306Y-45555000D01*
X131480306Y-45555000D02*
X131262653Y-45337347D01*
X168000000Y-46970194D02*
X168000000Y-46850001D01*
X168175000Y-47145194D02*
X168000000Y-46970194D01*
D22*
X126200000Y-42250000D02*
X125750000Y-42250000D01*
X127100000Y-42750000D02*
X126700000Y-42750000D01*
X126700000Y-42750000D02*
X126200000Y-42250000D01*
D23*
X130848802Y-52003802D02*
X130848802Y-51996895D01*
X132950000Y-52405000D02*
X131250000Y-52405000D01*
X131250000Y-52405000D02*
X130848802Y-52003802D01*
D22*
X162100000Y-46750000D02*
X161774131Y-46750000D01*
X160756871Y-47220962D02*
X160531872Y-47445961D01*
X161754460Y-46769671D02*
X161208162Y-46769671D01*
X161208162Y-46769671D02*
X160756871Y-47220962D01*
X161774131Y-46750000D02*
X161754460Y-46769671D01*
D23*
X134080046Y-52405000D02*
X134100001Y-52424955D01*
X132950000Y-52405000D02*
X134080046Y-52405000D01*
X134100001Y-52424955D02*
X134500000Y-52824954D01*
D22*
G04 #@! TO.N,/C7*
X164250000Y-43229902D02*
X164250000Y-44600000D01*
X162790163Y-42749989D02*
X163770087Y-42749989D01*
X141000000Y-44400000D02*
X153952179Y-44400000D01*
X163770087Y-42749989D02*
X164250000Y-43229902D01*
X140550000Y-43950000D02*
X141000000Y-44400000D01*
X155602188Y-42749989D02*
X162770087Y-42749989D01*
X153952179Y-44400000D02*
X155602188Y-42749989D01*
G04 #@! TO.N,/B_1a*
X165950000Y-51800000D02*
X166358885Y-51800000D01*
X165450000Y-52300000D02*
X165950000Y-51800000D01*
X166358885Y-51800000D02*
X166458890Y-51699995D01*
X165450000Y-52500000D02*
X165450000Y-52300000D01*
X150231802Y-48042628D02*
X150550000Y-48042628D01*
X150868198Y-48042628D02*
X150550000Y-48042628D01*
X160461916Y-48092198D02*
X160412346Y-48042628D01*
X140825574Y-48042628D02*
X160412346Y-48042628D01*
X140500000Y-48050004D02*
X140818198Y-48050004D01*
X140818198Y-48050004D02*
X140825574Y-48042628D01*
G04 #@! TO.N,/A_2a*
X149699990Y-40900010D02*
X149600000Y-41000000D01*
X150700000Y-40900010D02*
X149699990Y-40900010D01*
X149600000Y-42150000D02*
X149600000Y-43750000D01*
X149600000Y-43750000D02*
X149500000Y-43850000D01*
X166650000Y-41400000D02*
X167250000Y-41400000D01*
X166150010Y-40900010D02*
X166650000Y-41400000D01*
X140200000Y-40900010D02*
X166150010Y-40900010D01*
X139500000Y-43850000D02*
X139500000Y-41600010D01*
X139500000Y-41600010D02*
X140200000Y-40900010D01*
G04 #@! TO.N,/C5*
X165750000Y-42513589D02*
X165750000Y-44600000D01*
X164586432Y-41350021D02*
X165750000Y-42513589D01*
X149850000Y-41550000D02*
X150049979Y-41350021D01*
X145724999Y-43575001D02*
X145724999Y-41775001D01*
X145500000Y-43800000D02*
X145724999Y-43575001D01*
X145950000Y-41550000D02*
X149850000Y-41550000D01*
X145724999Y-41775001D02*
X145950000Y-41550000D01*
X150049979Y-41350021D02*
X164586432Y-41350021D01*
G04 #@! TO.N,/A_1a*
X166500000Y-42900000D02*
X166900000Y-42900000D01*
X166900000Y-42900000D02*
X166999990Y-42800010D01*
X144400000Y-45900000D02*
X144400021Y-45900021D01*
X144400021Y-45900021D02*
X154181781Y-45900021D01*
X154181781Y-45900021D02*
X154499979Y-45900021D01*
X154499979Y-45900021D02*
X155103079Y-45296921D01*
X155103079Y-45296921D02*
X160996907Y-45296921D01*
X160996907Y-45296921D02*
X161099987Y-45400001D01*
X161099987Y-45400001D02*
X161324986Y-45625000D01*
G04 #@! TO.N,/B_2a*
X165450000Y-50900000D02*
X165673687Y-50900000D01*
X165673687Y-50900000D02*
X165937663Y-51163976D01*
X160821616Y-48633614D02*
X160800146Y-48612144D01*
X160755972Y-48612144D02*
X160718116Y-48650000D01*
X160800146Y-48612144D02*
X160755972Y-48612144D01*
X155500000Y-48600000D02*
X155550000Y-48650000D01*
X145500000Y-48600000D02*
X155500000Y-48600000D01*
X160813031Y-48642199D02*
X160821616Y-48633614D01*
X160805230Y-48650000D02*
X160821616Y-48633614D01*
X155550000Y-48650000D02*
X160805230Y-48650000D01*
G04 #@! TO.N,/C6*
X163750000Y-44600000D02*
X163750000Y-43600031D01*
X163750000Y-43600031D02*
X163599947Y-43449978D01*
X160236092Y-46186090D02*
X160461091Y-45961091D01*
X159972161Y-46450021D02*
X160236092Y-46186090D01*
X144500000Y-46850000D02*
X144899979Y-46450021D01*
X144899979Y-46450021D02*
X159972161Y-46450021D01*
X163599947Y-43449978D02*
X160625022Y-43449978D01*
X160625022Y-43449978D02*
X160550000Y-43525000D01*
G04 #@! TO.N,/C4*
X150049974Y-46900026D02*
X149500000Y-47450000D01*
X160436385Y-46900026D02*
X150049974Y-46900026D01*
X162100000Y-46250000D02*
X161086411Y-46250000D01*
X161086411Y-46250000D02*
X160436385Y-46900026D01*
G04 #@! TO.N,/C3*
X150550000Y-42150000D02*
X150550000Y-43849990D01*
X150899968Y-41800032D02*
X150550000Y-42150000D01*
X165250000Y-42650000D02*
X165250000Y-44600000D01*
X164400032Y-41800032D02*
X165250000Y-42650000D01*
X150899968Y-41800032D02*
X164400032Y-41800032D01*
G04 #@! TO.N,/C1*
X164150043Y-42250043D02*
X164750000Y-42850000D01*
X164750000Y-42850000D02*
X164750000Y-44600000D01*
X154337173Y-43237173D02*
X155324303Y-42250043D01*
X155324303Y-42250043D02*
X164150043Y-42250043D01*
G04 #@! TO.N,/C2*
X164250000Y-49400000D02*
X164250000Y-50450000D01*
X164250000Y-50450000D02*
X164250000Y-50614965D01*
X164250000Y-50614965D02*
X164342553Y-50707518D01*
X154459815Y-49259815D02*
X154450000Y-49250000D01*
X160647296Y-49259815D02*
X154459815Y-49259815D01*
G04 #@! TO.N,/nSS3*
X129050000Y-48595000D02*
X127455000Y-48595000D01*
X127455000Y-48595000D02*
X127450000Y-48600000D01*
X128985000Y-44350000D02*
X129050000Y-44285000D01*
X127450000Y-44350000D02*
X128985000Y-44350000D01*
G04 #@! TO.N,/nSS1*
X129050000Y-49865000D02*
X127090020Y-49865000D01*
X127090020Y-49865000D02*
X127075020Y-49850000D01*
X129045000Y-41750000D02*
X129050000Y-41745000D01*
X127050000Y-41750000D02*
X129045000Y-41750000D01*
G04 #@! TO.N,/nSS*
X163750000Y-49400000D02*
X163750000Y-50096412D01*
X129015000Y-51100000D02*
X129050000Y-51135000D01*
X127400000Y-51100000D02*
X129015000Y-51100000D01*
X163750000Y-50096412D02*
X163750000Y-51050000D01*
X163750000Y-51050000D02*
X163750000Y-51764218D01*
X163750000Y-51764218D02*
X163382109Y-52132109D01*
G04 #@! TO.N,/SCK*
X132950000Y-51135000D02*
X130685000Y-51135000D01*
X130685000Y-51135000D02*
X130675000Y-51125000D01*
X130900027Y-44174999D02*
X130675028Y-43950000D01*
X131010028Y-44285000D02*
X130900027Y-44174999D01*
X132950000Y-44285000D02*
X131010028Y-44285000D01*
X163250000Y-49400000D02*
X163250000Y-50400000D01*
X134935000Y-51135000D02*
X132950000Y-51135000D01*
X162515000Y-51135000D02*
X134935000Y-51135000D01*
X163250000Y-50400000D02*
X162515000Y-51135000D01*
G04 #@! TO.N,/MOSI*
X131375000Y-43100000D02*
X132865000Y-43100000D01*
X130690058Y-49865000D02*
X130675058Y-49850000D01*
X132950000Y-49865000D02*
X130690058Y-49865000D01*
X132950000Y-49865000D02*
X133915000Y-49865000D01*
X162750000Y-50150000D02*
X162750000Y-49400000D01*
X134750000Y-50250000D02*
X162650000Y-50250000D01*
X162650000Y-50250000D02*
X162750000Y-50150000D01*
X132950000Y-49865000D02*
X134365000Y-49865000D01*
X134365000Y-49865000D02*
X134750000Y-50250000D01*
G04 #@! TO.N,/MISO*
X126645000Y-45555000D02*
X129050000Y-45555000D01*
X126075010Y-46124990D02*
X126645000Y-45555000D01*
X126075010Y-51650010D02*
X126075010Y-46124990D01*
X129050000Y-52405000D02*
X126830000Y-52405000D01*
X126830000Y-52405000D02*
X126075010Y-51650010D01*
X140600011Y-44899989D02*
X154088601Y-44899989D01*
X129050000Y-45555000D02*
X130455000Y-45555000D01*
X130455000Y-45555000D02*
X131150001Y-46250001D01*
X131150001Y-46250001D02*
X139249999Y-46250001D01*
X139249999Y-46250001D02*
X140600011Y-44899989D01*
X154663600Y-44324990D02*
X154088601Y-44899989D01*
X163250000Y-44600000D02*
X163250000Y-44000000D01*
X161525010Y-44324990D02*
X154663600Y-44324990D01*
X161925000Y-43925000D02*
X161525010Y-44324990D01*
X163174999Y-43924999D02*
X161925000Y-43925000D01*
X163250000Y-44000000D02*
X163174999Y-43924999D01*
G04 #@! TO.N,/nRES*
X164970734Y-50075001D02*
X164800000Y-50245735D01*
X165174999Y-50075001D02*
X164970734Y-50075001D01*
X165250000Y-49400000D02*
X165250000Y-50000000D01*
X165250000Y-50000000D02*
X165174999Y-50075001D01*
X169400000Y-51750000D02*
X169400000Y-52250000D01*
X169377298Y-52272702D02*
X169400000Y-52250000D01*
X167872702Y-52272702D02*
X169377298Y-52272702D01*
G04 #@! TO.N,/B_1*
X169300000Y-42650000D02*
X169300000Y-41650000D01*
X167636410Y-47750000D02*
X168388204Y-48501794D01*
X168388204Y-48501794D02*
X168698206Y-48501794D01*
X169050000Y-41400000D02*
X168750000Y-41400000D01*
X168698206Y-48501794D02*
X168900000Y-48300000D01*
X168900000Y-48300000D02*
X168900000Y-43050000D01*
X169300000Y-41650000D02*
X169050000Y-41400000D01*
X166900000Y-47750000D02*
X167636410Y-47750000D01*
X168900000Y-43050000D02*
X169300000Y-42650000D01*
G04 #@! TO.N,/A_1*
X165750000Y-49960002D02*
X166350000Y-50560002D01*
X165750000Y-49400000D02*
X165750000Y-49960002D01*
X166450000Y-50900000D02*
X166950000Y-50900000D01*
X166350000Y-50800000D02*
X166450000Y-50900000D01*
X166350000Y-50560002D02*
X166350000Y-50800000D01*
G04 #@! TO.N,/B_2*
X166250000Y-44375000D02*
X167725000Y-42900000D01*
X167725000Y-42900000D02*
X168000000Y-42900000D01*
X166250000Y-44600000D02*
X166250000Y-44375000D01*
G04 #@! TO.N,/A_2*
X167460002Y-48250000D02*
X166900000Y-48250000D01*
X167774998Y-48564996D02*
X167460002Y-48250000D01*
X167774998Y-51475002D02*
X167774998Y-48564996D01*
X166950000Y-52500000D02*
X166950000Y-52300000D01*
X166950000Y-52300000D02*
X167774998Y-51475002D01*
G04 #@! TO.N,Net-(D5-Pad2)*
X123850000Y-42250000D02*
X124850000Y-42250000D01*
G04 #@! TD*
M02*
