G04 #@! TF.GenerationSoftware,KiCad,Pcbnew,5.0.1*
G04 #@! TF.CreationDate,2018-12-04T10:53:53+13:00*
G04 #@! TF.ProjectId,jake_small,6A616B655F736D616C6C2E6B69636164,rev?*
G04 #@! TF.SameCoordinates,Original*
G04 #@! TF.FileFunction,Legend,Top*
G04 #@! TF.FilePolarity,Positive*
%FSLAX46Y46*%
G04 Gerber Fmt 4.6, Leading zero omitted, Abs format (unit mm)*
G04 Created by KiCad (PCBNEW 5.0.1) date Tue 04 Dec 2018 10:53:53 NZDT*
%MOMM*%
%LPD*%
G01*
G04 APERTURE LIST*
%ADD10C,0.150000*%
%ADD11C,0.100000*%
%ADD12C,0.120000*%
G04 APERTURE END LIST*
D10*
X172600000Y-52409523D02*
X172561904Y-52485714D01*
X172561904Y-52600000D01*
X172600000Y-52714285D01*
X172676190Y-52790476D01*
X172752380Y-52828571D01*
X172904761Y-52866666D01*
X173019047Y-52866666D01*
X173171428Y-52828571D01*
X173247619Y-52790476D01*
X173323809Y-52714285D01*
X173361904Y-52600000D01*
X173361904Y-52523809D01*
X173323809Y-52409523D01*
X173285714Y-52371428D01*
X173019047Y-52371428D01*
X173019047Y-52523809D01*
X173361904Y-52028571D02*
X172561904Y-52028571D01*
X173361904Y-51571428D01*
X172561904Y-51571428D01*
X173361904Y-51190476D02*
X172561904Y-51190476D01*
X172561904Y-51000000D01*
X172600000Y-50885714D01*
X172676190Y-50809523D01*
X172752380Y-50771428D01*
X172904761Y-50733333D01*
X173019047Y-50733333D01*
X173171428Y-50771428D01*
X173247619Y-50809523D01*
X173323809Y-50885714D01*
X173361904Y-51000000D01*
X173361904Y-51190476D01*
X168561904Y-52695238D02*
X168180952Y-52961904D01*
X168561904Y-53152380D02*
X167761904Y-53152380D01*
X167761904Y-52847619D01*
X167800000Y-52771428D01*
X167838095Y-52733333D01*
X167914285Y-52695238D01*
X168028571Y-52695238D01*
X168104761Y-52733333D01*
X168142857Y-52771428D01*
X168180952Y-52847619D01*
X168180952Y-53152380D01*
X168142857Y-52352380D02*
X168142857Y-52085714D01*
X168561904Y-51971428D02*
X168561904Y-52352380D01*
X167761904Y-52352380D01*
X167761904Y-51971428D01*
X168523809Y-51666666D02*
X168561904Y-51552380D01*
X168561904Y-51361904D01*
X168523809Y-51285714D01*
X168485714Y-51247619D01*
X168409523Y-51209523D01*
X168333333Y-51209523D01*
X168257142Y-51247619D01*
X168219047Y-51285714D01*
X168180952Y-51361904D01*
X168142857Y-51514285D01*
X168104761Y-51590476D01*
X168066666Y-51628571D01*
X167990476Y-51666666D01*
X167914285Y-51666666D01*
X167838095Y-51628571D01*
X167800000Y-51590476D01*
X167761904Y-51514285D01*
X167761904Y-51323809D01*
X167800000Y-51209523D01*
G36*
X131200000Y-46600000D02*
X130600000Y-47600000D01*
X131200000Y-47400000D01*
X131800000Y-47600000D01*
X131200000Y-46600000D01*
G37*
X131200000Y-46600000D02*
X130600000Y-47600000D01*
X131200000Y-47400000D01*
X131800000Y-47600000D01*
X131200000Y-46600000D01*
D11*
X136500000Y-42500000D02*
X138500000Y-42500000D01*
X136500000Y-41000000D02*
X136500000Y-42500000D01*
X138500000Y-41000000D02*
X136500000Y-41000000D01*
X138500000Y-42500000D02*
X138500000Y-41000000D01*
D10*
X152261904Y-42102380D02*
X152261904Y-41102380D01*
X152500000Y-41102380D01*
X152642857Y-41150000D01*
X152738095Y-41245238D01*
X152785714Y-41340476D01*
X152833333Y-41530952D01*
X152833333Y-41673809D01*
X152785714Y-41864285D01*
X152738095Y-41959523D01*
X152642857Y-42054761D01*
X152500000Y-42102380D01*
X152261904Y-42102380D01*
X153690476Y-41435714D02*
X153690476Y-42102380D01*
X153452380Y-41054761D02*
X153214285Y-41769047D01*
X153833333Y-41769047D01*
X147261904Y-42202380D02*
X147261904Y-41202380D01*
X147500000Y-41202380D01*
X147642857Y-41250000D01*
X147738095Y-41345238D01*
X147785714Y-41440476D01*
X147833333Y-41630952D01*
X147833333Y-41773809D01*
X147785714Y-41964285D01*
X147738095Y-42059523D01*
X147642857Y-42154761D01*
X147500000Y-42202380D01*
X147261904Y-42202380D01*
X148166666Y-41202380D02*
X148785714Y-41202380D01*
X148452380Y-41583333D01*
X148595238Y-41583333D01*
X148690476Y-41630952D01*
X148738095Y-41678571D01*
X148785714Y-41773809D01*
X148785714Y-42011904D01*
X148738095Y-42107142D01*
X148690476Y-42154761D01*
X148595238Y-42202380D01*
X148309523Y-42202380D01*
X148214285Y-42154761D01*
X148166666Y-42107142D01*
X142261904Y-42202380D02*
X142261904Y-41202380D01*
X142500000Y-41202380D01*
X142642857Y-41250000D01*
X142738095Y-41345238D01*
X142785714Y-41440476D01*
X142833333Y-41630952D01*
X142833333Y-41773809D01*
X142785714Y-41964285D01*
X142738095Y-42059523D01*
X142642857Y-42154761D01*
X142500000Y-42202380D01*
X142261904Y-42202380D01*
X143214285Y-41297619D02*
X143261904Y-41250000D01*
X143357142Y-41202380D01*
X143595238Y-41202380D01*
X143690476Y-41250000D01*
X143738095Y-41297619D01*
X143785714Y-41392857D01*
X143785714Y-41488095D01*
X143738095Y-41630952D01*
X143166666Y-42202380D01*
X143785714Y-42202380D01*
X136761904Y-42202380D02*
X136761904Y-41202380D01*
X137000000Y-41202380D01*
X137142857Y-41250000D01*
X137238095Y-41345238D01*
X137285714Y-41440476D01*
X137333333Y-41630952D01*
X137333333Y-41773809D01*
X137285714Y-41964285D01*
X137238095Y-42059523D01*
X137142857Y-42154761D01*
X137000000Y-42202380D01*
X136761904Y-42202380D01*
X138285714Y-42202380D02*
X137714285Y-42202380D01*
X138000000Y-42202380D02*
X138000000Y-41202380D01*
X137904761Y-41345238D01*
X137809523Y-41440476D01*
X137714285Y-41488095D01*
X136107023Y-48075000D02*
X136030833Y-48036904D01*
X135916547Y-48036904D01*
X135802261Y-48075000D01*
X135726071Y-48151190D01*
X135687976Y-48227380D01*
X135649880Y-48379761D01*
X135649880Y-48494047D01*
X135687976Y-48646428D01*
X135726071Y-48722619D01*
X135802261Y-48798809D01*
X135916547Y-48836904D01*
X135992738Y-48836904D01*
X136107023Y-48798809D01*
X136145119Y-48760714D01*
X136145119Y-48494047D01*
X135992738Y-48494047D01*
X136487976Y-48836904D02*
X136487976Y-48036904D01*
X136945119Y-48836904D01*
X136945119Y-48036904D01*
X137326071Y-48836904D02*
X137326071Y-48036904D01*
X137516547Y-48036904D01*
X137630833Y-48075000D01*
X137707023Y-48151190D01*
X137745119Y-48227380D01*
X137783214Y-48379761D01*
X137783214Y-48494047D01*
X137745119Y-48646428D01*
X137707023Y-48722619D01*
X137630833Y-48798809D01*
X137516547Y-48836904D01*
X137326071Y-48836904D01*
X135687976Y-50186904D02*
X135687976Y-49386904D01*
X135954642Y-49958333D01*
X136221309Y-49386904D01*
X136221309Y-50186904D01*
X136754642Y-49386904D02*
X136907023Y-49386904D01*
X136983214Y-49425000D01*
X137059404Y-49501190D01*
X137097500Y-49653571D01*
X137097500Y-49920238D01*
X137059404Y-50072619D01*
X136983214Y-50148809D01*
X136907023Y-50186904D01*
X136754642Y-50186904D01*
X136678452Y-50148809D01*
X136602261Y-50072619D01*
X136564166Y-49920238D01*
X136564166Y-49653571D01*
X136602261Y-49501190D01*
X136678452Y-49425000D01*
X136754642Y-49386904D01*
X137402261Y-50148809D02*
X137516547Y-50186904D01*
X137707023Y-50186904D01*
X137783214Y-50148809D01*
X137821309Y-50110714D01*
X137859404Y-50034523D01*
X137859404Y-49958333D01*
X137821309Y-49882142D01*
X137783214Y-49844047D01*
X137707023Y-49805952D01*
X137554642Y-49767857D01*
X137478452Y-49729761D01*
X137440357Y-49691666D01*
X137402261Y-49615476D01*
X137402261Y-49539285D01*
X137440357Y-49463095D01*
X137478452Y-49425000D01*
X137554642Y-49386904D01*
X137745119Y-49386904D01*
X137859404Y-49425000D01*
X138202261Y-50186904D02*
X138202261Y-49386904D01*
X135649880Y-51498809D02*
X135764166Y-51536904D01*
X135954642Y-51536904D01*
X136030833Y-51498809D01*
X136068928Y-51460714D01*
X136107023Y-51384523D01*
X136107023Y-51308333D01*
X136068928Y-51232142D01*
X136030833Y-51194047D01*
X135954642Y-51155952D01*
X135802261Y-51117857D01*
X135726071Y-51079761D01*
X135687976Y-51041666D01*
X135649880Y-50965476D01*
X135649880Y-50889285D01*
X135687976Y-50813095D01*
X135726071Y-50775000D01*
X135802261Y-50736904D01*
X135992738Y-50736904D01*
X136107023Y-50775000D01*
X136907023Y-51460714D02*
X136868928Y-51498809D01*
X136754642Y-51536904D01*
X136678452Y-51536904D01*
X136564166Y-51498809D01*
X136487976Y-51422619D01*
X136449880Y-51346428D01*
X136411785Y-51194047D01*
X136411785Y-51079761D01*
X136449880Y-50927380D01*
X136487976Y-50851190D01*
X136564166Y-50775000D01*
X136678452Y-50736904D01*
X136754642Y-50736904D01*
X136868928Y-50775000D01*
X136907023Y-50813095D01*
X137249880Y-51536904D02*
X137249880Y-50736904D01*
X137707023Y-51536904D02*
X137364166Y-51079761D01*
X137707023Y-50736904D02*
X137249880Y-51194047D01*
X135573690Y-52086904D02*
X135840357Y-52886904D01*
X136107023Y-52086904D01*
X136830833Y-52810714D02*
X136792738Y-52848809D01*
X136678452Y-52886904D01*
X136602261Y-52886904D01*
X136487976Y-52848809D01*
X136411785Y-52772619D01*
X136373690Y-52696428D01*
X136335595Y-52544047D01*
X136335595Y-52429761D01*
X136373690Y-52277380D01*
X136411785Y-52201190D01*
X136487976Y-52125000D01*
X136602261Y-52086904D01*
X136678452Y-52086904D01*
X136792738Y-52125000D01*
X136830833Y-52163095D01*
X137630833Y-52810714D02*
X137592738Y-52848809D01*
X137478452Y-52886904D01*
X137402261Y-52886904D01*
X137287976Y-52848809D01*
X137211785Y-52772619D01*
X137173690Y-52696428D01*
X137135595Y-52544047D01*
X137135595Y-52429761D01*
X137173690Y-52277380D01*
X137211785Y-52201190D01*
X137287976Y-52125000D01*
X137402261Y-52086904D01*
X137478452Y-52086904D01*
X137592738Y-52125000D01*
X137630833Y-52163095D01*
X126131071Y-42023809D02*
X126245357Y-42061904D01*
X126435833Y-42061904D01*
X126512023Y-42023809D01*
X126550119Y-41985714D01*
X126588214Y-41909523D01*
X126588214Y-41833333D01*
X126550119Y-41757142D01*
X126512023Y-41719047D01*
X126435833Y-41680952D01*
X126283452Y-41642857D01*
X126207261Y-41604761D01*
X126169166Y-41566666D01*
X126131071Y-41490476D01*
X126131071Y-41414285D01*
X126169166Y-41338095D01*
X126207261Y-41300000D01*
X126283452Y-41261904D01*
X126473928Y-41261904D01*
X126588214Y-41300000D01*
X126854880Y-41261904D02*
X127350119Y-41261904D01*
X127083452Y-41566666D01*
X127197738Y-41566666D01*
X127273928Y-41604761D01*
X127312023Y-41642857D01*
X127350119Y-41719047D01*
X127350119Y-41909523D01*
X127312023Y-41985714D01*
X127273928Y-42023809D01*
X127197738Y-42061904D01*
X126969166Y-42061904D01*
X126892976Y-42023809D01*
X126854880Y-41985714D01*
X126702500Y-43107142D02*
X127312023Y-43107142D01*
X126131071Y-44723809D02*
X126245357Y-44761904D01*
X126435833Y-44761904D01*
X126512023Y-44723809D01*
X126550119Y-44685714D01*
X126588214Y-44609523D01*
X126588214Y-44533333D01*
X126550119Y-44457142D01*
X126512023Y-44419047D01*
X126435833Y-44380952D01*
X126283452Y-44342857D01*
X126207261Y-44304761D01*
X126169166Y-44266666D01*
X126131071Y-44190476D01*
X126131071Y-44114285D01*
X126169166Y-44038095D01*
X126207261Y-44000000D01*
X126283452Y-43961904D01*
X126473928Y-43961904D01*
X126588214Y-44000000D01*
X126892976Y-44038095D02*
X126931071Y-44000000D01*
X127007261Y-43961904D01*
X127197738Y-43961904D01*
X127273928Y-44000000D01*
X127312023Y-44038095D01*
X127350119Y-44114285D01*
X127350119Y-44190476D01*
X127312023Y-44304761D01*
X126854880Y-44761904D01*
X127350119Y-44761904D01*
X126081071Y-48798809D02*
X126195357Y-48836904D01*
X126385833Y-48836904D01*
X126462023Y-48798809D01*
X126500119Y-48760714D01*
X126538214Y-48684523D01*
X126538214Y-48608333D01*
X126500119Y-48532142D01*
X126462023Y-48494047D01*
X126385833Y-48455952D01*
X126233452Y-48417857D01*
X126157261Y-48379761D01*
X126119166Y-48341666D01*
X126081071Y-48265476D01*
X126081071Y-48189285D01*
X126119166Y-48113095D01*
X126157261Y-48075000D01*
X126233452Y-48036904D01*
X126423928Y-48036904D01*
X126538214Y-48075000D01*
X126842976Y-48113095D02*
X126881071Y-48075000D01*
X126957261Y-48036904D01*
X127147738Y-48036904D01*
X127223928Y-48075000D01*
X127262023Y-48113095D01*
X127300119Y-48189285D01*
X127300119Y-48265476D01*
X127262023Y-48379761D01*
X126804880Y-48836904D01*
X127300119Y-48836904D01*
X126081071Y-50148809D02*
X126195357Y-50186904D01*
X126385833Y-50186904D01*
X126462023Y-50148809D01*
X126500119Y-50110714D01*
X126538214Y-50034523D01*
X126538214Y-49958333D01*
X126500119Y-49882142D01*
X126462023Y-49844047D01*
X126385833Y-49805952D01*
X126233452Y-49767857D01*
X126157261Y-49729761D01*
X126119166Y-49691666D01*
X126081071Y-49615476D01*
X126081071Y-49539285D01*
X126119166Y-49463095D01*
X126157261Y-49425000D01*
X126233452Y-49386904D01*
X126423928Y-49386904D01*
X126538214Y-49425000D01*
X126804880Y-49386904D02*
X127300119Y-49386904D01*
X127033452Y-49691666D01*
X127147738Y-49691666D01*
X127223928Y-49729761D01*
X127262023Y-49767857D01*
X127300119Y-49844047D01*
X127300119Y-50034523D01*
X127262023Y-50110714D01*
X127223928Y-50148809D01*
X127147738Y-50186904D01*
X126919166Y-50186904D01*
X126842976Y-50148809D01*
X126804880Y-50110714D01*
X126081071Y-51498809D02*
X126195357Y-51536904D01*
X126385833Y-51536904D01*
X126462023Y-51498809D01*
X126500119Y-51460714D01*
X126538214Y-51384523D01*
X126538214Y-51308333D01*
X126500119Y-51232142D01*
X126462023Y-51194047D01*
X126385833Y-51155952D01*
X126233452Y-51117857D01*
X126157261Y-51079761D01*
X126119166Y-51041666D01*
X126081071Y-50965476D01*
X126081071Y-50889285D01*
X126119166Y-50813095D01*
X126157261Y-50775000D01*
X126233452Y-50736904D01*
X126423928Y-50736904D01*
X126538214Y-50775000D01*
X126842976Y-51498809D02*
X126957261Y-51536904D01*
X127147738Y-51536904D01*
X127223928Y-51498809D01*
X127262023Y-51460714D01*
X127300119Y-51384523D01*
X127300119Y-51308333D01*
X127262023Y-51232142D01*
X127223928Y-51194047D01*
X127147738Y-51155952D01*
X126995357Y-51117857D01*
X126919166Y-51079761D01*
X126881071Y-51041666D01*
X126842976Y-50965476D01*
X126842976Y-50889285D01*
X126881071Y-50813095D01*
X126919166Y-50775000D01*
X126995357Y-50736904D01*
X127185833Y-50736904D01*
X127300119Y-50775000D01*
X124747738Y-52886904D02*
X124747738Y-52086904D01*
X125014404Y-52658333D01*
X125281071Y-52086904D01*
X125281071Y-52886904D01*
X125662023Y-52886904D02*
X125662023Y-52086904D01*
X126004880Y-52848809D02*
X126119166Y-52886904D01*
X126309642Y-52886904D01*
X126385833Y-52848809D01*
X126423928Y-52810714D01*
X126462023Y-52734523D01*
X126462023Y-52658333D01*
X126423928Y-52582142D01*
X126385833Y-52544047D01*
X126309642Y-52505952D01*
X126157261Y-52467857D01*
X126081071Y-52429761D01*
X126042976Y-52391666D01*
X126004880Y-52315476D01*
X126004880Y-52239285D01*
X126042976Y-52163095D01*
X126081071Y-52125000D01*
X126157261Y-52086904D01*
X126347738Y-52086904D01*
X126462023Y-52125000D01*
X126957261Y-52086904D02*
X127109642Y-52086904D01*
X127185833Y-52125000D01*
X127262023Y-52201190D01*
X127300119Y-52353571D01*
X127300119Y-52620238D01*
X127262023Y-52772619D01*
X127185833Y-52848809D01*
X127109642Y-52886904D01*
X126957261Y-52886904D01*
X126881071Y-52848809D01*
X126804880Y-52772619D01*
X126766785Y-52620238D01*
X126766785Y-52353571D01*
X126804880Y-52201190D01*
X126881071Y-52125000D01*
X126957261Y-52086904D01*
X120952380Y-51545238D02*
X121952380Y-51211904D01*
X120952380Y-50878571D01*
X121666666Y-50592857D02*
X121666666Y-50116666D01*
X121952380Y-50688095D02*
X120952380Y-50354761D01*
X121952380Y-50021428D01*
X121952380Y-49688095D02*
X120952380Y-49688095D01*
X121666666Y-49354761D01*
X120952380Y-49021428D01*
X121952380Y-49021428D01*
X121952380Y-48545238D02*
X120952380Y-48545238D01*
X120952380Y-48164285D01*
X121000000Y-48069047D01*
X121047619Y-48021428D01*
X121142857Y-47973809D01*
X121285714Y-47973809D01*
X121380952Y-48021428D01*
X121428571Y-48069047D01*
X121476190Y-48164285D01*
X121476190Y-48545238D01*
X121952380Y-47545238D02*
X120952380Y-47545238D01*
X121952380Y-46497619D02*
X121476190Y-46830952D01*
X121952380Y-47069047D02*
X120952380Y-47069047D01*
X120952380Y-46688095D01*
X121000000Y-46592857D01*
X121047619Y-46545238D01*
X121142857Y-46497619D01*
X121285714Y-46497619D01*
X121380952Y-46545238D01*
X121428571Y-46592857D01*
X121476190Y-46688095D01*
X121476190Y-47069047D01*
X121428571Y-46069047D02*
X121428571Y-45735714D01*
X121952380Y-45592857D02*
X121952380Y-46069047D01*
X120952380Y-46069047D01*
X120952380Y-45592857D01*
X121047619Y-44450000D02*
X121000000Y-44402380D01*
X120952380Y-44307142D01*
X120952380Y-44069047D01*
X121000000Y-43973809D01*
X121047619Y-43926190D01*
X121142857Y-43878571D01*
X121238095Y-43878571D01*
X121380952Y-43926190D01*
X121952380Y-44497619D01*
X121952380Y-43878571D01*
X121857142Y-43450000D02*
X121904761Y-43402380D01*
X121952380Y-43450000D01*
X121904761Y-43497619D01*
X121857142Y-43450000D01*
X121952380Y-43450000D01*
X120952380Y-42783333D02*
X120952380Y-42688095D01*
X121000000Y-42592857D01*
X121047619Y-42545238D01*
X121142857Y-42497619D01*
X121333333Y-42450000D01*
X121571428Y-42450000D01*
X121761904Y-42497619D01*
X121857142Y-42545238D01*
X121904761Y-42592857D01*
X121952380Y-42688095D01*
X121952380Y-42783333D01*
X121904761Y-42878571D01*
X121857142Y-42926190D01*
X121761904Y-42973809D01*
X121571428Y-43021428D01*
X121333333Y-43021428D01*
X121142857Y-42973809D01*
X121047619Y-42926190D01*
X121000000Y-42878571D01*
X120952380Y-42783333D01*
D12*
G04 #@! TO.C,J2*
X132765000Y-53100000D02*
X129235000Y-53100000D01*
X132765000Y-47900000D02*
X129235000Y-47900000D01*
X134090000Y-53035000D02*
X132765000Y-53035000D01*
X132765000Y-53100000D02*
X132765000Y-53035000D01*
X129235000Y-53100000D02*
X129235000Y-53035000D01*
X132765000Y-47965000D02*
X132765000Y-47900000D01*
X129235000Y-47965000D02*
X129235000Y-47900000D01*
G04 #@! TO.C,J1*
X129235000Y-41115000D02*
X129235000Y-41050000D01*
X132765000Y-41115000D02*
X132765000Y-41050000D01*
X129235000Y-46250000D02*
X129235000Y-46185000D01*
X132765000Y-46250000D02*
X132765000Y-46185000D01*
X134090000Y-46185000D02*
X132765000Y-46185000D01*
X132765000Y-41050000D02*
X129235000Y-41050000D01*
X132765000Y-46250000D02*
X129235000Y-46250000D01*
G04 #@! TO.C,R8*
X166700000Y-53180000D02*
X165700000Y-53180000D01*
X165700000Y-51820000D02*
X166700000Y-51820000D01*
G04 #@! TO.C,R6*
X165700000Y-50220000D02*
X166700000Y-50220000D01*
X166700000Y-51580000D02*
X165700000Y-51580000D01*
G04 #@! TO.C,C1*
X168470000Y-45775000D02*
X168470000Y-45275000D01*
X167530000Y-45275000D02*
X167530000Y-45775000D01*
D10*
G04 #@! TO.C,U1*
X167125000Y-44375000D02*
X166600000Y-44375000D01*
X167125000Y-49625000D02*
X166600000Y-49625000D01*
X161875000Y-49625000D02*
X162400000Y-49625000D01*
X161875000Y-44375000D02*
X162400000Y-44375000D01*
X167125000Y-49625000D02*
X167125000Y-49100000D01*
X161875000Y-49625000D02*
X161875000Y-49100000D01*
X167125000Y-44375000D02*
X167125000Y-44900000D01*
D12*
G04 #@! TO.C,R7*
X167750000Y-43580000D02*
X166750000Y-43580000D01*
X166750000Y-42220000D02*
X167750000Y-42220000D01*
G04 #@! TO.C,R5*
X168500000Y-42080000D02*
X167500000Y-42080000D01*
X167500000Y-40720000D02*
X168500000Y-40720000D01*
G04 #@! TO.C,D5*
X122350000Y-41800000D02*
X123800000Y-41800000D01*
X122350000Y-42700000D02*
X123800000Y-42700000D01*
X122350000Y-41800000D02*
X122350000Y-42700000D01*
G04 #@! TO.C,R1*
X125050000Y-42780000D02*
X125550000Y-42780000D01*
X125550000Y-41720000D02*
X125050000Y-41720000D01*
G04 #@! TO.C,J2*
D10*
X130566666Y-54202380D02*
X130566666Y-54916666D01*
X130519047Y-55059523D01*
X130423809Y-55154761D01*
X130280952Y-55202380D01*
X130185714Y-55202380D01*
X130995238Y-54297619D02*
X131042857Y-54250000D01*
X131138095Y-54202380D01*
X131376190Y-54202380D01*
X131471428Y-54250000D01*
X131519047Y-54297619D01*
X131566666Y-54392857D01*
X131566666Y-54488095D01*
X131519047Y-54630952D01*
X130947619Y-55202380D01*
X131566666Y-55202380D01*
G04 #@! TO.C,J1*
X130766666Y-38602380D02*
X130766666Y-39316666D01*
X130719047Y-39459523D01*
X130623809Y-39554761D01*
X130480952Y-39602380D01*
X130385714Y-39602380D01*
X131766666Y-39602380D02*
X131195238Y-39602380D01*
X131480952Y-39602380D02*
X131480952Y-38602380D01*
X131385714Y-38745238D01*
X131290476Y-38840476D01*
X131195238Y-38888095D01*
G04 #@! TO.C,R8*
X163833333Y-53052380D02*
X163500000Y-52576190D01*
X163261904Y-53052380D02*
X163261904Y-52052380D01*
X163642857Y-52052380D01*
X163738095Y-52100000D01*
X163785714Y-52147619D01*
X163833333Y-52242857D01*
X163833333Y-52385714D01*
X163785714Y-52480952D01*
X163738095Y-52528571D01*
X163642857Y-52576190D01*
X163261904Y-52576190D01*
X164404761Y-52480952D02*
X164309523Y-52433333D01*
X164261904Y-52385714D01*
X164214285Y-52290476D01*
X164214285Y-52242857D01*
X164261904Y-52147619D01*
X164309523Y-52100000D01*
X164404761Y-52052380D01*
X164595238Y-52052380D01*
X164690476Y-52100000D01*
X164738095Y-52147619D01*
X164785714Y-52242857D01*
X164785714Y-52290476D01*
X164738095Y-52385714D01*
X164690476Y-52433333D01*
X164595238Y-52480952D01*
X164404761Y-52480952D01*
X164309523Y-52528571D01*
X164261904Y-52576190D01*
X164214285Y-52671428D01*
X164214285Y-52861904D01*
X164261904Y-52957142D01*
X164309523Y-53004761D01*
X164404761Y-53052380D01*
X164595238Y-53052380D01*
X164690476Y-53004761D01*
X164738095Y-52957142D01*
X164785714Y-52861904D01*
X164785714Y-52671428D01*
X164738095Y-52576190D01*
X164690476Y-52528571D01*
X164595238Y-52480952D01*
G04 #@! TO.C,R6*
X163833333Y-51452380D02*
X163500000Y-50976190D01*
X163261904Y-51452380D02*
X163261904Y-50452380D01*
X163642857Y-50452380D01*
X163738095Y-50500000D01*
X163785714Y-50547619D01*
X163833333Y-50642857D01*
X163833333Y-50785714D01*
X163785714Y-50880952D01*
X163738095Y-50928571D01*
X163642857Y-50976190D01*
X163261904Y-50976190D01*
X164690476Y-50452380D02*
X164500000Y-50452380D01*
X164404761Y-50500000D01*
X164357142Y-50547619D01*
X164261904Y-50690476D01*
X164214285Y-50880952D01*
X164214285Y-51261904D01*
X164261904Y-51357142D01*
X164309523Y-51404761D01*
X164404761Y-51452380D01*
X164595238Y-51452380D01*
X164690476Y-51404761D01*
X164738095Y-51357142D01*
X164785714Y-51261904D01*
X164785714Y-51023809D01*
X164738095Y-50928571D01*
X164690476Y-50880952D01*
X164595238Y-50833333D01*
X164404761Y-50833333D01*
X164309523Y-50880952D01*
X164261904Y-50928571D01*
X164214285Y-51023809D01*
G04 #@! TO.C,C1*
X176057142Y-48916666D02*
X176104761Y-48964285D01*
X176152380Y-49107142D01*
X176152380Y-49202380D01*
X176104761Y-49345238D01*
X176009523Y-49440476D01*
X175914285Y-49488095D01*
X175723809Y-49535714D01*
X175580952Y-49535714D01*
X175390476Y-49488095D01*
X175295238Y-49440476D01*
X175200000Y-49345238D01*
X175152380Y-49202380D01*
X175152380Y-49107142D01*
X175200000Y-48964285D01*
X175247619Y-48916666D01*
X176152380Y-47964285D02*
X176152380Y-48535714D01*
X176152380Y-48250000D02*
X175152380Y-48250000D01*
X175295238Y-48345238D01*
X175390476Y-48440476D01*
X175438095Y-48535714D01*
G04 #@! TO.C,H1*
X120152380Y-47911904D02*
X119152380Y-47911904D01*
X119628571Y-47911904D02*
X119628571Y-47340476D01*
X120152380Y-47340476D02*
X119152380Y-47340476D01*
X120152380Y-46340476D02*
X120152380Y-46911904D01*
X120152380Y-46626190D02*
X119152380Y-46626190D01*
X119295238Y-46721428D01*
X119390476Y-46816666D01*
X119438095Y-46911904D01*
G04 #@! TO.C,H2*
X175952380Y-47761904D02*
X174952380Y-47761904D01*
X175428571Y-47761904D02*
X175428571Y-47190476D01*
X175952380Y-47190476D02*
X174952380Y-47190476D01*
X175047619Y-46761904D02*
X175000000Y-46714285D01*
X174952380Y-46619047D01*
X174952380Y-46380952D01*
X175000000Y-46285714D01*
X175047619Y-46238095D01*
X175142857Y-46190476D01*
X175238095Y-46190476D01*
X175380952Y-46238095D01*
X175952380Y-46809523D01*
X175952380Y-46190476D01*
G04 #@! TO.C,U1*
X162538095Y-38602380D02*
X162538095Y-39411904D01*
X162585714Y-39507142D01*
X162633333Y-39554761D01*
X162728571Y-39602380D01*
X162919047Y-39602380D01*
X163014285Y-39554761D01*
X163061904Y-39507142D01*
X163109523Y-39411904D01*
X163109523Y-38602380D01*
X164109523Y-39602380D02*
X163538095Y-39602380D01*
X163823809Y-39602380D02*
X163823809Y-38602380D01*
X163728571Y-38745238D01*
X163633333Y-38840476D01*
X163538095Y-38888095D01*
G04 #@! TO.C,R7*
X164933333Y-43402380D02*
X164600000Y-42926190D01*
X164361904Y-43402380D02*
X164361904Y-42402380D01*
X164742857Y-42402380D01*
X164838095Y-42450000D01*
X164885714Y-42497619D01*
X164933333Y-42592857D01*
X164933333Y-42735714D01*
X164885714Y-42830952D01*
X164838095Y-42878571D01*
X164742857Y-42926190D01*
X164361904Y-42926190D01*
X165266666Y-42402380D02*
X165933333Y-42402380D01*
X165504761Y-43402380D01*
G04 #@! TO.C,R5*
X170133333Y-41802380D02*
X169800000Y-41326190D01*
X169561904Y-41802380D02*
X169561904Y-40802380D01*
X169942857Y-40802380D01*
X170038095Y-40850000D01*
X170085714Y-40897619D01*
X170133333Y-40992857D01*
X170133333Y-41135714D01*
X170085714Y-41230952D01*
X170038095Y-41278571D01*
X169942857Y-41326190D01*
X169561904Y-41326190D01*
X171038095Y-40802380D02*
X170561904Y-40802380D01*
X170514285Y-41278571D01*
X170561904Y-41230952D01*
X170657142Y-41183333D01*
X170895238Y-41183333D01*
X170990476Y-41230952D01*
X171038095Y-41278571D01*
X171085714Y-41373809D01*
X171085714Y-41611904D01*
X171038095Y-41707142D01*
X170990476Y-41754761D01*
X170895238Y-41802380D01*
X170657142Y-41802380D01*
X170561904Y-41754761D01*
X170514285Y-41707142D01*
G04 #@! TO.C,J3*
X168952380Y-55083333D02*
X169666666Y-55083333D01*
X169809523Y-55130952D01*
X169904761Y-55226190D01*
X169952380Y-55369047D01*
X169952380Y-55464285D01*
X168952380Y-54702380D02*
X168952380Y-54083333D01*
X169333333Y-54416666D01*
X169333333Y-54273809D01*
X169380952Y-54178571D01*
X169428571Y-54130952D01*
X169523809Y-54083333D01*
X169761904Y-54083333D01*
X169857142Y-54130952D01*
X169904761Y-54178571D01*
X169952380Y-54273809D01*
X169952380Y-54559523D01*
X169904761Y-54654761D01*
X169857142Y-54702380D01*
G04 #@! TO.C,D5*
X122761904Y-39202380D02*
X122761904Y-38202380D01*
X123000000Y-38202380D01*
X123142857Y-38250000D01*
X123238095Y-38345238D01*
X123285714Y-38440476D01*
X123333333Y-38630952D01*
X123333333Y-38773809D01*
X123285714Y-38964285D01*
X123238095Y-39059523D01*
X123142857Y-39154761D01*
X123000000Y-39202380D01*
X122761904Y-39202380D01*
X124238095Y-38202380D02*
X123761904Y-38202380D01*
X123714285Y-38678571D01*
X123761904Y-38630952D01*
X123857142Y-38583333D01*
X124095238Y-38583333D01*
X124190476Y-38630952D01*
X124238095Y-38678571D01*
X124285714Y-38773809D01*
X124285714Y-39011904D01*
X124238095Y-39107142D01*
X124190476Y-39154761D01*
X124095238Y-39202380D01*
X123857142Y-39202380D01*
X123761904Y-39154761D01*
X123714285Y-39107142D01*
G04 #@! TO.C,J4*
X171352380Y-55083333D02*
X172066666Y-55083333D01*
X172209523Y-55130952D01*
X172304761Y-55226190D01*
X172352380Y-55369047D01*
X172352380Y-55464285D01*
X171685714Y-54178571D02*
X172352380Y-54178571D01*
X171304761Y-54416666D02*
X172019047Y-54654761D01*
X172019047Y-54035714D01*
G04 #@! TO.C,R1*
X125133333Y-39202380D02*
X124800000Y-38726190D01*
X124561904Y-39202380D02*
X124561904Y-38202380D01*
X124942857Y-38202380D01*
X125038095Y-38250000D01*
X125085714Y-38297619D01*
X125133333Y-38392857D01*
X125133333Y-38535714D01*
X125085714Y-38630952D01*
X125038095Y-38678571D01*
X124942857Y-38726190D01*
X124561904Y-38726190D01*
X126085714Y-39202380D02*
X125514285Y-39202380D01*
X125800000Y-39202380D02*
X125800000Y-38202380D01*
X125704761Y-38345238D01*
X125609523Y-38440476D01*
X125514285Y-38488095D01*
G04 #@! TD*
M02*
