G04 #@! TF.GenerationSoftware,KiCad,Pcbnew,5.0.1*
G04 #@! TF.CreationDate,2018-12-04T10:53:53+13:00*
G04 #@! TF.ProjectId,jake_small,6A616B655F736D616C6C2E6B69636164,rev?*
G04 #@! TF.SameCoordinates,Original*
G04 #@! TF.FileFunction,Soldermask,Top*
G04 #@! TF.FilePolarity,Negative*
%FSLAX46Y46*%
G04 Gerber Fmt 4.6, Leading zero omitted, Abs format (unit mm)*
G04 Created by KiCad (PCBNEW 5.0.1) date Tue 04 Dec 2018 10:53:53 NZDT*
%MOMM*%
%LPD*%
G01*
G04 APERTURE LIST*
%ADD10C,0.100000*%
G04 APERTURE END LIST*
D10*
G36*
X172351000Y-53101000D02*
X171449000Y-53101000D01*
X171449000Y-51399000D01*
X172351000Y-51399000D01*
X172351000Y-53101000D01*
X172351000Y-53101000D01*
G37*
G36*
X169851000Y-53101000D02*
X168949000Y-53101000D01*
X168949000Y-51399000D01*
X169851000Y-51399000D01*
X169851000Y-53101000D01*
X169851000Y-53101000D01*
G37*
G36*
X165751000Y-53001000D02*
X165149000Y-53001000D01*
X165149000Y-51999000D01*
X165751000Y-51999000D01*
X165751000Y-53001000D01*
X165751000Y-53001000D01*
G37*
G36*
X167251000Y-53001000D02*
X166649000Y-53001000D01*
X166649000Y-51999000D01*
X167251000Y-51999000D01*
X167251000Y-53001000D01*
X167251000Y-53001000D01*
G37*
G36*
X134201000Y-52826000D02*
X131699000Y-52826000D01*
X131699000Y-51984000D01*
X134201000Y-51984000D01*
X134201000Y-52826000D01*
X134201000Y-52826000D01*
G37*
G36*
X130301000Y-52826000D02*
X127799000Y-52826000D01*
X127799000Y-51984000D01*
X130301000Y-51984000D01*
X130301000Y-52826000D01*
X130301000Y-52826000D01*
G37*
G36*
X134201000Y-51556000D02*
X131699000Y-51556000D01*
X131699000Y-50714000D01*
X134201000Y-50714000D01*
X134201000Y-51556000D01*
X134201000Y-51556000D01*
G37*
G36*
X130301000Y-51556000D02*
X127799000Y-51556000D01*
X127799000Y-50714000D01*
X130301000Y-50714000D01*
X130301000Y-51556000D01*
X130301000Y-51556000D01*
G37*
G36*
X165751000Y-51401000D02*
X165149000Y-51401000D01*
X165149000Y-50399000D01*
X165751000Y-50399000D01*
X165751000Y-51401000D01*
X165751000Y-51401000D01*
G37*
G36*
X167251000Y-51401000D02*
X166649000Y-51401000D01*
X166649000Y-50399000D01*
X167251000Y-50399000D01*
X167251000Y-51401000D01*
X167251000Y-51401000D01*
G37*
G36*
X171353057Y-42875059D02*
X171579384Y-42943714D01*
X171692548Y-42978042D01*
X172005425Y-43145279D01*
X172279661Y-43370339D01*
X172504721Y-43644575D01*
X172671958Y-43957451D01*
X172706286Y-44070615D01*
X172774941Y-44296942D01*
X172801000Y-44561525D01*
X172801000Y-49238475D01*
X172774941Y-49503058D01*
X172706286Y-49729385D01*
X172671958Y-49842549D01*
X172504721Y-50155425D01*
X172279661Y-50429661D01*
X172005425Y-50654721D01*
X171692549Y-50821958D01*
X171579385Y-50856286D01*
X171353058Y-50924941D01*
X171000000Y-50959714D01*
X170646943Y-50924941D01*
X170420616Y-50856286D01*
X170307452Y-50821958D01*
X169994576Y-50654721D01*
X169720340Y-50429661D01*
X169495280Y-50155425D01*
X169328043Y-49842549D01*
X169293715Y-49729385D01*
X169225060Y-49503058D01*
X169199001Y-49238475D01*
X169199000Y-44561526D01*
X169225059Y-44296943D01*
X169328042Y-43957453D01*
X169328042Y-43957452D01*
X169495279Y-43644575D01*
X169720339Y-43370339D01*
X169994575Y-43145279D01*
X170307451Y-42978042D01*
X170420615Y-42943714D01*
X170646942Y-42875059D01*
X171000000Y-42840286D01*
X171353057Y-42875059D01*
X171353057Y-42875059D01*
G37*
G36*
X124201000Y-42746790D02*
X124203402Y-42771176D01*
X124210515Y-42794625D01*
X124222066Y-42816236D01*
X124237612Y-42835178D01*
X124256554Y-42850724D01*
X124278165Y-42862275D01*
X124301614Y-42869388D01*
X124313739Y-42871187D01*
X124353057Y-42875059D01*
X124579384Y-42943714D01*
X124692548Y-42978042D01*
X125005425Y-43145279D01*
X125279661Y-43370339D01*
X125504721Y-43644575D01*
X125671958Y-43957451D01*
X125706286Y-44070615D01*
X125774941Y-44296942D01*
X125801000Y-44561525D01*
X125801000Y-49238475D01*
X125774941Y-49503058D01*
X125706286Y-49729385D01*
X125671958Y-49842549D01*
X125504721Y-50155425D01*
X125279661Y-50429661D01*
X125005425Y-50654721D01*
X124692549Y-50821958D01*
X124579385Y-50856286D01*
X124353058Y-50924941D01*
X124000000Y-50959714D01*
X123646943Y-50924941D01*
X123420616Y-50856286D01*
X123307452Y-50821958D01*
X122994576Y-50654721D01*
X122720340Y-50429661D01*
X122495280Y-50155425D01*
X122328043Y-49842549D01*
X122293715Y-49729385D01*
X122225060Y-49503058D01*
X122199001Y-49238475D01*
X122199000Y-44561526D01*
X122225059Y-44296943D01*
X122328042Y-43957453D01*
X122328042Y-43957452D01*
X122495279Y-43644575D01*
X122720339Y-43370339D01*
X122994575Y-43145279D01*
X123307451Y-42978042D01*
X123396562Y-42951011D01*
X123579176Y-42895616D01*
X123601809Y-42886240D01*
X123622184Y-42872627D01*
X123639511Y-42855299D01*
X123653125Y-42834925D01*
X123662502Y-42812286D01*
X123667283Y-42788252D01*
X123667283Y-42763748D01*
X123662503Y-42739715D01*
X123653125Y-42717076D01*
X123639512Y-42696701D01*
X123622184Y-42679374D01*
X123601810Y-42665760D01*
X123579171Y-42656383D01*
X123555137Y-42651602D01*
X123542885Y-42651000D01*
X123499000Y-42651000D01*
X123499000Y-41849000D01*
X124201000Y-41849000D01*
X124201000Y-42746790D01*
X124201000Y-42746790D01*
G37*
G36*
X130301000Y-50286000D02*
X127799000Y-50286000D01*
X127799000Y-49444000D01*
X130301000Y-49444000D01*
X130301000Y-50286000D01*
X130301000Y-50286000D01*
G37*
G36*
X134201000Y-50286000D02*
X131699000Y-50286000D01*
X131699000Y-49444000D01*
X134201000Y-49444000D01*
X134201000Y-50286000D01*
X134201000Y-50286000D01*
G37*
G36*
X166426000Y-44949000D02*
X166428402Y-44973386D01*
X166435515Y-44996835D01*
X166447066Y-45018446D01*
X166462612Y-45037388D01*
X166481554Y-45052934D01*
X166503165Y-45064485D01*
X166526614Y-45071598D01*
X166551000Y-45074000D01*
X167301000Y-45074000D01*
X167301000Y-48926000D01*
X166551000Y-48926000D01*
X166526614Y-48928402D01*
X166503165Y-48935515D01*
X166481554Y-48947066D01*
X166462612Y-48962612D01*
X166447066Y-48981554D01*
X166435515Y-49003165D01*
X166428402Y-49026614D01*
X166426000Y-49051000D01*
X166426000Y-49801000D01*
X162574000Y-49801000D01*
X162574000Y-49051000D01*
X162571598Y-49026614D01*
X162564485Y-49003165D01*
X162552934Y-48981554D01*
X162537388Y-48962612D01*
X162518446Y-48947066D01*
X162496835Y-48935515D01*
X162473386Y-48928402D01*
X162449000Y-48926000D01*
X161699000Y-48926000D01*
X161699000Y-45074000D01*
X162449000Y-45074000D01*
X162473386Y-45071598D01*
X162496835Y-45064485D01*
X162518446Y-45052934D01*
X162537388Y-45037388D01*
X162552934Y-45018446D01*
X162564485Y-44996835D01*
X162571598Y-44973386D01*
X162574000Y-44949000D01*
X162574000Y-44199000D01*
X166426000Y-44199000D01*
X166426000Y-44949000D01*
X166426000Y-44949000D01*
G37*
G36*
X134201000Y-49016000D02*
X131699000Y-49016000D01*
X131699000Y-48174000D01*
X134201000Y-48174000D01*
X134201000Y-49016000D01*
X134201000Y-49016000D01*
G37*
G36*
X130301000Y-49016000D02*
X127799000Y-49016000D01*
X127799000Y-48174000D01*
X130301000Y-48174000D01*
X130301000Y-49016000D01*
X130301000Y-49016000D01*
G37*
G36*
X168301000Y-46426000D02*
X167699000Y-46426000D01*
X167699000Y-45724000D01*
X168301000Y-45724000D01*
X168301000Y-46426000D01*
X168301000Y-46426000D01*
G37*
G36*
X130301000Y-45976000D02*
X127799000Y-45976000D01*
X127799000Y-45134000D01*
X130301000Y-45134000D01*
X130301000Y-45976000D01*
X130301000Y-45976000D01*
G37*
G36*
X134201000Y-45976000D02*
X131699000Y-45976000D01*
X131699000Y-45134000D01*
X134201000Y-45134000D01*
X134201000Y-45976000D01*
X134201000Y-45976000D01*
G37*
G36*
X168301000Y-45326000D02*
X167699000Y-45326000D01*
X167699000Y-44624000D01*
X168301000Y-44624000D01*
X168301000Y-45326000D01*
X168301000Y-45326000D01*
G37*
G36*
X130301000Y-44706000D02*
X127799000Y-44706000D01*
X127799000Y-43864000D01*
X130301000Y-43864000D01*
X130301000Y-44706000D01*
X130301000Y-44706000D01*
G37*
G36*
X134201000Y-44706000D02*
X131699000Y-44706000D01*
X131699000Y-43864000D01*
X134201000Y-43864000D01*
X134201000Y-44706000D01*
X134201000Y-44706000D01*
G37*
G36*
X130301000Y-43436000D02*
X127799000Y-43436000D01*
X127799000Y-42594000D01*
X130301000Y-42594000D01*
X130301000Y-43436000D01*
X130301000Y-43436000D01*
G37*
G36*
X134201000Y-43436000D02*
X131699000Y-43436000D01*
X131699000Y-42594000D01*
X134201000Y-42594000D01*
X134201000Y-43436000D01*
X134201000Y-43436000D01*
G37*
G36*
X168301000Y-43401000D02*
X167699000Y-43401000D01*
X167699000Y-42399000D01*
X168301000Y-42399000D01*
X168301000Y-43401000D01*
X168301000Y-43401000D01*
G37*
G36*
X166801000Y-43401000D02*
X166199000Y-43401000D01*
X166199000Y-42399000D01*
X166801000Y-42399000D01*
X166801000Y-43401000D01*
X166801000Y-43401000D01*
G37*
G36*
X123101000Y-42651000D02*
X122399000Y-42651000D01*
X122399000Y-41849000D01*
X123101000Y-41849000D01*
X123101000Y-42651000D01*
X123101000Y-42651000D01*
G37*
G36*
X126001000Y-42601000D02*
X125499000Y-42601000D01*
X125499000Y-41899000D01*
X126001000Y-41899000D01*
X126001000Y-42601000D01*
X126001000Y-42601000D01*
G37*
G36*
X125101000Y-42601000D02*
X124599000Y-42601000D01*
X124599000Y-41899000D01*
X125101000Y-41899000D01*
X125101000Y-42601000D01*
X125101000Y-42601000D01*
G37*
G36*
X134201000Y-42166000D02*
X131699000Y-42166000D01*
X131699000Y-41324000D01*
X134201000Y-41324000D01*
X134201000Y-42166000D01*
X134201000Y-42166000D01*
G37*
G36*
X130301000Y-42166000D02*
X127799000Y-42166000D01*
X127799000Y-41324000D01*
X130301000Y-41324000D01*
X130301000Y-42166000D01*
X130301000Y-42166000D01*
G37*
G36*
X167551000Y-41901000D02*
X166949000Y-41901000D01*
X166949000Y-40899000D01*
X167551000Y-40899000D01*
X167551000Y-41901000D01*
X167551000Y-41901000D01*
G37*
G36*
X169051000Y-41901000D02*
X168449000Y-41901000D01*
X168449000Y-40899000D01*
X169051000Y-40899000D01*
X169051000Y-41901000D01*
X169051000Y-41901000D01*
G37*
M02*
