G04 #@! TF.GenerationSoftware,KiCad,Pcbnew,5.0.1*
G04 #@! TF.CreationDate,2018-12-04T10:53:53+13:00*
G04 #@! TF.ProjectId,jake_small,6A616B655F736D616C6C2E6B69636164,rev?*
G04 #@! TF.SameCoordinates,Original*
G04 #@! TF.FileFunction,Paste,Top*
G04 #@! TF.FilePolarity,Positive*
%FSLAX46Y46*%
G04 Gerber Fmt 4.6, Leading zero omitted, Abs format (unit mm)*
G04 Created by KiCad (PCBNEW 5.0.1) date Tue 04 Dec 2018 10:53:53 NZDT*
%MOMM*%
%LPD*%
G01*
G04 APERTURE LIST*
%ADD10R,2.400000X0.740000*%
%ADD11R,0.500000X0.900000*%
%ADD12R,0.500000X0.600000*%
%ADD13R,1.035000X1.035000*%
%ADD14R,0.250000X0.700000*%
%ADD15R,0.700000X0.250000*%
%ADD16R,0.800000X1.600000*%
%ADD17R,0.600000X0.700000*%
%ADD18R,0.400000X0.600000*%
G04 APERTURE END LIST*
D10*
G04 #@! TO.C,J2*
X132950000Y-52405000D03*
X129050000Y-52405000D03*
X132950000Y-51135000D03*
X129050000Y-51135000D03*
X132950000Y-49865000D03*
X129050000Y-49865000D03*
X132950000Y-48595000D03*
X129050000Y-48595000D03*
G04 #@! TD*
G04 #@! TO.C,J1*
X129050000Y-41745000D03*
X132950000Y-41745000D03*
X129050000Y-43015000D03*
X132950000Y-43015000D03*
X129050000Y-44285000D03*
X132950000Y-44285000D03*
X129050000Y-45555000D03*
X132950000Y-45555000D03*
G04 #@! TD*
D11*
G04 #@! TO.C,R8*
X165450000Y-52500000D03*
X166950000Y-52500000D03*
G04 #@! TD*
G04 #@! TO.C,R6*
X166950000Y-50900000D03*
X165450000Y-50900000D03*
G04 #@! TD*
D12*
G04 #@! TO.C,C1*
X168000000Y-44975000D03*
X168000000Y-46075000D03*
G04 #@! TD*
D13*
G04 #@! TO.C,U1*
X163637500Y-46137500D03*
X163637500Y-47862500D03*
X165362500Y-46137500D03*
X165362500Y-47862500D03*
D14*
X162750000Y-44600000D03*
X163250000Y-44600000D03*
X163750000Y-44600000D03*
X164250000Y-44600000D03*
X164750000Y-44600000D03*
X165250000Y-44600000D03*
X165750000Y-44600000D03*
X166250000Y-44600000D03*
D15*
X166900000Y-45250000D03*
X166900000Y-45750000D03*
X166900000Y-46250000D03*
X166900000Y-46750000D03*
X166900000Y-47250000D03*
X166900000Y-47750000D03*
X166900000Y-48250000D03*
X166900000Y-48750000D03*
D14*
X166250000Y-49400000D03*
X165750000Y-49400000D03*
X165250000Y-49400000D03*
X164750000Y-49400000D03*
X164250000Y-49400000D03*
X163750000Y-49400000D03*
X163250000Y-49400000D03*
X162750000Y-49400000D03*
D15*
X162100000Y-48750000D03*
X162100000Y-48250000D03*
X162100000Y-47750000D03*
X162100000Y-47250000D03*
X162100000Y-46750000D03*
X162100000Y-46250000D03*
X162100000Y-45750000D03*
X162100000Y-45250000D03*
G04 #@! TD*
D11*
G04 #@! TO.C,R7*
X166500000Y-42900000D03*
X168000000Y-42900000D03*
G04 #@! TD*
G04 #@! TO.C,R5*
X167250000Y-41400000D03*
X168750000Y-41400000D03*
G04 #@! TD*
D16*
G04 #@! TO.C,J3*
X169400000Y-52250000D03*
G04 #@! TD*
D17*
G04 #@! TO.C,D5*
X122750000Y-42250000D03*
X123850000Y-42250000D03*
G04 #@! TD*
D16*
G04 #@! TO.C,J4*
X171900000Y-52250000D03*
G04 #@! TD*
D18*
G04 #@! TO.C,R1*
X125750000Y-42250000D03*
X124850000Y-42250000D03*
G04 #@! TD*
M02*
