G04 #@! TF.GenerationSoftware,KiCad,Pcbnew,5.0.1*
G04 #@! TF.CreationDate,2018-12-04T10:53:53+13:00*
G04 #@! TF.ProjectId,jake_small,6A616B655F736D616C6C2E6B69636164,rev?*
G04 #@! TF.SameCoordinates,Original*
G04 #@! TF.FileFunction,Copper,L2,Bot,Signal*
G04 #@! TF.FilePolarity,Positive*
%FSLAX46Y46*%
G04 Gerber Fmt 4.6, Leading zero omitted, Abs format (unit mm)*
G04 Created by KiCad (PCBNEW 5.0.1) date Tue 04 Dec 2018 10:53:53 NZDT*
%MOMM*%
%LPD*%
G01*
G04 APERTURE LIST*
G04 #@! TA.AperFunction,SMDPad,CuDef*
%ADD10R,0.550000X2.000000*%
G04 #@! TD*
G04 #@! TA.AperFunction,WasherPad*
%ADD11O,3.500000X8.000000*%
G04 #@! TD*
G04 #@! TA.AperFunction,ViaPad*
%ADD12C,0.450000*%
G04 #@! TD*
G04 #@! TA.AperFunction,ViaPad*
%ADD13C,0.800000*%
G04 #@! TD*
G04 #@! TA.AperFunction,Conductor*
%ADD14C,0.500000*%
G04 #@! TD*
G04 #@! TA.AperFunction,Conductor*
%ADD15C,0.250000*%
G04 #@! TD*
G04 #@! TA.AperFunction,Conductor*
%ADD16C,0.200000*%
G04 #@! TD*
G04 APERTURE END LIST*
D10*
G04 #@! TO.P,D2,4*
G04 #@! TO.N,/C5*
X145525000Y-45318048D03*
G04 #@! TO.P,D2,2*
G04 #@! TO.N,/A_1a*
X144475000Y-45318048D03*
G04 #@! TO.P,D2,3*
G04 #@! TO.N,/B_2a*
X145525000Y-48518048D03*
G04 #@! TO.P,D2,1*
G04 #@! TO.N,/C6*
X144475000Y-48518048D03*
G04 #@! TD*
G04 #@! TO.P,D1,1*
G04 #@! TO.N,/C7*
X139475000Y-48518048D03*
G04 #@! TO.P,D1,3*
G04 #@! TO.N,/B_1a*
X140525000Y-48518048D03*
G04 #@! TO.P,D1,2*
G04 #@! TO.N,/A_2a*
X139475000Y-45318048D03*
G04 #@! TO.P,D1,4*
G04 #@! TO.N,/C7*
X140525000Y-45318048D03*
G04 #@! TD*
G04 #@! TO.P,D3,1*
G04 #@! TO.N,/C4*
X149475000Y-48518048D03*
G04 #@! TO.P,D3,3*
G04 #@! TO.N,/B_1a*
X150525000Y-48518048D03*
G04 #@! TO.P,D3,2*
G04 #@! TO.N,/A_2a*
X149475000Y-45318048D03*
G04 #@! TO.P,D3,4*
G04 #@! TO.N,/C3*
X150525000Y-45318048D03*
G04 #@! TD*
G04 #@! TO.P,D4,4*
G04 #@! TO.N,/C1*
X155525000Y-45318048D03*
G04 #@! TO.P,D4,2*
G04 #@! TO.N,/A_1a*
X154475000Y-45318048D03*
G04 #@! TO.P,D4,3*
G04 #@! TO.N,/B_2a*
X155525000Y-48518048D03*
G04 #@! TO.P,D4,1*
G04 #@! TO.N,/C2*
X154475000Y-48518048D03*
G04 #@! TD*
D11*
G04 #@! TO.P,H1,*
G04 #@! TO.N,*
X124000000Y-46900000D03*
G04 #@! TD*
G04 #@! TO.P,H2,*
G04 #@! TO.N,*
X171000000Y-46900000D03*
G04 #@! TD*
D12*
G04 #@! TO.N,GND*
X165825000Y-47525000D03*
X164650000Y-47500000D03*
X163550000Y-45550000D03*
X164600000Y-45500000D03*
X165450000Y-45550000D03*
X172900000Y-52250000D03*
X161344334Y-47498229D03*
D13*
X167623680Y-44083914D03*
D12*
X127300000Y-51855000D03*
D13*
X134500000Y-41175028D03*
D12*
X163637500Y-47500000D03*
D13*
X134525000Y-48025000D03*
D12*
X162300000Y-44775000D03*
D13*
G04 #@! TO.N,VCC*
X131262653Y-45337347D03*
X168175000Y-47145194D03*
D12*
X127100000Y-42750000D03*
D13*
X130848802Y-51996895D03*
D12*
X160531872Y-47445961D03*
D13*
X134500000Y-52824954D03*
D12*
G04 #@! TO.N,/C7*
X140550000Y-43950000D03*
G04 #@! TO.N,/B_1a*
X160461916Y-48092198D03*
X166458890Y-51699995D03*
X140500000Y-48050004D03*
X150550000Y-48042628D03*
G04 #@! TO.N,/A_2a*
X139500000Y-43850000D03*
X149600000Y-41000000D03*
X149600000Y-42150000D03*
X149500000Y-43850000D03*
G04 #@! TO.N,/C5*
X145500000Y-43800000D03*
G04 #@! TO.N,/A_1a*
X166999990Y-42800010D03*
X144450000Y-45900000D03*
X154499979Y-45900021D03*
X161324986Y-45625000D03*
G04 #@! TO.N,/B_2a*
X165937663Y-51163976D03*
X160821616Y-48633614D03*
X145500000Y-48600000D03*
X155550000Y-48650000D03*
G04 #@! TO.N,/C6*
X160461091Y-45961091D03*
X144500000Y-46850000D03*
X160550000Y-43525000D03*
G04 #@! TO.N,/C4*
X149500000Y-47450000D03*
G04 #@! TO.N,/C3*
X150550000Y-43849990D03*
G04 #@! TO.N,/C1*
X154337173Y-43237173D03*
G04 #@! TO.N,/C2*
X164342553Y-50707518D03*
X160647296Y-49259815D03*
X154450000Y-49250000D03*
G04 #@! TO.N,/nSS3*
X127450000Y-48600000D03*
X127450000Y-44350000D03*
G04 #@! TO.N,/nSS1*
X127075020Y-49850000D03*
X127050000Y-41750000D03*
G04 #@! TO.N,/nSS*
X127400000Y-51100000D03*
X163382109Y-52132109D03*
G04 #@! TO.N,/SCK*
X130675000Y-51125000D03*
X130675028Y-43950000D03*
G04 #@! TO.N,/MOSI*
X131375000Y-43100000D03*
X130675058Y-49850000D03*
G04 #@! TO.N,/nRES*
X164800000Y-50245735D03*
X167872702Y-52272702D03*
G04 #@! TD*
D14*
G04 #@! TO.N,VCC*
X131662652Y-51748730D02*
X131414487Y-51996895D01*
X131414487Y-51996895D02*
X130848802Y-51996895D01*
X131662652Y-45737346D02*
X131662652Y-51748730D01*
X131262653Y-45337347D02*
X131662652Y-45737346D01*
D15*
X160756871Y-47220962D02*
X160531872Y-47445961D01*
X161029605Y-46948228D02*
X160756871Y-47220962D01*
X167978034Y-46948228D02*
X161029605Y-46948228D01*
X168175000Y-47145194D02*
X167978034Y-46948228D01*
X128000001Y-43650001D02*
X127324999Y-42974999D01*
X128000001Y-44614001D02*
X128000001Y-43650001D01*
X127975000Y-44639002D02*
X128000001Y-44614001D01*
X127975000Y-48310998D02*
X127975000Y-44639002D01*
X129171895Y-51996895D02*
X127975000Y-50800000D01*
X130848802Y-51996895D02*
X129171895Y-51996895D01*
X127975000Y-50800000D02*
X127975000Y-48889002D01*
X128000001Y-48864001D02*
X128000001Y-48335999D01*
X127975000Y-48889002D02*
X128000001Y-48864001D01*
X127324999Y-42974999D02*
X127100000Y-42750000D01*
X128000001Y-48335999D02*
X127975000Y-48310998D01*
D14*
X168574999Y-47545193D02*
X168175000Y-47145194D01*
X168574999Y-52525001D02*
X168574999Y-47545193D01*
X168125010Y-52974990D02*
X168574999Y-52525001D01*
X134500000Y-52824954D02*
X134650036Y-52974990D01*
X134650036Y-52974990D02*
X168125010Y-52974990D01*
D15*
G04 #@! TO.N,/C7*
X140525000Y-46725000D02*
X140525000Y-45318048D01*
X140300000Y-46950000D02*
X140525000Y-46725000D01*
X139793048Y-46950000D02*
X140300000Y-46950000D01*
X139475000Y-48518048D02*
X139475000Y-47268048D01*
X139475000Y-47268048D02*
X139793048Y-46950000D01*
X140550000Y-45293048D02*
X140525000Y-45318048D01*
X140550000Y-43950000D02*
X140550000Y-45293048D01*
G04 #@! TO.N,/B_1a*
X160461916Y-48092198D02*
X160494603Y-48059511D01*
X160494603Y-48059511D02*
X165195921Y-48059511D01*
X165195921Y-48059511D02*
X166683889Y-49547479D01*
X166683889Y-51474996D02*
X166458890Y-51699995D01*
X166683889Y-49547479D02*
X166683889Y-51474996D01*
G04 #@! TO.N,/A_2a*
X139500000Y-45293048D02*
X139475000Y-45318048D01*
X139500000Y-43850000D02*
X139500000Y-45293048D01*
X149600000Y-41000000D02*
X149600000Y-42150000D01*
X149500000Y-45293048D02*
X149475000Y-45318048D01*
X149500000Y-43850000D02*
X149500000Y-45293048D01*
G04 #@! TO.N,/C5*
X145525000Y-43825000D02*
X145500000Y-43800000D01*
X145525000Y-45318048D02*
X145525000Y-43825000D01*
G04 #@! TO.N,/A_1a*
X162198205Y-46498217D02*
X161549985Y-45849999D01*
X168348681Y-43735913D02*
X168348681Y-44851319D01*
X166701783Y-46498217D02*
X162198205Y-46498217D01*
X166999990Y-42800010D02*
X167412778Y-42800010D01*
X168348681Y-44851319D02*
X166701783Y-46498217D01*
X161549985Y-45849999D02*
X161324986Y-45625000D01*
X167412778Y-42800010D02*
X168348681Y-43735913D01*
G04 #@! TO.N,/B_2a*
X165133614Y-48633614D02*
X161139814Y-48633614D01*
X165937663Y-49437663D02*
X165133614Y-48633614D01*
X161139814Y-48633614D02*
X160821616Y-48633614D01*
X165937663Y-51163976D02*
X165937663Y-49437663D01*
X145525000Y-48518048D02*
X145525000Y-48575000D01*
X145525000Y-48575000D02*
X145500000Y-48600000D01*
X155525000Y-48643198D02*
X155531802Y-48650000D01*
X155531802Y-48650000D02*
X155550000Y-48650000D01*
X155525000Y-48518048D02*
X155525000Y-48643198D01*
G04 #@! TO.N,/C6*
X144475000Y-48518048D02*
X144475000Y-47793048D01*
X144500000Y-48493048D02*
X144475000Y-48518048D01*
X144500000Y-46850000D02*
X144500000Y-48493048D01*
X160550000Y-45872182D02*
X160461091Y-45961091D01*
X160550000Y-43525000D02*
X160550000Y-45872182D01*
G04 #@! TO.N,/C4*
X149475000Y-48518048D02*
X149475000Y-47793048D01*
X149500000Y-48493048D02*
X149475000Y-48518048D01*
X149500000Y-47450000D02*
X149500000Y-48493048D01*
G04 #@! TO.N,/C3*
X150525000Y-45318048D02*
X150525000Y-43874990D01*
X150525000Y-43874990D02*
X150550000Y-43849990D01*
G04 #@! TO.N,/C1*
X154337173Y-43405221D02*
X154337173Y-43237173D01*
X155525000Y-45318048D02*
X155525000Y-44593048D01*
X155525000Y-44593048D02*
X154337173Y-43405221D01*
G04 #@! TO.N,/C2*
X160965494Y-49259815D02*
X160647296Y-49259815D01*
X164117554Y-50482519D02*
X164117554Y-49367554D01*
X163833624Y-49083624D02*
X161185608Y-49083624D01*
X164342553Y-50707518D02*
X164117554Y-50482519D01*
X164117554Y-49367554D02*
X163833624Y-49083624D01*
X161185608Y-49083624D02*
X161009417Y-49259815D01*
X161009417Y-49259815D02*
X160965494Y-49259815D01*
G04 #@! TO.N,/nSS3*
X127450000Y-48600000D02*
X127450000Y-44350000D01*
G04 #@! TO.N,/nSS1*
X126549999Y-42250001D02*
X127050000Y-41750000D01*
X127075020Y-49850000D02*
X126549999Y-49324979D01*
X126549999Y-49324979D02*
X126549999Y-42250001D01*
G04 #@! TO.N,/nSS*
X127500000Y-51100000D02*
X127400000Y-51100000D01*
X163382109Y-52132109D02*
X163349989Y-52099989D01*
X163224998Y-51974998D02*
X163382109Y-52132109D01*
X131502672Y-52721896D02*
X132249570Y-51974998D01*
X132249570Y-51974998D02*
X163224998Y-51974998D01*
X127400000Y-51100000D02*
X129021896Y-52721896D01*
X129021896Y-52721896D02*
X131502672Y-52721896D01*
G04 #@! TO.N,/SCK*
X130200000Y-43950000D02*
X130675028Y-43950000D01*
X129800000Y-50568198D02*
X129800000Y-44350000D01*
X130675000Y-51125000D02*
X130356802Y-51125000D01*
X129800000Y-44350000D02*
X130200000Y-43950000D01*
X130356802Y-51125000D02*
X129800000Y-50568198D01*
G04 #@! TO.N,/MOSI*
X131425000Y-43150000D02*
X131375000Y-43100000D01*
X130400000Y-45150000D02*
X131375000Y-44175000D01*
X130400000Y-45950000D02*
X130400000Y-45150000D01*
X131375000Y-44175000D02*
X131375000Y-43100000D01*
X130675058Y-49850000D02*
X130675058Y-46225058D01*
X130675058Y-46225058D02*
X130400000Y-45950000D01*
G04 #@! TO.N,/nRES*
X165622702Y-52272702D02*
X166217595Y-52272702D01*
X165100000Y-51750000D02*
X165622702Y-52272702D01*
X166217595Y-52272702D02*
X167872702Y-52272702D01*
X165100000Y-50650963D02*
X165100000Y-51750000D01*
X164800000Y-50245735D02*
X164800000Y-50350963D01*
X164800000Y-50350963D02*
X165100000Y-50650963D01*
G04 #@! TD*
D16*
G04 #@! TO.N,GND*
G36*
X149075000Y-40895571D02*
X149075000Y-41104429D01*
X149154927Y-41297388D01*
X149175000Y-41317461D01*
X149175001Y-41832538D01*
X149154927Y-41852612D01*
X149075000Y-42045571D01*
X149075000Y-42254429D01*
X149154927Y-42447388D01*
X149302612Y-42595073D01*
X149495571Y-42675000D01*
X149704429Y-42675000D01*
X149897388Y-42595073D01*
X150045073Y-42447388D01*
X150125000Y-42254429D01*
X150125000Y-42045571D01*
X150045073Y-41852612D01*
X150025000Y-41832539D01*
X150025000Y-41317461D01*
X150045073Y-41297388D01*
X150125000Y-41104429D01*
X150125000Y-40895571D01*
X150116479Y-40875000D01*
X171976407Y-40875000D01*
X172527725Y-40944648D01*
X173022291Y-41140460D01*
X173452621Y-41453113D01*
X173791682Y-41862967D01*
X174018160Y-42344258D01*
X174121179Y-42884303D01*
X174125000Y-43005891D01*
X174125001Y-50976400D01*
X174055352Y-51527725D01*
X173859541Y-52022290D01*
X173546887Y-52452622D01*
X173137033Y-52791682D01*
X172655742Y-53018160D01*
X172115697Y-53121179D01*
X171994108Y-53125000D01*
X168752817Y-53125000D01*
X168925604Y-52952213D01*
X168971527Y-52921529D01*
X169093088Y-52739600D01*
X169124999Y-52579171D01*
X169124999Y-52579170D01*
X169135774Y-52525001D01*
X169124999Y-52470832D01*
X169124999Y-50033762D01*
X169522034Y-50627967D01*
X170200131Y-51081057D01*
X171000000Y-51240161D01*
X171799870Y-51081057D01*
X172477967Y-50627967D01*
X172931057Y-49949870D01*
X173050000Y-49351903D01*
X173050000Y-44448097D01*
X172931057Y-43850130D01*
X172477967Y-43172033D01*
X171799869Y-42718943D01*
X171000000Y-42559839D01*
X170200130Y-42718943D01*
X169522033Y-43172033D01*
X169068943Y-43850131D01*
X168950000Y-44448098D01*
X168950001Y-47134281D01*
X168925601Y-47117978D01*
X168875000Y-47067377D01*
X168875000Y-47005955D01*
X168768432Y-46748676D01*
X168571518Y-46551762D01*
X168314239Y-46445194D01*
X168035761Y-46445194D01*
X167847369Y-46523228D01*
X167277812Y-46523228D01*
X168619603Y-45181438D01*
X168655089Y-45157727D01*
X168749022Y-45017146D01*
X168773681Y-44893177D01*
X168773681Y-44893176D01*
X168782007Y-44851320D01*
X168773681Y-44809464D01*
X168773681Y-43777770D01*
X168782007Y-43735913D01*
X168771716Y-43684174D01*
X168749022Y-43570086D01*
X168655089Y-43429505D01*
X168619604Y-43405795D01*
X167742899Y-42529091D01*
X167719186Y-42493602D01*
X167578605Y-42399669D01*
X167454636Y-42375010D01*
X167454635Y-42375010D01*
X167412778Y-42366684D01*
X167370921Y-42375010D01*
X167317451Y-42375010D01*
X167297378Y-42354937D01*
X167104419Y-42275010D01*
X166895561Y-42275010D01*
X166702602Y-42354937D01*
X166554917Y-42502622D01*
X166474990Y-42695581D01*
X166474990Y-42904439D01*
X166554917Y-43097398D01*
X166702602Y-43245083D01*
X166895561Y-43325010D01*
X167104419Y-43325010D01*
X167268693Y-43256965D01*
X167923681Y-43911954D01*
X167923682Y-44675277D01*
X166525743Y-46073217D01*
X162374244Y-46073217D01*
X161880105Y-45579079D01*
X161849986Y-45548960D01*
X161849986Y-45520571D01*
X161770059Y-45327612D01*
X161622374Y-45179927D01*
X161429415Y-45100000D01*
X161220557Y-45100000D01*
X161027598Y-45179927D01*
X160975000Y-45232525D01*
X160975000Y-43842461D01*
X160995073Y-43822388D01*
X161075000Y-43629429D01*
X161075000Y-43420571D01*
X160995073Y-43227612D01*
X160847388Y-43079927D01*
X160654429Y-43000000D01*
X160445571Y-43000000D01*
X160252612Y-43079927D01*
X160104927Y-43227612D01*
X160025000Y-43420571D01*
X160025000Y-43629429D01*
X160104927Y-43822388D01*
X160125000Y-43842461D01*
X160125001Y-45554720D01*
X160016018Y-45663703D01*
X159936091Y-45856662D01*
X159936091Y-46065520D01*
X160016018Y-46258479D01*
X160163703Y-46406164D01*
X160356662Y-46486091D01*
X160565520Y-46486091D01*
X160758479Y-46406164D01*
X160906164Y-46258479D01*
X160986091Y-46065520D01*
X160986091Y-46028566D01*
X161027598Y-46070073D01*
X161220557Y-46150000D01*
X161248946Y-46150000D01*
X161622175Y-46523228D01*
X161071462Y-46523228D01*
X161029604Y-46514902D01*
X160946337Y-46531465D01*
X160863778Y-46547887D01*
X160723197Y-46641820D01*
X160699486Y-46677306D01*
X160485948Y-46890844D01*
X160485949Y-46890844D01*
X160455832Y-46920961D01*
X160427443Y-46920961D01*
X160234484Y-47000888D01*
X160086799Y-47148573D01*
X160006872Y-47341532D01*
X160006872Y-47550390D01*
X160081382Y-47730271D01*
X160016843Y-47794810D01*
X159936916Y-47987769D01*
X159936916Y-48196627D01*
X160016843Y-48389586D01*
X160164528Y-48537271D01*
X160296616Y-48591984D01*
X160296616Y-48738043D01*
X160334690Y-48829960D01*
X160202223Y-48962427D01*
X160122296Y-49155386D01*
X160122296Y-49364244D01*
X160202223Y-49557203D01*
X160349908Y-49704888D01*
X160542867Y-49784815D01*
X160751725Y-49784815D01*
X160944684Y-49704888D01*
X160964757Y-49684815D01*
X160967560Y-49684815D01*
X161009417Y-49693141D01*
X161051274Y-49684815D01*
X161051275Y-49684815D01*
X161175244Y-49660156D01*
X161315825Y-49566223D01*
X161339538Y-49530734D01*
X161361648Y-49508624D01*
X163657584Y-49508624D01*
X163692555Y-49543595D01*
X163692554Y-50440661D01*
X163684228Y-50482519D01*
X163692554Y-50524376D01*
X163717213Y-50648345D01*
X163811146Y-50788927D01*
X163817553Y-50793208D01*
X163817553Y-50811947D01*
X163897480Y-51004906D01*
X164045165Y-51152591D01*
X164238124Y-51232518D01*
X164446982Y-51232518D01*
X164639941Y-51152591D01*
X164675000Y-51117532D01*
X164675001Y-51708138D01*
X164666674Y-51750000D01*
X164699659Y-51915826D01*
X164763637Y-52011575D01*
X164793593Y-52056408D01*
X164829078Y-52080119D01*
X165173949Y-52424990D01*
X163829049Y-52424990D01*
X163907109Y-52236538D01*
X163907109Y-52027680D01*
X163827182Y-51834721D01*
X163679497Y-51687036D01*
X163486538Y-51607109D01*
X163439393Y-51607109D01*
X163390825Y-51574657D01*
X163266856Y-51549998D01*
X163266855Y-51549998D01*
X163224998Y-51541672D01*
X163183141Y-51549998D01*
X132291427Y-51549998D01*
X132249569Y-51541672D01*
X132212652Y-51549015D01*
X132212652Y-45791514D01*
X132223427Y-45737345D01*
X132212652Y-45683176D01*
X132180741Y-45522747D01*
X132059180Y-45340818D01*
X132013255Y-45310132D01*
X131962653Y-45259530D01*
X131962653Y-45198108D01*
X131856085Y-44940829D01*
X131659171Y-44743915D01*
X131480948Y-44670093D01*
X131645923Y-44505118D01*
X131681408Y-44481408D01*
X131775341Y-44340827D01*
X131779872Y-44318048D01*
X138894123Y-44318048D01*
X138894123Y-46318048D01*
X138917407Y-46435102D01*
X138983712Y-46534336D01*
X139082946Y-46600641D01*
X139200000Y-46623925D01*
X139516074Y-46623925D01*
X139486640Y-46643592D01*
X139462929Y-46679078D01*
X139204078Y-46937930D01*
X139168593Y-46961640D01*
X139144882Y-46997126D01*
X139074659Y-47102222D01*
X139042825Y-47262263D01*
X138983712Y-47301760D01*
X138917407Y-47400994D01*
X138894123Y-47518048D01*
X138894123Y-49518048D01*
X138917407Y-49635102D01*
X138983712Y-49734336D01*
X139082946Y-49800641D01*
X139200000Y-49823925D01*
X139750000Y-49823925D01*
X139867054Y-49800641D01*
X139966288Y-49734336D01*
X140000000Y-49683882D01*
X140033712Y-49734336D01*
X140132946Y-49800641D01*
X140250000Y-49823925D01*
X140800000Y-49823925D01*
X140917054Y-49800641D01*
X141016288Y-49734336D01*
X141082593Y-49635102D01*
X141105877Y-49518048D01*
X141105877Y-47518048D01*
X141082593Y-47400994D01*
X141016288Y-47301760D01*
X140917054Y-47235455D01*
X140800000Y-47212171D01*
X140638869Y-47212171D01*
X140795920Y-47055120D01*
X140831408Y-47031408D01*
X140925341Y-46890827D01*
X140950000Y-46766858D01*
X140950000Y-46766857D01*
X140958326Y-46725001D01*
X140950000Y-46683143D01*
X140950000Y-46578628D01*
X141016288Y-46534336D01*
X141082593Y-46435102D01*
X141105877Y-46318048D01*
X141105877Y-44318048D01*
X143894123Y-44318048D01*
X143894123Y-46318048D01*
X143917407Y-46435102D01*
X143983712Y-46534336D01*
X144045419Y-46575567D01*
X143975000Y-46745571D01*
X143975000Y-46954429D01*
X144054927Y-47147388D01*
X144075000Y-47167461D01*
X144075000Y-47240764D01*
X143983712Y-47301760D01*
X143917407Y-47400994D01*
X143894123Y-47518048D01*
X143894123Y-49518048D01*
X143917407Y-49635102D01*
X143983712Y-49734336D01*
X144082946Y-49800641D01*
X144200000Y-49823925D01*
X144750000Y-49823925D01*
X144867054Y-49800641D01*
X144966288Y-49734336D01*
X145000000Y-49683882D01*
X145033712Y-49734336D01*
X145132946Y-49800641D01*
X145250000Y-49823925D01*
X145800000Y-49823925D01*
X145917054Y-49800641D01*
X146016288Y-49734336D01*
X146082593Y-49635102D01*
X146105877Y-49518048D01*
X146105877Y-47518048D01*
X148894123Y-47518048D01*
X148894123Y-49518048D01*
X148917407Y-49635102D01*
X148983712Y-49734336D01*
X149082946Y-49800641D01*
X149200000Y-49823925D01*
X149750000Y-49823925D01*
X149867054Y-49800641D01*
X149966288Y-49734336D01*
X150000000Y-49683882D01*
X150033712Y-49734336D01*
X150132946Y-49800641D01*
X150250000Y-49823925D01*
X150800000Y-49823925D01*
X150917054Y-49800641D01*
X151016288Y-49734336D01*
X151082593Y-49635102D01*
X151105877Y-49518048D01*
X151105877Y-47518048D01*
X153894123Y-47518048D01*
X153894123Y-49518048D01*
X153917407Y-49635102D01*
X153983712Y-49734336D01*
X154082946Y-49800641D01*
X154200000Y-49823925D01*
X154750000Y-49823925D01*
X154867054Y-49800641D01*
X154966288Y-49734336D01*
X155000000Y-49683882D01*
X155033712Y-49734336D01*
X155132946Y-49800641D01*
X155250000Y-49823925D01*
X155800000Y-49823925D01*
X155917054Y-49800641D01*
X156016288Y-49734336D01*
X156082593Y-49635102D01*
X156105877Y-49518048D01*
X156105877Y-47518048D01*
X156082593Y-47400994D01*
X156016288Y-47301760D01*
X155917054Y-47235455D01*
X155800000Y-47212171D01*
X155250000Y-47212171D01*
X155132946Y-47235455D01*
X155033712Y-47301760D01*
X155000000Y-47352214D01*
X154966288Y-47301760D01*
X154867054Y-47235455D01*
X154750000Y-47212171D01*
X154200000Y-47212171D01*
X154082946Y-47235455D01*
X153983712Y-47301760D01*
X153917407Y-47400994D01*
X153894123Y-47518048D01*
X151105877Y-47518048D01*
X151082593Y-47400994D01*
X151016288Y-47301760D01*
X150917054Y-47235455D01*
X150800000Y-47212171D01*
X150250000Y-47212171D01*
X150132946Y-47235455D01*
X150033712Y-47301760D01*
X150017131Y-47326575D01*
X149945073Y-47152612D01*
X149797388Y-47004927D01*
X149604429Y-46925000D01*
X149395571Y-46925000D01*
X149202612Y-47004927D01*
X149054927Y-47152612D01*
X148996758Y-47293043D01*
X148983712Y-47301760D01*
X148917407Y-47400994D01*
X148894123Y-47518048D01*
X146105877Y-47518048D01*
X146082593Y-47400994D01*
X146016288Y-47301760D01*
X145917054Y-47235455D01*
X145800000Y-47212171D01*
X145250000Y-47212171D01*
X145132946Y-47235455D01*
X145033712Y-47301760D01*
X145000000Y-47352214D01*
X144966288Y-47301760D01*
X144925000Y-47274173D01*
X144925000Y-47167461D01*
X144945073Y-47147388D01*
X145025000Y-46954429D01*
X145025000Y-46745571D01*
X144945073Y-46552612D01*
X144942615Y-46550154D01*
X144966288Y-46534336D01*
X145000000Y-46483882D01*
X145033712Y-46534336D01*
X145132946Y-46600641D01*
X145250000Y-46623925D01*
X145800000Y-46623925D01*
X145917054Y-46600641D01*
X146016288Y-46534336D01*
X146082593Y-46435102D01*
X146105877Y-46318048D01*
X146105877Y-44318048D01*
X148894123Y-44318048D01*
X148894123Y-46318048D01*
X148917407Y-46435102D01*
X148983712Y-46534336D01*
X149082946Y-46600641D01*
X149200000Y-46623925D01*
X149750000Y-46623925D01*
X149867054Y-46600641D01*
X149966288Y-46534336D01*
X150000000Y-46483882D01*
X150033712Y-46534336D01*
X150132946Y-46600641D01*
X150250000Y-46623925D01*
X150800000Y-46623925D01*
X150917054Y-46600641D01*
X151016288Y-46534336D01*
X151082593Y-46435102D01*
X151105877Y-46318048D01*
X151105877Y-44318048D01*
X151082593Y-44200994D01*
X151016288Y-44101760D01*
X151014472Y-44100546D01*
X151075000Y-43954419D01*
X151075000Y-43745561D01*
X150995073Y-43552602D01*
X150847388Y-43404917D01*
X150654429Y-43324990D01*
X150445571Y-43324990D01*
X150252612Y-43404917D01*
X150104927Y-43552602D01*
X150025000Y-43745561D01*
X150025000Y-43745571D01*
X149945073Y-43552612D01*
X149797388Y-43404927D01*
X149604429Y-43325000D01*
X149395571Y-43325000D01*
X149202612Y-43404927D01*
X149054927Y-43552612D01*
X148975000Y-43745571D01*
X148975000Y-43954429D01*
X149024687Y-44074382D01*
X148983712Y-44101760D01*
X148917407Y-44200994D01*
X148894123Y-44318048D01*
X146105877Y-44318048D01*
X146082593Y-44200994D01*
X146016288Y-44101760D01*
X145959092Y-44063543D01*
X146025000Y-43904429D01*
X146025000Y-43695571D01*
X145945073Y-43502612D01*
X145797388Y-43354927D01*
X145604429Y-43275000D01*
X145395571Y-43275000D01*
X145202612Y-43354927D01*
X145054927Y-43502612D01*
X144975000Y-43695571D01*
X144975000Y-43904429D01*
X145051747Y-44089710D01*
X145033712Y-44101760D01*
X145000000Y-44152214D01*
X144966288Y-44101760D01*
X144867054Y-44035455D01*
X144750000Y-44012171D01*
X144200000Y-44012171D01*
X144082946Y-44035455D01*
X143983712Y-44101760D01*
X143917407Y-44200994D01*
X143894123Y-44318048D01*
X141105877Y-44318048D01*
X141082593Y-44200994D01*
X141040429Y-44137890D01*
X141075000Y-44054429D01*
X141075000Y-43845571D01*
X140995073Y-43652612D01*
X140847388Y-43504927D01*
X140654429Y-43425000D01*
X140445571Y-43425000D01*
X140252612Y-43504927D01*
X140104927Y-43652612D01*
X140025000Y-43845571D01*
X140025000Y-43745571D01*
X139945073Y-43552612D01*
X139797388Y-43404927D01*
X139604429Y-43325000D01*
X139395571Y-43325000D01*
X139202612Y-43404927D01*
X139054927Y-43552612D01*
X138975000Y-43745571D01*
X138975000Y-43954429D01*
X139024687Y-44074382D01*
X138983712Y-44101760D01*
X138917407Y-44200994D01*
X138894123Y-44318048D01*
X131779872Y-44318048D01*
X131784444Y-44295063D01*
X131808326Y-44175001D01*
X131800000Y-44133143D01*
X131800000Y-43417461D01*
X131820073Y-43397388D01*
X131900000Y-43204429D01*
X131900000Y-43132744D01*
X153812173Y-43132744D01*
X153812173Y-43341602D01*
X153892100Y-43534561D01*
X153953436Y-43595897D01*
X154030765Y-43711629D01*
X154066254Y-43735342D01*
X154343083Y-44012171D01*
X154200000Y-44012171D01*
X154082946Y-44035455D01*
X153983712Y-44101760D01*
X153917407Y-44200994D01*
X153894123Y-44318048D01*
X153894123Y-46318048D01*
X153917407Y-46435102D01*
X153983712Y-46534336D01*
X154082946Y-46600641D01*
X154200000Y-46623925D01*
X154750000Y-46623925D01*
X154867054Y-46600641D01*
X154966288Y-46534336D01*
X155000000Y-46483882D01*
X155033712Y-46534336D01*
X155132946Y-46600641D01*
X155250000Y-46623925D01*
X155800000Y-46623925D01*
X155917054Y-46600641D01*
X156016288Y-46534336D01*
X156082593Y-46435102D01*
X156105877Y-46318048D01*
X156105877Y-44318048D01*
X156082593Y-44200994D01*
X156016288Y-44101760D01*
X155917054Y-44035455D01*
X155800000Y-44012171D01*
X155545164Y-44012171D01*
X154862173Y-43329181D01*
X154862173Y-43132744D01*
X154782246Y-42939785D01*
X154634561Y-42792100D01*
X154441602Y-42712173D01*
X154232744Y-42712173D01*
X154039785Y-42792100D01*
X153892100Y-42939785D01*
X153812173Y-43132744D01*
X131900000Y-43132744D01*
X131900000Y-42995571D01*
X131820073Y-42802612D01*
X131672388Y-42654927D01*
X131479429Y-42575000D01*
X131270571Y-42575000D01*
X131077612Y-42654927D01*
X130929927Y-42802612D01*
X130850000Y-42995571D01*
X130850000Y-43204429D01*
X130929927Y-43397388D01*
X130950001Y-43417462D01*
X130950001Y-43495642D01*
X130779457Y-43425000D01*
X130570599Y-43425000D01*
X130377640Y-43504927D01*
X130357567Y-43525000D01*
X130241855Y-43525000D01*
X130199999Y-43516674D01*
X130158143Y-43525000D01*
X130158142Y-43525000D01*
X130034173Y-43549659D01*
X129893592Y-43643592D01*
X129869881Y-43679078D01*
X129529078Y-44019881D01*
X129493593Y-44043592D01*
X129469882Y-44079078D01*
X129399659Y-44184174D01*
X129366674Y-44350000D01*
X129375001Y-44391862D01*
X129375000Y-50526341D01*
X129366674Y-50568198D01*
X129381624Y-50643354D01*
X129399659Y-50734024D01*
X129493592Y-50874606D01*
X129529081Y-50898319D01*
X130026683Y-51395922D01*
X130050394Y-51431408D01*
X130190975Y-51525341D01*
X130290175Y-51545073D01*
X130307273Y-51548474D01*
X130283852Y-51571895D01*
X129347936Y-51571895D01*
X128400000Y-50623960D01*
X128400000Y-49030340D01*
X128400342Y-49029828D01*
X128425001Y-48905859D01*
X128425001Y-48905858D01*
X128433327Y-48864001D01*
X128425001Y-48822144D01*
X128425001Y-48377856D01*
X128433327Y-48335999D01*
X128414800Y-48242857D01*
X128400342Y-48170172D01*
X128400000Y-48169660D01*
X128400000Y-44780340D01*
X128400342Y-44779828D01*
X128425001Y-44655859D01*
X128425001Y-44655858D01*
X128433327Y-44614001D01*
X128425001Y-44572144D01*
X128425001Y-43691858D01*
X128433327Y-43650001D01*
X128400342Y-43484174D01*
X128343871Y-43399659D01*
X128306409Y-43343593D01*
X128270923Y-43319882D01*
X127625000Y-42673960D01*
X127625000Y-42645571D01*
X127545073Y-42452612D01*
X127397388Y-42304927D01*
X127239784Y-42239645D01*
X127347388Y-42195073D01*
X127495073Y-42047388D01*
X127575000Y-41854429D01*
X127575000Y-41645571D01*
X127495073Y-41452612D01*
X127347388Y-41304927D01*
X127154429Y-41225000D01*
X126945571Y-41225000D01*
X126752612Y-41304927D01*
X126604927Y-41452612D01*
X126525000Y-41645571D01*
X126525000Y-41673959D01*
X126279077Y-41919882D01*
X126243592Y-41943593D01*
X126219881Y-41979079D01*
X126149658Y-42084175D01*
X126116673Y-42250001D01*
X126125000Y-42291863D01*
X126124999Y-49283122D01*
X126116673Y-49324979D01*
X126124999Y-49366836D01*
X126149658Y-49490805D01*
X126243591Y-49631387D01*
X126279080Y-49655100D01*
X126550020Y-49926041D01*
X126550020Y-49954429D01*
X126629947Y-50147388D01*
X126777632Y-50295073D01*
X126970591Y-50375000D01*
X127179449Y-50375000D01*
X127372408Y-50295073D01*
X127520093Y-50147388D01*
X127550000Y-50075186D01*
X127550000Y-50593876D01*
X127504429Y-50575000D01*
X127295571Y-50575000D01*
X127102612Y-50654927D01*
X126954927Y-50802612D01*
X126875000Y-50995571D01*
X126875000Y-51204429D01*
X126954927Y-51397388D01*
X127102612Y-51545073D01*
X127295571Y-51625000D01*
X127323960Y-51625000D01*
X128691777Y-52992818D01*
X128715488Y-53028304D01*
X128782069Y-53072792D01*
X128856069Y-53122237D01*
X128869959Y-53125000D01*
X123023592Y-53125000D01*
X122472275Y-53055352D01*
X121977710Y-52859541D01*
X121547378Y-52546887D01*
X121208318Y-52137033D01*
X120981840Y-51655742D01*
X120878821Y-51115697D01*
X120875000Y-50994108D01*
X120875000Y-44448098D01*
X121950000Y-44448098D01*
X121950001Y-49351903D01*
X122068944Y-49949870D01*
X122522034Y-50627967D01*
X123200131Y-51081057D01*
X124000000Y-51240161D01*
X124799870Y-51081057D01*
X125477967Y-50627967D01*
X125931057Y-49949870D01*
X126050000Y-49351903D01*
X126050000Y-44448097D01*
X125931057Y-43850130D01*
X125477967Y-43172033D01*
X124799869Y-42718943D01*
X124000000Y-42559839D01*
X123200130Y-42718943D01*
X122522033Y-43172033D01*
X122068943Y-43850131D01*
X121950000Y-44448098D01*
X120875000Y-44448098D01*
X120875000Y-43023593D01*
X120944648Y-42472275D01*
X121140460Y-41977709D01*
X121453113Y-41547379D01*
X121862967Y-41208318D01*
X122344258Y-40981840D01*
X122884303Y-40878821D01*
X123005891Y-40875000D01*
X149083521Y-40875000D01*
X149075000Y-40895571D01*
X149075000Y-40895571D01*
G37*
X149075000Y-40895571D02*
X149075000Y-41104429D01*
X149154927Y-41297388D01*
X149175000Y-41317461D01*
X149175001Y-41832538D01*
X149154927Y-41852612D01*
X149075000Y-42045571D01*
X149075000Y-42254429D01*
X149154927Y-42447388D01*
X149302612Y-42595073D01*
X149495571Y-42675000D01*
X149704429Y-42675000D01*
X149897388Y-42595073D01*
X150045073Y-42447388D01*
X150125000Y-42254429D01*
X150125000Y-42045571D01*
X150045073Y-41852612D01*
X150025000Y-41832539D01*
X150025000Y-41317461D01*
X150045073Y-41297388D01*
X150125000Y-41104429D01*
X150125000Y-40895571D01*
X150116479Y-40875000D01*
X171976407Y-40875000D01*
X172527725Y-40944648D01*
X173022291Y-41140460D01*
X173452621Y-41453113D01*
X173791682Y-41862967D01*
X174018160Y-42344258D01*
X174121179Y-42884303D01*
X174125000Y-43005891D01*
X174125001Y-50976400D01*
X174055352Y-51527725D01*
X173859541Y-52022290D01*
X173546887Y-52452622D01*
X173137033Y-52791682D01*
X172655742Y-53018160D01*
X172115697Y-53121179D01*
X171994108Y-53125000D01*
X168752817Y-53125000D01*
X168925604Y-52952213D01*
X168971527Y-52921529D01*
X169093088Y-52739600D01*
X169124999Y-52579171D01*
X169124999Y-52579170D01*
X169135774Y-52525001D01*
X169124999Y-52470832D01*
X169124999Y-50033762D01*
X169522034Y-50627967D01*
X170200131Y-51081057D01*
X171000000Y-51240161D01*
X171799870Y-51081057D01*
X172477967Y-50627967D01*
X172931057Y-49949870D01*
X173050000Y-49351903D01*
X173050000Y-44448097D01*
X172931057Y-43850130D01*
X172477967Y-43172033D01*
X171799869Y-42718943D01*
X171000000Y-42559839D01*
X170200130Y-42718943D01*
X169522033Y-43172033D01*
X169068943Y-43850131D01*
X168950000Y-44448098D01*
X168950001Y-47134281D01*
X168925601Y-47117978D01*
X168875000Y-47067377D01*
X168875000Y-47005955D01*
X168768432Y-46748676D01*
X168571518Y-46551762D01*
X168314239Y-46445194D01*
X168035761Y-46445194D01*
X167847369Y-46523228D01*
X167277812Y-46523228D01*
X168619603Y-45181438D01*
X168655089Y-45157727D01*
X168749022Y-45017146D01*
X168773681Y-44893177D01*
X168773681Y-44893176D01*
X168782007Y-44851320D01*
X168773681Y-44809464D01*
X168773681Y-43777770D01*
X168782007Y-43735913D01*
X168771716Y-43684174D01*
X168749022Y-43570086D01*
X168655089Y-43429505D01*
X168619604Y-43405795D01*
X167742899Y-42529091D01*
X167719186Y-42493602D01*
X167578605Y-42399669D01*
X167454636Y-42375010D01*
X167454635Y-42375010D01*
X167412778Y-42366684D01*
X167370921Y-42375010D01*
X167317451Y-42375010D01*
X167297378Y-42354937D01*
X167104419Y-42275010D01*
X166895561Y-42275010D01*
X166702602Y-42354937D01*
X166554917Y-42502622D01*
X166474990Y-42695581D01*
X166474990Y-42904439D01*
X166554917Y-43097398D01*
X166702602Y-43245083D01*
X166895561Y-43325010D01*
X167104419Y-43325010D01*
X167268693Y-43256965D01*
X167923681Y-43911954D01*
X167923682Y-44675277D01*
X166525743Y-46073217D01*
X162374244Y-46073217D01*
X161880105Y-45579079D01*
X161849986Y-45548960D01*
X161849986Y-45520571D01*
X161770059Y-45327612D01*
X161622374Y-45179927D01*
X161429415Y-45100000D01*
X161220557Y-45100000D01*
X161027598Y-45179927D01*
X160975000Y-45232525D01*
X160975000Y-43842461D01*
X160995073Y-43822388D01*
X161075000Y-43629429D01*
X161075000Y-43420571D01*
X160995073Y-43227612D01*
X160847388Y-43079927D01*
X160654429Y-43000000D01*
X160445571Y-43000000D01*
X160252612Y-43079927D01*
X160104927Y-43227612D01*
X160025000Y-43420571D01*
X160025000Y-43629429D01*
X160104927Y-43822388D01*
X160125000Y-43842461D01*
X160125001Y-45554720D01*
X160016018Y-45663703D01*
X159936091Y-45856662D01*
X159936091Y-46065520D01*
X160016018Y-46258479D01*
X160163703Y-46406164D01*
X160356662Y-46486091D01*
X160565520Y-46486091D01*
X160758479Y-46406164D01*
X160906164Y-46258479D01*
X160986091Y-46065520D01*
X160986091Y-46028566D01*
X161027598Y-46070073D01*
X161220557Y-46150000D01*
X161248946Y-46150000D01*
X161622175Y-46523228D01*
X161071462Y-46523228D01*
X161029604Y-46514902D01*
X160946337Y-46531465D01*
X160863778Y-46547887D01*
X160723197Y-46641820D01*
X160699486Y-46677306D01*
X160485948Y-46890844D01*
X160485949Y-46890844D01*
X160455832Y-46920961D01*
X160427443Y-46920961D01*
X160234484Y-47000888D01*
X160086799Y-47148573D01*
X160006872Y-47341532D01*
X160006872Y-47550390D01*
X160081382Y-47730271D01*
X160016843Y-47794810D01*
X159936916Y-47987769D01*
X159936916Y-48196627D01*
X160016843Y-48389586D01*
X160164528Y-48537271D01*
X160296616Y-48591984D01*
X160296616Y-48738043D01*
X160334690Y-48829960D01*
X160202223Y-48962427D01*
X160122296Y-49155386D01*
X160122296Y-49364244D01*
X160202223Y-49557203D01*
X160349908Y-49704888D01*
X160542867Y-49784815D01*
X160751725Y-49784815D01*
X160944684Y-49704888D01*
X160964757Y-49684815D01*
X160967560Y-49684815D01*
X161009417Y-49693141D01*
X161051274Y-49684815D01*
X161051275Y-49684815D01*
X161175244Y-49660156D01*
X161315825Y-49566223D01*
X161339538Y-49530734D01*
X161361648Y-49508624D01*
X163657584Y-49508624D01*
X163692555Y-49543595D01*
X163692554Y-50440661D01*
X163684228Y-50482519D01*
X163692554Y-50524376D01*
X163717213Y-50648345D01*
X163811146Y-50788927D01*
X163817553Y-50793208D01*
X163817553Y-50811947D01*
X163897480Y-51004906D01*
X164045165Y-51152591D01*
X164238124Y-51232518D01*
X164446982Y-51232518D01*
X164639941Y-51152591D01*
X164675000Y-51117532D01*
X164675001Y-51708138D01*
X164666674Y-51750000D01*
X164699659Y-51915826D01*
X164763637Y-52011575D01*
X164793593Y-52056408D01*
X164829078Y-52080119D01*
X165173949Y-52424990D01*
X163829049Y-52424990D01*
X163907109Y-52236538D01*
X163907109Y-52027680D01*
X163827182Y-51834721D01*
X163679497Y-51687036D01*
X163486538Y-51607109D01*
X163439393Y-51607109D01*
X163390825Y-51574657D01*
X163266856Y-51549998D01*
X163266855Y-51549998D01*
X163224998Y-51541672D01*
X163183141Y-51549998D01*
X132291427Y-51549998D01*
X132249569Y-51541672D01*
X132212652Y-51549015D01*
X132212652Y-45791514D01*
X132223427Y-45737345D01*
X132212652Y-45683176D01*
X132180741Y-45522747D01*
X132059180Y-45340818D01*
X132013255Y-45310132D01*
X131962653Y-45259530D01*
X131962653Y-45198108D01*
X131856085Y-44940829D01*
X131659171Y-44743915D01*
X131480948Y-44670093D01*
X131645923Y-44505118D01*
X131681408Y-44481408D01*
X131775341Y-44340827D01*
X131779872Y-44318048D01*
X138894123Y-44318048D01*
X138894123Y-46318048D01*
X138917407Y-46435102D01*
X138983712Y-46534336D01*
X139082946Y-46600641D01*
X139200000Y-46623925D01*
X139516074Y-46623925D01*
X139486640Y-46643592D01*
X139462929Y-46679078D01*
X139204078Y-46937930D01*
X139168593Y-46961640D01*
X139144882Y-46997126D01*
X139074659Y-47102222D01*
X139042825Y-47262263D01*
X138983712Y-47301760D01*
X138917407Y-47400994D01*
X138894123Y-47518048D01*
X138894123Y-49518048D01*
X138917407Y-49635102D01*
X138983712Y-49734336D01*
X139082946Y-49800641D01*
X139200000Y-49823925D01*
X139750000Y-49823925D01*
X139867054Y-49800641D01*
X139966288Y-49734336D01*
X140000000Y-49683882D01*
X140033712Y-49734336D01*
X140132946Y-49800641D01*
X140250000Y-49823925D01*
X140800000Y-49823925D01*
X140917054Y-49800641D01*
X141016288Y-49734336D01*
X141082593Y-49635102D01*
X141105877Y-49518048D01*
X141105877Y-47518048D01*
X141082593Y-47400994D01*
X141016288Y-47301760D01*
X140917054Y-47235455D01*
X140800000Y-47212171D01*
X140638869Y-47212171D01*
X140795920Y-47055120D01*
X140831408Y-47031408D01*
X140925341Y-46890827D01*
X140950000Y-46766858D01*
X140950000Y-46766857D01*
X140958326Y-46725001D01*
X140950000Y-46683143D01*
X140950000Y-46578628D01*
X141016288Y-46534336D01*
X141082593Y-46435102D01*
X141105877Y-46318048D01*
X141105877Y-44318048D01*
X143894123Y-44318048D01*
X143894123Y-46318048D01*
X143917407Y-46435102D01*
X143983712Y-46534336D01*
X144045419Y-46575567D01*
X143975000Y-46745571D01*
X143975000Y-46954429D01*
X144054927Y-47147388D01*
X144075000Y-47167461D01*
X144075000Y-47240764D01*
X143983712Y-47301760D01*
X143917407Y-47400994D01*
X143894123Y-47518048D01*
X143894123Y-49518048D01*
X143917407Y-49635102D01*
X143983712Y-49734336D01*
X144082946Y-49800641D01*
X144200000Y-49823925D01*
X144750000Y-49823925D01*
X144867054Y-49800641D01*
X144966288Y-49734336D01*
X145000000Y-49683882D01*
X145033712Y-49734336D01*
X145132946Y-49800641D01*
X145250000Y-49823925D01*
X145800000Y-49823925D01*
X145917054Y-49800641D01*
X146016288Y-49734336D01*
X146082593Y-49635102D01*
X146105877Y-49518048D01*
X146105877Y-47518048D01*
X148894123Y-47518048D01*
X148894123Y-49518048D01*
X148917407Y-49635102D01*
X148983712Y-49734336D01*
X149082946Y-49800641D01*
X149200000Y-49823925D01*
X149750000Y-49823925D01*
X149867054Y-49800641D01*
X149966288Y-49734336D01*
X150000000Y-49683882D01*
X150033712Y-49734336D01*
X150132946Y-49800641D01*
X150250000Y-49823925D01*
X150800000Y-49823925D01*
X150917054Y-49800641D01*
X151016288Y-49734336D01*
X151082593Y-49635102D01*
X151105877Y-49518048D01*
X151105877Y-47518048D01*
X153894123Y-47518048D01*
X153894123Y-49518048D01*
X153917407Y-49635102D01*
X153983712Y-49734336D01*
X154082946Y-49800641D01*
X154200000Y-49823925D01*
X154750000Y-49823925D01*
X154867054Y-49800641D01*
X154966288Y-49734336D01*
X155000000Y-49683882D01*
X155033712Y-49734336D01*
X155132946Y-49800641D01*
X155250000Y-49823925D01*
X155800000Y-49823925D01*
X155917054Y-49800641D01*
X156016288Y-49734336D01*
X156082593Y-49635102D01*
X156105877Y-49518048D01*
X156105877Y-47518048D01*
X156082593Y-47400994D01*
X156016288Y-47301760D01*
X155917054Y-47235455D01*
X155800000Y-47212171D01*
X155250000Y-47212171D01*
X155132946Y-47235455D01*
X155033712Y-47301760D01*
X155000000Y-47352214D01*
X154966288Y-47301760D01*
X154867054Y-47235455D01*
X154750000Y-47212171D01*
X154200000Y-47212171D01*
X154082946Y-47235455D01*
X153983712Y-47301760D01*
X153917407Y-47400994D01*
X153894123Y-47518048D01*
X151105877Y-47518048D01*
X151082593Y-47400994D01*
X151016288Y-47301760D01*
X150917054Y-47235455D01*
X150800000Y-47212171D01*
X150250000Y-47212171D01*
X150132946Y-47235455D01*
X150033712Y-47301760D01*
X150017131Y-47326575D01*
X149945073Y-47152612D01*
X149797388Y-47004927D01*
X149604429Y-46925000D01*
X149395571Y-46925000D01*
X149202612Y-47004927D01*
X149054927Y-47152612D01*
X148996758Y-47293043D01*
X148983712Y-47301760D01*
X148917407Y-47400994D01*
X148894123Y-47518048D01*
X146105877Y-47518048D01*
X146082593Y-47400994D01*
X146016288Y-47301760D01*
X145917054Y-47235455D01*
X145800000Y-47212171D01*
X145250000Y-47212171D01*
X145132946Y-47235455D01*
X145033712Y-47301760D01*
X145000000Y-47352214D01*
X144966288Y-47301760D01*
X144925000Y-47274173D01*
X144925000Y-47167461D01*
X144945073Y-47147388D01*
X145025000Y-46954429D01*
X145025000Y-46745571D01*
X144945073Y-46552612D01*
X144942615Y-46550154D01*
X144966288Y-46534336D01*
X145000000Y-46483882D01*
X145033712Y-46534336D01*
X145132946Y-46600641D01*
X145250000Y-46623925D01*
X145800000Y-46623925D01*
X145917054Y-46600641D01*
X146016288Y-46534336D01*
X146082593Y-46435102D01*
X146105877Y-46318048D01*
X146105877Y-44318048D01*
X148894123Y-44318048D01*
X148894123Y-46318048D01*
X148917407Y-46435102D01*
X148983712Y-46534336D01*
X149082946Y-46600641D01*
X149200000Y-46623925D01*
X149750000Y-46623925D01*
X149867054Y-46600641D01*
X149966288Y-46534336D01*
X150000000Y-46483882D01*
X150033712Y-46534336D01*
X150132946Y-46600641D01*
X150250000Y-46623925D01*
X150800000Y-46623925D01*
X150917054Y-46600641D01*
X151016288Y-46534336D01*
X151082593Y-46435102D01*
X151105877Y-46318048D01*
X151105877Y-44318048D01*
X151082593Y-44200994D01*
X151016288Y-44101760D01*
X151014472Y-44100546D01*
X151075000Y-43954419D01*
X151075000Y-43745561D01*
X150995073Y-43552602D01*
X150847388Y-43404917D01*
X150654429Y-43324990D01*
X150445571Y-43324990D01*
X150252612Y-43404917D01*
X150104927Y-43552602D01*
X150025000Y-43745561D01*
X150025000Y-43745571D01*
X149945073Y-43552612D01*
X149797388Y-43404927D01*
X149604429Y-43325000D01*
X149395571Y-43325000D01*
X149202612Y-43404927D01*
X149054927Y-43552612D01*
X148975000Y-43745571D01*
X148975000Y-43954429D01*
X149024687Y-44074382D01*
X148983712Y-44101760D01*
X148917407Y-44200994D01*
X148894123Y-44318048D01*
X146105877Y-44318048D01*
X146082593Y-44200994D01*
X146016288Y-44101760D01*
X145959092Y-44063543D01*
X146025000Y-43904429D01*
X146025000Y-43695571D01*
X145945073Y-43502612D01*
X145797388Y-43354927D01*
X145604429Y-43275000D01*
X145395571Y-43275000D01*
X145202612Y-43354927D01*
X145054927Y-43502612D01*
X144975000Y-43695571D01*
X144975000Y-43904429D01*
X145051747Y-44089710D01*
X145033712Y-44101760D01*
X145000000Y-44152214D01*
X144966288Y-44101760D01*
X144867054Y-44035455D01*
X144750000Y-44012171D01*
X144200000Y-44012171D01*
X144082946Y-44035455D01*
X143983712Y-44101760D01*
X143917407Y-44200994D01*
X143894123Y-44318048D01*
X141105877Y-44318048D01*
X141082593Y-44200994D01*
X141040429Y-44137890D01*
X141075000Y-44054429D01*
X141075000Y-43845571D01*
X140995073Y-43652612D01*
X140847388Y-43504927D01*
X140654429Y-43425000D01*
X140445571Y-43425000D01*
X140252612Y-43504927D01*
X140104927Y-43652612D01*
X140025000Y-43845571D01*
X140025000Y-43745571D01*
X139945073Y-43552612D01*
X139797388Y-43404927D01*
X139604429Y-43325000D01*
X139395571Y-43325000D01*
X139202612Y-43404927D01*
X139054927Y-43552612D01*
X138975000Y-43745571D01*
X138975000Y-43954429D01*
X139024687Y-44074382D01*
X138983712Y-44101760D01*
X138917407Y-44200994D01*
X138894123Y-44318048D01*
X131779872Y-44318048D01*
X131784444Y-44295063D01*
X131808326Y-44175001D01*
X131800000Y-44133143D01*
X131800000Y-43417461D01*
X131820073Y-43397388D01*
X131900000Y-43204429D01*
X131900000Y-43132744D01*
X153812173Y-43132744D01*
X153812173Y-43341602D01*
X153892100Y-43534561D01*
X153953436Y-43595897D01*
X154030765Y-43711629D01*
X154066254Y-43735342D01*
X154343083Y-44012171D01*
X154200000Y-44012171D01*
X154082946Y-44035455D01*
X153983712Y-44101760D01*
X153917407Y-44200994D01*
X153894123Y-44318048D01*
X153894123Y-46318048D01*
X153917407Y-46435102D01*
X153983712Y-46534336D01*
X154082946Y-46600641D01*
X154200000Y-46623925D01*
X154750000Y-46623925D01*
X154867054Y-46600641D01*
X154966288Y-46534336D01*
X155000000Y-46483882D01*
X155033712Y-46534336D01*
X155132946Y-46600641D01*
X155250000Y-46623925D01*
X155800000Y-46623925D01*
X155917054Y-46600641D01*
X156016288Y-46534336D01*
X156082593Y-46435102D01*
X156105877Y-46318048D01*
X156105877Y-44318048D01*
X156082593Y-44200994D01*
X156016288Y-44101760D01*
X155917054Y-44035455D01*
X155800000Y-44012171D01*
X155545164Y-44012171D01*
X154862173Y-43329181D01*
X154862173Y-43132744D01*
X154782246Y-42939785D01*
X154634561Y-42792100D01*
X154441602Y-42712173D01*
X154232744Y-42712173D01*
X154039785Y-42792100D01*
X153892100Y-42939785D01*
X153812173Y-43132744D01*
X131900000Y-43132744D01*
X131900000Y-42995571D01*
X131820073Y-42802612D01*
X131672388Y-42654927D01*
X131479429Y-42575000D01*
X131270571Y-42575000D01*
X131077612Y-42654927D01*
X130929927Y-42802612D01*
X130850000Y-42995571D01*
X130850000Y-43204429D01*
X130929927Y-43397388D01*
X130950001Y-43417462D01*
X130950001Y-43495642D01*
X130779457Y-43425000D01*
X130570599Y-43425000D01*
X130377640Y-43504927D01*
X130357567Y-43525000D01*
X130241855Y-43525000D01*
X130199999Y-43516674D01*
X130158143Y-43525000D01*
X130158142Y-43525000D01*
X130034173Y-43549659D01*
X129893592Y-43643592D01*
X129869881Y-43679078D01*
X129529078Y-44019881D01*
X129493593Y-44043592D01*
X129469882Y-44079078D01*
X129399659Y-44184174D01*
X129366674Y-44350000D01*
X129375001Y-44391862D01*
X129375000Y-50526341D01*
X129366674Y-50568198D01*
X129381624Y-50643354D01*
X129399659Y-50734024D01*
X129493592Y-50874606D01*
X129529081Y-50898319D01*
X130026683Y-51395922D01*
X130050394Y-51431408D01*
X130190975Y-51525341D01*
X130290175Y-51545073D01*
X130307273Y-51548474D01*
X130283852Y-51571895D01*
X129347936Y-51571895D01*
X128400000Y-50623960D01*
X128400000Y-49030340D01*
X128400342Y-49029828D01*
X128425001Y-48905859D01*
X128425001Y-48905858D01*
X128433327Y-48864001D01*
X128425001Y-48822144D01*
X128425001Y-48377856D01*
X128433327Y-48335999D01*
X128414800Y-48242857D01*
X128400342Y-48170172D01*
X128400000Y-48169660D01*
X128400000Y-44780340D01*
X128400342Y-44779828D01*
X128425001Y-44655859D01*
X128425001Y-44655858D01*
X128433327Y-44614001D01*
X128425001Y-44572144D01*
X128425001Y-43691858D01*
X128433327Y-43650001D01*
X128400342Y-43484174D01*
X128343871Y-43399659D01*
X128306409Y-43343593D01*
X128270923Y-43319882D01*
X127625000Y-42673960D01*
X127625000Y-42645571D01*
X127545073Y-42452612D01*
X127397388Y-42304927D01*
X127239784Y-42239645D01*
X127347388Y-42195073D01*
X127495073Y-42047388D01*
X127575000Y-41854429D01*
X127575000Y-41645571D01*
X127495073Y-41452612D01*
X127347388Y-41304927D01*
X127154429Y-41225000D01*
X126945571Y-41225000D01*
X126752612Y-41304927D01*
X126604927Y-41452612D01*
X126525000Y-41645571D01*
X126525000Y-41673959D01*
X126279077Y-41919882D01*
X126243592Y-41943593D01*
X126219881Y-41979079D01*
X126149658Y-42084175D01*
X126116673Y-42250001D01*
X126125000Y-42291863D01*
X126124999Y-49283122D01*
X126116673Y-49324979D01*
X126124999Y-49366836D01*
X126149658Y-49490805D01*
X126243591Y-49631387D01*
X126279080Y-49655100D01*
X126550020Y-49926041D01*
X126550020Y-49954429D01*
X126629947Y-50147388D01*
X126777632Y-50295073D01*
X126970591Y-50375000D01*
X127179449Y-50375000D01*
X127372408Y-50295073D01*
X127520093Y-50147388D01*
X127550000Y-50075186D01*
X127550000Y-50593876D01*
X127504429Y-50575000D01*
X127295571Y-50575000D01*
X127102612Y-50654927D01*
X126954927Y-50802612D01*
X126875000Y-50995571D01*
X126875000Y-51204429D01*
X126954927Y-51397388D01*
X127102612Y-51545073D01*
X127295571Y-51625000D01*
X127323960Y-51625000D01*
X128691777Y-52992818D01*
X128715488Y-53028304D01*
X128782069Y-53072792D01*
X128856069Y-53122237D01*
X128869959Y-53125000D01*
X123023592Y-53125000D01*
X122472275Y-53055352D01*
X121977710Y-52859541D01*
X121547378Y-52546887D01*
X121208318Y-52137033D01*
X120981840Y-51655742D01*
X120878821Y-51115697D01*
X120875000Y-50994108D01*
X120875000Y-44448098D01*
X121950000Y-44448098D01*
X121950001Y-49351903D01*
X122068944Y-49949870D01*
X122522034Y-50627967D01*
X123200131Y-51081057D01*
X124000000Y-51240161D01*
X124799870Y-51081057D01*
X125477967Y-50627967D01*
X125931057Y-49949870D01*
X126050000Y-49351903D01*
X126050000Y-44448097D01*
X125931057Y-43850130D01*
X125477967Y-43172033D01*
X124799869Y-42718943D01*
X124000000Y-42559839D01*
X123200130Y-42718943D01*
X122522033Y-43172033D01*
X122068943Y-43850131D01*
X121950000Y-44448098D01*
X120875000Y-44448098D01*
X120875000Y-43023593D01*
X120944648Y-42472275D01*
X121140460Y-41977709D01*
X121453113Y-41547379D01*
X121862967Y-41208318D01*
X122344258Y-40981840D01*
X122884303Y-40878821D01*
X123005891Y-40875000D01*
X149083521Y-40875000D01*
X149075000Y-40895571D01*
G36*
X167581568Y-47541712D02*
X167778482Y-47738626D01*
X168025000Y-47840737D01*
X168024999Y-51767530D01*
X167977131Y-51747702D01*
X167768273Y-51747702D01*
X167575314Y-51827629D01*
X167555241Y-51847702D01*
X166965963Y-51847702D01*
X166983890Y-51804424D01*
X166983890Y-51785685D01*
X166990297Y-51781404D01*
X167084230Y-51640823D01*
X167108889Y-51516854D01*
X167117215Y-51474996D01*
X167108889Y-51433139D01*
X167108889Y-49589336D01*
X167117215Y-49547479D01*
X167084230Y-49381652D01*
X167044591Y-49322328D01*
X166990297Y-49241071D01*
X166954809Y-49217359D01*
X165526042Y-47788592D01*
X165502329Y-47753103D01*
X165361748Y-47659170D01*
X165237779Y-47634511D01*
X165237778Y-47634511D01*
X165195921Y-47626185D01*
X165154064Y-47634511D01*
X161022028Y-47634511D01*
X161056872Y-47550390D01*
X161056872Y-47522001D01*
X161086989Y-47491884D01*
X161205646Y-47373228D01*
X167511780Y-47373228D01*
X167581568Y-47541712D01*
X167581568Y-47541712D01*
G37*
X167581568Y-47541712D02*
X167778482Y-47738626D01*
X168025000Y-47840737D01*
X168024999Y-51767530D01*
X167977131Y-51747702D01*
X167768273Y-51747702D01*
X167575314Y-51827629D01*
X167555241Y-51847702D01*
X166965963Y-51847702D01*
X166983890Y-51804424D01*
X166983890Y-51785685D01*
X166990297Y-51781404D01*
X167084230Y-51640823D01*
X167108889Y-51516854D01*
X167117215Y-51474996D01*
X167108889Y-51433139D01*
X167108889Y-49589336D01*
X167117215Y-49547479D01*
X167084230Y-49381652D01*
X167044591Y-49322328D01*
X166990297Y-49241071D01*
X166954809Y-49217359D01*
X165526042Y-47788592D01*
X165502329Y-47753103D01*
X165361748Y-47659170D01*
X165237779Y-47634511D01*
X165237778Y-47634511D01*
X165195921Y-47626185D01*
X165154064Y-47634511D01*
X161022028Y-47634511D01*
X161056872Y-47550390D01*
X161056872Y-47522001D01*
X161086989Y-47491884D01*
X161205646Y-47373228D01*
X167511780Y-47373228D01*
X167581568Y-47541712D01*
G04 #@! TD*
M02*
