M48
METRIC,TZ
T1C0.300
T2C0.500
%
G90
G05
T1
X127050Y-41750
X127075Y-49850
X127100Y-42750
X127300Y-51855
X127400Y-51100
X127450Y-44350
X127450Y-48600
X130675Y-51125
X130675Y-43950
X130675Y-49850
X131375Y-43100
X139500Y-43850
X140500Y-48050
X140550Y-43950
X144450Y-45900
X144500Y-46850
X145500Y-43800
X145500Y-48600
X149500Y-43850
X149500Y-47450
X149600Y-41000
X149600Y-42150
X150550Y-43850
X150550Y-48043
X154337Y-43237
X154450Y-49250
X154500Y-45900
X155550Y-48650
X160461Y-45961
X160462Y-48092
X160532Y-47446
X160550Y-43525
X160647Y-49260
X160822Y-48634
X161325Y-45625
X161344Y-47498
X162300Y-44775
X163382Y-52132
X163550Y-45550
X163638Y-47500
X164343Y-50708
X164600Y-45500
X164650Y-47500
X164800Y-50246
X165450Y-45550
X165825Y-47525
X165938Y-51164
X166459Y-51700
X167000Y-42800
X167873Y-52273
X172900Y-52250
T2
X130849Y-51997
X131263Y-45337
X134500Y-41175
X134500Y-52825
X134525Y-48025
X167624Y-44084
X168175Y-47145
T0
M30
