G04 #@! TF.GenerationSoftware,KiCad,Pcbnew,5.0.1*
G04 #@! TF.CreationDate,2019-03-15T13:32:49+13:00*
G04 #@! TF.ProjectId,_autosave-baseBoard,5F6175746F736176652D62617365426F,rev?*
G04 #@! TF.SameCoordinates,Original*
G04 #@! TF.FileFunction,Copper,L2,Bot,Signal*
G04 #@! TF.FilePolarity,Positive*
%FSLAX46Y46*%
G04 Gerber Fmt 4.6, Leading zero omitted, Abs format (unit mm)*
G04 Created by KiCad (PCBNEW 5.0.1) date Fri 15 Mar 2019 01:32:49 PM NZDT*
%MOMM*%
%LPD*%
G01*
G04 APERTURE LIST*
G04 #@! TA.AperFunction,ComponentPad*
%ADD10C,1.900000*%
G04 #@! TD*
G04 #@! TA.AperFunction,ComponentPad*
%ADD11O,1.300000X2.900000*%
G04 #@! TD*
G04 #@! TA.AperFunction,ComponentPad*
%ADD12O,2.900000X1.300000*%
G04 #@! TD*
G04 #@! TA.AperFunction,ComponentPad*
%ADD13R,2.600000X2.600000*%
G04 #@! TD*
G04 #@! TA.AperFunction,ComponentPad*
%ADD14C,2.600000*%
G04 #@! TD*
G04 #@! TA.AperFunction,ViaPad*
%ADD15C,0.800000*%
G04 #@! TD*
G04 #@! TA.AperFunction,ViaPad*
%ADD16C,1.400000*%
G04 #@! TD*
G04 #@! TA.AperFunction,Conductor*
%ADD17C,0.760000*%
G04 #@! TD*
G04 #@! TA.AperFunction,Conductor*
%ADD18C,0.250000*%
G04 #@! TD*
G04 #@! TA.AperFunction,Conductor*
%ADD19C,0.254000*%
G04 #@! TD*
G04 APERTURE END LIST*
D10*
G04 #@! TO.P,PSL2,1*
G04 #@! TO.N,Net-(PSL2-Pad1)*
X111820000Y-109740000D03*
G04 #@! TO.P,PSL2,2*
G04 #@! TO.N,/VCC*
X114360000Y-109740000D03*
G04 #@! TO.P,PSL2,3*
G04 #@! TO.N,/PressureSensorLow2*
X116900000Y-109740000D03*
G04 #@! TO.P,PSL2,4*
G04 #@! TO.N,GND*
X119440000Y-109740000D03*
G04 #@! TD*
G04 #@! TO.P,Csuper1,2*
G04 #@! TO.N,Net-(Csuper1-Pad2)*
X131340000Y-52026000D03*
G04 #@! TO.P,Csuper1,1*
G04 #@! TO.N,/Vin*
X142840000Y-52026000D03*
G04 #@! TD*
G04 #@! TO.P,Csuper2,1*
G04 #@! TO.N,Net-(Csuper1-Pad2)*
X121110000Y-51976000D03*
G04 #@! TO.P,Csuper2,2*
G04 #@! TO.N,GND*
X109610000Y-51976000D03*
G04 #@! TD*
D11*
G04 #@! TO.P,PWRJack,2*
G04 #@! TO.N,GND*
X104690000Y-63050000D03*
G04 #@! TO.P,PWRJack,1*
G04 #@! TO.N,/Vin*
X110690000Y-63050000D03*
D12*
G04 #@! TO.P,PWRJack,3*
G04 #@! TO.N,GND*
X107690000Y-67550000D03*
D10*
G04 #@! TO.P,PWRJack,~*
G04 #@! TO.N,N/C*
X101690000Y-60550000D03*
X101690000Y-65550000D03*
G04 #@! TD*
D13*
G04 #@! TO.P,PWRSol,1*
G04 #@! TO.N,/Vin*
X151764000Y-66096000D03*
D14*
G04 #@! TO.P,PWRSol,2*
G04 #@! TO.N,/solenoidGND*
X151764000Y-71096000D03*
G04 #@! TD*
D10*
G04 #@! TO.P,PSH,5*
G04 #@! TO.N,Net-(PSH1-Pad5)*
X135096000Y-97388000D03*
G04 #@! TO.P,PSH,1*
G04 #@! TO.N,/VCC*
X135096000Y-80898001D03*
G04 #@! TO.P,PSH,6*
G04 #@! TO.N,Net-(PSH1-Pad6)*
X137636000Y-97388000D03*
G04 #@! TO.P,PSH,2*
G04 #@! TO.N,/PressureSensorHigh*
X137636000Y-80898001D03*
G04 #@! TO.P,PSH,7*
G04 #@! TO.N,Net-(PSH1-Pad7)*
X140176000Y-97388000D03*
G04 #@! TO.P,PSH,3*
G04 #@! TO.N,GND*
X140176000Y-80898001D03*
G04 #@! TO.P,PSH,8*
G04 #@! TO.N,Net-(PSH1-Pad8)*
X142716000Y-97388000D03*
G04 #@! TO.P,PSH,4*
G04 #@! TO.N,Net-(PSH1-Pad4)*
X142716000Y-80898001D03*
G04 #@! TD*
G04 #@! TO.P,PSL1,4*
G04 #@! TO.N,GND*
X142748000Y-109728000D03*
G04 #@! TO.P,PSL1,3*
G04 #@! TO.N,/PressureSensorLow1*
X140208000Y-109728000D03*
G04 #@! TO.P,PSL1,2*
G04 #@! TO.N,/VCC*
X137668000Y-109728000D03*
G04 #@! TO.P,PSL1,1*
G04 #@! TO.N,Net-(PSL1-Pad1)*
X135128000Y-109728000D03*
G04 #@! TD*
D15*
G04 #@! TO.N,/Vin*
X110470000Y-66080000D03*
X103210000Y-69630000D03*
G04 #@! TO.N,GND*
X123438920Y-97729040D03*
X116234000Y-90470000D03*
X118110000Y-86770000D03*
X119986000Y-88580000D03*
X119986000Y-86770000D03*
X116234000Y-86770000D03*
X116234000Y-88580000D03*
X118120000Y-88580000D03*
X119986000Y-90470000D03*
X118152000Y-90470000D03*
X140076000Y-83508000D03*
X142772000Y-107758000D03*
X119440000Y-107590000D03*
X102870000Y-83180000D03*
X100020000Y-87630000D03*
X102870000Y-92080000D03*
X113290000Y-81720000D03*
X101430000Y-75510000D03*
D16*
G04 #@! TO.N,/VCC*
X121150000Y-82125000D03*
X112134060Y-78521560D03*
X113500000Y-94965520D03*
X125975000Y-88750000D03*
D15*
X112050000Y-84456500D03*
G04 #@! TO.N,/AVCC*
X116290000Y-83780000D03*
X122610000Y-90030000D03*
G04 #@! TO.N,/VUSB*
X112280000Y-90750000D03*
X112250000Y-85750000D03*
G04 #@! TO.N,Net-(NMOS1-Pad1)*
X113430000Y-92470000D03*
X125420120Y-67228720D03*
G04 #@! TO.N,/PressureSensorLow2*
X115730000Y-105630000D03*
X112880000Y-105600000D03*
G04 #@! TD*
D17*
G04 #@! TO.N,/Vin*
X110470000Y-67920000D02*
X110470000Y-66080000D01*
X103210000Y-69630000D02*
X108760000Y-69630000D01*
X108760000Y-69630000D02*
X110470000Y-67920000D01*
D18*
G04 #@! TO.N,/VCC*
X138872121Y-80677880D02*
X139160000Y-80390001D01*
D17*
X129969400Y-78521560D02*
X132125720Y-80677880D01*
X132125720Y-80677880D02*
X138872121Y-80677880D01*
X121640600Y-78521560D02*
X129969400Y-78521560D01*
X114853720Y-85892640D02*
X114294920Y-85333840D01*
X114294920Y-80682420D02*
X112134060Y-78521560D01*
D18*
X114853720Y-85973920D02*
X114853720Y-85892640D01*
X114853720Y-93611800D02*
X114853720Y-93500000D01*
D17*
X113500000Y-94965520D02*
X114853720Y-93611800D01*
X114853720Y-85973920D02*
X114853720Y-93500000D01*
D18*
X121770000Y-78650960D02*
X121640600Y-78521560D01*
X122525960Y-78650960D02*
X121770000Y-78650960D01*
D17*
X121150000Y-79671560D02*
X120000000Y-78521560D01*
X121150000Y-82450000D02*
X121150000Y-79671560D01*
X112134060Y-78521560D02*
X120000000Y-78521560D01*
X120000000Y-78521560D02*
X121640600Y-78521560D01*
X125975000Y-87275000D02*
X125975000Y-88750000D01*
X121150000Y-82450000D02*
X125975000Y-87275000D01*
D18*
X114231420Y-84456500D02*
X114294920Y-84520000D01*
D17*
X114294920Y-85333840D02*
X114294920Y-84520000D01*
D18*
X112050000Y-84456500D02*
X114231420Y-84456500D01*
D17*
X114294920Y-84520000D02*
X114294920Y-80682420D01*
D18*
G04 #@! TO.N,/AVCC*
X120920000Y-89280000D02*
X121670000Y-90030000D01*
X122610000Y-90030000D02*
X121670000Y-90030000D01*
X120920000Y-86440000D02*
X120920000Y-89280000D01*
X116290000Y-83780000D02*
X116290000Y-85210000D01*
X116290000Y-85210000D02*
X116790000Y-85710000D01*
X116790000Y-85710000D02*
X120190000Y-85710000D01*
X120190000Y-85710000D02*
X120920000Y-86440000D01*
G04 #@! TO.N,/VUSB*
X112280000Y-90750000D02*
X112280000Y-86070000D01*
G04 #@! TO.N,Net-(NMOS1-Pad1)*
X112068640Y-92470000D02*
X113430000Y-92470000D01*
X111109760Y-78226920D02*
X111109760Y-91511120D01*
X111109760Y-91511120D02*
X112068640Y-92470000D01*
X122107960Y-67228720D02*
X111109760Y-78226920D01*
X125420120Y-67228720D02*
X122107960Y-67228720D01*
G04 #@! TO.N,/PressureSensorLow2*
X112910000Y-105630000D02*
X112880000Y-105600000D01*
X115730000Y-105630000D02*
X112910000Y-105630000D01*
G04 #@! TD*
D19*
G04 #@! TO.N,GND*
G36*
X153649691Y-46447945D02*
X154211866Y-46637137D01*
X154720296Y-46942633D01*
X155151272Y-47350185D01*
X155484676Y-47840775D01*
X155704956Y-48391515D01*
X155806196Y-49003054D01*
X155810001Y-49139263D01*
X155810000Y-123801353D01*
X155736181Y-124429783D01*
X155539963Y-124996435D01*
X155226642Y-125507737D01*
X154810835Y-125939829D01*
X154311945Y-126272553D01*
X153753239Y-126490387D01*
X153134410Y-126587297D01*
X152993683Y-126590000D01*
X101590041Y-126600002D01*
X101041746Y-126540438D01*
X100500047Y-126358136D01*
X100010121Y-126063760D01*
X99594843Y-125671051D01*
X99273581Y-125198329D01*
X99061323Y-124667646D01*
X98963611Y-124077414D01*
X98960000Y-123948147D01*
X98960000Y-122555431D01*
X99765000Y-122555431D01*
X99765000Y-123444569D01*
X100105259Y-124266026D01*
X100733974Y-124894741D01*
X101555431Y-125235000D01*
X102444569Y-125235000D01*
X103266026Y-124894741D01*
X103894741Y-124266026D01*
X104235000Y-123444569D01*
X104235000Y-122555431D01*
X149765000Y-122555431D01*
X149765000Y-123444569D01*
X150105259Y-124266026D01*
X150733974Y-124894741D01*
X151555431Y-125235000D01*
X152444569Y-125235000D01*
X153266026Y-124894741D01*
X153894741Y-124266026D01*
X154235000Y-123444569D01*
X154235000Y-122555431D01*
X153894741Y-121733974D01*
X153266026Y-121105259D01*
X152444569Y-120765000D01*
X151555431Y-120765000D01*
X150733974Y-121105259D01*
X150105259Y-121733974D01*
X149765000Y-122555431D01*
X104235000Y-122555431D01*
X103894741Y-121733974D01*
X103266026Y-121105259D01*
X102444569Y-120765000D01*
X101555431Y-120765000D01*
X100733974Y-121105259D01*
X100105259Y-121733974D01*
X99765000Y-122555431D01*
X98960000Y-122555431D01*
X98960000Y-109424724D01*
X110235000Y-109424724D01*
X110235000Y-110055276D01*
X110476302Y-110637830D01*
X110922170Y-111083698D01*
X111504724Y-111325000D01*
X112135276Y-111325000D01*
X112717830Y-111083698D01*
X113090000Y-110711528D01*
X113462170Y-111083698D01*
X114044724Y-111325000D01*
X114675276Y-111325000D01*
X115257830Y-111083698D01*
X115630000Y-110711528D01*
X116002170Y-111083698D01*
X116584724Y-111325000D01*
X117215276Y-111325000D01*
X117797830Y-111083698D01*
X118025178Y-110856350D01*
X118503255Y-110856350D01*
X118595792Y-111118019D01*
X119187398Y-111336188D01*
X119817461Y-111311352D01*
X120284208Y-111118019D01*
X120376745Y-110856350D01*
X119440000Y-109919605D01*
X118503255Y-110856350D01*
X118025178Y-110856350D01*
X118235837Y-110645691D01*
X118323650Y-110676745D01*
X119260395Y-109740000D01*
X119619605Y-109740000D01*
X120556350Y-110676745D01*
X120818019Y-110584208D01*
X121036188Y-109992602D01*
X121013331Y-109412724D01*
X133543000Y-109412724D01*
X133543000Y-110043276D01*
X133784302Y-110625830D01*
X134230170Y-111071698D01*
X134812724Y-111313000D01*
X135443276Y-111313000D01*
X136025830Y-111071698D01*
X136398000Y-110699528D01*
X136770170Y-111071698D01*
X137352724Y-111313000D01*
X137983276Y-111313000D01*
X138565830Y-111071698D01*
X138938000Y-110699528D01*
X139310170Y-111071698D01*
X139892724Y-111313000D01*
X140523276Y-111313000D01*
X141105830Y-111071698D01*
X141333178Y-110844350D01*
X141811255Y-110844350D01*
X141903792Y-111106019D01*
X142495398Y-111324188D01*
X143125461Y-111299352D01*
X143592208Y-111106019D01*
X143684745Y-110844350D01*
X142748000Y-109907605D01*
X141811255Y-110844350D01*
X141333178Y-110844350D01*
X141543837Y-110633691D01*
X141631650Y-110664745D01*
X142568395Y-109728000D01*
X142927605Y-109728000D01*
X143864350Y-110664745D01*
X144126019Y-110572208D01*
X144344188Y-109980602D01*
X144319352Y-109350539D01*
X144126019Y-108883792D01*
X143864350Y-108791255D01*
X142927605Y-109728000D01*
X142568395Y-109728000D01*
X141631650Y-108791255D01*
X141543837Y-108822309D01*
X141333178Y-108611650D01*
X141811255Y-108611650D01*
X142748000Y-109548395D01*
X143684745Y-108611650D01*
X143592208Y-108349981D01*
X143000602Y-108131812D01*
X142370539Y-108156648D01*
X141903792Y-108349981D01*
X141811255Y-108611650D01*
X141333178Y-108611650D01*
X141105830Y-108384302D01*
X140523276Y-108143000D01*
X139892724Y-108143000D01*
X139310170Y-108384302D01*
X138938000Y-108756472D01*
X138565830Y-108384302D01*
X137983276Y-108143000D01*
X137352724Y-108143000D01*
X136770170Y-108384302D01*
X136398000Y-108756472D01*
X136025830Y-108384302D01*
X135443276Y-108143000D01*
X134812724Y-108143000D01*
X134230170Y-108384302D01*
X133784302Y-108830170D01*
X133543000Y-109412724D01*
X121013331Y-109412724D01*
X121011352Y-109362539D01*
X120818019Y-108895792D01*
X120556350Y-108803255D01*
X119619605Y-109740000D01*
X119260395Y-109740000D01*
X118323650Y-108803255D01*
X118235837Y-108834309D01*
X118025178Y-108623650D01*
X118503255Y-108623650D01*
X119440000Y-109560395D01*
X120376745Y-108623650D01*
X120284208Y-108361981D01*
X119692602Y-108143812D01*
X119062539Y-108168648D01*
X118595792Y-108361981D01*
X118503255Y-108623650D01*
X118025178Y-108623650D01*
X117797830Y-108396302D01*
X117215276Y-108155000D01*
X116584724Y-108155000D01*
X116002170Y-108396302D01*
X115630000Y-108768472D01*
X115257830Y-108396302D01*
X114675276Y-108155000D01*
X114044724Y-108155000D01*
X113462170Y-108396302D01*
X113090000Y-108768472D01*
X112717830Y-108396302D01*
X112135276Y-108155000D01*
X111504724Y-108155000D01*
X110922170Y-108396302D01*
X110476302Y-108842170D01*
X110235000Y-109424724D01*
X98960000Y-109424724D01*
X98960000Y-105394126D01*
X111845000Y-105394126D01*
X111845000Y-105805874D01*
X112002569Y-106186280D01*
X112293720Y-106477431D01*
X112674126Y-106635000D01*
X113085874Y-106635000D01*
X113466280Y-106477431D01*
X113553711Y-106390000D01*
X115026289Y-106390000D01*
X115143720Y-106507431D01*
X115524126Y-106665000D01*
X115935874Y-106665000D01*
X116316280Y-106507431D01*
X116607431Y-106216280D01*
X116765000Y-105835874D01*
X116765000Y-105424126D01*
X116607431Y-105043720D01*
X116316280Y-104752569D01*
X115935874Y-104595000D01*
X115524126Y-104595000D01*
X115143720Y-104752569D01*
X115026289Y-104870000D01*
X113613711Y-104870000D01*
X113466280Y-104722569D01*
X113085874Y-104565000D01*
X112674126Y-104565000D01*
X112293720Y-104722569D01*
X112002569Y-105013720D01*
X111845000Y-105394126D01*
X98960000Y-105394126D01*
X98960000Y-97072724D01*
X133511000Y-97072724D01*
X133511000Y-97703276D01*
X133752302Y-98285830D01*
X134198170Y-98731698D01*
X134780724Y-98973000D01*
X135411276Y-98973000D01*
X135993830Y-98731698D01*
X136366000Y-98359528D01*
X136738170Y-98731698D01*
X137320724Y-98973000D01*
X137951276Y-98973000D01*
X138533830Y-98731698D01*
X138906000Y-98359528D01*
X139278170Y-98731698D01*
X139860724Y-98973000D01*
X140491276Y-98973000D01*
X141073830Y-98731698D01*
X141446000Y-98359528D01*
X141818170Y-98731698D01*
X142400724Y-98973000D01*
X143031276Y-98973000D01*
X143613830Y-98731698D01*
X144059698Y-98285830D01*
X144301000Y-97703276D01*
X144301000Y-97072724D01*
X144059698Y-96490170D01*
X143613830Y-96044302D01*
X143031276Y-95803000D01*
X142400724Y-95803000D01*
X141818170Y-96044302D01*
X141446000Y-96416472D01*
X141073830Y-96044302D01*
X140491276Y-95803000D01*
X139860724Y-95803000D01*
X139278170Y-96044302D01*
X138906000Y-96416472D01*
X138533830Y-96044302D01*
X137951276Y-95803000D01*
X137320724Y-95803000D01*
X136738170Y-96044302D01*
X136366000Y-96416472D01*
X135993830Y-96044302D01*
X135411276Y-95803000D01*
X134780724Y-95803000D01*
X134198170Y-96044302D01*
X133752302Y-96490170D01*
X133511000Y-97072724D01*
X98960000Y-97072724D01*
X98960000Y-89604234D01*
X101735000Y-89604234D01*
X101735000Y-90055766D01*
X101907793Y-90472926D01*
X102227074Y-90792207D01*
X102644234Y-90965000D01*
X103095766Y-90965000D01*
X103512926Y-90792207D01*
X103832207Y-90472926D01*
X104005000Y-90055766D01*
X104005000Y-89604234D01*
X103832207Y-89187074D01*
X103512926Y-88867793D01*
X103095766Y-88695000D01*
X102644234Y-88695000D01*
X102227074Y-88867793D01*
X101907793Y-89187074D01*
X101735000Y-89604234D01*
X98960000Y-89604234D01*
X98960000Y-85204234D01*
X101735000Y-85204234D01*
X101735000Y-85655766D01*
X101907793Y-86072926D01*
X102227074Y-86392207D01*
X102644234Y-86565000D01*
X103095766Y-86565000D01*
X103512926Y-86392207D01*
X103832207Y-86072926D01*
X104005000Y-85655766D01*
X104005000Y-85204234D01*
X103832207Y-84787074D01*
X103512926Y-84467793D01*
X103095766Y-84295000D01*
X102644234Y-84295000D01*
X102227074Y-84467793D01*
X101907793Y-84787074D01*
X101735000Y-85204234D01*
X98960000Y-85204234D01*
X98960000Y-78226920D01*
X110334872Y-78226920D01*
X110349760Y-78301767D01*
X110349761Y-91436268D01*
X110334872Y-91511120D01*
X110349761Y-91585972D01*
X110393857Y-91807657D01*
X110561832Y-92059049D01*
X110625288Y-92101449D01*
X111478311Y-92954473D01*
X111520711Y-93017929D01*
X111772103Y-93185904D01*
X111993788Y-93230000D01*
X111993792Y-93230000D01*
X112068639Y-93244888D01*
X112143486Y-93230000D01*
X112726289Y-93230000D01*
X112843720Y-93347431D01*
X113224126Y-93505000D01*
X113525093Y-93505000D01*
X113399574Y-93630520D01*
X113234452Y-93630520D01*
X112743783Y-93833762D01*
X112368242Y-94209303D01*
X112165000Y-94699972D01*
X112165000Y-95231068D01*
X112368242Y-95721737D01*
X112743783Y-96097278D01*
X113234452Y-96300520D01*
X113765548Y-96300520D01*
X114256217Y-96097278D01*
X114631758Y-95721737D01*
X114835000Y-95231068D01*
X114835000Y-95065946D01*
X115642121Y-94258826D01*
X115809828Y-94007834D01*
X115888604Y-93611801D01*
X115868720Y-93511837D01*
X115868720Y-85992608D01*
X115888605Y-85892640D01*
X115886312Y-85881114D01*
X116199671Y-86194472D01*
X116242071Y-86257929D01*
X116305527Y-86300329D01*
X116493462Y-86425904D01*
X116541605Y-86435480D01*
X116715148Y-86470000D01*
X116715152Y-86470000D01*
X116790000Y-86484888D01*
X116864848Y-86470000D01*
X119875199Y-86470000D01*
X120160000Y-86754802D01*
X120160001Y-89205148D01*
X120145112Y-89280000D01*
X120160001Y-89354852D01*
X120190109Y-89506217D01*
X120204097Y-89576537D01*
X120308952Y-89733463D01*
X120372072Y-89827929D01*
X120435528Y-89870329D01*
X121079671Y-90514473D01*
X121122071Y-90577929D01*
X121373463Y-90745904D01*
X121595148Y-90790000D01*
X121595152Y-90790000D01*
X121669999Y-90804888D01*
X121744846Y-90790000D01*
X121906289Y-90790000D01*
X122023720Y-90907431D01*
X122404126Y-91065000D01*
X122815874Y-91065000D01*
X123196280Y-90907431D01*
X123487431Y-90616280D01*
X123645000Y-90235874D01*
X123645000Y-89824126D01*
X123487431Y-89443720D01*
X123196280Y-89152569D01*
X122815874Y-88995000D01*
X122404126Y-88995000D01*
X122023720Y-89152569D01*
X121945545Y-89230744D01*
X121680000Y-88965199D01*
X121680000Y-86514847D01*
X121694888Y-86440000D01*
X121680000Y-86365153D01*
X121680000Y-86365148D01*
X121635904Y-86143463D01*
X121467929Y-85892071D01*
X121404473Y-85849671D01*
X120780331Y-85225530D01*
X120737929Y-85162071D01*
X120486537Y-84994096D01*
X120264852Y-84950000D01*
X120264847Y-84950000D01*
X120190000Y-84935112D01*
X120115153Y-84950000D01*
X117104802Y-84950000D01*
X117050000Y-84895199D01*
X117050000Y-84483711D01*
X117167431Y-84366280D01*
X117325000Y-83985874D01*
X117325000Y-83574126D01*
X117167431Y-83193720D01*
X116876280Y-82902569D01*
X116495874Y-82745000D01*
X116084126Y-82745000D01*
X115703720Y-82902569D01*
X115412569Y-83193720D01*
X115309920Y-83441537D01*
X115309920Y-80782388D01*
X115329805Y-80682420D01*
X115251029Y-80286386D01*
X115153470Y-80140380D01*
X115026694Y-79950646D01*
X114941944Y-79894018D01*
X114584486Y-79536560D01*
X119579574Y-79536560D01*
X120135001Y-80091988D01*
X120135000Y-81252025D01*
X120018242Y-81368783D01*
X119815000Y-81859452D01*
X119815000Y-82390548D01*
X120018242Y-82881217D01*
X120393783Y-83256758D01*
X120611523Y-83346949D01*
X124960000Y-87695427D01*
X124960000Y-87877025D01*
X124843242Y-87993783D01*
X124640000Y-88484452D01*
X124640000Y-89015548D01*
X124843242Y-89506217D01*
X125218783Y-89881758D01*
X125709452Y-90085000D01*
X126240548Y-90085000D01*
X126731217Y-89881758D01*
X127106758Y-89506217D01*
X127310000Y-89015548D01*
X127310000Y-88484452D01*
X127106758Y-87993783D01*
X126990000Y-87877025D01*
X126990000Y-87374963D01*
X127009884Y-87274999D01*
X126990000Y-87175036D01*
X126990000Y-87175032D01*
X126931109Y-86878967D01*
X126706774Y-86543226D01*
X126622027Y-86486600D01*
X122485000Y-82349574D01*
X122485000Y-81859452D01*
X122281758Y-81368783D01*
X122165000Y-81252025D01*
X122165000Y-79771528D01*
X122184885Y-79671560D01*
X122158032Y-79536560D01*
X129548974Y-79536560D01*
X131337319Y-81324906D01*
X131393946Y-81409654D01*
X131729687Y-81633989D01*
X132025752Y-81692880D01*
X132025756Y-81692880D01*
X132125720Y-81712764D01*
X132225683Y-81692880D01*
X133709658Y-81692880D01*
X133752302Y-81795831D01*
X134198170Y-82241699D01*
X134780724Y-82483001D01*
X135411276Y-82483001D01*
X135993830Y-82241699D01*
X136366000Y-81869529D01*
X136738170Y-82241699D01*
X137320724Y-82483001D01*
X137951276Y-82483001D01*
X138533830Y-82241699D01*
X138761178Y-82014351D01*
X139239255Y-82014351D01*
X139331792Y-82276020D01*
X139923398Y-82494189D01*
X140553461Y-82469353D01*
X141020208Y-82276020D01*
X141112745Y-82014351D01*
X140176000Y-81077606D01*
X139239255Y-82014351D01*
X138761178Y-82014351D01*
X138971837Y-81803692D01*
X139059650Y-81834746D01*
X139258483Y-81635913D01*
X139268154Y-81633989D01*
X139603895Y-81409654D01*
X139828230Y-81073913D01*
X139830154Y-81064242D01*
X139996395Y-80898001D01*
X140355605Y-80898001D01*
X141292350Y-81834746D01*
X141380163Y-81803692D01*
X141818170Y-82241699D01*
X142400724Y-82483001D01*
X143031276Y-82483001D01*
X143613830Y-82241699D01*
X144059698Y-81795831D01*
X144301000Y-81213277D01*
X144301000Y-80582725D01*
X144059698Y-80000171D01*
X143613830Y-79554303D01*
X143031276Y-79313001D01*
X142400724Y-79313001D01*
X141818170Y-79554303D01*
X141380163Y-79992310D01*
X141292350Y-79961256D01*
X140355605Y-80898001D01*
X139996395Y-80898001D01*
X139982253Y-80883859D01*
X140161858Y-80704254D01*
X140176000Y-80718396D01*
X141112745Y-79781651D01*
X141020208Y-79519982D01*
X140428602Y-79301813D01*
X139798539Y-79326649D01*
X139331792Y-79519982D01*
X139289070Y-79640787D01*
X139159999Y-79615113D01*
X138919859Y-79662880D01*
X138642407Y-79662880D01*
X138533830Y-79554303D01*
X137951276Y-79313001D01*
X137320724Y-79313001D01*
X136738170Y-79554303D01*
X136629593Y-79662880D01*
X136102407Y-79662880D01*
X135993830Y-79554303D01*
X135411276Y-79313001D01*
X134780724Y-79313001D01*
X134198170Y-79554303D01*
X134089593Y-79662880D01*
X132546147Y-79662880D01*
X130757802Y-77874536D01*
X130701174Y-77789786D01*
X130365433Y-77565451D01*
X130069368Y-77506560D01*
X130069363Y-77506560D01*
X129969400Y-77486676D01*
X129869437Y-77506560D01*
X120099963Y-77506560D01*
X120000000Y-77486676D01*
X119900037Y-77506560D01*
X113007035Y-77506560D01*
X112955978Y-77455503D01*
X119700376Y-70711105D01*
X149829000Y-70711105D01*
X149829000Y-71480895D01*
X150123586Y-72192090D01*
X150667910Y-72736414D01*
X151379105Y-73031000D01*
X152148895Y-73031000D01*
X152860090Y-72736414D01*
X153404414Y-72192090D01*
X153699000Y-71480895D01*
X153699000Y-70711105D01*
X153404414Y-69999910D01*
X152860090Y-69455586D01*
X152148895Y-69161000D01*
X151379105Y-69161000D01*
X150667910Y-69455586D01*
X150123586Y-69999910D01*
X149829000Y-70711105D01*
X119700376Y-70711105D01*
X122422762Y-67988720D01*
X124716409Y-67988720D01*
X124833840Y-68106151D01*
X125214246Y-68263720D01*
X125625994Y-68263720D01*
X126006400Y-68106151D01*
X126297551Y-67815000D01*
X126455120Y-67434594D01*
X126455120Y-67022846D01*
X126297551Y-66642440D01*
X126006400Y-66351289D01*
X125625994Y-66193720D01*
X125214246Y-66193720D01*
X124833840Y-66351289D01*
X124716409Y-66468720D01*
X122182808Y-66468720D01*
X122107960Y-66453832D01*
X122033112Y-66468720D01*
X122033108Y-66468720D01*
X121811423Y-66512816D01*
X121560031Y-66680791D01*
X121517631Y-66744247D01*
X110625290Y-77636589D01*
X110561831Y-77678991D01*
X110393856Y-77930384D01*
X110349760Y-78152069D01*
X110349760Y-78152073D01*
X110334872Y-78226920D01*
X98960000Y-78226920D01*
X98960000Y-69424126D01*
X102175000Y-69424126D01*
X102175000Y-69835874D01*
X102332569Y-70216280D01*
X102623720Y-70507431D01*
X103004126Y-70665000D01*
X103415874Y-70665000D01*
X103464158Y-70645000D01*
X108660037Y-70645000D01*
X108760000Y-70664884D01*
X108859963Y-70645000D01*
X108859968Y-70645000D01*
X109156033Y-70586109D01*
X109491774Y-70361774D01*
X109548402Y-70277024D01*
X111117027Y-68708400D01*
X111201774Y-68651774D01*
X111426109Y-68316033D01*
X111485000Y-68019968D01*
X111485000Y-68019964D01*
X111504884Y-67920001D01*
X111485000Y-67820037D01*
X111485000Y-66334158D01*
X111505000Y-66285874D01*
X111505000Y-65874126D01*
X111347431Y-65493720D01*
X111056280Y-65202569D01*
X110868304Y-65124707D01*
X111191382Y-65060443D01*
X111587148Y-64796000D01*
X149816560Y-64796000D01*
X149816560Y-67396000D01*
X149865843Y-67643765D01*
X150006191Y-67853809D01*
X150216235Y-67994157D01*
X150464000Y-68043440D01*
X153064000Y-68043440D01*
X153311765Y-67994157D01*
X153521809Y-67853809D01*
X153662157Y-67643765D01*
X153711440Y-67396000D01*
X153711440Y-64796000D01*
X153662157Y-64548235D01*
X153521809Y-64338191D01*
X153311765Y-64197843D01*
X153064000Y-64148560D01*
X150464000Y-64148560D01*
X150216235Y-64197843D01*
X150006191Y-64338191D01*
X149865843Y-64548235D01*
X149816560Y-64796000D01*
X111587148Y-64796000D01*
X111616433Y-64776433D01*
X111900443Y-64351382D01*
X111975000Y-63976558D01*
X111975000Y-62123442D01*
X111900443Y-61748618D01*
X111616433Y-61323567D01*
X111191381Y-61039557D01*
X110690000Y-60939826D01*
X110188618Y-61039557D01*
X109763567Y-61323567D01*
X109479557Y-61748619D01*
X109405000Y-62123443D01*
X109405000Y-63976558D01*
X109479558Y-64351382D01*
X109763568Y-64776433D01*
X110188619Y-65060443D01*
X110214442Y-65065580D01*
X109883720Y-65202569D01*
X109592569Y-65493720D01*
X109435000Y-65874126D01*
X109435000Y-66285874D01*
X109455001Y-66334160D01*
X109455001Y-66703713D01*
X109099081Y-66411416D01*
X108617000Y-66265000D01*
X107817000Y-66265000D01*
X107817000Y-67423000D01*
X107837000Y-67423000D01*
X107837000Y-67677000D01*
X107817000Y-67677000D01*
X107817000Y-67697000D01*
X107563000Y-67697000D01*
X107563000Y-67677000D01*
X105770933Y-67677000D01*
X105646901Y-67875471D01*
X105654214Y-67924415D01*
X105891565Y-68368829D01*
X106191318Y-68615000D01*
X103464158Y-68615000D01*
X103415874Y-68595000D01*
X103004126Y-68595000D01*
X102623720Y-68752569D01*
X102332569Y-69043720D01*
X102175000Y-69424126D01*
X98960000Y-69424126D01*
X98960000Y-67224529D01*
X105646901Y-67224529D01*
X105770933Y-67423000D01*
X107563000Y-67423000D01*
X107563000Y-66265000D01*
X106763000Y-66265000D01*
X106280919Y-66411416D01*
X105891565Y-66731171D01*
X105654214Y-67175585D01*
X105646901Y-67224529D01*
X98960000Y-67224529D01*
X98960000Y-65234724D01*
X100105000Y-65234724D01*
X100105000Y-65865276D01*
X100346302Y-66447830D01*
X100792170Y-66893698D01*
X101374724Y-67135000D01*
X102005276Y-67135000D01*
X102587830Y-66893698D01*
X103033698Y-66447830D01*
X103275000Y-65865276D01*
X103275000Y-65234724D01*
X103033698Y-64652170D01*
X102587830Y-64206302D01*
X102005276Y-63965000D01*
X101374724Y-63965000D01*
X100792170Y-64206302D01*
X100346302Y-64652170D01*
X100105000Y-65234724D01*
X98960000Y-65234724D01*
X98960000Y-63177000D01*
X103405000Y-63177000D01*
X103405000Y-63977000D01*
X103551416Y-64459081D01*
X103871171Y-64848435D01*
X104315585Y-65085786D01*
X104364529Y-65093099D01*
X104563000Y-64969067D01*
X104563000Y-63177000D01*
X104817000Y-63177000D01*
X104817000Y-64969067D01*
X105015471Y-65093099D01*
X105064415Y-65085786D01*
X105508829Y-64848435D01*
X105828584Y-64459081D01*
X105975000Y-63977000D01*
X105975000Y-63177000D01*
X104817000Y-63177000D01*
X104563000Y-63177000D01*
X103405000Y-63177000D01*
X98960000Y-63177000D01*
X98960000Y-60234724D01*
X100105000Y-60234724D01*
X100105000Y-60865276D01*
X100346302Y-61447830D01*
X100792170Y-61893698D01*
X101374724Y-62135000D01*
X102005276Y-62135000D01*
X102034246Y-62123000D01*
X103405000Y-62123000D01*
X103405000Y-62923000D01*
X104563000Y-62923000D01*
X104563000Y-61130933D01*
X104817000Y-61130933D01*
X104817000Y-62923000D01*
X105975000Y-62923000D01*
X105975000Y-62123000D01*
X105828584Y-61640919D01*
X105508829Y-61251565D01*
X105064415Y-61014214D01*
X105015471Y-61006901D01*
X104817000Y-61130933D01*
X104563000Y-61130933D01*
X104364529Y-61006901D01*
X104315585Y-61014214D01*
X103871171Y-61251565D01*
X103551416Y-61640919D01*
X103405000Y-62123000D01*
X102034246Y-62123000D01*
X102587830Y-61893698D01*
X103033698Y-61447830D01*
X103275000Y-60865276D01*
X103275000Y-60234724D01*
X103033698Y-59652170D01*
X102587830Y-59206302D01*
X102005276Y-58965000D01*
X101374724Y-58965000D01*
X100792170Y-59206302D01*
X100346302Y-59652170D01*
X100105000Y-60234724D01*
X98960000Y-60234724D01*
X98960000Y-53092350D01*
X108673255Y-53092350D01*
X108765792Y-53354019D01*
X109357398Y-53572188D01*
X109987461Y-53547352D01*
X110454208Y-53354019D01*
X110546745Y-53092350D01*
X109610000Y-52155605D01*
X108673255Y-53092350D01*
X98960000Y-53092350D01*
X98960000Y-49555431D01*
X99765000Y-49555431D01*
X99765000Y-50444569D01*
X100105259Y-51266026D01*
X100733974Y-51894741D01*
X101555431Y-52235000D01*
X102444569Y-52235000D01*
X103266026Y-51894741D01*
X103437369Y-51723398D01*
X108013812Y-51723398D01*
X108038648Y-52353461D01*
X108231981Y-52820208D01*
X108493650Y-52912745D01*
X109430395Y-51976000D01*
X109789605Y-51976000D01*
X110726350Y-52912745D01*
X110988019Y-52820208D01*
X111206188Y-52228602D01*
X111183804Y-51660724D01*
X119525000Y-51660724D01*
X119525000Y-52291276D01*
X119766302Y-52873830D01*
X120212170Y-53319698D01*
X120794724Y-53561000D01*
X121425276Y-53561000D01*
X122007830Y-53319698D01*
X122453698Y-52873830D01*
X122695000Y-52291276D01*
X122695000Y-51710724D01*
X129755000Y-51710724D01*
X129755000Y-52341276D01*
X129996302Y-52923830D01*
X130442170Y-53369698D01*
X131024724Y-53611000D01*
X131655276Y-53611000D01*
X132237830Y-53369698D01*
X132683698Y-52923830D01*
X132925000Y-52341276D01*
X132925000Y-51710724D01*
X141255000Y-51710724D01*
X141255000Y-52341276D01*
X141496302Y-52923830D01*
X141942170Y-53369698D01*
X142524724Y-53611000D01*
X143155276Y-53611000D01*
X143737830Y-53369698D01*
X144183698Y-52923830D01*
X144425000Y-52341276D01*
X144425000Y-51710724D01*
X144183698Y-51128170D01*
X143737830Y-50682302D01*
X143155276Y-50441000D01*
X142524724Y-50441000D01*
X141942170Y-50682302D01*
X141496302Y-51128170D01*
X141255000Y-51710724D01*
X132925000Y-51710724D01*
X132683698Y-51128170D01*
X132237830Y-50682302D01*
X131655276Y-50441000D01*
X131024724Y-50441000D01*
X130442170Y-50682302D01*
X129996302Y-51128170D01*
X129755000Y-51710724D01*
X122695000Y-51710724D01*
X122695000Y-51660724D01*
X122453698Y-51078170D01*
X122007830Y-50632302D01*
X121425276Y-50391000D01*
X120794724Y-50391000D01*
X120212170Y-50632302D01*
X119766302Y-51078170D01*
X119525000Y-51660724D01*
X111183804Y-51660724D01*
X111181352Y-51598539D01*
X110988019Y-51131792D01*
X110726350Y-51039255D01*
X109789605Y-51976000D01*
X109430395Y-51976000D01*
X108493650Y-51039255D01*
X108231981Y-51131792D01*
X108013812Y-51723398D01*
X103437369Y-51723398D01*
X103894741Y-51266026D01*
X104063067Y-50859650D01*
X108673255Y-50859650D01*
X109610000Y-51796395D01*
X110546745Y-50859650D01*
X110454208Y-50597981D01*
X109862602Y-50379812D01*
X109232539Y-50404648D01*
X108765792Y-50597981D01*
X108673255Y-50859650D01*
X104063067Y-50859650D01*
X104235000Y-50444569D01*
X104235000Y-49555431D01*
X149765000Y-49555431D01*
X149765000Y-50444569D01*
X150105259Y-51266026D01*
X150733974Y-51894741D01*
X151555431Y-52235000D01*
X152444569Y-52235000D01*
X153266026Y-51894741D01*
X153894741Y-51266026D01*
X154235000Y-50444569D01*
X154235000Y-49555431D01*
X153894741Y-48733974D01*
X153266026Y-48105259D01*
X152444569Y-47765000D01*
X151555431Y-47765000D01*
X150733974Y-48105259D01*
X150105259Y-48733974D01*
X149765000Y-49555431D01*
X104235000Y-49555431D01*
X103894741Y-48733974D01*
X103266026Y-48105259D01*
X102444569Y-47765000D01*
X101555431Y-47765000D01*
X100733974Y-48105259D01*
X100105259Y-48733974D01*
X99765000Y-49555431D01*
X98960000Y-49555431D01*
X98960000Y-49250654D01*
X99015811Y-48612725D01*
X99194482Y-48042586D01*
X99491411Y-47524119D01*
X99892751Y-47081503D01*
X100379771Y-46735395D01*
X100929753Y-46501942D01*
X101539863Y-46387763D01*
X101741933Y-46380000D01*
X153024252Y-46380000D01*
X153649691Y-46447945D01*
X153649691Y-46447945D01*
G37*
X153649691Y-46447945D02*
X154211866Y-46637137D01*
X154720296Y-46942633D01*
X155151272Y-47350185D01*
X155484676Y-47840775D01*
X155704956Y-48391515D01*
X155806196Y-49003054D01*
X155810001Y-49139263D01*
X155810000Y-123801353D01*
X155736181Y-124429783D01*
X155539963Y-124996435D01*
X155226642Y-125507737D01*
X154810835Y-125939829D01*
X154311945Y-126272553D01*
X153753239Y-126490387D01*
X153134410Y-126587297D01*
X152993683Y-126590000D01*
X101590041Y-126600002D01*
X101041746Y-126540438D01*
X100500047Y-126358136D01*
X100010121Y-126063760D01*
X99594843Y-125671051D01*
X99273581Y-125198329D01*
X99061323Y-124667646D01*
X98963611Y-124077414D01*
X98960000Y-123948147D01*
X98960000Y-122555431D01*
X99765000Y-122555431D01*
X99765000Y-123444569D01*
X100105259Y-124266026D01*
X100733974Y-124894741D01*
X101555431Y-125235000D01*
X102444569Y-125235000D01*
X103266026Y-124894741D01*
X103894741Y-124266026D01*
X104235000Y-123444569D01*
X104235000Y-122555431D01*
X149765000Y-122555431D01*
X149765000Y-123444569D01*
X150105259Y-124266026D01*
X150733974Y-124894741D01*
X151555431Y-125235000D01*
X152444569Y-125235000D01*
X153266026Y-124894741D01*
X153894741Y-124266026D01*
X154235000Y-123444569D01*
X154235000Y-122555431D01*
X153894741Y-121733974D01*
X153266026Y-121105259D01*
X152444569Y-120765000D01*
X151555431Y-120765000D01*
X150733974Y-121105259D01*
X150105259Y-121733974D01*
X149765000Y-122555431D01*
X104235000Y-122555431D01*
X103894741Y-121733974D01*
X103266026Y-121105259D01*
X102444569Y-120765000D01*
X101555431Y-120765000D01*
X100733974Y-121105259D01*
X100105259Y-121733974D01*
X99765000Y-122555431D01*
X98960000Y-122555431D01*
X98960000Y-109424724D01*
X110235000Y-109424724D01*
X110235000Y-110055276D01*
X110476302Y-110637830D01*
X110922170Y-111083698D01*
X111504724Y-111325000D01*
X112135276Y-111325000D01*
X112717830Y-111083698D01*
X113090000Y-110711528D01*
X113462170Y-111083698D01*
X114044724Y-111325000D01*
X114675276Y-111325000D01*
X115257830Y-111083698D01*
X115630000Y-110711528D01*
X116002170Y-111083698D01*
X116584724Y-111325000D01*
X117215276Y-111325000D01*
X117797830Y-111083698D01*
X118025178Y-110856350D01*
X118503255Y-110856350D01*
X118595792Y-111118019D01*
X119187398Y-111336188D01*
X119817461Y-111311352D01*
X120284208Y-111118019D01*
X120376745Y-110856350D01*
X119440000Y-109919605D01*
X118503255Y-110856350D01*
X118025178Y-110856350D01*
X118235837Y-110645691D01*
X118323650Y-110676745D01*
X119260395Y-109740000D01*
X119619605Y-109740000D01*
X120556350Y-110676745D01*
X120818019Y-110584208D01*
X121036188Y-109992602D01*
X121013331Y-109412724D01*
X133543000Y-109412724D01*
X133543000Y-110043276D01*
X133784302Y-110625830D01*
X134230170Y-111071698D01*
X134812724Y-111313000D01*
X135443276Y-111313000D01*
X136025830Y-111071698D01*
X136398000Y-110699528D01*
X136770170Y-111071698D01*
X137352724Y-111313000D01*
X137983276Y-111313000D01*
X138565830Y-111071698D01*
X138938000Y-110699528D01*
X139310170Y-111071698D01*
X139892724Y-111313000D01*
X140523276Y-111313000D01*
X141105830Y-111071698D01*
X141333178Y-110844350D01*
X141811255Y-110844350D01*
X141903792Y-111106019D01*
X142495398Y-111324188D01*
X143125461Y-111299352D01*
X143592208Y-111106019D01*
X143684745Y-110844350D01*
X142748000Y-109907605D01*
X141811255Y-110844350D01*
X141333178Y-110844350D01*
X141543837Y-110633691D01*
X141631650Y-110664745D01*
X142568395Y-109728000D01*
X142927605Y-109728000D01*
X143864350Y-110664745D01*
X144126019Y-110572208D01*
X144344188Y-109980602D01*
X144319352Y-109350539D01*
X144126019Y-108883792D01*
X143864350Y-108791255D01*
X142927605Y-109728000D01*
X142568395Y-109728000D01*
X141631650Y-108791255D01*
X141543837Y-108822309D01*
X141333178Y-108611650D01*
X141811255Y-108611650D01*
X142748000Y-109548395D01*
X143684745Y-108611650D01*
X143592208Y-108349981D01*
X143000602Y-108131812D01*
X142370539Y-108156648D01*
X141903792Y-108349981D01*
X141811255Y-108611650D01*
X141333178Y-108611650D01*
X141105830Y-108384302D01*
X140523276Y-108143000D01*
X139892724Y-108143000D01*
X139310170Y-108384302D01*
X138938000Y-108756472D01*
X138565830Y-108384302D01*
X137983276Y-108143000D01*
X137352724Y-108143000D01*
X136770170Y-108384302D01*
X136398000Y-108756472D01*
X136025830Y-108384302D01*
X135443276Y-108143000D01*
X134812724Y-108143000D01*
X134230170Y-108384302D01*
X133784302Y-108830170D01*
X133543000Y-109412724D01*
X121013331Y-109412724D01*
X121011352Y-109362539D01*
X120818019Y-108895792D01*
X120556350Y-108803255D01*
X119619605Y-109740000D01*
X119260395Y-109740000D01*
X118323650Y-108803255D01*
X118235837Y-108834309D01*
X118025178Y-108623650D01*
X118503255Y-108623650D01*
X119440000Y-109560395D01*
X120376745Y-108623650D01*
X120284208Y-108361981D01*
X119692602Y-108143812D01*
X119062539Y-108168648D01*
X118595792Y-108361981D01*
X118503255Y-108623650D01*
X118025178Y-108623650D01*
X117797830Y-108396302D01*
X117215276Y-108155000D01*
X116584724Y-108155000D01*
X116002170Y-108396302D01*
X115630000Y-108768472D01*
X115257830Y-108396302D01*
X114675276Y-108155000D01*
X114044724Y-108155000D01*
X113462170Y-108396302D01*
X113090000Y-108768472D01*
X112717830Y-108396302D01*
X112135276Y-108155000D01*
X111504724Y-108155000D01*
X110922170Y-108396302D01*
X110476302Y-108842170D01*
X110235000Y-109424724D01*
X98960000Y-109424724D01*
X98960000Y-105394126D01*
X111845000Y-105394126D01*
X111845000Y-105805874D01*
X112002569Y-106186280D01*
X112293720Y-106477431D01*
X112674126Y-106635000D01*
X113085874Y-106635000D01*
X113466280Y-106477431D01*
X113553711Y-106390000D01*
X115026289Y-106390000D01*
X115143720Y-106507431D01*
X115524126Y-106665000D01*
X115935874Y-106665000D01*
X116316280Y-106507431D01*
X116607431Y-106216280D01*
X116765000Y-105835874D01*
X116765000Y-105424126D01*
X116607431Y-105043720D01*
X116316280Y-104752569D01*
X115935874Y-104595000D01*
X115524126Y-104595000D01*
X115143720Y-104752569D01*
X115026289Y-104870000D01*
X113613711Y-104870000D01*
X113466280Y-104722569D01*
X113085874Y-104565000D01*
X112674126Y-104565000D01*
X112293720Y-104722569D01*
X112002569Y-105013720D01*
X111845000Y-105394126D01*
X98960000Y-105394126D01*
X98960000Y-97072724D01*
X133511000Y-97072724D01*
X133511000Y-97703276D01*
X133752302Y-98285830D01*
X134198170Y-98731698D01*
X134780724Y-98973000D01*
X135411276Y-98973000D01*
X135993830Y-98731698D01*
X136366000Y-98359528D01*
X136738170Y-98731698D01*
X137320724Y-98973000D01*
X137951276Y-98973000D01*
X138533830Y-98731698D01*
X138906000Y-98359528D01*
X139278170Y-98731698D01*
X139860724Y-98973000D01*
X140491276Y-98973000D01*
X141073830Y-98731698D01*
X141446000Y-98359528D01*
X141818170Y-98731698D01*
X142400724Y-98973000D01*
X143031276Y-98973000D01*
X143613830Y-98731698D01*
X144059698Y-98285830D01*
X144301000Y-97703276D01*
X144301000Y-97072724D01*
X144059698Y-96490170D01*
X143613830Y-96044302D01*
X143031276Y-95803000D01*
X142400724Y-95803000D01*
X141818170Y-96044302D01*
X141446000Y-96416472D01*
X141073830Y-96044302D01*
X140491276Y-95803000D01*
X139860724Y-95803000D01*
X139278170Y-96044302D01*
X138906000Y-96416472D01*
X138533830Y-96044302D01*
X137951276Y-95803000D01*
X137320724Y-95803000D01*
X136738170Y-96044302D01*
X136366000Y-96416472D01*
X135993830Y-96044302D01*
X135411276Y-95803000D01*
X134780724Y-95803000D01*
X134198170Y-96044302D01*
X133752302Y-96490170D01*
X133511000Y-97072724D01*
X98960000Y-97072724D01*
X98960000Y-89604234D01*
X101735000Y-89604234D01*
X101735000Y-90055766D01*
X101907793Y-90472926D01*
X102227074Y-90792207D01*
X102644234Y-90965000D01*
X103095766Y-90965000D01*
X103512926Y-90792207D01*
X103832207Y-90472926D01*
X104005000Y-90055766D01*
X104005000Y-89604234D01*
X103832207Y-89187074D01*
X103512926Y-88867793D01*
X103095766Y-88695000D01*
X102644234Y-88695000D01*
X102227074Y-88867793D01*
X101907793Y-89187074D01*
X101735000Y-89604234D01*
X98960000Y-89604234D01*
X98960000Y-85204234D01*
X101735000Y-85204234D01*
X101735000Y-85655766D01*
X101907793Y-86072926D01*
X102227074Y-86392207D01*
X102644234Y-86565000D01*
X103095766Y-86565000D01*
X103512926Y-86392207D01*
X103832207Y-86072926D01*
X104005000Y-85655766D01*
X104005000Y-85204234D01*
X103832207Y-84787074D01*
X103512926Y-84467793D01*
X103095766Y-84295000D01*
X102644234Y-84295000D01*
X102227074Y-84467793D01*
X101907793Y-84787074D01*
X101735000Y-85204234D01*
X98960000Y-85204234D01*
X98960000Y-78226920D01*
X110334872Y-78226920D01*
X110349760Y-78301767D01*
X110349761Y-91436268D01*
X110334872Y-91511120D01*
X110349761Y-91585972D01*
X110393857Y-91807657D01*
X110561832Y-92059049D01*
X110625288Y-92101449D01*
X111478311Y-92954473D01*
X111520711Y-93017929D01*
X111772103Y-93185904D01*
X111993788Y-93230000D01*
X111993792Y-93230000D01*
X112068639Y-93244888D01*
X112143486Y-93230000D01*
X112726289Y-93230000D01*
X112843720Y-93347431D01*
X113224126Y-93505000D01*
X113525093Y-93505000D01*
X113399574Y-93630520D01*
X113234452Y-93630520D01*
X112743783Y-93833762D01*
X112368242Y-94209303D01*
X112165000Y-94699972D01*
X112165000Y-95231068D01*
X112368242Y-95721737D01*
X112743783Y-96097278D01*
X113234452Y-96300520D01*
X113765548Y-96300520D01*
X114256217Y-96097278D01*
X114631758Y-95721737D01*
X114835000Y-95231068D01*
X114835000Y-95065946D01*
X115642121Y-94258826D01*
X115809828Y-94007834D01*
X115888604Y-93611801D01*
X115868720Y-93511837D01*
X115868720Y-85992608D01*
X115888605Y-85892640D01*
X115886312Y-85881114D01*
X116199671Y-86194472D01*
X116242071Y-86257929D01*
X116305527Y-86300329D01*
X116493462Y-86425904D01*
X116541605Y-86435480D01*
X116715148Y-86470000D01*
X116715152Y-86470000D01*
X116790000Y-86484888D01*
X116864848Y-86470000D01*
X119875199Y-86470000D01*
X120160000Y-86754802D01*
X120160001Y-89205148D01*
X120145112Y-89280000D01*
X120160001Y-89354852D01*
X120190109Y-89506217D01*
X120204097Y-89576537D01*
X120308952Y-89733463D01*
X120372072Y-89827929D01*
X120435528Y-89870329D01*
X121079671Y-90514473D01*
X121122071Y-90577929D01*
X121373463Y-90745904D01*
X121595148Y-90790000D01*
X121595152Y-90790000D01*
X121669999Y-90804888D01*
X121744846Y-90790000D01*
X121906289Y-90790000D01*
X122023720Y-90907431D01*
X122404126Y-91065000D01*
X122815874Y-91065000D01*
X123196280Y-90907431D01*
X123487431Y-90616280D01*
X123645000Y-90235874D01*
X123645000Y-89824126D01*
X123487431Y-89443720D01*
X123196280Y-89152569D01*
X122815874Y-88995000D01*
X122404126Y-88995000D01*
X122023720Y-89152569D01*
X121945545Y-89230744D01*
X121680000Y-88965199D01*
X121680000Y-86514847D01*
X121694888Y-86440000D01*
X121680000Y-86365153D01*
X121680000Y-86365148D01*
X121635904Y-86143463D01*
X121467929Y-85892071D01*
X121404473Y-85849671D01*
X120780331Y-85225530D01*
X120737929Y-85162071D01*
X120486537Y-84994096D01*
X120264852Y-84950000D01*
X120264847Y-84950000D01*
X120190000Y-84935112D01*
X120115153Y-84950000D01*
X117104802Y-84950000D01*
X117050000Y-84895199D01*
X117050000Y-84483711D01*
X117167431Y-84366280D01*
X117325000Y-83985874D01*
X117325000Y-83574126D01*
X117167431Y-83193720D01*
X116876280Y-82902569D01*
X116495874Y-82745000D01*
X116084126Y-82745000D01*
X115703720Y-82902569D01*
X115412569Y-83193720D01*
X115309920Y-83441537D01*
X115309920Y-80782388D01*
X115329805Y-80682420D01*
X115251029Y-80286386D01*
X115153470Y-80140380D01*
X115026694Y-79950646D01*
X114941944Y-79894018D01*
X114584486Y-79536560D01*
X119579574Y-79536560D01*
X120135001Y-80091988D01*
X120135000Y-81252025D01*
X120018242Y-81368783D01*
X119815000Y-81859452D01*
X119815000Y-82390548D01*
X120018242Y-82881217D01*
X120393783Y-83256758D01*
X120611523Y-83346949D01*
X124960000Y-87695427D01*
X124960000Y-87877025D01*
X124843242Y-87993783D01*
X124640000Y-88484452D01*
X124640000Y-89015548D01*
X124843242Y-89506217D01*
X125218783Y-89881758D01*
X125709452Y-90085000D01*
X126240548Y-90085000D01*
X126731217Y-89881758D01*
X127106758Y-89506217D01*
X127310000Y-89015548D01*
X127310000Y-88484452D01*
X127106758Y-87993783D01*
X126990000Y-87877025D01*
X126990000Y-87374963D01*
X127009884Y-87274999D01*
X126990000Y-87175036D01*
X126990000Y-87175032D01*
X126931109Y-86878967D01*
X126706774Y-86543226D01*
X126622027Y-86486600D01*
X122485000Y-82349574D01*
X122485000Y-81859452D01*
X122281758Y-81368783D01*
X122165000Y-81252025D01*
X122165000Y-79771528D01*
X122184885Y-79671560D01*
X122158032Y-79536560D01*
X129548974Y-79536560D01*
X131337319Y-81324906D01*
X131393946Y-81409654D01*
X131729687Y-81633989D01*
X132025752Y-81692880D01*
X132025756Y-81692880D01*
X132125720Y-81712764D01*
X132225683Y-81692880D01*
X133709658Y-81692880D01*
X133752302Y-81795831D01*
X134198170Y-82241699D01*
X134780724Y-82483001D01*
X135411276Y-82483001D01*
X135993830Y-82241699D01*
X136366000Y-81869529D01*
X136738170Y-82241699D01*
X137320724Y-82483001D01*
X137951276Y-82483001D01*
X138533830Y-82241699D01*
X138761178Y-82014351D01*
X139239255Y-82014351D01*
X139331792Y-82276020D01*
X139923398Y-82494189D01*
X140553461Y-82469353D01*
X141020208Y-82276020D01*
X141112745Y-82014351D01*
X140176000Y-81077606D01*
X139239255Y-82014351D01*
X138761178Y-82014351D01*
X138971837Y-81803692D01*
X139059650Y-81834746D01*
X139258483Y-81635913D01*
X139268154Y-81633989D01*
X139603895Y-81409654D01*
X139828230Y-81073913D01*
X139830154Y-81064242D01*
X139996395Y-80898001D01*
X140355605Y-80898001D01*
X141292350Y-81834746D01*
X141380163Y-81803692D01*
X141818170Y-82241699D01*
X142400724Y-82483001D01*
X143031276Y-82483001D01*
X143613830Y-82241699D01*
X144059698Y-81795831D01*
X144301000Y-81213277D01*
X144301000Y-80582725D01*
X144059698Y-80000171D01*
X143613830Y-79554303D01*
X143031276Y-79313001D01*
X142400724Y-79313001D01*
X141818170Y-79554303D01*
X141380163Y-79992310D01*
X141292350Y-79961256D01*
X140355605Y-80898001D01*
X139996395Y-80898001D01*
X139982253Y-80883859D01*
X140161858Y-80704254D01*
X140176000Y-80718396D01*
X141112745Y-79781651D01*
X141020208Y-79519982D01*
X140428602Y-79301813D01*
X139798539Y-79326649D01*
X139331792Y-79519982D01*
X139289070Y-79640787D01*
X139159999Y-79615113D01*
X138919859Y-79662880D01*
X138642407Y-79662880D01*
X138533830Y-79554303D01*
X137951276Y-79313001D01*
X137320724Y-79313001D01*
X136738170Y-79554303D01*
X136629593Y-79662880D01*
X136102407Y-79662880D01*
X135993830Y-79554303D01*
X135411276Y-79313001D01*
X134780724Y-79313001D01*
X134198170Y-79554303D01*
X134089593Y-79662880D01*
X132546147Y-79662880D01*
X130757802Y-77874536D01*
X130701174Y-77789786D01*
X130365433Y-77565451D01*
X130069368Y-77506560D01*
X130069363Y-77506560D01*
X129969400Y-77486676D01*
X129869437Y-77506560D01*
X120099963Y-77506560D01*
X120000000Y-77486676D01*
X119900037Y-77506560D01*
X113007035Y-77506560D01*
X112955978Y-77455503D01*
X119700376Y-70711105D01*
X149829000Y-70711105D01*
X149829000Y-71480895D01*
X150123586Y-72192090D01*
X150667910Y-72736414D01*
X151379105Y-73031000D01*
X152148895Y-73031000D01*
X152860090Y-72736414D01*
X153404414Y-72192090D01*
X153699000Y-71480895D01*
X153699000Y-70711105D01*
X153404414Y-69999910D01*
X152860090Y-69455586D01*
X152148895Y-69161000D01*
X151379105Y-69161000D01*
X150667910Y-69455586D01*
X150123586Y-69999910D01*
X149829000Y-70711105D01*
X119700376Y-70711105D01*
X122422762Y-67988720D01*
X124716409Y-67988720D01*
X124833840Y-68106151D01*
X125214246Y-68263720D01*
X125625994Y-68263720D01*
X126006400Y-68106151D01*
X126297551Y-67815000D01*
X126455120Y-67434594D01*
X126455120Y-67022846D01*
X126297551Y-66642440D01*
X126006400Y-66351289D01*
X125625994Y-66193720D01*
X125214246Y-66193720D01*
X124833840Y-66351289D01*
X124716409Y-66468720D01*
X122182808Y-66468720D01*
X122107960Y-66453832D01*
X122033112Y-66468720D01*
X122033108Y-66468720D01*
X121811423Y-66512816D01*
X121560031Y-66680791D01*
X121517631Y-66744247D01*
X110625290Y-77636589D01*
X110561831Y-77678991D01*
X110393856Y-77930384D01*
X110349760Y-78152069D01*
X110349760Y-78152073D01*
X110334872Y-78226920D01*
X98960000Y-78226920D01*
X98960000Y-69424126D01*
X102175000Y-69424126D01*
X102175000Y-69835874D01*
X102332569Y-70216280D01*
X102623720Y-70507431D01*
X103004126Y-70665000D01*
X103415874Y-70665000D01*
X103464158Y-70645000D01*
X108660037Y-70645000D01*
X108760000Y-70664884D01*
X108859963Y-70645000D01*
X108859968Y-70645000D01*
X109156033Y-70586109D01*
X109491774Y-70361774D01*
X109548402Y-70277024D01*
X111117027Y-68708400D01*
X111201774Y-68651774D01*
X111426109Y-68316033D01*
X111485000Y-68019968D01*
X111485000Y-68019964D01*
X111504884Y-67920001D01*
X111485000Y-67820037D01*
X111485000Y-66334158D01*
X111505000Y-66285874D01*
X111505000Y-65874126D01*
X111347431Y-65493720D01*
X111056280Y-65202569D01*
X110868304Y-65124707D01*
X111191382Y-65060443D01*
X111587148Y-64796000D01*
X149816560Y-64796000D01*
X149816560Y-67396000D01*
X149865843Y-67643765D01*
X150006191Y-67853809D01*
X150216235Y-67994157D01*
X150464000Y-68043440D01*
X153064000Y-68043440D01*
X153311765Y-67994157D01*
X153521809Y-67853809D01*
X153662157Y-67643765D01*
X153711440Y-67396000D01*
X153711440Y-64796000D01*
X153662157Y-64548235D01*
X153521809Y-64338191D01*
X153311765Y-64197843D01*
X153064000Y-64148560D01*
X150464000Y-64148560D01*
X150216235Y-64197843D01*
X150006191Y-64338191D01*
X149865843Y-64548235D01*
X149816560Y-64796000D01*
X111587148Y-64796000D01*
X111616433Y-64776433D01*
X111900443Y-64351382D01*
X111975000Y-63976558D01*
X111975000Y-62123442D01*
X111900443Y-61748618D01*
X111616433Y-61323567D01*
X111191381Y-61039557D01*
X110690000Y-60939826D01*
X110188618Y-61039557D01*
X109763567Y-61323567D01*
X109479557Y-61748619D01*
X109405000Y-62123443D01*
X109405000Y-63976558D01*
X109479558Y-64351382D01*
X109763568Y-64776433D01*
X110188619Y-65060443D01*
X110214442Y-65065580D01*
X109883720Y-65202569D01*
X109592569Y-65493720D01*
X109435000Y-65874126D01*
X109435000Y-66285874D01*
X109455001Y-66334160D01*
X109455001Y-66703713D01*
X109099081Y-66411416D01*
X108617000Y-66265000D01*
X107817000Y-66265000D01*
X107817000Y-67423000D01*
X107837000Y-67423000D01*
X107837000Y-67677000D01*
X107817000Y-67677000D01*
X107817000Y-67697000D01*
X107563000Y-67697000D01*
X107563000Y-67677000D01*
X105770933Y-67677000D01*
X105646901Y-67875471D01*
X105654214Y-67924415D01*
X105891565Y-68368829D01*
X106191318Y-68615000D01*
X103464158Y-68615000D01*
X103415874Y-68595000D01*
X103004126Y-68595000D01*
X102623720Y-68752569D01*
X102332569Y-69043720D01*
X102175000Y-69424126D01*
X98960000Y-69424126D01*
X98960000Y-67224529D01*
X105646901Y-67224529D01*
X105770933Y-67423000D01*
X107563000Y-67423000D01*
X107563000Y-66265000D01*
X106763000Y-66265000D01*
X106280919Y-66411416D01*
X105891565Y-66731171D01*
X105654214Y-67175585D01*
X105646901Y-67224529D01*
X98960000Y-67224529D01*
X98960000Y-65234724D01*
X100105000Y-65234724D01*
X100105000Y-65865276D01*
X100346302Y-66447830D01*
X100792170Y-66893698D01*
X101374724Y-67135000D01*
X102005276Y-67135000D01*
X102587830Y-66893698D01*
X103033698Y-66447830D01*
X103275000Y-65865276D01*
X103275000Y-65234724D01*
X103033698Y-64652170D01*
X102587830Y-64206302D01*
X102005276Y-63965000D01*
X101374724Y-63965000D01*
X100792170Y-64206302D01*
X100346302Y-64652170D01*
X100105000Y-65234724D01*
X98960000Y-65234724D01*
X98960000Y-63177000D01*
X103405000Y-63177000D01*
X103405000Y-63977000D01*
X103551416Y-64459081D01*
X103871171Y-64848435D01*
X104315585Y-65085786D01*
X104364529Y-65093099D01*
X104563000Y-64969067D01*
X104563000Y-63177000D01*
X104817000Y-63177000D01*
X104817000Y-64969067D01*
X105015471Y-65093099D01*
X105064415Y-65085786D01*
X105508829Y-64848435D01*
X105828584Y-64459081D01*
X105975000Y-63977000D01*
X105975000Y-63177000D01*
X104817000Y-63177000D01*
X104563000Y-63177000D01*
X103405000Y-63177000D01*
X98960000Y-63177000D01*
X98960000Y-60234724D01*
X100105000Y-60234724D01*
X100105000Y-60865276D01*
X100346302Y-61447830D01*
X100792170Y-61893698D01*
X101374724Y-62135000D01*
X102005276Y-62135000D01*
X102034246Y-62123000D01*
X103405000Y-62123000D01*
X103405000Y-62923000D01*
X104563000Y-62923000D01*
X104563000Y-61130933D01*
X104817000Y-61130933D01*
X104817000Y-62923000D01*
X105975000Y-62923000D01*
X105975000Y-62123000D01*
X105828584Y-61640919D01*
X105508829Y-61251565D01*
X105064415Y-61014214D01*
X105015471Y-61006901D01*
X104817000Y-61130933D01*
X104563000Y-61130933D01*
X104364529Y-61006901D01*
X104315585Y-61014214D01*
X103871171Y-61251565D01*
X103551416Y-61640919D01*
X103405000Y-62123000D01*
X102034246Y-62123000D01*
X102587830Y-61893698D01*
X103033698Y-61447830D01*
X103275000Y-60865276D01*
X103275000Y-60234724D01*
X103033698Y-59652170D01*
X102587830Y-59206302D01*
X102005276Y-58965000D01*
X101374724Y-58965000D01*
X100792170Y-59206302D01*
X100346302Y-59652170D01*
X100105000Y-60234724D01*
X98960000Y-60234724D01*
X98960000Y-53092350D01*
X108673255Y-53092350D01*
X108765792Y-53354019D01*
X109357398Y-53572188D01*
X109987461Y-53547352D01*
X110454208Y-53354019D01*
X110546745Y-53092350D01*
X109610000Y-52155605D01*
X108673255Y-53092350D01*
X98960000Y-53092350D01*
X98960000Y-49555431D01*
X99765000Y-49555431D01*
X99765000Y-50444569D01*
X100105259Y-51266026D01*
X100733974Y-51894741D01*
X101555431Y-52235000D01*
X102444569Y-52235000D01*
X103266026Y-51894741D01*
X103437369Y-51723398D01*
X108013812Y-51723398D01*
X108038648Y-52353461D01*
X108231981Y-52820208D01*
X108493650Y-52912745D01*
X109430395Y-51976000D01*
X109789605Y-51976000D01*
X110726350Y-52912745D01*
X110988019Y-52820208D01*
X111206188Y-52228602D01*
X111183804Y-51660724D01*
X119525000Y-51660724D01*
X119525000Y-52291276D01*
X119766302Y-52873830D01*
X120212170Y-53319698D01*
X120794724Y-53561000D01*
X121425276Y-53561000D01*
X122007830Y-53319698D01*
X122453698Y-52873830D01*
X122695000Y-52291276D01*
X122695000Y-51710724D01*
X129755000Y-51710724D01*
X129755000Y-52341276D01*
X129996302Y-52923830D01*
X130442170Y-53369698D01*
X131024724Y-53611000D01*
X131655276Y-53611000D01*
X132237830Y-53369698D01*
X132683698Y-52923830D01*
X132925000Y-52341276D01*
X132925000Y-51710724D01*
X141255000Y-51710724D01*
X141255000Y-52341276D01*
X141496302Y-52923830D01*
X141942170Y-53369698D01*
X142524724Y-53611000D01*
X143155276Y-53611000D01*
X143737830Y-53369698D01*
X144183698Y-52923830D01*
X144425000Y-52341276D01*
X144425000Y-51710724D01*
X144183698Y-51128170D01*
X143737830Y-50682302D01*
X143155276Y-50441000D01*
X142524724Y-50441000D01*
X141942170Y-50682302D01*
X141496302Y-51128170D01*
X141255000Y-51710724D01*
X132925000Y-51710724D01*
X132683698Y-51128170D01*
X132237830Y-50682302D01*
X131655276Y-50441000D01*
X131024724Y-50441000D01*
X130442170Y-50682302D01*
X129996302Y-51128170D01*
X129755000Y-51710724D01*
X122695000Y-51710724D01*
X122695000Y-51660724D01*
X122453698Y-51078170D01*
X122007830Y-50632302D01*
X121425276Y-50391000D01*
X120794724Y-50391000D01*
X120212170Y-50632302D01*
X119766302Y-51078170D01*
X119525000Y-51660724D01*
X111183804Y-51660724D01*
X111181352Y-51598539D01*
X110988019Y-51131792D01*
X110726350Y-51039255D01*
X109789605Y-51976000D01*
X109430395Y-51976000D01*
X108493650Y-51039255D01*
X108231981Y-51131792D01*
X108013812Y-51723398D01*
X103437369Y-51723398D01*
X103894741Y-51266026D01*
X104063067Y-50859650D01*
X108673255Y-50859650D01*
X109610000Y-51796395D01*
X110546745Y-50859650D01*
X110454208Y-50597981D01*
X109862602Y-50379812D01*
X109232539Y-50404648D01*
X108765792Y-50597981D01*
X108673255Y-50859650D01*
X104063067Y-50859650D01*
X104235000Y-50444569D01*
X104235000Y-49555431D01*
X149765000Y-49555431D01*
X149765000Y-50444569D01*
X150105259Y-51266026D01*
X150733974Y-51894741D01*
X151555431Y-52235000D01*
X152444569Y-52235000D01*
X153266026Y-51894741D01*
X153894741Y-51266026D01*
X154235000Y-50444569D01*
X154235000Y-49555431D01*
X153894741Y-48733974D01*
X153266026Y-48105259D01*
X152444569Y-47765000D01*
X151555431Y-47765000D01*
X150733974Y-48105259D01*
X150105259Y-48733974D01*
X149765000Y-49555431D01*
X104235000Y-49555431D01*
X103894741Y-48733974D01*
X103266026Y-48105259D01*
X102444569Y-47765000D01*
X101555431Y-47765000D01*
X100733974Y-48105259D01*
X100105259Y-48733974D01*
X99765000Y-49555431D01*
X98960000Y-49555431D01*
X98960000Y-49250654D01*
X99015811Y-48612725D01*
X99194482Y-48042586D01*
X99491411Y-47524119D01*
X99892751Y-47081503D01*
X100379771Y-46735395D01*
X100929753Y-46501942D01*
X101539863Y-46387763D01*
X101741933Y-46380000D01*
X153024252Y-46380000D01*
X153649691Y-46447945D01*
G36*
X113279921Y-81102847D02*
X113279920Y-83696500D01*
X112753711Y-83696500D01*
X112636280Y-83579069D01*
X112255874Y-83421500D01*
X111869760Y-83421500D01*
X111869760Y-79856560D01*
X112033634Y-79856560D01*
X113279921Y-81102847D01*
X113279921Y-81102847D01*
G37*
X113279921Y-81102847D02*
X113279920Y-83696500D01*
X112753711Y-83696500D01*
X112636280Y-83579069D01*
X112255874Y-83421500D01*
X111869760Y-83421500D01*
X111869760Y-79856560D01*
X112033634Y-79856560D01*
X113279921Y-81102847D01*
G04 #@! TD*
M02*
