G04 #@! TF.GenerationSoftware,KiCad,Pcbnew,5.0.1*
G04 #@! TF.CreationDate,2019-03-15T13:32:49+13:00*
G04 #@! TF.ProjectId,_autosave-baseBoard,5F6175746F736176652D62617365426F,rev?*
G04 #@! TF.SameCoordinates,Original*
G04 #@! TF.FileFunction,Paste,Top*
G04 #@! TF.FilePolarity,Positive*
%FSLAX46Y46*%
G04 Gerber Fmt 4.6, Leading zero omitted, Abs format (unit mm)*
G04 Created by KiCad (PCBNEW 5.0.1) date Fri 15 Mar 2019 01:32:49 PM NZDT*
%MOMM*%
%LPD*%
G01*
G04 APERTURE LIST*
%ADD10C,0.100000*%
%ADD11C,0.590000*%
%ADD12C,0.875000*%
%ADD13R,0.650000X1.060000*%
%ADD14R,2.000000X0.500000*%
%ADD15R,1.700000X2.000000*%
%ADD16R,0.900000X0.800000*%
%ADD17C,0.318000*%
%ADD18R,1.400000X2.200000*%
%ADD19R,2.200000X1.400000*%
%ADD20C,1.050000*%
%ADD21C,0.250000*%
%ADD22R,1.400000X1.150000*%
G04 APERTURE END LIST*
D10*
G04 #@! TO.C,FB1*
G36*
X124871958Y-88430710D02*
X124886276Y-88432834D01*
X124900317Y-88436351D01*
X124913946Y-88441228D01*
X124927031Y-88447417D01*
X124939447Y-88454858D01*
X124951073Y-88463481D01*
X124961798Y-88473202D01*
X124971519Y-88483927D01*
X124980142Y-88495553D01*
X124987583Y-88507969D01*
X124993772Y-88521054D01*
X124998649Y-88534683D01*
X125002166Y-88548724D01*
X125004290Y-88563042D01*
X125005000Y-88577500D01*
X125005000Y-88922500D01*
X125004290Y-88936958D01*
X125002166Y-88951276D01*
X124998649Y-88965317D01*
X124993772Y-88978946D01*
X124987583Y-88992031D01*
X124980142Y-89004447D01*
X124971519Y-89016073D01*
X124961798Y-89026798D01*
X124951073Y-89036519D01*
X124939447Y-89045142D01*
X124927031Y-89052583D01*
X124913946Y-89058772D01*
X124900317Y-89063649D01*
X124886276Y-89067166D01*
X124871958Y-89069290D01*
X124857500Y-89070000D01*
X124562500Y-89070000D01*
X124548042Y-89069290D01*
X124533724Y-89067166D01*
X124519683Y-89063649D01*
X124506054Y-89058772D01*
X124492969Y-89052583D01*
X124480553Y-89045142D01*
X124468927Y-89036519D01*
X124458202Y-89026798D01*
X124448481Y-89016073D01*
X124439858Y-89004447D01*
X124432417Y-88992031D01*
X124426228Y-88978946D01*
X124421351Y-88965317D01*
X124417834Y-88951276D01*
X124415710Y-88936958D01*
X124415000Y-88922500D01*
X124415000Y-88577500D01*
X124415710Y-88563042D01*
X124417834Y-88548724D01*
X124421351Y-88534683D01*
X124426228Y-88521054D01*
X124432417Y-88507969D01*
X124439858Y-88495553D01*
X124448481Y-88483927D01*
X124458202Y-88473202D01*
X124468927Y-88463481D01*
X124480553Y-88454858D01*
X124492969Y-88447417D01*
X124506054Y-88441228D01*
X124519683Y-88436351D01*
X124533724Y-88432834D01*
X124548042Y-88430710D01*
X124562500Y-88430000D01*
X124857500Y-88430000D01*
X124871958Y-88430710D01*
X124871958Y-88430710D01*
G37*
D11*
X124710000Y-88750000D03*
D10*
G36*
X123901958Y-88430710D02*
X123916276Y-88432834D01*
X123930317Y-88436351D01*
X123943946Y-88441228D01*
X123957031Y-88447417D01*
X123969447Y-88454858D01*
X123981073Y-88463481D01*
X123991798Y-88473202D01*
X124001519Y-88483927D01*
X124010142Y-88495553D01*
X124017583Y-88507969D01*
X124023772Y-88521054D01*
X124028649Y-88534683D01*
X124032166Y-88548724D01*
X124034290Y-88563042D01*
X124035000Y-88577500D01*
X124035000Y-88922500D01*
X124034290Y-88936958D01*
X124032166Y-88951276D01*
X124028649Y-88965317D01*
X124023772Y-88978946D01*
X124017583Y-88992031D01*
X124010142Y-89004447D01*
X124001519Y-89016073D01*
X123991798Y-89026798D01*
X123981073Y-89036519D01*
X123969447Y-89045142D01*
X123957031Y-89052583D01*
X123943946Y-89058772D01*
X123930317Y-89063649D01*
X123916276Y-89067166D01*
X123901958Y-89069290D01*
X123887500Y-89070000D01*
X123592500Y-89070000D01*
X123578042Y-89069290D01*
X123563724Y-89067166D01*
X123549683Y-89063649D01*
X123536054Y-89058772D01*
X123522969Y-89052583D01*
X123510553Y-89045142D01*
X123498927Y-89036519D01*
X123488202Y-89026798D01*
X123478481Y-89016073D01*
X123469858Y-89004447D01*
X123462417Y-88992031D01*
X123456228Y-88978946D01*
X123451351Y-88965317D01*
X123447834Y-88951276D01*
X123445710Y-88936958D01*
X123445000Y-88922500D01*
X123445000Y-88577500D01*
X123445710Y-88563042D01*
X123447834Y-88548724D01*
X123451351Y-88534683D01*
X123456228Y-88521054D01*
X123462417Y-88507969D01*
X123469858Y-88495553D01*
X123478481Y-88483927D01*
X123488202Y-88473202D01*
X123498927Y-88463481D01*
X123510553Y-88454858D01*
X123522969Y-88447417D01*
X123536054Y-88441228D01*
X123549683Y-88436351D01*
X123563724Y-88432834D01*
X123578042Y-88430710D01*
X123592500Y-88430000D01*
X123887500Y-88430000D01*
X123901958Y-88430710D01*
X123901958Y-88430710D01*
G37*
D11*
X123740000Y-88750000D03*
G04 #@! TD*
D10*
G04 #@! TO.C,C9*
G36*
X107613011Y-76693093D02*
X107634246Y-76696243D01*
X107655070Y-76701459D01*
X107675282Y-76708691D01*
X107694688Y-76717870D01*
X107713101Y-76728906D01*
X107730344Y-76741694D01*
X107746250Y-76756110D01*
X107760666Y-76772016D01*
X107773454Y-76789259D01*
X107784490Y-76807672D01*
X107793669Y-76827078D01*
X107800901Y-76847290D01*
X107806117Y-76868114D01*
X107809267Y-76889349D01*
X107810320Y-76910790D01*
X107810320Y-77348290D01*
X107809267Y-77369731D01*
X107806117Y-77390966D01*
X107800901Y-77411790D01*
X107793669Y-77432002D01*
X107784490Y-77451408D01*
X107773454Y-77469821D01*
X107760666Y-77487064D01*
X107746250Y-77502970D01*
X107730344Y-77517386D01*
X107713101Y-77530174D01*
X107694688Y-77541210D01*
X107675282Y-77550389D01*
X107655070Y-77557621D01*
X107634246Y-77562837D01*
X107613011Y-77565987D01*
X107591570Y-77567040D01*
X107079070Y-77567040D01*
X107057629Y-77565987D01*
X107036394Y-77562837D01*
X107015570Y-77557621D01*
X106995358Y-77550389D01*
X106975952Y-77541210D01*
X106957539Y-77530174D01*
X106940296Y-77517386D01*
X106924390Y-77502970D01*
X106909974Y-77487064D01*
X106897186Y-77469821D01*
X106886150Y-77451408D01*
X106876971Y-77432002D01*
X106869739Y-77411790D01*
X106864523Y-77390966D01*
X106861373Y-77369731D01*
X106860320Y-77348290D01*
X106860320Y-76910790D01*
X106861373Y-76889349D01*
X106864523Y-76868114D01*
X106869739Y-76847290D01*
X106876971Y-76827078D01*
X106886150Y-76807672D01*
X106897186Y-76789259D01*
X106909974Y-76772016D01*
X106924390Y-76756110D01*
X106940296Y-76741694D01*
X106957539Y-76728906D01*
X106975952Y-76717870D01*
X106995358Y-76708691D01*
X107015570Y-76701459D01*
X107036394Y-76696243D01*
X107057629Y-76693093D01*
X107079070Y-76692040D01*
X107591570Y-76692040D01*
X107613011Y-76693093D01*
X107613011Y-76693093D01*
G37*
D12*
X107335320Y-77129540D03*
D10*
G36*
X107613011Y-78268093D02*
X107634246Y-78271243D01*
X107655070Y-78276459D01*
X107675282Y-78283691D01*
X107694688Y-78292870D01*
X107713101Y-78303906D01*
X107730344Y-78316694D01*
X107746250Y-78331110D01*
X107760666Y-78347016D01*
X107773454Y-78364259D01*
X107784490Y-78382672D01*
X107793669Y-78402078D01*
X107800901Y-78422290D01*
X107806117Y-78443114D01*
X107809267Y-78464349D01*
X107810320Y-78485790D01*
X107810320Y-78923290D01*
X107809267Y-78944731D01*
X107806117Y-78965966D01*
X107800901Y-78986790D01*
X107793669Y-79007002D01*
X107784490Y-79026408D01*
X107773454Y-79044821D01*
X107760666Y-79062064D01*
X107746250Y-79077970D01*
X107730344Y-79092386D01*
X107713101Y-79105174D01*
X107694688Y-79116210D01*
X107675282Y-79125389D01*
X107655070Y-79132621D01*
X107634246Y-79137837D01*
X107613011Y-79140987D01*
X107591570Y-79142040D01*
X107079070Y-79142040D01*
X107057629Y-79140987D01*
X107036394Y-79137837D01*
X107015570Y-79132621D01*
X106995358Y-79125389D01*
X106975952Y-79116210D01*
X106957539Y-79105174D01*
X106940296Y-79092386D01*
X106924390Y-79077970D01*
X106909974Y-79062064D01*
X106897186Y-79044821D01*
X106886150Y-79026408D01*
X106876971Y-79007002D01*
X106869739Y-78986790D01*
X106864523Y-78965966D01*
X106861373Y-78944731D01*
X106860320Y-78923290D01*
X106860320Y-78485790D01*
X106861373Y-78464349D01*
X106864523Y-78443114D01*
X106869739Y-78422290D01*
X106876971Y-78402078D01*
X106886150Y-78382672D01*
X106897186Y-78364259D01*
X106909974Y-78347016D01*
X106924390Y-78331110D01*
X106940296Y-78316694D01*
X106957539Y-78303906D01*
X106975952Y-78292870D01*
X106995358Y-78283691D01*
X107015570Y-78276459D01*
X107036394Y-78271243D01*
X107057629Y-78268093D01*
X107079070Y-78267040D01*
X107591570Y-78267040D01*
X107613011Y-78268093D01*
X107613011Y-78268093D01*
G37*
D12*
X107335320Y-78704540D03*
G04 #@! TD*
D13*
G04 #@! TO.C,REG5V*
X105360000Y-71760000D03*
X104410000Y-71760000D03*
X103460000Y-71760000D03*
X103460000Y-73960000D03*
X105360000Y-73960000D03*
G04 #@! TD*
D10*
G04 #@! TO.C,C0*
G36*
X100152691Y-69226053D02*
X100173926Y-69229203D01*
X100194750Y-69234419D01*
X100214962Y-69241651D01*
X100234368Y-69250830D01*
X100252781Y-69261866D01*
X100270024Y-69274654D01*
X100285930Y-69289070D01*
X100300346Y-69304976D01*
X100313134Y-69322219D01*
X100324170Y-69340632D01*
X100333349Y-69360038D01*
X100340581Y-69380250D01*
X100345797Y-69401074D01*
X100348947Y-69422309D01*
X100350000Y-69443750D01*
X100350000Y-69956250D01*
X100348947Y-69977691D01*
X100345797Y-69998926D01*
X100340581Y-70019750D01*
X100333349Y-70039962D01*
X100324170Y-70059368D01*
X100313134Y-70077781D01*
X100300346Y-70095024D01*
X100285930Y-70110930D01*
X100270024Y-70125346D01*
X100252781Y-70138134D01*
X100234368Y-70149170D01*
X100214962Y-70158349D01*
X100194750Y-70165581D01*
X100173926Y-70170797D01*
X100152691Y-70173947D01*
X100131250Y-70175000D01*
X99693750Y-70175000D01*
X99672309Y-70173947D01*
X99651074Y-70170797D01*
X99630250Y-70165581D01*
X99610038Y-70158349D01*
X99590632Y-70149170D01*
X99572219Y-70138134D01*
X99554976Y-70125346D01*
X99539070Y-70110930D01*
X99524654Y-70095024D01*
X99511866Y-70077781D01*
X99500830Y-70059368D01*
X99491651Y-70039962D01*
X99484419Y-70019750D01*
X99479203Y-69998926D01*
X99476053Y-69977691D01*
X99475000Y-69956250D01*
X99475000Y-69443750D01*
X99476053Y-69422309D01*
X99479203Y-69401074D01*
X99484419Y-69380250D01*
X99491651Y-69360038D01*
X99500830Y-69340632D01*
X99511866Y-69322219D01*
X99524654Y-69304976D01*
X99539070Y-69289070D01*
X99554976Y-69274654D01*
X99572219Y-69261866D01*
X99590632Y-69250830D01*
X99610038Y-69241651D01*
X99630250Y-69234419D01*
X99651074Y-69229203D01*
X99672309Y-69226053D01*
X99693750Y-69225000D01*
X100131250Y-69225000D01*
X100152691Y-69226053D01*
X100152691Y-69226053D01*
G37*
D12*
X99912500Y-69700000D03*
D10*
G36*
X101727691Y-69226053D02*
X101748926Y-69229203D01*
X101769750Y-69234419D01*
X101789962Y-69241651D01*
X101809368Y-69250830D01*
X101827781Y-69261866D01*
X101845024Y-69274654D01*
X101860930Y-69289070D01*
X101875346Y-69304976D01*
X101888134Y-69322219D01*
X101899170Y-69340632D01*
X101908349Y-69360038D01*
X101915581Y-69380250D01*
X101920797Y-69401074D01*
X101923947Y-69422309D01*
X101925000Y-69443750D01*
X101925000Y-69956250D01*
X101923947Y-69977691D01*
X101920797Y-69998926D01*
X101915581Y-70019750D01*
X101908349Y-70039962D01*
X101899170Y-70059368D01*
X101888134Y-70077781D01*
X101875346Y-70095024D01*
X101860930Y-70110930D01*
X101845024Y-70125346D01*
X101827781Y-70138134D01*
X101809368Y-70149170D01*
X101789962Y-70158349D01*
X101769750Y-70165581D01*
X101748926Y-70170797D01*
X101727691Y-70173947D01*
X101706250Y-70175000D01*
X101268750Y-70175000D01*
X101247309Y-70173947D01*
X101226074Y-70170797D01*
X101205250Y-70165581D01*
X101185038Y-70158349D01*
X101165632Y-70149170D01*
X101147219Y-70138134D01*
X101129976Y-70125346D01*
X101114070Y-70110930D01*
X101099654Y-70095024D01*
X101086866Y-70077781D01*
X101075830Y-70059368D01*
X101066651Y-70039962D01*
X101059419Y-70019750D01*
X101054203Y-69998926D01*
X101051053Y-69977691D01*
X101050000Y-69956250D01*
X101050000Y-69443750D01*
X101051053Y-69422309D01*
X101054203Y-69401074D01*
X101059419Y-69380250D01*
X101066651Y-69360038D01*
X101075830Y-69340632D01*
X101086866Y-69322219D01*
X101099654Y-69304976D01*
X101114070Y-69289070D01*
X101129976Y-69274654D01*
X101147219Y-69261866D01*
X101165632Y-69250830D01*
X101185038Y-69241651D01*
X101205250Y-69234419D01*
X101226074Y-69229203D01*
X101247309Y-69226053D01*
X101268750Y-69225000D01*
X101706250Y-69225000D01*
X101727691Y-69226053D01*
X101727691Y-69226053D01*
G37*
D12*
X101487500Y-69700000D03*
G04 #@! TD*
D10*
G04 #@! TO.C,C1*
G36*
X100197691Y-73281053D02*
X100218926Y-73284203D01*
X100239750Y-73289419D01*
X100259962Y-73296651D01*
X100279368Y-73305830D01*
X100297781Y-73316866D01*
X100315024Y-73329654D01*
X100330930Y-73344070D01*
X100345346Y-73359976D01*
X100358134Y-73377219D01*
X100369170Y-73395632D01*
X100378349Y-73415038D01*
X100385581Y-73435250D01*
X100390797Y-73456074D01*
X100393947Y-73477309D01*
X100395000Y-73498750D01*
X100395000Y-73936250D01*
X100393947Y-73957691D01*
X100390797Y-73978926D01*
X100385581Y-73999750D01*
X100378349Y-74019962D01*
X100369170Y-74039368D01*
X100358134Y-74057781D01*
X100345346Y-74075024D01*
X100330930Y-74090930D01*
X100315024Y-74105346D01*
X100297781Y-74118134D01*
X100279368Y-74129170D01*
X100259962Y-74138349D01*
X100239750Y-74145581D01*
X100218926Y-74150797D01*
X100197691Y-74153947D01*
X100176250Y-74155000D01*
X99663750Y-74155000D01*
X99642309Y-74153947D01*
X99621074Y-74150797D01*
X99600250Y-74145581D01*
X99580038Y-74138349D01*
X99560632Y-74129170D01*
X99542219Y-74118134D01*
X99524976Y-74105346D01*
X99509070Y-74090930D01*
X99494654Y-74075024D01*
X99481866Y-74057781D01*
X99470830Y-74039368D01*
X99461651Y-74019962D01*
X99454419Y-73999750D01*
X99449203Y-73978926D01*
X99446053Y-73957691D01*
X99445000Y-73936250D01*
X99445000Y-73498750D01*
X99446053Y-73477309D01*
X99449203Y-73456074D01*
X99454419Y-73435250D01*
X99461651Y-73415038D01*
X99470830Y-73395632D01*
X99481866Y-73377219D01*
X99494654Y-73359976D01*
X99509070Y-73344070D01*
X99524976Y-73329654D01*
X99542219Y-73316866D01*
X99560632Y-73305830D01*
X99580038Y-73296651D01*
X99600250Y-73289419D01*
X99621074Y-73284203D01*
X99642309Y-73281053D01*
X99663750Y-73280000D01*
X100176250Y-73280000D01*
X100197691Y-73281053D01*
X100197691Y-73281053D01*
G37*
D12*
X99920000Y-73717500D03*
D10*
G36*
X100197691Y-71706053D02*
X100218926Y-71709203D01*
X100239750Y-71714419D01*
X100259962Y-71721651D01*
X100279368Y-71730830D01*
X100297781Y-71741866D01*
X100315024Y-71754654D01*
X100330930Y-71769070D01*
X100345346Y-71784976D01*
X100358134Y-71802219D01*
X100369170Y-71820632D01*
X100378349Y-71840038D01*
X100385581Y-71860250D01*
X100390797Y-71881074D01*
X100393947Y-71902309D01*
X100395000Y-71923750D01*
X100395000Y-72361250D01*
X100393947Y-72382691D01*
X100390797Y-72403926D01*
X100385581Y-72424750D01*
X100378349Y-72444962D01*
X100369170Y-72464368D01*
X100358134Y-72482781D01*
X100345346Y-72500024D01*
X100330930Y-72515930D01*
X100315024Y-72530346D01*
X100297781Y-72543134D01*
X100279368Y-72554170D01*
X100259962Y-72563349D01*
X100239750Y-72570581D01*
X100218926Y-72575797D01*
X100197691Y-72578947D01*
X100176250Y-72580000D01*
X99663750Y-72580000D01*
X99642309Y-72578947D01*
X99621074Y-72575797D01*
X99600250Y-72570581D01*
X99580038Y-72563349D01*
X99560632Y-72554170D01*
X99542219Y-72543134D01*
X99524976Y-72530346D01*
X99509070Y-72515930D01*
X99494654Y-72500024D01*
X99481866Y-72482781D01*
X99470830Y-72464368D01*
X99461651Y-72444962D01*
X99454419Y-72424750D01*
X99449203Y-72403926D01*
X99446053Y-72382691D01*
X99445000Y-72361250D01*
X99445000Y-71923750D01*
X99446053Y-71902309D01*
X99449203Y-71881074D01*
X99454419Y-71860250D01*
X99461651Y-71840038D01*
X99470830Y-71820632D01*
X99481866Y-71802219D01*
X99494654Y-71784976D01*
X99509070Y-71769070D01*
X99524976Y-71754654D01*
X99542219Y-71741866D01*
X99560632Y-71730830D01*
X99580038Y-71721651D01*
X99600250Y-71714419D01*
X99621074Y-71709203D01*
X99642309Y-71706053D01*
X99663750Y-71705000D01*
X100176250Y-71705000D01*
X100197691Y-71706053D01*
X100197691Y-71706053D01*
G37*
D12*
X99920000Y-72142500D03*
G04 #@! TD*
D10*
G04 #@! TO.C,C2*
G36*
X105637691Y-76666053D02*
X105658926Y-76669203D01*
X105679750Y-76674419D01*
X105699962Y-76681651D01*
X105719368Y-76690830D01*
X105737781Y-76701866D01*
X105755024Y-76714654D01*
X105770930Y-76729070D01*
X105785346Y-76744976D01*
X105798134Y-76762219D01*
X105809170Y-76780632D01*
X105818349Y-76800038D01*
X105825581Y-76820250D01*
X105830797Y-76841074D01*
X105833947Y-76862309D01*
X105835000Y-76883750D01*
X105835000Y-77321250D01*
X105833947Y-77342691D01*
X105830797Y-77363926D01*
X105825581Y-77384750D01*
X105818349Y-77404962D01*
X105809170Y-77424368D01*
X105798134Y-77442781D01*
X105785346Y-77460024D01*
X105770930Y-77475930D01*
X105755024Y-77490346D01*
X105737781Y-77503134D01*
X105719368Y-77514170D01*
X105699962Y-77523349D01*
X105679750Y-77530581D01*
X105658926Y-77535797D01*
X105637691Y-77538947D01*
X105616250Y-77540000D01*
X105103750Y-77540000D01*
X105082309Y-77538947D01*
X105061074Y-77535797D01*
X105040250Y-77530581D01*
X105020038Y-77523349D01*
X105000632Y-77514170D01*
X104982219Y-77503134D01*
X104964976Y-77490346D01*
X104949070Y-77475930D01*
X104934654Y-77460024D01*
X104921866Y-77442781D01*
X104910830Y-77424368D01*
X104901651Y-77404962D01*
X104894419Y-77384750D01*
X104889203Y-77363926D01*
X104886053Y-77342691D01*
X104885000Y-77321250D01*
X104885000Y-76883750D01*
X104886053Y-76862309D01*
X104889203Y-76841074D01*
X104894419Y-76820250D01*
X104901651Y-76800038D01*
X104910830Y-76780632D01*
X104921866Y-76762219D01*
X104934654Y-76744976D01*
X104949070Y-76729070D01*
X104964976Y-76714654D01*
X104982219Y-76701866D01*
X105000632Y-76690830D01*
X105020038Y-76681651D01*
X105040250Y-76674419D01*
X105061074Y-76669203D01*
X105082309Y-76666053D01*
X105103750Y-76665000D01*
X105616250Y-76665000D01*
X105637691Y-76666053D01*
X105637691Y-76666053D01*
G37*
D12*
X105360000Y-77102500D03*
D10*
G36*
X105637691Y-78241053D02*
X105658926Y-78244203D01*
X105679750Y-78249419D01*
X105699962Y-78256651D01*
X105719368Y-78265830D01*
X105737781Y-78276866D01*
X105755024Y-78289654D01*
X105770930Y-78304070D01*
X105785346Y-78319976D01*
X105798134Y-78337219D01*
X105809170Y-78355632D01*
X105818349Y-78375038D01*
X105825581Y-78395250D01*
X105830797Y-78416074D01*
X105833947Y-78437309D01*
X105835000Y-78458750D01*
X105835000Y-78896250D01*
X105833947Y-78917691D01*
X105830797Y-78938926D01*
X105825581Y-78959750D01*
X105818349Y-78979962D01*
X105809170Y-78999368D01*
X105798134Y-79017781D01*
X105785346Y-79035024D01*
X105770930Y-79050930D01*
X105755024Y-79065346D01*
X105737781Y-79078134D01*
X105719368Y-79089170D01*
X105699962Y-79098349D01*
X105679750Y-79105581D01*
X105658926Y-79110797D01*
X105637691Y-79113947D01*
X105616250Y-79115000D01*
X105103750Y-79115000D01*
X105082309Y-79113947D01*
X105061074Y-79110797D01*
X105040250Y-79105581D01*
X105020038Y-79098349D01*
X105000632Y-79089170D01*
X104982219Y-79078134D01*
X104964976Y-79065346D01*
X104949070Y-79050930D01*
X104934654Y-79035024D01*
X104921866Y-79017781D01*
X104910830Y-78999368D01*
X104901651Y-78979962D01*
X104894419Y-78959750D01*
X104889203Y-78938926D01*
X104886053Y-78917691D01*
X104885000Y-78896250D01*
X104885000Y-78458750D01*
X104886053Y-78437309D01*
X104889203Y-78416074D01*
X104894419Y-78395250D01*
X104901651Y-78375038D01*
X104910830Y-78355632D01*
X104921866Y-78337219D01*
X104934654Y-78319976D01*
X104949070Y-78304070D01*
X104964976Y-78289654D01*
X104982219Y-78276866D01*
X105000632Y-78265830D01*
X105020038Y-78256651D01*
X105040250Y-78249419D01*
X105061074Y-78244203D01*
X105082309Y-78241053D01*
X105103750Y-78240000D01*
X105616250Y-78240000D01*
X105637691Y-78241053D01*
X105637691Y-78241053D01*
G37*
D12*
X105360000Y-78677500D03*
G04 #@! TD*
D10*
G04 #@! TO.C,C3*
G36*
X111057691Y-89556053D02*
X111078926Y-89559203D01*
X111099750Y-89564419D01*
X111119962Y-89571651D01*
X111139368Y-89580830D01*
X111157781Y-89591866D01*
X111175024Y-89604654D01*
X111190930Y-89619070D01*
X111205346Y-89634976D01*
X111218134Y-89652219D01*
X111229170Y-89670632D01*
X111238349Y-89690038D01*
X111245581Y-89710250D01*
X111250797Y-89731074D01*
X111253947Y-89752309D01*
X111255000Y-89773750D01*
X111255000Y-90286250D01*
X111253947Y-90307691D01*
X111250797Y-90328926D01*
X111245581Y-90349750D01*
X111238349Y-90369962D01*
X111229170Y-90389368D01*
X111218134Y-90407781D01*
X111205346Y-90425024D01*
X111190930Y-90440930D01*
X111175024Y-90455346D01*
X111157781Y-90468134D01*
X111139368Y-90479170D01*
X111119962Y-90488349D01*
X111099750Y-90495581D01*
X111078926Y-90500797D01*
X111057691Y-90503947D01*
X111036250Y-90505000D01*
X110598750Y-90505000D01*
X110577309Y-90503947D01*
X110556074Y-90500797D01*
X110535250Y-90495581D01*
X110515038Y-90488349D01*
X110495632Y-90479170D01*
X110477219Y-90468134D01*
X110459976Y-90455346D01*
X110444070Y-90440930D01*
X110429654Y-90425024D01*
X110416866Y-90407781D01*
X110405830Y-90389368D01*
X110396651Y-90369962D01*
X110389419Y-90349750D01*
X110384203Y-90328926D01*
X110381053Y-90307691D01*
X110380000Y-90286250D01*
X110380000Y-89773750D01*
X110381053Y-89752309D01*
X110384203Y-89731074D01*
X110389419Y-89710250D01*
X110396651Y-89690038D01*
X110405830Y-89670632D01*
X110416866Y-89652219D01*
X110429654Y-89634976D01*
X110444070Y-89619070D01*
X110459976Y-89604654D01*
X110477219Y-89591866D01*
X110495632Y-89580830D01*
X110515038Y-89571651D01*
X110535250Y-89564419D01*
X110556074Y-89559203D01*
X110577309Y-89556053D01*
X110598750Y-89555000D01*
X111036250Y-89555000D01*
X111057691Y-89556053D01*
X111057691Y-89556053D01*
G37*
D12*
X110817500Y-90030000D03*
D10*
G36*
X109482691Y-89556053D02*
X109503926Y-89559203D01*
X109524750Y-89564419D01*
X109544962Y-89571651D01*
X109564368Y-89580830D01*
X109582781Y-89591866D01*
X109600024Y-89604654D01*
X109615930Y-89619070D01*
X109630346Y-89634976D01*
X109643134Y-89652219D01*
X109654170Y-89670632D01*
X109663349Y-89690038D01*
X109670581Y-89710250D01*
X109675797Y-89731074D01*
X109678947Y-89752309D01*
X109680000Y-89773750D01*
X109680000Y-90286250D01*
X109678947Y-90307691D01*
X109675797Y-90328926D01*
X109670581Y-90349750D01*
X109663349Y-90369962D01*
X109654170Y-90389368D01*
X109643134Y-90407781D01*
X109630346Y-90425024D01*
X109615930Y-90440930D01*
X109600024Y-90455346D01*
X109582781Y-90468134D01*
X109564368Y-90479170D01*
X109544962Y-90488349D01*
X109524750Y-90495581D01*
X109503926Y-90500797D01*
X109482691Y-90503947D01*
X109461250Y-90505000D01*
X109023750Y-90505000D01*
X109002309Y-90503947D01*
X108981074Y-90500797D01*
X108960250Y-90495581D01*
X108940038Y-90488349D01*
X108920632Y-90479170D01*
X108902219Y-90468134D01*
X108884976Y-90455346D01*
X108869070Y-90440930D01*
X108854654Y-90425024D01*
X108841866Y-90407781D01*
X108830830Y-90389368D01*
X108821651Y-90369962D01*
X108814419Y-90349750D01*
X108809203Y-90328926D01*
X108806053Y-90307691D01*
X108805000Y-90286250D01*
X108805000Y-89773750D01*
X108806053Y-89752309D01*
X108809203Y-89731074D01*
X108814419Y-89710250D01*
X108821651Y-89690038D01*
X108830830Y-89670632D01*
X108841866Y-89652219D01*
X108854654Y-89634976D01*
X108869070Y-89619070D01*
X108884976Y-89604654D01*
X108902219Y-89591866D01*
X108920632Y-89580830D01*
X108940038Y-89571651D01*
X108960250Y-89564419D01*
X108981074Y-89559203D01*
X109002309Y-89556053D01*
X109023750Y-89555000D01*
X109461250Y-89555000D01*
X109482691Y-89556053D01*
X109482691Y-89556053D01*
G37*
D12*
X109242500Y-90030000D03*
G04 #@! TD*
D10*
G04 #@! TO.C,C4*
G36*
X109567691Y-84031053D02*
X109588926Y-84034203D01*
X109609750Y-84039419D01*
X109629962Y-84046651D01*
X109649368Y-84055830D01*
X109667781Y-84066866D01*
X109685024Y-84079654D01*
X109700930Y-84094070D01*
X109715346Y-84109976D01*
X109728134Y-84127219D01*
X109739170Y-84145632D01*
X109748349Y-84165038D01*
X109755581Y-84185250D01*
X109760797Y-84206074D01*
X109763947Y-84227309D01*
X109765000Y-84248750D01*
X109765000Y-84686250D01*
X109763947Y-84707691D01*
X109760797Y-84728926D01*
X109755581Y-84749750D01*
X109748349Y-84769962D01*
X109739170Y-84789368D01*
X109728134Y-84807781D01*
X109715346Y-84825024D01*
X109700930Y-84840930D01*
X109685024Y-84855346D01*
X109667781Y-84868134D01*
X109649368Y-84879170D01*
X109629962Y-84888349D01*
X109609750Y-84895581D01*
X109588926Y-84900797D01*
X109567691Y-84903947D01*
X109546250Y-84905000D01*
X109033750Y-84905000D01*
X109012309Y-84903947D01*
X108991074Y-84900797D01*
X108970250Y-84895581D01*
X108950038Y-84888349D01*
X108930632Y-84879170D01*
X108912219Y-84868134D01*
X108894976Y-84855346D01*
X108879070Y-84840930D01*
X108864654Y-84825024D01*
X108851866Y-84807781D01*
X108840830Y-84789368D01*
X108831651Y-84769962D01*
X108824419Y-84749750D01*
X108819203Y-84728926D01*
X108816053Y-84707691D01*
X108815000Y-84686250D01*
X108815000Y-84248750D01*
X108816053Y-84227309D01*
X108819203Y-84206074D01*
X108824419Y-84185250D01*
X108831651Y-84165038D01*
X108840830Y-84145632D01*
X108851866Y-84127219D01*
X108864654Y-84109976D01*
X108879070Y-84094070D01*
X108894976Y-84079654D01*
X108912219Y-84066866D01*
X108930632Y-84055830D01*
X108950038Y-84046651D01*
X108970250Y-84039419D01*
X108991074Y-84034203D01*
X109012309Y-84031053D01*
X109033750Y-84030000D01*
X109546250Y-84030000D01*
X109567691Y-84031053D01*
X109567691Y-84031053D01*
G37*
D12*
X109290000Y-84467500D03*
D10*
G36*
X109567691Y-82456053D02*
X109588926Y-82459203D01*
X109609750Y-82464419D01*
X109629962Y-82471651D01*
X109649368Y-82480830D01*
X109667781Y-82491866D01*
X109685024Y-82504654D01*
X109700930Y-82519070D01*
X109715346Y-82534976D01*
X109728134Y-82552219D01*
X109739170Y-82570632D01*
X109748349Y-82590038D01*
X109755581Y-82610250D01*
X109760797Y-82631074D01*
X109763947Y-82652309D01*
X109765000Y-82673750D01*
X109765000Y-83111250D01*
X109763947Y-83132691D01*
X109760797Y-83153926D01*
X109755581Y-83174750D01*
X109748349Y-83194962D01*
X109739170Y-83214368D01*
X109728134Y-83232781D01*
X109715346Y-83250024D01*
X109700930Y-83265930D01*
X109685024Y-83280346D01*
X109667781Y-83293134D01*
X109649368Y-83304170D01*
X109629962Y-83313349D01*
X109609750Y-83320581D01*
X109588926Y-83325797D01*
X109567691Y-83328947D01*
X109546250Y-83330000D01*
X109033750Y-83330000D01*
X109012309Y-83328947D01*
X108991074Y-83325797D01*
X108970250Y-83320581D01*
X108950038Y-83313349D01*
X108930632Y-83304170D01*
X108912219Y-83293134D01*
X108894976Y-83280346D01*
X108879070Y-83265930D01*
X108864654Y-83250024D01*
X108851866Y-83232781D01*
X108840830Y-83214368D01*
X108831651Y-83194962D01*
X108824419Y-83174750D01*
X108819203Y-83153926D01*
X108816053Y-83132691D01*
X108815000Y-83111250D01*
X108815000Y-82673750D01*
X108816053Y-82652309D01*
X108819203Y-82631074D01*
X108824419Y-82610250D01*
X108831651Y-82590038D01*
X108840830Y-82570632D01*
X108851866Y-82552219D01*
X108864654Y-82534976D01*
X108879070Y-82519070D01*
X108894976Y-82504654D01*
X108912219Y-82491866D01*
X108930632Y-82480830D01*
X108950038Y-82471651D01*
X108970250Y-82464419D01*
X108991074Y-82459203D01*
X109012309Y-82456053D01*
X109033750Y-82455000D01*
X109546250Y-82455000D01*
X109567691Y-82456053D01*
X109567691Y-82456053D01*
G37*
D12*
X109290000Y-82892500D03*
G04 #@! TD*
D10*
G04 #@! TO.C,C5*
G36*
X124027691Y-91351053D02*
X124048926Y-91354203D01*
X124069750Y-91359419D01*
X124089962Y-91366651D01*
X124109368Y-91375830D01*
X124127781Y-91386866D01*
X124145024Y-91399654D01*
X124160930Y-91414070D01*
X124175346Y-91429976D01*
X124188134Y-91447219D01*
X124199170Y-91465632D01*
X124208349Y-91485038D01*
X124215581Y-91505250D01*
X124220797Y-91526074D01*
X124223947Y-91547309D01*
X124225000Y-91568750D01*
X124225000Y-92006250D01*
X124223947Y-92027691D01*
X124220797Y-92048926D01*
X124215581Y-92069750D01*
X124208349Y-92089962D01*
X124199170Y-92109368D01*
X124188134Y-92127781D01*
X124175346Y-92145024D01*
X124160930Y-92160930D01*
X124145024Y-92175346D01*
X124127781Y-92188134D01*
X124109368Y-92199170D01*
X124089962Y-92208349D01*
X124069750Y-92215581D01*
X124048926Y-92220797D01*
X124027691Y-92223947D01*
X124006250Y-92225000D01*
X123493750Y-92225000D01*
X123472309Y-92223947D01*
X123451074Y-92220797D01*
X123430250Y-92215581D01*
X123410038Y-92208349D01*
X123390632Y-92199170D01*
X123372219Y-92188134D01*
X123354976Y-92175346D01*
X123339070Y-92160930D01*
X123324654Y-92145024D01*
X123311866Y-92127781D01*
X123300830Y-92109368D01*
X123291651Y-92089962D01*
X123284419Y-92069750D01*
X123279203Y-92048926D01*
X123276053Y-92027691D01*
X123275000Y-92006250D01*
X123275000Y-91568750D01*
X123276053Y-91547309D01*
X123279203Y-91526074D01*
X123284419Y-91505250D01*
X123291651Y-91485038D01*
X123300830Y-91465632D01*
X123311866Y-91447219D01*
X123324654Y-91429976D01*
X123339070Y-91414070D01*
X123354976Y-91399654D01*
X123372219Y-91386866D01*
X123390632Y-91375830D01*
X123410038Y-91366651D01*
X123430250Y-91359419D01*
X123451074Y-91354203D01*
X123472309Y-91351053D01*
X123493750Y-91350000D01*
X124006250Y-91350000D01*
X124027691Y-91351053D01*
X124027691Y-91351053D01*
G37*
D12*
X123750000Y-91787500D03*
D10*
G36*
X124027691Y-89776053D02*
X124048926Y-89779203D01*
X124069750Y-89784419D01*
X124089962Y-89791651D01*
X124109368Y-89800830D01*
X124127781Y-89811866D01*
X124145024Y-89824654D01*
X124160930Y-89839070D01*
X124175346Y-89854976D01*
X124188134Y-89872219D01*
X124199170Y-89890632D01*
X124208349Y-89910038D01*
X124215581Y-89930250D01*
X124220797Y-89951074D01*
X124223947Y-89972309D01*
X124225000Y-89993750D01*
X124225000Y-90431250D01*
X124223947Y-90452691D01*
X124220797Y-90473926D01*
X124215581Y-90494750D01*
X124208349Y-90514962D01*
X124199170Y-90534368D01*
X124188134Y-90552781D01*
X124175346Y-90570024D01*
X124160930Y-90585930D01*
X124145024Y-90600346D01*
X124127781Y-90613134D01*
X124109368Y-90624170D01*
X124089962Y-90633349D01*
X124069750Y-90640581D01*
X124048926Y-90645797D01*
X124027691Y-90648947D01*
X124006250Y-90650000D01*
X123493750Y-90650000D01*
X123472309Y-90648947D01*
X123451074Y-90645797D01*
X123430250Y-90640581D01*
X123410038Y-90633349D01*
X123390632Y-90624170D01*
X123372219Y-90613134D01*
X123354976Y-90600346D01*
X123339070Y-90585930D01*
X123324654Y-90570024D01*
X123311866Y-90552781D01*
X123300830Y-90534368D01*
X123291651Y-90514962D01*
X123284419Y-90494750D01*
X123279203Y-90473926D01*
X123276053Y-90452691D01*
X123275000Y-90431250D01*
X123275000Y-89993750D01*
X123276053Y-89972309D01*
X123279203Y-89951074D01*
X123284419Y-89930250D01*
X123291651Y-89910038D01*
X123300830Y-89890632D01*
X123311866Y-89872219D01*
X123324654Y-89854976D01*
X123339070Y-89839070D01*
X123354976Y-89824654D01*
X123372219Y-89811866D01*
X123390632Y-89800830D01*
X123410038Y-89791651D01*
X123430250Y-89784419D01*
X123451074Y-89779203D01*
X123472309Y-89776053D01*
X123493750Y-89775000D01*
X124006250Y-89775000D01*
X124027691Y-89776053D01*
X124027691Y-89776053D01*
G37*
D12*
X123750000Y-90212500D03*
G04 #@! TD*
D10*
G04 #@! TO.C,C6*
G36*
X117587691Y-81786053D02*
X117608926Y-81789203D01*
X117629750Y-81794419D01*
X117649962Y-81801651D01*
X117669368Y-81810830D01*
X117687781Y-81821866D01*
X117705024Y-81834654D01*
X117720930Y-81849070D01*
X117735346Y-81864976D01*
X117748134Y-81882219D01*
X117759170Y-81900632D01*
X117768349Y-81920038D01*
X117775581Y-81940250D01*
X117780797Y-81961074D01*
X117783947Y-81982309D01*
X117785000Y-82003750D01*
X117785000Y-82441250D01*
X117783947Y-82462691D01*
X117780797Y-82483926D01*
X117775581Y-82504750D01*
X117768349Y-82524962D01*
X117759170Y-82544368D01*
X117748134Y-82562781D01*
X117735346Y-82580024D01*
X117720930Y-82595930D01*
X117705024Y-82610346D01*
X117687781Y-82623134D01*
X117669368Y-82634170D01*
X117649962Y-82643349D01*
X117629750Y-82650581D01*
X117608926Y-82655797D01*
X117587691Y-82658947D01*
X117566250Y-82660000D01*
X117053750Y-82660000D01*
X117032309Y-82658947D01*
X117011074Y-82655797D01*
X116990250Y-82650581D01*
X116970038Y-82643349D01*
X116950632Y-82634170D01*
X116932219Y-82623134D01*
X116914976Y-82610346D01*
X116899070Y-82595930D01*
X116884654Y-82580024D01*
X116871866Y-82562781D01*
X116860830Y-82544368D01*
X116851651Y-82524962D01*
X116844419Y-82504750D01*
X116839203Y-82483926D01*
X116836053Y-82462691D01*
X116835000Y-82441250D01*
X116835000Y-82003750D01*
X116836053Y-81982309D01*
X116839203Y-81961074D01*
X116844419Y-81940250D01*
X116851651Y-81920038D01*
X116860830Y-81900632D01*
X116871866Y-81882219D01*
X116884654Y-81864976D01*
X116899070Y-81849070D01*
X116914976Y-81834654D01*
X116932219Y-81821866D01*
X116950632Y-81810830D01*
X116970038Y-81801651D01*
X116990250Y-81794419D01*
X117011074Y-81789203D01*
X117032309Y-81786053D01*
X117053750Y-81785000D01*
X117566250Y-81785000D01*
X117587691Y-81786053D01*
X117587691Y-81786053D01*
G37*
D12*
X117310000Y-82222500D03*
D10*
G36*
X117587691Y-83361053D02*
X117608926Y-83364203D01*
X117629750Y-83369419D01*
X117649962Y-83376651D01*
X117669368Y-83385830D01*
X117687781Y-83396866D01*
X117705024Y-83409654D01*
X117720930Y-83424070D01*
X117735346Y-83439976D01*
X117748134Y-83457219D01*
X117759170Y-83475632D01*
X117768349Y-83495038D01*
X117775581Y-83515250D01*
X117780797Y-83536074D01*
X117783947Y-83557309D01*
X117785000Y-83578750D01*
X117785000Y-84016250D01*
X117783947Y-84037691D01*
X117780797Y-84058926D01*
X117775581Y-84079750D01*
X117768349Y-84099962D01*
X117759170Y-84119368D01*
X117748134Y-84137781D01*
X117735346Y-84155024D01*
X117720930Y-84170930D01*
X117705024Y-84185346D01*
X117687781Y-84198134D01*
X117669368Y-84209170D01*
X117649962Y-84218349D01*
X117629750Y-84225581D01*
X117608926Y-84230797D01*
X117587691Y-84233947D01*
X117566250Y-84235000D01*
X117053750Y-84235000D01*
X117032309Y-84233947D01*
X117011074Y-84230797D01*
X116990250Y-84225581D01*
X116970038Y-84218349D01*
X116950632Y-84209170D01*
X116932219Y-84198134D01*
X116914976Y-84185346D01*
X116899070Y-84170930D01*
X116884654Y-84155024D01*
X116871866Y-84137781D01*
X116860830Y-84119368D01*
X116851651Y-84099962D01*
X116844419Y-84079750D01*
X116839203Y-84058926D01*
X116836053Y-84037691D01*
X116835000Y-84016250D01*
X116835000Y-83578750D01*
X116836053Y-83557309D01*
X116839203Y-83536074D01*
X116844419Y-83515250D01*
X116851651Y-83495038D01*
X116860830Y-83475632D01*
X116871866Y-83457219D01*
X116884654Y-83439976D01*
X116899070Y-83424070D01*
X116914976Y-83409654D01*
X116932219Y-83396866D01*
X116950632Y-83385830D01*
X116970038Y-83376651D01*
X116990250Y-83369419D01*
X117011074Y-83364203D01*
X117032309Y-83361053D01*
X117053750Y-83360000D01*
X117566250Y-83360000D01*
X117587691Y-83361053D01*
X117587691Y-83361053D01*
G37*
D12*
X117310000Y-83797500D03*
G04 #@! TD*
D10*
G04 #@! TO.C,C7*
G36*
X124327691Y-95691053D02*
X124348926Y-95694203D01*
X124369750Y-95699419D01*
X124389962Y-95706651D01*
X124409368Y-95715830D01*
X124427781Y-95726866D01*
X124445024Y-95739654D01*
X124460930Y-95754070D01*
X124475346Y-95769976D01*
X124488134Y-95787219D01*
X124499170Y-95805632D01*
X124508349Y-95825038D01*
X124515581Y-95845250D01*
X124520797Y-95866074D01*
X124523947Y-95887309D01*
X124525000Y-95908750D01*
X124525000Y-96346250D01*
X124523947Y-96367691D01*
X124520797Y-96388926D01*
X124515581Y-96409750D01*
X124508349Y-96429962D01*
X124499170Y-96449368D01*
X124488134Y-96467781D01*
X124475346Y-96485024D01*
X124460930Y-96500930D01*
X124445024Y-96515346D01*
X124427781Y-96528134D01*
X124409368Y-96539170D01*
X124389962Y-96548349D01*
X124369750Y-96555581D01*
X124348926Y-96560797D01*
X124327691Y-96563947D01*
X124306250Y-96565000D01*
X123793750Y-96565000D01*
X123772309Y-96563947D01*
X123751074Y-96560797D01*
X123730250Y-96555581D01*
X123710038Y-96548349D01*
X123690632Y-96539170D01*
X123672219Y-96528134D01*
X123654976Y-96515346D01*
X123639070Y-96500930D01*
X123624654Y-96485024D01*
X123611866Y-96467781D01*
X123600830Y-96449368D01*
X123591651Y-96429962D01*
X123584419Y-96409750D01*
X123579203Y-96388926D01*
X123576053Y-96367691D01*
X123575000Y-96346250D01*
X123575000Y-95908750D01*
X123576053Y-95887309D01*
X123579203Y-95866074D01*
X123584419Y-95845250D01*
X123591651Y-95825038D01*
X123600830Y-95805632D01*
X123611866Y-95787219D01*
X123624654Y-95769976D01*
X123639070Y-95754070D01*
X123654976Y-95739654D01*
X123672219Y-95726866D01*
X123690632Y-95715830D01*
X123710038Y-95706651D01*
X123730250Y-95699419D01*
X123751074Y-95694203D01*
X123772309Y-95691053D01*
X123793750Y-95690000D01*
X124306250Y-95690000D01*
X124327691Y-95691053D01*
X124327691Y-95691053D01*
G37*
D12*
X124050000Y-96127500D03*
D10*
G36*
X124327691Y-94116053D02*
X124348926Y-94119203D01*
X124369750Y-94124419D01*
X124389962Y-94131651D01*
X124409368Y-94140830D01*
X124427781Y-94151866D01*
X124445024Y-94164654D01*
X124460930Y-94179070D01*
X124475346Y-94194976D01*
X124488134Y-94212219D01*
X124499170Y-94230632D01*
X124508349Y-94250038D01*
X124515581Y-94270250D01*
X124520797Y-94291074D01*
X124523947Y-94312309D01*
X124525000Y-94333750D01*
X124525000Y-94771250D01*
X124523947Y-94792691D01*
X124520797Y-94813926D01*
X124515581Y-94834750D01*
X124508349Y-94854962D01*
X124499170Y-94874368D01*
X124488134Y-94892781D01*
X124475346Y-94910024D01*
X124460930Y-94925930D01*
X124445024Y-94940346D01*
X124427781Y-94953134D01*
X124409368Y-94964170D01*
X124389962Y-94973349D01*
X124369750Y-94980581D01*
X124348926Y-94985797D01*
X124327691Y-94988947D01*
X124306250Y-94990000D01*
X123793750Y-94990000D01*
X123772309Y-94988947D01*
X123751074Y-94985797D01*
X123730250Y-94980581D01*
X123710038Y-94973349D01*
X123690632Y-94964170D01*
X123672219Y-94953134D01*
X123654976Y-94940346D01*
X123639070Y-94925930D01*
X123624654Y-94910024D01*
X123611866Y-94892781D01*
X123600830Y-94874368D01*
X123591651Y-94854962D01*
X123584419Y-94834750D01*
X123579203Y-94813926D01*
X123576053Y-94792691D01*
X123575000Y-94771250D01*
X123575000Y-94333750D01*
X123576053Y-94312309D01*
X123579203Y-94291074D01*
X123584419Y-94270250D01*
X123591651Y-94250038D01*
X123600830Y-94230632D01*
X123611866Y-94212219D01*
X123624654Y-94194976D01*
X123639070Y-94179070D01*
X123654976Y-94164654D01*
X123672219Y-94151866D01*
X123690632Y-94140830D01*
X123710038Y-94131651D01*
X123730250Y-94124419D01*
X123751074Y-94119203D01*
X123772309Y-94116053D01*
X123793750Y-94115000D01*
X124306250Y-94115000D01*
X124327691Y-94116053D01*
X124327691Y-94116053D01*
G37*
D12*
X124050000Y-94552500D03*
G04 #@! TD*
D10*
G04 #@! TO.C,C8*
G36*
X121067691Y-97826053D02*
X121088926Y-97829203D01*
X121109750Y-97834419D01*
X121129962Y-97841651D01*
X121149368Y-97850830D01*
X121167781Y-97861866D01*
X121185024Y-97874654D01*
X121200930Y-97889070D01*
X121215346Y-97904976D01*
X121228134Y-97922219D01*
X121239170Y-97940632D01*
X121248349Y-97960038D01*
X121255581Y-97980250D01*
X121260797Y-98001074D01*
X121263947Y-98022309D01*
X121265000Y-98043750D01*
X121265000Y-98556250D01*
X121263947Y-98577691D01*
X121260797Y-98598926D01*
X121255581Y-98619750D01*
X121248349Y-98639962D01*
X121239170Y-98659368D01*
X121228134Y-98677781D01*
X121215346Y-98695024D01*
X121200930Y-98710930D01*
X121185024Y-98725346D01*
X121167781Y-98738134D01*
X121149368Y-98749170D01*
X121129962Y-98758349D01*
X121109750Y-98765581D01*
X121088926Y-98770797D01*
X121067691Y-98773947D01*
X121046250Y-98775000D01*
X120608750Y-98775000D01*
X120587309Y-98773947D01*
X120566074Y-98770797D01*
X120545250Y-98765581D01*
X120525038Y-98758349D01*
X120505632Y-98749170D01*
X120487219Y-98738134D01*
X120469976Y-98725346D01*
X120454070Y-98710930D01*
X120439654Y-98695024D01*
X120426866Y-98677781D01*
X120415830Y-98659368D01*
X120406651Y-98639962D01*
X120399419Y-98619750D01*
X120394203Y-98598926D01*
X120391053Y-98577691D01*
X120390000Y-98556250D01*
X120390000Y-98043750D01*
X120391053Y-98022309D01*
X120394203Y-98001074D01*
X120399419Y-97980250D01*
X120406651Y-97960038D01*
X120415830Y-97940632D01*
X120426866Y-97922219D01*
X120439654Y-97904976D01*
X120454070Y-97889070D01*
X120469976Y-97874654D01*
X120487219Y-97861866D01*
X120505632Y-97850830D01*
X120525038Y-97841651D01*
X120545250Y-97834419D01*
X120566074Y-97829203D01*
X120587309Y-97826053D01*
X120608750Y-97825000D01*
X121046250Y-97825000D01*
X121067691Y-97826053D01*
X121067691Y-97826053D01*
G37*
D12*
X120827500Y-98300000D03*
D10*
G36*
X119492691Y-97826053D02*
X119513926Y-97829203D01*
X119534750Y-97834419D01*
X119554962Y-97841651D01*
X119574368Y-97850830D01*
X119592781Y-97861866D01*
X119610024Y-97874654D01*
X119625930Y-97889070D01*
X119640346Y-97904976D01*
X119653134Y-97922219D01*
X119664170Y-97940632D01*
X119673349Y-97960038D01*
X119680581Y-97980250D01*
X119685797Y-98001074D01*
X119688947Y-98022309D01*
X119690000Y-98043750D01*
X119690000Y-98556250D01*
X119688947Y-98577691D01*
X119685797Y-98598926D01*
X119680581Y-98619750D01*
X119673349Y-98639962D01*
X119664170Y-98659368D01*
X119653134Y-98677781D01*
X119640346Y-98695024D01*
X119625930Y-98710930D01*
X119610024Y-98725346D01*
X119592781Y-98738134D01*
X119574368Y-98749170D01*
X119554962Y-98758349D01*
X119534750Y-98765581D01*
X119513926Y-98770797D01*
X119492691Y-98773947D01*
X119471250Y-98775000D01*
X119033750Y-98775000D01*
X119012309Y-98773947D01*
X118991074Y-98770797D01*
X118970250Y-98765581D01*
X118950038Y-98758349D01*
X118930632Y-98749170D01*
X118912219Y-98738134D01*
X118894976Y-98725346D01*
X118879070Y-98710930D01*
X118864654Y-98695024D01*
X118851866Y-98677781D01*
X118840830Y-98659368D01*
X118831651Y-98639962D01*
X118824419Y-98619750D01*
X118819203Y-98598926D01*
X118816053Y-98577691D01*
X118815000Y-98556250D01*
X118815000Y-98043750D01*
X118816053Y-98022309D01*
X118819203Y-98001074D01*
X118824419Y-97980250D01*
X118831651Y-97960038D01*
X118840830Y-97940632D01*
X118851866Y-97922219D01*
X118864654Y-97904976D01*
X118879070Y-97889070D01*
X118894976Y-97874654D01*
X118912219Y-97861866D01*
X118930632Y-97850830D01*
X118950038Y-97841651D01*
X118970250Y-97834419D01*
X118991074Y-97829203D01*
X119012309Y-97826053D01*
X119033750Y-97825000D01*
X119471250Y-97825000D01*
X119492691Y-97826053D01*
X119492691Y-97826053D01*
G37*
D12*
X119252500Y-98300000D03*
G04 #@! TD*
D10*
G04 #@! TO.C,D1*
G36*
X100307691Y-78301053D02*
X100328926Y-78304203D01*
X100349750Y-78309419D01*
X100369962Y-78316651D01*
X100389368Y-78325830D01*
X100407781Y-78336866D01*
X100425024Y-78349654D01*
X100440930Y-78364070D01*
X100455346Y-78379976D01*
X100468134Y-78397219D01*
X100479170Y-78415632D01*
X100488349Y-78435038D01*
X100495581Y-78455250D01*
X100500797Y-78476074D01*
X100503947Y-78497309D01*
X100505000Y-78518750D01*
X100505000Y-78956250D01*
X100503947Y-78977691D01*
X100500797Y-78998926D01*
X100495581Y-79019750D01*
X100488349Y-79039962D01*
X100479170Y-79059368D01*
X100468134Y-79077781D01*
X100455346Y-79095024D01*
X100440930Y-79110930D01*
X100425024Y-79125346D01*
X100407781Y-79138134D01*
X100389368Y-79149170D01*
X100369962Y-79158349D01*
X100349750Y-79165581D01*
X100328926Y-79170797D01*
X100307691Y-79173947D01*
X100286250Y-79175000D01*
X99773750Y-79175000D01*
X99752309Y-79173947D01*
X99731074Y-79170797D01*
X99710250Y-79165581D01*
X99690038Y-79158349D01*
X99670632Y-79149170D01*
X99652219Y-79138134D01*
X99634976Y-79125346D01*
X99619070Y-79110930D01*
X99604654Y-79095024D01*
X99591866Y-79077781D01*
X99580830Y-79059368D01*
X99571651Y-79039962D01*
X99564419Y-79019750D01*
X99559203Y-78998926D01*
X99556053Y-78977691D01*
X99555000Y-78956250D01*
X99555000Y-78518750D01*
X99556053Y-78497309D01*
X99559203Y-78476074D01*
X99564419Y-78455250D01*
X99571651Y-78435038D01*
X99580830Y-78415632D01*
X99591866Y-78397219D01*
X99604654Y-78379976D01*
X99619070Y-78364070D01*
X99634976Y-78349654D01*
X99652219Y-78336866D01*
X99670632Y-78325830D01*
X99690038Y-78316651D01*
X99710250Y-78309419D01*
X99731074Y-78304203D01*
X99752309Y-78301053D01*
X99773750Y-78300000D01*
X100286250Y-78300000D01*
X100307691Y-78301053D01*
X100307691Y-78301053D01*
G37*
D12*
X100030000Y-78737500D03*
D10*
G36*
X100307691Y-76726053D02*
X100328926Y-76729203D01*
X100349750Y-76734419D01*
X100369962Y-76741651D01*
X100389368Y-76750830D01*
X100407781Y-76761866D01*
X100425024Y-76774654D01*
X100440930Y-76789070D01*
X100455346Y-76804976D01*
X100468134Y-76822219D01*
X100479170Y-76840632D01*
X100488349Y-76860038D01*
X100495581Y-76880250D01*
X100500797Y-76901074D01*
X100503947Y-76922309D01*
X100505000Y-76943750D01*
X100505000Y-77381250D01*
X100503947Y-77402691D01*
X100500797Y-77423926D01*
X100495581Y-77444750D01*
X100488349Y-77464962D01*
X100479170Y-77484368D01*
X100468134Y-77502781D01*
X100455346Y-77520024D01*
X100440930Y-77535930D01*
X100425024Y-77550346D01*
X100407781Y-77563134D01*
X100389368Y-77574170D01*
X100369962Y-77583349D01*
X100349750Y-77590581D01*
X100328926Y-77595797D01*
X100307691Y-77598947D01*
X100286250Y-77600000D01*
X99773750Y-77600000D01*
X99752309Y-77598947D01*
X99731074Y-77595797D01*
X99710250Y-77590581D01*
X99690038Y-77583349D01*
X99670632Y-77574170D01*
X99652219Y-77563134D01*
X99634976Y-77550346D01*
X99619070Y-77535930D01*
X99604654Y-77520024D01*
X99591866Y-77502781D01*
X99580830Y-77484368D01*
X99571651Y-77464962D01*
X99564419Y-77444750D01*
X99559203Y-77423926D01*
X99556053Y-77402691D01*
X99555000Y-77381250D01*
X99555000Y-76943750D01*
X99556053Y-76922309D01*
X99559203Y-76901074D01*
X99564419Y-76880250D01*
X99571651Y-76860038D01*
X99580830Y-76840632D01*
X99591866Y-76822219D01*
X99604654Y-76804976D01*
X99619070Y-76789070D01*
X99634976Y-76774654D01*
X99652219Y-76761866D01*
X99670632Y-76750830D01*
X99690038Y-76741651D01*
X99710250Y-76734419D01*
X99731074Y-76729203D01*
X99752309Y-76726053D01*
X99773750Y-76725000D01*
X100286250Y-76725000D01*
X100307691Y-76726053D01*
X100307691Y-76726053D01*
G37*
D12*
X100030000Y-77162500D03*
G04 #@! TD*
D14*
G04 #@! TO.C,USB*
X105570000Y-86030000D03*
X105570000Y-86830000D03*
X105570000Y-87630000D03*
X105570000Y-88430000D03*
X105570000Y-89230000D03*
D15*
X105470000Y-83180000D03*
X100020000Y-83180000D03*
X105470000Y-92080000D03*
X100020000Y-92080000D03*
G04 #@! TD*
D16*
G04 #@! TO.C,NMOS*
X128484120Y-70388440D03*
X128484120Y-72288440D03*
X130484120Y-71338440D03*
G04 #@! TD*
D10*
G04 #@! TO.C,R0*
G36*
X113242292Y-93320383D02*
X113250010Y-93321528D01*
X113257578Y-93323423D01*
X113264923Y-93326052D01*
X113271976Y-93329387D01*
X113278668Y-93333398D01*
X113284934Y-93338046D01*
X113290715Y-93343285D01*
X113295954Y-93349066D01*
X113300602Y-93355332D01*
X113304613Y-93362024D01*
X113307948Y-93369077D01*
X113310577Y-93376422D01*
X113312472Y-93383990D01*
X113313617Y-93391708D01*
X113314000Y-93399500D01*
X113314000Y-93600500D01*
X113313617Y-93608292D01*
X113312472Y-93616010D01*
X113310577Y-93623578D01*
X113307948Y-93630923D01*
X113304613Y-93637976D01*
X113300602Y-93644668D01*
X113295954Y-93650934D01*
X113290715Y-93656715D01*
X113284934Y-93661954D01*
X113278668Y-93666602D01*
X113271976Y-93670613D01*
X113264923Y-93673948D01*
X113257578Y-93676577D01*
X113250010Y-93678472D01*
X113242292Y-93679617D01*
X113234500Y-93680000D01*
X113075500Y-93680000D01*
X113067708Y-93679617D01*
X113059990Y-93678472D01*
X113052422Y-93676577D01*
X113045077Y-93673948D01*
X113038024Y-93670613D01*
X113031332Y-93666602D01*
X113025066Y-93661954D01*
X113019285Y-93656715D01*
X113014046Y-93650934D01*
X113009398Y-93644668D01*
X113005387Y-93637976D01*
X113002052Y-93630923D01*
X112999423Y-93623578D01*
X112997528Y-93616010D01*
X112996383Y-93608292D01*
X112996000Y-93600500D01*
X112996000Y-93399500D01*
X112996383Y-93391708D01*
X112997528Y-93383990D01*
X112999423Y-93376422D01*
X113002052Y-93369077D01*
X113005387Y-93362024D01*
X113009398Y-93355332D01*
X113014046Y-93349066D01*
X113019285Y-93343285D01*
X113025066Y-93338046D01*
X113031332Y-93333398D01*
X113038024Y-93329387D01*
X113045077Y-93326052D01*
X113052422Y-93323423D01*
X113059990Y-93321528D01*
X113067708Y-93320383D01*
X113075500Y-93320000D01*
X113234500Y-93320000D01*
X113242292Y-93320383D01*
X113242292Y-93320383D01*
G37*
D17*
X113155000Y-93500000D03*
D10*
G36*
X113932292Y-93320383D02*
X113940010Y-93321528D01*
X113947578Y-93323423D01*
X113954923Y-93326052D01*
X113961976Y-93329387D01*
X113968668Y-93333398D01*
X113974934Y-93338046D01*
X113980715Y-93343285D01*
X113985954Y-93349066D01*
X113990602Y-93355332D01*
X113994613Y-93362024D01*
X113997948Y-93369077D01*
X114000577Y-93376422D01*
X114002472Y-93383990D01*
X114003617Y-93391708D01*
X114004000Y-93399500D01*
X114004000Y-93600500D01*
X114003617Y-93608292D01*
X114002472Y-93616010D01*
X114000577Y-93623578D01*
X113997948Y-93630923D01*
X113994613Y-93637976D01*
X113990602Y-93644668D01*
X113985954Y-93650934D01*
X113980715Y-93656715D01*
X113974934Y-93661954D01*
X113968668Y-93666602D01*
X113961976Y-93670613D01*
X113954923Y-93673948D01*
X113947578Y-93676577D01*
X113940010Y-93678472D01*
X113932292Y-93679617D01*
X113924500Y-93680000D01*
X113765500Y-93680000D01*
X113757708Y-93679617D01*
X113749990Y-93678472D01*
X113742422Y-93676577D01*
X113735077Y-93673948D01*
X113728024Y-93670613D01*
X113721332Y-93666602D01*
X113715066Y-93661954D01*
X113709285Y-93656715D01*
X113704046Y-93650934D01*
X113699398Y-93644668D01*
X113695387Y-93637976D01*
X113692052Y-93630923D01*
X113689423Y-93623578D01*
X113687528Y-93616010D01*
X113686383Y-93608292D01*
X113686000Y-93600500D01*
X113686000Y-93399500D01*
X113686383Y-93391708D01*
X113687528Y-93383990D01*
X113689423Y-93376422D01*
X113692052Y-93369077D01*
X113695387Y-93362024D01*
X113699398Y-93355332D01*
X113704046Y-93349066D01*
X113709285Y-93343285D01*
X113715066Y-93338046D01*
X113721332Y-93333398D01*
X113728024Y-93329387D01*
X113735077Y-93326052D01*
X113742422Y-93323423D01*
X113749990Y-93321528D01*
X113757708Y-93320383D01*
X113765500Y-93320000D01*
X113924500Y-93320000D01*
X113932292Y-93320383D01*
X113932292Y-93320383D01*
G37*
D17*
X113845000Y-93500000D03*
G04 #@! TD*
D10*
G04 #@! TO.C,R1*
G36*
X102432292Y-76980383D02*
X102440010Y-76981528D01*
X102447578Y-76983423D01*
X102454923Y-76986052D01*
X102461976Y-76989387D01*
X102468668Y-76993398D01*
X102474934Y-76998046D01*
X102480715Y-77003285D01*
X102485954Y-77009066D01*
X102490602Y-77015332D01*
X102494613Y-77022024D01*
X102497948Y-77029077D01*
X102500577Y-77036422D01*
X102502472Y-77043990D01*
X102503617Y-77051708D01*
X102504000Y-77059500D01*
X102504000Y-77260500D01*
X102503617Y-77268292D01*
X102502472Y-77276010D01*
X102500577Y-77283578D01*
X102497948Y-77290923D01*
X102494613Y-77297976D01*
X102490602Y-77304668D01*
X102485954Y-77310934D01*
X102480715Y-77316715D01*
X102474934Y-77321954D01*
X102468668Y-77326602D01*
X102461976Y-77330613D01*
X102454923Y-77333948D01*
X102447578Y-77336577D01*
X102440010Y-77338472D01*
X102432292Y-77339617D01*
X102424500Y-77340000D01*
X102265500Y-77340000D01*
X102257708Y-77339617D01*
X102249990Y-77338472D01*
X102242422Y-77336577D01*
X102235077Y-77333948D01*
X102228024Y-77330613D01*
X102221332Y-77326602D01*
X102215066Y-77321954D01*
X102209285Y-77316715D01*
X102204046Y-77310934D01*
X102199398Y-77304668D01*
X102195387Y-77297976D01*
X102192052Y-77290923D01*
X102189423Y-77283578D01*
X102187528Y-77276010D01*
X102186383Y-77268292D01*
X102186000Y-77260500D01*
X102186000Y-77059500D01*
X102186383Y-77051708D01*
X102187528Y-77043990D01*
X102189423Y-77036422D01*
X102192052Y-77029077D01*
X102195387Y-77022024D01*
X102199398Y-77015332D01*
X102204046Y-77009066D01*
X102209285Y-77003285D01*
X102215066Y-76998046D01*
X102221332Y-76993398D01*
X102228024Y-76989387D01*
X102235077Y-76986052D01*
X102242422Y-76983423D01*
X102249990Y-76981528D01*
X102257708Y-76980383D01*
X102265500Y-76980000D01*
X102424500Y-76980000D01*
X102432292Y-76980383D01*
X102432292Y-76980383D01*
G37*
D17*
X102345000Y-77160000D03*
D10*
G36*
X103122292Y-76980383D02*
X103130010Y-76981528D01*
X103137578Y-76983423D01*
X103144923Y-76986052D01*
X103151976Y-76989387D01*
X103158668Y-76993398D01*
X103164934Y-76998046D01*
X103170715Y-77003285D01*
X103175954Y-77009066D01*
X103180602Y-77015332D01*
X103184613Y-77022024D01*
X103187948Y-77029077D01*
X103190577Y-77036422D01*
X103192472Y-77043990D01*
X103193617Y-77051708D01*
X103194000Y-77059500D01*
X103194000Y-77260500D01*
X103193617Y-77268292D01*
X103192472Y-77276010D01*
X103190577Y-77283578D01*
X103187948Y-77290923D01*
X103184613Y-77297976D01*
X103180602Y-77304668D01*
X103175954Y-77310934D01*
X103170715Y-77316715D01*
X103164934Y-77321954D01*
X103158668Y-77326602D01*
X103151976Y-77330613D01*
X103144923Y-77333948D01*
X103137578Y-77336577D01*
X103130010Y-77338472D01*
X103122292Y-77339617D01*
X103114500Y-77340000D01*
X102955500Y-77340000D01*
X102947708Y-77339617D01*
X102939990Y-77338472D01*
X102932422Y-77336577D01*
X102925077Y-77333948D01*
X102918024Y-77330613D01*
X102911332Y-77326602D01*
X102905066Y-77321954D01*
X102899285Y-77316715D01*
X102894046Y-77310934D01*
X102889398Y-77304668D01*
X102885387Y-77297976D01*
X102882052Y-77290923D01*
X102879423Y-77283578D01*
X102877528Y-77276010D01*
X102876383Y-77268292D01*
X102876000Y-77260500D01*
X102876000Y-77059500D01*
X102876383Y-77051708D01*
X102877528Y-77043990D01*
X102879423Y-77036422D01*
X102882052Y-77029077D01*
X102885387Y-77022024D01*
X102889398Y-77015332D01*
X102894046Y-77009066D01*
X102899285Y-77003285D01*
X102905066Y-76998046D01*
X102911332Y-76993398D01*
X102918024Y-76989387D01*
X102925077Y-76986052D01*
X102932422Y-76983423D01*
X102939990Y-76981528D01*
X102947708Y-76980383D01*
X102955500Y-76980000D01*
X103114500Y-76980000D01*
X103122292Y-76980383D01*
X103122292Y-76980383D01*
G37*
D17*
X103035000Y-77160000D03*
G04 #@! TD*
D10*
G04 #@! TO.C,R2*
G36*
X113538292Y-91356383D02*
X113546010Y-91357528D01*
X113553578Y-91359423D01*
X113560923Y-91362052D01*
X113567976Y-91365387D01*
X113574668Y-91369398D01*
X113580934Y-91374046D01*
X113586715Y-91379285D01*
X113591954Y-91385066D01*
X113596602Y-91391332D01*
X113600613Y-91398024D01*
X113603948Y-91405077D01*
X113606577Y-91412422D01*
X113608472Y-91419990D01*
X113609617Y-91427708D01*
X113610000Y-91435500D01*
X113610000Y-91594500D01*
X113609617Y-91602292D01*
X113608472Y-91610010D01*
X113606577Y-91617578D01*
X113603948Y-91624923D01*
X113600613Y-91631976D01*
X113596602Y-91638668D01*
X113591954Y-91644934D01*
X113586715Y-91650715D01*
X113580934Y-91655954D01*
X113574668Y-91660602D01*
X113567976Y-91664613D01*
X113560923Y-91667948D01*
X113553578Y-91670577D01*
X113546010Y-91672472D01*
X113538292Y-91673617D01*
X113530500Y-91674000D01*
X113329500Y-91674000D01*
X113321708Y-91673617D01*
X113313990Y-91672472D01*
X113306422Y-91670577D01*
X113299077Y-91667948D01*
X113292024Y-91664613D01*
X113285332Y-91660602D01*
X113279066Y-91655954D01*
X113273285Y-91650715D01*
X113268046Y-91644934D01*
X113263398Y-91638668D01*
X113259387Y-91631976D01*
X113256052Y-91624923D01*
X113253423Y-91617578D01*
X113251528Y-91610010D01*
X113250383Y-91602292D01*
X113250000Y-91594500D01*
X113250000Y-91435500D01*
X113250383Y-91427708D01*
X113251528Y-91419990D01*
X113253423Y-91412422D01*
X113256052Y-91405077D01*
X113259387Y-91398024D01*
X113263398Y-91391332D01*
X113268046Y-91385066D01*
X113273285Y-91379285D01*
X113279066Y-91374046D01*
X113285332Y-91369398D01*
X113292024Y-91365387D01*
X113299077Y-91362052D01*
X113306422Y-91359423D01*
X113313990Y-91357528D01*
X113321708Y-91356383D01*
X113329500Y-91356000D01*
X113530500Y-91356000D01*
X113538292Y-91356383D01*
X113538292Y-91356383D01*
G37*
D17*
X113430000Y-91515000D03*
D10*
G36*
X113538292Y-90666383D02*
X113546010Y-90667528D01*
X113553578Y-90669423D01*
X113560923Y-90672052D01*
X113567976Y-90675387D01*
X113574668Y-90679398D01*
X113580934Y-90684046D01*
X113586715Y-90689285D01*
X113591954Y-90695066D01*
X113596602Y-90701332D01*
X113600613Y-90708024D01*
X113603948Y-90715077D01*
X113606577Y-90722422D01*
X113608472Y-90729990D01*
X113609617Y-90737708D01*
X113610000Y-90745500D01*
X113610000Y-90904500D01*
X113609617Y-90912292D01*
X113608472Y-90920010D01*
X113606577Y-90927578D01*
X113603948Y-90934923D01*
X113600613Y-90941976D01*
X113596602Y-90948668D01*
X113591954Y-90954934D01*
X113586715Y-90960715D01*
X113580934Y-90965954D01*
X113574668Y-90970602D01*
X113567976Y-90974613D01*
X113560923Y-90977948D01*
X113553578Y-90980577D01*
X113546010Y-90982472D01*
X113538292Y-90983617D01*
X113530500Y-90984000D01*
X113329500Y-90984000D01*
X113321708Y-90983617D01*
X113313990Y-90982472D01*
X113306422Y-90980577D01*
X113299077Y-90977948D01*
X113292024Y-90974613D01*
X113285332Y-90970602D01*
X113279066Y-90965954D01*
X113273285Y-90960715D01*
X113268046Y-90954934D01*
X113263398Y-90948668D01*
X113259387Y-90941976D01*
X113256052Y-90934923D01*
X113253423Y-90927578D01*
X113251528Y-90920010D01*
X113250383Y-90912292D01*
X113250000Y-90904500D01*
X113250000Y-90745500D01*
X113250383Y-90737708D01*
X113251528Y-90729990D01*
X113253423Y-90722422D01*
X113256052Y-90715077D01*
X113259387Y-90708024D01*
X113263398Y-90701332D01*
X113268046Y-90695066D01*
X113273285Y-90689285D01*
X113279066Y-90684046D01*
X113285332Y-90679398D01*
X113292024Y-90675387D01*
X113299077Y-90672052D01*
X113306422Y-90669423D01*
X113313990Y-90667528D01*
X113321708Y-90666383D01*
X113329500Y-90666000D01*
X113530500Y-90666000D01*
X113538292Y-90666383D01*
X113538292Y-90666383D01*
G37*
D17*
X113430000Y-90825000D03*
G04 #@! TD*
D10*
G04 #@! TO.C,R3*
G36*
X111035191Y-87664053D02*
X111056426Y-87667203D01*
X111077250Y-87672419D01*
X111097462Y-87679651D01*
X111116868Y-87688830D01*
X111135281Y-87699866D01*
X111152524Y-87712654D01*
X111168430Y-87727070D01*
X111182846Y-87742976D01*
X111195634Y-87760219D01*
X111206670Y-87778632D01*
X111215849Y-87798038D01*
X111223081Y-87818250D01*
X111228297Y-87839074D01*
X111231447Y-87860309D01*
X111232500Y-87881750D01*
X111232500Y-88394250D01*
X111231447Y-88415691D01*
X111228297Y-88436926D01*
X111223081Y-88457750D01*
X111215849Y-88477962D01*
X111206670Y-88497368D01*
X111195634Y-88515781D01*
X111182846Y-88533024D01*
X111168430Y-88548930D01*
X111152524Y-88563346D01*
X111135281Y-88576134D01*
X111116868Y-88587170D01*
X111097462Y-88596349D01*
X111077250Y-88603581D01*
X111056426Y-88608797D01*
X111035191Y-88611947D01*
X111013750Y-88613000D01*
X110576250Y-88613000D01*
X110554809Y-88611947D01*
X110533574Y-88608797D01*
X110512750Y-88603581D01*
X110492538Y-88596349D01*
X110473132Y-88587170D01*
X110454719Y-88576134D01*
X110437476Y-88563346D01*
X110421570Y-88548930D01*
X110407154Y-88533024D01*
X110394366Y-88515781D01*
X110383330Y-88497368D01*
X110374151Y-88477962D01*
X110366919Y-88457750D01*
X110361703Y-88436926D01*
X110358553Y-88415691D01*
X110357500Y-88394250D01*
X110357500Y-87881750D01*
X110358553Y-87860309D01*
X110361703Y-87839074D01*
X110366919Y-87818250D01*
X110374151Y-87798038D01*
X110383330Y-87778632D01*
X110394366Y-87760219D01*
X110407154Y-87742976D01*
X110421570Y-87727070D01*
X110437476Y-87712654D01*
X110454719Y-87699866D01*
X110473132Y-87688830D01*
X110492538Y-87679651D01*
X110512750Y-87672419D01*
X110533574Y-87667203D01*
X110554809Y-87664053D01*
X110576250Y-87663000D01*
X111013750Y-87663000D01*
X111035191Y-87664053D01*
X111035191Y-87664053D01*
G37*
D12*
X110795000Y-88138000D03*
D10*
G36*
X109460191Y-87664053D02*
X109481426Y-87667203D01*
X109502250Y-87672419D01*
X109522462Y-87679651D01*
X109541868Y-87688830D01*
X109560281Y-87699866D01*
X109577524Y-87712654D01*
X109593430Y-87727070D01*
X109607846Y-87742976D01*
X109620634Y-87760219D01*
X109631670Y-87778632D01*
X109640849Y-87798038D01*
X109648081Y-87818250D01*
X109653297Y-87839074D01*
X109656447Y-87860309D01*
X109657500Y-87881750D01*
X109657500Y-88394250D01*
X109656447Y-88415691D01*
X109653297Y-88436926D01*
X109648081Y-88457750D01*
X109640849Y-88477962D01*
X109631670Y-88497368D01*
X109620634Y-88515781D01*
X109607846Y-88533024D01*
X109593430Y-88548930D01*
X109577524Y-88563346D01*
X109560281Y-88576134D01*
X109541868Y-88587170D01*
X109522462Y-88596349D01*
X109502250Y-88603581D01*
X109481426Y-88608797D01*
X109460191Y-88611947D01*
X109438750Y-88613000D01*
X109001250Y-88613000D01*
X108979809Y-88611947D01*
X108958574Y-88608797D01*
X108937750Y-88603581D01*
X108917538Y-88596349D01*
X108898132Y-88587170D01*
X108879719Y-88576134D01*
X108862476Y-88563346D01*
X108846570Y-88548930D01*
X108832154Y-88533024D01*
X108819366Y-88515781D01*
X108808330Y-88497368D01*
X108799151Y-88477962D01*
X108791919Y-88457750D01*
X108786703Y-88436926D01*
X108783553Y-88415691D01*
X108782500Y-88394250D01*
X108782500Y-87881750D01*
X108783553Y-87860309D01*
X108786703Y-87839074D01*
X108791919Y-87818250D01*
X108799151Y-87798038D01*
X108808330Y-87778632D01*
X108819366Y-87760219D01*
X108832154Y-87742976D01*
X108846570Y-87727070D01*
X108862476Y-87712654D01*
X108879719Y-87699866D01*
X108898132Y-87688830D01*
X108917538Y-87679651D01*
X108937750Y-87672419D01*
X108958574Y-87667203D01*
X108979809Y-87664053D01*
X109001250Y-87663000D01*
X109438750Y-87663000D01*
X109460191Y-87664053D01*
X109460191Y-87664053D01*
G37*
D12*
X109220000Y-88138000D03*
G04 #@! TD*
D10*
G04 #@! TO.C,R4*
G36*
X111035191Y-85886053D02*
X111056426Y-85889203D01*
X111077250Y-85894419D01*
X111097462Y-85901651D01*
X111116868Y-85910830D01*
X111135281Y-85921866D01*
X111152524Y-85934654D01*
X111168430Y-85949070D01*
X111182846Y-85964976D01*
X111195634Y-85982219D01*
X111206670Y-86000632D01*
X111215849Y-86020038D01*
X111223081Y-86040250D01*
X111228297Y-86061074D01*
X111231447Y-86082309D01*
X111232500Y-86103750D01*
X111232500Y-86616250D01*
X111231447Y-86637691D01*
X111228297Y-86658926D01*
X111223081Y-86679750D01*
X111215849Y-86699962D01*
X111206670Y-86719368D01*
X111195634Y-86737781D01*
X111182846Y-86755024D01*
X111168430Y-86770930D01*
X111152524Y-86785346D01*
X111135281Y-86798134D01*
X111116868Y-86809170D01*
X111097462Y-86818349D01*
X111077250Y-86825581D01*
X111056426Y-86830797D01*
X111035191Y-86833947D01*
X111013750Y-86835000D01*
X110576250Y-86835000D01*
X110554809Y-86833947D01*
X110533574Y-86830797D01*
X110512750Y-86825581D01*
X110492538Y-86818349D01*
X110473132Y-86809170D01*
X110454719Y-86798134D01*
X110437476Y-86785346D01*
X110421570Y-86770930D01*
X110407154Y-86755024D01*
X110394366Y-86737781D01*
X110383330Y-86719368D01*
X110374151Y-86699962D01*
X110366919Y-86679750D01*
X110361703Y-86658926D01*
X110358553Y-86637691D01*
X110357500Y-86616250D01*
X110357500Y-86103750D01*
X110358553Y-86082309D01*
X110361703Y-86061074D01*
X110366919Y-86040250D01*
X110374151Y-86020038D01*
X110383330Y-86000632D01*
X110394366Y-85982219D01*
X110407154Y-85964976D01*
X110421570Y-85949070D01*
X110437476Y-85934654D01*
X110454719Y-85921866D01*
X110473132Y-85910830D01*
X110492538Y-85901651D01*
X110512750Y-85894419D01*
X110533574Y-85889203D01*
X110554809Y-85886053D01*
X110576250Y-85885000D01*
X111013750Y-85885000D01*
X111035191Y-85886053D01*
X111035191Y-85886053D01*
G37*
D12*
X110795000Y-86360000D03*
D10*
G36*
X109460191Y-85886053D02*
X109481426Y-85889203D01*
X109502250Y-85894419D01*
X109522462Y-85901651D01*
X109541868Y-85910830D01*
X109560281Y-85921866D01*
X109577524Y-85934654D01*
X109593430Y-85949070D01*
X109607846Y-85964976D01*
X109620634Y-85982219D01*
X109631670Y-86000632D01*
X109640849Y-86020038D01*
X109648081Y-86040250D01*
X109653297Y-86061074D01*
X109656447Y-86082309D01*
X109657500Y-86103750D01*
X109657500Y-86616250D01*
X109656447Y-86637691D01*
X109653297Y-86658926D01*
X109648081Y-86679750D01*
X109640849Y-86699962D01*
X109631670Y-86719368D01*
X109620634Y-86737781D01*
X109607846Y-86755024D01*
X109593430Y-86770930D01*
X109577524Y-86785346D01*
X109560281Y-86798134D01*
X109541868Y-86809170D01*
X109522462Y-86818349D01*
X109502250Y-86825581D01*
X109481426Y-86830797D01*
X109460191Y-86833947D01*
X109438750Y-86835000D01*
X109001250Y-86835000D01*
X108979809Y-86833947D01*
X108958574Y-86830797D01*
X108937750Y-86825581D01*
X108917538Y-86818349D01*
X108898132Y-86809170D01*
X108879719Y-86798134D01*
X108862476Y-86785346D01*
X108846570Y-86770930D01*
X108832154Y-86755024D01*
X108819366Y-86737781D01*
X108808330Y-86719368D01*
X108799151Y-86699962D01*
X108791919Y-86679750D01*
X108786703Y-86658926D01*
X108783553Y-86637691D01*
X108782500Y-86616250D01*
X108782500Y-86103750D01*
X108783553Y-86082309D01*
X108786703Y-86061074D01*
X108791919Y-86040250D01*
X108799151Y-86020038D01*
X108808330Y-86000632D01*
X108819366Y-85982219D01*
X108832154Y-85964976D01*
X108846570Y-85949070D01*
X108862476Y-85934654D01*
X108879719Y-85921866D01*
X108898132Y-85910830D01*
X108917538Y-85901651D01*
X108937750Y-85894419D01*
X108958574Y-85889203D01*
X108979809Y-85886053D01*
X109001250Y-85885000D01*
X109438750Y-85885000D01*
X109460191Y-85886053D01*
X109460191Y-85886053D01*
G37*
D12*
X109220000Y-86360000D03*
G04 #@! TD*
D18*
G04 #@! TO.C,GND*
X118618000Y-73152000D03*
G04 #@! TD*
D19*
G04 #@! TO.C,PSH*
X153924000Y-105664000D03*
G04 #@! TD*
G04 #@! TO.C,PSL1*
X153924000Y-112014000D03*
G04 #@! TD*
G04 #@! TO.C,PSL2*
X101910000Y-105650000D03*
G04 #@! TD*
G04 #@! TO.C,VUSB*
X109728000Y-94234000D03*
G04 #@! TD*
D18*
G04 #@! TO.C,VCC*
X113030000Y-73152000D03*
G04 #@! TD*
D19*
G04 #@! TO.C,SigSol*
X129540000Y-66294000D03*
G04 #@! TD*
G04 #@! TO.C,Vin*
X143002000Y-60960000D03*
G04 #@! TD*
G04 #@! TO.C,SolGND*
X143002000Y-68072000D03*
G04 #@! TD*
D10*
G04 #@! TO.C,ATmega32U4*
G36*
X116459505Y-86172204D02*
X116483773Y-86175804D01*
X116507572Y-86181765D01*
X116530671Y-86190030D01*
X116552850Y-86200520D01*
X116573893Y-86213132D01*
X116593599Y-86227747D01*
X116611777Y-86244223D01*
X116628253Y-86262401D01*
X116642868Y-86282107D01*
X116655480Y-86303150D01*
X116665970Y-86325329D01*
X116674235Y-86348428D01*
X116680196Y-86372227D01*
X116683796Y-86396495D01*
X116685000Y-86420999D01*
X116685000Y-86971001D01*
X116683796Y-86995505D01*
X116680196Y-87019773D01*
X116674235Y-87043572D01*
X116665970Y-87066671D01*
X116655480Y-87088850D01*
X116642868Y-87109893D01*
X116628253Y-87129599D01*
X116611777Y-87147777D01*
X116593599Y-87164253D01*
X116573893Y-87178868D01*
X116552850Y-87191480D01*
X116530671Y-87201970D01*
X116507572Y-87210235D01*
X116483773Y-87216196D01*
X116459505Y-87219796D01*
X116435001Y-87221000D01*
X115884999Y-87221000D01*
X115860495Y-87219796D01*
X115836227Y-87216196D01*
X115812428Y-87210235D01*
X115789329Y-87201970D01*
X115767150Y-87191480D01*
X115746107Y-87178868D01*
X115726401Y-87164253D01*
X115708223Y-87147777D01*
X115691747Y-87129599D01*
X115677132Y-87109893D01*
X115664520Y-87088850D01*
X115654030Y-87066671D01*
X115645765Y-87043572D01*
X115639804Y-87019773D01*
X115636204Y-86995505D01*
X115635000Y-86971001D01*
X115635000Y-86420999D01*
X115636204Y-86396495D01*
X115639804Y-86372227D01*
X115645765Y-86348428D01*
X115654030Y-86325329D01*
X115664520Y-86303150D01*
X115677132Y-86282107D01*
X115691747Y-86262401D01*
X115708223Y-86244223D01*
X115726401Y-86227747D01*
X115746107Y-86213132D01*
X115767150Y-86200520D01*
X115789329Y-86190030D01*
X115812428Y-86181765D01*
X115836227Y-86175804D01*
X115860495Y-86172204D01*
X115884999Y-86171000D01*
X116435001Y-86171000D01*
X116459505Y-86172204D01*
X116459505Y-86172204D01*
G37*
D20*
X116160000Y-86696000D03*
D10*
G36*
X116459505Y-87472204D02*
X116483773Y-87475804D01*
X116507572Y-87481765D01*
X116530671Y-87490030D01*
X116552850Y-87500520D01*
X116573893Y-87513132D01*
X116593599Y-87527747D01*
X116611777Y-87544223D01*
X116628253Y-87562401D01*
X116642868Y-87582107D01*
X116655480Y-87603150D01*
X116665970Y-87625329D01*
X116674235Y-87648428D01*
X116680196Y-87672227D01*
X116683796Y-87696495D01*
X116685000Y-87720999D01*
X116685000Y-88271001D01*
X116683796Y-88295505D01*
X116680196Y-88319773D01*
X116674235Y-88343572D01*
X116665970Y-88366671D01*
X116655480Y-88388850D01*
X116642868Y-88409893D01*
X116628253Y-88429599D01*
X116611777Y-88447777D01*
X116593599Y-88464253D01*
X116573893Y-88478868D01*
X116552850Y-88491480D01*
X116530671Y-88501970D01*
X116507572Y-88510235D01*
X116483773Y-88516196D01*
X116459505Y-88519796D01*
X116435001Y-88521000D01*
X115884999Y-88521000D01*
X115860495Y-88519796D01*
X115836227Y-88516196D01*
X115812428Y-88510235D01*
X115789329Y-88501970D01*
X115767150Y-88491480D01*
X115746107Y-88478868D01*
X115726401Y-88464253D01*
X115708223Y-88447777D01*
X115691747Y-88429599D01*
X115677132Y-88409893D01*
X115664520Y-88388850D01*
X115654030Y-88366671D01*
X115645765Y-88343572D01*
X115639804Y-88319773D01*
X115636204Y-88295505D01*
X115635000Y-88271001D01*
X115635000Y-87720999D01*
X115636204Y-87696495D01*
X115639804Y-87672227D01*
X115645765Y-87648428D01*
X115654030Y-87625329D01*
X115664520Y-87603150D01*
X115677132Y-87582107D01*
X115691747Y-87562401D01*
X115708223Y-87544223D01*
X115726401Y-87527747D01*
X115746107Y-87513132D01*
X115767150Y-87500520D01*
X115789329Y-87490030D01*
X115812428Y-87481765D01*
X115836227Y-87475804D01*
X115860495Y-87472204D01*
X115884999Y-87471000D01*
X116435001Y-87471000D01*
X116459505Y-87472204D01*
X116459505Y-87472204D01*
G37*
D20*
X116160000Y-87996000D03*
D10*
G36*
X116459505Y-88772204D02*
X116483773Y-88775804D01*
X116507572Y-88781765D01*
X116530671Y-88790030D01*
X116552850Y-88800520D01*
X116573893Y-88813132D01*
X116593599Y-88827747D01*
X116611777Y-88844223D01*
X116628253Y-88862401D01*
X116642868Y-88882107D01*
X116655480Y-88903150D01*
X116665970Y-88925329D01*
X116674235Y-88948428D01*
X116680196Y-88972227D01*
X116683796Y-88996495D01*
X116685000Y-89020999D01*
X116685000Y-89571001D01*
X116683796Y-89595505D01*
X116680196Y-89619773D01*
X116674235Y-89643572D01*
X116665970Y-89666671D01*
X116655480Y-89688850D01*
X116642868Y-89709893D01*
X116628253Y-89729599D01*
X116611777Y-89747777D01*
X116593599Y-89764253D01*
X116573893Y-89778868D01*
X116552850Y-89791480D01*
X116530671Y-89801970D01*
X116507572Y-89810235D01*
X116483773Y-89816196D01*
X116459505Y-89819796D01*
X116435001Y-89821000D01*
X115884999Y-89821000D01*
X115860495Y-89819796D01*
X115836227Y-89816196D01*
X115812428Y-89810235D01*
X115789329Y-89801970D01*
X115767150Y-89791480D01*
X115746107Y-89778868D01*
X115726401Y-89764253D01*
X115708223Y-89747777D01*
X115691747Y-89729599D01*
X115677132Y-89709893D01*
X115664520Y-89688850D01*
X115654030Y-89666671D01*
X115645765Y-89643572D01*
X115639804Y-89619773D01*
X115636204Y-89595505D01*
X115635000Y-89571001D01*
X115635000Y-89020999D01*
X115636204Y-88996495D01*
X115639804Y-88972227D01*
X115645765Y-88948428D01*
X115654030Y-88925329D01*
X115664520Y-88903150D01*
X115677132Y-88882107D01*
X115691747Y-88862401D01*
X115708223Y-88844223D01*
X115726401Y-88827747D01*
X115746107Y-88813132D01*
X115767150Y-88800520D01*
X115789329Y-88790030D01*
X115812428Y-88781765D01*
X115836227Y-88775804D01*
X115860495Y-88772204D01*
X115884999Y-88771000D01*
X116435001Y-88771000D01*
X116459505Y-88772204D01*
X116459505Y-88772204D01*
G37*
D20*
X116160000Y-89296000D03*
D10*
G36*
X116459505Y-90072204D02*
X116483773Y-90075804D01*
X116507572Y-90081765D01*
X116530671Y-90090030D01*
X116552850Y-90100520D01*
X116573893Y-90113132D01*
X116593599Y-90127747D01*
X116611777Y-90144223D01*
X116628253Y-90162401D01*
X116642868Y-90182107D01*
X116655480Y-90203150D01*
X116665970Y-90225329D01*
X116674235Y-90248428D01*
X116680196Y-90272227D01*
X116683796Y-90296495D01*
X116685000Y-90320999D01*
X116685000Y-90871001D01*
X116683796Y-90895505D01*
X116680196Y-90919773D01*
X116674235Y-90943572D01*
X116665970Y-90966671D01*
X116655480Y-90988850D01*
X116642868Y-91009893D01*
X116628253Y-91029599D01*
X116611777Y-91047777D01*
X116593599Y-91064253D01*
X116573893Y-91078868D01*
X116552850Y-91091480D01*
X116530671Y-91101970D01*
X116507572Y-91110235D01*
X116483773Y-91116196D01*
X116459505Y-91119796D01*
X116435001Y-91121000D01*
X115884999Y-91121000D01*
X115860495Y-91119796D01*
X115836227Y-91116196D01*
X115812428Y-91110235D01*
X115789329Y-91101970D01*
X115767150Y-91091480D01*
X115746107Y-91078868D01*
X115726401Y-91064253D01*
X115708223Y-91047777D01*
X115691747Y-91029599D01*
X115677132Y-91009893D01*
X115664520Y-90988850D01*
X115654030Y-90966671D01*
X115645765Y-90943572D01*
X115639804Y-90919773D01*
X115636204Y-90895505D01*
X115635000Y-90871001D01*
X115635000Y-90320999D01*
X115636204Y-90296495D01*
X115639804Y-90272227D01*
X115645765Y-90248428D01*
X115654030Y-90225329D01*
X115664520Y-90203150D01*
X115677132Y-90182107D01*
X115691747Y-90162401D01*
X115708223Y-90144223D01*
X115726401Y-90127747D01*
X115746107Y-90113132D01*
X115767150Y-90100520D01*
X115789329Y-90090030D01*
X115812428Y-90081765D01*
X115836227Y-90075804D01*
X115860495Y-90072204D01*
X115884999Y-90071000D01*
X116435001Y-90071000D01*
X116459505Y-90072204D01*
X116459505Y-90072204D01*
G37*
D20*
X116160000Y-90596000D03*
D10*
G36*
X117759505Y-86172204D02*
X117783773Y-86175804D01*
X117807572Y-86181765D01*
X117830671Y-86190030D01*
X117852850Y-86200520D01*
X117873893Y-86213132D01*
X117893599Y-86227747D01*
X117911777Y-86244223D01*
X117928253Y-86262401D01*
X117942868Y-86282107D01*
X117955480Y-86303150D01*
X117965970Y-86325329D01*
X117974235Y-86348428D01*
X117980196Y-86372227D01*
X117983796Y-86396495D01*
X117985000Y-86420999D01*
X117985000Y-86971001D01*
X117983796Y-86995505D01*
X117980196Y-87019773D01*
X117974235Y-87043572D01*
X117965970Y-87066671D01*
X117955480Y-87088850D01*
X117942868Y-87109893D01*
X117928253Y-87129599D01*
X117911777Y-87147777D01*
X117893599Y-87164253D01*
X117873893Y-87178868D01*
X117852850Y-87191480D01*
X117830671Y-87201970D01*
X117807572Y-87210235D01*
X117783773Y-87216196D01*
X117759505Y-87219796D01*
X117735001Y-87221000D01*
X117184999Y-87221000D01*
X117160495Y-87219796D01*
X117136227Y-87216196D01*
X117112428Y-87210235D01*
X117089329Y-87201970D01*
X117067150Y-87191480D01*
X117046107Y-87178868D01*
X117026401Y-87164253D01*
X117008223Y-87147777D01*
X116991747Y-87129599D01*
X116977132Y-87109893D01*
X116964520Y-87088850D01*
X116954030Y-87066671D01*
X116945765Y-87043572D01*
X116939804Y-87019773D01*
X116936204Y-86995505D01*
X116935000Y-86971001D01*
X116935000Y-86420999D01*
X116936204Y-86396495D01*
X116939804Y-86372227D01*
X116945765Y-86348428D01*
X116954030Y-86325329D01*
X116964520Y-86303150D01*
X116977132Y-86282107D01*
X116991747Y-86262401D01*
X117008223Y-86244223D01*
X117026401Y-86227747D01*
X117046107Y-86213132D01*
X117067150Y-86200520D01*
X117089329Y-86190030D01*
X117112428Y-86181765D01*
X117136227Y-86175804D01*
X117160495Y-86172204D01*
X117184999Y-86171000D01*
X117735001Y-86171000D01*
X117759505Y-86172204D01*
X117759505Y-86172204D01*
G37*
D20*
X117460000Y-86696000D03*
D10*
G36*
X117759505Y-87472204D02*
X117783773Y-87475804D01*
X117807572Y-87481765D01*
X117830671Y-87490030D01*
X117852850Y-87500520D01*
X117873893Y-87513132D01*
X117893599Y-87527747D01*
X117911777Y-87544223D01*
X117928253Y-87562401D01*
X117942868Y-87582107D01*
X117955480Y-87603150D01*
X117965970Y-87625329D01*
X117974235Y-87648428D01*
X117980196Y-87672227D01*
X117983796Y-87696495D01*
X117985000Y-87720999D01*
X117985000Y-88271001D01*
X117983796Y-88295505D01*
X117980196Y-88319773D01*
X117974235Y-88343572D01*
X117965970Y-88366671D01*
X117955480Y-88388850D01*
X117942868Y-88409893D01*
X117928253Y-88429599D01*
X117911777Y-88447777D01*
X117893599Y-88464253D01*
X117873893Y-88478868D01*
X117852850Y-88491480D01*
X117830671Y-88501970D01*
X117807572Y-88510235D01*
X117783773Y-88516196D01*
X117759505Y-88519796D01*
X117735001Y-88521000D01*
X117184999Y-88521000D01*
X117160495Y-88519796D01*
X117136227Y-88516196D01*
X117112428Y-88510235D01*
X117089329Y-88501970D01*
X117067150Y-88491480D01*
X117046107Y-88478868D01*
X117026401Y-88464253D01*
X117008223Y-88447777D01*
X116991747Y-88429599D01*
X116977132Y-88409893D01*
X116964520Y-88388850D01*
X116954030Y-88366671D01*
X116945765Y-88343572D01*
X116939804Y-88319773D01*
X116936204Y-88295505D01*
X116935000Y-88271001D01*
X116935000Y-87720999D01*
X116936204Y-87696495D01*
X116939804Y-87672227D01*
X116945765Y-87648428D01*
X116954030Y-87625329D01*
X116964520Y-87603150D01*
X116977132Y-87582107D01*
X116991747Y-87562401D01*
X117008223Y-87544223D01*
X117026401Y-87527747D01*
X117046107Y-87513132D01*
X117067150Y-87500520D01*
X117089329Y-87490030D01*
X117112428Y-87481765D01*
X117136227Y-87475804D01*
X117160495Y-87472204D01*
X117184999Y-87471000D01*
X117735001Y-87471000D01*
X117759505Y-87472204D01*
X117759505Y-87472204D01*
G37*
D20*
X117460000Y-87996000D03*
D10*
G36*
X117759505Y-88772204D02*
X117783773Y-88775804D01*
X117807572Y-88781765D01*
X117830671Y-88790030D01*
X117852850Y-88800520D01*
X117873893Y-88813132D01*
X117893599Y-88827747D01*
X117911777Y-88844223D01*
X117928253Y-88862401D01*
X117942868Y-88882107D01*
X117955480Y-88903150D01*
X117965970Y-88925329D01*
X117974235Y-88948428D01*
X117980196Y-88972227D01*
X117983796Y-88996495D01*
X117985000Y-89020999D01*
X117985000Y-89571001D01*
X117983796Y-89595505D01*
X117980196Y-89619773D01*
X117974235Y-89643572D01*
X117965970Y-89666671D01*
X117955480Y-89688850D01*
X117942868Y-89709893D01*
X117928253Y-89729599D01*
X117911777Y-89747777D01*
X117893599Y-89764253D01*
X117873893Y-89778868D01*
X117852850Y-89791480D01*
X117830671Y-89801970D01*
X117807572Y-89810235D01*
X117783773Y-89816196D01*
X117759505Y-89819796D01*
X117735001Y-89821000D01*
X117184999Y-89821000D01*
X117160495Y-89819796D01*
X117136227Y-89816196D01*
X117112428Y-89810235D01*
X117089329Y-89801970D01*
X117067150Y-89791480D01*
X117046107Y-89778868D01*
X117026401Y-89764253D01*
X117008223Y-89747777D01*
X116991747Y-89729599D01*
X116977132Y-89709893D01*
X116964520Y-89688850D01*
X116954030Y-89666671D01*
X116945765Y-89643572D01*
X116939804Y-89619773D01*
X116936204Y-89595505D01*
X116935000Y-89571001D01*
X116935000Y-89020999D01*
X116936204Y-88996495D01*
X116939804Y-88972227D01*
X116945765Y-88948428D01*
X116954030Y-88925329D01*
X116964520Y-88903150D01*
X116977132Y-88882107D01*
X116991747Y-88862401D01*
X117008223Y-88844223D01*
X117026401Y-88827747D01*
X117046107Y-88813132D01*
X117067150Y-88800520D01*
X117089329Y-88790030D01*
X117112428Y-88781765D01*
X117136227Y-88775804D01*
X117160495Y-88772204D01*
X117184999Y-88771000D01*
X117735001Y-88771000D01*
X117759505Y-88772204D01*
X117759505Y-88772204D01*
G37*
D20*
X117460000Y-89296000D03*
D10*
G36*
X117759505Y-90072204D02*
X117783773Y-90075804D01*
X117807572Y-90081765D01*
X117830671Y-90090030D01*
X117852850Y-90100520D01*
X117873893Y-90113132D01*
X117893599Y-90127747D01*
X117911777Y-90144223D01*
X117928253Y-90162401D01*
X117942868Y-90182107D01*
X117955480Y-90203150D01*
X117965970Y-90225329D01*
X117974235Y-90248428D01*
X117980196Y-90272227D01*
X117983796Y-90296495D01*
X117985000Y-90320999D01*
X117985000Y-90871001D01*
X117983796Y-90895505D01*
X117980196Y-90919773D01*
X117974235Y-90943572D01*
X117965970Y-90966671D01*
X117955480Y-90988850D01*
X117942868Y-91009893D01*
X117928253Y-91029599D01*
X117911777Y-91047777D01*
X117893599Y-91064253D01*
X117873893Y-91078868D01*
X117852850Y-91091480D01*
X117830671Y-91101970D01*
X117807572Y-91110235D01*
X117783773Y-91116196D01*
X117759505Y-91119796D01*
X117735001Y-91121000D01*
X117184999Y-91121000D01*
X117160495Y-91119796D01*
X117136227Y-91116196D01*
X117112428Y-91110235D01*
X117089329Y-91101970D01*
X117067150Y-91091480D01*
X117046107Y-91078868D01*
X117026401Y-91064253D01*
X117008223Y-91047777D01*
X116991747Y-91029599D01*
X116977132Y-91009893D01*
X116964520Y-90988850D01*
X116954030Y-90966671D01*
X116945765Y-90943572D01*
X116939804Y-90919773D01*
X116936204Y-90895505D01*
X116935000Y-90871001D01*
X116935000Y-90320999D01*
X116936204Y-90296495D01*
X116939804Y-90272227D01*
X116945765Y-90248428D01*
X116954030Y-90225329D01*
X116964520Y-90203150D01*
X116977132Y-90182107D01*
X116991747Y-90162401D01*
X117008223Y-90144223D01*
X117026401Y-90127747D01*
X117046107Y-90113132D01*
X117067150Y-90100520D01*
X117089329Y-90090030D01*
X117112428Y-90081765D01*
X117136227Y-90075804D01*
X117160495Y-90072204D01*
X117184999Y-90071000D01*
X117735001Y-90071000D01*
X117759505Y-90072204D01*
X117759505Y-90072204D01*
G37*
D20*
X117460000Y-90596000D03*
D10*
G36*
X119059505Y-86172204D02*
X119083773Y-86175804D01*
X119107572Y-86181765D01*
X119130671Y-86190030D01*
X119152850Y-86200520D01*
X119173893Y-86213132D01*
X119193599Y-86227747D01*
X119211777Y-86244223D01*
X119228253Y-86262401D01*
X119242868Y-86282107D01*
X119255480Y-86303150D01*
X119265970Y-86325329D01*
X119274235Y-86348428D01*
X119280196Y-86372227D01*
X119283796Y-86396495D01*
X119285000Y-86420999D01*
X119285000Y-86971001D01*
X119283796Y-86995505D01*
X119280196Y-87019773D01*
X119274235Y-87043572D01*
X119265970Y-87066671D01*
X119255480Y-87088850D01*
X119242868Y-87109893D01*
X119228253Y-87129599D01*
X119211777Y-87147777D01*
X119193599Y-87164253D01*
X119173893Y-87178868D01*
X119152850Y-87191480D01*
X119130671Y-87201970D01*
X119107572Y-87210235D01*
X119083773Y-87216196D01*
X119059505Y-87219796D01*
X119035001Y-87221000D01*
X118484999Y-87221000D01*
X118460495Y-87219796D01*
X118436227Y-87216196D01*
X118412428Y-87210235D01*
X118389329Y-87201970D01*
X118367150Y-87191480D01*
X118346107Y-87178868D01*
X118326401Y-87164253D01*
X118308223Y-87147777D01*
X118291747Y-87129599D01*
X118277132Y-87109893D01*
X118264520Y-87088850D01*
X118254030Y-87066671D01*
X118245765Y-87043572D01*
X118239804Y-87019773D01*
X118236204Y-86995505D01*
X118235000Y-86971001D01*
X118235000Y-86420999D01*
X118236204Y-86396495D01*
X118239804Y-86372227D01*
X118245765Y-86348428D01*
X118254030Y-86325329D01*
X118264520Y-86303150D01*
X118277132Y-86282107D01*
X118291747Y-86262401D01*
X118308223Y-86244223D01*
X118326401Y-86227747D01*
X118346107Y-86213132D01*
X118367150Y-86200520D01*
X118389329Y-86190030D01*
X118412428Y-86181765D01*
X118436227Y-86175804D01*
X118460495Y-86172204D01*
X118484999Y-86171000D01*
X119035001Y-86171000D01*
X119059505Y-86172204D01*
X119059505Y-86172204D01*
G37*
D20*
X118760000Y-86696000D03*
D10*
G36*
X119059505Y-87472204D02*
X119083773Y-87475804D01*
X119107572Y-87481765D01*
X119130671Y-87490030D01*
X119152850Y-87500520D01*
X119173893Y-87513132D01*
X119193599Y-87527747D01*
X119211777Y-87544223D01*
X119228253Y-87562401D01*
X119242868Y-87582107D01*
X119255480Y-87603150D01*
X119265970Y-87625329D01*
X119274235Y-87648428D01*
X119280196Y-87672227D01*
X119283796Y-87696495D01*
X119285000Y-87720999D01*
X119285000Y-88271001D01*
X119283796Y-88295505D01*
X119280196Y-88319773D01*
X119274235Y-88343572D01*
X119265970Y-88366671D01*
X119255480Y-88388850D01*
X119242868Y-88409893D01*
X119228253Y-88429599D01*
X119211777Y-88447777D01*
X119193599Y-88464253D01*
X119173893Y-88478868D01*
X119152850Y-88491480D01*
X119130671Y-88501970D01*
X119107572Y-88510235D01*
X119083773Y-88516196D01*
X119059505Y-88519796D01*
X119035001Y-88521000D01*
X118484999Y-88521000D01*
X118460495Y-88519796D01*
X118436227Y-88516196D01*
X118412428Y-88510235D01*
X118389329Y-88501970D01*
X118367150Y-88491480D01*
X118346107Y-88478868D01*
X118326401Y-88464253D01*
X118308223Y-88447777D01*
X118291747Y-88429599D01*
X118277132Y-88409893D01*
X118264520Y-88388850D01*
X118254030Y-88366671D01*
X118245765Y-88343572D01*
X118239804Y-88319773D01*
X118236204Y-88295505D01*
X118235000Y-88271001D01*
X118235000Y-87720999D01*
X118236204Y-87696495D01*
X118239804Y-87672227D01*
X118245765Y-87648428D01*
X118254030Y-87625329D01*
X118264520Y-87603150D01*
X118277132Y-87582107D01*
X118291747Y-87562401D01*
X118308223Y-87544223D01*
X118326401Y-87527747D01*
X118346107Y-87513132D01*
X118367150Y-87500520D01*
X118389329Y-87490030D01*
X118412428Y-87481765D01*
X118436227Y-87475804D01*
X118460495Y-87472204D01*
X118484999Y-87471000D01*
X119035001Y-87471000D01*
X119059505Y-87472204D01*
X119059505Y-87472204D01*
G37*
D20*
X118760000Y-87996000D03*
D10*
G36*
X119059505Y-88772204D02*
X119083773Y-88775804D01*
X119107572Y-88781765D01*
X119130671Y-88790030D01*
X119152850Y-88800520D01*
X119173893Y-88813132D01*
X119193599Y-88827747D01*
X119211777Y-88844223D01*
X119228253Y-88862401D01*
X119242868Y-88882107D01*
X119255480Y-88903150D01*
X119265970Y-88925329D01*
X119274235Y-88948428D01*
X119280196Y-88972227D01*
X119283796Y-88996495D01*
X119285000Y-89020999D01*
X119285000Y-89571001D01*
X119283796Y-89595505D01*
X119280196Y-89619773D01*
X119274235Y-89643572D01*
X119265970Y-89666671D01*
X119255480Y-89688850D01*
X119242868Y-89709893D01*
X119228253Y-89729599D01*
X119211777Y-89747777D01*
X119193599Y-89764253D01*
X119173893Y-89778868D01*
X119152850Y-89791480D01*
X119130671Y-89801970D01*
X119107572Y-89810235D01*
X119083773Y-89816196D01*
X119059505Y-89819796D01*
X119035001Y-89821000D01*
X118484999Y-89821000D01*
X118460495Y-89819796D01*
X118436227Y-89816196D01*
X118412428Y-89810235D01*
X118389329Y-89801970D01*
X118367150Y-89791480D01*
X118346107Y-89778868D01*
X118326401Y-89764253D01*
X118308223Y-89747777D01*
X118291747Y-89729599D01*
X118277132Y-89709893D01*
X118264520Y-89688850D01*
X118254030Y-89666671D01*
X118245765Y-89643572D01*
X118239804Y-89619773D01*
X118236204Y-89595505D01*
X118235000Y-89571001D01*
X118235000Y-89020999D01*
X118236204Y-88996495D01*
X118239804Y-88972227D01*
X118245765Y-88948428D01*
X118254030Y-88925329D01*
X118264520Y-88903150D01*
X118277132Y-88882107D01*
X118291747Y-88862401D01*
X118308223Y-88844223D01*
X118326401Y-88827747D01*
X118346107Y-88813132D01*
X118367150Y-88800520D01*
X118389329Y-88790030D01*
X118412428Y-88781765D01*
X118436227Y-88775804D01*
X118460495Y-88772204D01*
X118484999Y-88771000D01*
X119035001Y-88771000D01*
X119059505Y-88772204D01*
X119059505Y-88772204D01*
G37*
D20*
X118760000Y-89296000D03*
D10*
G36*
X119059505Y-90072204D02*
X119083773Y-90075804D01*
X119107572Y-90081765D01*
X119130671Y-90090030D01*
X119152850Y-90100520D01*
X119173893Y-90113132D01*
X119193599Y-90127747D01*
X119211777Y-90144223D01*
X119228253Y-90162401D01*
X119242868Y-90182107D01*
X119255480Y-90203150D01*
X119265970Y-90225329D01*
X119274235Y-90248428D01*
X119280196Y-90272227D01*
X119283796Y-90296495D01*
X119285000Y-90320999D01*
X119285000Y-90871001D01*
X119283796Y-90895505D01*
X119280196Y-90919773D01*
X119274235Y-90943572D01*
X119265970Y-90966671D01*
X119255480Y-90988850D01*
X119242868Y-91009893D01*
X119228253Y-91029599D01*
X119211777Y-91047777D01*
X119193599Y-91064253D01*
X119173893Y-91078868D01*
X119152850Y-91091480D01*
X119130671Y-91101970D01*
X119107572Y-91110235D01*
X119083773Y-91116196D01*
X119059505Y-91119796D01*
X119035001Y-91121000D01*
X118484999Y-91121000D01*
X118460495Y-91119796D01*
X118436227Y-91116196D01*
X118412428Y-91110235D01*
X118389329Y-91101970D01*
X118367150Y-91091480D01*
X118346107Y-91078868D01*
X118326401Y-91064253D01*
X118308223Y-91047777D01*
X118291747Y-91029599D01*
X118277132Y-91009893D01*
X118264520Y-90988850D01*
X118254030Y-90966671D01*
X118245765Y-90943572D01*
X118239804Y-90919773D01*
X118236204Y-90895505D01*
X118235000Y-90871001D01*
X118235000Y-90320999D01*
X118236204Y-90296495D01*
X118239804Y-90272227D01*
X118245765Y-90248428D01*
X118254030Y-90225329D01*
X118264520Y-90203150D01*
X118277132Y-90182107D01*
X118291747Y-90162401D01*
X118308223Y-90144223D01*
X118326401Y-90127747D01*
X118346107Y-90113132D01*
X118367150Y-90100520D01*
X118389329Y-90090030D01*
X118412428Y-90081765D01*
X118436227Y-90075804D01*
X118460495Y-90072204D01*
X118484999Y-90071000D01*
X119035001Y-90071000D01*
X119059505Y-90072204D01*
X119059505Y-90072204D01*
G37*
D20*
X118760000Y-90596000D03*
D10*
G36*
X120359505Y-86172204D02*
X120383773Y-86175804D01*
X120407572Y-86181765D01*
X120430671Y-86190030D01*
X120452850Y-86200520D01*
X120473893Y-86213132D01*
X120493599Y-86227747D01*
X120511777Y-86244223D01*
X120528253Y-86262401D01*
X120542868Y-86282107D01*
X120555480Y-86303150D01*
X120565970Y-86325329D01*
X120574235Y-86348428D01*
X120580196Y-86372227D01*
X120583796Y-86396495D01*
X120585000Y-86420999D01*
X120585000Y-86971001D01*
X120583796Y-86995505D01*
X120580196Y-87019773D01*
X120574235Y-87043572D01*
X120565970Y-87066671D01*
X120555480Y-87088850D01*
X120542868Y-87109893D01*
X120528253Y-87129599D01*
X120511777Y-87147777D01*
X120493599Y-87164253D01*
X120473893Y-87178868D01*
X120452850Y-87191480D01*
X120430671Y-87201970D01*
X120407572Y-87210235D01*
X120383773Y-87216196D01*
X120359505Y-87219796D01*
X120335001Y-87221000D01*
X119784999Y-87221000D01*
X119760495Y-87219796D01*
X119736227Y-87216196D01*
X119712428Y-87210235D01*
X119689329Y-87201970D01*
X119667150Y-87191480D01*
X119646107Y-87178868D01*
X119626401Y-87164253D01*
X119608223Y-87147777D01*
X119591747Y-87129599D01*
X119577132Y-87109893D01*
X119564520Y-87088850D01*
X119554030Y-87066671D01*
X119545765Y-87043572D01*
X119539804Y-87019773D01*
X119536204Y-86995505D01*
X119535000Y-86971001D01*
X119535000Y-86420999D01*
X119536204Y-86396495D01*
X119539804Y-86372227D01*
X119545765Y-86348428D01*
X119554030Y-86325329D01*
X119564520Y-86303150D01*
X119577132Y-86282107D01*
X119591747Y-86262401D01*
X119608223Y-86244223D01*
X119626401Y-86227747D01*
X119646107Y-86213132D01*
X119667150Y-86200520D01*
X119689329Y-86190030D01*
X119712428Y-86181765D01*
X119736227Y-86175804D01*
X119760495Y-86172204D01*
X119784999Y-86171000D01*
X120335001Y-86171000D01*
X120359505Y-86172204D01*
X120359505Y-86172204D01*
G37*
D20*
X120060000Y-86696000D03*
D10*
G36*
X120359505Y-87472204D02*
X120383773Y-87475804D01*
X120407572Y-87481765D01*
X120430671Y-87490030D01*
X120452850Y-87500520D01*
X120473893Y-87513132D01*
X120493599Y-87527747D01*
X120511777Y-87544223D01*
X120528253Y-87562401D01*
X120542868Y-87582107D01*
X120555480Y-87603150D01*
X120565970Y-87625329D01*
X120574235Y-87648428D01*
X120580196Y-87672227D01*
X120583796Y-87696495D01*
X120585000Y-87720999D01*
X120585000Y-88271001D01*
X120583796Y-88295505D01*
X120580196Y-88319773D01*
X120574235Y-88343572D01*
X120565970Y-88366671D01*
X120555480Y-88388850D01*
X120542868Y-88409893D01*
X120528253Y-88429599D01*
X120511777Y-88447777D01*
X120493599Y-88464253D01*
X120473893Y-88478868D01*
X120452850Y-88491480D01*
X120430671Y-88501970D01*
X120407572Y-88510235D01*
X120383773Y-88516196D01*
X120359505Y-88519796D01*
X120335001Y-88521000D01*
X119784999Y-88521000D01*
X119760495Y-88519796D01*
X119736227Y-88516196D01*
X119712428Y-88510235D01*
X119689329Y-88501970D01*
X119667150Y-88491480D01*
X119646107Y-88478868D01*
X119626401Y-88464253D01*
X119608223Y-88447777D01*
X119591747Y-88429599D01*
X119577132Y-88409893D01*
X119564520Y-88388850D01*
X119554030Y-88366671D01*
X119545765Y-88343572D01*
X119539804Y-88319773D01*
X119536204Y-88295505D01*
X119535000Y-88271001D01*
X119535000Y-87720999D01*
X119536204Y-87696495D01*
X119539804Y-87672227D01*
X119545765Y-87648428D01*
X119554030Y-87625329D01*
X119564520Y-87603150D01*
X119577132Y-87582107D01*
X119591747Y-87562401D01*
X119608223Y-87544223D01*
X119626401Y-87527747D01*
X119646107Y-87513132D01*
X119667150Y-87500520D01*
X119689329Y-87490030D01*
X119712428Y-87481765D01*
X119736227Y-87475804D01*
X119760495Y-87472204D01*
X119784999Y-87471000D01*
X120335001Y-87471000D01*
X120359505Y-87472204D01*
X120359505Y-87472204D01*
G37*
D20*
X120060000Y-87996000D03*
D10*
G36*
X120359505Y-88772204D02*
X120383773Y-88775804D01*
X120407572Y-88781765D01*
X120430671Y-88790030D01*
X120452850Y-88800520D01*
X120473893Y-88813132D01*
X120493599Y-88827747D01*
X120511777Y-88844223D01*
X120528253Y-88862401D01*
X120542868Y-88882107D01*
X120555480Y-88903150D01*
X120565970Y-88925329D01*
X120574235Y-88948428D01*
X120580196Y-88972227D01*
X120583796Y-88996495D01*
X120585000Y-89020999D01*
X120585000Y-89571001D01*
X120583796Y-89595505D01*
X120580196Y-89619773D01*
X120574235Y-89643572D01*
X120565970Y-89666671D01*
X120555480Y-89688850D01*
X120542868Y-89709893D01*
X120528253Y-89729599D01*
X120511777Y-89747777D01*
X120493599Y-89764253D01*
X120473893Y-89778868D01*
X120452850Y-89791480D01*
X120430671Y-89801970D01*
X120407572Y-89810235D01*
X120383773Y-89816196D01*
X120359505Y-89819796D01*
X120335001Y-89821000D01*
X119784999Y-89821000D01*
X119760495Y-89819796D01*
X119736227Y-89816196D01*
X119712428Y-89810235D01*
X119689329Y-89801970D01*
X119667150Y-89791480D01*
X119646107Y-89778868D01*
X119626401Y-89764253D01*
X119608223Y-89747777D01*
X119591747Y-89729599D01*
X119577132Y-89709893D01*
X119564520Y-89688850D01*
X119554030Y-89666671D01*
X119545765Y-89643572D01*
X119539804Y-89619773D01*
X119536204Y-89595505D01*
X119535000Y-89571001D01*
X119535000Y-89020999D01*
X119536204Y-88996495D01*
X119539804Y-88972227D01*
X119545765Y-88948428D01*
X119554030Y-88925329D01*
X119564520Y-88903150D01*
X119577132Y-88882107D01*
X119591747Y-88862401D01*
X119608223Y-88844223D01*
X119626401Y-88827747D01*
X119646107Y-88813132D01*
X119667150Y-88800520D01*
X119689329Y-88790030D01*
X119712428Y-88781765D01*
X119736227Y-88775804D01*
X119760495Y-88772204D01*
X119784999Y-88771000D01*
X120335001Y-88771000D01*
X120359505Y-88772204D01*
X120359505Y-88772204D01*
G37*
D20*
X120060000Y-89296000D03*
D10*
G36*
X120359505Y-90072204D02*
X120383773Y-90075804D01*
X120407572Y-90081765D01*
X120430671Y-90090030D01*
X120452850Y-90100520D01*
X120473893Y-90113132D01*
X120493599Y-90127747D01*
X120511777Y-90144223D01*
X120528253Y-90162401D01*
X120542868Y-90182107D01*
X120555480Y-90203150D01*
X120565970Y-90225329D01*
X120574235Y-90248428D01*
X120580196Y-90272227D01*
X120583796Y-90296495D01*
X120585000Y-90320999D01*
X120585000Y-90871001D01*
X120583796Y-90895505D01*
X120580196Y-90919773D01*
X120574235Y-90943572D01*
X120565970Y-90966671D01*
X120555480Y-90988850D01*
X120542868Y-91009893D01*
X120528253Y-91029599D01*
X120511777Y-91047777D01*
X120493599Y-91064253D01*
X120473893Y-91078868D01*
X120452850Y-91091480D01*
X120430671Y-91101970D01*
X120407572Y-91110235D01*
X120383773Y-91116196D01*
X120359505Y-91119796D01*
X120335001Y-91121000D01*
X119784999Y-91121000D01*
X119760495Y-91119796D01*
X119736227Y-91116196D01*
X119712428Y-91110235D01*
X119689329Y-91101970D01*
X119667150Y-91091480D01*
X119646107Y-91078868D01*
X119626401Y-91064253D01*
X119608223Y-91047777D01*
X119591747Y-91029599D01*
X119577132Y-91009893D01*
X119564520Y-90988850D01*
X119554030Y-90966671D01*
X119545765Y-90943572D01*
X119539804Y-90919773D01*
X119536204Y-90895505D01*
X119535000Y-90871001D01*
X119535000Y-90320999D01*
X119536204Y-90296495D01*
X119539804Y-90272227D01*
X119545765Y-90248428D01*
X119554030Y-90225329D01*
X119564520Y-90203150D01*
X119577132Y-90182107D01*
X119591747Y-90162401D01*
X119608223Y-90144223D01*
X119626401Y-90127747D01*
X119646107Y-90113132D01*
X119667150Y-90100520D01*
X119689329Y-90090030D01*
X119712428Y-90081765D01*
X119736227Y-90075804D01*
X119760495Y-90072204D01*
X119784999Y-90071000D01*
X120335001Y-90071000D01*
X120359505Y-90072204D01*
X120359505Y-90072204D01*
G37*
D20*
X120060000Y-90596000D03*
D10*
G36*
X115228626Y-86021301D02*
X115234693Y-86022201D01*
X115240643Y-86023691D01*
X115246418Y-86025758D01*
X115251962Y-86028380D01*
X115257223Y-86031533D01*
X115262150Y-86035187D01*
X115266694Y-86039306D01*
X115270813Y-86043850D01*
X115274467Y-86048777D01*
X115277620Y-86054038D01*
X115280242Y-86059582D01*
X115282309Y-86065357D01*
X115283799Y-86071307D01*
X115284699Y-86077374D01*
X115285000Y-86083500D01*
X115285000Y-86208500D01*
X115284699Y-86214626D01*
X115283799Y-86220693D01*
X115282309Y-86226643D01*
X115280242Y-86232418D01*
X115277620Y-86237962D01*
X115274467Y-86243223D01*
X115270813Y-86248150D01*
X115266694Y-86252694D01*
X115262150Y-86256813D01*
X115257223Y-86260467D01*
X115251962Y-86263620D01*
X115246418Y-86266242D01*
X115240643Y-86268309D01*
X115234693Y-86269799D01*
X115228626Y-86270699D01*
X115222500Y-86271000D01*
X114297500Y-86271000D01*
X114291374Y-86270699D01*
X114285307Y-86269799D01*
X114279357Y-86268309D01*
X114273582Y-86266242D01*
X114268038Y-86263620D01*
X114262777Y-86260467D01*
X114257850Y-86256813D01*
X114253306Y-86252694D01*
X114249187Y-86248150D01*
X114245533Y-86243223D01*
X114242380Y-86237962D01*
X114239758Y-86232418D01*
X114237691Y-86226643D01*
X114236201Y-86220693D01*
X114235301Y-86214626D01*
X114235000Y-86208500D01*
X114235000Y-86083500D01*
X114235301Y-86077374D01*
X114236201Y-86071307D01*
X114237691Y-86065357D01*
X114239758Y-86059582D01*
X114242380Y-86054038D01*
X114245533Y-86048777D01*
X114249187Y-86043850D01*
X114253306Y-86039306D01*
X114257850Y-86035187D01*
X114262777Y-86031533D01*
X114268038Y-86028380D01*
X114273582Y-86025758D01*
X114279357Y-86023691D01*
X114285307Y-86022201D01*
X114291374Y-86021301D01*
X114297500Y-86021000D01*
X115222500Y-86021000D01*
X115228626Y-86021301D01*
X115228626Y-86021301D01*
G37*
D21*
X114760000Y-86146000D03*
D10*
G36*
X115228626Y-86521301D02*
X115234693Y-86522201D01*
X115240643Y-86523691D01*
X115246418Y-86525758D01*
X115251962Y-86528380D01*
X115257223Y-86531533D01*
X115262150Y-86535187D01*
X115266694Y-86539306D01*
X115270813Y-86543850D01*
X115274467Y-86548777D01*
X115277620Y-86554038D01*
X115280242Y-86559582D01*
X115282309Y-86565357D01*
X115283799Y-86571307D01*
X115284699Y-86577374D01*
X115285000Y-86583500D01*
X115285000Y-86708500D01*
X115284699Y-86714626D01*
X115283799Y-86720693D01*
X115282309Y-86726643D01*
X115280242Y-86732418D01*
X115277620Y-86737962D01*
X115274467Y-86743223D01*
X115270813Y-86748150D01*
X115266694Y-86752694D01*
X115262150Y-86756813D01*
X115257223Y-86760467D01*
X115251962Y-86763620D01*
X115246418Y-86766242D01*
X115240643Y-86768309D01*
X115234693Y-86769799D01*
X115228626Y-86770699D01*
X115222500Y-86771000D01*
X114297500Y-86771000D01*
X114291374Y-86770699D01*
X114285307Y-86769799D01*
X114279357Y-86768309D01*
X114273582Y-86766242D01*
X114268038Y-86763620D01*
X114262777Y-86760467D01*
X114257850Y-86756813D01*
X114253306Y-86752694D01*
X114249187Y-86748150D01*
X114245533Y-86743223D01*
X114242380Y-86737962D01*
X114239758Y-86732418D01*
X114237691Y-86726643D01*
X114236201Y-86720693D01*
X114235301Y-86714626D01*
X114235000Y-86708500D01*
X114235000Y-86583500D01*
X114235301Y-86577374D01*
X114236201Y-86571307D01*
X114237691Y-86565357D01*
X114239758Y-86559582D01*
X114242380Y-86554038D01*
X114245533Y-86548777D01*
X114249187Y-86543850D01*
X114253306Y-86539306D01*
X114257850Y-86535187D01*
X114262777Y-86531533D01*
X114268038Y-86528380D01*
X114273582Y-86525758D01*
X114279357Y-86523691D01*
X114285307Y-86522201D01*
X114291374Y-86521301D01*
X114297500Y-86521000D01*
X115222500Y-86521000D01*
X115228626Y-86521301D01*
X115228626Y-86521301D01*
G37*
D21*
X114760000Y-86646000D03*
D10*
G36*
X115228626Y-87021301D02*
X115234693Y-87022201D01*
X115240643Y-87023691D01*
X115246418Y-87025758D01*
X115251962Y-87028380D01*
X115257223Y-87031533D01*
X115262150Y-87035187D01*
X115266694Y-87039306D01*
X115270813Y-87043850D01*
X115274467Y-87048777D01*
X115277620Y-87054038D01*
X115280242Y-87059582D01*
X115282309Y-87065357D01*
X115283799Y-87071307D01*
X115284699Y-87077374D01*
X115285000Y-87083500D01*
X115285000Y-87208500D01*
X115284699Y-87214626D01*
X115283799Y-87220693D01*
X115282309Y-87226643D01*
X115280242Y-87232418D01*
X115277620Y-87237962D01*
X115274467Y-87243223D01*
X115270813Y-87248150D01*
X115266694Y-87252694D01*
X115262150Y-87256813D01*
X115257223Y-87260467D01*
X115251962Y-87263620D01*
X115246418Y-87266242D01*
X115240643Y-87268309D01*
X115234693Y-87269799D01*
X115228626Y-87270699D01*
X115222500Y-87271000D01*
X114297500Y-87271000D01*
X114291374Y-87270699D01*
X114285307Y-87269799D01*
X114279357Y-87268309D01*
X114273582Y-87266242D01*
X114268038Y-87263620D01*
X114262777Y-87260467D01*
X114257850Y-87256813D01*
X114253306Y-87252694D01*
X114249187Y-87248150D01*
X114245533Y-87243223D01*
X114242380Y-87237962D01*
X114239758Y-87232418D01*
X114237691Y-87226643D01*
X114236201Y-87220693D01*
X114235301Y-87214626D01*
X114235000Y-87208500D01*
X114235000Y-87083500D01*
X114235301Y-87077374D01*
X114236201Y-87071307D01*
X114237691Y-87065357D01*
X114239758Y-87059582D01*
X114242380Y-87054038D01*
X114245533Y-87048777D01*
X114249187Y-87043850D01*
X114253306Y-87039306D01*
X114257850Y-87035187D01*
X114262777Y-87031533D01*
X114268038Y-87028380D01*
X114273582Y-87025758D01*
X114279357Y-87023691D01*
X114285307Y-87022201D01*
X114291374Y-87021301D01*
X114297500Y-87021000D01*
X115222500Y-87021000D01*
X115228626Y-87021301D01*
X115228626Y-87021301D01*
G37*
D21*
X114760000Y-87146000D03*
D10*
G36*
X115228626Y-87521301D02*
X115234693Y-87522201D01*
X115240643Y-87523691D01*
X115246418Y-87525758D01*
X115251962Y-87528380D01*
X115257223Y-87531533D01*
X115262150Y-87535187D01*
X115266694Y-87539306D01*
X115270813Y-87543850D01*
X115274467Y-87548777D01*
X115277620Y-87554038D01*
X115280242Y-87559582D01*
X115282309Y-87565357D01*
X115283799Y-87571307D01*
X115284699Y-87577374D01*
X115285000Y-87583500D01*
X115285000Y-87708500D01*
X115284699Y-87714626D01*
X115283799Y-87720693D01*
X115282309Y-87726643D01*
X115280242Y-87732418D01*
X115277620Y-87737962D01*
X115274467Y-87743223D01*
X115270813Y-87748150D01*
X115266694Y-87752694D01*
X115262150Y-87756813D01*
X115257223Y-87760467D01*
X115251962Y-87763620D01*
X115246418Y-87766242D01*
X115240643Y-87768309D01*
X115234693Y-87769799D01*
X115228626Y-87770699D01*
X115222500Y-87771000D01*
X114297500Y-87771000D01*
X114291374Y-87770699D01*
X114285307Y-87769799D01*
X114279357Y-87768309D01*
X114273582Y-87766242D01*
X114268038Y-87763620D01*
X114262777Y-87760467D01*
X114257850Y-87756813D01*
X114253306Y-87752694D01*
X114249187Y-87748150D01*
X114245533Y-87743223D01*
X114242380Y-87737962D01*
X114239758Y-87732418D01*
X114237691Y-87726643D01*
X114236201Y-87720693D01*
X114235301Y-87714626D01*
X114235000Y-87708500D01*
X114235000Y-87583500D01*
X114235301Y-87577374D01*
X114236201Y-87571307D01*
X114237691Y-87565357D01*
X114239758Y-87559582D01*
X114242380Y-87554038D01*
X114245533Y-87548777D01*
X114249187Y-87543850D01*
X114253306Y-87539306D01*
X114257850Y-87535187D01*
X114262777Y-87531533D01*
X114268038Y-87528380D01*
X114273582Y-87525758D01*
X114279357Y-87523691D01*
X114285307Y-87522201D01*
X114291374Y-87521301D01*
X114297500Y-87521000D01*
X115222500Y-87521000D01*
X115228626Y-87521301D01*
X115228626Y-87521301D01*
G37*
D21*
X114760000Y-87646000D03*
D10*
G36*
X115228626Y-88021301D02*
X115234693Y-88022201D01*
X115240643Y-88023691D01*
X115246418Y-88025758D01*
X115251962Y-88028380D01*
X115257223Y-88031533D01*
X115262150Y-88035187D01*
X115266694Y-88039306D01*
X115270813Y-88043850D01*
X115274467Y-88048777D01*
X115277620Y-88054038D01*
X115280242Y-88059582D01*
X115282309Y-88065357D01*
X115283799Y-88071307D01*
X115284699Y-88077374D01*
X115285000Y-88083500D01*
X115285000Y-88208500D01*
X115284699Y-88214626D01*
X115283799Y-88220693D01*
X115282309Y-88226643D01*
X115280242Y-88232418D01*
X115277620Y-88237962D01*
X115274467Y-88243223D01*
X115270813Y-88248150D01*
X115266694Y-88252694D01*
X115262150Y-88256813D01*
X115257223Y-88260467D01*
X115251962Y-88263620D01*
X115246418Y-88266242D01*
X115240643Y-88268309D01*
X115234693Y-88269799D01*
X115228626Y-88270699D01*
X115222500Y-88271000D01*
X114297500Y-88271000D01*
X114291374Y-88270699D01*
X114285307Y-88269799D01*
X114279357Y-88268309D01*
X114273582Y-88266242D01*
X114268038Y-88263620D01*
X114262777Y-88260467D01*
X114257850Y-88256813D01*
X114253306Y-88252694D01*
X114249187Y-88248150D01*
X114245533Y-88243223D01*
X114242380Y-88237962D01*
X114239758Y-88232418D01*
X114237691Y-88226643D01*
X114236201Y-88220693D01*
X114235301Y-88214626D01*
X114235000Y-88208500D01*
X114235000Y-88083500D01*
X114235301Y-88077374D01*
X114236201Y-88071307D01*
X114237691Y-88065357D01*
X114239758Y-88059582D01*
X114242380Y-88054038D01*
X114245533Y-88048777D01*
X114249187Y-88043850D01*
X114253306Y-88039306D01*
X114257850Y-88035187D01*
X114262777Y-88031533D01*
X114268038Y-88028380D01*
X114273582Y-88025758D01*
X114279357Y-88023691D01*
X114285307Y-88022201D01*
X114291374Y-88021301D01*
X114297500Y-88021000D01*
X115222500Y-88021000D01*
X115228626Y-88021301D01*
X115228626Y-88021301D01*
G37*
D21*
X114760000Y-88146000D03*
D10*
G36*
X115228626Y-88521301D02*
X115234693Y-88522201D01*
X115240643Y-88523691D01*
X115246418Y-88525758D01*
X115251962Y-88528380D01*
X115257223Y-88531533D01*
X115262150Y-88535187D01*
X115266694Y-88539306D01*
X115270813Y-88543850D01*
X115274467Y-88548777D01*
X115277620Y-88554038D01*
X115280242Y-88559582D01*
X115282309Y-88565357D01*
X115283799Y-88571307D01*
X115284699Y-88577374D01*
X115285000Y-88583500D01*
X115285000Y-88708500D01*
X115284699Y-88714626D01*
X115283799Y-88720693D01*
X115282309Y-88726643D01*
X115280242Y-88732418D01*
X115277620Y-88737962D01*
X115274467Y-88743223D01*
X115270813Y-88748150D01*
X115266694Y-88752694D01*
X115262150Y-88756813D01*
X115257223Y-88760467D01*
X115251962Y-88763620D01*
X115246418Y-88766242D01*
X115240643Y-88768309D01*
X115234693Y-88769799D01*
X115228626Y-88770699D01*
X115222500Y-88771000D01*
X114297500Y-88771000D01*
X114291374Y-88770699D01*
X114285307Y-88769799D01*
X114279357Y-88768309D01*
X114273582Y-88766242D01*
X114268038Y-88763620D01*
X114262777Y-88760467D01*
X114257850Y-88756813D01*
X114253306Y-88752694D01*
X114249187Y-88748150D01*
X114245533Y-88743223D01*
X114242380Y-88737962D01*
X114239758Y-88732418D01*
X114237691Y-88726643D01*
X114236201Y-88720693D01*
X114235301Y-88714626D01*
X114235000Y-88708500D01*
X114235000Y-88583500D01*
X114235301Y-88577374D01*
X114236201Y-88571307D01*
X114237691Y-88565357D01*
X114239758Y-88559582D01*
X114242380Y-88554038D01*
X114245533Y-88548777D01*
X114249187Y-88543850D01*
X114253306Y-88539306D01*
X114257850Y-88535187D01*
X114262777Y-88531533D01*
X114268038Y-88528380D01*
X114273582Y-88525758D01*
X114279357Y-88523691D01*
X114285307Y-88522201D01*
X114291374Y-88521301D01*
X114297500Y-88521000D01*
X115222500Y-88521000D01*
X115228626Y-88521301D01*
X115228626Y-88521301D01*
G37*
D21*
X114760000Y-88646000D03*
D10*
G36*
X115228626Y-89021301D02*
X115234693Y-89022201D01*
X115240643Y-89023691D01*
X115246418Y-89025758D01*
X115251962Y-89028380D01*
X115257223Y-89031533D01*
X115262150Y-89035187D01*
X115266694Y-89039306D01*
X115270813Y-89043850D01*
X115274467Y-89048777D01*
X115277620Y-89054038D01*
X115280242Y-89059582D01*
X115282309Y-89065357D01*
X115283799Y-89071307D01*
X115284699Y-89077374D01*
X115285000Y-89083500D01*
X115285000Y-89208500D01*
X115284699Y-89214626D01*
X115283799Y-89220693D01*
X115282309Y-89226643D01*
X115280242Y-89232418D01*
X115277620Y-89237962D01*
X115274467Y-89243223D01*
X115270813Y-89248150D01*
X115266694Y-89252694D01*
X115262150Y-89256813D01*
X115257223Y-89260467D01*
X115251962Y-89263620D01*
X115246418Y-89266242D01*
X115240643Y-89268309D01*
X115234693Y-89269799D01*
X115228626Y-89270699D01*
X115222500Y-89271000D01*
X114297500Y-89271000D01*
X114291374Y-89270699D01*
X114285307Y-89269799D01*
X114279357Y-89268309D01*
X114273582Y-89266242D01*
X114268038Y-89263620D01*
X114262777Y-89260467D01*
X114257850Y-89256813D01*
X114253306Y-89252694D01*
X114249187Y-89248150D01*
X114245533Y-89243223D01*
X114242380Y-89237962D01*
X114239758Y-89232418D01*
X114237691Y-89226643D01*
X114236201Y-89220693D01*
X114235301Y-89214626D01*
X114235000Y-89208500D01*
X114235000Y-89083500D01*
X114235301Y-89077374D01*
X114236201Y-89071307D01*
X114237691Y-89065357D01*
X114239758Y-89059582D01*
X114242380Y-89054038D01*
X114245533Y-89048777D01*
X114249187Y-89043850D01*
X114253306Y-89039306D01*
X114257850Y-89035187D01*
X114262777Y-89031533D01*
X114268038Y-89028380D01*
X114273582Y-89025758D01*
X114279357Y-89023691D01*
X114285307Y-89022201D01*
X114291374Y-89021301D01*
X114297500Y-89021000D01*
X115222500Y-89021000D01*
X115228626Y-89021301D01*
X115228626Y-89021301D01*
G37*
D21*
X114760000Y-89146000D03*
D10*
G36*
X115228626Y-89521301D02*
X115234693Y-89522201D01*
X115240643Y-89523691D01*
X115246418Y-89525758D01*
X115251962Y-89528380D01*
X115257223Y-89531533D01*
X115262150Y-89535187D01*
X115266694Y-89539306D01*
X115270813Y-89543850D01*
X115274467Y-89548777D01*
X115277620Y-89554038D01*
X115280242Y-89559582D01*
X115282309Y-89565357D01*
X115283799Y-89571307D01*
X115284699Y-89577374D01*
X115285000Y-89583500D01*
X115285000Y-89708500D01*
X115284699Y-89714626D01*
X115283799Y-89720693D01*
X115282309Y-89726643D01*
X115280242Y-89732418D01*
X115277620Y-89737962D01*
X115274467Y-89743223D01*
X115270813Y-89748150D01*
X115266694Y-89752694D01*
X115262150Y-89756813D01*
X115257223Y-89760467D01*
X115251962Y-89763620D01*
X115246418Y-89766242D01*
X115240643Y-89768309D01*
X115234693Y-89769799D01*
X115228626Y-89770699D01*
X115222500Y-89771000D01*
X114297500Y-89771000D01*
X114291374Y-89770699D01*
X114285307Y-89769799D01*
X114279357Y-89768309D01*
X114273582Y-89766242D01*
X114268038Y-89763620D01*
X114262777Y-89760467D01*
X114257850Y-89756813D01*
X114253306Y-89752694D01*
X114249187Y-89748150D01*
X114245533Y-89743223D01*
X114242380Y-89737962D01*
X114239758Y-89732418D01*
X114237691Y-89726643D01*
X114236201Y-89720693D01*
X114235301Y-89714626D01*
X114235000Y-89708500D01*
X114235000Y-89583500D01*
X114235301Y-89577374D01*
X114236201Y-89571307D01*
X114237691Y-89565357D01*
X114239758Y-89559582D01*
X114242380Y-89554038D01*
X114245533Y-89548777D01*
X114249187Y-89543850D01*
X114253306Y-89539306D01*
X114257850Y-89535187D01*
X114262777Y-89531533D01*
X114268038Y-89528380D01*
X114273582Y-89525758D01*
X114279357Y-89523691D01*
X114285307Y-89522201D01*
X114291374Y-89521301D01*
X114297500Y-89521000D01*
X115222500Y-89521000D01*
X115228626Y-89521301D01*
X115228626Y-89521301D01*
G37*
D21*
X114760000Y-89646000D03*
D10*
G36*
X115228626Y-90021301D02*
X115234693Y-90022201D01*
X115240643Y-90023691D01*
X115246418Y-90025758D01*
X115251962Y-90028380D01*
X115257223Y-90031533D01*
X115262150Y-90035187D01*
X115266694Y-90039306D01*
X115270813Y-90043850D01*
X115274467Y-90048777D01*
X115277620Y-90054038D01*
X115280242Y-90059582D01*
X115282309Y-90065357D01*
X115283799Y-90071307D01*
X115284699Y-90077374D01*
X115285000Y-90083500D01*
X115285000Y-90208500D01*
X115284699Y-90214626D01*
X115283799Y-90220693D01*
X115282309Y-90226643D01*
X115280242Y-90232418D01*
X115277620Y-90237962D01*
X115274467Y-90243223D01*
X115270813Y-90248150D01*
X115266694Y-90252694D01*
X115262150Y-90256813D01*
X115257223Y-90260467D01*
X115251962Y-90263620D01*
X115246418Y-90266242D01*
X115240643Y-90268309D01*
X115234693Y-90269799D01*
X115228626Y-90270699D01*
X115222500Y-90271000D01*
X114297500Y-90271000D01*
X114291374Y-90270699D01*
X114285307Y-90269799D01*
X114279357Y-90268309D01*
X114273582Y-90266242D01*
X114268038Y-90263620D01*
X114262777Y-90260467D01*
X114257850Y-90256813D01*
X114253306Y-90252694D01*
X114249187Y-90248150D01*
X114245533Y-90243223D01*
X114242380Y-90237962D01*
X114239758Y-90232418D01*
X114237691Y-90226643D01*
X114236201Y-90220693D01*
X114235301Y-90214626D01*
X114235000Y-90208500D01*
X114235000Y-90083500D01*
X114235301Y-90077374D01*
X114236201Y-90071307D01*
X114237691Y-90065357D01*
X114239758Y-90059582D01*
X114242380Y-90054038D01*
X114245533Y-90048777D01*
X114249187Y-90043850D01*
X114253306Y-90039306D01*
X114257850Y-90035187D01*
X114262777Y-90031533D01*
X114268038Y-90028380D01*
X114273582Y-90025758D01*
X114279357Y-90023691D01*
X114285307Y-90022201D01*
X114291374Y-90021301D01*
X114297500Y-90021000D01*
X115222500Y-90021000D01*
X115228626Y-90021301D01*
X115228626Y-90021301D01*
G37*
D21*
X114760000Y-90146000D03*
D10*
G36*
X115228626Y-90521301D02*
X115234693Y-90522201D01*
X115240643Y-90523691D01*
X115246418Y-90525758D01*
X115251962Y-90528380D01*
X115257223Y-90531533D01*
X115262150Y-90535187D01*
X115266694Y-90539306D01*
X115270813Y-90543850D01*
X115274467Y-90548777D01*
X115277620Y-90554038D01*
X115280242Y-90559582D01*
X115282309Y-90565357D01*
X115283799Y-90571307D01*
X115284699Y-90577374D01*
X115285000Y-90583500D01*
X115285000Y-90708500D01*
X115284699Y-90714626D01*
X115283799Y-90720693D01*
X115282309Y-90726643D01*
X115280242Y-90732418D01*
X115277620Y-90737962D01*
X115274467Y-90743223D01*
X115270813Y-90748150D01*
X115266694Y-90752694D01*
X115262150Y-90756813D01*
X115257223Y-90760467D01*
X115251962Y-90763620D01*
X115246418Y-90766242D01*
X115240643Y-90768309D01*
X115234693Y-90769799D01*
X115228626Y-90770699D01*
X115222500Y-90771000D01*
X114297500Y-90771000D01*
X114291374Y-90770699D01*
X114285307Y-90769799D01*
X114279357Y-90768309D01*
X114273582Y-90766242D01*
X114268038Y-90763620D01*
X114262777Y-90760467D01*
X114257850Y-90756813D01*
X114253306Y-90752694D01*
X114249187Y-90748150D01*
X114245533Y-90743223D01*
X114242380Y-90737962D01*
X114239758Y-90732418D01*
X114237691Y-90726643D01*
X114236201Y-90720693D01*
X114235301Y-90714626D01*
X114235000Y-90708500D01*
X114235000Y-90583500D01*
X114235301Y-90577374D01*
X114236201Y-90571307D01*
X114237691Y-90565357D01*
X114239758Y-90559582D01*
X114242380Y-90554038D01*
X114245533Y-90548777D01*
X114249187Y-90543850D01*
X114253306Y-90539306D01*
X114257850Y-90535187D01*
X114262777Y-90531533D01*
X114268038Y-90528380D01*
X114273582Y-90525758D01*
X114279357Y-90523691D01*
X114285307Y-90522201D01*
X114291374Y-90521301D01*
X114297500Y-90521000D01*
X115222500Y-90521000D01*
X115228626Y-90521301D01*
X115228626Y-90521301D01*
G37*
D21*
X114760000Y-90646000D03*
D10*
G36*
X115228626Y-91021301D02*
X115234693Y-91022201D01*
X115240643Y-91023691D01*
X115246418Y-91025758D01*
X115251962Y-91028380D01*
X115257223Y-91031533D01*
X115262150Y-91035187D01*
X115266694Y-91039306D01*
X115270813Y-91043850D01*
X115274467Y-91048777D01*
X115277620Y-91054038D01*
X115280242Y-91059582D01*
X115282309Y-91065357D01*
X115283799Y-91071307D01*
X115284699Y-91077374D01*
X115285000Y-91083500D01*
X115285000Y-91208500D01*
X115284699Y-91214626D01*
X115283799Y-91220693D01*
X115282309Y-91226643D01*
X115280242Y-91232418D01*
X115277620Y-91237962D01*
X115274467Y-91243223D01*
X115270813Y-91248150D01*
X115266694Y-91252694D01*
X115262150Y-91256813D01*
X115257223Y-91260467D01*
X115251962Y-91263620D01*
X115246418Y-91266242D01*
X115240643Y-91268309D01*
X115234693Y-91269799D01*
X115228626Y-91270699D01*
X115222500Y-91271000D01*
X114297500Y-91271000D01*
X114291374Y-91270699D01*
X114285307Y-91269799D01*
X114279357Y-91268309D01*
X114273582Y-91266242D01*
X114268038Y-91263620D01*
X114262777Y-91260467D01*
X114257850Y-91256813D01*
X114253306Y-91252694D01*
X114249187Y-91248150D01*
X114245533Y-91243223D01*
X114242380Y-91237962D01*
X114239758Y-91232418D01*
X114237691Y-91226643D01*
X114236201Y-91220693D01*
X114235301Y-91214626D01*
X114235000Y-91208500D01*
X114235000Y-91083500D01*
X114235301Y-91077374D01*
X114236201Y-91071307D01*
X114237691Y-91065357D01*
X114239758Y-91059582D01*
X114242380Y-91054038D01*
X114245533Y-91048777D01*
X114249187Y-91043850D01*
X114253306Y-91039306D01*
X114257850Y-91035187D01*
X114262777Y-91031533D01*
X114268038Y-91028380D01*
X114273582Y-91025758D01*
X114279357Y-91023691D01*
X114285307Y-91022201D01*
X114291374Y-91021301D01*
X114297500Y-91021000D01*
X115222500Y-91021000D01*
X115228626Y-91021301D01*
X115228626Y-91021301D01*
G37*
D21*
X114760000Y-91146000D03*
D10*
G36*
X115678626Y-91471301D02*
X115684693Y-91472201D01*
X115690643Y-91473691D01*
X115696418Y-91475758D01*
X115701962Y-91478380D01*
X115707223Y-91481533D01*
X115712150Y-91485187D01*
X115716694Y-91489306D01*
X115720813Y-91493850D01*
X115724467Y-91498777D01*
X115727620Y-91504038D01*
X115730242Y-91509582D01*
X115732309Y-91515357D01*
X115733799Y-91521307D01*
X115734699Y-91527374D01*
X115735000Y-91533500D01*
X115735000Y-92458500D01*
X115734699Y-92464626D01*
X115733799Y-92470693D01*
X115732309Y-92476643D01*
X115730242Y-92482418D01*
X115727620Y-92487962D01*
X115724467Y-92493223D01*
X115720813Y-92498150D01*
X115716694Y-92502694D01*
X115712150Y-92506813D01*
X115707223Y-92510467D01*
X115701962Y-92513620D01*
X115696418Y-92516242D01*
X115690643Y-92518309D01*
X115684693Y-92519799D01*
X115678626Y-92520699D01*
X115672500Y-92521000D01*
X115547500Y-92521000D01*
X115541374Y-92520699D01*
X115535307Y-92519799D01*
X115529357Y-92518309D01*
X115523582Y-92516242D01*
X115518038Y-92513620D01*
X115512777Y-92510467D01*
X115507850Y-92506813D01*
X115503306Y-92502694D01*
X115499187Y-92498150D01*
X115495533Y-92493223D01*
X115492380Y-92487962D01*
X115489758Y-92482418D01*
X115487691Y-92476643D01*
X115486201Y-92470693D01*
X115485301Y-92464626D01*
X115485000Y-92458500D01*
X115485000Y-91533500D01*
X115485301Y-91527374D01*
X115486201Y-91521307D01*
X115487691Y-91515357D01*
X115489758Y-91509582D01*
X115492380Y-91504038D01*
X115495533Y-91498777D01*
X115499187Y-91493850D01*
X115503306Y-91489306D01*
X115507850Y-91485187D01*
X115512777Y-91481533D01*
X115518038Y-91478380D01*
X115523582Y-91475758D01*
X115529357Y-91473691D01*
X115535307Y-91472201D01*
X115541374Y-91471301D01*
X115547500Y-91471000D01*
X115672500Y-91471000D01*
X115678626Y-91471301D01*
X115678626Y-91471301D01*
G37*
D21*
X115610000Y-91996000D03*
D10*
G36*
X116178626Y-91471301D02*
X116184693Y-91472201D01*
X116190643Y-91473691D01*
X116196418Y-91475758D01*
X116201962Y-91478380D01*
X116207223Y-91481533D01*
X116212150Y-91485187D01*
X116216694Y-91489306D01*
X116220813Y-91493850D01*
X116224467Y-91498777D01*
X116227620Y-91504038D01*
X116230242Y-91509582D01*
X116232309Y-91515357D01*
X116233799Y-91521307D01*
X116234699Y-91527374D01*
X116235000Y-91533500D01*
X116235000Y-92458500D01*
X116234699Y-92464626D01*
X116233799Y-92470693D01*
X116232309Y-92476643D01*
X116230242Y-92482418D01*
X116227620Y-92487962D01*
X116224467Y-92493223D01*
X116220813Y-92498150D01*
X116216694Y-92502694D01*
X116212150Y-92506813D01*
X116207223Y-92510467D01*
X116201962Y-92513620D01*
X116196418Y-92516242D01*
X116190643Y-92518309D01*
X116184693Y-92519799D01*
X116178626Y-92520699D01*
X116172500Y-92521000D01*
X116047500Y-92521000D01*
X116041374Y-92520699D01*
X116035307Y-92519799D01*
X116029357Y-92518309D01*
X116023582Y-92516242D01*
X116018038Y-92513620D01*
X116012777Y-92510467D01*
X116007850Y-92506813D01*
X116003306Y-92502694D01*
X115999187Y-92498150D01*
X115995533Y-92493223D01*
X115992380Y-92487962D01*
X115989758Y-92482418D01*
X115987691Y-92476643D01*
X115986201Y-92470693D01*
X115985301Y-92464626D01*
X115985000Y-92458500D01*
X115985000Y-91533500D01*
X115985301Y-91527374D01*
X115986201Y-91521307D01*
X115987691Y-91515357D01*
X115989758Y-91509582D01*
X115992380Y-91504038D01*
X115995533Y-91498777D01*
X115999187Y-91493850D01*
X116003306Y-91489306D01*
X116007850Y-91485187D01*
X116012777Y-91481533D01*
X116018038Y-91478380D01*
X116023582Y-91475758D01*
X116029357Y-91473691D01*
X116035307Y-91472201D01*
X116041374Y-91471301D01*
X116047500Y-91471000D01*
X116172500Y-91471000D01*
X116178626Y-91471301D01*
X116178626Y-91471301D01*
G37*
D21*
X116110000Y-91996000D03*
D10*
G36*
X116678626Y-91471301D02*
X116684693Y-91472201D01*
X116690643Y-91473691D01*
X116696418Y-91475758D01*
X116701962Y-91478380D01*
X116707223Y-91481533D01*
X116712150Y-91485187D01*
X116716694Y-91489306D01*
X116720813Y-91493850D01*
X116724467Y-91498777D01*
X116727620Y-91504038D01*
X116730242Y-91509582D01*
X116732309Y-91515357D01*
X116733799Y-91521307D01*
X116734699Y-91527374D01*
X116735000Y-91533500D01*
X116735000Y-92458500D01*
X116734699Y-92464626D01*
X116733799Y-92470693D01*
X116732309Y-92476643D01*
X116730242Y-92482418D01*
X116727620Y-92487962D01*
X116724467Y-92493223D01*
X116720813Y-92498150D01*
X116716694Y-92502694D01*
X116712150Y-92506813D01*
X116707223Y-92510467D01*
X116701962Y-92513620D01*
X116696418Y-92516242D01*
X116690643Y-92518309D01*
X116684693Y-92519799D01*
X116678626Y-92520699D01*
X116672500Y-92521000D01*
X116547500Y-92521000D01*
X116541374Y-92520699D01*
X116535307Y-92519799D01*
X116529357Y-92518309D01*
X116523582Y-92516242D01*
X116518038Y-92513620D01*
X116512777Y-92510467D01*
X116507850Y-92506813D01*
X116503306Y-92502694D01*
X116499187Y-92498150D01*
X116495533Y-92493223D01*
X116492380Y-92487962D01*
X116489758Y-92482418D01*
X116487691Y-92476643D01*
X116486201Y-92470693D01*
X116485301Y-92464626D01*
X116485000Y-92458500D01*
X116485000Y-91533500D01*
X116485301Y-91527374D01*
X116486201Y-91521307D01*
X116487691Y-91515357D01*
X116489758Y-91509582D01*
X116492380Y-91504038D01*
X116495533Y-91498777D01*
X116499187Y-91493850D01*
X116503306Y-91489306D01*
X116507850Y-91485187D01*
X116512777Y-91481533D01*
X116518038Y-91478380D01*
X116523582Y-91475758D01*
X116529357Y-91473691D01*
X116535307Y-91472201D01*
X116541374Y-91471301D01*
X116547500Y-91471000D01*
X116672500Y-91471000D01*
X116678626Y-91471301D01*
X116678626Y-91471301D01*
G37*
D21*
X116610000Y-91996000D03*
D10*
G36*
X117178626Y-91471301D02*
X117184693Y-91472201D01*
X117190643Y-91473691D01*
X117196418Y-91475758D01*
X117201962Y-91478380D01*
X117207223Y-91481533D01*
X117212150Y-91485187D01*
X117216694Y-91489306D01*
X117220813Y-91493850D01*
X117224467Y-91498777D01*
X117227620Y-91504038D01*
X117230242Y-91509582D01*
X117232309Y-91515357D01*
X117233799Y-91521307D01*
X117234699Y-91527374D01*
X117235000Y-91533500D01*
X117235000Y-92458500D01*
X117234699Y-92464626D01*
X117233799Y-92470693D01*
X117232309Y-92476643D01*
X117230242Y-92482418D01*
X117227620Y-92487962D01*
X117224467Y-92493223D01*
X117220813Y-92498150D01*
X117216694Y-92502694D01*
X117212150Y-92506813D01*
X117207223Y-92510467D01*
X117201962Y-92513620D01*
X117196418Y-92516242D01*
X117190643Y-92518309D01*
X117184693Y-92519799D01*
X117178626Y-92520699D01*
X117172500Y-92521000D01*
X117047500Y-92521000D01*
X117041374Y-92520699D01*
X117035307Y-92519799D01*
X117029357Y-92518309D01*
X117023582Y-92516242D01*
X117018038Y-92513620D01*
X117012777Y-92510467D01*
X117007850Y-92506813D01*
X117003306Y-92502694D01*
X116999187Y-92498150D01*
X116995533Y-92493223D01*
X116992380Y-92487962D01*
X116989758Y-92482418D01*
X116987691Y-92476643D01*
X116986201Y-92470693D01*
X116985301Y-92464626D01*
X116985000Y-92458500D01*
X116985000Y-91533500D01*
X116985301Y-91527374D01*
X116986201Y-91521307D01*
X116987691Y-91515357D01*
X116989758Y-91509582D01*
X116992380Y-91504038D01*
X116995533Y-91498777D01*
X116999187Y-91493850D01*
X117003306Y-91489306D01*
X117007850Y-91485187D01*
X117012777Y-91481533D01*
X117018038Y-91478380D01*
X117023582Y-91475758D01*
X117029357Y-91473691D01*
X117035307Y-91472201D01*
X117041374Y-91471301D01*
X117047500Y-91471000D01*
X117172500Y-91471000D01*
X117178626Y-91471301D01*
X117178626Y-91471301D01*
G37*
D21*
X117110000Y-91996000D03*
D10*
G36*
X117678626Y-91471301D02*
X117684693Y-91472201D01*
X117690643Y-91473691D01*
X117696418Y-91475758D01*
X117701962Y-91478380D01*
X117707223Y-91481533D01*
X117712150Y-91485187D01*
X117716694Y-91489306D01*
X117720813Y-91493850D01*
X117724467Y-91498777D01*
X117727620Y-91504038D01*
X117730242Y-91509582D01*
X117732309Y-91515357D01*
X117733799Y-91521307D01*
X117734699Y-91527374D01*
X117735000Y-91533500D01*
X117735000Y-92458500D01*
X117734699Y-92464626D01*
X117733799Y-92470693D01*
X117732309Y-92476643D01*
X117730242Y-92482418D01*
X117727620Y-92487962D01*
X117724467Y-92493223D01*
X117720813Y-92498150D01*
X117716694Y-92502694D01*
X117712150Y-92506813D01*
X117707223Y-92510467D01*
X117701962Y-92513620D01*
X117696418Y-92516242D01*
X117690643Y-92518309D01*
X117684693Y-92519799D01*
X117678626Y-92520699D01*
X117672500Y-92521000D01*
X117547500Y-92521000D01*
X117541374Y-92520699D01*
X117535307Y-92519799D01*
X117529357Y-92518309D01*
X117523582Y-92516242D01*
X117518038Y-92513620D01*
X117512777Y-92510467D01*
X117507850Y-92506813D01*
X117503306Y-92502694D01*
X117499187Y-92498150D01*
X117495533Y-92493223D01*
X117492380Y-92487962D01*
X117489758Y-92482418D01*
X117487691Y-92476643D01*
X117486201Y-92470693D01*
X117485301Y-92464626D01*
X117485000Y-92458500D01*
X117485000Y-91533500D01*
X117485301Y-91527374D01*
X117486201Y-91521307D01*
X117487691Y-91515357D01*
X117489758Y-91509582D01*
X117492380Y-91504038D01*
X117495533Y-91498777D01*
X117499187Y-91493850D01*
X117503306Y-91489306D01*
X117507850Y-91485187D01*
X117512777Y-91481533D01*
X117518038Y-91478380D01*
X117523582Y-91475758D01*
X117529357Y-91473691D01*
X117535307Y-91472201D01*
X117541374Y-91471301D01*
X117547500Y-91471000D01*
X117672500Y-91471000D01*
X117678626Y-91471301D01*
X117678626Y-91471301D01*
G37*
D21*
X117610000Y-91996000D03*
D10*
G36*
X118178626Y-91471301D02*
X118184693Y-91472201D01*
X118190643Y-91473691D01*
X118196418Y-91475758D01*
X118201962Y-91478380D01*
X118207223Y-91481533D01*
X118212150Y-91485187D01*
X118216694Y-91489306D01*
X118220813Y-91493850D01*
X118224467Y-91498777D01*
X118227620Y-91504038D01*
X118230242Y-91509582D01*
X118232309Y-91515357D01*
X118233799Y-91521307D01*
X118234699Y-91527374D01*
X118235000Y-91533500D01*
X118235000Y-92458500D01*
X118234699Y-92464626D01*
X118233799Y-92470693D01*
X118232309Y-92476643D01*
X118230242Y-92482418D01*
X118227620Y-92487962D01*
X118224467Y-92493223D01*
X118220813Y-92498150D01*
X118216694Y-92502694D01*
X118212150Y-92506813D01*
X118207223Y-92510467D01*
X118201962Y-92513620D01*
X118196418Y-92516242D01*
X118190643Y-92518309D01*
X118184693Y-92519799D01*
X118178626Y-92520699D01*
X118172500Y-92521000D01*
X118047500Y-92521000D01*
X118041374Y-92520699D01*
X118035307Y-92519799D01*
X118029357Y-92518309D01*
X118023582Y-92516242D01*
X118018038Y-92513620D01*
X118012777Y-92510467D01*
X118007850Y-92506813D01*
X118003306Y-92502694D01*
X117999187Y-92498150D01*
X117995533Y-92493223D01*
X117992380Y-92487962D01*
X117989758Y-92482418D01*
X117987691Y-92476643D01*
X117986201Y-92470693D01*
X117985301Y-92464626D01*
X117985000Y-92458500D01*
X117985000Y-91533500D01*
X117985301Y-91527374D01*
X117986201Y-91521307D01*
X117987691Y-91515357D01*
X117989758Y-91509582D01*
X117992380Y-91504038D01*
X117995533Y-91498777D01*
X117999187Y-91493850D01*
X118003306Y-91489306D01*
X118007850Y-91485187D01*
X118012777Y-91481533D01*
X118018038Y-91478380D01*
X118023582Y-91475758D01*
X118029357Y-91473691D01*
X118035307Y-91472201D01*
X118041374Y-91471301D01*
X118047500Y-91471000D01*
X118172500Y-91471000D01*
X118178626Y-91471301D01*
X118178626Y-91471301D01*
G37*
D21*
X118110000Y-91996000D03*
D10*
G36*
X118678626Y-91471301D02*
X118684693Y-91472201D01*
X118690643Y-91473691D01*
X118696418Y-91475758D01*
X118701962Y-91478380D01*
X118707223Y-91481533D01*
X118712150Y-91485187D01*
X118716694Y-91489306D01*
X118720813Y-91493850D01*
X118724467Y-91498777D01*
X118727620Y-91504038D01*
X118730242Y-91509582D01*
X118732309Y-91515357D01*
X118733799Y-91521307D01*
X118734699Y-91527374D01*
X118735000Y-91533500D01*
X118735000Y-92458500D01*
X118734699Y-92464626D01*
X118733799Y-92470693D01*
X118732309Y-92476643D01*
X118730242Y-92482418D01*
X118727620Y-92487962D01*
X118724467Y-92493223D01*
X118720813Y-92498150D01*
X118716694Y-92502694D01*
X118712150Y-92506813D01*
X118707223Y-92510467D01*
X118701962Y-92513620D01*
X118696418Y-92516242D01*
X118690643Y-92518309D01*
X118684693Y-92519799D01*
X118678626Y-92520699D01*
X118672500Y-92521000D01*
X118547500Y-92521000D01*
X118541374Y-92520699D01*
X118535307Y-92519799D01*
X118529357Y-92518309D01*
X118523582Y-92516242D01*
X118518038Y-92513620D01*
X118512777Y-92510467D01*
X118507850Y-92506813D01*
X118503306Y-92502694D01*
X118499187Y-92498150D01*
X118495533Y-92493223D01*
X118492380Y-92487962D01*
X118489758Y-92482418D01*
X118487691Y-92476643D01*
X118486201Y-92470693D01*
X118485301Y-92464626D01*
X118485000Y-92458500D01*
X118485000Y-91533500D01*
X118485301Y-91527374D01*
X118486201Y-91521307D01*
X118487691Y-91515357D01*
X118489758Y-91509582D01*
X118492380Y-91504038D01*
X118495533Y-91498777D01*
X118499187Y-91493850D01*
X118503306Y-91489306D01*
X118507850Y-91485187D01*
X118512777Y-91481533D01*
X118518038Y-91478380D01*
X118523582Y-91475758D01*
X118529357Y-91473691D01*
X118535307Y-91472201D01*
X118541374Y-91471301D01*
X118547500Y-91471000D01*
X118672500Y-91471000D01*
X118678626Y-91471301D01*
X118678626Y-91471301D01*
G37*
D21*
X118610000Y-91996000D03*
D10*
G36*
X119178626Y-91471301D02*
X119184693Y-91472201D01*
X119190643Y-91473691D01*
X119196418Y-91475758D01*
X119201962Y-91478380D01*
X119207223Y-91481533D01*
X119212150Y-91485187D01*
X119216694Y-91489306D01*
X119220813Y-91493850D01*
X119224467Y-91498777D01*
X119227620Y-91504038D01*
X119230242Y-91509582D01*
X119232309Y-91515357D01*
X119233799Y-91521307D01*
X119234699Y-91527374D01*
X119235000Y-91533500D01*
X119235000Y-92458500D01*
X119234699Y-92464626D01*
X119233799Y-92470693D01*
X119232309Y-92476643D01*
X119230242Y-92482418D01*
X119227620Y-92487962D01*
X119224467Y-92493223D01*
X119220813Y-92498150D01*
X119216694Y-92502694D01*
X119212150Y-92506813D01*
X119207223Y-92510467D01*
X119201962Y-92513620D01*
X119196418Y-92516242D01*
X119190643Y-92518309D01*
X119184693Y-92519799D01*
X119178626Y-92520699D01*
X119172500Y-92521000D01*
X119047500Y-92521000D01*
X119041374Y-92520699D01*
X119035307Y-92519799D01*
X119029357Y-92518309D01*
X119023582Y-92516242D01*
X119018038Y-92513620D01*
X119012777Y-92510467D01*
X119007850Y-92506813D01*
X119003306Y-92502694D01*
X118999187Y-92498150D01*
X118995533Y-92493223D01*
X118992380Y-92487962D01*
X118989758Y-92482418D01*
X118987691Y-92476643D01*
X118986201Y-92470693D01*
X118985301Y-92464626D01*
X118985000Y-92458500D01*
X118985000Y-91533500D01*
X118985301Y-91527374D01*
X118986201Y-91521307D01*
X118987691Y-91515357D01*
X118989758Y-91509582D01*
X118992380Y-91504038D01*
X118995533Y-91498777D01*
X118999187Y-91493850D01*
X119003306Y-91489306D01*
X119007850Y-91485187D01*
X119012777Y-91481533D01*
X119018038Y-91478380D01*
X119023582Y-91475758D01*
X119029357Y-91473691D01*
X119035307Y-91472201D01*
X119041374Y-91471301D01*
X119047500Y-91471000D01*
X119172500Y-91471000D01*
X119178626Y-91471301D01*
X119178626Y-91471301D01*
G37*
D21*
X119110000Y-91996000D03*
D10*
G36*
X119678626Y-91471301D02*
X119684693Y-91472201D01*
X119690643Y-91473691D01*
X119696418Y-91475758D01*
X119701962Y-91478380D01*
X119707223Y-91481533D01*
X119712150Y-91485187D01*
X119716694Y-91489306D01*
X119720813Y-91493850D01*
X119724467Y-91498777D01*
X119727620Y-91504038D01*
X119730242Y-91509582D01*
X119732309Y-91515357D01*
X119733799Y-91521307D01*
X119734699Y-91527374D01*
X119735000Y-91533500D01*
X119735000Y-92458500D01*
X119734699Y-92464626D01*
X119733799Y-92470693D01*
X119732309Y-92476643D01*
X119730242Y-92482418D01*
X119727620Y-92487962D01*
X119724467Y-92493223D01*
X119720813Y-92498150D01*
X119716694Y-92502694D01*
X119712150Y-92506813D01*
X119707223Y-92510467D01*
X119701962Y-92513620D01*
X119696418Y-92516242D01*
X119690643Y-92518309D01*
X119684693Y-92519799D01*
X119678626Y-92520699D01*
X119672500Y-92521000D01*
X119547500Y-92521000D01*
X119541374Y-92520699D01*
X119535307Y-92519799D01*
X119529357Y-92518309D01*
X119523582Y-92516242D01*
X119518038Y-92513620D01*
X119512777Y-92510467D01*
X119507850Y-92506813D01*
X119503306Y-92502694D01*
X119499187Y-92498150D01*
X119495533Y-92493223D01*
X119492380Y-92487962D01*
X119489758Y-92482418D01*
X119487691Y-92476643D01*
X119486201Y-92470693D01*
X119485301Y-92464626D01*
X119485000Y-92458500D01*
X119485000Y-91533500D01*
X119485301Y-91527374D01*
X119486201Y-91521307D01*
X119487691Y-91515357D01*
X119489758Y-91509582D01*
X119492380Y-91504038D01*
X119495533Y-91498777D01*
X119499187Y-91493850D01*
X119503306Y-91489306D01*
X119507850Y-91485187D01*
X119512777Y-91481533D01*
X119518038Y-91478380D01*
X119523582Y-91475758D01*
X119529357Y-91473691D01*
X119535307Y-91472201D01*
X119541374Y-91471301D01*
X119547500Y-91471000D01*
X119672500Y-91471000D01*
X119678626Y-91471301D01*
X119678626Y-91471301D01*
G37*
D21*
X119610000Y-91996000D03*
D10*
G36*
X120178626Y-91471301D02*
X120184693Y-91472201D01*
X120190643Y-91473691D01*
X120196418Y-91475758D01*
X120201962Y-91478380D01*
X120207223Y-91481533D01*
X120212150Y-91485187D01*
X120216694Y-91489306D01*
X120220813Y-91493850D01*
X120224467Y-91498777D01*
X120227620Y-91504038D01*
X120230242Y-91509582D01*
X120232309Y-91515357D01*
X120233799Y-91521307D01*
X120234699Y-91527374D01*
X120235000Y-91533500D01*
X120235000Y-92458500D01*
X120234699Y-92464626D01*
X120233799Y-92470693D01*
X120232309Y-92476643D01*
X120230242Y-92482418D01*
X120227620Y-92487962D01*
X120224467Y-92493223D01*
X120220813Y-92498150D01*
X120216694Y-92502694D01*
X120212150Y-92506813D01*
X120207223Y-92510467D01*
X120201962Y-92513620D01*
X120196418Y-92516242D01*
X120190643Y-92518309D01*
X120184693Y-92519799D01*
X120178626Y-92520699D01*
X120172500Y-92521000D01*
X120047500Y-92521000D01*
X120041374Y-92520699D01*
X120035307Y-92519799D01*
X120029357Y-92518309D01*
X120023582Y-92516242D01*
X120018038Y-92513620D01*
X120012777Y-92510467D01*
X120007850Y-92506813D01*
X120003306Y-92502694D01*
X119999187Y-92498150D01*
X119995533Y-92493223D01*
X119992380Y-92487962D01*
X119989758Y-92482418D01*
X119987691Y-92476643D01*
X119986201Y-92470693D01*
X119985301Y-92464626D01*
X119985000Y-92458500D01*
X119985000Y-91533500D01*
X119985301Y-91527374D01*
X119986201Y-91521307D01*
X119987691Y-91515357D01*
X119989758Y-91509582D01*
X119992380Y-91504038D01*
X119995533Y-91498777D01*
X119999187Y-91493850D01*
X120003306Y-91489306D01*
X120007850Y-91485187D01*
X120012777Y-91481533D01*
X120018038Y-91478380D01*
X120023582Y-91475758D01*
X120029357Y-91473691D01*
X120035307Y-91472201D01*
X120041374Y-91471301D01*
X120047500Y-91471000D01*
X120172500Y-91471000D01*
X120178626Y-91471301D01*
X120178626Y-91471301D01*
G37*
D21*
X120110000Y-91996000D03*
D10*
G36*
X120678626Y-91471301D02*
X120684693Y-91472201D01*
X120690643Y-91473691D01*
X120696418Y-91475758D01*
X120701962Y-91478380D01*
X120707223Y-91481533D01*
X120712150Y-91485187D01*
X120716694Y-91489306D01*
X120720813Y-91493850D01*
X120724467Y-91498777D01*
X120727620Y-91504038D01*
X120730242Y-91509582D01*
X120732309Y-91515357D01*
X120733799Y-91521307D01*
X120734699Y-91527374D01*
X120735000Y-91533500D01*
X120735000Y-92458500D01*
X120734699Y-92464626D01*
X120733799Y-92470693D01*
X120732309Y-92476643D01*
X120730242Y-92482418D01*
X120727620Y-92487962D01*
X120724467Y-92493223D01*
X120720813Y-92498150D01*
X120716694Y-92502694D01*
X120712150Y-92506813D01*
X120707223Y-92510467D01*
X120701962Y-92513620D01*
X120696418Y-92516242D01*
X120690643Y-92518309D01*
X120684693Y-92519799D01*
X120678626Y-92520699D01*
X120672500Y-92521000D01*
X120547500Y-92521000D01*
X120541374Y-92520699D01*
X120535307Y-92519799D01*
X120529357Y-92518309D01*
X120523582Y-92516242D01*
X120518038Y-92513620D01*
X120512777Y-92510467D01*
X120507850Y-92506813D01*
X120503306Y-92502694D01*
X120499187Y-92498150D01*
X120495533Y-92493223D01*
X120492380Y-92487962D01*
X120489758Y-92482418D01*
X120487691Y-92476643D01*
X120486201Y-92470693D01*
X120485301Y-92464626D01*
X120485000Y-92458500D01*
X120485000Y-91533500D01*
X120485301Y-91527374D01*
X120486201Y-91521307D01*
X120487691Y-91515357D01*
X120489758Y-91509582D01*
X120492380Y-91504038D01*
X120495533Y-91498777D01*
X120499187Y-91493850D01*
X120503306Y-91489306D01*
X120507850Y-91485187D01*
X120512777Y-91481533D01*
X120518038Y-91478380D01*
X120523582Y-91475758D01*
X120529357Y-91473691D01*
X120535307Y-91472201D01*
X120541374Y-91471301D01*
X120547500Y-91471000D01*
X120672500Y-91471000D01*
X120678626Y-91471301D01*
X120678626Y-91471301D01*
G37*
D21*
X120610000Y-91996000D03*
D10*
G36*
X121928626Y-91021301D02*
X121934693Y-91022201D01*
X121940643Y-91023691D01*
X121946418Y-91025758D01*
X121951962Y-91028380D01*
X121957223Y-91031533D01*
X121962150Y-91035187D01*
X121966694Y-91039306D01*
X121970813Y-91043850D01*
X121974467Y-91048777D01*
X121977620Y-91054038D01*
X121980242Y-91059582D01*
X121982309Y-91065357D01*
X121983799Y-91071307D01*
X121984699Y-91077374D01*
X121985000Y-91083500D01*
X121985000Y-91208500D01*
X121984699Y-91214626D01*
X121983799Y-91220693D01*
X121982309Y-91226643D01*
X121980242Y-91232418D01*
X121977620Y-91237962D01*
X121974467Y-91243223D01*
X121970813Y-91248150D01*
X121966694Y-91252694D01*
X121962150Y-91256813D01*
X121957223Y-91260467D01*
X121951962Y-91263620D01*
X121946418Y-91266242D01*
X121940643Y-91268309D01*
X121934693Y-91269799D01*
X121928626Y-91270699D01*
X121922500Y-91271000D01*
X120997500Y-91271000D01*
X120991374Y-91270699D01*
X120985307Y-91269799D01*
X120979357Y-91268309D01*
X120973582Y-91266242D01*
X120968038Y-91263620D01*
X120962777Y-91260467D01*
X120957850Y-91256813D01*
X120953306Y-91252694D01*
X120949187Y-91248150D01*
X120945533Y-91243223D01*
X120942380Y-91237962D01*
X120939758Y-91232418D01*
X120937691Y-91226643D01*
X120936201Y-91220693D01*
X120935301Y-91214626D01*
X120935000Y-91208500D01*
X120935000Y-91083500D01*
X120935301Y-91077374D01*
X120936201Y-91071307D01*
X120937691Y-91065357D01*
X120939758Y-91059582D01*
X120942380Y-91054038D01*
X120945533Y-91048777D01*
X120949187Y-91043850D01*
X120953306Y-91039306D01*
X120957850Y-91035187D01*
X120962777Y-91031533D01*
X120968038Y-91028380D01*
X120973582Y-91025758D01*
X120979357Y-91023691D01*
X120985307Y-91022201D01*
X120991374Y-91021301D01*
X120997500Y-91021000D01*
X121922500Y-91021000D01*
X121928626Y-91021301D01*
X121928626Y-91021301D01*
G37*
D21*
X121460000Y-91146000D03*
D10*
G36*
X121928626Y-90521301D02*
X121934693Y-90522201D01*
X121940643Y-90523691D01*
X121946418Y-90525758D01*
X121951962Y-90528380D01*
X121957223Y-90531533D01*
X121962150Y-90535187D01*
X121966694Y-90539306D01*
X121970813Y-90543850D01*
X121974467Y-90548777D01*
X121977620Y-90554038D01*
X121980242Y-90559582D01*
X121982309Y-90565357D01*
X121983799Y-90571307D01*
X121984699Y-90577374D01*
X121985000Y-90583500D01*
X121985000Y-90708500D01*
X121984699Y-90714626D01*
X121983799Y-90720693D01*
X121982309Y-90726643D01*
X121980242Y-90732418D01*
X121977620Y-90737962D01*
X121974467Y-90743223D01*
X121970813Y-90748150D01*
X121966694Y-90752694D01*
X121962150Y-90756813D01*
X121957223Y-90760467D01*
X121951962Y-90763620D01*
X121946418Y-90766242D01*
X121940643Y-90768309D01*
X121934693Y-90769799D01*
X121928626Y-90770699D01*
X121922500Y-90771000D01*
X120997500Y-90771000D01*
X120991374Y-90770699D01*
X120985307Y-90769799D01*
X120979357Y-90768309D01*
X120973582Y-90766242D01*
X120968038Y-90763620D01*
X120962777Y-90760467D01*
X120957850Y-90756813D01*
X120953306Y-90752694D01*
X120949187Y-90748150D01*
X120945533Y-90743223D01*
X120942380Y-90737962D01*
X120939758Y-90732418D01*
X120937691Y-90726643D01*
X120936201Y-90720693D01*
X120935301Y-90714626D01*
X120935000Y-90708500D01*
X120935000Y-90583500D01*
X120935301Y-90577374D01*
X120936201Y-90571307D01*
X120937691Y-90565357D01*
X120939758Y-90559582D01*
X120942380Y-90554038D01*
X120945533Y-90548777D01*
X120949187Y-90543850D01*
X120953306Y-90539306D01*
X120957850Y-90535187D01*
X120962777Y-90531533D01*
X120968038Y-90528380D01*
X120973582Y-90525758D01*
X120979357Y-90523691D01*
X120985307Y-90522201D01*
X120991374Y-90521301D01*
X120997500Y-90521000D01*
X121922500Y-90521000D01*
X121928626Y-90521301D01*
X121928626Y-90521301D01*
G37*
D21*
X121460000Y-90646000D03*
D10*
G36*
X121928626Y-90021301D02*
X121934693Y-90022201D01*
X121940643Y-90023691D01*
X121946418Y-90025758D01*
X121951962Y-90028380D01*
X121957223Y-90031533D01*
X121962150Y-90035187D01*
X121966694Y-90039306D01*
X121970813Y-90043850D01*
X121974467Y-90048777D01*
X121977620Y-90054038D01*
X121980242Y-90059582D01*
X121982309Y-90065357D01*
X121983799Y-90071307D01*
X121984699Y-90077374D01*
X121985000Y-90083500D01*
X121985000Y-90208500D01*
X121984699Y-90214626D01*
X121983799Y-90220693D01*
X121982309Y-90226643D01*
X121980242Y-90232418D01*
X121977620Y-90237962D01*
X121974467Y-90243223D01*
X121970813Y-90248150D01*
X121966694Y-90252694D01*
X121962150Y-90256813D01*
X121957223Y-90260467D01*
X121951962Y-90263620D01*
X121946418Y-90266242D01*
X121940643Y-90268309D01*
X121934693Y-90269799D01*
X121928626Y-90270699D01*
X121922500Y-90271000D01*
X120997500Y-90271000D01*
X120991374Y-90270699D01*
X120985307Y-90269799D01*
X120979357Y-90268309D01*
X120973582Y-90266242D01*
X120968038Y-90263620D01*
X120962777Y-90260467D01*
X120957850Y-90256813D01*
X120953306Y-90252694D01*
X120949187Y-90248150D01*
X120945533Y-90243223D01*
X120942380Y-90237962D01*
X120939758Y-90232418D01*
X120937691Y-90226643D01*
X120936201Y-90220693D01*
X120935301Y-90214626D01*
X120935000Y-90208500D01*
X120935000Y-90083500D01*
X120935301Y-90077374D01*
X120936201Y-90071307D01*
X120937691Y-90065357D01*
X120939758Y-90059582D01*
X120942380Y-90054038D01*
X120945533Y-90048777D01*
X120949187Y-90043850D01*
X120953306Y-90039306D01*
X120957850Y-90035187D01*
X120962777Y-90031533D01*
X120968038Y-90028380D01*
X120973582Y-90025758D01*
X120979357Y-90023691D01*
X120985307Y-90022201D01*
X120991374Y-90021301D01*
X120997500Y-90021000D01*
X121922500Y-90021000D01*
X121928626Y-90021301D01*
X121928626Y-90021301D01*
G37*
D21*
X121460000Y-90146000D03*
D10*
G36*
X121928626Y-89521301D02*
X121934693Y-89522201D01*
X121940643Y-89523691D01*
X121946418Y-89525758D01*
X121951962Y-89528380D01*
X121957223Y-89531533D01*
X121962150Y-89535187D01*
X121966694Y-89539306D01*
X121970813Y-89543850D01*
X121974467Y-89548777D01*
X121977620Y-89554038D01*
X121980242Y-89559582D01*
X121982309Y-89565357D01*
X121983799Y-89571307D01*
X121984699Y-89577374D01*
X121985000Y-89583500D01*
X121985000Y-89708500D01*
X121984699Y-89714626D01*
X121983799Y-89720693D01*
X121982309Y-89726643D01*
X121980242Y-89732418D01*
X121977620Y-89737962D01*
X121974467Y-89743223D01*
X121970813Y-89748150D01*
X121966694Y-89752694D01*
X121962150Y-89756813D01*
X121957223Y-89760467D01*
X121951962Y-89763620D01*
X121946418Y-89766242D01*
X121940643Y-89768309D01*
X121934693Y-89769799D01*
X121928626Y-89770699D01*
X121922500Y-89771000D01*
X120997500Y-89771000D01*
X120991374Y-89770699D01*
X120985307Y-89769799D01*
X120979357Y-89768309D01*
X120973582Y-89766242D01*
X120968038Y-89763620D01*
X120962777Y-89760467D01*
X120957850Y-89756813D01*
X120953306Y-89752694D01*
X120949187Y-89748150D01*
X120945533Y-89743223D01*
X120942380Y-89737962D01*
X120939758Y-89732418D01*
X120937691Y-89726643D01*
X120936201Y-89720693D01*
X120935301Y-89714626D01*
X120935000Y-89708500D01*
X120935000Y-89583500D01*
X120935301Y-89577374D01*
X120936201Y-89571307D01*
X120937691Y-89565357D01*
X120939758Y-89559582D01*
X120942380Y-89554038D01*
X120945533Y-89548777D01*
X120949187Y-89543850D01*
X120953306Y-89539306D01*
X120957850Y-89535187D01*
X120962777Y-89531533D01*
X120968038Y-89528380D01*
X120973582Y-89525758D01*
X120979357Y-89523691D01*
X120985307Y-89522201D01*
X120991374Y-89521301D01*
X120997500Y-89521000D01*
X121922500Y-89521000D01*
X121928626Y-89521301D01*
X121928626Y-89521301D01*
G37*
D21*
X121460000Y-89646000D03*
D10*
G36*
X121928626Y-89021301D02*
X121934693Y-89022201D01*
X121940643Y-89023691D01*
X121946418Y-89025758D01*
X121951962Y-89028380D01*
X121957223Y-89031533D01*
X121962150Y-89035187D01*
X121966694Y-89039306D01*
X121970813Y-89043850D01*
X121974467Y-89048777D01*
X121977620Y-89054038D01*
X121980242Y-89059582D01*
X121982309Y-89065357D01*
X121983799Y-89071307D01*
X121984699Y-89077374D01*
X121985000Y-89083500D01*
X121985000Y-89208500D01*
X121984699Y-89214626D01*
X121983799Y-89220693D01*
X121982309Y-89226643D01*
X121980242Y-89232418D01*
X121977620Y-89237962D01*
X121974467Y-89243223D01*
X121970813Y-89248150D01*
X121966694Y-89252694D01*
X121962150Y-89256813D01*
X121957223Y-89260467D01*
X121951962Y-89263620D01*
X121946418Y-89266242D01*
X121940643Y-89268309D01*
X121934693Y-89269799D01*
X121928626Y-89270699D01*
X121922500Y-89271000D01*
X120997500Y-89271000D01*
X120991374Y-89270699D01*
X120985307Y-89269799D01*
X120979357Y-89268309D01*
X120973582Y-89266242D01*
X120968038Y-89263620D01*
X120962777Y-89260467D01*
X120957850Y-89256813D01*
X120953306Y-89252694D01*
X120949187Y-89248150D01*
X120945533Y-89243223D01*
X120942380Y-89237962D01*
X120939758Y-89232418D01*
X120937691Y-89226643D01*
X120936201Y-89220693D01*
X120935301Y-89214626D01*
X120935000Y-89208500D01*
X120935000Y-89083500D01*
X120935301Y-89077374D01*
X120936201Y-89071307D01*
X120937691Y-89065357D01*
X120939758Y-89059582D01*
X120942380Y-89054038D01*
X120945533Y-89048777D01*
X120949187Y-89043850D01*
X120953306Y-89039306D01*
X120957850Y-89035187D01*
X120962777Y-89031533D01*
X120968038Y-89028380D01*
X120973582Y-89025758D01*
X120979357Y-89023691D01*
X120985307Y-89022201D01*
X120991374Y-89021301D01*
X120997500Y-89021000D01*
X121922500Y-89021000D01*
X121928626Y-89021301D01*
X121928626Y-89021301D01*
G37*
D21*
X121460000Y-89146000D03*
D10*
G36*
X121928626Y-88521301D02*
X121934693Y-88522201D01*
X121940643Y-88523691D01*
X121946418Y-88525758D01*
X121951962Y-88528380D01*
X121957223Y-88531533D01*
X121962150Y-88535187D01*
X121966694Y-88539306D01*
X121970813Y-88543850D01*
X121974467Y-88548777D01*
X121977620Y-88554038D01*
X121980242Y-88559582D01*
X121982309Y-88565357D01*
X121983799Y-88571307D01*
X121984699Y-88577374D01*
X121985000Y-88583500D01*
X121985000Y-88708500D01*
X121984699Y-88714626D01*
X121983799Y-88720693D01*
X121982309Y-88726643D01*
X121980242Y-88732418D01*
X121977620Y-88737962D01*
X121974467Y-88743223D01*
X121970813Y-88748150D01*
X121966694Y-88752694D01*
X121962150Y-88756813D01*
X121957223Y-88760467D01*
X121951962Y-88763620D01*
X121946418Y-88766242D01*
X121940643Y-88768309D01*
X121934693Y-88769799D01*
X121928626Y-88770699D01*
X121922500Y-88771000D01*
X120997500Y-88771000D01*
X120991374Y-88770699D01*
X120985307Y-88769799D01*
X120979357Y-88768309D01*
X120973582Y-88766242D01*
X120968038Y-88763620D01*
X120962777Y-88760467D01*
X120957850Y-88756813D01*
X120953306Y-88752694D01*
X120949187Y-88748150D01*
X120945533Y-88743223D01*
X120942380Y-88737962D01*
X120939758Y-88732418D01*
X120937691Y-88726643D01*
X120936201Y-88720693D01*
X120935301Y-88714626D01*
X120935000Y-88708500D01*
X120935000Y-88583500D01*
X120935301Y-88577374D01*
X120936201Y-88571307D01*
X120937691Y-88565357D01*
X120939758Y-88559582D01*
X120942380Y-88554038D01*
X120945533Y-88548777D01*
X120949187Y-88543850D01*
X120953306Y-88539306D01*
X120957850Y-88535187D01*
X120962777Y-88531533D01*
X120968038Y-88528380D01*
X120973582Y-88525758D01*
X120979357Y-88523691D01*
X120985307Y-88522201D01*
X120991374Y-88521301D01*
X120997500Y-88521000D01*
X121922500Y-88521000D01*
X121928626Y-88521301D01*
X121928626Y-88521301D01*
G37*
D21*
X121460000Y-88646000D03*
D10*
G36*
X121928626Y-88021301D02*
X121934693Y-88022201D01*
X121940643Y-88023691D01*
X121946418Y-88025758D01*
X121951962Y-88028380D01*
X121957223Y-88031533D01*
X121962150Y-88035187D01*
X121966694Y-88039306D01*
X121970813Y-88043850D01*
X121974467Y-88048777D01*
X121977620Y-88054038D01*
X121980242Y-88059582D01*
X121982309Y-88065357D01*
X121983799Y-88071307D01*
X121984699Y-88077374D01*
X121985000Y-88083500D01*
X121985000Y-88208500D01*
X121984699Y-88214626D01*
X121983799Y-88220693D01*
X121982309Y-88226643D01*
X121980242Y-88232418D01*
X121977620Y-88237962D01*
X121974467Y-88243223D01*
X121970813Y-88248150D01*
X121966694Y-88252694D01*
X121962150Y-88256813D01*
X121957223Y-88260467D01*
X121951962Y-88263620D01*
X121946418Y-88266242D01*
X121940643Y-88268309D01*
X121934693Y-88269799D01*
X121928626Y-88270699D01*
X121922500Y-88271000D01*
X120997500Y-88271000D01*
X120991374Y-88270699D01*
X120985307Y-88269799D01*
X120979357Y-88268309D01*
X120973582Y-88266242D01*
X120968038Y-88263620D01*
X120962777Y-88260467D01*
X120957850Y-88256813D01*
X120953306Y-88252694D01*
X120949187Y-88248150D01*
X120945533Y-88243223D01*
X120942380Y-88237962D01*
X120939758Y-88232418D01*
X120937691Y-88226643D01*
X120936201Y-88220693D01*
X120935301Y-88214626D01*
X120935000Y-88208500D01*
X120935000Y-88083500D01*
X120935301Y-88077374D01*
X120936201Y-88071307D01*
X120937691Y-88065357D01*
X120939758Y-88059582D01*
X120942380Y-88054038D01*
X120945533Y-88048777D01*
X120949187Y-88043850D01*
X120953306Y-88039306D01*
X120957850Y-88035187D01*
X120962777Y-88031533D01*
X120968038Y-88028380D01*
X120973582Y-88025758D01*
X120979357Y-88023691D01*
X120985307Y-88022201D01*
X120991374Y-88021301D01*
X120997500Y-88021000D01*
X121922500Y-88021000D01*
X121928626Y-88021301D01*
X121928626Y-88021301D01*
G37*
D21*
X121460000Y-88146000D03*
D10*
G36*
X121928626Y-87521301D02*
X121934693Y-87522201D01*
X121940643Y-87523691D01*
X121946418Y-87525758D01*
X121951962Y-87528380D01*
X121957223Y-87531533D01*
X121962150Y-87535187D01*
X121966694Y-87539306D01*
X121970813Y-87543850D01*
X121974467Y-87548777D01*
X121977620Y-87554038D01*
X121980242Y-87559582D01*
X121982309Y-87565357D01*
X121983799Y-87571307D01*
X121984699Y-87577374D01*
X121985000Y-87583500D01*
X121985000Y-87708500D01*
X121984699Y-87714626D01*
X121983799Y-87720693D01*
X121982309Y-87726643D01*
X121980242Y-87732418D01*
X121977620Y-87737962D01*
X121974467Y-87743223D01*
X121970813Y-87748150D01*
X121966694Y-87752694D01*
X121962150Y-87756813D01*
X121957223Y-87760467D01*
X121951962Y-87763620D01*
X121946418Y-87766242D01*
X121940643Y-87768309D01*
X121934693Y-87769799D01*
X121928626Y-87770699D01*
X121922500Y-87771000D01*
X120997500Y-87771000D01*
X120991374Y-87770699D01*
X120985307Y-87769799D01*
X120979357Y-87768309D01*
X120973582Y-87766242D01*
X120968038Y-87763620D01*
X120962777Y-87760467D01*
X120957850Y-87756813D01*
X120953306Y-87752694D01*
X120949187Y-87748150D01*
X120945533Y-87743223D01*
X120942380Y-87737962D01*
X120939758Y-87732418D01*
X120937691Y-87726643D01*
X120936201Y-87720693D01*
X120935301Y-87714626D01*
X120935000Y-87708500D01*
X120935000Y-87583500D01*
X120935301Y-87577374D01*
X120936201Y-87571307D01*
X120937691Y-87565357D01*
X120939758Y-87559582D01*
X120942380Y-87554038D01*
X120945533Y-87548777D01*
X120949187Y-87543850D01*
X120953306Y-87539306D01*
X120957850Y-87535187D01*
X120962777Y-87531533D01*
X120968038Y-87528380D01*
X120973582Y-87525758D01*
X120979357Y-87523691D01*
X120985307Y-87522201D01*
X120991374Y-87521301D01*
X120997500Y-87521000D01*
X121922500Y-87521000D01*
X121928626Y-87521301D01*
X121928626Y-87521301D01*
G37*
D21*
X121460000Y-87646000D03*
D10*
G36*
X121928626Y-87021301D02*
X121934693Y-87022201D01*
X121940643Y-87023691D01*
X121946418Y-87025758D01*
X121951962Y-87028380D01*
X121957223Y-87031533D01*
X121962150Y-87035187D01*
X121966694Y-87039306D01*
X121970813Y-87043850D01*
X121974467Y-87048777D01*
X121977620Y-87054038D01*
X121980242Y-87059582D01*
X121982309Y-87065357D01*
X121983799Y-87071307D01*
X121984699Y-87077374D01*
X121985000Y-87083500D01*
X121985000Y-87208500D01*
X121984699Y-87214626D01*
X121983799Y-87220693D01*
X121982309Y-87226643D01*
X121980242Y-87232418D01*
X121977620Y-87237962D01*
X121974467Y-87243223D01*
X121970813Y-87248150D01*
X121966694Y-87252694D01*
X121962150Y-87256813D01*
X121957223Y-87260467D01*
X121951962Y-87263620D01*
X121946418Y-87266242D01*
X121940643Y-87268309D01*
X121934693Y-87269799D01*
X121928626Y-87270699D01*
X121922500Y-87271000D01*
X120997500Y-87271000D01*
X120991374Y-87270699D01*
X120985307Y-87269799D01*
X120979357Y-87268309D01*
X120973582Y-87266242D01*
X120968038Y-87263620D01*
X120962777Y-87260467D01*
X120957850Y-87256813D01*
X120953306Y-87252694D01*
X120949187Y-87248150D01*
X120945533Y-87243223D01*
X120942380Y-87237962D01*
X120939758Y-87232418D01*
X120937691Y-87226643D01*
X120936201Y-87220693D01*
X120935301Y-87214626D01*
X120935000Y-87208500D01*
X120935000Y-87083500D01*
X120935301Y-87077374D01*
X120936201Y-87071307D01*
X120937691Y-87065357D01*
X120939758Y-87059582D01*
X120942380Y-87054038D01*
X120945533Y-87048777D01*
X120949187Y-87043850D01*
X120953306Y-87039306D01*
X120957850Y-87035187D01*
X120962777Y-87031533D01*
X120968038Y-87028380D01*
X120973582Y-87025758D01*
X120979357Y-87023691D01*
X120985307Y-87022201D01*
X120991374Y-87021301D01*
X120997500Y-87021000D01*
X121922500Y-87021000D01*
X121928626Y-87021301D01*
X121928626Y-87021301D01*
G37*
D21*
X121460000Y-87146000D03*
D10*
G36*
X121928626Y-86521301D02*
X121934693Y-86522201D01*
X121940643Y-86523691D01*
X121946418Y-86525758D01*
X121951962Y-86528380D01*
X121957223Y-86531533D01*
X121962150Y-86535187D01*
X121966694Y-86539306D01*
X121970813Y-86543850D01*
X121974467Y-86548777D01*
X121977620Y-86554038D01*
X121980242Y-86559582D01*
X121982309Y-86565357D01*
X121983799Y-86571307D01*
X121984699Y-86577374D01*
X121985000Y-86583500D01*
X121985000Y-86708500D01*
X121984699Y-86714626D01*
X121983799Y-86720693D01*
X121982309Y-86726643D01*
X121980242Y-86732418D01*
X121977620Y-86737962D01*
X121974467Y-86743223D01*
X121970813Y-86748150D01*
X121966694Y-86752694D01*
X121962150Y-86756813D01*
X121957223Y-86760467D01*
X121951962Y-86763620D01*
X121946418Y-86766242D01*
X121940643Y-86768309D01*
X121934693Y-86769799D01*
X121928626Y-86770699D01*
X121922500Y-86771000D01*
X120997500Y-86771000D01*
X120991374Y-86770699D01*
X120985307Y-86769799D01*
X120979357Y-86768309D01*
X120973582Y-86766242D01*
X120968038Y-86763620D01*
X120962777Y-86760467D01*
X120957850Y-86756813D01*
X120953306Y-86752694D01*
X120949187Y-86748150D01*
X120945533Y-86743223D01*
X120942380Y-86737962D01*
X120939758Y-86732418D01*
X120937691Y-86726643D01*
X120936201Y-86720693D01*
X120935301Y-86714626D01*
X120935000Y-86708500D01*
X120935000Y-86583500D01*
X120935301Y-86577374D01*
X120936201Y-86571307D01*
X120937691Y-86565357D01*
X120939758Y-86559582D01*
X120942380Y-86554038D01*
X120945533Y-86548777D01*
X120949187Y-86543850D01*
X120953306Y-86539306D01*
X120957850Y-86535187D01*
X120962777Y-86531533D01*
X120968038Y-86528380D01*
X120973582Y-86525758D01*
X120979357Y-86523691D01*
X120985307Y-86522201D01*
X120991374Y-86521301D01*
X120997500Y-86521000D01*
X121922500Y-86521000D01*
X121928626Y-86521301D01*
X121928626Y-86521301D01*
G37*
D21*
X121460000Y-86646000D03*
D10*
G36*
X121928626Y-86021301D02*
X121934693Y-86022201D01*
X121940643Y-86023691D01*
X121946418Y-86025758D01*
X121951962Y-86028380D01*
X121957223Y-86031533D01*
X121962150Y-86035187D01*
X121966694Y-86039306D01*
X121970813Y-86043850D01*
X121974467Y-86048777D01*
X121977620Y-86054038D01*
X121980242Y-86059582D01*
X121982309Y-86065357D01*
X121983799Y-86071307D01*
X121984699Y-86077374D01*
X121985000Y-86083500D01*
X121985000Y-86208500D01*
X121984699Y-86214626D01*
X121983799Y-86220693D01*
X121982309Y-86226643D01*
X121980242Y-86232418D01*
X121977620Y-86237962D01*
X121974467Y-86243223D01*
X121970813Y-86248150D01*
X121966694Y-86252694D01*
X121962150Y-86256813D01*
X121957223Y-86260467D01*
X121951962Y-86263620D01*
X121946418Y-86266242D01*
X121940643Y-86268309D01*
X121934693Y-86269799D01*
X121928626Y-86270699D01*
X121922500Y-86271000D01*
X120997500Y-86271000D01*
X120991374Y-86270699D01*
X120985307Y-86269799D01*
X120979357Y-86268309D01*
X120973582Y-86266242D01*
X120968038Y-86263620D01*
X120962777Y-86260467D01*
X120957850Y-86256813D01*
X120953306Y-86252694D01*
X120949187Y-86248150D01*
X120945533Y-86243223D01*
X120942380Y-86237962D01*
X120939758Y-86232418D01*
X120937691Y-86226643D01*
X120936201Y-86220693D01*
X120935301Y-86214626D01*
X120935000Y-86208500D01*
X120935000Y-86083500D01*
X120935301Y-86077374D01*
X120936201Y-86071307D01*
X120937691Y-86065357D01*
X120939758Y-86059582D01*
X120942380Y-86054038D01*
X120945533Y-86048777D01*
X120949187Y-86043850D01*
X120953306Y-86039306D01*
X120957850Y-86035187D01*
X120962777Y-86031533D01*
X120968038Y-86028380D01*
X120973582Y-86025758D01*
X120979357Y-86023691D01*
X120985307Y-86022201D01*
X120991374Y-86021301D01*
X120997500Y-86021000D01*
X121922500Y-86021000D01*
X121928626Y-86021301D01*
X121928626Y-86021301D01*
G37*
D21*
X121460000Y-86146000D03*
D10*
G36*
X120678626Y-84771301D02*
X120684693Y-84772201D01*
X120690643Y-84773691D01*
X120696418Y-84775758D01*
X120701962Y-84778380D01*
X120707223Y-84781533D01*
X120712150Y-84785187D01*
X120716694Y-84789306D01*
X120720813Y-84793850D01*
X120724467Y-84798777D01*
X120727620Y-84804038D01*
X120730242Y-84809582D01*
X120732309Y-84815357D01*
X120733799Y-84821307D01*
X120734699Y-84827374D01*
X120735000Y-84833500D01*
X120735000Y-85758500D01*
X120734699Y-85764626D01*
X120733799Y-85770693D01*
X120732309Y-85776643D01*
X120730242Y-85782418D01*
X120727620Y-85787962D01*
X120724467Y-85793223D01*
X120720813Y-85798150D01*
X120716694Y-85802694D01*
X120712150Y-85806813D01*
X120707223Y-85810467D01*
X120701962Y-85813620D01*
X120696418Y-85816242D01*
X120690643Y-85818309D01*
X120684693Y-85819799D01*
X120678626Y-85820699D01*
X120672500Y-85821000D01*
X120547500Y-85821000D01*
X120541374Y-85820699D01*
X120535307Y-85819799D01*
X120529357Y-85818309D01*
X120523582Y-85816242D01*
X120518038Y-85813620D01*
X120512777Y-85810467D01*
X120507850Y-85806813D01*
X120503306Y-85802694D01*
X120499187Y-85798150D01*
X120495533Y-85793223D01*
X120492380Y-85787962D01*
X120489758Y-85782418D01*
X120487691Y-85776643D01*
X120486201Y-85770693D01*
X120485301Y-85764626D01*
X120485000Y-85758500D01*
X120485000Y-84833500D01*
X120485301Y-84827374D01*
X120486201Y-84821307D01*
X120487691Y-84815357D01*
X120489758Y-84809582D01*
X120492380Y-84804038D01*
X120495533Y-84798777D01*
X120499187Y-84793850D01*
X120503306Y-84789306D01*
X120507850Y-84785187D01*
X120512777Y-84781533D01*
X120518038Y-84778380D01*
X120523582Y-84775758D01*
X120529357Y-84773691D01*
X120535307Y-84772201D01*
X120541374Y-84771301D01*
X120547500Y-84771000D01*
X120672500Y-84771000D01*
X120678626Y-84771301D01*
X120678626Y-84771301D01*
G37*
D21*
X120610000Y-85296000D03*
D10*
G36*
X120178626Y-84771301D02*
X120184693Y-84772201D01*
X120190643Y-84773691D01*
X120196418Y-84775758D01*
X120201962Y-84778380D01*
X120207223Y-84781533D01*
X120212150Y-84785187D01*
X120216694Y-84789306D01*
X120220813Y-84793850D01*
X120224467Y-84798777D01*
X120227620Y-84804038D01*
X120230242Y-84809582D01*
X120232309Y-84815357D01*
X120233799Y-84821307D01*
X120234699Y-84827374D01*
X120235000Y-84833500D01*
X120235000Y-85758500D01*
X120234699Y-85764626D01*
X120233799Y-85770693D01*
X120232309Y-85776643D01*
X120230242Y-85782418D01*
X120227620Y-85787962D01*
X120224467Y-85793223D01*
X120220813Y-85798150D01*
X120216694Y-85802694D01*
X120212150Y-85806813D01*
X120207223Y-85810467D01*
X120201962Y-85813620D01*
X120196418Y-85816242D01*
X120190643Y-85818309D01*
X120184693Y-85819799D01*
X120178626Y-85820699D01*
X120172500Y-85821000D01*
X120047500Y-85821000D01*
X120041374Y-85820699D01*
X120035307Y-85819799D01*
X120029357Y-85818309D01*
X120023582Y-85816242D01*
X120018038Y-85813620D01*
X120012777Y-85810467D01*
X120007850Y-85806813D01*
X120003306Y-85802694D01*
X119999187Y-85798150D01*
X119995533Y-85793223D01*
X119992380Y-85787962D01*
X119989758Y-85782418D01*
X119987691Y-85776643D01*
X119986201Y-85770693D01*
X119985301Y-85764626D01*
X119985000Y-85758500D01*
X119985000Y-84833500D01*
X119985301Y-84827374D01*
X119986201Y-84821307D01*
X119987691Y-84815357D01*
X119989758Y-84809582D01*
X119992380Y-84804038D01*
X119995533Y-84798777D01*
X119999187Y-84793850D01*
X120003306Y-84789306D01*
X120007850Y-84785187D01*
X120012777Y-84781533D01*
X120018038Y-84778380D01*
X120023582Y-84775758D01*
X120029357Y-84773691D01*
X120035307Y-84772201D01*
X120041374Y-84771301D01*
X120047500Y-84771000D01*
X120172500Y-84771000D01*
X120178626Y-84771301D01*
X120178626Y-84771301D01*
G37*
D21*
X120110000Y-85296000D03*
D10*
G36*
X119678626Y-84771301D02*
X119684693Y-84772201D01*
X119690643Y-84773691D01*
X119696418Y-84775758D01*
X119701962Y-84778380D01*
X119707223Y-84781533D01*
X119712150Y-84785187D01*
X119716694Y-84789306D01*
X119720813Y-84793850D01*
X119724467Y-84798777D01*
X119727620Y-84804038D01*
X119730242Y-84809582D01*
X119732309Y-84815357D01*
X119733799Y-84821307D01*
X119734699Y-84827374D01*
X119735000Y-84833500D01*
X119735000Y-85758500D01*
X119734699Y-85764626D01*
X119733799Y-85770693D01*
X119732309Y-85776643D01*
X119730242Y-85782418D01*
X119727620Y-85787962D01*
X119724467Y-85793223D01*
X119720813Y-85798150D01*
X119716694Y-85802694D01*
X119712150Y-85806813D01*
X119707223Y-85810467D01*
X119701962Y-85813620D01*
X119696418Y-85816242D01*
X119690643Y-85818309D01*
X119684693Y-85819799D01*
X119678626Y-85820699D01*
X119672500Y-85821000D01*
X119547500Y-85821000D01*
X119541374Y-85820699D01*
X119535307Y-85819799D01*
X119529357Y-85818309D01*
X119523582Y-85816242D01*
X119518038Y-85813620D01*
X119512777Y-85810467D01*
X119507850Y-85806813D01*
X119503306Y-85802694D01*
X119499187Y-85798150D01*
X119495533Y-85793223D01*
X119492380Y-85787962D01*
X119489758Y-85782418D01*
X119487691Y-85776643D01*
X119486201Y-85770693D01*
X119485301Y-85764626D01*
X119485000Y-85758500D01*
X119485000Y-84833500D01*
X119485301Y-84827374D01*
X119486201Y-84821307D01*
X119487691Y-84815357D01*
X119489758Y-84809582D01*
X119492380Y-84804038D01*
X119495533Y-84798777D01*
X119499187Y-84793850D01*
X119503306Y-84789306D01*
X119507850Y-84785187D01*
X119512777Y-84781533D01*
X119518038Y-84778380D01*
X119523582Y-84775758D01*
X119529357Y-84773691D01*
X119535307Y-84772201D01*
X119541374Y-84771301D01*
X119547500Y-84771000D01*
X119672500Y-84771000D01*
X119678626Y-84771301D01*
X119678626Y-84771301D01*
G37*
D21*
X119610000Y-85296000D03*
D10*
G36*
X119178626Y-84771301D02*
X119184693Y-84772201D01*
X119190643Y-84773691D01*
X119196418Y-84775758D01*
X119201962Y-84778380D01*
X119207223Y-84781533D01*
X119212150Y-84785187D01*
X119216694Y-84789306D01*
X119220813Y-84793850D01*
X119224467Y-84798777D01*
X119227620Y-84804038D01*
X119230242Y-84809582D01*
X119232309Y-84815357D01*
X119233799Y-84821307D01*
X119234699Y-84827374D01*
X119235000Y-84833500D01*
X119235000Y-85758500D01*
X119234699Y-85764626D01*
X119233799Y-85770693D01*
X119232309Y-85776643D01*
X119230242Y-85782418D01*
X119227620Y-85787962D01*
X119224467Y-85793223D01*
X119220813Y-85798150D01*
X119216694Y-85802694D01*
X119212150Y-85806813D01*
X119207223Y-85810467D01*
X119201962Y-85813620D01*
X119196418Y-85816242D01*
X119190643Y-85818309D01*
X119184693Y-85819799D01*
X119178626Y-85820699D01*
X119172500Y-85821000D01*
X119047500Y-85821000D01*
X119041374Y-85820699D01*
X119035307Y-85819799D01*
X119029357Y-85818309D01*
X119023582Y-85816242D01*
X119018038Y-85813620D01*
X119012777Y-85810467D01*
X119007850Y-85806813D01*
X119003306Y-85802694D01*
X118999187Y-85798150D01*
X118995533Y-85793223D01*
X118992380Y-85787962D01*
X118989758Y-85782418D01*
X118987691Y-85776643D01*
X118986201Y-85770693D01*
X118985301Y-85764626D01*
X118985000Y-85758500D01*
X118985000Y-84833500D01*
X118985301Y-84827374D01*
X118986201Y-84821307D01*
X118987691Y-84815357D01*
X118989758Y-84809582D01*
X118992380Y-84804038D01*
X118995533Y-84798777D01*
X118999187Y-84793850D01*
X119003306Y-84789306D01*
X119007850Y-84785187D01*
X119012777Y-84781533D01*
X119018038Y-84778380D01*
X119023582Y-84775758D01*
X119029357Y-84773691D01*
X119035307Y-84772201D01*
X119041374Y-84771301D01*
X119047500Y-84771000D01*
X119172500Y-84771000D01*
X119178626Y-84771301D01*
X119178626Y-84771301D01*
G37*
D21*
X119110000Y-85296000D03*
D10*
G36*
X118678626Y-84771301D02*
X118684693Y-84772201D01*
X118690643Y-84773691D01*
X118696418Y-84775758D01*
X118701962Y-84778380D01*
X118707223Y-84781533D01*
X118712150Y-84785187D01*
X118716694Y-84789306D01*
X118720813Y-84793850D01*
X118724467Y-84798777D01*
X118727620Y-84804038D01*
X118730242Y-84809582D01*
X118732309Y-84815357D01*
X118733799Y-84821307D01*
X118734699Y-84827374D01*
X118735000Y-84833500D01*
X118735000Y-85758500D01*
X118734699Y-85764626D01*
X118733799Y-85770693D01*
X118732309Y-85776643D01*
X118730242Y-85782418D01*
X118727620Y-85787962D01*
X118724467Y-85793223D01*
X118720813Y-85798150D01*
X118716694Y-85802694D01*
X118712150Y-85806813D01*
X118707223Y-85810467D01*
X118701962Y-85813620D01*
X118696418Y-85816242D01*
X118690643Y-85818309D01*
X118684693Y-85819799D01*
X118678626Y-85820699D01*
X118672500Y-85821000D01*
X118547500Y-85821000D01*
X118541374Y-85820699D01*
X118535307Y-85819799D01*
X118529357Y-85818309D01*
X118523582Y-85816242D01*
X118518038Y-85813620D01*
X118512777Y-85810467D01*
X118507850Y-85806813D01*
X118503306Y-85802694D01*
X118499187Y-85798150D01*
X118495533Y-85793223D01*
X118492380Y-85787962D01*
X118489758Y-85782418D01*
X118487691Y-85776643D01*
X118486201Y-85770693D01*
X118485301Y-85764626D01*
X118485000Y-85758500D01*
X118485000Y-84833500D01*
X118485301Y-84827374D01*
X118486201Y-84821307D01*
X118487691Y-84815357D01*
X118489758Y-84809582D01*
X118492380Y-84804038D01*
X118495533Y-84798777D01*
X118499187Y-84793850D01*
X118503306Y-84789306D01*
X118507850Y-84785187D01*
X118512777Y-84781533D01*
X118518038Y-84778380D01*
X118523582Y-84775758D01*
X118529357Y-84773691D01*
X118535307Y-84772201D01*
X118541374Y-84771301D01*
X118547500Y-84771000D01*
X118672500Y-84771000D01*
X118678626Y-84771301D01*
X118678626Y-84771301D01*
G37*
D21*
X118610000Y-85296000D03*
D10*
G36*
X118178626Y-84771301D02*
X118184693Y-84772201D01*
X118190643Y-84773691D01*
X118196418Y-84775758D01*
X118201962Y-84778380D01*
X118207223Y-84781533D01*
X118212150Y-84785187D01*
X118216694Y-84789306D01*
X118220813Y-84793850D01*
X118224467Y-84798777D01*
X118227620Y-84804038D01*
X118230242Y-84809582D01*
X118232309Y-84815357D01*
X118233799Y-84821307D01*
X118234699Y-84827374D01*
X118235000Y-84833500D01*
X118235000Y-85758500D01*
X118234699Y-85764626D01*
X118233799Y-85770693D01*
X118232309Y-85776643D01*
X118230242Y-85782418D01*
X118227620Y-85787962D01*
X118224467Y-85793223D01*
X118220813Y-85798150D01*
X118216694Y-85802694D01*
X118212150Y-85806813D01*
X118207223Y-85810467D01*
X118201962Y-85813620D01*
X118196418Y-85816242D01*
X118190643Y-85818309D01*
X118184693Y-85819799D01*
X118178626Y-85820699D01*
X118172500Y-85821000D01*
X118047500Y-85821000D01*
X118041374Y-85820699D01*
X118035307Y-85819799D01*
X118029357Y-85818309D01*
X118023582Y-85816242D01*
X118018038Y-85813620D01*
X118012777Y-85810467D01*
X118007850Y-85806813D01*
X118003306Y-85802694D01*
X117999187Y-85798150D01*
X117995533Y-85793223D01*
X117992380Y-85787962D01*
X117989758Y-85782418D01*
X117987691Y-85776643D01*
X117986201Y-85770693D01*
X117985301Y-85764626D01*
X117985000Y-85758500D01*
X117985000Y-84833500D01*
X117985301Y-84827374D01*
X117986201Y-84821307D01*
X117987691Y-84815357D01*
X117989758Y-84809582D01*
X117992380Y-84804038D01*
X117995533Y-84798777D01*
X117999187Y-84793850D01*
X118003306Y-84789306D01*
X118007850Y-84785187D01*
X118012777Y-84781533D01*
X118018038Y-84778380D01*
X118023582Y-84775758D01*
X118029357Y-84773691D01*
X118035307Y-84772201D01*
X118041374Y-84771301D01*
X118047500Y-84771000D01*
X118172500Y-84771000D01*
X118178626Y-84771301D01*
X118178626Y-84771301D01*
G37*
D21*
X118110000Y-85296000D03*
D10*
G36*
X117678626Y-84771301D02*
X117684693Y-84772201D01*
X117690643Y-84773691D01*
X117696418Y-84775758D01*
X117701962Y-84778380D01*
X117707223Y-84781533D01*
X117712150Y-84785187D01*
X117716694Y-84789306D01*
X117720813Y-84793850D01*
X117724467Y-84798777D01*
X117727620Y-84804038D01*
X117730242Y-84809582D01*
X117732309Y-84815357D01*
X117733799Y-84821307D01*
X117734699Y-84827374D01*
X117735000Y-84833500D01*
X117735000Y-85758500D01*
X117734699Y-85764626D01*
X117733799Y-85770693D01*
X117732309Y-85776643D01*
X117730242Y-85782418D01*
X117727620Y-85787962D01*
X117724467Y-85793223D01*
X117720813Y-85798150D01*
X117716694Y-85802694D01*
X117712150Y-85806813D01*
X117707223Y-85810467D01*
X117701962Y-85813620D01*
X117696418Y-85816242D01*
X117690643Y-85818309D01*
X117684693Y-85819799D01*
X117678626Y-85820699D01*
X117672500Y-85821000D01*
X117547500Y-85821000D01*
X117541374Y-85820699D01*
X117535307Y-85819799D01*
X117529357Y-85818309D01*
X117523582Y-85816242D01*
X117518038Y-85813620D01*
X117512777Y-85810467D01*
X117507850Y-85806813D01*
X117503306Y-85802694D01*
X117499187Y-85798150D01*
X117495533Y-85793223D01*
X117492380Y-85787962D01*
X117489758Y-85782418D01*
X117487691Y-85776643D01*
X117486201Y-85770693D01*
X117485301Y-85764626D01*
X117485000Y-85758500D01*
X117485000Y-84833500D01*
X117485301Y-84827374D01*
X117486201Y-84821307D01*
X117487691Y-84815357D01*
X117489758Y-84809582D01*
X117492380Y-84804038D01*
X117495533Y-84798777D01*
X117499187Y-84793850D01*
X117503306Y-84789306D01*
X117507850Y-84785187D01*
X117512777Y-84781533D01*
X117518038Y-84778380D01*
X117523582Y-84775758D01*
X117529357Y-84773691D01*
X117535307Y-84772201D01*
X117541374Y-84771301D01*
X117547500Y-84771000D01*
X117672500Y-84771000D01*
X117678626Y-84771301D01*
X117678626Y-84771301D01*
G37*
D21*
X117610000Y-85296000D03*
D10*
G36*
X117178626Y-84771301D02*
X117184693Y-84772201D01*
X117190643Y-84773691D01*
X117196418Y-84775758D01*
X117201962Y-84778380D01*
X117207223Y-84781533D01*
X117212150Y-84785187D01*
X117216694Y-84789306D01*
X117220813Y-84793850D01*
X117224467Y-84798777D01*
X117227620Y-84804038D01*
X117230242Y-84809582D01*
X117232309Y-84815357D01*
X117233799Y-84821307D01*
X117234699Y-84827374D01*
X117235000Y-84833500D01*
X117235000Y-85758500D01*
X117234699Y-85764626D01*
X117233799Y-85770693D01*
X117232309Y-85776643D01*
X117230242Y-85782418D01*
X117227620Y-85787962D01*
X117224467Y-85793223D01*
X117220813Y-85798150D01*
X117216694Y-85802694D01*
X117212150Y-85806813D01*
X117207223Y-85810467D01*
X117201962Y-85813620D01*
X117196418Y-85816242D01*
X117190643Y-85818309D01*
X117184693Y-85819799D01*
X117178626Y-85820699D01*
X117172500Y-85821000D01*
X117047500Y-85821000D01*
X117041374Y-85820699D01*
X117035307Y-85819799D01*
X117029357Y-85818309D01*
X117023582Y-85816242D01*
X117018038Y-85813620D01*
X117012777Y-85810467D01*
X117007850Y-85806813D01*
X117003306Y-85802694D01*
X116999187Y-85798150D01*
X116995533Y-85793223D01*
X116992380Y-85787962D01*
X116989758Y-85782418D01*
X116987691Y-85776643D01*
X116986201Y-85770693D01*
X116985301Y-85764626D01*
X116985000Y-85758500D01*
X116985000Y-84833500D01*
X116985301Y-84827374D01*
X116986201Y-84821307D01*
X116987691Y-84815357D01*
X116989758Y-84809582D01*
X116992380Y-84804038D01*
X116995533Y-84798777D01*
X116999187Y-84793850D01*
X117003306Y-84789306D01*
X117007850Y-84785187D01*
X117012777Y-84781533D01*
X117018038Y-84778380D01*
X117023582Y-84775758D01*
X117029357Y-84773691D01*
X117035307Y-84772201D01*
X117041374Y-84771301D01*
X117047500Y-84771000D01*
X117172500Y-84771000D01*
X117178626Y-84771301D01*
X117178626Y-84771301D01*
G37*
D21*
X117110000Y-85296000D03*
D10*
G36*
X116678626Y-84771301D02*
X116684693Y-84772201D01*
X116690643Y-84773691D01*
X116696418Y-84775758D01*
X116701962Y-84778380D01*
X116707223Y-84781533D01*
X116712150Y-84785187D01*
X116716694Y-84789306D01*
X116720813Y-84793850D01*
X116724467Y-84798777D01*
X116727620Y-84804038D01*
X116730242Y-84809582D01*
X116732309Y-84815357D01*
X116733799Y-84821307D01*
X116734699Y-84827374D01*
X116735000Y-84833500D01*
X116735000Y-85758500D01*
X116734699Y-85764626D01*
X116733799Y-85770693D01*
X116732309Y-85776643D01*
X116730242Y-85782418D01*
X116727620Y-85787962D01*
X116724467Y-85793223D01*
X116720813Y-85798150D01*
X116716694Y-85802694D01*
X116712150Y-85806813D01*
X116707223Y-85810467D01*
X116701962Y-85813620D01*
X116696418Y-85816242D01*
X116690643Y-85818309D01*
X116684693Y-85819799D01*
X116678626Y-85820699D01*
X116672500Y-85821000D01*
X116547500Y-85821000D01*
X116541374Y-85820699D01*
X116535307Y-85819799D01*
X116529357Y-85818309D01*
X116523582Y-85816242D01*
X116518038Y-85813620D01*
X116512777Y-85810467D01*
X116507850Y-85806813D01*
X116503306Y-85802694D01*
X116499187Y-85798150D01*
X116495533Y-85793223D01*
X116492380Y-85787962D01*
X116489758Y-85782418D01*
X116487691Y-85776643D01*
X116486201Y-85770693D01*
X116485301Y-85764626D01*
X116485000Y-85758500D01*
X116485000Y-84833500D01*
X116485301Y-84827374D01*
X116486201Y-84821307D01*
X116487691Y-84815357D01*
X116489758Y-84809582D01*
X116492380Y-84804038D01*
X116495533Y-84798777D01*
X116499187Y-84793850D01*
X116503306Y-84789306D01*
X116507850Y-84785187D01*
X116512777Y-84781533D01*
X116518038Y-84778380D01*
X116523582Y-84775758D01*
X116529357Y-84773691D01*
X116535307Y-84772201D01*
X116541374Y-84771301D01*
X116547500Y-84771000D01*
X116672500Y-84771000D01*
X116678626Y-84771301D01*
X116678626Y-84771301D01*
G37*
D21*
X116610000Y-85296000D03*
D10*
G36*
X116178626Y-84771301D02*
X116184693Y-84772201D01*
X116190643Y-84773691D01*
X116196418Y-84775758D01*
X116201962Y-84778380D01*
X116207223Y-84781533D01*
X116212150Y-84785187D01*
X116216694Y-84789306D01*
X116220813Y-84793850D01*
X116224467Y-84798777D01*
X116227620Y-84804038D01*
X116230242Y-84809582D01*
X116232309Y-84815357D01*
X116233799Y-84821307D01*
X116234699Y-84827374D01*
X116235000Y-84833500D01*
X116235000Y-85758500D01*
X116234699Y-85764626D01*
X116233799Y-85770693D01*
X116232309Y-85776643D01*
X116230242Y-85782418D01*
X116227620Y-85787962D01*
X116224467Y-85793223D01*
X116220813Y-85798150D01*
X116216694Y-85802694D01*
X116212150Y-85806813D01*
X116207223Y-85810467D01*
X116201962Y-85813620D01*
X116196418Y-85816242D01*
X116190643Y-85818309D01*
X116184693Y-85819799D01*
X116178626Y-85820699D01*
X116172500Y-85821000D01*
X116047500Y-85821000D01*
X116041374Y-85820699D01*
X116035307Y-85819799D01*
X116029357Y-85818309D01*
X116023582Y-85816242D01*
X116018038Y-85813620D01*
X116012777Y-85810467D01*
X116007850Y-85806813D01*
X116003306Y-85802694D01*
X115999187Y-85798150D01*
X115995533Y-85793223D01*
X115992380Y-85787962D01*
X115989758Y-85782418D01*
X115987691Y-85776643D01*
X115986201Y-85770693D01*
X115985301Y-85764626D01*
X115985000Y-85758500D01*
X115985000Y-84833500D01*
X115985301Y-84827374D01*
X115986201Y-84821307D01*
X115987691Y-84815357D01*
X115989758Y-84809582D01*
X115992380Y-84804038D01*
X115995533Y-84798777D01*
X115999187Y-84793850D01*
X116003306Y-84789306D01*
X116007850Y-84785187D01*
X116012777Y-84781533D01*
X116018038Y-84778380D01*
X116023582Y-84775758D01*
X116029357Y-84773691D01*
X116035307Y-84772201D01*
X116041374Y-84771301D01*
X116047500Y-84771000D01*
X116172500Y-84771000D01*
X116178626Y-84771301D01*
X116178626Y-84771301D01*
G37*
D21*
X116110000Y-85296000D03*
D10*
G36*
X115678626Y-84771301D02*
X115684693Y-84772201D01*
X115690643Y-84773691D01*
X115696418Y-84775758D01*
X115701962Y-84778380D01*
X115707223Y-84781533D01*
X115712150Y-84785187D01*
X115716694Y-84789306D01*
X115720813Y-84793850D01*
X115724467Y-84798777D01*
X115727620Y-84804038D01*
X115730242Y-84809582D01*
X115732309Y-84815357D01*
X115733799Y-84821307D01*
X115734699Y-84827374D01*
X115735000Y-84833500D01*
X115735000Y-85758500D01*
X115734699Y-85764626D01*
X115733799Y-85770693D01*
X115732309Y-85776643D01*
X115730242Y-85782418D01*
X115727620Y-85787962D01*
X115724467Y-85793223D01*
X115720813Y-85798150D01*
X115716694Y-85802694D01*
X115712150Y-85806813D01*
X115707223Y-85810467D01*
X115701962Y-85813620D01*
X115696418Y-85816242D01*
X115690643Y-85818309D01*
X115684693Y-85819799D01*
X115678626Y-85820699D01*
X115672500Y-85821000D01*
X115547500Y-85821000D01*
X115541374Y-85820699D01*
X115535307Y-85819799D01*
X115529357Y-85818309D01*
X115523582Y-85816242D01*
X115518038Y-85813620D01*
X115512777Y-85810467D01*
X115507850Y-85806813D01*
X115503306Y-85802694D01*
X115499187Y-85798150D01*
X115495533Y-85793223D01*
X115492380Y-85787962D01*
X115489758Y-85782418D01*
X115487691Y-85776643D01*
X115486201Y-85770693D01*
X115485301Y-85764626D01*
X115485000Y-85758500D01*
X115485000Y-84833500D01*
X115485301Y-84827374D01*
X115486201Y-84821307D01*
X115487691Y-84815357D01*
X115489758Y-84809582D01*
X115492380Y-84804038D01*
X115495533Y-84798777D01*
X115499187Y-84793850D01*
X115503306Y-84789306D01*
X115507850Y-84785187D01*
X115512777Y-84781533D01*
X115518038Y-84778380D01*
X115523582Y-84775758D01*
X115529357Y-84773691D01*
X115535307Y-84772201D01*
X115541374Y-84771301D01*
X115547500Y-84771000D01*
X115672500Y-84771000D01*
X115678626Y-84771301D01*
X115678626Y-84771301D01*
G37*
D21*
X115610000Y-85296000D03*
G04 #@! TD*
D10*
G04 #@! TO.C,C10*
G36*
X113815691Y-84933053D02*
X113836926Y-84936203D01*
X113857750Y-84941419D01*
X113877962Y-84948651D01*
X113897368Y-84957830D01*
X113915781Y-84968866D01*
X113933024Y-84981654D01*
X113948930Y-84996070D01*
X113963346Y-85011976D01*
X113976134Y-85029219D01*
X113987170Y-85047632D01*
X113996349Y-85067038D01*
X114003581Y-85087250D01*
X114008797Y-85108074D01*
X114011947Y-85129309D01*
X114013000Y-85150750D01*
X114013000Y-85588250D01*
X114011947Y-85609691D01*
X114008797Y-85630926D01*
X114003581Y-85651750D01*
X113996349Y-85671962D01*
X113987170Y-85691368D01*
X113976134Y-85709781D01*
X113963346Y-85727024D01*
X113948930Y-85742930D01*
X113933024Y-85757346D01*
X113915781Y-85770134D01*
X113897368Y-85781170D01*
X113877962Y-85790349D01*
X113857750Y-85797581D01*
X113836926Y-85802797D01*
X113815691Y-85805947D01*
X113794250Y-85807000D01*
X113281750Y-85807000D01*
X113260309Y-85805947D01*
X113239074Y-85802797D01*
X113218250Y-85797581D01*
X113198038Y-85790349D01*
X113178632Y-85781170D01*
X113160219Y-85770134D01*
X113142976Y-85757346D01*
X113127070Y-85742930D01*
X113112654Y-85727024D01*
X113099866Y-85709781D01*
X113088830Y-85691368D01*
X113079651Y-85671962D01*
X113072419Y-85651750D01*
X113067203Y-85630926D01*
X113064053Y-85609691D01*
X113063000Y-85588250D01*
X113063000Y-85150750D01*
X113064053Y-85129309D01*
X113067203Y-85108074D01*
X113072419Y-85087250D01*
X113079651Y-85067038D01*
X113088830Y-85047632D01*
X113099866Y-85029219D01*
X113112654Y-85011976D01*
X113127070Y-84996070D01*
X113142976Y-84981654D01*
X113160219Y-84968866D01*
X113178632Y-84957830D01*
X113198038Y-84948651D01*
X113218250Y-84941419D01*
X113239074Y-84936203D01*
X113260309Y-84933053D01*
X113281750Y-84932000D01*
X113794250Y-84932000D01*
X113815691Y-84933053D01*
X113815691Y-84933053D01*
G37*
D12*
X113538000Y-85369500D03*
D10*
G36*
X113815691Y-83358053D02*
X113836926Y-83361203D01*
X113857750Y-83366419D01*
X113877962Y-83373651D01*
X113897368Y-83382830D01*
X113915781Y-83393866D01*
X113933024Y-83406654D01*
X113948930Y-83421070D01*
X113963346Y-83436976D01*
X113976134Y-83454219D01*
X113987170Y-83472632D01*
X113996349Y-83492038D01*
X114003581Y-83512250D01*
X114008797Y-83533074D01*
X114011947Y-83554309D01*
X114013000Y-83575750D01*
X114013000Y-84013250D01*
X114011947Y-84034691D01*
X114008797Y-84055926D01*
X114003581Y-84076750D01*
X113996349Y-84096962D01*
X113987170Y-84116368D01*
X113976134Y-84134781D01*
X113963346Y-84152024D01*
X113948930Y-84167930D01*
X113933024Y-84182346D01*
X113915781Y-84195134D01*
X113897368Y-84206170D01*
X113877962Y-84215349D01*
X113857750Y-84222581D01*
X113836926Y-84227797D01*
X113815691Y-84230947D01*
X113794250Y-84232000D01*
X113281750Y-84232000D01*
X113260309Y-84230947D01*
X113239074Y-84227797D01*
X113218250Y-84222581D01*
X113198038Y-84215349D01*
X113178632Y-84206170D01*
X113160219Y-84195134D01*
X113142976Y-84182346D01*
X113127070Y-84167930D01*
X113112654Y-84152024D01*
X113099866Y-84134781D01*
X113088830Y-84116368D01*
X113079651Y-84096962D01*
X113072419Y-84076750D01*
X113067203Y-84055926D01*
X113064053Y-84034691D01*
X113063000Y-84013250D01*
X113063000Y-83575750D01*
X113064053Y-83554309D01*
X113067203Y-83533074D01*
X113072419Y-83512250D01*
X113079651Y-83492038D01*
X113088830Y-83472632D01*
X113099866Y-83454219D01*
X113112654Y-83436976D01*
X113127070Y-83421070D01*
X113142976Y-83406654D01*
X113160219Y-83393866D01*
X113178632Y-83382830D01*
X113198038Y-83373651D01*
X113218250Y-83366419D01*
X113239074Y-83361203D01*
X113260309Y-83358053D01*
X113281750Y-83357000D01*
X113794250Y-83357000D01*
X113815691Y-83358053D01*
X113815691Y-83358053D01*
G37*
D12*
X113538000Y-83794500D03*
G04 #@! TD*
D22*
G04 #@! TO.C,XTAL*
X121290000Y-94420000D03*
X119090000Y-94420000D03*
X119090000Y-96020000D03*
X121290000Y-96020000D03*
G04 #@! TD*
D10*
G04 #@! TO.C,C11*
G36*
X121352691Y-83351053D02*
X121373926Y-83354203D01*
X121394750Y-83359419D01*
X121414962Y-83366651D01*
X121434368Y-83375830D01*
X121452781Y-83386866D01*
X121470024Y-83399654D01*
X121485930Y-83414070D01*
X121500346Y-83429976D01*
X121513134Y-83447219D01*
X121524170Y-83465632D01*
X121533349Y-83485038D01*
X121540581Y-83505250D01*
X121545797Y-83526074D01*
X121548947Y-83547309D01*
X121550000Y-83568750D01*
X121550000Y-84081250D01*
X121548947Y-84102691D01*
X121545797Y-84123926D01*
X121540581Y-84144750D01*
X121533349Y-84164962D01*
X121524170Y-84184368D01*
X121513134Y-84202781D01*
X121500346Y-84220024D01*
X121485930Y-84235930D01*
X121470024Y-84250346D01*
X121452781Y-84263134D01*
X121434368Y-84274170D01*
X121414962Y-84283349D01*
X121394750Y-84290581D01*
X121373926Y-84295797D01*
X121352691Y-84298947D01*
X121331250Y-84300000D01*
X120893750Y-84300000D01*
X120872309Y-84298947D01*
X120851074Y-84295797D01*
X120830250Y-84290581D01*
X120810038Y-84283349D01*
X120790632Y-84274170D01*
X120772219Y-84263134D01*
X120754976Y-84250346D01*
X120739070Y-84235930D01*
X120724654Y-84220024D01*
X120711866Y-84202781D01*
X120700830Y-84184368D01*
X120691651Y-84164962D01*
X120684419Y-84144750D01*
X120679203Y-84123926D01*
X120676053Y-84102691D01*
X120675000Y-84081250D01*
X120675000Y-83568750D01*
X120676053Y-83547309D01*
X120679203Y-83526074D01*
X120684419Y-83505250D01*
X120691651Y-83485038D01*
X120700830Y-83465632D01*
X120711866Y-83447219D01*
X120724654Y-83429976D01*
X120739070Y-83414070D01*
X120754976Y-83399654D01*
X120772219Y-83386866D01*
X120790632Y-83375830D01*
X120810038Y-83366651D01*
X120830250Y-83359419D01*
X120851074Y-83354203D01*
X120872309Y-83351053D01*
X120893750Y-83350000D01*
X121331250Y-83350000D01*
X121352691Y-83351053D01*
X121352691Y-83351053D01*
G37*
D12*
X121112500Y-83825000D03*
D10*
G36*
X119777691Y-83351053D02*
X119798926Y-83354203D01*
X119819750Y-83359419D01*
X119839962Y-83366651D01*
X119859368Y-83375830D01*
X119877781Y-83386866D01*
X119895024Y-83399654D01*
X119910930Y-83414070D01*
X119925346Y-83429976D01*
X119938134Y-83447219D01*
X119949170Y-83465632D01*
X119958349Y-83485038D01*
X119965581Y-83505250D01*
X119970797Y-83526074D01*
X119973947Y-83547309D01*
X119975000Y-83568750D01*
X119975000Y-84081250D01*
X119973947Y-84102691D01*
X119970797Y-84123926D01*
X119965581Y-84144750D01*
X119958349Y-84164962D01*
X119949170Y-84184368D01*
X119938134Y-84202781D01*
X119925346Y-84220024D01*
X119910930Y-84235930D01*
X119895024Y-84250346D01*
X119877781Y-84263134D01*
X119859368Y-84274170D01*
X119839962Y-84283349D01*
X119819750Y-84290581D01*
X119798926Y-84295797D01*
X119777691Y-84298947D01*
X119756250Y-84300000D01*
X119318750Y-84300000D01*
X119297309Y-84298947D01*
X119276074Y-84295797D01*
X119255250Y-84290581D01*
X119235038Y-84283349D01*
X119215632Y-84274170D01*
X119197219Y-84263134D01*
X119179976Y-84250346D01*
X119164070Y-84235930D01*
X119149654Y-84220024D01*
X119136866Y-84202781D01*
X119125830Y-84184368D01*
X119116651Y-84164962D01*
X119109419Y-84144750D01*
X119104203Y-84123926D01*
X119101053Y-84102691D01*
X119100000Y-84081250D01*
X119100000Y-83568750D01*
X119101053Y-83547309D01*
X119104203Y-83526074D01*
X119109419Y-83505250D01*
X119116651Y-83485038D01*
X119125830Y-83465632D01*
X119136866Y-83447219D01*
X119149654Y-83429976D01*
X119164070Y-83414070D01*
X119179976Y-83399654D01*
X119197219Y-83386866D01*
X119215632Y-83375830D01*
X119235038Y-83366651D01*
X119255250Y-83359419D01*
X119276074Y-83354203D01*
X119297309Y-83351053D01*
X119318750Y-83350000D01*
X119756250Y-83350000D01*
X119777691Y-83351053D01*
X119777691Y-83351053D01*
G37*
D12*
X119537500Y-83825000D03*
G04 #@! TD*
D10*
G04 #@! TO.C,C12*
G36*
X115527691Y-81776053D02*
X115548926Y-81779203D01*
X115569750Y-81784419D01*
X115589962Y-81791651D01*
X115609368Y-81800830D01*
X115627781Y-81811866D01*
X115645024Y-81824654D01*
X115660930Y-81839070D01*
X115675346Y-81854976D01*
X115688134Y-81872219D01*
X115699170Y-81890632D01*
X115708349Y-81910038D01*
X115715581Y-81930250D01*
X115720797Y-81951074D01*
X115723947Y-81972309D01*
X115725000Y-81993750D01*
X115725000Y-82431250D01*
X115723947Y-82452691D01*
X115720797Y-82473926D01*
X115715581Y-82494750D01*
X115708349Y-82514962D01*
X115699170Y-82534368D01*
X115688134Y-82552781D01*
X115675346Y-82570024D01*
X115660930Y-82585930D01*
X115645024Y-82600346D01*
X115627781Y-82613134D01*
X115609368Y-82624170D01*
X115589962Y-82633349D01*
X115569750Y-82640581D01*
X115548926Y-82645797D01*
X115527691Y-82648947D01*
X115506250Y-82650000D01*
X114993750Y-82650000D01*
X114972309Y-82648947D01*
X114951074Y-82645797D01*
X114930250Y-82640581D01*
X114910038Y-82633349D01*
X114890632Y-82624170D01*
X114872219Y-82613134D01*
X114854976Y-82600346D01*
X114839070Y-82585930D01*
X114824654Y-82570024D01*
X114811866Y-82552781D01*
X114800830Y-82534368D01*
X114791651Y-82514962D01*
X114784419Y-82494750D01*
X114779203Y-82473926D01*
X114776053Y-82452691D01*
X114775000Y-82431250D01*
X114775000Y-81993750D01*
X114776053Y-81972309D01*
X114779203Y-81951074D01*
X114784419Y-81930250D01*
X114791651Y-81910038D01*
X114800830Y-81890632D01*
X114811866Y-81872219D01*
X114824654Y-81854976D01*
X114839070Y-81839070D01*
X114854976Y-81824654D01*
X114872219Y-81811866D01*
X114890632Y-81800830D01*
X114910038Y-81791651D01*
X114930250Y-81784419D01*
X114951074Y-81779203D01*
X114972309Y-81776053D01*
X114993750Y-81775000D01*
X115506250Y-81775000D01*
X115527691Y-81776053D01*
X115527691Y-81776053D01*
G37*
D12*
X115250000Y-82212500D03*
D10*
G36*
X115527691Y-83351053D02*
X115548926Y-83354203D01*
X115569750Y-83359419D01*
X115589962Y-83366651D01*
X115609368Y-83375830D01*
X115627781Y-83386866D01*
X115645024Y-83399654D01*
X115660930Y-83414070D01*
X115675346Y-83429976D01*
X115688134Y-83447219D01*
X115699170Y-83465632D01*
X115708349Y-83485038D01*
X115715581Y-83505250D01*
X115720797Y-83526074D01*
X115723947Y-83547309D01*
X115725000Y-83568750D01*
X115725000Y-84006250D01*
X115723947Y-84027691D01*
X115720797Y-84048926D01*
X115715581Y-84069750D01*
X115708349Y-84089962D01*
X115699170Y-84109368D01*
X115688134Y-84127781D01*
X115675346Y-84145024D01*
X115660930Y-84160930D01*
X115645024Y-84175346D01*
X115627781Y-84188134D01*
X115609368Y-84199170D01*
X115589962Y-84208349D01*
X115569750Y-84215581D01*
X115548926Y-84220797D01*
X115527691Y-84223947D01*
X115506250Y-84225000D01*
X114993750Y-84225000D01*
X114972309Y-84223947D01*
X114951074Y-84220797D01*
X114930250Y-84215581D01*
X114910038Y-84208349D01*
X114890632Y-84199170D01*
X114872219Y-84188134D01*
X114854976Y-84175346D01*
X114839070Y-84160930D01*
X114824654Y-84145024D01*
X114811866Y-84127781D01*
X114800830Y-84109368D01*
X114791651Y-84089962D01*
X114784419Y-84069750D01*
X114779203Y-84048926D01*
X114776053Y-84027691D01*
X114775000Y-84006250D01*
X114775000Y-83568750D01*
X114776053Y-83547309D01*
X114779203Y-83526074D01*
X114784419Y-83505250D01*
X114791651Y-83485038D01*
X114800830Y-83465632D01*
X114811866Y-83447219D01*
X114824654Y-83429976D01*
X114839070Y-83414070D01*
X114854976Y-83399654D01*
X114872219Y-83386866D01*
X114890632Y-83375830D01*
X114910038Y-83366651D01*
X114930250Y-83359419D01*
X114951074Y-83354203D01*
X114972309Y-83351053D01*
X114993750Y-83350000D01*
X115506250Y-83350000D01*
X115527691Y-83351053D01*
X115527691Y-83351053D01*
G37*
D12*
X115250000Y-83787500D03*
G04 #@! TD*
D10*
G04 #@! TO.C,C13*
G36*
X115452691Y-93776053D02*
X115473926Y-93779203D01*
X115494750Y-93784419D01*
X115514962Y-93791651D01*
X115534368Y-93800830D01*
X115552781Y-93811866D01*
X115570024Y-93824654D01*
X115585930Y-93839070D01*
X115600346Y-93854976D01*
X115613134Y-93872219D01*
X115624170Y-93890632D01*
X115633349Y-93910038D01*
X115640581Y-93930250D01*
X115645797Y-93951074D01*
X115648947Y-93972309D01*
X115650000Y-93993750D01*
X115650000Y-94506250D01*
X115648947Y-94527691D01*
X115645797Y-94548926D01*
X115640581Y-94569750D01*
X115633349Y-94589962D01*
X115624170Y-94609368D01*
X115613134Y-94627781D01*
X115600346Y-94645024D01*
X115585930Y-94660930D01*
X115570024Y-94675346D01*
X115552781Y-94688134D01*
X115534368Y-94699170D01*
X115514962Y-94708349D01*
X115494750Y-94715581D01*
X115473926Y-94720797D01*
X115452691Y-94723947D01*
X115431250Y-94725000D01*
X114993750Y-94725000D01*
X114972309Y-94723947D01*
X114951074Y-94720797D01*
X114930250Y-94715581D01*
X114910038Y-94708349D01*
X114890632Y-94699170D01*
X114872219Y-94688134D01*
X114854976Y-94675346D01*
X114839070Y-94660930D01*
X114824654Y-94645024D01*
X114811866Y-94627781D01*
X114800830Y-94609368D01*
X114791651Y-94589962D01*
X114784419Y-94569750D01*
X114779203Y-94548926D01*
X114776053Y-94527691D01*
X114775000Y-94506250D01*
X114775000Y-93993750D01*
X114776053Y-93972309D01*
X114779203Y-93951074D01*
X114784419Y-93930250D01*
X114791651Y-93910038D01*
X114800830Y-93890632D01*
X114811866Y-93872219D01*
X114824654Y-93854976D01*
X114839070Y-93839070D01*
X114854976Y-93824654D01*
X114872219Y-93811866D01*
X114890632Y-93800830D01*
X114910038Y-93791651D01*
X114930250Y-93784419D01*
X114951074Y-93779203D01*
X114972309Y-93776053D01*
X114993750Y-93775000D01*
X115431250Y-93775000D01*
X115452691Y-93776053D01*
X115452691Y-93776053D01*
G37*
D12*
X115212500Y-94250000D03*
D10*
G36*
X117027691Y-93776053D02*
X117048926Y-93779203D01*
X117069750Y-93784419D01*
X117089962Y-93791651D01*
X117109368Y-93800830D01*
X117127781Y-93811866D01*
X117145024Y-93824654D01*
X117160930Y-93839070D01*
X117175346Y-93854976D01*
X117188134Y-93872219D01*
X117199170Y-93890632D01*
X117208349Y-93910038D01*
X117215581Y-93930250D01*
X117220797Y-93951074D01*
X117223947Y-93972309D01*
X117225000Y-93993750D01*
X117225000Y-94506250D01*
X117223947Y-94527691D01*
X117220797Y-94548926D01*
X117215581Y-94569750D01*
X117208349Y-94589962D01*
X117199170Y-94609368D01*
X117188134Y-94627781D01*
X117175346Y-94645024D01*
X117160930Y-94660930D01*
X117145024Y-94675346D01*
X117127781Y-94688134D01*
X117109368Y-94699170D01*
X117089962Y-94708349D01*
X117069750Y-94715581D01*
X117048926Y-94720797D01*
X117027691Y-94723947D01*
X117006250Y-94725000D01*
X116568750Y-94725000D01*
X116547309Y-94723947D01*
X116526074Y-94720797D01*
X116505250Y-94715581D01*
X116485038Y-94708349D01*
X116465632Y-94699170D01*
X116447219Y-94688134D01*
X116429976Y-94675346D01*
X116414070Y-94660930D01*
X116399654Y-94645024D01*
X116386866Y-94627781D01*
X116375830Y-94609368D01*
X116366651Y-94589962D01*
X116359419Y-94569750D01*
X116354203Y-94548926D01*
X116351053Y-94527691D01*
X116350000Y-94506250D01*
X116350000Y-93993750D01*
X116351053Y-93972309D01*
X116354203Y-93951074D01*
X116359419Y-93930250D01*
X116366651Y-93910038D01*
X116375830Y-93890632D01*
X116386866Y-93872219D01*
X116399654Y-93854976D01*
X116414070Y-93839070D01*
X116429976Y-93824654D01*
X116447219Y-93811866D01*
X116465632Y-93800830D01*
X116485038Y-93791651D01*
X116505250Y-93784419D01*
X116526074Y-93779203D01*
X116547309Y-93776053D01*
X116568750Y-93775000D01*
X117006250Y-93775000D01*
X117027691Y-93776053D01*
X117027691Y-93776053D01*
G37*
D12*
X116787500Y-94250000D03*
G04 #@! TD*
M02*
