M48
INCH,TZ
T1C0.0157
T2C0.0315
T3C0.0394
T4C0.0512
T5C0.0630
%
G90
G05
T1
X39378Y-34500
X39933Y-29728
X40500Y-32748
X40500Y-36252
X40634Y-27413
X43492Y-26016
X44114Y-33251
X44193Y-33760
X44205Y-35728
X44441Y-41575
X44602Y-32173
X44657Y-36406
X45563Y-41587
X45761Y-34161
X45761Y-34874
X45761Y-35618
X45783Y-32984
X46500Y-34161
X46504Y-34874
X46517Y-35618
X47024Y-42358
X47239Y-34161
X47239Y-34874
X47239Y-35618
X48272Y-35445
X48598Y-38476
X49378Y-26468
X55148Y-32877
X56209Y-42424
T2
X44147Y-30914
X44685Y-37388
X47697Y-32333
X49596Y-34941
T4
X59750Y-26022
X59750Y-27991
T5
X40035Y-23839
X40035Y-25807
X51709Y-20483
X56236Y-20483
X44024Y-43205
X45024Y-43205
X46024Y-43205
X47024Y-43205
X43154Y-20463
X47681Y-20463
X53187Y-31850
X53187Y-38342
X54187Y-31850
X54187Y-38342
X55187Y-31850
X55187Y-38342
X56187Y-31850
X56187Y-38342
X53200Y-43200
X54200Y-43200
X55200Y-43200
X56200Y-43200
T3
X41217Y-24528G85X41217Y-25118
G05
X42102Y-26594G85X42693Y-26594
G05
X43579Y-24528G85X43579Y-25118
G05
T0
M30
