G04 #@! TF.GenerationSoftware,KiCad,Pcbnew,5.0.1*
G04 #@! TF.CreationDate,2019-03-15T13:32:49+13:00*
G04 #@! TF.ProjectId,_autosave-baseBoard,5F6175746F736176652D62617365426F,rev?*
G04 #@! TF.SameCoordinates,Original*
G04 #@! TF.FileFunction,Legend,Top*
G04 #@! TF.FilePolarity,Positive*
%FSLAX46Y46*%
G04 Gerber Fmt 4.6, Leading zero omitted, Abs format (unit mm)*
G04 Created by KiCad (PCBNEW 5.0.1) date Fri 15 Mar 2019 01:32:49 PM NZDT*
%MOMM*%
%LPD*%
G01*
G04 APERTURE LIST*
%ADD10C,0.200000*%
%ADD11C,0.300000*%
%ADD12C,0.150000*%
%ADD13C,0.120000*%
G04 APERTURE END LIST*
D10*
X129000000Y-64280000D02*
X114930000Y-64280000D01*
X128980000Y-58820000D02*
X129000000Y-64280000D01*
X114930000Y-58830000D02*
X128960000Y-58830000D01*
X114930000Y-64290000D02*
X114930000Y-58830000D01*
D11*
X116138571Y-62842857D02*
X116352857Y-62914285D01*
X116424285Y-62985714D01*
X116495714Y-63128571D01*
X116495714Y-63342857D01*
X116424285Y-63485714D01*
X116352857Y-63557142D01*
X116210000Y-63628571D01*
X115638571Y-63628571D01*
X115638571Y-62128571D01*
X116138571Y-62128571D01*
X116281428Y-62200000D01*
X116352857Y-62271428D01*
X116424285Y-62414285D01*
X116424285Y-62557142D01*
X116352857Y-62700000D01*
X116281428Y-62771428D01*
X116138571Y-62842857D01*
X115638571Y-62842857D01*
X117781428Y-63628571D02*
X117781428Y-62842857D01*
X117710000Y-62700000D01*
X117567142Y-62628571D01*
X117281428Y-62628571D01*
X117138571Y-62700000D01*
X117781428Y-63557142D02*
X117638571Y-63628571D01*
X117281428Y-63628571D01*
X117138571Y-63557142D01*
X117067142Y-63414285D01*
X117067142Y-63271428D01*
X117138571Y-63128571D01*
X117281428Y-63057142D01*
X117638571Y-63057142D01*
X117781428Y-62985714D01*
X118424285Y-63557142D02*
X118567142Y-63628571D01*
X118852857Y-63628571D01*
X118995714Y-63557142D01*
X119067142Y-63414285D01*
X119067142Y-63342857D01*
X118995714Y-63200000D01*
X118852857Y-63128571D01*
X118638571Y-63128571D01*
X118495714Y-63057142D01*
X118424285Y-62914285D01*
X118424285Y-62842857D01*
X118495714Y-62700000D01*
X118638571Y-62628571D01*
X118852857Y-62628571D01*
X118995714Y-62700000D01*
X120281428Y-63557142D02*
X120138571Y-63628571D01*
X119852857Y-63628571D01*
X119710000Y-63557142D01*
X119638571Y-63414285D01*
X119638571Y-62842857D01*
X119710000Y-62700000D01*
X119852857Y-62628571D01*
X120138571Y-62628571D01*
X120281428Y-62700000D01*
X120352857Y-62842857D01*
X120352857Y-62985714D01*
X119638571Y-63128571D01*
X116402857Y-60898571D02*
X115688571Y-60898571D01*
X115688571Y-59398571D01*
X117545714Y-59898571D02*
X117545714Y-60898571D01*
X116902857Y-59898571D02*
X116902857Y-60684285D01*
X116974285Y-60827142D01*
X117117142Y-60898571D01*
X117331428Y-60898571D01*
X117474285Y-60827142D01*
X117545714Y-60755714D01*
X118260000Y-59898571D02*
X118260000Y-60898571D01*
X118260000Y-60041428D02*
X118331428Y-59970000D01*
X118474285Y-59898571D01*
X118688571Y-59898571D01*
X118831428Y-59970000D01*
X118902857Y-60112857D01*
X118902857Y-60898571D01*
X120260000Y-59898571D02*
X120260000Y-61112857D01*
X120188571Y-61255714D01*
X120117142Y-61327142D01*
X119974285Y-61398571D01*
X119760000Y-61398571D01*
X119617142Y-61327142D01*
X120260000Y-60827142D02*
X120117142Y-60898571D01*
X119831428Y-60898571D01*
X119688571Y-60827142D01*
X119617142Y-60755714D01*
X119545714Y-60612857D01*
X119545714Y-60184285D01*
X119617142Y-60041428D01*
X119688571Y-59970000D01*
X119831428Y-59898571D01*
X120117142Y-59898571D01*
X120260000Y-59970000D01*
X122117142Y-60898571D02*
X122117142Y-59398571D01*
X122617142Y-60470000D01*
X123117142Y-59398571D01*
X123117142Y-60898571D01*
X123760000Y-60470000D02*
X124474285Y-60470000D01*
X123617142Y-60898571D02*
X124117142Y-59398571D01*
X124617142Y-60898571D01*
X124902857Y-59398571D02*
X125760000Y-59398571D01*
X125331428Y-60898571D02*
X125331428Y-59398571D01*
X126260000Y-60112857D02*
X126760000Y-60112857D01*
X126974285Y-60898571D02*
X126260000Y-60898571D01*
X126260000Y-59398571D01*
X126974285Y-59398571D01*
X127545714Y-60827142D02*
X127760000Y-60898571D01*
X128117142Y-60898571D01*
X128260000Y-60827142D01*
X128331428Y-60755714D01*
X128402857Y-60612857D01*
X128402857Y-60470000D01*
X128331428Y-60327142D01*
X128260000Y-60255714D01*
X128117142Y-60184285D01*
X127831428Y-60112857D01*
X127688571Y-60041428D01*
X127617142Y-59970000D01*
X127545714Y-59827142D01*
X127545714Y-59684285D01*
X127617142Y-59541428D01*
X127688571Y-59470000D01*
X127831428Y-59398571D01*
X128188571Y-59398571D01*
X128402857Y-59470000D01*
D10*
X154080000Y-75140000D02*
X155140000Y-75140000D01*
X154190000Y-61530000D02*
X155080000Y-61530000D01*
X154640000Y-61170000D02*
X154640000Y-61960000D01*
X124390000Y-85340000D02*
X124370000Y-85670000D01*
X124500000Y-85980000D02*
X124070000Y-85560000D01*
X124500000Y-85120000D02*
X124500000Y-85980000D01*
X124050000Y-85540000D02*
X124500000Y-85120000D01*
X125890000Y-85540000D02*
X124050000Y-85540000D01*
D12*
G04 #@! TO.C,PSL2*
X126620000Y-102440000D02*
X126620000Y-117040000D01*
X126620000Y-102440000D02*
X105020000Y-102440000D01*
X105020000Y-102440000D02*
X105020000Y-117040000D01*
X126620000Y-117040000D02*
X105020000Y-117040000D01*
X120620000Y-117040000D02*
X120620000Y-127740000D01*
X111020000Y-117040000D02*
X111020000Y-127740000D01*
D13*
G04 #@! TO.C,C9*
X107845320Y-77754261D02*
X107845320Y-78079819D01*
X106825320Y-77754261D02*
X106825320Y-78079819D01*
G04 #@! TO.C,REG5V*
X102800000Y-71960000D02*
X102800000Y-73760000D01*
X106020000Y-73760000D02*
X106020000Y-71310000D01*
G04 #@! TO.C,C0*
X100862779Y-69190000D02*
X100537221Y-69190000D01*
X100862779Y-70210000D02*
X100537221Y-70210000D01*
G04 #@! TO.C,C1*
X99410000Y-73092779D02*
X99410000Y-72767221D01*
X100430000Y-73092779D02*
X100430000Y-72767221D01*
G04 #@! TO.C,C2*
X105870000Y-77727221D02*
X105870000Y-78052779D01*
X104850000Y-77727221D02*
X104850000Y-78052779D01*
G04 #@! TO.C,C3*
X110192779Y-90540000D02*
X109867221Y-90540000D01*
X110192779Y-89520000D02*
X109867221Y-89520000D01*
G04 #@! TO.C,C4*
X108780000Y-83842779D02*
X108780000Y-83517221D01*
X109800000Y-83842779D02*
X109800000Y-83517221D01*
G04 #@! TO.C,C5*
X123240000Y-90837221D02*
X123240000Y-91162779D01*
X124260000Y-90837221D02*
X124260000Y-91162779D01*
G04 #@! TO.C,C6*
X117820000Y-83172779D02*
X117820000Y-82847221D01*
X116800000Y-83172779D02*
X116800000Y-82847221D01*
G04 #@! TO.C,C7*
X123540000Y-95502779D02*
X123540000Y-95177221D01*
X124560000Y-95502779D02*
X124560000Y-95177221D01*
G04 #@! TO.C,C8*
X119877221Y-98810000D02*
X120202779Y-98810000D01*
X119877221Y-97790000D02*
X120202779Y-97790000D01*
D12*
G04 #@! TO.C,Csuper1*
X142840000Y-48026000D02*
G75*
G02X142840000Y-56026000I0J-4000000D01*
G01*
X131340000Y-56026000D02*
G75*
G02X131340000Y-48026000I0J4000000D01*
G01*
X142840000Y-48026000D02*
X131340000Y-48026000D01*
X142840000Y-56026000D02*
X131340000Y-56026000D01*
G04 #@! TO.C,Csuper2*
X121110000Y-55976000D02*
X109610000Y-55976000D01*
X121110000Y-47976000D02*
X109610000Y-47976000D01*
X109610000Y-55976000D02*
G75*
G02X109610000Y-47976000I0J4000000D01*
G01*
X121110000Y-47976000D02*
G75*
G02X121110000Y-55976000I0J-4000000D01*
G01*
D13*
G04 #@! TO.C,D1*
X99295000Y-77150000D02*
X99295000Y-79435000D01*
X99295000Y-79435000D02*
X100765000Y-79435000D01*
X100765000Y-79435000D02*
X100765000Y-77150000D01*
D12*
G04 #@! TO.C,PWRJack*
X98690000Y-57550000D02*
X98690000Y-68550000D01*
X96690000Y-58550000D02*
X96690000Y-67550000D01*
X96690000Y-58550000D02*
X98690000Y-58550000D01*
X96690000Y-67550000D02*
X98690000Y-67550000D01*
X98690000Y-57550000D02*
X111690000Y-57550000D01*
X111690000Y-57550000D02*
X111690000Y-68550000D01*
X111690000Y-68550000D02*
X98690000Y-68550000D01*
D13*
G04 #@! TO.C,USB*
X96960000Y-91540000D02*
X96960000Y-83720000D01*
X106280000Y-85520000D02*
X106710000Y-85520000D01*
X96960000Y-91540000D02*
X98910000Y-91540000D01*
X101130000Y-91540000D02*
X104360000Y-91540000D01*
X106280000Y-89740000D02*
X106280000Y-90820000D01*
X106280000Y-84440000D02*
X106280000Y-85520000D01*
X101130000Y-83720000D02*
X104360000Y-83720000D01*
X96960000Y-83720000D02*
X98910000Y-83720000D01*
G04 #@! TO.C,PWRSol*
X153944000Y-66096000D02*
G75*
G03X153944000Y-66096000I-2180000J0D01*
G01*
X153944000Y-71096000D02*
G75*
G03X153944000Y-71096000I-2180000J0D01*
G01*
X147164000Y-63536000D02*
X147164000Y-73656000D01*
X148264000Y-63536000D02*
X148264000Y-73656000D01*
X155824000Y-63536000D02*
X155824000Y-73656000D01*
X146704000Y-63536000D02*
X146704000Y-73656000D01*
X155824000Y-63536000D02*
X146704000Y-63536000D01*
X155824000Y-73656000D02*
X146704000Y-73656000D01*
X153152000Y-67750000D02*
X153045000Y-67643000D01*
X150217000Y-64814000D02*
X150110000Y-64708000D01*
X153418000Y-67484000D02*
X153311000Y-67377000D01*
X150483000Y-64548000D02*
X150376000Y-64442000D01*
X153152000Y-72750000D02*
X152756000Y-72355000D01*
X150490000Y-70089000D02*
X150110000Y-69709000D01*
X153418000Y-72484000D02*
X153038000Y-72104000D01*
X150772000Y-69838000D02*
X150376000Y-69443000D01*
X147104000Y-63296000D02*
X146464000Y-63296000D01*
X146464000Y-63296000D02*
X146464000Y-63696000D01*
G04 #@! TO.C,NMOS*
X130244120Y-72918440D02*
X130244120Y-71988440D01*
X130244120Y-69758440D02*
X130244120Y-70688440D01*
X130244120Y-69758440D02*
X128084120Y-69758440D01*
X130244120Y-72918440D02*
X128784120Y-72918440D01*
D12*
G04 #@! TO.C,PSH*
X130096000Y-98888000D02*
X130096000Y-79388000D01*
X130096000Y-98888000D02*
X155896000Y-98888000D01*
X130096000Y-79388000D02*
X155896000Y-79388000D01*
X156004000Y-98888000D02*
X156004000Y-79388000D01*
G04 #@! TO.C,PSL1*
X134328000Y-117028000D02*
X134328000Y-127728000D01*
X143928000Y-117028000D02*
X143928000Y-127728000D01*
X149928000Y-117028000D02*
X128328000Y-117028000D01*
X128328000Y-102428000D02*
X128328000Y-117028000D01*
X149928000Y-102428000D02*
X128328000Y-102428000D01*
X149928000Y-102428000D02*
X149928000Y-117028000D01*
D13*
G04 #@! TO.C,R3*
X110170279Y-88648000D02*
X109844721Y-88648000D01*
X110170279Y-87628000D02*
X109844721Y-87628000D01*
G04 #@! TO.C,R4*
X109844721Y-86870000D02*
X110170279Y-86870000D01*
X109844721Y-85850000D02*
X110170279Y-85850000D01*
D12*
G04 #@! TO.C,GND*
X117602000Y-74676000D02*
X117602000Y-71628000D01*
X117602000Y-71628000D02*
X119634000Y-71628000D01*
X119634000Y-71628000D02*
X119634000Y-74676000D01*
X119634000Y-74676000D02*
X117602000Y-74676000D01*
G04 #@! TO.C,PSH*
X152400000Y-104648000D02*
X155448000Y-104648000D01*
X155448000Y-104648000D02*
X155448000Y-106680000D01*
X155448000Y-106680000D02*
X152400000Y-106680000D01*
X152400000Y-106680000D02*
X152400000Y-104648000D01*
G04 #@! TO.C,PSL1*
X152400000Y-113030000D02*
X152400000Y-110998000D01*
X155448000Y-113030000D02*
X152400000Y-113030000D01*
X155448000Y-110998000D02*
X155448000Y-113030000D01*
X152400000Y-110998000D02*
X155448000Y-110998000D01*
G04 #@! TO.C,PSL2*
X103434000Y-106666000D02*
X100386000Y-106666000D01*
X100386000Y-106666000D02*
X100386000Y-104634000D01*
X100386000Y-104634000D02*
X103434000Y-104634000D01*
X103434000Y-104634000D02*
X103434000Y-106666000D01*
G04 #@! TO.C,VUSB*
X108204000Y-95250000D02*
X108204000Y-93218000D01*
X111252000Y-95250000D02*
X108204000Y-95250000D01*
X111252000Y-93218000D02*
X111252000Y-95250000D01*
X108204000Y-93218000D02*
X111252000Y-93218000D01*
G04 #@! TO.C,VCC*
X112014000Y-74676000D02*
X112014000Y-71628000D01*
X112014000Y-71628000D02*
X114046000Y-71628000D01*
X114046000Y-71628000D02*
X114046000Y-74676000D01*
X114046000Y-74676000D02*
X112014000Y-74676000D01*
G04 #@! TO.C,SigSol*
X128016000Y-67310000D02*
X128016000Y-65278000D01*
X131064000Y-67310000D02*
X128016000Y-67310000D01*
X131064000Y-65278000D02*
X131064000Y-67310000D01*
X128016000Y-65278000D02*
X131064000Y-65278000D01*
G04 #@! TO.C,Vin*
X141478000Y-61976000D02*
X141478000Y-59944000D01*
X144526000Y-61976000D02*
X141478000Y-61976000D01*
X144526000Y-59944000D02*
X144526000Y-61976000D01*
X141478000Y-59944000D02*
X144526000Y-59944000D01*
G04 #@! TO.C,SolGND*
X141478000Y-67056000D02*
X144526000Y-67056000D01*
X144526000Y-67056000D02*
X144526000Y-69088000D01*
X144526000Y-69088000D02*
X141478000Y-69088000D01*
X141478000Y-69088000D02*
X141478000Y-67056000D01*
D13*
G04 #@! TO.C,ATmega32U4*
X120995000Y-85036000D02*
X121720000Y-85036000D01*
X121720000Y-85036000D02*
X121720000Y-85761000D01*
X115225000Y-92256000D02*
X114500000Y-92256000D01*
X114500000Y-92256000D02*
X114500000Y-91531000D01*
X120995000Y-92256000D02*
X121720000Y-92256000D01*
X121720000Y-92256000D02*
X121720000Y-91531000D01*
X115225000Y-85036000D02*
X114500000Y-85036000D01*
G04 #@! TO.C,C10*
X113028000Y-84744779D02*
X113028000Y-84419221D01*
X114048000Y-84744779D02*
X114048000Y-84419221D01*
G04 #@! TO.C,XTAL*
X122190000Y-96795000D02*
X122190000Y-93645000D01*
X122190000Y-93645000D02*
X118190000Y-93645000D01*
D12*
X117990000Y-96020000D02*
X117390000Y-96020000D01*
X122590000Y-94420000D02*
X123390000Y-94420000D01*
D13*
G04 #@! TO.C,C11*
X120487779Y-84335000D02*
X120162221Y-84335000D01*
X120487779Y-83315000D02*
X120162221Y-83315000D01*
G04 #@! TO.C,C12*
X115760000Y-83162779D02*
X115760000Y-82837221D01*
X114740000Y-83162779D02*
X114740000Y-82837221D01*
G04 #@! TO.C,C13*
X115837221Y-93740000D02*
X116162779Y-93740000D01*
X115837221Y-94760000D02*
X116162779Y-94760000D01*
G04 #@! TO.C,PSL2*
D12*
X122900952Y-101556380D02*
X122900952Y-100556380D01*
X123281904Y-100556380D01*
X123377142Y-100604000D01*
X123424761Y-100651619D01*
X123472380Y-100746857D01*
X123472380Y-100889714D01*
X123424761Y-100984952D01*
X123377142Y-101032571D01*
X123281904Y-101080190D01*
X122900952Y-101080190D01*
X123853333Y-101508761D02*
X123996190Y-101556380D01*
X124234285Y-101556380D01*
X124329523Y-101508761D01*
X124377142Y-101461142D01*
X124424761Y-101365904D01*
X124424761Y-101270666D01*
X124377142Y-101175428D01*
X124329523Y-101127809D01*
X124234285Y-101080190D01*
X124043809Y-101032571D01*
X123948571Y-100984952D01*
X123900952Y-100937333D01*
X123853333Y-100842095D01*
X123853333Y-100746857D01*
X123900952Y-100651619D01*
X123948571Y-100604000D01*
X124043809Y-100556380D01*
X124281904Y-100556380D01*
X124424761Y-100604000D01*
X125329523Y-101556380D02*
X124853333Y-101556380D01*
X124853333Y-100556380D01*
X125615238Y-100651619D02*
X125662857Y-100604000D01*
X125758095Y-100556380D01*
X125996190Y-100556380D01*
X126091428Y-100604000D01*
X126139047Y-100651619D01*
X126186666Y-100746857D01*
X126186666Y-100842095D01*
X126139047Y-100984952D01*
X125567619Y-101556380D01*
X126186666Y-101556380D01*
G04 #@! TO.C,FB1*
X123626666Y-87304571D02*
X123293333Y-87304571D01*
X123293333Y-87828380D02*
X123293333Y-86828380D01*
X123769523Y-86828380D01*
X124483809Y-87304571D02*
X124626666Y-87352190D01*
X124674285Y-87399809D01*
X124721904Y-87495047D01*
X124721904Y-87637904D01*
X124674285Y-87733142D01*
X124626666Y-87780761D01*
X124531428Y-87828380D01*
X124150476Y-87828380D01*
X124150476Y-86828380D01*
X124483809Y-86828380D01*
X124579047Y-86876000D01*
X124626666Y-86923619D01*
X124674285Y-87018857D01*
X124674285Y-87114095D01*
X124626666Y-87209333D01*
X124579047Y-87256952D01*
X124483809Y-87304571D01*
X124150476Y-87304571D01*
X125674285Y-87828380D02*
X125102857Y-87828380D01*
X125388571Y-87828380D02*
X125388571Y-86828380D01*
X125293333Y-86971238D01*
X125198095Y-87066476D01*
X125102857Y-87114095D01*
G04 #@! TO.C,C9*
X107275333Y-80621142D02*
X107227714Y-80668761D01*
X107084857Y-80716380D01*
X106989619Y-80716380D01*
X106846761Y-80668761D01*
X106751523Y-80573523D01*
X106703904Y-80478285D01*
X106656285Y-80287809D01*
X106656285Y-80144952D01*
X106703904Y-79954476D01*
X106751523Y-79859238D01*
X106846761Y-79764000D01*
X106989619Y-79716380D01*
X107084857Y-79716380D01*
X107227714Y-79764000D01*
X107275333Y-79811619D01*
X107751523Y-80716380D02*
X107942000Y-80716380D01*
X108037238Y-80668761D01*
X108084857Y-80621142D01*
X108180095Y-80478285D01*
X108227714Y-80287809D01*
X108227714Y-79906857D01*
X108180095Y-79811619D01*
X108132476Y-79764000D01*
X108037238Y-79716380D01*
X107846761Y-79716380D01*
X107751523Y-79764000D01*
X107703904Y-79811619D01*
X107656285Y-79906857D01*
X107656285Y-80144952D01*
X107703904Y-80240190D01*
X107751523Y-80287809D01*
X107846761Y-80335428D01*
X108037238Y-80335428D01*
X108132476Y-80287809D01*
X108180095Y-80240190D01*
X108227714Y-80144952D01*
G04 #@! TO.C,REG5V*
X107640380Y-74445619D02*
X107164190Y-74778952D01*
X107640380Y-75017047D02*
X106640380Y-75017047D01*
X106640380Y-74636095D01*
X106688000Y-74540857D01*
X106735619Y-74493238D01*
X106830857Y-74445619D01*
X106973714Y-74445619D01*
X107068952Y-74493238D01*
X107116571Y-74540857D01*
X107164190Y-74636095D01*
X107164190Y-75017047D01*
X107116571Y-74017047D02*
X107116571Y-73683714D01*
X107640380Y-73540857D02*
X107640380Y-74017047D01*
X106640380Y-74017047D01*
X106640380Y-73540857D01*
X106688000Y-72588476D02*
X106640380Y-72683714D01*
X106640380Y-72826571D01*
X106688000Y-72969428D01*
X106783238Y-73064666D01*
X106878476Y-73112285D01*
X107068952Y-73159904D01*
X107211809Y-73159904D01*
X107402285Y-73112285D01*
X107497523Y-73064666D01*
X107592761Y-72969428D01*
X107640380Y-72826571D01*
X107640380Y-72731333D01*
X107592761Y-72588476D01*
X107545142Y-72540857D01*
X107211809Y-72540857D01*
X107211809Y-72731333D01*
X106640380Y-71636095D02*
X106640380Y-72112285D01*
X107116571Y-72159904D01*
X107068952Y-72112285D01*
X107021333Y-72017047D01*
X107021333Y-71778952D01*
X107068952Y-71683714D01*
X107116571Y-71636095D01*
X107211809Y-71588476D01*
X107449904Y-71588476D01*
X107545142Y-71636095D01*
X107592761Y-71683714D01*
X107640380Y-71778952D01*
X107640380Y-72017047D01*
X107592761Y-72112285D01*
X107545142Y-72159904D01*
X106640380Y-71302761D02*
X107640380Y-70969428D01*
X106640380Y-70636095D01*
G04 #@! TO.C,C0*
X101433333Y-71477142D02*
X101385714Y-71524761D01*
X101242857Y-71572380D01*
X101147619Y-71572380D01*
X101004761Y-71524761D01*
X100909523Y-71429523D01*
X100861904Y-71334285D01*
X100814285Y-71143809D01*
X100814285Y-71000952D01*
X100861904Y-70810476D01*
X100909523Y-70715238D01*
X101004761Y-70620000D01*
X101147619Y-70572380D01*
X101242857Y-70572380D01*
X101385714Y-70620000D01*
X101433333Y-70667619D01*
X102052380Y-70572380D02*
X102147619Y-70572380D01*
X102242857Y-70620000D01*
X102290476Y-70667619D01*
X102338095Y-70762857D01*
X102385714Y-70953333D01*
X102385714Y-71191428D01*
X102338095Y-71381904D01*
X102290476Y-71477142D01*
X102242857Y-71524761D01*
X102147619Y-71572380D01*
X102052380Y-71572380D01*
X101957142Y-71524761D01*
X101909523Y-71477142D01*
X101861904Y-71381904D01*
X101814285Y-71191428D01*
X101814285Y-70953333D01*
X101861904Y-70762857D01*
X101909523Y-70667619D01*
X101957142Y-70620000D01*
X102052380Y-70572380D01*
G04 #@! TO.C,C1*
X99909333Y-75541142D02*
X99861714Y-75588761D01*
X99718857Y-75636380D01*
X99623619Y-75636380D01*
X99480761Y-75588761D01*
X99385523Y-75493523D01*
X99337904Y-75398285D01*
X99290285Y-75207809D01*
X99290285Y-75064952D01*
X99337904Y-74874476D01*
X99385523Y-74779238D01*
X99480761Y-74684000D01*
X99623619Y-74636380D01*
X99718857Y-74636380D01*
X99861714Y-74684000D01*
X99909333Y-74731619D01*
X100861714Y-75636380D02*
X100290285Y-75636380D01*
X100576000Y-75636380D02*
X100576000Y-74636380D01*
X100480761Y-74779238D01*
X100385523Y-74874476D01*
X100290285Y-74922095D01*
G04 #@! TO.C,C2*
X105243333Y-80621142D02*
X105195714Y-80668761D01*
X105052857Y-80716380D01*
X104957619Y-80716380D01*
X104814761Y-80668761D01*
X104719523Y-80573523D01*
X104671904Y-80478285D01*
X104624285Y-80287809D01*
X104624285Y-80144952D01*
X104671904Y-79954476D01*
X104719523Y-79859238D01*
X104814761Y-79764000D01*
X104957619Y-79716380D01*
X105052857Y-79716380D01*
X105195714Y-79764000D01*
X105243333Y-79811619D01*
X105624285Y-79811619D02*
X105671904Y-79764000D01*
X105767142Y-79716380D01*
X106005238Y-79716380D01*
X106100476Y-79764000D01*
X106148095Y-79811619D01*
X106195714Y-79906857D01*
X106195714Y-80002095D01*
X106148095Y-80144952D01*
X105576666Y-80716380D01*
X106195714Y-80716380D01*
G04 #@! TO.C,C3*
X108257142Y-90366666D02*
X108304761Y-90414285D01*
X108352380Y-90557142D01*
X108352380Y-90652380D01*
X108304761Y-90795238D01*
X108209523Y-90890476D01*
X108114285Y-90938095D01*
X107923809Y-90985714D01*
X107780952Y-90985714D01*
X107590476Y-90938095D01*
X107495238Y-90890476D01*
X107400000Y-90795238D01*
X107352380Y-90652380D01*
X107352380Y-90557142D01*
X107400000Y-90414285D01*
X107447619Y-90366666D01*
X107352380Y-90033333D02*
X107352380Y-89414285D01*
X107733333Y-89747619D01*
X107733333Y-89604761D01*
X107780952Y-89509523D01*
X107828571Y-89461904D01*
X107923809Y-89414285D01*
X108161904Y-89414285D01*
X108257142Y-89461904D01*
X108304761Y-89509523D01*
X108352380Y-89604761D01*
X108352380Y-89890476D01*
X108304761Y-89985714D01*
X108257142Y-90033333D01*
G04 #@! TO.C,C4*
X108217142Y-83846666D02*
X108264761Y-83894285D01*
X108312380Y-84037142D01*
X108312380Y-84132380D01*
X108264761Y-84275238D01*
X108169523Y-84370476D01*
X108074285Y-84418095D01*
X107883809Y-84465714D01*
X107740952Y-84465714D01*
X107550476Y-84418095D01*
X107455238Y-84370476D01*
X107360000Y-84275238D01*
X107312380Y-84132380D01*
X107312380Y-84037142D01*
X107360000Y-83894285D01*
X107407619Y-83846666D01*
X107645714Y-82989523D02*
X108312380Y-82989523D01*
X107264761Y-83227619D02*
X107979047Y-83465714D01*
X107979047Y-82846666D01*
G04 #@! TO.C,C5*
X125833142Y-91352666D02*
X125880761Y-91400285D01*
X125928380Y-91543142D01*
X125928380Y-91638380D01*
X125880761Y-91781238D01*
X125785523Y-91876476D01*
X125690285Y-91924095D01*
X125499809Y-91971714D01*
X125356952Y-91971714D01*
X125166476Y-91924095D01*
X125071238Y-91876476D01*
X124976000Y-91781238D01*
X124928380Y-91638380D01*
X124928380Y-91543142D01*
X124976000Y-91400285D01*
X125023619Y-91352666D01*
X124928380Y-90447904D02*
X124928380Y-90924095D01*
X125404571Y-90971714D01*
X125356952Y-90924095D01*
X125309333Y-90828857D01*
X125309333Y-90590761D01*
X125356952Y-90495523D01*
X125404571Y-90447904D01*
X125499809Y-90400285D01*
X125737904Y-90400285D01*
X125833142Y-90447904D01*
X125880761Y-90495523D01*
X125928380Y-90590761D01*
X125928380Y-90828857D01*
X125880761Y-90924095D01*
X125833142Y-90971714D01*
G04 #@! TO.C,C6*
X117313333Y-81197142D02*
X117265714Y-81244761D01*
X117122857Y-81292380D01*
X117027619Y-81292380D01*
X116884761Y-81244761D01*
X116789523Y-81149523D01*
X116741904Y-81054285D01*
X116694285Y-80863809D01*
X116694285Y-80720952D01*
X116741904Y-80530476D01*
X116789523Y-80435238D01*
X116884761Y-80340000D01*
X117027619Y-80292380D01*
X117122857Y-80292380D01*
X117265714Y-80340000D01*
X117313333Y-80387619D01*
X118170476Y-80292380D02*
X117980000Y-80292380D01*
X117884761Y-80340000D01*
X117837142Y-80387619D01*
X117741904Y-80530476D01*
X117694285Y-80720952D01*
X117694285Y-81101904D01*
X117741904Y-81197142D01*
X117789523Y-81244761D01*
X117884761Y-81292380D01*
X118075238Y-81292380D01*
X118170476Y-81244761D01*
X118218095Y-81197142D01*
X118265714Y-81101904D01*
X118265714Y-80863809D01*
X118218095Y-80768571D01*
X118170476Y-80720952D01*
X118075238Y-80673333D01*
X117884761Y-80673333D01*
X117789523Y-80720952D01*
X117741904Y-80768571D01*
X117694285Y-80863809D01*
G04 #@! TO.C,C7*
X126087142Y-95586666D02*
X126134761Y-95634285D01*
X126182380Y-95777142D01*
X126182380Y-95872380D01*
X126134761Y-96015238D01*
X126039523Y-96110476D01*
X125944285Y-96158095D01*
X125753809Y-96205714D01*
X125610952Y-96205714D01*
X125420476Y-96158095D01*
X125325238Y-96110476D01*
X125230000Y-96015238D01*
X125182380Y-95872380D01*
X125182380Y-95777142D01*
X125230000Y-95634285D01*
X125277619Y-95586666D01*
X125182380Y-95253333D02*
X125182380Y-94586666D01*
X126182380Y-95015238D01*
G04 #@! TO.C,C8*
X119893333Y-100457142D02*
X119845714Y-100504761D01*
X119702857Y-100552380D01*
X119607619Y-100552380D01*
X119464761Y-100504761D01*
X119369523Y-100409523D01*
X119321904Y-100314285D01*
X119274285Y-100123809D01*
X119274285Y-99980952D01*
X119321904Y-99790476D01*
X119369523Y-99695238D01*
X119464761Y-99600000D01*
X119607619Y-99552380D01*
X119702857Y-99552380D01*
X119845714Y-99600000D01*
X119893333Y-99647619D01*
X120464761Y-99980952D02*
X120369523Y-99933333D01*
X120321904Y-99885714D01*
X120274285Y-99790476D01*
X120274285Y-99742857D01*
X120321904Y-99647619D01*
X120369523Y-99600000D01*
X120464761Y-99552380D01*
X120655238Y-99552380D01*
X120750476Y-99600000D01*
X120798095Y-99647619D01*
X120845714Y-99742857D01*
X120845714Y-99790476D01*
X120798095Y-99885714D01*
X120750476Y-99933333D01*
X120655238Y-99980952D01*
X120464761Y-99980952D01*
X120369523Y-100028571D01*
X120321904Y-100076190D01*
X120274285Y-100171428D01*
X120274285Y-100361904D01*
X120321904Y-100457142D01*
X120369523Y-100504761D01*
X120464761Y-100552380D01*
X120655238Y-100552380D01*
X120750476Y-100504761D01*
X120798095Y-100457142D01*
X120845714Y-100361904D01*
X120845714Y-100171428D01*
X120798095Y-100076190D01*
X120750476Y-100028571D01*
X120655238Y-99980952D01*
G04 #@! TO.C,Csuper1*
X135199714Y-57253142D02*
X135152095Y-57300761D01*
X135009238Y-57348380D01*
X134914000Y-57348380D01*
X134771142Y-57300761D01*
X134675904Y-57205523D01*
X134628285Y-57110285D01*
X134580666Y-56919809D01*
X134580666Y-56776952D01*
X134628285Y-56586476D01*
X134675904Y-56491238D01*
X134771142Y-56396000D01*
X134914000Y-56348380D01*
X135009238Y-56348380D01*
X135152095Y-56396000D01*
X135199714Y-56443619D01*
X135580666Y-57300761D02*
X135675904Y-57348380D01*
X135866380Y-57348380D01*
X135961619Y-57300761D01*
X136009238Y-57205523D01*
X136009238Y-57157904D01*
X135961619Y-57062666D01*
X135866380Y-57015047D01*
X135723523Y-57015047D01*
X135628285Y-56967428D01*
X135580666Y-56872190D01*
X135580666Y-56824571D01*
X135628285Y-56729333D01*
X135723523Y-56681714D01*
X135866380Y-56681714D01*
X135961619Y-56729333D01*
X136866380Y-56681714D02*
X136866380Y-57348380D01*
X136437809Y-56681714D02*
X136437809Y-57205523D01*
X136485428Y-57300761D01*
X136580666Y-57348380D01*
X136723523Y-57348380D01*
X136818761Y-57300761D01*
X136866380Y-57253142D01*
X137342571Y-56681714D02*
X137342571Y-57681714D01*
X137342571Y-56729333D02*
X137437809Y-56681714D01*
X137628285Y-56681714D01*
X137723523Y-56729333D01*
X137771142Y-56776952D01*
X137818761Y-56872190D01*
X137818761Y-57157904D01*
X137771142Y-57253142D01*
X137723523Y-57300761D01*
X137628285Y-57348380D01*
X137437809Y-57348380D01*
X137342571Y-57300761D01*
X138628285Y-57300761D02*
X138533047Y-57348380D01*
X138342571Y-57348380D01*
X138247333Y-57300761D01*
X138199714Y-57205523D01*
X138199714Y-56824571D01*
X138247333Y-56729333D01*
X138342571Y-56681714D01*
X138533047Y-56681714D01*
X138628285Y-56729333D01*
X138675904Y-56824571D01*
X138675904Y-56919809D01*
X138199714Y-57015047D01*
X139104476Y-57348380D02*
X139104476Y-56681714D01*
X139104476Y-56872190D02*
X139152095Y-56776952D01*
X139199714Y-56729333D01*
X139294952Y-56681714D01*
X139390190Y-56681714D01*
X140247333Y-57348380D02*
X139675904Y-57348380D01*
X139961619Y-57348380D02*
X139961619Y-56348380D01*
X139866380Y-56491238D01*
X139771142Y-56586476D01*
X139675904Y-56634095D01*
X127727047Y-56161428D02*
X128488952Y-56161428D01*
X146467428Y-56470952D02*
X146467428Y-55709047D01*
X146848380Y-56090000D02*
X146086476Y-56090000D01*
G04 #@! TO.C,Csuper2*
X113355714Y-57507142D02*
X113308095Y-57554761D01*
X113165238Y-57602380D01*
X113070000Y-57602380D01*
X112927142Y-57554761D01*
X112831904Y-57459523D01*
X112784285Y-57364285D01*
X112736666Y-57173809D01*
X112736666Y-57030952D01*
X112784285Y-56840476D01*
X112831904Y-56745238D01*
X112927142Y-56650000D01*
X113070000Y-56602380D01*
X113165238Y-56602380D01*
X113308095Y-56650000D01*
X113355714Y-56697619D01*
X113736666Y-57554761D02*
X113831904Y-57602380D01*
X114022380Y-57602380D01*
X114117619Y-57554761D01*
X114165238Y-57459523D01*
X114165238Y-57411904D01*
X114117619Y-57316666D01*
X114022380Y-57269047D01*
X113879523Y-57269047D01*
X113784285Y-57221428D01*
X113736666Y-57126190D01*
X113736666Y-57078571D01*
X113784285Y-56983333D01*
X113879523Y-56935714D01*
X114022380Y-56935714D01*
X114117619Y-56983333D01*
X115022380Y-56935714D02*
X115022380Y-57602380D01*
X114593809Y-56935714D02*
X114593809Y-57459523D01*
X114641428Y-57554761D01*
X114736666Y-57602380D01*
X114879523Y-57602380D01*
X114974761Y-57554761D01*
X115022380Y-57507142D01*
X115498571Y-56935714D02*
X115498571Y-57935714D01*
X115498571Y-56983333D02*
X115593809Y-56935714D01*
X115784285Y-56935714D01*
X115879523Y-56983333D01*
X115927142Y-57030952D01*
X115974761Y-57126190D01*
X115974761Y-57411904D01*
X115927142Y-57507142D01*
X115879523Y-57554761D01*
X115784285Y-57602380D01*
X115593809Y-57602380D01*
X115498571Y-57554761D01*
X116784285Y-57554761D02*
X116689047Y-57602380D01*
X116498571Y-57602380D01*
X116403333Y-57554761D01*
X116355714Y-57459523D01*
X116355714Y-57078571D01*
X116403333Y-56983333D01*
X116498571Y-56935714D01*
X116689047Y-56935714D01*
X116784285Y-56983333D01*
X116831904Y-57078571D01*
X116831904Y-57173809D01*
X116355714Y-57269047D01*
X117260476Y-57602380D02*
X117260476Y-56935714D01*
X117260476Y-57126190D02*
X117308095Y-57030952D01*
X117355714Y-56983333D01*
X117450952Y-56935714D01*
X117546190Y-56935714D01*
X117831904Y-56697619D02*
X117879523Y-56650000D01*
X117974761Y-56602380D01*
X118212857Y-56602380D01*
X118308095Y-56650000D01*
X118355714Y-56697619D01*
X118403333Y-56792857D01*
X118403333Y-56888095D01*
X118355714Y-57030952D01*
X117784285Y-57602380D01*
X118403333Y-57602380D01*
X124737428Y-56420952D02*
X124737428Y-55659047D01*
X125118380Y-56040000D02*
X124356476Y-56040000D01*
X105997047Y-56111428D02*
X106758952Y-56111428D01*
G04 #@! TO.C,D1*
X99337904Y-80716380D02*
X99337904Y-79716380D01*
X99576000Y-79716380D01*
X99718857Y-79764000D01*
X99814095Y-79859238D01*
X99861714Y-79954476D01*
X99909333Y-80144952D01*
X99909333Y-80287809D01*
X99861714Y-80478285D01*
X99814095Y-80573523D01*
X99718857Y-80668761D01*
X99576000Y-80716380D01*
X99337904Y-80716380D01*
X100861714Y-80716380D02*
X100290285Y-80716380D01*
X100576000Y-80716380D02*
X100576000Y-79716380D01*
X100480761Y-79859238D01*
X100385523Y-79954476D01*
X100290285Y-80002095D01*
G04 #@! TO.C,PWRJack*
X113152380Y-66200000D02*
X112152380Y-66200000D01*
X112152380Y-65819047D01*
X112200000Y-65723809D01*
X112247619Y-65676190D01*
X112342857Y-65628571D01*
X112485714Y-65628571D01*
X112580952Y-65676190D01*
X112628571Y-65723809D01*
X112676190Y-65819047D01*
X112676190Y-66200000D01*
X112152380Y-65295238D02*
X113152380Y-65057142D01*
X112438095Y-64866666D01*
X113152380Y-64676190D01*
X112152380Y-64438095D01*
X113152380Y-63485714D02*
X112676190Y-63819047D01*
X113152380Y-64057142D02*
X112152380Y-64057142D01*
X112152380Y-63676190D01*
X112200000Y-63580952D01*
X112247619Y-63533333D01*
X112342857Y-63485714D01*
X112485714Y-63485714D01*
X112580952Y-63533333D01*
X112628571Y-63580952D01*
X112676190Y-63676190D01*
X112676190Y-64057142D01*
X112152380Y-62771428D02*
X112866666Y-62771428D01*
X113009523Y-62819047D01*
X113104761Y-62914285D01*
X113152380Y-63057142D01*
X113152380Y-63152380D01*
X113152380Y-61866666D02*
X112628571Y-61866666D01*
X112533333Y-61914285D01*
X112485714Y-62009523D01*
X112485714Y-62200000D01*
X112533333Y-62295238D01*
X113104761Y-61866666D02*
X113152380Y-61961904D01*
X113152380Y-62200000D01*
X113104761Y-62295238D01*
X113009523Y-62342857D01*
X112914285Y-62342857D01*
X112819047Y-62295238D01*
X112771428Y-62200000D01*
X112771428Y-61961904D01*
X112723809Y-61866666D01*
X113104761Y-60961904D02*
X113152380Y-61057142D01*
X113152380Y-61247619D01*
X113104761Y-61342857D01*
X113057142Y-61390476D01*
X112961904Y-61438095D01*
X112676190Y-61438095D01*
X112580952Y-61390476D01*
X112533333Y-61342857D01*
X112485714Y-61247619D01*
X112485714Y-61057142D01*
X112533333Y-60961904D01*
X113152380Y-60533333D02*
X112152380Y-60533333D01*
X112771428Y-60438095D02*
X113152380Y-60152380D01*
X112485714Y-60152380D02*
X112866666Y-60533333D01*
G04 #@! TO.C,USB*
X101481095Y-94194380D02*
X101481095Y-95003904D01*
X101528714Y-95099142D01*
X101576333Y-95146761D01*
X101671571Y-95194380D01*
X101862047Y-95194380D01*
X101957285Y-95146761D01*
X102004904Y-95099142D01*
X102052523Y-95003904D01*
X102052523Y-94194380D01*
X102481095Y-95146761D02*
X102623952Y-95194380D01*
X102862047Y-95194380D01*
X102957285Y-95146761D01*
X103004904Y-95099142D01*
X103052523Y-95003904D01*
X103052523Y-94908666D01*
X103004904Y-94813428D01*
X102957285Y-94765809D01*
X102862047Y-94718190D01*
X102671571Y-94670571D01*
X102576333Y-94622952D01*
X102528714Y-94575333D01*
X102481095Y-94480095D01*
X102481095Y-94384857D01*
X102528714Y-94289619D01*
X102576333Y-94242000D01*
X102671571Y-94194380D01*
X102909666Y-94194380D01*
X103052523Y-94242000D01*
X103814428Y-94670571D02*
X103957285Y-94718190D01*
X104004904Y-94765809D01*
X104052523Y-94861047D01*
X104052523Y-95003904D01*
X104004904Y-95099142D01*
X103957285Y-95146761D01*
X103862047Y-95194380D01*
X103481095Y-95194380D01*
X103481095Y-94194380D01*
X103814428Y-94194380D01*
X103909666Y-94242000D01*
X103957285Y-94289619D01*
X104004904Y-94384857D01*
X104004904Y-94480095D01*
X103957285Y-94575333D01*
X103909666Y-94622952D01*
X103814428Y-94670571D01*
X103481095Y-94670571D01*
G04 #@! TO.C,PWRSol*
X148536190Y-75982380D02*
X148536190Y-74982380D01*
X148917142Y-74982380D01*
X149012380Y-75030000D01*
X149060000Y-75077619D01*
X149107619Y-75172857D01*
X149107619Y-75315714D01*
X149060000Y-75410952D01*
X149012380Y-75458571D01*
X148917142Y-75506190D01*
X148536190Y-75506190D01*
X149440952Y-74982380D02*
X149679047Y-75982380D01*
X149869523Y-75268095D01*
X150060000Y-75982380D01*
X150298095Y-74982380D01*
X151250476Y-75982380D02*
X150917142Y-75506190D01*
X150679047Y-75982380D02*
X150679047Y-74982380D01*
X151060000Y-74982380D01*
X151155238Y-75030000D01*
X151202857Y-75077619D01*
X151250476Y-75172857D01*
X151250476Y-75315714D01*
X151202857Y-75410952D01*
X151155238Y-75458571D01*
X151060000Y-75506190D01*
X150679047Y-75506190D01*
X151631428Y-75934761D02*
X151774285Y-75982380D01*
X152012380Y-75982380D01*
X152107619Y-75934761D01*
X152155238Y-75887142D01*
X152202857Y-75791904D01*
X152202857Y-75696666D01*
X152155238Y-75601428D01*
X152107619Y-75553809D01*
X152012380Y-75506190D01*
X151821904Y-75458571D01*
X151726666Y-75410952D01*
X151679047Y-75363333D01*
X151631428Y-75268095D01*
X151631428Y-75172857D01*
X151679047Y-75077619D01*
X151726666Y-75030000D01*
X151821904Y-74982380D01*
X152060000Y-74982380D01*
X152202857Y-75030000D01*
X152774285Y-75982380D02*
X152679047Y-75934761D01*
X152631428Y-75887142D01*
X152583809Y-75791904D01*
X152583809Y-75506190D01*
X152631428Y-75410952D01*
X152679047Y-75363333D01*
X152774285Y-75315714D01*
X152917142Y-75315714D01*
X153012380Y-75363333D01*
X153060000Y-75410952D01*
X153107619Y-75506190D01*
X153107619Y-75791904D01*
X153060000Y-75887142D01*
X153012380Y-75934761D01*
X152917142Y-75982380D01*
X152774285Y-75982380D01*
X153679047Y-75982380D02*
X153583809Y-75934761D01*
X153536190Y-75839523D01*
X153536190Y-74982380D01*
G04 #@! TO.C,NMOS*
X127626977Y-74620380D02*
X127626977Y-73620380D01*
X128198405Y-74620380D01*
X128198405Y-73620380D01*
X128674596Y-74620380D02*
X128674596Y-73620380D01*
X129007929Y-74334666D01*
X129341262Y-73620380D01*
X129341262Y-74620380D01*
X130007929Y-73620380D02*
X130198405Y-73620380D01*
X130293643Y-73668000D01*
X130388881Y-73763238D01*
X130436500Y-73953714D01*
X130436500Y-74287047D01*
X130388881Y-74477523D01*
X130293643Y-74572761D01*
X130198405Y-74620380D01*
X130007929Y-74620380D01*
X129912691Y-74572761D01*
X129817453Y-74477523D01*
X129769834Y-74287047D01*
X129769834Y-73953714D01*
X129817453Y-73763238D01*
X129912691Y-73668000D01*
X130007929Y-73620380D01*
X130817453Y-74572761D02*
X130960310Y-74620380D01*
X131198405Y-74620380D01*
X131293643Y-74572761D01*
X131341262Y-74525142D01*
X131388881Y-74429904D01*
X131388881Y-74334666D01*
X131341262Y-74239428D01*
X131293643Y-74191809D01*
X131198405Y-74144190D01*
X131007929Y-74096571D01*
X130912691Y-74048952D01*
X130865072Y-74001333D01*
X130817453Y-73906095D01*
X130817453Y-73810857D01*
X130865072Y-73715619D01*
X130912691Y-73668000D01*
X131007929Y-73620380D01*
X131246024Y-73620380D01*
X131388881Y-73668000D01*
G04 #@! TO.C,PSH*
X128976380Y-82541904D02*
X127976380Y-82541904D01*
X127976380Y-82160952D01*
X128024000Y-82065714D01*
X128071619Y-82018095D01*
X128166857Y-81970476D01*
X128309714Y-81970476D01*
X128404952Y-82018095D01*
X128452571Y-82065714D01*
X128500190Y-82160952D01*
X128500190Y-82541904D01*
X128928761Y-81589523D02*
X128976380Y-81446666D01*
X128976380Y-81208571D01*
X128928761Y-81113333D01*
X128881142Y-81065714D01*
X128785904Y-81018095D01*
X128690666Y-81018095D01*
X128595428Y-81065714D01*
X128547809Y-81113333D01*
X128500190Y-81208571D01*
X128452571Y-81399047D01*
X128404952Y-81494285D01*
X128357333Y-81541904D01*
X128262095Y-81589523D01*
X128166857Y-81589523D01*
X128071619Y-81541904D01*
X128024000Y-81494285D01*
X127976380Y-81399047D01*
X127976380Y-81160952D01*
X128024000Y-81018095D01*
X128976380Y-80589523D02*
X127976380Y-80589523D01*
X128452571Y-80589523D02*
X128452571Y-80018095D01*
X128976380Y-80018095D02*
X127976380Y-80018095D01*
G04 #@! TO.C,PSL1*
X146208952Y-101544380D02*
X146208952Y-100544380D01*
X146589904Y-100544380D01*
X146685142Y-100592000D01*
X146732761Y-100639619D01*
X146780380Y-100734857D01*
X146780380Y-100877714D01*
X146732761Y-100972952D01*
X146685142Y-101020571D01*
X146589904Y-101068190D01*
X146208952Y-101068190D01*
X147161333Y-101496761D02*
X147304190Y-101544380D01*
X147542285Y-101544380D01*
X147637523Y-101496761D01*
X147685142Y-101449142D01*
X147732761Y-101353904D01*
X147732761Y-101258666D01*
X147685142Y-101163428D01*
X147637523Y-101115809D01*
X147542285Y-101068190D01*
X147351809Y-101020571D01*
X147256571Y-100972952D01*
X147208952Y-100925333D01*
X147161333Y-100830095D01*
X147161333Y-100734857D01*
X147208952Y-100639619D01*
X147256571Y-100592000D01*
X147351809Y-100544380D01*
X147589904Y-100544380D01*
X147732761Y-100592000D01*
X148637523Y-101544380D02*
X148161333Y-101544380D01*
X148161333Y-100544380D01*
X149494666Y-101544380D02*
X148923238Y-101544380D01*
X149208952Y-101544380D02*
X149208952Y-100544380D01*
X149113714Y-100687238D01*
X149018476Y-100782476D01*
X148923238Y-100830095D01*
G04 #@! TO.C,R0*
X112720380Y-93596666D02*
X112244190Y-93930000D01*
X112720380Y-94168095D02*
X111720380Y-94168095D01*
X111720380Y-93787142D01*
X111768000Y-93691904D01*
X111815619Y-93644285D01*
X111910857Y-93596666D01*
X112053714Y-93596666D01*
X112148952Y-93644285D01*
X112196571Y-93691904D01*
X112244190Y-93787142D01*
X112244190Y-94168095D01*
X111720380Y-92977619D02*
X111720380Y-92882380D01*
X111768000Y-92787142D01*
X111815619Y-92739523D01*
X111910857Y-92691904D01*
X112101333Y-92644285D01*
X112339428Y-92644285D01*
X112529904Y-92691904D01*
X112625142Y-92739523D01*
X112672761Y-92787142D01*
X112720380Y-92882380D01*
X112720380Y-92977619D01*
X112672761Y-93072857D01*
X112625142Y-93120476D01*
X112529904Y-93168095D01*
X112339428Y-93215714D01*
X112101333Y-93215714D01*
X111910857Y-93168095D01*
X111815619Y-93120476D01*
X111768000Y-93072857D01*
X111720380Y-92977619D01*
G04 #@! TO.C,R1*
X102703333Y-78684380D02*
X102370000Y-78208190D01*
X102131904Y-78684380D02*
X102131904Y-77684380D01*
X102512857Y-77684380D01*
X102608095Y-77732000D01*
X102655714Y-77779619D01*
X102703333Y-77874857D01*
X102703333Y-78017714D01*
X102655714Y-78112952D01*
X102608095Y-78160571D01*
X102512857Y-78208190D01*
X102131904Y-78208190D01*
X103655714Y-78684380D02*
X103084285Y-78684380D01*
X103370000Y-78684380D02*
X103370000Y-77684380D01*
X103274761Y-77827238D01*
X103179523Y-77922476D01*
X103084285Y-77970095D01*
G04 #@! TO.C,R2*
X113782380Y-89546666D02*
X113306190Y-89880000D01*
X113782380Y-90118095D02*
X112782380Y-90118095D01*
X112782380Y-89737142D01*
X112830000Y-89641904D01*
X112877619Y-89594285D01*
X112972857Y-89546666D01*
X113115714Y-89546666D01*
X113210952Y-89594285D01*
X113258571Y-89641904D01*
X113306190Y-89737142D01*
X113306190Y-90118095D01*
X112877619Y-89165714D02*
X112830000Y-89118095D01*
X112782380Y-89022857D01*
X112782380Y-88784761D01*
X112830000Y-88689523D01*
X112877619Y-88641904D01*
X112972857Y-88594285D01*
X113068095Y-88594285D01*
X113210952Y-88641904D01*
X113782380Y-89213333D01*
X113782380Y-88594285D01*
G04 #@! TO.C,R3*
X108352380Y-88366666D02*
X107876190Y-88700000D01*
X108352380Y-88938095D02*
X107352380Y-88938095D01*
X107352380Y-88557142D01*
X107400000Y-88461904D01*
X107447619Y-88414285D01*
X107542857Y-88366666D01*
X107685714Y-88366666D01*
X107780952Y-88414285D01*
X107828571Y-88461904D01*
X107876190Y-88557142D01*
X107876190Y-88938095D01*
X107352380Y-88033333D02*
X107352380Y-87414285D01*
X107733333Y-87747619D01*
X107733333Y-87604761D01*
X107780952Y-87509523D01*
X107828571Y-87461904D01*
X107923809Y-87414285D01*
X108161904Y-87414285D01*
X108257142Y-87461904D01*
X108304761Y-87509523D01*
X108352380Y-87604761D01*
X108352380Y-87890476D01*
X108304761Y-87985714D01*
X108257142Y-88033333D01*
G04 #@! TO.C,R4*
X108272380Y-86366666D02*
X107796190Y-86700000D01*
X108272380Y-86938095D02*
X107272380Y-86938095D01*
X107272380Y-86557142D01*
X107320000Y-86461904D01*
X107367619Y-86414285D01*
X107462857Y-86366666D01*
X107605714Y-86366666D01*
X107700952Y-86414285D01*
X107748571Y-86461904D01*
X107796190Y-86557142D01*
X107796190Y-86938095D01*
X107605714Y-85509523D02*
X108272380Y-85509523D01*
X107224761Y-85747619D02*
X107939047Y-85985714D01*
X107939047Y-85366666D01*
G04 #@! TO.C,GND*
X117856095Y-75446000D02*
X117760857Y-75398380D01*
X117618000Y-75398380D01*
X117475142Y-75446000D01*
X117379904Y-75541238D01*
X117332285Y-75636476D01*
X117284666Y-75826952D01*
X117284666Y-75969809D01*
X117332285Y-76160285D01*
X117379904Y-76255523D01*
X117475142Y-76350761D01*
X117618000Y-76398380D01*
X117713238Y-76398380D01*
X117856095Y-76350761D01*
X117903714Y-76303142D01*
X117903714Y-75969809D01*
X117713238Y-75969809D01*
X118332285Y-76398380D02*
X118332285Y-75398380D01*
X118903714Y-76398380D01*
X118903714Y-75398380D01*
X119379904Y-76398380D02*
X119379904Y-75398380D01*
X119618000Y-75398380D01*
X119760857Y-75446000D01*
X119856095Y-75541238D01*
X119903714Y-75636476D01*
X119951333Y-75826952D01*
X119951333Y-75969809D01*
X119903714Y-76160285D01*
X119856095Y-76255523D01*
X119760857Y-76350761D01*
X119618000Y-76398380D01*
X119379904Y-76398380D01*
G04 #@! TO.C,PSH*
X152662095Y-108388380D02*
X152662095Y-107388380D01*
X153043047Y-107388380D01*
X153138285Y-107436000D01*
X153185904Y-107483619D01*
X153233523Y-107578857D01*
X153233523Y-107721714D01*
X153185904Y-107816952D01*
X153138285Y-107864571D01*
X153043047Y-107912190D01*
X152662095Y-107912190D01*
X153614476Y-108340761D02*
X153757333Y-108388380D01*
X153995428Y-108388380D01*
X154090666Y-108340761D01*
X154138285Y-108293142D01*
X154185904Y-108197904D01*
X154185904Y-108102666D01*
X154138285Y-108007428D01*
X154090666Y-107959809D01*
X153995428Y-107912190D01*
X153804952Y-107864571D01*
X153709714Y-107816952D01*
X153662095Y-107769333D01*
X153614476Y-107674095D01*
X153614476Y-107578857D01*
X153662095Y-107483619D01*
X153709714Y-107436000D01*
X153804952Y-107388380D01*
X154043047Y-107388380D01*
X154185904Y-107436000D01*
X154614476Y-108388380D02*
X154614476Y-107388380D01*
X154614476Y-107864571D02*
X155185904Y-107864571D01*
X155185904Y-108388380D02*
X155185904Y-107388380D01*
G04 #@! TO.C,PSL1*
X152304952Y-114654380D02*
X152304952Y-113654380D01*
X152685904Y-113654380D01*
X152781142Y-113702000D01*
X152828761Y-113749619D01*
X152876380Y-113844857D01*
X152876380Y-113987714D01*
X152828761Y-114082952D01*
X152781142Y-114130571D01*
X152685904Y-114178190D01*
X152304952Y-114178190D01*
X153257333Y-114606761D02*
X153400190Y-114654380D01*
X153638285Y-114654380D01*
X153733523Y-114606761D01*
X153781142Y-114559142D01*
X153828761Y-114463904D01*
X153828761Y-114368666D01*
X153781142Y-114273428D01*
X153733523Y-114225809D01*
X153638285Y-114178190D01*
X153447809Y-114130571D01*
X153352571Y-114082952D01*
X153304952Y-114035333D01*
X153257333Y-113940095D01*
X153257333Y-113844857D01*
X153304952Y-113749619D01*
X153352571Y-113702000D01*
X153447809Y-113654380D01*
X153685904Y-113654380D01*
X153828761Y-113702000D01*
X154733523Y-114654380D02*
X154257333Y-114654380D01*
X154257333Y-113654380D01*
X155590666Y-114654380D02*
X155019238Y-114654380D01*
X155304952Y-114654380D02*
X155304952Y-113654380D01*
X155209714Y-113797238D01*
X155114476Y-113892476D01*
X155019238Y-113940095D01*
G04 #@! TO.C,PSL2*
X100230952Y-108282380D02*
X100230952Y-107282380D01*
X100611904Y-107282380D01*
X100707142Y-107330000D01*
X100754761Y-107377619D01*
X100802380Y-107472857D01*
X100802380Y-107615714D01*
X100754761Y-107710952D01*
X100707142Y-107758571D01*
X100611904Y-107806190D01*
X100230952Y-107806190D01*
X101183333Y-108234761D02*
X101326190Y-108282380D01*
X101564285Y-108282380D01*
X101659523Y-108234761D01*
X101707142Y-108187142D01*
X101754761Y-108091904D01*
X101754761Y-107996666D01*
X101707142Y-107901428D01*
X101659523Y-107853809D01*
X101564285Y-107806190D01*
X101373809Y-107758571D01*
X101278571Y-107710952D01*
X101230952Y-107663333D01*
X101183333Y-107568095D01*
X101183333Y-107472857D01*
X101230952Y-107377619D01*
X101278571Y-107330000D01*
X101373809Y-107282380D01*
X101611904Y-107282380D01*
X101754761Y-107330000D01*
X102659523Y-108282380D02*
X102183333Y-108282380D01*
X102183333Y-107282380D01*
X102945238Y-107377619D02*
X102992857Y-107330000D01*
X103088095Y-107282380D01*
X103326190Y-107282380D01*
X103421428Y-107330000D01*
X103469047Y-107377619D01*
X103516666Y-107472857D01*
X103516666Y-107568095D01*
X103469047Y-107710952D01*
X102897619Y-108282380D01*
X103516666Y-108282380D01*
G04 #@! TO.C,VUSB*
X107894666Y-95972380D02*
X108228000Y-96972380D01*
X108561333Y-95972380D01*
X108894666Y-95972380D02*
X108894666Y-96781904D01*
X108942285Y-96877142D01*
X108989904Y-96924761D01*
X109085142Y-96972380D01*
X109275619Y-96972380D01*
X109370857Y-96924761D01*
X109418476Y-96877142D01*
X109466095Y-96781904D01*
X109466095Y-95972380D01*
X109894666Y-96924761D02*
X110037523Y-96972380D01*
X110275619Y-96972380D01*
X110370857Y-96924761D01*
X110418476Y-96877142D01*
X110466095Y-96781904D01*
X110466095Y-96686666D01*
X110418476Y-96591428D01*
X110370857Y-96543809D01*
X110275619Y-96496190D01*
X110085142Y-96448571D01*
X109989904Y-96400952D01*
X109942285Y-96353333D01*
X109894666Y-96258095D01*
X109894666Y-96162857D01*
X109942285Y-96067619D01*
X109989904Y-96020000D01*
X110085142Y-95972380D01*
X110323238Y-95972380D01*
X110466095Y-96020000D01*
X111228000Y-96448571D02*
X111370857Y-96496190D01*
X111418476Y-96543809D01*
X111466095Y-96639047D01*
X111466095Y-96781904D01*
X111418476Y-96877142D01*
X111370857Y-96924761D01*
X111275619Y-96972380D01*
X110894666Y-96972380D01*
X110894666Y-95972380D01*
X111228000Y-95972380D01*
X111323238Y-96020000D01*
X111370857Y-96067619D01*
X111418476Y-96162857D01*
X111418476Y-96258095D01*
X111370857Y-96353333D01*
X111323238Y-96400952D01*
X111228000Y-96448571D01*
X110894666Y-96448571D01*
G04 #@! TO.C,VCC*
X111696666Y-75398380D02*
X112030000Y-76398380D01*
X112363333Y-75398380D01*
X113268095Y-76303142D02*
X113220476Y-76350761D01*
X113077619Y-76398380D01*
X112982380Y-76398380D01*
X112839523Y-76350761D01*
X112744285Y-76255523D01*
X112696666Y-76160285D01*
X112649047Y-75969809D01*
X112649047Y-75826952D01*
X112696666Y-75636476D01*
X112744285Y-75541238D01*
X112839523Y-75446000D01*
X112982380Y-75398380D01*
X113077619Y-75398380D01*
X113220476Y-75446000D01*
X113268095Y-75493619D01*
X114268095Y-76303142D02*
X114220476Y-76350761D01*
X114077619Y-76398380D01*
X113982380Y-76398380D01*
X113839523Y-76350761D01*
X113744285Y-76255523D01*
X113696666Y-76160285D01*
X113649047Y-75969809D01*
X113649047Y-75826952D01*
X113696666Y-75636476D01*
X113744285Y-75541238D01*
X113839523Y-75446000D01*
X113982380Y-75398380D01*
X114077619Y-75398380D01*
X114220476Y-75446000D01*
X114268095Y-75493619D01*
G04 #@! TO.C,SigSol*
X132904761Y-68556666D02*
X132952380Y-68413809D01*
X132952380Y-68175714D01*
X132904761Y-68080476D01*
X132857142Y-68032857D01*
X132761904Y-67985238D01*
X132666666Y-67985238D01*
X132571428Y-68032857D01*
X132523809Y-68080476D01*
X132476190Y-68175714D01*
X132428571Y-68366190D01*
X132380952Y-68461428D01*
X132333333Y-68509047D01*
X132238095Y-68556666D01*
X132142857Y-68556666D01*
X132047619Y-68509047D01*
X132000000Y-68461428D01*
X131952380Y-68366190D01*
X131952380Y-68128095D01*
X132000000Y-67985238D01*
X132952380Y-67556666D02*
X132285714Y-67556666D01*
X131952380Y-67556666D02*
X132000000Y-67604285D01*
X132047619Y-67556666D01*
X132000000Y-67509047D01*
X131952380Y-67556666D01*
X132047619Y-67556666D01*
X132285714Y-66651904D02*
X133095238Y-66651904D01*
X133190476Y-66699523D01*
X133238095Y-66747142D01*
X133285714Y-66842380D01*
X133285714Y-66985238D01*
X133238095Y-67080476D01*
X132904761Y-66651904D02*
X132952380Y-66747142D01*
X132952380Y-66937619D01*
X132904761Y-67032857D01*
X132857142Y-67080476D01*
X132761904Y-67128095D01*
X132476190Y-67128095D01*
X132380952Y-67080476D01*
X132333333Y-67032857D01*
X132285714Y-66937619D01*
X132285714Y-66747142D01*
X132333333Y-66651904D01*
X132904761Y-66223333D02*
X132952380Y-66080476D01*
X132952380Y-65842380D01*
X132904761Y-65747142D01*
X132857142Y-65699523D01*
X132761904Y-65651904D01*
X132666666Y-65651904D01*
X132571428Y-65699523D01*
X132523809Y-65747142D01*
X132476190Y-65842380D01*
X132428571Y-66032857D01*
X132380952Y-66128095D01*
X132333333Y-66175714D01*
X132238095Y-66223333D01*
X132142857Y-66223333D01*
X132047619Y-66175714D01*
X132000000Y-66128095D01*
X131952380Y-66032857D01*
X131952380Y-65794761D01*
X132000000Y-65651904D01*
X132952380Y-65080476D02*
X132904761Y-65175714D01*
X132857142Y-65223333D01*
X132761904Y-65270952D01*
X132476190Y-65270952D01*
X132380952Y-65223333D01*
X132333333Y-65175714D01*
X132285714Y-65080476D01*
X132285714Y-64937619D01*
X132333333Y-64842380D01*
X132380952Y-64794761D01*
X132476190Y-64747142D01*
X132761904Y-64747142D01*
X132857142Y-64794761D01*
X132904761Y-64842380D01*
X132952380Y-64937619D01*
X132952380Y-65080476D01*
X132952380Y-64175714D02*
X132904761Y-64270952D01*
X132809523Y-64318571D01*
X131952380Y-64318571D01*
G04 #@! TO.C,Vin*
X141978190Y-58126380D02*
X142311523Y-59126380D01*
X142644857Y-58126380D01*
X142978190Y-59126380D02*
X142978190Y-58459714D01*
X142978190Y-58126380D02*
X142930571Y-58174000D01*
X142978190Y-58221619D01*
X143025809Y-58174000D01*
X142978190Y-58126380D01*
X142978190Y-58221619D01*
X143454380Y-58459714D02*
X143454380Y-59126380D01*
X143454380Y-58554952D02*
X143502000Y-58507333D01*
X143597238Y-58459714D01*
X143740095Y-58459714D01*
X143835333Y-58507333D01*
X143882952Y-58602571D01*
X143882952Y-59126380D01*
G04 #@! TO.C,SolGND*
X140478190Y-70762761D02*
X140621047Y-70810380D01*
X140859142Y-70810380D01*
X140954380Y-70762761D01*
X141002000Y-70715142D01*
X141049619Y-70619904D01*
X141049619Y-70524666D01*
X141002000Y-70429428D01*
X140954380Y-70381809D01*
X140859142Y-70334190D01*
X140668666Y-70286571D01*
X140573428Y-70238952D01*
X140525809Y-70191333D01*
X140478190Y-70096095D01*
X140478190Y-70000857D01*
X140525809Y-69905619D01*
X140573428Y-69858000D01*
X140668666Y-69810380D01*
X140906761Y-69810380D01*
X141049619Y-69858000D01*
X141621047Y-70810380D02*
X141525809Y-70762761D01*
X141478190Y-70715142D01*
X141430571Y-70619904D01*
X141430571Y-70334190D01*
X141478190Y-70238952D01*
X141525809Y-70191333D01*
X141621047Y-70143714D01*
X141763904Y-70143714D01*
X141859142Y-70191333D01*
X141906761Y-70238952D01*
X141954380Y-70334190D01*
X141954380Y-70619904D01*
X141906761Y-70715142D01*
X141859142Y-70762761D01*
X141763904Y-70810380D01*
X141621047Y-70810380D01*
X142525809Y-70810380D02*
X142430571Y-70762761D01*
X142382952Y-70667523D01*
X142382952Y-69810380D01*
X143430571Y-69858000D02*
X143335333Y-69810380D01*
X143192476Y-69810380D01*
X143049619Y-69858000D01*
X142954380Y-69953238D01*
X142906761Y-70048476D01*
X142859142Y-70238952D01*
X142859142Y-70381809D01*
X142906761Y-70572285D01*
X142954380Y-70667523D01*
X143049619Y-70762761D01*
X143192476Y-70810380D01*
X143287714Y-70810380D01*
X143430571Y-70762761D01*
X143478190Y-70715142D01*
X143478190Y-70381809D01*
X143287714Y-70381809D01*
X143906761Y-70810380D02*
X143906761Y-69810380D01*
X144478190Y-70810380D01*
X144478190Y-69810380D01*
X144954380Y-70810380D02*
X144954380Y-69810380D01*
X145192476Y-69810380D01*
X145335333Y-69858000D01*
X145430571Y-69953238D01*
X145478190Y-70048476D01*
X145525809Y-70238952D01*
X145525809Y-70381809D01*
X145478190Y-70572285D01*
X145430571Y-70667523D01*
X145335333Y-70762761D01*
X145192476Y-70810380D01*
X144954380Y-70810380D01*
G04 #@! TO.C,ATmega32U4*
X127406666Y-93241428D02*
X127406666Y-92765238D01*
X127692380Y-93336666D02*
X126692380Y-93003333D01*
X127692380Y-92670000D01*
X126692380Y-92479523D02*
X126692380Y-91908095D01*
X127692380Y-92193809D02*
X126692380Y-92193809D01*
X127692380Y-91574761D02*
X127025714Y-91574761D01*
X127120952Y-91574761D02*
X127073333Y-91527142D01*
X127025714Y-91431904D01*
X127025714Y-91289047D01*
X127073333Y-91193809D01*
X127168571Y-91146190D01*
X127692380Y-91146190D01*
X127168571Y-91146190D02*
X127073333Y-91098571D01*
X127025714Y-91003333D01*
X127025714Y-90860476D01*
X127073333Y-90765238D01*
X127168571Y-90717619D01*
X127692380Y-90717619D01*
X127644761Y-89860476D02*
X127692380Y-89955714D01*
X127692380Y-90146190D01*
X127644761Y-90241428D01*
X127549523Y-90289047D01*
X127168571Y-90289047D01*
X127073333Y-90241428D01*
X127025714Y-90146190D01*
X127025714Y-89955714D01*
X127073333Y-89860476D01*
X127168571Y-89812857D01*
X127263809Y-89812857D01*
X127359047Y-90289047D01*
X127025714Y-88955714D02*
X127835238Y-88955714D01*
X127930476Y-89003333D01*
X127978095Y-89050952D01*
X128025714Y-89146190D01*
X128025714Y-89289047D01*
X127978095Y-89384285D01*
X127644761Y-88955714D02*
X127692380Y-89050952D01*
X127692380Y-89241428D01*
X127644761Y-89336666D01*
X127597142Y-89384285D01*
X127501904Y-89431904D01*
X127216190Y-89431904D01*
X127120952Y-89384285D01*
X127073333Y-89336666D01*
X127025714Y-89241428D01*
X127025714Y-89050952D01*
X127073333Y-88955714D01*
X127692380Y-88050952D02*
X127168571Y-88050952D01*
X127073333Y-88098571D01*
X127025714Y-88193809D01*
X127025714Y-88384285D01*
X127073333Y-88479523D01*
X127644761Y-88050952D02*
X127692380Y-88146190D01*
X127692380Y-88384285D01*
X127644761Y-88479523D01*
X127549523Y-88527142D01*
X127454285Y-88527142D01*
X127359047Y-88479523D01*
X127311428Y-88384285D01*
X127311428Y-88146190D01*
X127263809Y-88050952D01*
X126692380Y-87670000D02*
X126692380Y-87050952D01*
X127073333Y-87384285D01*
X127073333Y-87241428D01*
X127120952Y-87146190D01*
X127168571Y-87098571D01*
X127263809Y-87050952D01*
X127501904Y-87050952D01*
X127597142Y-87098571D01*
X127644761Y-87146190D01*
X127692380Y-87241428D01*
X127692380Y-87527142D01*
X127644761Y-87622380D01*
X127597142Y-87670000D01*
X126787619Y-86670000D02*
X126740000Y-86622380D01*
X126692380Y-86527142D01*
X126692380Y-86289047D01*
X126740000Y-86193809D01*
X126787619Y-86146190D01*
X126882857Y-86098571D01*
X126978095Y-86098571D01*
X127120952Y-86146190D01*
X127692380Y-86717619D01*
X127692380Y-86098571D01*
X126692380Y-85670000D02*
X127501904Y-85670000D01*
X127597142Y-85622380D01*
X127644761Y-85574761D01*
X127692380Y-85479523D01*
X127692380Y-85289047D01*
X127644761Y-85193809D01*
X127597142Y-85146190D01*
X127501904Y-85098571D01*
X126692380Y-85098571D01*
X127025714Y-84193809D02*
X127692380Y-84193809D01*
X126644761Y-84431904D02*
X127359047Y-84670000D01*
X127359047Y-84050952D01*
G04 #@! TO.C,C10*
X112477142Y-83062857D02*
X112524761Y-83110476D01*
X112572380Y-83253333D01*
X112572380Y-83348571D01*
X112524761Y-83491428D01*
X112429523Y-83586666D01*
X112334285Y-83634285D01*
X112143809Y-83681904D01*
X112000952Y-83681904D01*
X111810476Y-83634285D01*
X111715238Y-83586666D01*
X111620000Y-83491428D01*
X111572380Y-83348571D01*
X111572380Y-83253333D01*
X111620000Y-83110476D01*
X111667619Y-83062857D01*
X112572380Y-82110476D02*
X112572380Y-82681904D01*
X112572380Y-82396190D02*
X111572380Y-82396190D01*
X111715238Y-82491428D01*
X111810476Y-82586666D01*
X111858095Y-82681904D01*
X111572380Y-81491428D02*
X111572380Y-81396190D01*
X111620000Y-81300952D01*
X111667619Y-81253333D01*
X111762857Y-81205714D01*
X111953333Y-81158095D01*
X112191428Y-81158095D01*
X112381904Y-81205714D01*
X112477142Y-81253333D01*
X112524761Y-81300952D01*
X112572380Y-81396190D01*
X112572380Y-81491428D01*
X112524761Y-81586666D01*
X112477142Y-81634285D01*
X112381904Y-81681904D01*
X112191428Y-81729523D01*
X111953333Y-81729523D01*
X111762857Y-81681904D01*
X111667619Y-81634285D01*
X111620000Y-81586666D01*
X111572380Y-81491428D01*
G04 #@! TO.C,XTAL*
X114784380Y-96988380D02*
X115451047Y-97988380D01*
X115451047Y-96988380D02*
X114784380Y-97988380D01*
X115689142Y-96988380D02*
X116260571Y-96988380D01*
X115974857Y-97988380D02*
X115974857Y-96988380D01*
X116546285Y-97702666D02*
X117022476Y-97702666D01*
X116451047Y-97988380D02*
X116784380Y-96988380D01*
X117117714Y-97988380D01*
X117927238Y-97988380D02*
X117451047Y-97988380D01*
X117451047Y-96988380D01*
G04 #@! TO.C,C11*
X119682142Y-82653142D02*
X119634523Y-82700761D01*
X119491666Y-82748380D01*
X119396428Y-82748380D01*
X119253571Y-82700761D01*
X119158333Y-82605523D01*
X119110714Y-82510285D01*
X119063095Y-82319809D01*
X119063095Y-82176952D01*
X119110714Y-81986476D01*
X119158333Y-81891238D01*
X119253571Y-81796000D01*
X119396428Y-81748380D01*
X119491666Y-81748380D01*
X119634523Y-81796000D01*
X119682142Y-81843619D01*
X120634523Y-82748380D02*
X120063095Y-82748380D01*
X120348809Y-82748380D02*
X120348809Y-81748380D01*
X120253571Y-81891238D01*
X120158333Y-81986476D01*
X120063095Y-82034095D01*
X121586904Y-82748380D02*
X121015476Y-82748380D01*
X121301190Y-82748380D02*
X121301190Y-81748380D01*
X121205952Y-81891238D01*
X121110714Y-81986476D01*
X121015476Y-82034095D01*
G04 #@! TO.C,C12*
X114137142Y-81097142D02*
X114089523Y-81144761D01*
X113946666Y-81192380D01*
X113851428Y-81192380D01*
X113708571Y-81144761D01*
X113613333Y-81049523D01*
X113565714Y-80954285D01*
X113518095Y-80763809D01*
X113518095Y-80620952D01*
X113565714Y-80430476D01*
X113613333Y-80335238D01*
X113708571Y-80240000D01*
X113851428Y-80192380D01*
X113946666Y-80192380D01*
X114089523Y-80240000D01*
X114137142Y-80287619D01*
X115089523Y-81192380D02*
X114518095Y-81192380D01*
X114803809Y-81192380D02*
X114803809Y-80192380D01*
X114708571Y-80335238D01*
X114613333Y-80430476D01*
X114518095Y-80478095D01*
X115470476Y-80287619D02*
X115518095Y-80240000D01*
X115613333Y-80192380D01*
X115851428Y-80192380D01*
X115946666Y-80240000D01*
X115994285Y-80287619D01*
X116041904Y-80382857D01*
X116041904Y-80478095D01*
X115994285Y-80620952D01*
X115422857Y-81192380D01*
X116041904Y-81192380D01*
G04 #@! TO.C,C13*
X115357142Y-96115142D02*
X115309523Y-96162761D01*
X115166666Y-96210380D01*
X115071428Y-96210380D01*
X114928571Y-96162761D01*
X114833333Y-96067523D01*
X114785714Y-95972285D01*
X114738095Y-95781809D01*
X114738095Y-95638952D01*
X114785714Y-95448476D01*
X114833333Y-95353238D01*
X114928571Y-95258000D01*
X115071428Y-95210380D01*
X115166666Y-95210380D01*
X115309523Y-95258000D01*
X115357142Y-95305619D01*
X116309523Y-96210380D02*
X115738095Y-96210380D01*
X116023809Y-96210380D02*
X116023809Y-95210380D01*
X115928571Y-95353238D01*
X115833333Y-95448476D01*
X115738095Y-95496095D01*
X116642857Y-95210380D02*
X117261904Y-95210380D01*
X116928571Y-95591333D01*
X117071428Y-95591333D01*
X117166666Y-95638952D01*
X117214285Y-95686571D01*
X117261904Y-95781809D01*
X117261904Y-96019904D01*
X117214285Y-96115142D01*
X117166666Y-96162761D01*
X117071428Y-96210380D01*
X116785714Y-96210380D01*
X116690476Y-96162761D01*
X116642857Y-96115142D01*
G04 #@! TD*
M02*
