G04 #@! TF.GenerationSoftware,KiCad,Pcbnew,5.0.1*
G04 #@! TF.CreationDate,2019-03-15T13:28:57+13:00*
G04 #@! TF.ProjectId,spiroBoard,737069726F426F6172642E6B69636164,rev?*
G04 #@! TF.SameCoordinates,Original*
G04 #@! TF.FileFunction,Legend,Bot*
G04 #@! TF.FilePolarity,Positive*
%FSLAX46Y46*%
G04 Gerber Fmt 4.6, Leading zero omitted, Abs format (unit mm)*
G04 Created by KiCad (PCBNEW 5.0.1) date Fri 15 Mar 2019 01:28:57 PM NZDT*
%MOMM*%
%LPD*%
G01*
G04 APERTURE LIST*
%ADD10C,0.300000*%
%ADD11C,0.010000*%
G04 APERTURE END LIST*
D10*
X182878571Y-112718571D02*
X182878571Y-111218571D01*
X182521428Y-111218571D01*
X182307142Y-111290000D01*
X182164285Y-111432857D01*
X182092857Y-111575714D01*
X182021428Y-111861428D01*
X182021428Y-112075714D01*
X182092857Y-112361428D01*
X182164285Y-112504285D01*
X182307142Y-112647142D01*
X182521428Y-112718571D01*
X182878571Y-112718571D01*
X180807142Y-112647142D02*
X180950000Y-112718571D01*
X181235714Y-112718571D01*
X181378571Y-112647142D01*
X181450000Y-112504285D01*
X181450000Y-111932857D01*
X181378571Y-111790000D01*
X181235714Y-111718571D01*
X180950000Y-111718571D01*
X180807142Y-111790000D01*
X180735714Y-111932857D01*
X180735714Y-112075714D01*
X181450000Y-112218571D01*
X180164285Y-112647142D02*
X180021428Y-112718571D01*
X179735714Y-112718571D01*
X179592857Y-112647142D01*
X179521428Y-112504285D01*
X179521428Y-112432857D01*
X179592857Y-112290000D01*
X179735714Y-112218571D01*
X179950000Y-112218571D01*
X180092857Y-112147142D01*
X180164285Y-112004285D01*
X180164285Y-111932857D01*
X180092857Y-111790000D01*
X179950000Y-111718571D01*
X179735714Y-111718571D01*
X179592857Y-111790000D01*
X178878571Y-112718571D02*
X178878571Y-111718571D01*
X178878571Y-111218571D02*
X178950000Y-111290000D01*
X178878571Y-111361428D01*
X178807142Y-111290000D01*
X178878571Y-111218571D01*
X178878571Y-111361428D01*
X177521428Y-111718571D02*
X177521428Y-112932857D01*
X177592857Y-113075714D01*
X177664285Y-113147142D01*
X177807142Y-113218571D01*
X178021428Y-113218571D01*
X178164285Y-113147142D01*
X177521428Y-112647142D02*
X177664285Y-112718571D01*
X177950000Y-112718571D01*
X178092857Y-112647142D01*
X178164285Y-112575714D01*
X178235714Y-112432857D01*
X178235714Y-112004285D01*
X178164285Y-111861428D01*
X178092857Y-111790000D01*
X177950000Y-111718571D01*
X177664285Y-111718571D01*
X177521428Y-111790000D01*
X176807142Y-111718571D02*
X176807142Y-112718571D01*
X176807142Y-111861428D02*
X176735714Y-111790000D01*
X176592857Y-111718571D01*
X176378571Y-111718571D01*
X176235714Y-111790000D01*
X176164285Y-111932857D01*
X176164285Y-112718571D01*
X174878571Y-112647142D02*
X175021428Y-112718571D01*
X175307142Y-112718571D01*
X175450000Y-112647142D01*
X175521428Y-112504285D01*
X175521428Y-111932857D01*
X175450000Y-111790000D01*
X175307142Y-111718571D01*
X175021428Y-111718571D01*
X174878571Y-111790000D01*
X174807142Y-111932857D01*
X174807142Y-112075714D01*
X175521428Y-112218571D01*
X173521428Y-112718571D02*
X173521428Y-111218571D01*
X173521428Y-112647142D02*
X173664285Y-112718571D01*
X173950000Y-112718571D01*
X174092857Y-112647142D01*
X174164285Y-112575714D01*
X174235714Y-112432857D01*
X174235714Y-112004285D01*
X174164285Y-111861428D01*
X174092857Y-111790000D01*
X173950000Y-111718571D01*
X173664285Y-111718571D01*
X173521428Y-111790000D01*
X171735714Y-112647142D02*
X171521428Y-112718571D01*
X171164285Y-112718571D01*
X171021428Y-112647142D01*
X170950000Y-112575714D01*
X170878571Y-112432857D01*
X170878571Y-112290000D01*
X170950000Y-112147142D01*
X171021428Y-112075714D01*
X171164285Y-112004285D01*
X171450000Y-111932857D01*
X171592857Y-111861428D01*
X171664285Y-111790000D01*
X171735714Y-111647142D01*
X171735714Y-111504285D01*
X171664285Y-111361428D01*
X171592857Y-111290000D01*
X171450000Y-111218571D01*
X171092857Y-111218571D01*
X170878571Y-111290000D01*
X169092857Y-112718571D02*
X169092857Y-111218571D01*
X169092857Y-111932857D02*
X168235714Y-111932857D01*
X168235714Y-112718571D02*
X168235714Y-111218571D01*
X167307142Y-112718571D02*
X167450000Y-112647142D01*
X167521428Y-112575714D01*
X167592857Y-112432857D01*
X167592857Y-112004285D01*
X167521428Y-111861428D01*
X167450000Y-111790000D01*
X167307142Y-111718571D01*
X167092857Y-111718571D01*
X166950000Y-111790000D01*
X166878571Y-111861428D01*
X166807142Y-112004285D01*
X166807142Y-112432857D01*
X166878571Y-112575714D01*
X166950000Y-112647142D01*
X167092857Y-112718571D01*
X167307142Y-112718571D01*
X166307142Y-111718571D02*
X166021428Y-112718571D01*
X165735714Y-112004285D01*
X165450000Y-112718571D01*
X165164285Y-111718571D01*
X164021428Y-112647142D02*
X164164285Y-112718571D01*
X164450000Y-112718571D01*
X164592857Y-112647142D01*
X164664285Y-112504285D01*
X164664285Y-111932857D01*
X164592857Y-111790000D01*
X164450000Y-111718571D01*
X164164285Y-111718571D01*
X164021428Y-111790000D01*
X163950000Y-111932857D01*
X163950000Y-112075714D01*
X164664285Y-112218571D01*
X181847142Y-77058571D02*
X182561428Y-77058571D01*
X182561428Y-75558571D01*
X180704285Y-76058571D02*
X180704285Y-77058571D01*
X181347142Y-76058571D02*
X181347142Y-76844285D01*
X181275714Y-76987142D01*
X181132857Y-77058571D01*
X180918571Y-77058571D01*
X180775714Y-76987142D01*
X180704285Y-76915714D01*
X179990000Y-76058571D02*
X179990000Y-77058571D01*
X179990000Y-76201428D02*
X179918571Y-76130000D01*
X179775714Y-76058571D01*
X179561428Y-76058571D01*
X179418571Y-76130000D01*
X179347142Y-76272857D01*
X179347142Y-77058571D01*
X177990000Y-76058571D02*
X177990000Y-77272857D01*
X178061428Y-77415714D01*
X178132857Y-77487142D01*
X178275714Y-77558571D01*
X178490000Y-77558571D01*
X178632857Y-77487142D01*
X177990000Y-76987142D02*
X178132857Y-77058571D01*
X178418571Y-77058571D01*
X178561428Y-76987142D01*
X178632857Y-76915714D01*
X178704285Y-76772857D01*
X178704285Y-76344285D01*
X178632857Y-76201428D01*
X178561428Y-76130000D01*
X178418571Y-76058571D01*
X178132857Y-76058571D01*
X177990000Y-76130000D01*
X176132857Y-77058571D02*
X176132857Y-75558571D01*
X175632857Y-76630000D01*
X175132857Y-75558571D01*
X175132857Y-77058571D01*
X174490000Y-76630000D02*
X173775714Y-76630000D01*
X174632857Y-77058571D02*
X174132857Y-75558571D01*
X173632857Y-77058571D01*
X173347142Y-75558571D02*
X172490000Y-75558571D01*
X172918571Y-77058571D02*
X172918571Y-75558571D01*
X171990000Y-76272857D02*
X171490000Y-76272857D01*
X171275714Y-77058571D02*
X171990000Y-77058571D01*
X171990000Y-75558571D01*
X171275714Y-75558571D01*
X170704285Y-76987142D02*
X170490000Y-77058571D01*
X170132857Y-77058571D01*
X169990000Y-76987142D01*
X169918571Y-76915714D01*
X169847142Y-76772857D01*
X169847142Y-76630000D01*
X169918571Y-76487142D01*
X169990000Y-76415714D01*
X170132857Y-76344285D01*
X170418571Y-76272857D01*
X170561428Y-76201428D01*
X170632857Y-76130000D01*
X170704285Y-75987142D01*
X170704285Y-75844285D01*
X170632857Y-75701428D01*
X170561428Y-75630000D01*
X170418571Y-75558571D01*
X170061428Y-75558571D01*
X169847142Y-75630000D01*
X136468571Y-81592857D02*
X134968571Y-81592857D01*
X134968571Y-82164285D01*
X135040000Y-82307142D01*
X135111428Y-82378571D01*
X135254285Y-82450000D01*
X135468571Y-82450000D01*
X135611428Y-82378571D01*
X135682857Y-82307142D01*
X135754285Y-82164285D01*
X135754285Y-81592857D01*
X136468571Y-83092857D02*
X135468571Y-83092857D01*
X135754285Y-83092857D02*
X135611428Y-83164285D01*
X135540000Y-83235714D01*
X135468571Y-83378571D01*
X135468571Y-83521428D01*
X136468571Y-84235714D02*
X136397142Y-84092857D01*
X136325714Y-84021428D01*
X136182857Y-83950000D01*
X135754285Y-83950000D01*
X135611428Y-84021428D01*
X135540000Y-84092857D01*
X135468571Y-84235714D01*
X135468571Y-84450000D01*
X135540000Y-84592857D01*
X135611428Y-84664285D01*
X135754285Y-84735714D01*
X136182857Y-84735714D01*
X136325714Y-84664285D01*
X136397142Y-84592857D01*
X136468571Y-84450000D01*
X136468571Y-84235714D01*
X135468571Y-85164285D02*
X135468571Y-85735714D01*
X134968571Y-85378571D02*
X136254285Y-85378571D01*
X136397142Y-85450000D01*
X136468571Y-85592857D01*
X136468571Y-85735714D01*
X136468571Y-86450000D02*
X136397142Y-86307142D01*
X136325714Y-86235714D01*
X136182857Y-86164285D01*
X135754285Y-86164285D01*
X135611428Y-86235714D01*
X135540000Y-86307142D01*
X135468571Y-86450000D01*
X135468571Y-86664285D01*
X135540000Y-86807142D01*
X135611428Y-86878571D01*
X135754285Y-86950000D01*
X136182857Y-86950000D01*
X136325714Y-86878571D01*
X136397142Y-86807142D01*
X136468571Y-86664285D01*
X136468571Y-86450000D01*
X135468571Y-87378571D02*
X135468571Y-87950000D01*
X134968571Y-87592857D02*
X136254285Y-87592857D01*
X136397142Y-87664285D01*
X136468571Y-87807142D01*
X136468571Y-87950000D01*
X135468571Y-88307142D02*
X136468571Y-88664285D01*
X135468571Y-89021428D02*
X136468571Y-88664285D01*
X136825714Y-88521428D01*
X136897142Y-88450000D01*
X136968571Y-88307142D01*
X135468571Y-89592857D02*
X136968571Y-89592857D01*
X135540000Y-89592857D02*
X135468571Y-89735714D01*
X135468571Y-90021428D01*
X135540000Y-90164285D01*
X135611428Y-90235714D01*
X135754285Y-90307142D01*
X136182857Y-90307142D01*
X136325714Y-90235714D01*
X136397142Y-90164285D01*
X136468571Y-90021428D01*
X136468571Y-89735714D01*
X136397142Y-89592857D01*
X136397142Y-91521428D02*
X136468571Y-91378571D01*
X136468571Y-91092857D01*
X136397142Y-90950000D01*
X136254285Y-90878571D01*
X135682857Y-90878571D01*
X135540000Y-90950000D01*
X135468571Y-91092857D01*
X135468571Y-91378571D01*
X135540000Y-91521428D01*
X135682857Y-91592857D01*
X135825714Y-91592857D01*
X135968571Y-90878571D01*
X135897142Y-93378571D02*
X135897142Y-94521428D01*
X134968571Y-96664285D02*
X134968571Y-96807142D01*
X135040000Y-96950000D01*
X135111428Y-97021428D01*
X135254285Y-97092857D01*
X135540000Y-97164285D01*
X135897142Y-97164285D01*
X136182857Y-97092857D01*
X136325714Y-97021428D01*
X136397142Y-96950000D01*
X136468571Y-96807142D01*
X136468571Y-96664285D01*
X136397142Y-96521428D01*
X136325714Y-96450000D01*
X136182857Y-96378571D01*
X135897142Y-96307142D01*
X135540000Y-96307142D01*
X135254285Y-96378571D01*
X135111428Y-96450000D01*
X135040000Y-96521428D01*
X134968571Y-96664285D01*
X134968571Y-97664285D02*
X134968571Y-98592857D01*
X135540000Y-98092857D01*
X135540000Y-98307142D01*
X135611428Y-98450000D01*
X135682857Y-98521428D01*
X135825714Y-98592857D01*
X136182857Y-98592857D01*
X136325714Y-98521428D01*
X136397142Y-98450000D01*
X136468571Y-98307142D01*
X136468571Y-97878571D01*
X136397142Y-97735714D01*
X136325714Y-97664285D01*
X134897142Y-100307142D02*
X136825714Y-99021428D01*
X135111428Y-100735714D02*
X135040000Y-100807142D01*
X134968571Y-100950000D01*
X134968571Y-101307142D01*
X135040000Y-101450000D01*
X135111428Y-101521428D01*
X135254285Y-101592857D01*
X135397142Y-101592857D01*
X135611428Y-101521428D01*
X136468571Y-100664285D01*
X136468571Y-101592857D01*
X134968571Y-102521428D02*
X134968571Y-102664285D01*
X135040000Y-102807142D01*
X135111428Y-102878571D01*
X135254285Y-102950000D01*
X135540000Y-103021428D01*
X135897142Y-103021428D01*
X136182857Y-102950000D01*
X136325714Y-102878571D01*
X136397142Y-102807142D01*
X136468571Y-102664285D01*
X136468571Y-102521428D01*
X136397142Y-102378571D01*
X136325714Y-102307142D01*
X136182857Y-102235714D01*
X135897142Y-102164285D01*
X135540000Y-102164285D01*
X135254285Y-102235714D01*
X135111428Y-102307142D01*
X135040000Y-102378571D01*
X134968571Y-102521428D01*
X136468571Y-104450000D02*
X136468571Y-103592857D01*
X136468571Y-104021428D02*
X134968571Y-104021428D01*
X135182857Y-103878571D01*
X135325714Y-103735714D01*
X135397142Y-103592857D01*
X136468571Y-105164285D02*
X136468571Y-105450000D01*
X136397142Y-105592857D01*
X136325714Y-105664285D01*
X136111428Y-105807142D01*
X135825714Y-105878571D01*
X135254285Y-105878571D01*
X135111428Y-105807142D01*
X135040000Y-105735714D01*
X134968571Y-105592857D01*
X134968571Y-105307142D01*
X135040000Y-105164285D01*
X135111428Y-105092857D01*
X135254285Y-105021428D01*
X135611428Y-105021428D01*
X135754285Y-105092857D01*
X135825714Y-105164285D01*
X135897142Y-105307142D01*
X135897142Y-105592857D01*
X135825714Y-105735714D01*
X135754285Y-105807142D01*
X135611428Y-105878571D01*
X188544285Y-84012857D02*
X188330000Y-84084285D01*
X188258571Y-84155714D01*
X188187142Y-84298571D01*
X188187142Y-84512857D01*
X188258571Y-84655714D01*
X188330000Y-84727142D01*
X188472857Y-84798571D01*
X189044285Y-84798571D01*
X189044285Y-83298571D01*
X188544285Y-83298571D01*
X188401428Y-83370000D01*
X188330000Y-83441428D01*
X188258571Y-83584285D01*
X188258571Y-83727142D01*
X188330000Y-83870000D01*
X188401428Y-83941428D01*
X188544285Y-84012857D01*
X189044285Y-84012857D01*
X187544285Y-84798571D02*
X187544285Y-83798571D01*
X187544285Y-83298571D02*
X187615714Y-83370000D01*
X187544285Y-83441428D01*
X187472857Y-83370000D01*
X187544285Y-83298571D01*
X187544285Y-83441428D01*
X186615714Y-84798571D02*
X186758571Y-84727142D01*
X186830000Y-84655714D01*
X186901428Y-84512857D01*
X186901428Y-84084285D01*
X186830000Y-83941428D01*
X186758571Y-83870000D01*
X186615714Y-83798571D01*
X186401428Y-83798571D01*
X186258571Y-83870000D01*
X186187142Y-83941428D01*
X186115714Y-84084285D01*
X186115714Y-84512857D01*
X186187142Y-84655714D01*
X186258571Y-84727142D01*
X186401428Y-84798571D01*
X186615714Y-84798571D01*
X185472857Y-84012857D02*
X184972857Y-84012857D01*
X184758571Y-84798571D02*
X185472857Y-84798571D01*
X185472857Y-83298571D01*
X184758571Y-83298571D01*
X184115714Y-83798571D02*
X184115714Y-84798571D01*
X184115714Y-83941428D02*
X184044285Y-83870000D01*
X183901428Y-83798571D01*
X183687142Y-83798571D01*
X183544285Y-83870000D01*
X183472857Y-84012857D01*
X183472857Y-84798571D01*
X182115714Y-83798571D02*
X182115714Y-85012857D01*
X182187142Y-85155714D01*
X182258571Y-85227142D01*
X182401428Y-85298571D01*
X182615714Y-85298571D01*
X182758571Y-85227142D01*
X182115714Y-84727142D02*
X182258571Y-84798571D01*
X182544285Y-84798571D01*
X182687142Y-84727142D01*
X182758571Y-84655714D01*
X182830000Y-84512857D01*
X182830000Y-84084285D01*
X182758571Y-83941428D01*
X182687142Y-83870000D01*
X182544285Y-83798571D01*
X182258571Y-83798571D01*
X182115714Y-83870000D01*
X181401428Y-84798571D02*
X181401428Y-83798571D01*
X181401428Y-83298571D02*
X181472857Y-83370000D01*
X181401428Y-83441428D01*
X181330000Y-83370000D01*
X181401428Y-83298571D01*
X181401428Y-83441428D01*
X180687142Y-83798571D02*
X180687142Y-84798571D01*
X180687142Y-83941428D02*
X180615714Y-83870000D01*
X180472857Y-83798571D01*
X180258571Y-83798571D01*
X180115714Y-83870000D01*
X180044285Y-84012857D01*
X180044285Y-84798571D01*
X178758571Y-84727142D02*
X178901428Y-84798571D01*
X179187142Y-84798571D01*
X179330000Y-84727142D01*
X179401428Y-84584285D01*
X179401428Y-84012857D01*
X179330000Y-83870000D01*
X179187142Y-83798571D01*
X178901428Y-83798571D01*
X178758571Y-83870000D01*
X178687142Y-84012857D01*
X178687142Y-84155714D01*
X179401428Y-84298571D01*
X177472857Y-84727142D02*
X177615714Y-84798571D01*
X177901428Y-84798571D01*
X178044285Y-84727142D01*
X178115714Y-84584285D01*
X178115714Y-84012857D01*
X178044285Y-83870000D01*
X177901428Y-83798571D01*
X177615714Y-83798571D01*
X177472857Y-83870000D01*
X177401428Y-84012857D01*
X177401428Y-84155714D01*
X178115714Y-84298571D01*
X176758571Y-84798571D02*
X176758571Y-83798571D01*
X176758571Y-84084285D02*
X176687142Y-83941428D01*
X176615714Y-83870000D01*
X176472857Y-83798571D01*
X176330000Y-83798571D01*
X175830000Y-84798571D02*
X175830000Y-83798571D01*
X175830000Y-83298571D02*
X175901428Y-83370000D01*
X175830000Y-83441428D01*
X175758571Y-83370000D01*
X175830000Y-83298571D01*
X175830000Y-83441428D01*
X175115714Y-83798571D02*
X175115714Y-84798571D01*
X175115714Y-83941428D02*
X175044285Y-83870000D01*
X174901428Y-83798571D01*
X174687142Y-83798571D01*
X174544285Y-83870000D01*
X174472857Y-84012857D01*
X174472857Y-84798571D01*
X173115714Y-83798571D02*
X173115714Y-85012857D01*
X173187142Y-85155714D01*
X173258571Y-85227142D01*
X173401428Y-85298571D01*
X173615714Y-85298571D01*
X173758571Y-85227142D01*
X173115714Y-84727142D02*
X173258571Y-84798571D01*
X173544285Y-84798571D01*
X173687142Y-84727142D01*
X173758571Y-84655714D01*
X173830000Y-84512857D01*
X173830000Y-84084285D01*
X173758571Y-83941428D01*
X173687142Y-83870000D01*
X173544285Y-83798571D01*
X173258571Y-83798571D01*
X173115714Y-83870000D01*
X189132857Y-80828571D02*
X189132857Y-82042857D01*
X189061428Y-82185714D01*
X188990000Y-82257142D01*
X188847142Y-82328571D01*
X188561428Y-82328571D01*
X188418571Y-82257142D01*
X188347142Y-82185714D01*
X188275714Y-82042857D01*
X188275714Y-80828571D01*
X187561428Y-81328571D02*
X187561428Y-82328571D01*
X187561428Y-81471428D02*
X187490000Y-81400000D01*
X187347142Y-81328571D01*
X187132857Y-81328571D01*
X186990000Y-81400000D01*
X186918571Y-81542857D01*
X186918571Y-82328571D01*
X186204285Y-82328571D02*
X186204285Y-81328571D01*
X186204285Y-80828571D02*
X186275714Y-80900000D01*
X186204285Y-80971428D01*
X186132857Y-80900000D01*
X186204285Y-80828571D01*
X186204285Y-80971428D01*
X185632857Y-81328571D02*
X185275714Y-82328571D01*
X184918571Y-81328571D01*
X183775714Y-82257142D02*
X183918571Y-82328571D01*
X184204285Y-82328571D01*
X184347142Y-82257142D01*
X184418571Y-82114285D01*
X184418571Y-81542857D01*
X184347142Y-81400000D01*
X184204285Y-81328571D01*
X183918571Y-81328571D01*
X183775714Y-81400000D01*
X183704285Y-81542857D01*
X183704285Y-81685714D01*
X184418571Y-81828571D01*
X183061428Y-82328571D02*
X183061428Y-81328571D01*
X183061428Y-81614285D02*
X182990000Y-81471428D01*
X182918571Y-81400000D01*
X182775714Y-81328571D01*
X182632857Y-81328571D01*
X182204285Y-82257142D02*
X182061428Y-82328571D01*
X181775714Y-82328571D01*
X181632857Y-82257142D01*
X181561428Y-82114285D01*
X181561428Y-82042857D01*
X181632857Y-81900000D01*
X181775714Y-81828571D01*
X181990000Y-81828571D01*
X182132857Y-81757142D01*
X182204285Y-81614285D01*
X182204285Y-81542857D01*
X182132857Y-81400000D01*
X181990000Y-81328571D01*
X181775714Y-81328571D01*
X181632857Y-81400000D01*
X180918571Y-82328571D02*
X180918571Y-81328571D01*
X180918571Y-80828571D02*
X180990000Y-80900000D01*
X180918571Y-80971428D01*
X180847142Y-80900000D01*
X180918571Y-80828571D01*
X180918571Y-80971428D01*
X180418571Y-81328571D02*
X179847142Y-81328571D01*
X180204285Y-80828571D02*
X180204285Y-82114285D01*
X180132857Y-82257142D01*
X179990000Y-82328571D01*
X179847142Y-82328571D01*
X179490000Y-81328571D02*
X179132857Y-82328571D01*
X178775714Y-81328571D02*
X179132857Y-82328571D01*
X179275714Y-82685714D01*
X179347142Y-82757142D01*
X179490000Y-82828571D01*
X176847142Y-82328571D02*
X176990000Y-82257142D01*
X177061428Y-82185714D01*
X177132857Y-82042857D01*
X177132857Y-81614285D01*
X177061428Y-81471428D01*
X176990000Y-81400000D01*
X176847142Y-81328571D01*
X176632857Y-81328571D01*
X176490000Y-81400000D01*
X176418571Y-81471428D01*
X176347142Y-81614285D01*
X176347142Y-82042857D01*
X176418571Y-82185714D01*
X176490000Y-82257142D01*
X176632857Y-82328571D01*
X176847142Y-82328571D01*
X175918571Y-81328571D02*
X175347142Y-81328571D01*
X175704285Y-82328571D02*
X175704285Y-81042857D01*
X175632857Y-80900000D01*
X175490000Y-80828571D01*
X175347142Y-80828571D01*
X172847142Y-82185714D02*
X172918571Y-82257142D01*
X173132857Y-82328571D01*
X173275714Y-82328571D01*
X173490000Y-82257142D01*
X173632857Y-82114285D01*
X173704285Y-81971428D01*
X173775714Y-81685714D01*
X173775714Y-81471428D01*
X173704285Y-81185714D01*
X173632857Y-81042857D01*
X173490000Y-80900000D01*
X173275714Y-80828571D01*
X173132857Y-80828571D01*
X172918571Y-80900000D01*
X172847142Y-80971428D01*
X171561428Y-82328571D02*
X171561428Y-81542857D01*
X171632857Y-81400000D01*
X171775714Y-81328571D01*
X172061428Y-81328571D01*
X172204285Y-81400000D01*
X171561428Y-82257142D02*
X171704285Y-82328571D01*
X172061428Y-82328571D01*
X172204285Y-82257142D01*
X172275714Y-82114285D01*
X172275714Y-81971428D01*
X172204285Y-81828571D01*
X172061428Y-81757142D01*
X171704285Y-81757142D01*
X171561428Y-81685714D01*
X170847142Y-81328571D02*
X170847142Y-82328571D01*
X170847142Y-81471428D02*
X170775714Y-81400000D01*
X170632857Y-81328571D01*
X170418571Y-81328571D01*
X170275714Y-81400000D01*
X170204285Y-81542857D01*
X170204285Y-82328571D01*
X169704285Y-81328571D02*
X169132857Y-81328571D01*
X169490000Y-80828571D02*
X169490000Y-82114285D01*
X169418571Y-82257142D01*
X169275714Y-82328571D01*
X169132857Y-82328571D01*
X168061428Y-82257142D02*
X168204285Y-82328571D01*
X168490000Y-82328571D01*
X168632857Y-82257142D01*
X168704285Y-82114285D01*
X168704285Y-81542857D01*
X168632857Y-81400000D01*
X168490000Y-81328571D01*
X168204285Y-81328571D01*
X168061428Y-81400000D01*
X167990000Y-81542857D01*
X167990000Y-81685714D01*
X168704285Y-81828571D01*
X167347142Y-82328571D02*
X167347142Y-81328571D01*
X167347142Y-81614285D02*
X167275714Y-81471428D01*
X167204285Y-81400000D01*
X167061428Y-81328571D01*
X166918571Y-81328571D01*
X166418571Y-82328571D02*
X166418571Y-80828571D01*
X166418571Y-81400000D02*
X166275714Y-81328571D01*
X165990000Y-81328571D01*
X165847142Y-81400000D01*
X165775714Y-81471428D01*
X165704285Y-81614285D01*
X165704285Y-82042857D01*
X165775714Y-82185714D01*
X165847142Y-82257142D01*
X165990000Y-82328571D01*
X166275714Y-82328571D01*
X166418571Y-82257142D01*
X164418571Y-81328571D02*
X164418571Y-82328571D01*
X165061428Y-81328571D02*
X165061428Y-82114285D01*
X164990000Y-82257142D01*
X164847142Y-82328571D01*
X164632857Y-82328571D01*
X164490000Y-82257142D01*
X164418571Y-82185714D01*
X163704285Y-82328571D02*
X163704285Y-81328571D01*
X163704285Y-81614285D02*
X163632857Y-81471428D01*
X163561428Y-81400000D01*
X163418571Y-81328571D01*
X163275714Y-81328571D01*
X162918571Y-81328571D02*
X162561428Y-82328571D01*
X162204285Y-81328571D02*
X162561428Y-82328571D01*
X162704285Y-82685714D01*
X162775714Y-82757142D01*
X162918571Y-82828571D01*
D11*
G04 #@! TO.C,G\002A\002A\002A*
G36*
X179647177Y-99207488D02*
X179627286Y-99226714D01*
X179514786Y-99356037D01*
X179423856Y-99511336D01*
X179343388Y-99724573D01*
X179262272Y-100027706D01*
X179169400Y-100452697D01*
X179124753Y-100672541D01*
X179004849Y-101322070D01*
X178914526Y-101918667D01*
X178856581Y-102436068D01*
X178833812Y-102848007D01*
X178849018Y-103128220D01*
X178858445Y-103172266D01*
X178949719Y-103363405D01*
X179055680Y-103413916D01*
X179134760Y-103325494D01*
X179150993Y-103160333D01*
X179160367Y-102913411D01*
X179203313Y-102548864D01*
X179272852Y-102101249D01*
X179362002Y-101605120D01*
X179463785Y-101095033D01*
X179571221Y-100605544D01*
X179677329Y-100171208D01*
X179775130Y-99826580D01*
X179857644Y-99606217D01*
X179875373Y-99574106D01*
X180005351Y-99493430D01*
X180184368Y-99556505D01*
X180393234Y-99752105D01*
X180552124Y-99969943D01*
X180740509Y-100294007D01*
X180966486Y-100729012D01*
X181207882Y-101227465D01*
X181442526Y-101741871D01*
X181648244Y-102224736D01*
X181802864Y-102628566D01*
X181828256Y-102703412D01*
X181932107Y-102993555D01*
X182031212Y-103227222D01*
X182095557Y-103341182D01*
X182226771Y-103434465D01*
X182359738Y-103451248D01*
X182424476Y-103383749D01*
X182424667Y-103377776D01*
X182390429Y-103219819D01*
X182295744Y-102938453D01*
X182152657Y-102563300D01*
X181973212Y-102123982D01*
X181769454Y-101650121D01*
X181553428Y-101171341D01*
X181371071Y-100786571D01*
X181021438Y-100119955D01*
X180700025Y-99617660D01*
X180404362Y-99277475D01*
X180131980Y-99097191D01*
X179880408Y-99074598D01*
X179647177Y-99207488D01*
X179647177Y-99207488D01*
G37*
X179647177Y-99207488D02*
X179627286Y-99226714D01*
X179514786Y-99356037D01*
X179423856Y-99511336D01*
X179343388Y-99724573D01*
X179262272Y-100027706D01*
X179169400Y-100452697D01*
X179124753Y-100672541D01*
X179004849Y-101322070D01*
X178914526Y-101918667D01*
X178856581Y-102436068D01*
X178833812Y-102848007D01*
X178849018Y-103128220D01*
X178858445Y-103172266D01*
X178949719Y-103363405D01*
X179055680Y-103413916D01*
X179134760Y-103325494D01*
X179150993Y-103160333D01*
X179160367Y-102913411D01*
X179203313Y-102548864D01*
X179272852Y-102101249D01*
X179362002Y-101605120D01*
X179463785Y-101095033D01*
X179571221Y-100605544D01*
X179677329Y-100171208D01*
X179775130Y-99826580D01*
X179857644Y-99606217D01*
X179875373Y-99574106D01*
X180005351Y-99493430D01*
X180184368Y-99556505D01*
X180393234Y-99752105D01*
X180552124Y-99969943D01*
X180740509Y-100294007D01*
X180966486Y-100729012D01*
X181207882Y-101227465D01*
X181442526Y-101741871D01*
X181648244Y-102224736D01*
X181802864Y-102628566D01*
X181828256Y-102703412D01*
X181932107Y-102993555D01*
X182031212Y-103227222D01*
X182095557Y-103341182D01*
X182226771Y-103434465D01*
X182359738Y-103451248D01*
X182424476Y-103383749D01*
X182424667Y-103377776D01*
X182390429Y-103219819D01*
X182295744Y-102938453D01*
X182152657Y-102563300D01*
X181973212Y-102123982D01*
X181769454Y-101650121D01*
X181553428Y-101171341D01*
X181371071Y-100786571D01*
X181021438Y-100119955D01*
X180700025Y-99617660D01*
X180404362Y-99277475D01*
X180131980Y-99097191D01*
X179880408Y-99074598D01*
X179647177Y-99207488D01*
G36*
X173809896Y-104208042D02*
X173789922Y-104406241D01*
X173818376Y-104692709D01*
X173891821Y-105031555D01*
X174000074Y-105369123D01*
X174412766Y-106228587D01*
X174969043Y-107001453D01*
X175662804Y-107680300D01*
X176256540Y-108114800D01*
X176705232Y-108375998D01*
X177104607Y-108533314D01*
X177520060Y-108607421D01*
X177857258Y-108620861D01*
X178211193Y-108595046D01*
X178500983Y-108498058D01*
X178703924Y-108382424D01*
X179034739Y-108124115D01*
X179405486Y-107755703D01*
X179779708Y-107318212D01*
X180120948Y-106852661D01*
X180266828Y-106623811D01*
X180386705Y-106407573D01*
X179969334Y-106407573D01*
X179912363Y-106544803D01*
X179759939Y-106766837D01*
X179539792Y-107042293D01*
X179279653Y-107339789D01*
X179007254Y-107627942D01*
X178750324Y-107875369D01*
X178536596Y-108050689D01*
X178490315Y-108081333D01*
X178251197Y-108205924D01*
X178017338Y-108261900D01*
X177710036Y-108266059D01*
X177641000Y-108262609D01*
X177222178Y-108202758D01*
X176832099Y-108084946D01*
X176749442Y-108048309D01*
X176333207Y-107798159D01*
X175881850Y-107446599D01*
X175447767Y-107037182D01*
X175198037Y-106758667D01*
X174984960Y-106462637D01*
X174755159Y-106081906D01*
X174537211Y-105670686D01*
X174359694Y-105283187D01*
X174251187Y-104973619D01*
X174246144Y-104952990D01*
X174190376Y-104713648D01*
X174790259Y-105015744D01*
X175294863Y-105255748D01*
X175859996Y-105501470D01*
X176437049Y-105733614D01*
X176977414Y-105932886D01*
X177432482Y-106079991D01*
X177558286Y-106114477D01*
X177928674Y-106194979D01*
X178365019Y-106267839D01*
X178817747Y-106327136D01*
X179237282Y-106366947D01*
X179574049Y-106381348D01*
X179728892Y-106373808D01*
X179900370Y-106371412D01*
X179969334Y-106407573D01*
X180386705Y-106407573D01*
X180456422Y-106281816D01*
X180544394Y-106041170D01*
X180536636Y-105872401D01*
X180441835Y-105748339D01*
X180328227Y-105699967D01*
X180236952Y-105799992D01*
X180174144Y-105872032D01*
X180061048Y-105916019D01*
X179863057Y-105937496D01*
X179545566Y-105942005D01*
X179362284Y-105940089D01*
X178861155Y-105911488D01*
X178306131Y-105846685D01*
X177805428Y-105758402D01*
X177792399Y-105755528D01*
X177298043Y-105622829D01*
X176716777Y-105430796D01*
X176097545Y-105198872D01*
X175489294Y-104946503D01*
X174940967Y-104693132D01*
X174501511Y-104458204D01*
X174453239Y-104428989D01*
X174195220Y-104278037D01*
X173988227Y-104171681D01*
X173881739Y-104134000D01*
X173809896Y-104208042D01*
X173809896Y-104208042D01*
G37*
X173809896Y-104208042D02*
X173789922Y-104406241D01*
X173818376Y-104692709D01*
X173891821Y-105031555D01*
X174000074Y-105369123D01*
X174412766Y-106228587D01*
X174969043Y-107001453D01*
X175662804Y-107680300D01*
X176256540Y-108114800D01*
X176705232Y-108375998D01*
X177104607Y-108533314D01*
X177520060Y-108607421D01*
X177857258Y-108620861D01*
X178211193Y-108595046D01*
X178500983Y-108498058D01*
X178703924Y-108382424D01*
X179034739Y-108124115D01*
X179405486Y-107755703D01*
X179779708Y-107318212D01*
X180120948Y-106852661D01*
X180266828Y-106623811D01*
X180386705Y-106407573D01*
X179969334Y-106407573D01*
X179912363Y-106544803D01*
X179759939Y-106766837D01*
X179539792Y-107042293D01*
X179279653Y-107339789D01*
X179007254Y-107627942D01*
X178750324Y-107875369D01*
X178536596Y-108050689D01*
X178490315Y-108081333D01*
X178251197Y-108205924D01*
X178017338Y-108261900D01*
X177710036Y-108266059D01*
X177641000Y-108262609D01*
X177222178Y-108202758D01*
X176832099Y-108084946D01*
X176749442Y-108048309D01*
X176333207Y-107798159D01*
X175881850Y-107446599D01*
X175447767Y-107037182D01*
X175198037Y-106758667D01*
X174984960Y-106462637D01*
X174755159Y-106081906D01*
X174537211Y-105670686D01*
X174359694Y-105283187D01*
X174251187Y-104973619D01*
X174246144Y-104952990D01*
X174190376Y-104713648D01*
X174790259Y-105015744D01*
X175294863Y-105255748D01*
X175859996Y-105501470D01*
X176437049Y-105733614D01*
X176977414Y-105932886D01*
X177432482Y-106079991D01*
X177558286Y-106114477D01*
X177928674Y-106194979D01*
X178365019Y-106267839D01*
X178817747Y-106327136D01*
X179237282Y-106366947D01*
X179574049Y-106381348D01*
X179728892Y-106373808D01*
X179900370Y-106371412D01*
X179969334Y-106407573D01*
X180386705Y-106407573D01*
X180456422Y-106281816D01*
X180544394Y-106041170D01*
X180536636Y-105872401D01*
X180441835Y-105748339D01*
X180328227Y-105699967D01*
X180236952Y-105799992D01*
X180174144Y-105872032D01*
X180061048Y-105916019D01*
X179863057Y-105937496D01*
X179545566Y-105942005D01*
X179362284Y-105940089D01*
X178861155Y-105911488D01*
X178306131Y-105846685D01*
X177805428Y-105758402D01*
X177792399Y-105755528D01*
X177298043Y-105622829D01*
X176716777Y-105430796D01*
X176097545Y-105198872D01*
X175489294Y-104946503D01*
X174940967Y-104693132D01*
X174501511Y-104458204D01*
X174453239Y-104428989D01*
X174195220Y-104278037D01*
X173988227Y-104171681D01*
X173881739Y-104134000D01*
X173809896Y-104208042D01*
G36*
X173154667Y-90490141D02*
X172442370Y-90612735D01*
X171675833Y-90800429D01*
X171418000Y-90872922D01*
X170533179Y-91143763D01*
X169736784Y-91419139D01*
X169048614Y-91691234D01*
X168488468Y-91952231D01*
X168082639Y-92189827D01*
X167460039Y-92709125D01*
X166892750Y-93363949D01*
X166454334Y-94039700D01*
X166262855Y-94358877D01*
X166079505Y-94626634D01*
X165932377Y-94803472D01*
X165881265Y-94845403D01*
X165701587Y-94895007D01*
X165375573Y-94928889D01*
X164925660Y-94945086D01*
X164729334Y-94946200D01*
X164279059Y-94940823D01*
X163952205Y-94921952D01*
X163703006Y-94883097D01*
X163485694Y-94817770D01*
X163310551Y-94745009D01*
X162857634Y-94485457D01*
X162532073Y-94159458D01*
X162321629Y-93745118D01*
X162214067Y-93220543D01*
X162193522Y-92746333D01*
X162237753Y-92165987D01*
X162372482Y-91690234D01*
X162611410Y-91272754D01*
X162641057Y-91233089D01*
X162771152Y-91069315D01*
X162888019Y-90956721D01*
X163008203Y-90903995D01*
X163148253Y-90919826D01*
X163324714Y-91012902D01*
X163554134Y-91191911D01*
X163853061Y-91465541D01*
X164238040Y-91842482D01*
X164717743Y-92323495D01*
X165204291Y-92809546D01*
X165586291Y-93181620D01*
X165875364Y-93448941D01*
X166083132Y-93620731D01*
X166221217Y-93706212D01*
X166301241Y-93714608D01*
X166334827Y-93655142D01*
X166337887Y-93609170D01*
X166277794Y-93494168D01*
X166107766Y-93281080D01*
X165842976Y-92985932D01*
X165498596Y-92624752D01*
X165089800Y-92213567D01*
X164631759Y-91768402D01*
X164283625Y-91439235D01*
X163922446Y-91104997D01*
X163656972Y-90871192D01*
X163461535Y-90720171D01*
X163310471Y-90634288D01*
X163178113Y-90595895D01*
X163044644Y-90587333D01*
X162822749Y-90609944D01*
X162642798Y-90700655D01*
X162440401Y-90893787D01*
X162412777Y-90924114D01*
X162148272Y-91251515D01*
X161973262Y-91569662D01*
X161871508Y-91927360D01*
X161826769Y-92373417D01*
X161820537Y-92704000D01*
X161828849Y-93131886D01*
X161859427Y-93444153D01*
X161920506Y-93693933D01*
X162006813Y-93905925D01*
X162330543Y-94418218D01*
X162775287Y-94820942D01*
X163204819Y-95063097D01*
X163414914Y-95152582D01*
X163612095Y-95213405D01*
X163836931Y-95251192D01*
X164129992Y-95271571D01*
X164531851Y-95280171D01*
X164781478Y-95281792D01*
X165891956Y-95286333D01*
X165766255Y-95625000D01*
X165708445Y-95855582D01*
X165655197Y-96200323D01*
X165614056Y-96604072D01*
X165598276Y-96852667D01*
X165582633Y-97272457D01*
X165588017Y-97585156D01*
X165622425Y-97852503D01*
X165693857Y-98136240D01*
X165810312Y-98498105D01*
X165812181Y-98503667D01*
X166085333Y-99187250D01*
X166470944Y-99959975D01*
X166954907Y-100798494D01*
X167523112Y-101679458D01*
X168161451Y-102579518D01*
X168696244Y-103276376D01*
X168987935Y-103650173D01*
X169277283Y-104032077D01*
X169527098Y-104372418D01*
X169674766Y-104583275D01*
X170002858Y-105016830D01*
X170340268Y-105367263D01*
X170662555Y-105613607D01*
X170945275Y-105734893D01*
X171027754Y-105743916D01*
X171184248Y-105772687D01*
X171379058Y-105868461D01*
X171638424Y-106047502D01*
X171988585Y-106326079D01*
X172053000Y-106379485D01*
X173091703Y-107221251D01*
X174034725Y-107935290D01*
X174891878Y-108526329D01*
X175672976Y-108999099D01*
X176387829Y-109358327D01*
X177046251Y-109608744D01*
X177658055Y-109755078D01*
X178233053Y-109802058D01*
X178781057Y-109754414D01*
X178973884Y-109714946D01*
X179313670Y-109594759D01*
X179684972Y-109380111D01*
X180113098Y-109054723D01*
X180435000Y-108775079D01*
X180721940Y-108522408D01*
X181085781Y-108210716D01*
X181471350Y-107886953D01*
X181705000Y-107694307D01*
X182222668Y-107259531D01*
X182690988Y-106843416D01*
X183090632Y-106464598D01*
X183402275Y-106141714D01*
X183606589Y-105893400D01*
X183658674Y-105810371D01*
X183754221Y-105542893D01*
X183766847Y-105231734D01*
X183695061Y-104837827D01*
X183610283Y-104543710D01*
X183500092Y-104131408D01*
X183384473Y-103588735D01*
X183269994Y-102954225D01*
X183163222Y-102266415D01*
X183070726Y-101563842D01*
X183014358Y-101047204D01*
X182934580Y-100334563D01*
X182849751Y-99781787D01*
X182757393Y-99379425D01*
X182655025Y-99118027D01*
X182540167Y-98988145D01*
X182469018Y-98969333D01*
X182353080Y-98996899D01*
X182307518Y-99097946D01*
X182330401Y-99299993D01*
X182419794Y-99630562D01*
X182422054Y-99638037D01*
X182520204Y-100027508D01*
X182602288Y-100466519D01*
X182636847Y-100731393D01*
X182688426Y-101178455D01*
X182762110Y-101707901D01*
X182851329Y-102281785D01*
X182949508Y-102862159D01*
X183050076Y-103411075D01*
X183146460Y-103890586D01*
X183232087Y-104262745D01*
X183275434Y-104418307D01*
X183364251Y-104755513D01*
X183423925Y-105085174D01*
X183439575Y-105275202D01*
X183432197Y-105418616D01*
X183396269Y-105547631D01*
X183312648Y-105688870D01*
X183162192Y-105868956D01*
X182925760Y-106114512D01*
X182615167Y-106421805D01*
X182120614Y-106896436D01*
X181589082Y-107388402D01*
X181050244Y-107871623D01*
X180533773Y-108320019D01*
X180069342Y-108707510D01*
X179686622Y-109008016D01*
X179601311Y-109070737D01*
X179073326Y-109360348D01*
X178491983Y-109503932D01*
X177853306Y-109500667D01*
X177153321Y-109349728D01*
X176388054Y-109050295D01*
X175553530Y-108601544D01*
X174730103Y-108062390D01*
X173973493Y-107515490D01*
X173228710Y-106950078D01*
X172521122Y-106386948D01*
X171876096Y-105846895D01*
X171377956Y-105403223D01*
X170858911Y-105403223D01*
X170854101Y-105404000D01*
X170751847Y-105345917D01*
X170579527Y-105195108D01*
X170412784Y-105024892D01*
X170188133Y-104771749D01*
X170077539Y-104621308D01*
X170071731Y-104560235D01*
X170087683Y-104557333D01*
X170154448Y-104612910D01*
X170307164Y-104759124D01*
X170513746Y-104965196D01*
X170529000Y-104980667D01*
X170720409Y-105186891D01*
X170837905Y-105337544D01*
X170858911Y-105403223D01*
X171377956Y-105403223D01*
X171318999Y-105350713D01*
X170875199Y-104919197D01*
X170802851Y-104843108D01*
X170527292Y-104567980D01*
X170248116Y-104321127D01*
X170016317Y-104146932D01*
X169972425Y-104120318D01*
X169739397Y-103950119D01*
X169587650Y-103728918D01*
X169503142Y-103421486D01*
X169471829Y-102992593D01*
X169470667Y-102861559D01*
X169470767Y-102670642D01*
X169477617Y-102514496D01*
X169501041Y-102367868D01*
X169550862Y-102205509D01*
X169636904Y-102002168D01*
X169768993Y-101732594D01*
X169956951Y-101371536D01*
X170210602Y-100893745D01*
X170306099Y-100714235D01*
X170434222Y-100462544D01*
X170520341Y-100245089D01*
X170558887Y-100037508D01*
X170544292Y-99815438D01*
X170470985Y-99554514D01*
X170333398Y-99230373D01*
X170125961Y-98818653D01*
X169843104Y-98294988D01*
X169689121Y-98015222D01*
X169542219Y-97731226D01*
X169440307Y-97499632D01*
X169401789Y-97363182D01*
X169403237Y-97351292D01*
X169477673Y-97359242D01*
X169651828Y-97456464D01*
X169894833Y-97624432D01*
X170031444Y-97728324D01*
X170474763Y-98063809D01*
X170832610Y-98300297D01*
X171143614Y-98453997D01*
X171446406Y-98541118D01*
X171779616Y-98577871D01*
X172066360Y-98582190D01*
X172757052Y-98576047D01*
X172674893Y-98792143D01*
X172576616Y-99104989D01*
X172470531Y-99530090D01*
X172368218Y-100011479D01*
X172281258Y-100493191D01*
X172221231Y-100919260D01*
X172208714Y-101045047D01*
X172186065Y-101553118D01*
X172212628Y-101934884D01*
X172286338Y-102178169D01*
X172405129Y-102270796D01*
X172416670Y-102271333D01*
X172486938Y-102250143D01*
X172530832Y-102165603D01*
X172554715Y-101986261D01*
X172564950Y-101680662D01*
X172566543Y-101530500D01*
X172594993Y-101020747D01*
X172667387Y-100483450D01*
X172775201Y-99947625D01*
X172909911Y-99442287D01*
X173062995Y-98996452D01*
X173225928Y-98639136D01*
X173390189Y-98399354D01*
X173511593Y-98313274D01*
X173664877Y-98347232D01*
X173845707Y-98523097D01*
X174044999Y-98817450D01*
X174253671Y-99206874D01*
X174462640Y-99667950D01*
X174662823Y-100177259D01*
X174845138Y-100711385D01*
X175000502Y-101246909D01*
X175119832Y-101760414D01*
X175194045Y-102228480D01*
X175214059Y-102627690D01*
X175210929Y-102694667D01*
X175204865Y-102932299D01*
X175241231Y-103050261D01*
X175339503Y-103096651D01*
X175376167Y-103102722D01*
X175486519Y-103104626D01*
X175543103Y-103043607D01*
X175563419Y-102880524D01*
X175565416Y-102679388D01*
X175525746Y-102186868D01*
X175417773Y-101605046D01*
X175254422Y-100971754D01*
X175048619Y-100324823D01*
X174813291Y-99702084D01*
X174561362Y-99141369D01*
X174305759Y-98680510D01*
X174105815Y-98407427D01*
X173960913Y-98229275D01*
X173885624Y-98110295D01*
X173883233Y-98087076D01*
X174022693Y-97996004D01*
X174286321Y-97855346D01*
X174641648Y-97679847D01*
X175056205Y-97484255D01*
X175497524Y-97283318D01*
X175933137Y-97091784D01*
X176330575Y-96924400D01*
X176657370Y-96795914D01*
X176881054Y-96721072D01*
X176902595Y-96715644D01*
X177670981Y-96607694D01*
X178428587Y-96651639D01*
X179192396Y-96850785D01*
X179979393Y-97208440D01*
X180259379Y-97369213D01*
X180584921Y-97552536D01*
X180796472Y-97638276D01*
X180913015Y-97633691D01*
X180925297Y-97623903D01*
X180947040Y-97498313D01*
X180822785Y-97327921D01*
X180566156Y-97124443D01*
X180190779Y-96899596D01*
X179927000Y-96765446D01*
X179403742Y-96529852D01*
X178959871Y-96376720D01*
X178534539Y-96293603D01*
X178066899Y-96268053D01*
X177570540Y-96283387D01*
X177229945Y-96305381D01*
X176936898Y-96336731D01*
X176664503Y-96386624D01*
X176385862Y-96464252D01*
X176074079Y-96578803D01*
X175702259Y-96739467D01*
X175243505Y-96955433D01*
X174670920Y-97235891D01*
X174422773Y-97358867D01*
X173925389Y-97599523D01*
X173449091Y-97818613D01*
X173025757Y-98002328D01*
X172687265Y-98136862D01*
X172465497Y-98208408D01*
X172456673Y-98210380D01*
X171896477Y-98260850D01*
X171361270Y-98159480D01*
X170828564Y-97900388D01*
X170562633Y-97714833D01*
X170073519Y-97350063D01*
X169696328Y-97090126D01*
X169415871Y-96927980D01*
X169216960Y-96856579D01*
X169084405Y-96868882D01*
X169003017Y-96957845D01*
X168990869Y-96985962D01*
X168983686Y-97196942D01*
X169082902Y-97521224D01*
X169290313Y-97963199D01*
X169607720Y-98527258D01*
X169653037Y-98602944D01*
X169873102Y-98976611D01*
X170016741Y-99249627D01*
X170099843Y-99463299D01*
X170138295Y-99658933D01*
X170147986Y-99877835D01*
X170148000Y-99889770D01*
X170133577Y-100168154D01*
X170075070Y-100399535D01*
X169949618Y-100650809D01*
X169813591Y-100868430D01*
X169482259Y-101420865D01*
X169262953Y-101897674D01*
X169141319Y-102335932D01*
X169104147Y-102700604D01*
X169089983Y-102966371D01*
X169067892Y-103147646D01*
X169047334Y-103200711D01*
X168976571Y-103134615D01*
X168828584Y-102955592D01*
X168622753Y-102689788D01*
X168378455Y-102363350D01*
X168115071Y-102002425D01*
X167851978Y-101633160D01*
X167608557Y-101281702D01*
X167454880Y-101052112D01*
X167159215Y-100573376D01*
X166859942Y-100039168D01*
X166577077Y-99489841D01*
X166330639Y-98965750D01*
X166140643Y-98507249D01*
X166037024Y-98193804D01*
X165953307Y-97716385D01*
X165921530Y-97158694D01*
X165941912Y-96597130D01*
X166014668Y-96108088D01*
X166030908Y-96042710D01*
X166254447Y-95372477D01*
X166563958Y-94684311D01*
X166934648Y-94021113D01*
X167341724Y-93425781D01*
X167760392Y-92941213D01*
X167898276Y-92811687D01*
X168416924Y-92434950D01*
X169103983Y-92069383D01*
X169958883Y-91715219D01*
X170981056Y-91372691D01*
X172169933Y-91042031D01*
X172319208Y-91004303D01*
X172783196Y-90891432D01*
X173138628Y-90817488D01*
X173440248Y-90776603D01*
X173742800Y-90762906D01*
X174101029Y-90770529D01*
X174378224Y-90783548D01*
X174874736Y-90825253D01*
X175460085Y-90900160D01*
X176091986Y-91000397D01*
X176728155Y-91118090D01*
X177326307Y-91245366D01*
X177844158Y-91374353D01*
X178239421Y-91497178D01*
X178267629Y-91507696D01*
X178865181Y-91798333D01*
X179504068Y-92225010D01*
X180159280Y-92767973D01*
X180805807Y-93407468D01*
X181122827Y-93762886D01*
X181415766Y-94118931D01*
X181605379Y-94387070D01*
X181709628Y-94597565D01*
X181746471Y-94780678D01*
X181747334Y-94815100D01*
X181804425Y-94953242D01*
X181932492Y-94989659D01*
X182066719Y-94923798D01*
X182129065Y-94818362D01*
X182121349Y-94583565D01*
X181986071Y-94269171D01*
X181735792Y-93890655D01*
X181383075Y-93463492D01*
X180940481Y-93003158D01*
X180420574Y-92525127D01*
X179951136Y-92135367D01*
X179424501Y-91746944D01*
X178916923Y-91443840D01*
X178379614Y-91203774D01*
X177763789Y-91004467D01*
X177133000Y-90848410D01*
X176164570Y-90647761D01*
X175317676Y-90511458D01*
X174557165Y-90439654D01*
X173847880Y-90432498D01*
X173154667Y-90490141D01*
X173154667Y-90490141D01*
G37*
X173154667Y-90490141D02*
X172442370Y-90612735D01*
X171675833Y-90800429D01*
X171418000Y-90872922D01*
X170533179Y-91143763D01*
X169736784Y-91419139D01*
X169048614Y-91691234D01*
X168488468Y-91952231D01*
X168082639Y-92189827D01*
X167460039Y-92709125D01*
X166892750Y-93363949D01*
X166454334Y-94039700D01*
X166262855Y-94358877D01*
X166079505Y-94626634D01*
X165932377Y-94803472D01*
X165881265Y-94845403D01*
X165701587Y-94895007D01*
X165375573Y-94928889D01*
X164925660Y-94945086D01*
X164729334Y-94946200D01*
X164279059Y-94940823D01*
X163952205Y-94921952D01*
X163703006Y-94883097D01*
X163485694Y-94817770D01*
X163310551Y-94745009D01*
X162857634Y-94485457D01*
X162532073Y-94159458D01*
X162321629Y-93745118D01*
X162214067Y-93220543D01*
X162193522Y-92746333D01*
X162237753Y-92165987D01*
X162372482Y-91690234D01*
X162611410Y-91272754D01*
X162641057Y-91233089D01*
X162771152Y-91069315D01*
X162888019Y-90956721D01*
X163008203Y-90903995D01*
X163148253Y-90919826D01*
X163324714Y-91012902D01*
X163554134Y-91191911D01*
X163853061Y-91465541D01*
X164238040Y-91842482D01*
X164717743Y-92323495D01*
X165204291Y-92809546D01*
X165586291Y-93181620D01*
X165875364Y-93448941D01*
X166083132Y-93620731D01*
X166221217Y-93706212D01*
X166301241Y-93714608D01*
X166334827Y-93655142D01*
X166337887Y-93609170D01*
X166277794Y-93494168D01*
X166107766Y-93281080D01*
X165842976Y-92985932D01*
X165498596Y-92624752D01*
X165089800Y-92213567D01*
X164631759Y-91768402D01*
X164283625Y-91439235D01*
X163922446Y-91104997D01*
X163656972Y-90871192D01*
X163461535Y-90720171D01*
X163310471Y-90634288D01*
X163178113Y-90595895D01*
X163044644Y-90587333D01*
X162822749Y-90609944D01*
X162642798Y-90700655D01*
X162440401Y-90893787D01*
X162412777Y-90924114D01*
X162148272Y-91251515D01*
X161973262Y-91569662D01*
X161871508Y-91927360D01*
X161826769Y-92373417D01*
X161820537Y-92704000D01*
X161828849Y-93131886D01*
X161859427Y-93444153D01*
X161920506Y-93693933D01*
X162006813Y-93905925D01*
X162330543Y-94418218D01*
X162775287Y-94820942D01*
X163204819Y-95063097D01*
X163414914Y-95152582D01*
X163612095Y-95213405D01*
X163836931Y-95251192D01*
X164129992Y-95271571D01*
X164531851Y-95280171D01*
X164781478Y-95281792D01*
X165891956Y-95286333D01*
X165766255Y-95625000D01*
X165708445Y-95855582D01*
X165655197Y-96200323D01*
X165614056Y-96604072D01*
X165598276Y-96852667D01*
X165582633Y-97272457D01*
X165588017Y-97585156D01*
X165622425Y-97852503D01*
X165693857Y-98136240D01*
X165810312Y-98498105D01*
X165812181Y-98503667D01*
X166085333Y-99187250D01*
X166470944Y-99959975D01*
X166954907Y-100798494D01*
X167523112Y-101679458D01*
X168161451Y-102579518D01*
X168696244Y-103276376D01*
X168987935Y-103650173D01*
X169277283Y-104032077D01*
X169527098Y-104372418D01*
X169674766Y-104583275D01*
X170002858Y-105016830D01*
X170340268Y-105367263D01*
X170662555Y-105613607D01*
X170945275Y-105734893D01*
X171027754Y-105743916D01*
X171184248Y-105772687D01*
X171379058Y-105868461D01*
X171638424Y-106047502D01*
X171988585Y-106326079D01*
X172053000Y-106379485D01*
X173091703Y-107221251D01*
X174034725Y-107935290D01*
X174891878Y-108526329D01*
X175672976Y-108999099D01*
X176387829Y-109358327D01*
X177046251Y-109608744D01*
X177658055Y-109755078D01*
X178233053Y-109802058D01*
X178781057Y-109754414D01*
X178973884Y-109714946D01*
X179313670Y-109594759D01*
X179684972Y-109380111D01*
X180113098Y-109054723D01*
X180435000Y-108775079D01*
X180721940Y-108522408D01*
X181085781Y-108210716D01*
X181471350Y-107886953D01*
X181705000Y-107694307D01*
X182222668Y-107259531D01*
X182690988Y-106843416D01*
X183090632Y-106464598D01*
X183402275Y-106141714D01*
X183606589Y-105893400D01*
X183658674Y-105810371D01*
X183754221Y-105542893D01*
X183766847Y-105231734D01*
X183695061Y-104837827D01*
X183610283Y-104543710D01*
X183500092Y-104131408D01*
X183384473Y-103588735D01*
X183269994Y-102954225D01*
X183163222Y-102266415D01*
X183070726Y-101563842D01*
X183014358Y-101047204D01*
X182934580Y-100334563D01*
X182849751Y-99781787D01*
X182757393Y-99379425D01*
X182655025Y-99118027D01*
X182540167Y-98988145D01*
X182469018Y-98969333D01*
X182353080Y-98996899D01*
X182307518Y-99097946D01*
X182330401Y-99299993D01*
X182419794Y-99630562D01*
X182422054Y-99638037D01*
X182520204Y-100027508D01*
X182602288Y-100466519D01*
X182636847Y-100731393D01*
X182688426Y-101178455D01*
X182762110Y-101707901D01*
X182851329Y-102281785D01*
X182949508Y-102862159D01*
X183050076Y-103411075D01*
X183146460Y-103890586D01*
X183232087Y-104262745D01*
X183275434Y-104418307D01*
X183364251Y-104755513D01*
X183423925Y-105085174D01*
X183439575Y-105275202D01*
X183432197Y-105418616D01*
X183396269Y-105547631D01*
X183312648Y-105688870D01*
X183162192Y-105868956D01*
X182925760Y-106114512D01*
X182615167Y-106421805D01*
X182120614Y-106896436D01*
X181589082Y-107388402D01*
X181050244Y-107871623D01*
X180533773Y-108320019D01*
X180069342Y-108707510D01*
X179686622Y-109008016D01*
X179601311Y-109070737D01*
X179073326Y-109360348D01*
X178491983Y-109503932D01*
X177853306Y-109500667D01*
X177153321Y-109349728D01*
X176388054Y-109050295D01*
X175553530Y-108601544D01*
X174730103Y-108062390D01*
X173973493Y-107515490D01*
X173228710Y-106950078D01*
X172521122Y-106386948D01*
X171876096Y-105846895D01*
X171377956Y-105403223D01*
X170858911Y-105403223D01*
X170854101Y-105404000D01*
X170751847Y-105345917D01*
X170579527Y-105195108D01*
X170412784Y-105024892D01*
X170188133Y-104771749D01*
X170077539Y-104621308D01*
X170071731Y-104560235D01*
X170087683Y-104557333D01*
X170154448Y-104612910D01*
X170307164Y-104759124D01*
X170513746Y-104965196D01*
X170529000Y-104980667D01*
X170720409Y-105186891D01*
X170837905Y-105337544D01*
X170858911Y-105403223D01*
X171377956Y-105403223D01*
X171318999Y-105350713D01*
X170875199Y-104919197D01*
X170802851Y-104843108D01*
X170527292Y-104567980D01*
X170248116Y-104321127D01*
X170016317Y-104146932D01*
X169972425Y-104120318D01*
X169739397Y-103950119D01*
X169587650Y-103728918D01*
X169503142Y-103421486D01*
X169471829Y-102992593D01*
X169470667Y-102861559D01*
X169470767Y-102670642D01*
X169477617Y-102514496D01*
X169501041Y-102367868D01*
X169550862Y-102205509D01*
X169636904Y-102002168D01*
X169768993Y-101732594D01*
X169956951Y-101371536D01*
X170210602Y-100893745D01*
X170306099Y-100714235D01*
X170434222Y-100462544D01*
X170520341Y-100245089D01*
X170558887Y-100037508D01*
X170544292Y-99815438D01*
X170470985Y-99554514D01*
X170333398Y-99230373D01*
X170125961Y-98818653D01*
X169843104Y-98294988D01*
X169689121Y-98015222D01*
X169542219Y-97731226D01*
X169440307Y-97499632D01*
X169401789Y-97363182D01*
X169403237Y-97351292D01*
X169477673Y-97359242D01*
X169651828Y-97456464D01*
X169894833Y-97624432D01*
X170031444Y-97728324D01*
X170474763Y-98063809D01*
X170832610Y-98300297D01*
X171143614Y-98453997D01*
X171446406Y-98541118D01*
X171779616Y-98577871D01*
X172066360Y-98582190D01*
X172757052Y-98576047D01*
X172674893Y-98792143D01*
X172576616Y-99104989D01*
X172470531Y-99530090D01*
X172368218Y-100011479D01*
X172281258Y-100493191D01*
X172221231Y-100919260D01*
X172208714Y-101045047D01*
X172186065Y-101553118D01*
X172212628Y-101934884D01*
X172286338Y-102178169D01*
X172405129Y-102270796D01*
X172416670Y-102271333D01*
X172486938Y-102250143D01*
X172530832Y-102165603D01*
X172554715Y-101986261D01*
X172564950Y-101680662D01*
X172566543Y-101530500D01*
X172594993Y-101020747D01*
X172667387Y-100483450D01*
X172775201Y-99947625D01*
X172909911Y-99442287D01*
X173062995Y-98996452D01*
X173225928Y-98639136D01*
X173390189Y-98399354D01*
X173511593Y-98313274D01*
X173664877Y-98347232D01*
X173845707Y-98523097D01*
X174044999Y-98817450D01*
X174253671Y-99206874D01*
X174462640Y-99667950D01*
X174662823Y-100177259D01*
X174845138Y-100711385D01*
X175000502Y-101246909D01*
X175119832Y-101760414D01*
X175194045Y-102228480D01*
X175214059Y-102627690D01*
X175210929Y-102694667D01*
X175204865Y-102932299D01*
X175241231Y-103050261D01*
X175339503Y-103096651D01*
X175376167Y-103102722D01*
X175486519Y-103104626D01*
X175543103Y-103043607D01*
X175563419Y-102880524D01*
X175565416Y-102679388D01*
X175525746Y-102186868D01*
X175417773Y-101605046D01*
X175254422Y-100971754D01*
X175048619Y-100324823D01*
X174813291Y-99702084D01*
X174561362Y-99141369D01*
X174305759Y-98680510D01*
X174105815Y-98407427D01*
X173960913Y-98229275D01*
X173885624Y-98110295D01*
X173883233Y-98087076D01*
X174022693Y-97996004D01*
X174286321Y-97855346D01*
X174641648Y-97679847D01*
X175056205Y-97484255D01*
X175497524Y-97283318D01*
X175933137Y-97091784D01*
X176330575Y-96924400D01*
X176657370Y-96795914D01*
X176881054Y-96721072D01*
X176902595Y-96715644D01*
X177670981Y-96607694D01*
X178428587Y-96651639D01*
X179192396Y-96850785D01*
X179979393Y-97208440D01*
X180259379Y-97369213D01*
X180584921Y-97552536D01*
X180796472Y-97638276D01*
X180913015Y-97633691D01*
X180925297Y-97623903D01*
X180947040Y-97498313D01*
X180822785Y-97327921D01*
X180566156Y-97124443D01*
X180190779Y-96899596D01*
X179927000Y-96765446D01*
X179403742Y-96529852D01*
X178959871Y-96376720D01*
X178534539Y-96293603D01*
X178066899Y-96268053D01*
X177570540Y-96283387D01*
X177229945Y-96305381D01*
X176936898Y-96336731D01*
X176664503Y-96386624D01*
X176385862Y-96464252D01*
X176074079Y-96578803D01*
X175702259Y-96739467D01*
X175243505Y-96955433D01*
X174670920Y-97235891D01*
X174422773Y-97358867D01*
X173925389Y-97599523D01*
X173449091Y-97818613D01*
X173025757Y-98002328D01*
X172687265Y-98136862D01*
X172465497Y-98208408D01*
X172456673Y-98210380D01*
X171896477Y-98260850D01*
X171361270Y-98159480D01*
X170828564Y-97900388D01*
X170562633Y-97714833D01*
X170073519Y-97350063D01*
X169696328Y-97090126D01*
X169415871Y-96927980D01*
X169216960Y-96856579D01*
X169084405Y-96868882D01*
X169003017Y-96957845D01*
X168990869Y-96985962D01*
X168983686Y-97196942D01*
X169082902Y-97521224D01*
X169290313Y-97963199D01*
X169607720Y-98527258D01*
X169653037Y-98602944D01*
X169873102Y-98976611D01*
X170016741Y-99249627D01*
X170099843Y-99463299D01*
X170138295Y-99658933D01*
X170147986Y-99877835D01*
X170148000Y-99889770D01*
X170133577Y-100168154D01*
X170075070Y-100399535D01*
X169949618Y-100650809D01*
X169813591Y-100868430D01*
X169482259Y-101420865D01*
X169262953Y-101897674D01*
X169141319Y-102335932D01*
X169104147Y-102700604D01*
X169089983Y-102966371D01*
X169067892Y-103147646D01*
X169047334Y-103200711D01*
X168976571Y-103134615D01*
X168828584Y-102955592D01*
X168622753Y-102689788D01*
X168378455Y-102363350D01*
X168115071Y-102002425D01*
X167851978Y-101633160D01*
X167608557Y-101281702D01*
X167454880Y-101052112D01*
X167159215Y-100573376D01*
X166859942Y-100039168D01*
X166577077Y-99489841D01*
X166330639Y-98965750D01*
X166140643Y-98507249D01*
X166037024Y-98193804D01*
X165953307Y-97716385D01*
X165921530Y-97158694D01*
X165941912Y-96597130D01*
X166014668Y-96108088D01*
X166030908Y-96042710D01*
X166254447Y-95372477D01*
X166563958Y-94684311D01*
X166934648Y-94021113D01*
X167341724Y-93425781D01*
X167760392Y-92941213D01*
X167898276Y-92811687D01*
X168416924Y-92434950D01*
X169103983Y-92069383D01*
X169958883Y-91715219D01*
X170981056Y-91372691D01*
X172169933Y-91042031D01*
X172319208Y-91004303D01*
X172783196Y-90891432D01*
X173138628Y-90817488D01*
X173440248Y-90776603D01*
X173742800Y-90762906D01*
X174101029Y-90770529D01*
X174378224Y-90783548D01*
X174874736Y-90825253D01*
X175460085Y-90900160D01*
X176091986Y-91000397D01*
X176728155Y-91118090D01*
X177326307Y-91245366D01*
X177844158Y-91374353D01*
X178239421Y-91497178D01*
X178267629Y-91507696D01*
X178865181Y-91798333D01*
X179504068Y-92225010D01*
X180159280Y-92767973D01*
X180805807Y-93407468D01*
X181122827Y-93762886D01*
X181415766Y-94118931D01*
X181605379Y-94387070D01*
X181709628Y-94597565D01*
X181746471Y-94780678D01*
X181747334Y-94815100D01*
X181804425Y-94953242D01*
X181932492Y-94989659D01*
X182066719Y-94923798D01*
X182129065Y-94818362D01*
X182121349Y-94583565D01*
X181986071Y-94269171D01*
X181735792Y-93890655D01*
X181383075Y-93463492D01*
X180940481Y-93003158D01*
X180420574Y-92525127D01*
X179951136Y-92135367D01*
X179424501Y-91746944D01*
X178916923Y-91443840D01*
X178379614Y-91203774D01*
X177763789Y-91004467D01*
X177133000Y-90848410D01*
X176164570Y-90647761D01*
X175317676Y-90511458D01*
X174557165Y-90439654D01*
X173847880Y-90432498D01*
X173154667Y-90490141D01*
G04 #@! TD*
M02*
