G04 #@! TF.GenerationSoftware,KiCad,Pcbnew,5.0.1*
G04 #@! TF.CreationDate,2019-03-15T13:28:57+13:00*
G04 #@! TF.ProjectId,spiroBoard,737069726F426F6172642E6B69636164,rev?*
G04 #@! TF.SameCoordinates,Original*
G04 #@! TF.FileFunction,Copper,L1,Top,Signal*
G04 #@! TF.FilePolarity,Positive*
%FSLAX46Y46*%
G04 Gerber Fmt 4.6, Leading zero omitted, Abs format (unit mm)*
G04 Created by KiCad (PCBNEW 5.0.1) date Fri 15 Mar 2019 01:28:57 PM NZDT*
%MOMM*%
%LPD*%
G01*
G04 APERTURE LIST*
G04 #@! TA.AperFunction,ComponentPad*
%ADD10C,1.200000*%
G04 #@! TD*
G04 #@! TA.AperFunction,SMDPad,CuDef*
%ADD11R,3.700000X2.450000*%
G04 #@! TD*
G04 #@! TA.AperFunction,SMDPad,CuDef*
%ADD12R,2.450000X3.700000*%
G04 #@! TD*
G04 #@! TA.AperFunction,Conductor*
%ADD13C,0.100000*%
G04 #@! TD*
G04 #@! TA.AperFunction,SMDPad,CuDef*
%ADD14C,0.875000*%
G04 #@! TD*
G04 #@! TA.AperFunction,SMDPad,CuDef*
%ADD15R,1.100000X1.100000*%
G04 #@! TD*
G04 #@! TA.AperFunction,ComponentPad*
%ADD16R,2.600000X2.600000*%
G04 #@! TD*
G04 #@! TA.AperFunction,ComponentPad*
%ADD17C,2.600000*%
G04 #@! TD*
G04 #@! TA.AperFunction,SMDPad,CuDef*
%ADD18R,0.900000X0.700000*%
G04 #@! TD*
G04 #@! TA.AperFunction,ComponentPad*
%ADD19C,3.050000*%
G04 #@! TD*
G04 #@! TA.AperFunction,ViaPad*
%ADD20C,0.800000*%
G04 #@! TD*
G04 #@! TA.AperFunction,ViaPad*
%ADD21C,1.400000*%
G04 #@! TD*
G04 #@! TA.AperFunction,Conductor*
%ADD22C,0.250000*%
G04 #@! TD*
G04 #@! TA.AperFunction,Conductor*
%ADD23C,1.270000*%
G04 #@! TD*
G04 #@! TA.AperFunction,Conductor*
%ADD24C,0.760000*%
G04 #@! TD*
G04 #@! TA.AperFunction,Conductor*
%ADD25C,0.254000*%
G04 #@! TD*
G04 APERTURE END LIST*
D10*
G04 #@! TO.P,R3,2*
G04 #@! TO.N,Net-(R3-Pad2)*
X152400000Y-90242000D03*
G04 #@! TO.P,R3,1*
G04 #@! TO.N,/solenoid-*
X157500000Y-90242000D03*
G04 #@! TD*
D11*
G04 #@! TO.P,R5,1*
G04 #@! TO.N,Net-(R3-Pad2)*
X153090000Y-95200000D03*
G04 #@! TO.P,R5,2*
G04 #@! TO.N,/GND*
X153090000Y-100350000D03*
G04 #@! TD*
D12*
G04 #@! TO.P,R2,2*
G04 #@! TO.N,/solenoid-*
X141498000Y-92782000D03*
G04 #@! TO.P,R2,1*
G04 #@! TO.N,Net-(PMOS1-Pad3)*
X136348000Y-92782000D03*
G04 #@! TD*
D13*
G04 #@! TO.N,/solenoid-*
G04 #@! TO.C,C1*
G36*
X147026691Y-90204053D02*
X147047926Y-90207203D01*
X147068750Y-90212419D01*
X147088962Y-90219651D01*
X147108368Y-90228830D01*
X147126781Y-90239866D01*
X147144024Y-90252654D01*
X147159930Y-90267070D01*
X147174346Y-90282976D01*
X147187134Y-90300219D01*
X147198170Y-90318632D01*
X147207349Y-90338038D01*
X147214581Y-90358250D01*
X147219797Y-90379074D01*
X147222947Y-90400309D01*
X147224000Y-90421750D01*
X147224000Y-90934250D01*
X147222947Y-90955691D01*
X147219797Y-90976926D01*
X147214581Y-90997750D01*
X147207349Y-91017962D01*
X147198170Y-91037368D01*
X147187134Y-91055781D01*
X147174346Y-91073024D01*
X147159930Y-91088930D01*
X147144024Y-91103346D01*
X147126781Y-91116134D01*
X147108368Y-91127170D01*
X147088962Y-91136349D01*
X147068750Y-91143581D01*
X147047926Y-91148797D01*
X147026691Y-91151947D01*
X147005250Y-91153000D01*
X146567750Y-91153000D01*
X146546309Y-91151947D01*
X146525074Y-91148797D01*
X146504250Y-91143581D01*
X146484038Y-91136349D01*
X146464632Y-91127170D01*
X146446219Y-91116134D01*
X146428976Y-91103346D01*
X146413070Y-91088930D01*
X146398654Y-91073024D01*
X146385866Y-91055781D01*
X146374830Y-91037368D01*
X146365651Y-91017962D01*
X146358419Y-90997750D01*
X146353203Y-90976926D01*
X146350053Y-90955691D01*
X146349000Y-90934250D01*
X146349000Y-90421750D01*
X146350053Y-90400309D01*
X146353203Y-90379074D01*
X146358419Y-90358250D01*
X146365651Y-90338038D01*
X146374830Y-90318632D01*
X146385866Y-90300219D01*
X146398654Y-90282976D01*
X146413070Y-90267070D01*
X146428976Y-90252654D01*
X146446219Y-90239866D01*
X146464632Y-90228830D01*
X146484038Y-90219651D01*
X146504250Y-90212419D01*
X146525074Y-90207203D01*
X146546309Y-90204053D01*
X146567750Y-90203000D01*
X147005250Y-90203000D01*
X147026691Y-90204053D01*
X147026691Y-90204053D01*
G37*
D14*
G04 #@! TD*
G04 #@! TO.P,C1,1*
G04 #@! TO.N,/solenoid-*
X146786500Y-90678000D03*
D13*
G04 #@! TO.N,/GND*
G04 #@! TO.C,C1*
G36*
X148601691Y-90204053D02*
X148622926Y-90207203D01*
X148643750Y-90212419D01*
X148663962Y-90219651D01*
X148683368Y-90228830D01*
X148701781Y-90239866D01*
X148719024Y-90252654D01*
X148734930Y-90267070D01*
X148749346Y-90282976D01*
X148762134Y-90300219D01*
X148773170Y-90318632D01*
X148782349Y-90338038D01*
X148789581Y-90358250D01*
X148794797Y-90379074D01*
X148797947Y-90400309D01*
X148799000Y-90421750D01*
X148799000Y-90934250D01*
X148797947Y-90955691D01*
X148794797Y-90976926D01*
X148789581Y-90997750D01*
X148782349Y-91017962D01*
X148773170Y-91037368D01*
X148762134Y-91055781D01*
X148749346Y-91073024D01*
X148734930Y-91088930D01*
X148719024Y-91103346D01*
X148701781Y-91116134D01*
X148683368Y-91127170D01*
X148663962Y-91136349D01*
X148643750Y-91143581D01*
X148622926Y-91148797D01*
X148601691Y-91151947D01*
X148580250Y-91153000D01*
X148142750Y-91153000D01*
X148121309Y-91151947D01*
X148100074Y-91148797D01*
X148079250Y-91143581D01*
X148059038Y-91136349D01*
X148039632Y-91127170D01*
X148021219Y-91116134D01*
X148003976Y-91103346D01*
X147988070Y-91088930D01*
X147973654Y-91073024D01*
X147960866Y-91055781D01*
X147949830Y-91037368D01*
X147940651Y-91017962D01*
X147933419Y-90997750D01*
X147928203Y-90976926D01*
X147925053Y-90955691D01*
X147924000Y-90934250D01*
X147924000Y-90421750D01*
X147925053Y-90400309D01*
X147928203Y-90379074D01*
X147933419Y-90358250D01*
X147940651Y-90338038D01*
X147949830Y-90318632D01*
X147960866Y-90300219D01*
X147973654Y-90282976D01*
X147988070Y-90267070D01*
X148003976Y-90252654D01*
X148021219Y-90239866D01*
X148039632Y-90228830D01*
X148059038Y-90219651D01*
X148079250Y-90212419D01*
X148100074Y-90207203D01*
X148121309Y-90204053D01*
X148142750Y-90203000D01*
X148580250Y-90203000D01*
X148601691Y-90204053D01*
X148601691Y-90204053D01*
G37*
D14*
G04 #@! TD*
G04 #@! TO.P,C1,2*
G04 #@! TO.N,/GND*
X148361500Y-90678000D03*
D15*
G04 #@! TO.P,D1,1*
G04 #@! TO.N,/Vin*
X143256000Y-77848000D03*
G04 #@! TO.P,D1,2*
G04 #@! TO.N,Net-(D1-Pad2)*
X143256000Y-80648000D03*
G04 #@! TD*
G04 #@! TO.P,D2,2*
G04 #@! TO.N,/solenoid-*
X143256000Y-86236000D03*
G04 #@! TO.P,D2,1*
G04 #@! TO.N,Net-(D1-Pad2)*
X143256000Y-83436000D03*
G04 #@! TD*
G04 #@! TO.P,D3,1*
G04 #@! TO.N,/GND*
X138560000Y-87249000D03*
G04 #@! TO.P,D3,2*
G04 #@! TO.N,Net-(D3-Pad2)*
X135760000Y-87249000D03*
G04 #@! TD*
D16*
G04 #@! TO.P,INPUT1,1*
G04 #@! TO.N,/Vin*
X144600000Y-108200000D03*
D17*
G04 #@! TO.P,INPUT1,2*
G04 #@! TO.N,/GND*
X149600000Y-108200000D03*
G04 #@! TD*
G04 #@! TO.P,SOL1,2*
G04 #@! TO.N,/solenoid-*
X152800000Y-78800000D03*
D16*
G04 #@! TO.P,SOL1,1*
G04 #@! TO.N,/Vin*
X157800000Y-78800000D03*
G04 #@! TD*
D18*
G04 #@! TO.P,PMOS1,1*
G04 #@! TO.N,Net-(PMOS1-Pad1)*
X135636000Y-82773000D03*
G04 #@! TO.P,PMOS1,3*
G04 #@! TO.N,Net-(PMOS1-Pad3)*
X137736000Y-83723000D03*
G04 #@! TO.P,PMOS1,2*
G04 #@! TO.N,Net-(D3-Pad2)*
X135636000Y-84673000D03*
G04 #@! TD*
D13*
G04 #@! TO.N,/Vin*
G04 #@! TO.C,R1*
G36*
X140993691Y-78659053D02*
X141014926Y-78662203D01*
X141035750Y-78667419D01*
X141055962Y-78674651D01*
X141075368Y-78683830D01*
X141093781Y-78694866D01*
X141111024Y-78707654D01*
X141126930Y-78722070D01*
X141141346Y-78737976D01*
X141154134Y-78755219D01*
X141165170Y-78773632D01*
X141174349Y-78793038D01*
X141181581Y-78813250D01*
X141186797Y-78834074D01*
X141189947Y-78855309D01*
X141191000Y-78876750D01*
X141191000Y-79314250D01*
X141189947Y-79335691D01*
X141186797Y-79356926D01*
X141181581Y-79377750D01*
X141174349Y-79397962D01*
X141165170Y-79417368D01*
X141154134Y-79435781D01*
X141141346Y-79453024D01*
X141126930Y-79468930D01*
X141111024Y-79483346D01*
X141093781Y-79496134D01*
X141075368Y-79507170D01*
X141055962Y-79516349D01*
X141035750Y-79523581D01*
X141014926Y-79528797D01*
X140993691Y-79531947D01*
X140972250Y-79533000D01*
X140459750Y-79533000D01*
X140438309Y-79531947D01*
X140417074Y-79528797D01*
X140396250Y-79523581D01*
X140376038Y-79516349D01*
X140356632Y-79507170D01*
X140338219Y-79496134D01*
X140320976Y-79483346D01*
X140305070Y-79468930D01*
X140290654Y-79453024D01*
X140277866Y-79435781D01*
X140266830Y-79417368D01*
X140257651Y-79397962D01*
X140250419Y-79377750D01*
X140245203Y-79356926D01*
X140242053Y-79335691D01*
X140241000Y-79314250D01*
X140241000Y-78876750D01*
X140242053Y-78855309D01*
X140245203Y-78834074D01*
X140250419Y-78813250D01*
X140257651Y-78793038D01*
X140266830Y-78773632D01*
X140277866Y-78755219D01*
X140290654Y-78737976D01*
X140305070Y-78722070D01*
X140320976Y-78707654D01*
X140338219Y-78694866D01*
X140356632Y-78683830D01*
X140376038Y-78674651D01*
X140396250Y-78667419D01*
X140417074Y-78662203D01*
X140438309Y-78659053D01*
X140459750Y-78658000D01*
X140972250Y-78658000D01*
X140993691Y-78659053D01*
X140993691Y-78659053D01*
G37*
D14*
G04 #@! TD*
G04 #@! TO.P,R1,1*
G04 #@! TO.N,/Vin*
X140716000Y-79095500D03*
D13*
G04 #@! TO.N,Net-(PMOS1-Pad1)*
G04 #@! TO.C,R1*
G36*
X140993691Y-80234053D02*
X141014926Y-80237203D01*
X141035750Y-80242419D01*
X141055962Y-80249651D01*
X141075368Y-80258830D01*
X141093781Y-80269866D01*
X141111024Y-80282654D01*
X141126930Y-80297070D01*
X141141346Y-80312976D01*
X141154134Y-80330219D01*
X141165170Y-80348632D01*
X141174349Y-80368038D01*
X141181581Y-80388250D01*
X141186797Y-80409074D01*
X141189947Y-80430309D01*
X141191000Y-80451750D01*
X141191000Y-80889250D01*
X141189947Y-80910691D01*
X141186797Y-80931926D01*
X141181581Y-80952750D01*
X141174349Y-80972962D01*
X141165170Y-80992368D01*
X141154134Y-81010781D01*
X141141346Y-81028024D01*
X141126930Y-81043930D01*
X141111024Y-81058346D01*
X141093781Y-81071134D01*
X141075368Y-81082170D01*
X141055962Y-81091349D01*
X141035750Y-81098581D01*
X141014926Y-81103797D01*
X140993691Y-81106947D01*
X140972250Y-81108000D01*
X140459750Y-81108000D01*
X140438309Y-81106947D01*
X140417074Y-81103797D01*
X140396250Y-81098581D01*
X140376038Y-81091349D01*
X140356632Y-81082170D01*
X140338219Y-81071134D01*
X140320976Y-81058346D01*
X140305070Y-81043930D01*
X140290654Y-81028024D01*
X140277866Y-81010781D01*
X140266830Y-80992368D01*
X140257651Y-80972962D01*
X140250419Y-80952750D01*
X140245203Y-80931926D01*
X140242053Y-80910691D01*
X140241000Y-80889250D01*
X140241000Y-80451750D01*
X140242053Y-80430309D01*
X140245203Y-80409074D01*
X140250419Y-80388250D01*
X140257651Y-80368038D01*
X140266830Y-80348632D01*
X140277866Y-80330219D01*
X140290654Y-80312976D01*
X140305070Y-80297070D01*
X140320976Y-80282654D01*
X140338219Y-80269866D01*
X140356632Y-80258830D01*
X140376038Y-80249651D01*
X140396250Y-80242419D01*
X140417074Y-80237203D01*
X140438309Y-80234053D01*
X140459750Y-80233000D01*
X140972250Y-80233000D01*
X140993691Y-80234053D01*
X140993691Y-80234053D01*
G37*
D14*
G04 #@! TD*
G04 #@! TO.P,R1,2*
G04 #@! TO.N,Net-(PMOS1-Pad1)*
X140716000Y-80670500D03*
D19*
G04 #@! TO.P,Solenoid1,~*
G04 #@! TO.N,N/C*
X185502473Y-100875901D03*
X169627473Y-88985901D03*
G04 #@! TD*
D20*
G04 #@! TO.N,/GND*
X153200000Y-100400000D03*
D21*
X138560000Y-85400000D03*
X143800000Y-88600000D03*
G04 #@! TO.N,/Vin*
X145288000Y-95504000D03*
X146812000Y-78740000D03*
G04 #@! TD*
D22*
G04 #@! TO.N,/solenoid-*
X143380000Y-86360000D02*
X143256000Y-86236000D01*
X142103500Y-92176500D02*
X141498000Y-92782000D01*
D23*
X144682500Y-92782000D02*
X146812000Y-90652500D01*
X141498000Y-92782000D02*
X144682500Y-92782000D01*
X146812000Y-88268000D02*
X148844000Y-86236000D01*
X146812000Y-90652500D02*
X146812000Y-88268000D01*
X147320000Y-86236000D02*
X148844000Y-86236000D01*
X147320000Y-86236000D02*
X143256000Y-86236000D01*
X148844000Y-86236000D02*
X150564000Y-86236000D01*
X152800000Y-84000000D02*
X152800000Y-78800000D01*
X150564000Y-86236000D02*
X152800000Y-84000000D01*
X157500000Y-90242000D02*
X157500000Y-87100000D01*
X154400000Y-84000000D02*
X152800000Y-84000000D01*
X157500000Y-87100000D02*
X154400000Y-84000000D01*
D22*
G04 #@! TO.N,/GND*
X138560000Y-85240000D02*
X138600000Y-85200000D01*
D23*
X138560000Y-85400000D02*
X138560000Y-87249000D01*
G04 #@! TO.N,/Vin*
X146812000Y-78740000D02*
X145920000Y-77848000D01*
X141963500Y-77848000D02*
X143256000Y-77848000D01*
X140716000Y-79095500D02*
X141963500Y-77848000D01*
X143256000Y-77848000D02*
X145920000Y-77848000D01*
X144600000Y-96192000D02*
X145288000Y-95504000D01*
X144600000Y-108200000D02*
X144600000Y-96192000D01*
X157200000Y-75400000D02*
X157800000Y-76000000D01*
X146812000Y-78740000D02*
X150152000Y-75400000D01*
X157800000Y-76000000D02*
X157800000Y-78800000D01*
X150152000Y-75400000D02*
X157200000Y-75400000D01*
D24*
G04 #@! TO.N,Net-(PMOS1-Pad1)*
X137138500Y-80670500D02*
X135636000Y-82173000D01*
X135636000Y-82173000D02*
X135636000Y-82773000D01*
X140716000Y-80670500D02*
X137138500Y-80670500D01*
D22*
G04 #@! TO.N,Net-(PMOS1-Pad3)*
X136348000Y-92157000D02*
X136348000Y-92782000D01*
D23*
X136348000Y-92782000D02*
X136348000Y-90652000D01*
X136348000Y-90652000D02*
X137000000Y-90000000D01*
X137000000Y-90000000D02*
X140000000Y-90000000D01*
X140000000Y-90000000D02*
X141000000Y-89000000D01*
X141000000Y-89000000D02*
X141000000Y-85000000D01*
X139723000Y-83723000D02*
X137736000Y-83723000D01*
X141000000Y-85000000D02*
X139723000Y-83723000D01*
G04 #@! TO.N,Net-(D1-Pad2)*
X143256000Y-83436000D02*
X143256000Y-80648000D01*
D22*
G04 #@! TO.N,Net-(D3-Pad2)*
X135636000Y-86744000D02*
X135760000Y-86868000D01*
X135636000Y-87125000D02*
X135760000Y-87249000D01*
D23*
X135636000Y-84673000D02*
X135636000Y-87125000D01*
D22*
G04 #@! TO.N,Net-(R3-Pad2)*
X152400000Y-94510000D02*
X153090000Y-95200000D01*
D23*
X152400000Y-90242000D02*
X152400000Y-94510000D01*
G04 #@! TD*
D25*
G04 #@! TO.N,/GND*
G36*
X189576741Y-73376831D02*
X190126574Y-73561871D01*
X190623847Y-73860662D01*
X191045359Y-74259267D01*
X191371440Y-74739082D01*
X191586885Y-75277730D01*
X191686327Y-75878414D01*
X191690000Y-76009906D01*
X191690001Y-111561541D01*
X191623169Y-112176741D01*
X191438129Y-112726574D01*
X191139339Y-113223845D01*
X190740737Y-113645356D01*
X190260918Y-113971441D01*
X189722270Y-114186884D01*
X189121585Y-114286327D01*
X188990094Y-114290000D01*
X136038450Y-114290000D01*
X135423259Y-114223169D01*
X134873426Y-114038129D01*
X134376155Y-113739339D01*
X133954644Y-113340737D01*
X133628559Y-112860918D01*
X133413116Y-112322270D01*
X133313673Y-111721585D01*
X133310000Y-111590094D01*
X133310000Y-111155431D01*
X133765000Y-111155431D01*
X133765000Y-112044569D01*
X134105259Y-112866026D01*
X134733974Y-113494741D01*
X135555431Y-113835000D01*
X136444569Y-113835000D01*
X137266026Y-113494741D01*
X137894741Y-112866026D01*
X138235000Y-112044569D01*
X138235000Y-111155431D01*
X186765000Y-111155431D01*
X186765000Y-112044569D01*
X187105259Y-112866026D01*
X187733974Y-113494741D01*
X188555431Y-113835000D01*
X189444569Y-113835000D01*
X190266026Y-113494741D01*
X190894741Y-112866026D01*
X191235000Y-112044569D01*
X191235000Y-111155431D01*
X190894741Y-110333974D01*
X190266026Y-109705259D01*
X189444569Y-109365000D01*
X188555431Y-109365000D01*
X187733974Y-109705259D01*
X187105259Y-110333974D01*
X186765000Y-111155431D01*
X138235000Y-111155431D01*
X137894741Y-110333974D01*
X137266026Y-109705259D01*
X136444569Y-109365000D01*
X135555431Y-109365000D01*
X134733974Y-109705259D01*
X134105259Y-110333974D01*
X133765000Y-111155431D01*
X133310000Y-111155431D01*
X133310000Y-106900000D01*
X142652560Y-106900000D01*
X142652560Y-109500000D01*
X142701843Y-109747765D01*
X142842191Y-109957809D01*
X143052235Y-110098157D01*
X143300000Y-110147440D01*
X145900000Y-110147440D01*
X146147765Y-110098157D01*
X146357809Y-109957809D01*
X146498157Y-109747765D01*
X146533623Y-109569459D01*
X148410146Y-109569459D01*
X148545504Y-109867455D01*
X149263880Y-110144066D01*
X150033427Y-110124710D01*
X150654496Y-109867455D01*
X150789854Y-109569459D01*
X149600000Y-108379605D01*
X148410146Y-109569459D01*
X146533623Y-109569459D01*
X146547440Y-109500000D01*
X146547440Y-107863880D01*
X147655934Y-107863880D01*
X147675290Y-108633427D01*
X147932545Y-109254496D01*
X148230541Y-109389854D01*
X149420395Y-108200000D01*
X149779605Y-108200000D01*
X150969459Y-109389854D01*
X151267455Y-109254496D01*
X151544066Y-108536120D01*
X151524710Y-107766573D01*
X151267455Y-107145504D01*
X150969459Y-107010146D01*
X149779605Y-108200000D01*
X149420395Y-108200000D01*
X148230541Y-107010146D01*
X147932545Y-107145504D01*
X147655934Y-107863880D01*
X146547440Y-107863880D01*
X146547440Y-106900000D01*
X146533624Y-106830541D01*
X148410146Y-106830541D01*
X149600000Y-108020395D01*
X150789854Y-106830541D01*
X150654496Y-106532545D01*
X149936120Y-106255934D01*
X149166573Y-106275290D01*
X148545504Y-106532545D01*
X148410146Y-106830541D01*
X146533624Y-106830541D01*
X146498157Y-106652235D01*
X146357809Y-106442191D01*
X146147765Y-106301843D01*
X145900000Y-106252560D01*
X145870000Y-106252560D01*
X145870000Y-100635750D01*
X150605000Y-100635750D01*
X150605000Y-101701309D01*
X150701673Y-101934698D01*
X150880301Y-102113327D01*
X151113690Y-102210000D01*
X152804250Y-102210000D01*
X152963000Y-102051250D01*
X152963000Y-100477000D01*
X153217000Y-100477000D01*
X153217000Y-102051250D01*
X153375750Y-102210000D01*
X155066310Y-102210000D01*
X155299699Y-102113327D01*
X155478327Y-101934698D01*
X155575000Y-101701309D01*
X155575000Y-100635750D01*
X155416250Y-100477000D01*
X153217000Y-100477000D01*
X152963000Y-100477000D01*
X150763750Y-100477000D01*
X150605000Y-100635750D01*
X145870000Y-100635750D01*
X145870000Y-100446250D01*
X183342473Y-100446250D01*
X183342473Y-101305552D01*
X183671313Y-102099443D01*
X184278931Y-102707061D01*
X185072822Y-103035901D01*
X185932124Y-103035901D01*
X186726015Y-102707061D01*
X187333633Y-102099443D01*
X187662473Y-101305552D01*
X187662473Y-100446250D01*
X187333633Y-99652359D01*
X186726015Y-99044741D01*
X185932124Y-98715901D01*
X185072822Y-98715901D01*
X184278931Y-99044741D01*
X183671313Y-99652359D01*
X183342473Y-100446250D01*
X145870000Y-100446250D01*
X145870000Y-98998691D01*
X150605000Y-98998691D01*
X150605000Y-100064250D01*
X150763750Y-100223000D01*
X152963000Y-100223000D01*
X152963000Y-98648750D01*
X153217000Y-98648750D01*
X153217000Y-100223000D01*
X155416250Y-100223000D01*
X155575000Y-100064250D01*
X155575000Y-98998691D01*
X155478327Y-98765302D01*
X155299699Y-98586673D01*
X155066310Y-98490000D01*
X153375750Y-98490000D01*
X153217000Y-98648750D01*
X152963000Y-98648750D01*
X152804250Y-98490000D01*
X151113690Y-98490000D01*
X150880301Y-98586673D01*
X150701673Y-98765302D01*
X150605000Y-98998691D01*
X145870000Y-98998691D01*
X145870000Y-96718050D01*
X145887291Y-96700759D01*
X146044217Y-96635758D01*
X146419758Y-96260217D01*
X146623000Y-95769548D01*
X146623000Y-95238452D01*
X146419758Y-94747783D01*
X146044217Y-94372242D01*
X145553548Y-94169000D01*
X145022452Y-94169000D01*
X144531783Y-94372242D01*
X144156242Y-94747783D01*
X144091241Y-94904709D01*
X143790419Y-95205531D01*
X143684383Y-95276382D01*
X143613532Y-95382418D01*
X143613530Y-95382420D01*
X143403688Y-95696471D01*
X143305121Y-96192000D01*
X143330001Y-96317080D01*
X143330000Y-106252560D01*
X143300000Y-106252560D01*
X143052235Y-106301843D01*
X142842191Y-106442191D01*
X142701843Y-106652235D01*
X142652560Y-106900000D01*
X133310000Y-106900000D01*
X133310000Y-84547921D01*
X134366000Y-84547921D01*
X134366001Y-87250080D01*
X134439688Y-87620529D01*
X134564095Y-87806717D01*
X134611843Y-88046765D01*
X134752191Y-88256809D01*
X134962235Y-88397157D01*
X135210000Y-88446440D01*
X136310000Y-88446440D01*
X136557765Y-88397157D01*
X136767809Y-88256809D01*
X136908157Y-88046765D01*
X136957440Y-87799000D01*
X136957440Y-87534750D01*
X137375000Y-87534750D01*
X137375000Y-87925310D01*
X137471673Y-88158699D01*
X137650302Y-88337327D01*
X137883691Y-88434000D01*
X138274250Y-88434000D01*
X138433000Y-88275250D01*
X138433000Y-87376000D01*
X137533750Y-87376000D01*
X137375000Y-87534750D01*
X136957440Y-87534750D01*
X136957440Y-86699000D01*
X136932316Y-86572690D01*
X137375000Y-86572690D01*
X137375000Y-86963250D01*
X137533750Y-87122000D01*
X138433000Y-87122000D01*
X138433000Y-86222750D01*
X138274250Y-86064000D01*
X137883691Y-86064000D01*
X137650302Y-86160673D01*
X137471673Y-86339301D01*
X137375000Y-86572690D01*
X136932316Y-86572690D01*
X136908157Y-86451235D01*
X136906000Y-86448007D01*
X136906000Y-84695826D01*
X137240471Y-84919313D01*
X137610920Y-84993000D01*
X139196950Y-84993000D01*
X139730001Y-85526052D01*
X139730001Y-86536478D01*
X139648327Y-86339301D01*
X139469698Y-86160673D01*
X139236309Y-86064000D01*
X138845750Y-86064000D01*
X138687000Y-86222750D01*
X138687000Y-87122000D01*
X138707000Y-87122000D01*
X138707000Y-87376000D01*
X138687000Y-87376000D01*
X138687000Y-88275250D01*
X138845750Y-88434000D01*
X139236309Y-88434000D01*
X139469698Y-88337327D01*
X139648327Y-88158699D01*
X139730000Y-87961523D01*
X139730000Y-88473949D01*
X139473950Y-88730000D01*
X137125074Y-88730000D01*
X136999999Y-88705121D01*
X136874924Y-88730000D01*
X136874920Y-88730000D01*
X136504471Y-88803687D01*
X136084382Y-89084382D01*
X136013530Y-89190420D01*
X135538419Y-89665531D01*
X135432383Y-89736382D01*
X135361532Y-89842418D01*
X135361530Y-89842420D01*
X135151688Y-90156471D01*
X135126209Y-90284560D01*
X135123000Y-90284560D01*
X134875235Y-90333843D01*
X134665191Y-90474191D01*
X134524843Y-90684235D01*
X134475560Y-90932000D01*
X134475560Y-94632000D01*
X134524843Y-94879765D01*
X134665191Y-95089809D01*
X134875235Y-95230157D01*
X135123000Y-95279440D01*
X137573000Y-95279440D01*
X137820765Y-95230157D01*
X138030809Y-95089809D01*
X138171157Y-94879765D01*
X138220440Y-94632000D01*
X138220440Y-91270000D01*
X139625560Y-91270000D01*
X139625560Y-94632000D01*
X139674843Y-94879765D01*
X139815191Y-95089809D01*
X140025235Y-95230157D01*
X140273000Y-95279440D01*
X142723000Y-95279440D01*
X142970765Y-95230157D01*
X143180809Y-95089809D01*
X143321157Y-94879765D01*
X143370440Y-94632000D01*
X143370440Y-94052000D01*
X144557425Y-94052000D01*
X144682500Y-94076879D01*
X144807575Y-94052000D01*
X144807580Y-94052000D01*
X145178029Y-93978313D01*
X145182987Y-93975000D01*
X150592560Y-93975000D01*
X150592560Y-96425000D01*
X150641843Y-96672765D01*
X150782191Y-96882809D01*
X150992235Y-97023157D01*
X151240000Y-97072440D01*
X154940000Y-97072440D01*
X155187765Y-97023157D01*
X155397809Y-96882809D01*
X155538157Y-96672765D01*
X155587440Y-96425000D01*
X155587440Y-93975000D01*
X155538157Y-93727235D01*
X155397809Y-93517191D01*
X155187765Y-93376843D01*
X154940000Y-93327560D01*
X153670000Y-93327560D01*
X153670000Y-90116920D01*
X153596313Y-89746471D01*
X153315618Y-89326382D01*
X152895528Y-89045687D01*
X152400000Y-88947120D01*
X151904471Y-89045687D01*
X151484382Y-89326382D01*
X151203687Y-89746472D01*
X151130000Y-90116921D01*
X151130001Y-93349440D01*
X150992235Y-93376843D01*
X150782191Y-93517191D01*
X150641843Y-93727235D01*
X150592560Y-93975000D01*
X145182987Y-93975000D01*
X145598118Y-93697618D01*
X145668971Y-93591579D01*
X147567782Y-91692769D01*
X147797691Y-91788000D01*
X148075750Y-91788000D01*
X148234500Y-91629250D01*
X148234500Y-90805000D01*
X148488500Y-90805000D01*
X148488500Y-91629250D01*
X148647250Y-91788000D01*
X148925309Y-91788000D01*
X149158698Y-91691327D01*
X149337327Y-91512699D01*
X149434000Y-91279310D01*
X149434000Y-90963750D01*
X149275250Y-90805000D01*
X148488500Y-90805000D01*
X148234500Y-90805000D01*
X148214500Y-90805000D01*
X148214500Y-90551000D01*
X148234500Y-90551000D01*
X148234500Y-89726750D01*
X148488500Y-89726750D01*
X148488500Y-90551000D01*
X149275250Y-90551000D01*
X149434000Y-90392250D01*
X149434000Y-90076690D01*
X149337327Y-89843301D01*
X149158698Y-89664673D01*
X148925309Y-89568000D01*
X148647250Y-89568000D01*
X148488500Y-89726750D01*
X148234500Y-89726750D01*
X148082000Y-89574250D01*
X148082000Y-88794050D01*
X149370051Y-87506000D01*
X150438925Y-87506000D01*
X150564000Y-87530879D01*
X150689075Y-87506000D01*
X150689080Y-87506000D01*
X151059529Y-87432313D01*
X151479618Y-87151618D01*
X151550471Y-87045579D01*
X153326051Y-85270000D01*
X153873950Y-85270000D01*
X156230001Y-87626052D01*
X156230000Y-90367079D01*
X156303687Y-90737528D01*
X156584382Y-91157618D01*
X157004471Y-91438313D01*
X157500000Y-91536880D01*
X157995528Y-91438313D01*
X158415618Y-91157618D01*
X158696313Y-90737529D01*
X158770000Y-90367080D01*
X158770000Y-88556250D01*
X167467473Y-88556250D01*
X167467473Y-89415552D01*
X167796313Y-90209443D01*
X168403931Y-90817061D01*
X169197822Y-91145901D01*
X170057124Y-91145901D01*
X170851015Y-90817061D01*
X171458633Y-90209443D01*
X171787473Y-89415552D01*
X171787473Y-88556250D01*
X171458633Y-87762359D01*
X170851015Y-87154741D01*
X170057124Y-86825901D01*
X169197822Y-86825901D01*
X168403931Y-87154741D01*
X167796313Y-87762359D01*
X167467473Y-88556250D01*
X158770000Y-88556250D01*
X158770000Y-87225074D01*
X158794879Y-87099999D01*
X158770000Y-86974924D01*
X158770000Y-86974920D01*
X158696313Y-86604471D01*
X158532962Y-86359999D01*
X158486470Y-86290419D01*
X158486469Y-86290418D01*
X158415618Y-86184382D01*
X158309581Y-86113531D01*
X155386471Y-83190421D01*
X155315618Y-83084382D01*
X154895529Y-82803687D01*
X154525080Y-82730000D01*
X154525075Y-82730000D01*
X154400000Y-82705121D01*
X154274925Y-82730000D01*
X154070000Y-82730000D01*
X154070000Y-80266504D01*
X154440414Y-79896090D01*
X154735000Y-79184895D01*
X154735000Y-78415105D01*
X154440414Y-77703910D01*
X153896090Y-77159586D01*
X153184895Y-76865000D01*
X152415105Y-76865000D01*
X151703910Y-77159586D01*
X151159586Y-77703910D01*
X150865000Y-78415105D01*
X150865000Y-79184895D01*
X151159586Y-79896090D01*
X151530001Y-80266505D01*
X151530000Y-83473949D01*
X150037950Y-84966000D01*
X148969075Y-84966000D01*
X148844000Y-84941121D01*
X148718925Y-84966000D01*
X143130920Y-84966000D01*
X142766137Y-85038560D01*
X142706000Y-85038560D01*
X142458235Y-85087843D01*
X142270000Y-85213619D01*
X142270000Y-85125076D01*
X142294879Y-85000000D01*
X142270000Y-84874924D01*
X142270000Y-84874920D01*
X142196313Y-84504471D01*
X142015433Y-84233765D01*
X141986470Y-84190419D01*
X141986469Y-84190418D01*
X141915618Y-84084382D01*
X141809581Y-84013530D01*
X141357130Y-83561079D01*
X141986000Y-83561079D01*
X142058560Y-83925862D01*
X142058560Y-83986000D01*
X142107843Y-84233765D01*
X142248191Y-84443809D01*
X142458235Y-84584157D01*
X142706000Y-84633440D01*
X142766137Y-84633440D01*
X143256000Y-84730880D01*
X143745862Y-84633440D01*
X143806000Y-84633440D01*
X144053765Y-84584157D01*
X144263809Y-84443809D01*
X144404157Y-84233765D01*
X144453440Y-83986000D01*
X144453440Y-83925863D01*
X144526000Y-83561080D01*
X144526000Y-80522920D01*
X144453440Y-80158137D01*
X144453440Y-80098000D01*
X144404157Y-79850235D01*
X144263809Y-79640191D01*
X144053765Y-79499843D01*
X143806000Y-79450560D01*
X143745863Y-79450560D01*
X143256000Y-79353120D01*
X142766138Y-79450560D01*
X142706000Y-79450560D01*
X142458235Y-79499843D01*
X142248191Y-79640191D01*
X142107843Y-79850235D01*
X142058560Y-80098000D01*
X142058560Y-80158142D01*
X141986001Y-80522920D01*
X141986000Y-83561079D01*
X141357130Y-83561079D01*
X140709471Y-82913421D01*
X140638618Y-82807382D01*
X140218529Y-82526687D01*
X139848080Y-82453000D01*
X139848075Y-82453000D01*
X139723000Y-82428121D01*
X139597925Y-82453000D01*
X137610920Y-82453000D01*
X137240471Y-82526687D01*
X136820382Y-82807382D01*
X136733440Y-82937500D01*
X136733440Y-82510986D01*
X137558927Y-81685500D01*
X140122279Y-81685500D01*
X140128273Y-81689505D01*
X140459750Y-81755440D01*
X140972250Y-81755440D01*
X141303727Y-81689505D01*
X141584739Y-81501739D01*
X141772505Y-81220727D01*
X141838440Y-80889250D01*
X141838440Y-80451750D01*
X141772505Y-80120273D01*
X141658259Y-79949291D01*
X142489551Y-79118000D01*
X145393949Y-79118000D01*
X145615242Y-79339293D01*
X145680242Y-79496217D01*
X146055783Y-79871758D01*
X146546452Y-80075000D01*
X147077548Y-80075000D01*
X147568217Y-79871758D01*
X147943758Y-79496217D01*
X148008759Y-79339291D01*
X150678051Y-76670000D01*
X156530000Y-76670000D01*
X156530000Y-76852560D01*
X156500000Y-76852560D01*
X156252235Y-76901843D01*
X156042191Y-77042191D01*
X155901843Y-77252235D01*
X155852560Y-77500000D01*
X155852560Y-80100000D01*
X155901843Y-80347765D01*
X156042191Y-80557809D01*
X156252235Y-80698157D01*
X156500000Y-80747440D01*
X159100000Y-80747440D01*
X159347765Y-80698157D01*
X159557809Y-80557809D01*
X159698157Y-80347765D01*
X159747440Y-80100000D01*
X159747440Y-77500000D01*
X159698157Y-77252235D01*
X159557809Y-77042191D01*
X159347765Y-76901843D01*
X159100000Y-76852560D01*
X159070000Y-76852560D01*
X159070000Y-76125074D01*
X159094879Y-75999999D01*
X159070000Y-75874924D01*
X159070000Y-75874920D01*
X159006450Y-75555431D01*
X186765000Y-75555431D01*
X186765000Y-76444569D01*
X187105259Y-77266026D01*
X187733974Y-77894741D01*
X188555431Y-78235000D01*
X189444569Y-78235000D01*
X190266026Y-77894741D01*
X190894741Y-77266026D01*
X191235000Y-76444569D01*
X191235000Y-75555431D01*
X190894741Y-74733974D01*
X190266026Y-74105259D01*
X189444569Y-73765000D01*
X188555431Y-73765000D01*
X187733974Y-74105259D01*
X187105259Y-74733974D01*
X186765000Y-75555431D01*
X159006450Y-75555431D01*
X158996313Y-75504471D01*
X158715618Y-75084382D01*
X158609579Y-75013529D01*
X158186471Y-74590421D01*
X158115618Y-74484382D01*
X157695529Y-74203687D01*
X157325080Y-74130000D01*
X157325075Y-74130000D01*
X157200000Y-74105121D01*
X157074925Y-74130000D01*
X150277074Y-74130000D01*
X150151999Y-74105121D01*
X150026924Y-74130000D01*
X150026920Y-74130000D01*
X149656471Y-74203687D01*
X149236382Y-74484382D01*
X149165531Y-74590419D01*
X146828394Y-76927555D01*
X146415529Y-76651687D01*
X146045080Y-76578000D01*
X146045075Y-76578000D01*
X145920000Y-76553121D01*
X145794925Y-76578000D01*
X142088574Y-76578000D01*
X141963499Y-76553121D01*
X141838424Y-76578000D01*
X141838420Y-76578000D01*
X141467971Y-76651687D01*
X141047882Y-76932382D01*
X140977030Y-77038419D01*
X139729530Y-78285920D01*
X139519688Y-78599971D01*
X139421121Y-79095500D01*
X139519688Y-79591029D01*
X139562766Y-79655500D01*
X137238463Y-79655500D01*
X137138500Y-79635616D01*
X137038536Y-79655500D01*
X137038532Y-79655500D01*
X136742467Y-79714391D01*
X136742465Y-79714392D01*
X136742466Y-79714392D01*
X136506951Y-79871758D01*
X136406726Y-79938726D01*
X136350099Y-80023474D01*
X134988976Y-81384598D01*
X134904226Y-81441226D01*
X134679891Y-81776968D01*
X134621000Y-82073033D01*
X134621000Y-82073037D01*
X134606109Y-82147898D01*
X134587843Y-82175235D01*
X134538560Y-82423000D01*
X134538560Y-83123000D01*
X134587843Y-83370765D01*
X134728191Y-83580809D01*
X134856416Y-83666487D01*
X134720382Y-83757382D01*
X134439687Y-84177472D01*
X134366000Y-84547921D01*
X133310000Y-84547921D01*
X133310000Y-76038450D01*
X133362472Y-75555431D01*
X133765000Y-75555431D01*
X133765000Y-76444569D01*
X134105259Y-77266026D01*
X134733974Y-77894741D01*
X135555431Y-78235000D01*
X136444569Y-78235000D01*
X137266026Y-77894741D01*
X137894741Y-77266026D01*
X138235000Y-76444569D01*
X138235000Y-75555431D01*
X137894741Y-74733974D01*
X137266026Y-74105259D01*
X136444569Y-73765000D01*
X135555431Y-73765000D01*
X134733974Y-74105259D01*
X134105259Y-74733974D01*
X133765000Y-75555431D01*
X133362472Y-75555431D01*
X133376831Y-75423259D01*
X133561871Y-74873426D01*
X133860662Y-74376153D01*
X134259267Y-73954641D01*
X134739082Y-73628560D01*
X135277730Y-73413115D01*
X135878414Y-73313673D01*
X136009906Y-73310000D01*
X188961550Y-73310000D01*
X189576741Y-73376831D01*
X189576741Y-73376831D01*
G37*
X189576741Y-73376831D02*
X190126574Y-73561871D01*
X190623847Y-73860662D01*
X191045359Y-74259267D01*
X191371440Y-74739082D01*
X191586885Y-75277730D01*
X191686327Y-75878414D01*
X191690000Y-76009906D01*
X191690001Y-111561541D01*
X191623169Y-112176741D01*
X191438129Y-112726574D01*
X191139339Y-113223845D01*
X190740737Y-113645356D01*
X190260918Y-113971441D01*
X189722270Y-114186884D01*
X189121585Y-114286327D01*
X188990094Y-114290000D01*
X136038450Y-114290000D01*
X135423259Y-114223169D01*
X134873426Y-114038129D01*
X134376155Y-113739339D01*
X133954644Y-113340737D01*
X133628559Y-112860918D01*
X133413116Y-112322270D01*
X133313673Y-111721585D01*
X133310000Y-111590094D01*
X133310000Y-111155431D01*
X133765000Y-111155431D01*
X133765000Y-112044569D01*
X134105259Y-112866026D01*
X134733974Y-113494741D01*
X135555431Y-113835000D01*
X136444569Y-113835000D01*
X137266026Y-113494741D01*
X137894741Y-112866026D01*
X138235000Y-112044569D01*
X138235000Y-111155431D01*
X186765000Y-111155431D01*
X186765000Y-112044569D01*
X187105259Y-112866026D01*
X187733974Y-113494741D01*
X188555431Y-113835000D01*
X189444569Y-113835000D01*
X190266026Y-113494741D01*
X190894741Y-112866026D01*
X191235000Y-112044569D01*
X191235000Y-111155431D01*
X190894741Y-110333974D01*
X190266026Y-109705259D01*
X189444569Y-109365000D01*
X188555431Y-109365000D01*
X187733974Y-109705259D01*
X187105259Y-110333974D01*
X186765000Y-111155431D01*
X138235000Y-111155431D01*
X137894741Y-110333974D01*
X137266026Y-109705259D01*
X136444569Y-109365000D01*
X135555431Y-109365000D01*
X134733974Y-109705259D01*
X134105259Y-110333974D01*
X133765000Y-111155431D01*
X133310000Y-111155431D01*
X133310000Y-106900000D01*
X142652560Y-106900000D01*
X142652560Y-109500000D01*
X142701843Y-109747765D01*
X142842191Y-109957809D01*
X143052235Y-110098157D01*
X143300000Y-110147440D01*
X145900000Y-110147440D01*
X146147765Y-110098157D01*
X146357809Y-109957809D01*
X146498157Y-109747765D01*
X146533623Y-109569459D01*
X148410146Y-109569459D01*
X148545504Y-109867455D01*
X149263880Y-110144066D01*
X150033427Y-110124710D01*
X150654496Y-109867455D01*
X150789854Y-109569459D01*
X149600000Y-108379605D01*
X148410146Y-109569459D01*
X146533623Y-109569459D01*
X146547440Y-109500000D01*
X146547440Y-107863880D01*
X147655934Y-107863880D01*
X147675290Y-108633427D01*
X147932545Y-109254496D01*
X148230541Y-109389854D01*
X149420395Y-108200000D01*
X149779605Y-108200000D01*
X150969459Y-109389854D01*
X151267455Y-109254496D01*
X151544066Y-108536120D01*
X151524710Y-107766573D01*
X151267455Y-107145504D01*
X150969459Y-107010146D01*
X149779605Y-108200000D01*
X149420395Y-108200000D01*
X148230541Y-107010146D01*
X147932545Y-107145504D01*
X147655934Y-107863880D01*
X146547440Y-107863880D01*
X146547440Y-106900000D01*
X146533624Y-106830541D01*
X148410146Y-106830541D01*
X149600000Y-108020395D01*
X150789854Y-106830541D01*
X150654496Y-106532545D01*
X149936120Y-106255934D01*
X149166573Y-106275290D01*
X148545504Y-106532545D01*
X148410146Y-106830541D01*
X146533624Y-106830541D01*
X146498157Y-106652235D01*
X146357809Y-106442191D01*
X146147765Y-106301843D01*
X145900000Y-106252560D01*
X145870000Y-106252560D01*
X145870000Y-100635750D01*
X150605000Y-100635750D01*
X150605000Y-101701309D01*
X150701673Y-101934698D01*
X150880301Y-102113327D01*
X151113690Y-102210000D01*
X152804250Y-102210000D01*
X152963000Y-102051250D01*
X152963000Y-100477000D01*
X153217000Y-100477000D01*
X153217000Y-102051250D01*
X153375750Y-102210000D01*
X155066310Y-102210000D01*
X155299699Y-102113327D01*
X155478327Y-101934698D01*
X155575000Y-101701309D01*
X155575000Y-100635750D01*
X155416250Y-100477000D01*
X153217000Y-100477000D01*
X152963000Y-100477000D01*
X150763750Y-100477000D01*
X150605000Y-100635750D01*
X145870000Y-100635750D01*
X145870000Y-100446250D01*
X183342473Y-100446250D01*
X183342473Y-101305552D01*
X183671313Y-102099443D01*
X184278931Y-102707061D01*
X185072822Y-103035901D01*
X185932124Y-103035901D01*
X186726015Y-102707061D01*
X187333633Y-102099443D01*
X187662473Y-101305552D01*
X187662473Y-100446250D01*
X187333633Y-99652359D01*
X186726015Y-99044741D01*
X185932124Y-98715901D01*
X185072822Y-98715901D01*
X184278931Y-99044741D01*
X183671313Y-99652359D01*
X183342473Y-100446250D01*
X145870000Y-100446250D01*
X145870000Y-98998691D01*
X150605000Y-98998691D01*
X150605000Y-100064250D01*
X150763750Y-100223000D01*
X152963000Y-100223000D01*
X152963000Y-98648750D01*
X153217000Y-98648750D01*
X153217000Y-100223000D01*
X155416250Y-100223000D01*
X155575000Y-100064250D01*
X155575000Y-98998691D01*
X155478327Y-98765302D01*
X155299699Y-98586673D01*
X155066310Y-98490000D01*
X153375750Y-98490000D01*
X153217000Y-98648750D01*
X152963000Y-98648750D01*
X152804250Y-98490000D01*
X151113690Y-98490000D01*
X150880301Y-98586673D01*
X150701673Y-98765302D01*
X150605000Y-98998691D01*
X145870000Y-98998691D01*
X145870000Y-96718050D01*
X145887291Y-96700759D01*
X146044217Y-96635758D01*
X146419758Y-96260217D01*
X146623000Y-95769548D01*
X146623000Y-95238452D01*
X146419758Y-94747783D01*
X146044217Y-94372242D01*
X145553548Y-94169000D01*
X145022452Y-94169000D01*
X144531783Y-94372242D01*
X144156242Y-94747783D01*
X144091241Y-94904709D01*
X143790419Y-95205531D01*
X143684383Y-95276382D01*
X143613532Y-95382418D01*
X143613530Y-95382420D01*
X143403688Y-95696471D01*
X143305121Y-96192000D01*
X143330001Y-96317080D01*
X143330000Y-106252560D01*
X143300000Y-106252560D01*
X143052235Y-106301843D01*
X142842191Y-106442191D01*
X142701843Y-106652235D01*
X142652560Y-106900000D01*
X133310000Y-106900000D01*
X133310000Y-84547921D01*
X134366000Y-84547921D01*
X134366001Y-87250080D01*
X134439688Y-87620529D01*
X134564095Y-87806717D01*
X134611843Y-88046765D01*
X134752191Y-88256809D01*
X134962235Y-88397157D01*
X135210000Y-88446440D01*
X136310000Y-88446440D01*
X136557765Y-88397157D01*
X136767809Y-88256809D01*
X136908157Y-88046765D01*
X136957440Y-87799000D01*
X136957440Y-87534750D01*
X137375000Y-87534750D01*
X137375000Y-87925310D01*
X137471673Y-88158699D01*
X137650302Y-88337327D01*
X137883691Y-88434000D01*
X138274250Y-88434000D01*
X138433000Y-88275250D01*
X138433000Y-87376000D01*
X137533750Y-87376000D01*
X137375000Y-87534750D01*
X136957440Y-87534750D01*
X136957440Y-86699000D01*
X136932316Y-86572690D01*
X137375000Y-86572690D01*
X137375000Y-86963250D01*
X137533750Y-87122000D01*
X138433000Y-87122000D01*
X138433000Y-86222750D01*
X138274250Y-86064000D01*
X137883691Y-86064000D01*
X137650302Y-86160673D01*
X137471673Y-86339301D01*
X137375000Y-86572690D01*
X136932316Y-86572690D01*
X136908157Y-86451235D01*
X136906000Y-86448007D01*
X136906000Y-84695826D01*
X137240471Y-84919313D01*
X137610920Y-84993000D01*
X139196950Y-84993000D01*
X139730001Y-85526052D01*
X139730001Y-86536478D01*
X139648327Y-86339301D01*
X139469698Y-86160673D01*
X139236309Y-86064000D01*
X138845750Y-86064000D01*
X138687000Y-86222750D01*
X138687000Y-87122000D01*
X138707000Y-87122000D01*
X138707000Y-87376000D01*
X138687000Y-87376000D01*
X138687000Y-88275250D01*
X138845750Y-88434000D01*
X139236309Y-88434000D01*
X139469698Y-88337327D01*
X139648327Y-88158699D01*
X139730000Y-87961523D01*
X139730000Y-88473949D01*
X139473950Y-88730000D01*
X137125074Y-88730000D01*
X136999999Y-88705121D01*
X136874924Y-88730000D01*
X136874920Y-88730000D01*
X136504471Y-88803687D01*
X136084382Y-89084382D01*
X136013530Y-89190420D01*
X135538419Y-89665531D01*
X135432383Y-89736382D01*
X135361532Y-89842418D01*
X135361530Y-89842420D01*
X135151688Y-90156471D01*
X135126209Y-90284560D01*
X135123000Y-90284560D01*
X134875235Y-90333843D01*
X134665191Y-90474191D01*
X134524843Y-90684235D01*
X134475560Y-90932000D01*
X134475560Y-94632000D01*
X134524843Y-94879765D01*
X134665191Y-95089809D01*
X134875235Y-95230157D01*
X135123000Y-95279440D01*
X137573000Y-95279440D01*
X137820765Y-95230157D01*
X138030809Y-95089809D01*
X138171157Y-94879765D01*
X138220440Y-94632000D01*
X138220440Y-91270000D01*
X139625560Y-91270000D01*
X139625560Y-94632000D01*
X139674843Y-94879765D01*
X139815191Y-95089809D01*
X140025235Y-95230157D01*
X140273000Y-95279440D01*
X142723000Y-95279440D01*
X142970765Y-95230157D01*
X143180809Y-95089809D01*
X143321157Y-94879765D01*
X143370440Y-94632000D01*
X143370440Y-94052000D01*
X144557425Y-94052000D01*
X144682500Y-94076879D01*
X144807575Y-94052000D01*
X144807580Y-94052000D01*
X145178029Y-93978313D01*
X145182987Y-93975000D01*
X150592560Y-93975000D01*
X150592560Y-96425000D01*
X150641843Y-96672765D01*
X150782191Y-96882809D01*
X150992235Y-97023157D01*
X151240000Y-97072440D01*
X154940000Y-97072440D01*
X155187765Y-97023157D01*
X155397809Y-96882809D01*
X155538157Y-96672765D01*
X155587440Y-96425000D01*
X155587440Y-93975000D01*
X155538157Y-93727235D01*
X155397809Y-93517191D01*
X155187765Y-93376843D01*
X154940000Y-93327560D01*
X153670000Y-93327560D01*
X153670000Y-90116920D01*
X153596313Y-89746471D01*
X153315618Y-89326382D01*
X152895528Y-89045687D01*
X152400000Y-88947120D01*
X151904471Y-89045687D01*
X151484382Y-89326382D01*
X151203687Y-89746472D01*
X151130000Y-90116921D01*
X151130001Y-93349440D01*
X150992235Y-93376843D01*
X150782191Y-93517191D01*
X150641843Y-93727235D01*
X150592560Y-93975000D01*
X145182987Y-93975000D01*
X145598118Y-93697618D01*
X145668971Y-93591579D01*
X147567782Y-91692769D01*
X147797691Y-91788000D01*
X148075750Y-91788000D01*
X148234500Y-91629250D01*
X148234500Y-90805000D01*
X148488500Y-90805000D01*
X148488500Y-91629250D01*
X148647250Y-91788000D01*
X148925309Y-91788000D01*
X149158698Y-91691327D01*
X149337327Y-91512699D01*
X149434000Y-91279310D01*
X149434000Y-90963750D01*
X149275250Y-90805000D01*
X148488500Y-90805000D01*
X148234500Y-90805000D01*
X148214500Y-90805000D01*
X148214500Y-90551000D01*
X148234500Y-90551000D01*
X148234500Y-89726750D01*
X148488500Y-89726750D01*
X148488500Y-90551000D01*
X149275250Y-90551000D01*
X149434000Y-90392250D01*
X149434000Y-90076690D01*
X149337327Y-89843301D01*
X149158698Y-89664673D01*
X148925309Y-89568000D01*
X148647250Y-89568000D01*
X148488500Y-89726750D01*
X148234500Y-89726750D01*
X148082000Y-89574250D01*
X148082000Y-88794050D01*
X149370051Y-87506000D01*
X150438925Y-87506000D01*
X150564000Y-87530879D01*
X150689075Y-87506000D01*
X150689080Y-87506000D01*
X151059529Y-87432313D01*
X151479618Y-87151618D01*
X151550471Y-87045579D01*
X153326051Y-85270000D01*
X153873950Y-85270000D01*
X156230001Y-87626052D01*
X156230000Y-90367079D01*
X156303687Y-90737528D01*
X156584382Y-91157618D01*
X157004471Y-91438313D01*
X157500000Y-91536880D01*
X157995528Y-91438313D01*
X158415618Y-91157618D01*
X158696313Y-90737529D01*
X158770000Y-90367080D01*
X158770000Y-88556250D01*
X167467473Y-88556250D01*
X167467473Y-89415552D01*
X167796313Y-90209443D01*
X168403931Y-90817061D01*
X169197822Y-91145901D01*
X170057124Y-91145901D01*
X170851015Y-90817061D01*
X171458633Y-90209443D01*
X171787473Y-89415552D01*
X171787473Y-88556250D01*
X171458633Y-87762359D01*
X170851015Y-87154741D01*
X170057124Y-86825901D01*
X169197822Y-86825901D01*
X168403931Y-87154741D01*
X167796313Y-87762359D01*
X167467473Y-88556250D01*
X158770000Y-88556250D01*
X158770000Y-87225074D01*
X158794879Y-87099999D01*
X158770000Y-86974924D01*
X158770000Y-86974920D01*
X158696313Y-86604471D01*
X158532962Y-86359999D01*
X158486470Y-86290419D01*
X158486469Y-86290418D01*
X158415618Y-86184382D01*
X158309581Y-86113531D01*
X155386471Y-83190421D01*
X155315618Y-83084382D01*
X154895529Y-82803687D01*
X154525080Y-82730000D01*
X154525075Y-82730000D01*
X154400000Y-82705121D01*
X154274925Y-82730000D01*
X154070000Y-82730000D01*
X154070000Y-80266504D01*
X154440414Y-79896090D01*
X154735000Y-79184895D01*
X154735000Y-78415105D01*
X154440414Y-77703910D01*
X153896090Y-77159586D01*
X153184895Y-76865000D01*
X152415105Y-76865000D01*
X151703910Y-77159586D01*
X151159586Y-77703910D01*
X150865000Y-78415105D01*
X150865000Y-79184895D01*
X151159586Y-79896090D01*
X151530001Y-80266505D01*
X151530000Y-83473949D01*
X150037950Y-84966000D01*
X148969075Y-84966000D01*
X148844000Y-84941121D01*
X148718925Y-84966000D01*
X143130920Y-84966000D01*
X142766137Y-85038560D01*
X142706000Y-85038560D01*
X142458235Y-85087843D01*
X142270000Y-85213619D01*
X142270000Y-85125076D01*
X142294879Y-85000000D01*
X142270000Y-84874924D01*
X142270000Y-84874920D01*
X142196313Y-84504471D01*
X142015433Y-84233765D01*
X141986470Y-84190419D01*
X141986469Y-84190418D01*
X141915618Y-84084382D01*
X141809581Y-84013530D01*
X141357130Y-83561079D01*
X141986000Y-83561079D01*
X142058560Y-83925862D01*
X142058560Y-83986000D01*
X142107843Y-84233765D01*
X142248191Y-84443809D01*
X142458235Y-84584157D01*
X142706000Y-84633440D01*
X142766137Y-84633440D01*
X143256000Y-84730880D01*
X143745862Y-84633440D01*
X143806000Y-84633440D01*
X144053765Y-84584157D01*
X144263809Y-84443809D01*
X144404157Y-84233765D01*
X144453440Y-83986000D01*
X144453440Y-83925863D01*
X144526000Y-83561080D01*
X144526000Y-80522920D01*
X144453440Y-80158137D01*
X144453440Y-80098000D01*
X144404157Y-79850235D01*
X144263809Y-79640191D01*
X144053765Y-79499843D01*
X143806000Y-79450560D01*
X143745863Y-79450560D01*
X143256000Y-79353120D01*
X142766138Y-79450560D01*
X142706000Y-79450560D01*
X142458235Y-79499843D01*
X142248191Y-79640191D01*
X142107843Y-79850235D01*
X142058560Y-80098000D01*
X142058560Y-80158142D01*
X141986001Y-80522920D01*
X141986000Y-83561079D01*
X141357130Y-83561079D01*
X140709471Y-82913421D01*
X140638618Y-82807382D01*
X140218529Y-82526687D01*
X139848080Y-82453000D01*
X139848075Y-82453000D01*
X139723000Y-82428121D01*
X139597925Y-82453000D01*
X137610920Y-82453000D01*
X137240471Y-82526687D01*
X136820382Y-82807382D01*
X136733440Y-82937500D01*
X136733440Y-82510986D01*
X137558927Y-81685500D01*
X140122279Y-81685500D01*
X140128273Y-81689505D01*
X140459750Y-81755440D01*
X140972250Y-81755440D01*
X141303727Y-81689505D01*
X141584739Y-81501739D01*
X141772505Y-81220727D01*
X141838440Y-80889250D01*
X141838440Y-80451750D01*
X141772505Y-80120273D01*
X141658259Y-79949291D01*
X142489551Y-79118000D01*
X145393949Y-79118000D01*
X145615242Y-79339293D01*
X145680242Y-79496217D01*
X146055783Y-79871758D01*
X146546452Y-80075000D01*
X147077548Y-80075000D01*
X147568217Y-79871758D01*
X147943758Y-79496217D01*
X148008759Y-79339291D01*
X150678051Y-76670000D01*
X156530000Y-76670000D01*
X156530000Y-76852560D01*
X156500000Y-76852560D01*
X156252235Y-76901843D01*
X156042191Y-77042191D01*
X155901843Y-77252235D01*
X155852560Y-77500000D01*
X155852560Y-80100000D01*
X155901843Y-80347765D01*
X156042191Y-80557809D01*
X156252235Y-80698157D01*
X156500000Y-80747440D01*
X159100000Y-80747440D01*
X159347765Y-80698157D01*
X159557809Y-80557809D01*
X159698157Y-80347765D01*
X159747440Y-80100000D01*
X159747440Y-77500000D01*
X159698157Y-77252235D01*
X159557809Y-77042191D01*
X159347765Y-76901843D01*
X159100000Y-76852560D01*
X159070000Y-76852560D01*
X159070000Y-76125074D01*
X159094879Y-75999999D01*
X159070000Y-75874924D01*
X159070000Y-75874920D01*
X159006450Y-75555431D01*
X186765000Y-75555431D01*
X186765000Y-76444569D01*
X187105259Y-77266026D01*
X187733974Y-77894741D01*
X188555431Y-78235000D01*
X189444569Y-78235000D01*
X190266026Y-77894741D01*
X190894741Y-77266026D01*
X191235000Y-76444569D01*
X191235000Y-75555431D01*
X190894741Y-74733974D01*
X190266026Y-74105259D01*
X189444569Y-73765000D01*
X188555431Y-73765000D01*
X187733974Y-74105259D01*
X187105259Y-74733974D01*
X186765000Y-75555431D01*
X159006450Y-75555431D01*
X158996313Y-75504471D01*
X158715618Y-75084382D01*
X158609579Y-75013529D01*
X158186471Y-74590421D01*
X158115618Y-74484382D01*
X157695529Y-74203687D01*
X157325080Y-74130000D01*
X157325075Y-74130000D01*
X157200000Y-74105121D01*
X157074925Y-74130000D01*
X150277074Y-74130000D01*
X150151999Y-74105121D01*
X150026924Y-74130000D01*
X150026920Y-74130000D01*
X149656471Y-74203687D01*
X149236382Y-74484382D01*
X149165531Y-74590419D01*
X146828394Y-76927555D01*
X146415529Y-76651687D01*
X146045080Y-76578000D01*
X146045075Y-76578000D01*
X145920000Y-76553121D01*
X145794925Y-76578000D01*
X142088574Y-76578000D01*
X141963499Y-76553121D01*
X141838424Y-76578000D01*
X141838420Y-76578000D01*
X141467971Y-76651687D01*
X141047882Y-76932382D01*
X140977030Y-77038419D01*
X139729530Y-78285920D01*
X139519688Y-78599971D01*
X139421121Y-79095500D01*
X139519688Y-79591029D01*
X139562766Y-79655500D01*
X137238463Y-79655500D01*
X137138500Y-79635616D01*
X137038536Y-79655500D01*
X137038532Y-79655500D01*
X136742467Y-79714391D01*
X136742465Y-79714392D01*
X136742466Y-79714392D01*
X136506951Y-79871758D01*
X136406726Y-79938726D01*
X136350099Y-80023474D01*
X134988976Y-81384598D01*
X134904226Y-81441226D01*
X134679891Y-81776968D01*
X134621000Y-82073033D01*
X134621000Y-82073037D01*
X134606109Y-82147898D01*
X134587843Y-82175235D01*
X134538560Y-82423000D01*
X134538560Y-83123000D01*
X134587843Y-83370765D01*
X134728191Y-83580809D01*
X134856416Y-83666487D01*
X134720382Y-83757382D01*
X134439687Y-84177472D01*
X134366000Y-84547921D01*
X133310000Y-84547921D01*
X133310000Y-76038450D01*
X133362472Y-75555431D01*
X133765000Y-75555431D01*
X133765000Y-76444569D01*
X134105259Y-77266026D01*
X134733974Y-77894741D01*
X135555431Y-78235000D01*
X136444569Y-78235000D01*
X137266026Y-77894741D01*
X137894741Y-77266026D01*
X138235000Y-76444569D01*
X138235000Y-75555431D01*
X137894741Y-74733974D01*
X137266026Y-74105259D01*
X136444569Y-73765000D01*
X135555431Y-73765000D01*
X134733974Y-74105259D01*
X134105259Y-74733974D01*
X133765000Y-75555431D01*
X133362472Y-75555431D01*
X133376831Y-75423259D01*
X133561871Y-74873426D01*
X133860662Y-74376153D01*
X134259267Y-73954641D01*
X134739082Y-73628560D01*
X135277730Y-73413115D01*
X135878414Y-73313673D01*
X136009906Y-73310000D01*
X188961550Y-73310000D01*
X189576741Y-73376831D01*
G36*
X142458235Y-87384157D02*
X142706000Y-87433440D01*
X142766137Y-87433440D01*
X143130920Y-87506000D01*
X145793738Y-87506000D01*
X145615688Y-87772471D01*
X145517121Y-88268000D01*
X145542001Y-88393080D01*
X145542000Y-90126449D01*
X144156450Y-91512000D01*
X143370440Y-91512000D01*
X143370440Y-90932000D01*
X143321157Y-90684235D01*
X143180809Y-90474191D01*
X142970765Y-90333843D01*
X142723000Y-90284560D01*
X141511491Y-90284560D01*
X141809582Y-89986469D01*
X141915618Y-89915618D01*
X142083295Y-89664673D01*
X142196313Y-89495529D01*
X142212221Y-89415552D01*
X142270000Y-89125080D01*
X142270000Y-89125076D01*
X142294879Y-89000000D01*
X142270000Y-88874924D01*
X142270000Y-87258381D01*
X142458235Y-87384157D01*
X142458235Y-87384157D01*
G37*
X142458235Y-87384157D02*
X142706000Y-87433440D01*
X142766137Y-87433440D01*
X143130920Y-87506000D01*
X145793738Y-87506000D01*
X145615688Y-87772471D01*
X145517121Y-88268000D01*
X145542001Y-88393080D01*
X145542000Y-90126449D01*
X144156450Y-91512000D01*
X143370440Y-91512000D01*
X143370440Y-90932000D01*
X143321157Y-90684235D01*
X143180809Y-90474191D01*
X142970765Y-90333843D01*
X142723000Y-90284560D01*
X141511491Y-90284560D01*
X141809582Y-89986469D01*
X141915618Y-89915618D01*
X142083295Y-89664673D01*
X142196313Y-89495529D01*
X142212221Y-89415552D01*
X142270000Y-89125080D01*
X142270000Y-89125076D01*
X142294879Y-89000000D01*
X142270000Y-88874924D01*
X142270000Y-87258381D01*
X142458235Y-87384157D01*
G04 #@! TD*
M02*
