G04 #@! TF.GenerationSoftware,KiCad,Pcbnew,5.0.1*
G04 #@! TF.CreationDate,2019-03-15T13:28:57+13:00*
G04 #@! TF.ProjectId,spiroBoard,737069726F426F6172642E6B69636164,rev?*
G04 #@! TF.SameCoordinates,Original*
G04 #@! TF.FileFunction,Legend,Top*
G04 #@! TF.FilePolarity,Positive*
%FSLAX46Y46*%
G04 Gerber Fmt 4.6, Leading zero omitted, Abs format (unit mm)*
G04 Created by KiCad (PCBNEW 5.0.1) date Fri 15 Mar 2019 01:28:57 PM NZDT*
%MOMM*%
%LPD*%
G01*
G04 APERTURE LIST*
%ADD10C,0.200000*%
%ADD11C,0.300000*%
%ADD12C,0.150000*%
%ADD13C,0.120000*%
G04 APERTURE END LIST*
D10*
X159380000Y-107060000D02*
X173870000Y-107060000D01*
X159390000Y-113640000D02*
X159390000Y-107040000D01*
X173860000Y-113640000D02*
X159390000Y-113640000D01*
X173860000Y-107080000D02*
X173860000Y-113640000D01*
D11*
X160162857Y-112167142D02*
X160377142Y-112238571D01*
X160734285Y-112238571D01*
X160877142Y-112167142D01*
X160948571Y-112095714D01*
X161020000Y-111952857D01*
X161020000Y-111810000D01*
X160948571Y-111667142D01*
X160877142Y-111595714D01*
X160734285Y-111524285D01*
X160448571Y-111452857D01*
X160305714Y-111381428D01*
X160234285Y-111310000D01*
X160162857Y-111167142D01*
X160162857Y-111024285D01*
X160234285Y-110881428D01*
X160305714Y-110810000D01*
X160448571Y-110738571D01*
X160805714Y-110738571D01*
X161020000Y-110810000D01*
X161662857Y-111238571D02*
X161662857Y-112738571D01*
X161662857Y-111310000D02*
X161805714Y-111238571D01*
X162091428Y-111238571D01*
X162234285Y-111310000D01*
X162305714Y-111381428D01*
X162377142Y-111524285D01*
X162377142Y-111952857D01*
X162305714Y-112095714D01*
X162234285Y-112167142D01*
X162091428Y-112238571D01*
X161805714Y-112238571D01*
X161662857Y-112167142D01*
X163020000Y-112238571D02*
X163020000Y-111238571D01*
X163020000Y-110738571D02*
X162948571Y-110810000D01*
X163020000Y-110881428D01*
X163091428Y-110810000D01*
X163020000Y-110738571D01*
X163020000Y-110881428D01*
X163734285Y-112238571D02*
X163734285Y-111238571D01*
X163734285Y-111524285D02*
X163805714Y-111381428D01*
X163877142Y-111310000D01*
X164020000Y-111238571D01*
X164162857Y-111238571D01*
X164877142Y-112238571D02*
X164734285Y-112167142D01*
X164662857Y-112095714D01*
X164591428Y-111952857D01*
X164591428Y-111524285D01*
X164662857Y-111381428D01*
X164734285Y-111310000D01*
X164877142Y-111238571D01*
X165091428Y-111238571D01*
X165234285Y-111310000D01*
X165305714Y-111381428D01*
X165377142Y-111524285D01*
X165377142Y-111952857D01*
X165305714Y-112095714D01*
X165234285Y-112167142D01*
X165091428Y-112238571D01*
X164877142Y-112238571D01*
X160912857Y-109128571D02*
X160198571Y-109128571D01*
X160198571Y-107628571D01*
X162055714Y-108128571D02*
X162055714Y-109128571D01*
X161412857Y-108128571D02*
X161412857Y-108914285D01*
X161484285Y-109057142D01*
X161627142Y-109128571D01*
X161841428Y-109128571D01*
X161984285Y-109057142D01*
X162055714Y-108985714D01*
X162770000Y-108128571D02*
X162770000Y-109128571D01*
X162770000Y-108271428D02*
X162841428Y-108200000D01*
X162984285Y-108128571D01*
X163198571Y-108128571D01*
X163341428Y-108200000D01*
X163412857Y-108342857D01*
X163412857Y-109128571D01*
X164770000Y-108128571D02*
X164770000Y-109342857D01*
X164698571Y-109485714D01*
X164627142Y-109557142D01*
X164484285Y-109628571D01*
X164270000Y-109628571D01*
X164127142Y-109557142D01*
X164770000Y-109057142D02*
X164627142Y-109128571D01*
X164341428Y-109128571D01*
X164198571Y-109057142D01*
X164127142Y-108985714D01*
X164055714Y-108842857D01*
X164055714Y-108414285D01*
X164127142Y-108271428D01*
X164198571Y-108200000D01*
X164341428Y-108128571D01*
X164627142Y-108128571D01*
X164770000Y-108200000D01*
X166627142Y-109128571D02*
X166627142Y-107628571D01*
X167127142Y-108700000D01*
X167627142Y-107628571D01*
X167627142Y-109128571D01*
X168270000Y-108700000D02*
X168984285Y-108700000D01*
X168127142Y-109128571D02*
X168627142Y-107628571D01*
X169127142Y-109128571D01*
X169412857Y-107628571D02*
X170270000Y-107628571D01*
X169841428Y-109128571D02*
X169841428Y-107628571D01*
X170770000Y-108342857D02*
X171270000Y-108342857D01*
X171484285Y-109128571D02*
X170770000Y-109128571D01*
X170770000Y-107628571D01*
X171484285Y-107628571D01*
X172055714Y-109057142D02*
X172270000Y-109128571D01*
X172627142Y-109128571D01*
X172770000Y-109057142D01*
X172841428Y-108985714D01*
X172912857Y-108842857D01*
X172912857Y-108700000D01*
X172841428Y-108557142D01*
X172770000Y-108485714D01*
X172627142Y-108414285D01*
X172341428Y-108342857D01*
X172198571Y-108271428D01*
X172127142Y-108200000D01*
X172055714Y-108057142D01*
X172055714Y-107914285D01*
X172127142Y-107771428D01*
X172198571Y-107700000D01*
X172341428Y-107628571D01*
X172698571Y-107628571D01*
X172912857Y-107700000D01*
D10*
X161800000Y-78800000D02*
X161800000Y-79600000D01*
X154200000Y-108400000D02*
X153184000Y-108400000D01*
X140200000Y-108600000D02*
X141000000Y-108600000D01*
X140600000Y-108184000D02*
X140600000Y-109000000D01*
X160850000Y-90290000D02*
X161866000Y-90290000D01*
X149416000Y-79400000D02*
X148400000Y-79400000D01*
X161384000Y-79200000D02*
X162200000Y-79200000D01*
D12*
G04 #@! TO.C,R3*
X160100000Y-88892000D02*
X160100000Y-91442000D01*
X149800000Y-88892000D02*
X160100000Y-88892000D01*
X149800000Y-91442000D02*
X149800000Y-88892000D01*
X160100000Y-91442000D02*
X149800000Y-91442000D01*
G04 #@! TO.C,R5*
X156240000Y-92680000D02*
X156240000Y-102880000D01*
X149940000Y-92680000D02*
X149940000Y-102880000D01*
X156240000Y-102880000D02*
X149940000Y-102880000D01*
X156240000Y-92680000D02*
X149940000Y-92680000D01*
G04 #@! TO.C,R2*
X133828000Y-89632000D02*
X133828000Y-95932000D01*
X144028000Y-89632000D02*
X144028000Y-95932000D01*
X133828000Y-95932000D02*
X144028000Y-95932000D01*
X133828000Y-89632000D02*
X144028000Y-89632000D01*
D13*
G04 #@! TO.C,C1*
X147411221Y-90168000D02*
X147736779Y-90168000D01*
X147411221Y-91188000D02*
X147736779Y-91188000D01*
G04 #@! TO.C,D1*
X144256000Y-77048000D02*
X142256000Y-77048000D01*
X142256000Y-77048000D02*
X142256000Y-80898000D01*
X144256000Y-77048000D02*
X144256000Y-80898000D01*
G04 #@! TO.C,D2*
X144256000Y-82636000D02*
X144256000Y-86486000D01*
X142256000Y-82636000D02*
X142256000Y-86486000D01*
X144256000Y-82636000D02*
X142256000Y-82636000D01*
G04 #@! TO.C,D3*
X139360000Y-88249000D02*
X139360000Y-86249000D01*
X139360000Y-86249000D02*
X135510000Y-86249000D01*
X139360000Y-88249000D02*
X135510000Y-88249000D01*
G04 #@! TO.C,INPUT1*
X146780000Y-108200000D02*
G75*
G03X146780000Y-108200000I-2180000J0D01*
G01*
X151780000Y-108200000D02*
G75*
G03X151780000Y-108200000I-2180000J0D01*
G01*
X142040000Y-112800000D02*
X152160000Y-112800000D01*
X142040000Y-111700000D02*
X152160000Y-111700000D01*
X142040000Y-104140000D02*
X152160000Y-104140000D01*
X142040000Y-113260000D02*
X152160000Y-113260000D01*
X142040000Y-104140000D02*
X142040000Y-113260000D01*
X152160000Y-104140000D02*
X152160000Y-113260000D01*
X146254000Y-106812000D02*
X146147000Y-106919000D01*
X143318000Y-109747000D02*
X143212000Y-109854000D01*
X145988000Y-106546000D02*
X145881000Y-106653000D01*
X143052000Y-109481000D02*
X142946000Y-109588000D01*
X151254000Y-106812000D02*
X150859000Y-107208000D01*
X148593000Y-109474000D02*
X148213000Y-109854000D01*
X150988000Y-106546000D02*
X150608000Y-106926000D01*
X148342000Y-109192000D02*
X147947000Y-109588000D01*
X141800000Y-112860000D02*
X141800000Y-113500000D01*
X141800000Y-113500000D02*
X142200000Y-113500000D01*
G04 #@! TO.C,SOL1*
X160600000Y-73500000D02*
X160200000Y-73500000D01*
X160600000Y-74140000D02*
X160600000Y-73500000D01*
X154058000Y-77808000D02*
X154453000Y-77412000D01*
X151412000Y-80454000D02*
X151792000Y-80074000D01*
X153807000Y-77526000D02*
X154187000Y-77146000D01*
X151146000Y-80188000D02*
X151541000Y-79792000D01*
X159348000Y-77519000D02*
X159454000Y-77412000D01*
X156412000Y-80454000D02*
X156519000Y-80347000D01*
X159082000Y-77253000D02*
X159188000Y-77146000D01*
X156146000Y-80188000D02*
X156253000Y-80081000D01*
X150240000Y-82860000D02*
X150240000Y-73740000D01*
X160360000Y-82860000D02*
X160360000Y-73740000D01*
X160360000Y-73740000D02*
X150240000Y-73740000D01*
X160360000Y-82860000D02*
X150240000Y-82860000D01*
X160360000Y-75300000D02*
X150240000Y-75300000D01*
X160360000Y-74200000D02*
X150240000Y-74200000D01*
X154980000Y-78800000D02*
G75*
G03X154980000Y-78800000I-2180000J0D01*
G01*
X159980000Y-78800000D02*
G75*
G03X159980000Y-78800000I-2180000J0D01*
G01*
G04 #@! TO.C,R1*
X141226000Y-79720221D02*
X141226000Y-80045779D01*
X140206000Y-79720221D02*
X140206000Y-80045779D01*
D12*
G04 #@! TO.C,Solenoid1*
X165702473Y-85375901D02*
X165702473Y-72675901D01*
X189402473Y-85375901D02*
X189402473Y-72675901D01*
X192302473Y-85375901D02*
X162802473Y-85375901D01*
X192302473Y-104475901D02*
X162802473Y-104475901D01*
X186916000Y-95090000D02*
X188186000Y-93820000D01*
X188186000Y-93820000D02*
X186916000Y-95090000D01*
X186916000Y-95090000D02*
X188186000Y-96360000D01*
X188186000Y-96360000D02*
X186916000Y-95090000D01*
X186916000Y-95090000D02*
X191996000Y-95090000D01*
X191996000Y-95090000D02*
X190726000Y-93820000D01*
X190726000Y-93820000D02*
X191996000Y-95090000D01*
X191996000Y-95090000D02*
X190726000Y-96360000D01*
X162786000Y-104488000D02*
X162786000Y-85438000D01*
G04 #@! TO.C,R3*
X154633333Y-88452380D02*
X154300000Y-87976190D01*
X154061904Y-88452380D02*
X154061904Y-87452380D01*
X154442857Y-87452380D01*
X154538095Y-87500000D01*
X154585714Y-87547619D01*
X154633333Y-87642857D01*
X154633333Y-87785714D01*
X154585714Y-87880952D01*
X154538095Y-87928571D01*
X154442857Y-87976190D01*
X154061904Y-87976190D01*
X154966666Y-87452380D02*
X155585714Y-87452380D01*
X155252380Y-87833333D01*
X155395238Y-87833333D01*
X155490476Y-87880952D01*
X155538095Y-87928571D01*
X155585714Y-88023809D01*
X155585714Y-88261904D01*
X155538095Y-88357142D01*
X155490476Y-88404761D01*
X155395238Y-88452380D01*
X155109523Y-88452380D01*
X155014285Y-88404761D01*
X154966666Y-88357142D01*
G04 #@! TO.C,R5*
X149296380Y-97702666D02*
X148820190Y-98036000D01*
X149296380Y-98274095D02*
X148296380Y-98274095D01*
X148296380Y-97893142D01*
X148344000Y-97797904D01*
X148391619Y-97750285D01*
X148486857Y-97702666D01*
X148629714Y-97702666D01*
X148724952Y-97750285D01*
X148772571Y-97797904D01*
X148820190Y-97893142D01*
X148820190Y-98274095D01*
X148296380Y-96797904D02*
X148296380Y-97274095D01*
X148772571Y-97321714D01*
X148724952Y-97274095D01*
X148677333Y-97178857D01*
X148677333Y-96940761D01*
X148724952Y-96845523D01*
X148772571Y-96797904D01*
X148867809Y-96750285D01*
X149105904Y-96750285D01*
X149201142Y-96797904D01*
X149248761Y-96845523D01*
X149296380Y-96940761D01*
X149296380Y-97178857D01*
X149248761Y-97274095D01*
X149201142Y-97321714D01*
G04 #@! TO.C,R2*
X145232380Y-92622666D02*
X144756190Y-92956000D01*
X145232380Y-93194095D02*
X144232380Y-93194095D01*
X144232380Y-92813142D01*
X144280000Y-92717904D01*
X144327619Y-92670285D01*
X144422857Y-92622666D01*
X144565714Y-92622666D01*
X144660952Y-92670285D01*
X144708571Y-92717904D01*
X144756190Y-92813142D01*
X144756190Y-93194095D01*
X144327619Y-92241714D02*
X144280000Y-92194095D01*
X144232380Y-92098857D01*
X144232380Y-91860761D01*
X144280000Y-91765523D01*
X144327619Y-91717904D01*
X144422857Y-91670285D01*
X144518095Y-91670285D01*
X144660952Y-91717904D01*
X145232380Y-92289333D01*
X145232380Y-91670285D01*
G04 #@! TO.C,C1*
X147407333Y-89605142D02*
X147359714Y-89652761D01*
X147216857Y-89700380D01*
X147121619Y-89700380D01*
X146978761Y-89652761D01*
X146883523Y-89557523D01*
X146835904Y-89462285D01*
X146788285Y-89271809D01*
X146788285Y-89128952D01*
X146835904Y-88938476D01*
X146883523Y-88843238D01*
X146978761Y-88748000D01*
X147121619Y-88700380D01*
X147216857Y-88700380D01*
X147359714Y-88748000D01*
X147407333Y-88795619D01*
X148359714Y-89700380D02*
X147788285Y-89700380D01*
X148074000Y-89700380D02*
X148074000Y-88700380D01*
X147978761Y-88843238D01*
X147883523Y-88938476D01*
X147788285Y-88986095D01*
G04 #@! TO.C,D1*
X142263904Y-76652380D02*
X142263904Y-75652380D01*
X142502000Y-75652380D01*
X142644857Y-75700000D01*
X142740095Y-75795238D01*
X142787714Y-75890476D01*
X142835333Y-76080952D01*
X142835333Y-76223809D01*
X142787714Y-76414285D01*
X142740095Y-76509523D01*
X142644857Y-76604761D01*
X142502000Y-76652380D01*
X142263904Y-76652380D01*
X143787714Y-76652380D02*
X143216285Y-76652380D01*
X143502000Y-76652380D02*
X143502000Y-75652380D01*
X143406761Y-75795238D01*
X143311523Y-75890476D01*
X143216285Y-75938095D01*
G04 #@! TO.C,D2*
X145613380Y-85447095D02*
X144613380Y-85447095D01*
X144613380Y-85209000D01*
X144661000Y-85066142D01*
X144756238Y-84970904D01*
X144851476Y-84923285D01*
X145041952Y-84875666D01*
X145184809Y-84875666D01*
X145375285Y-84923285D01*
X145470523Y-84970904D01*
X145565761Y-85066142D01*
X145613380Y-85209000D01*
X145613380Y-85447095D01*
X144708619Y-84494714D02*
X144661000Y-84447095D01*
X144613380Y-84351857D01*
X144613380Y-84113761D01*
X144661000Y-84018523D01*
X144708619Y-83970904D01*
X144803857Y-83923285D01*
X144899095Y-83923285D01*
X145041952Y-83970904D01*
X145613380Y-84542333D01*
X145613380Y-83923285D01*
G04 #@! TO.C,D3*
X140914380Y-87860095D02*
X139914380Y-87860095D01*
X139914380Y-87622000D01*
X139962000Y-87479142D01*
X140057238Y-87383904D01*
X140152476Y-87336285D01*
X140342952Y-87288666D01*
X140485809Y-87288666D01*
X140676285Y-87336285D01*
X140771523Y-87383904D01*
X140866761Y-87479142D01*
X140914380Y-87622000D01*
X140914380Y-87860095D01*
X139914380Y-86955333D02*
X139914380Y-86336285D01*
X140295333Y-86669619D01*
X140295333Y-86526761D01*
X140342952Y-86431523D01*
X140390571Y-86383904D01*
X140485809Y-86336285D01*
X140723904Y-86336285D01*
X140819142Y-86383904D01*
X140866761Y-86431523D01*
X140914380Y-86526761D01*
X140914380Y-86812476D01*
X140866761Y-86907714D01*
X140819142Y-86955333D01*
G04 #@! TO.C,INPUT1*
X144695238Y-103064380D02*
X144695238Y-102064380D01*
X145171428Y-103064380D02*
X145171428Y-102064380D01*
X145742857Y-103064380D01*
X145742857Y-102064380D01*
X146219047Y-103064380D02*
X146219047Y-102064380D01*
X146600000Y-102064380D01*
X146695238Y-102112000D01*
X146742857Y-102159619D01*
X146790476Y-102254857D01*
X146790476Y-102397714D01*
X146742857Y-102492952D01*
X146695238Y-102540571D01*
X146600000Y-102588190D01*
X146219047Y-102588190D01*
X147219047Y-102064380D02*
X147219047Y-102873904D01*
X147266666Y-102969142D01*
X147314285Y-103016761D01*
X147409523Y-103064380D01*
X147600000Y-103064380D01*
X147695238Y-103016761D01*
X147742857Y-102969142D01*
X147790476Y-102873904D01*
X147790476Y-102064380D01*
X148123809Y-102064380D02*
X148695238Y-102064380D01*
X148409523Y-103064380D02*
X148409523Y-102064380D01*
X149552380Y-103064380D02*
X148980952Y-103064380D01*
X149266666Y-103064380D02*
X149266666Y-102064380D01*
X149171428Y-102207238D01*
X149076190Y-102302476D01*
X148980952Y-102350095D01*
G04 #@! TO.C,SOL1*
X153609523Y-84792761D02*
X153752380Y-84840380D01*
X153990476Y-84840380D01*
X154085714Y-84792761D01*
X154133333Y-84745142D01*
X154180952Y-84649904D01*
X154180952Y-84554666D01*
X154133333Y-84459428D01*
X154085714Y-84411809D01*
X153990476Y-84364190D01*
X153800000Y-84316571D01*
X153704761Y-84268952D01*
X153657142Y-84221333D01*
X153609523Y-84126095D01*
X153609523Y-84030857D01*
X153657142Y-83935619D01*
X153704761Y-83888000D01*
X153800000Y-83840380D01*
X154038095Y-83840380D01*
X154180952Y-83888000D01*
X154800000Y-83840380D02*
X154990476Y-83840380D01*
X155085714Y-83888000D01*
X155180952Y-83983238D01*
X155228571Y-84173714D01*
X155228571Y-84507047D01*
X155180952Y-84697523D01*
X155085714Y-84792761D01*
X154990476Y-84840380D01*
X154800000Y-84840380D01*
X154704761Y-84792761D01*
X154609523Y-84697523D01*
X154561904Y-84507047D01*
X154561904Y-84173714D01*
X154609523Y-83983238D01*
X154704761Y-83888000D01*
X154800000Y-83840380D01*
X156133333Y-84840380D02*
X155657142Y-84840380D01*
X155657142Y-83840380D01*
X156990476Y-84840380D02*
X156419047Y-84840380D01*
X156704761Y-84840380D02*
X156704761Y-83840380D01*
X156609523Y-83983238D01*
X156514285Y-84078476D01*
X156419047Y-84126095D01*
G04 #@! TO.C,PMOS1*
X134240476Y-81742380D02*
X134240476Y-80742380D01*
X134621428Y-80742380D01*
X134716666Y-80790000D01*
X134764285Y-80837619D01*
X134811904Y-80932857D01*
X134811904Y-81075714D01*
X134764285Y-81170952D01*
X134716666Y-81218571D01*
X134621428Y-81266190D01*
X134240476Y-81266190D01*
X135240476Y-81742380D02*
X135240476Y-80742380D01*
X135573809Y-81456666D01*
X135907142Y-80742380D01*
X135907142Y-81742380D01*
X136573809Y-80742380D02*
X136764285Y-80742380D01*
X136859523Y-80790000D01*
X136954761Y-80885238D01*
X137002380Y-81075714D01*
X137002380Y-81409047D01*
X136954761Y-81599523D01*
X136859523Y-81694761D01*
X136764285Y-81742380D01*
X136573809Y-81742380D01*
X136478571Y-81694761D01*
X136383333Y-81599523D01*
X136335714Y-81409047D01*
X136335714Y-81075714D01*
X136383333Y-80885238D01*
X136478571Y-80790000D01*
X136573809Y-80742380D01*
X137383333Y-81694761D02*
X137526190Y-81742380D01*
X137764285Y-81742380D01*
X137859523Y-81694761D01*
X137907142Y-81647142D01*
X137954761Y-81551904D01*
X137954761Y-81456666D01*
X137907142Y-81361428D01*
X137859523Y-81313809D01*
X137764285Y-81266190D01*
X137573809Y-81218571D01*
X137478571Y-81170952D01*
X137430952Y-81123333D01*
X137383333Y-81028095D01*
X137383333Y-80932857D01*
X137430952Y-80837619D01*
X137478571Y-80790000D01*
X137573809Y-80742380D01*
X137811904Y-80742380D01*
X137954761Y-80790000D01*
X138907142Y-81742380D02*
X138335714Y-81742380D01*
X138621428Y-81742380D02*
X138621428Y-80742380D01*
X138526190Y-80885238D01*
X138430952Y-80980476D01*
X138335714Y-81028095D01*
G04 #@! TO.C,R1*
X140549333Y-77795380D02*
X140216000Y-77319190D01*
X139977904Y-77795380D02*
X139977904Y-76795380D01*
X140358857Y-76795380D01*
X140454095Y-76843000D01*
X140501714Y-76890619D01*
X140549333Y-76985857D01*
X140549333Y-77128714D01*
X140501714Y-77223952D01*
X140454095Y-77271571D01*
X140358857Y-77319190D01*
X139977904Y-77319190D01*
X141501714Y-77795380D02*
X140930285Y-77795380D01*
X141216000Y-77795380D02*
X141216000Y-76795380D01*
X141120761Y-76938238D01*
X141025523Y-77033476D01*
X140930285Y-77081095D01*
G04 #@! TO.C,Solenoid1*
X182400000Y-82794761D02*
X182542857Y-82842380D01*
X182780952Y-82842380D01*
X182876190Y-82794761D01*
X182923809Y-82747142D01*
X182971428Y-82651904D01*
X182971428Y-82556666D01*
X182923809Y-82461428D01*
X182876190Y-82413809D01*
X182780952Y-82366190D01*
X182590476Y-82318571D01*
X182495238Y-82270952D01*
X182447619Y-82223333D01*
X182400000Y-82128095D01*
X182400000Y-82032857D01*
X182447619Y-81937619D01*
X182495238Y-81890000D01*
X182590476Y-81842380D01*
X182828571Y-81842380D01*
X182971428Y-81890000D01*
X183542857Y-82842380D02*
X183447619Y-82794761D01*
X183400000Y-82747142D01*
X183352380Y-82651904D01*
X183352380Y-82366190D01*
X183400000Y-82270952D01*
X183447619Y-82223333D01*
X183542857Y-82175714D01*
X183685714Y-82175714D01*
X183780952Y-82223333D01*
X183828571Y-82270952D01*
X183876190Y-82366190D01*
X183876190Y-82651904D01*
X183828571Y-82747142D01*
X183780952Y-82794761D01*
X183685714Y-82842380D01*
X183542857Y-82842380D01*
X184447619Y-82842380D02*
X184352380Y-82794761D01*
X184304761Y-82699523D01*
X184304761Y-81842380D01*
X185209523Y-82794761D02*
X185114285Y-82842380D01*
X184923809Y-82842380D01*
X184828571Y-82794761D01*
X184780952Y-82699523D01*
X184780952Y-82318571D01*
X184828571Y-82223333D01*
X184923809Y-82175714D01*
X185114285Y-82175714D01*
X185209523Y-82223333D01*
X185257142Y-82318571D01*
X185257142Y-82413809D01*
X184780952Y-82509047D01*
X185685714Y-82175714D02*
X185685714Y-82842380D01*
X185685714Y-82270952D02*
X185733333Y-82223333D01*
X185828571Y-82175714D01*
X185971428Y-82175714D01*
X186066666Y-82223333D01*
X186114285Y-82318571D01*
X186114285Y-82842380D01*
X186733333Y-82842380D02*
X186638095Y-82794761D01*
X186590476Y-82747142D01*
X186542857Y-82651904D01*
X186542857Y-82366190D01*
X186590476Y-82270952D01*
X186638095Y-82223333D01*
X186733333Y-82175714D01*
X186876190Y-82175714D01*
X186971428Y-82223333D01*
X187019047Y-82270952D01*
X187066666Y-82366190D01*
X187066666Y-82651904D01*
X187019047Y-82747142D01*
X186971428Y-82794761D01*
X186876190Y-82842380D01*
X186733333Y-82842380D01*
X187495238Y-82842380D02*
X187495238Y-82175714D01*
X187495238Y-81842380D02*
X187447619Y-81890000D01*
X187495238Y-81937619D01*
X187542857Y-81890000D01*
X187495238Y-81842380D01*
X187495238Y-81937619D01*
X188400000Y-82842380D02*
X188400000Y-81842380D01*
X188400000Y-82794761D02*
X188304761Y-82842380D01*
X188114285Y-82842380D01*
X188019047Y-82794761D01*
X187971428Y-82747142D01*
X187923809Y-82651904D01*
X187923809Y-82366190D01*
X187971428Y-82270952D01*
X188019047Y-82223333D01*
X188114285Y-82175714D01*
X188304761Y-82175714D01*
X188400000Y-82223333D01*
X189400000Y-82842380D02*
X188828571Y-82842380D01*
X189114285Y-82842380D02*
X189114285Y-81842380D01*
X189019047Y-81985238D01*
X188923809Y-82080476D01*
X188828571Y-82128095D01*
G04 #@! TD*
M02*
