G04 #@! TF.GenerationSoftware,KiCad,Pcbnew,5.0.1*
G04 #@! TF.CreationDate,2019-03-15T13:28:57+13:00*
G04 #@! TF.ProjectId,spiroBoard,737069726F426F6172642E6B69636164,rev?*
G04 #@! TF.SameCoordinates,Original*
G04 #@! TF.FileFunction,Paste,Top*
G04 #@! TF.FilePolarity,Positive*
%FSLAX46Y46*%
G04 Gerber Fmt 4.6, Leading zero omitted, Abs format (unit mm)*
G04 Created by KiCad (PCBNEW 5.0.1) date Fri 15 Mar 2019 01:28:57 PM NZDT*
%MOMM*%
%LPD*%
G01*
G04 APERTURE LIST*
%ADD10R,3.700000X2.450000*%
%ADD11R,2.450000X3.700000*%
%ADD12C,0.100000*%
%ADD13C,0.875000*%
%ADD14R,1.100000X1.100000*%
%ADD15R,0.900000X0.700000*%
G04 APERTURE END LIST*
D10*
G04 #@! TO.C,R5*
X153090000Y-95200000D03*
X153090000Y-100350000D03*
G04 #@! TD*
D11*
G04 #@! TO.C,R2*
X141498000Y-92782000D03*
X136348000Y-92782000D03*
G04 #@! TD*
D12*
G04 #@! TO.C,C1*
G36*
X147026691Y-90204053D02*
X147047926Y-90207203D01*
X147068750Y-90212419D01*
X147088962Y-90219651D01*
X147108368Y-90228830D01*
X147126781Y-90239866D01*
X147144024Y-90252654D01*
X147159930Y-90267070D01*
X147174346Y-90282976D01*
X147187134Y-90300219D01*
X147198170Y-90318632D01*
X147207349Y-90338038D01*
X147214581Y-90358250D01*
X147219797Y-90379074D01*
X147222947Y-90400309D01*
X147224000Y-90421750D01*
X147224000Y-90934250D01*
X147222947Y-90955691D01*
X147219797Y-90976926D01*
X147214581Y-90997750D01*
X147207349Y-91017962D01*
X147198170Y-91037368D01*
X147187134Y-91055781D01*
X147174346Y-91073024D01*
X147159930Y-91088930D01*
X147144024Y-91103346D01*
X147126781Y-91116134D01*
X147108368Y-91127170D01*
X147088962Y-91136349D01*
X147068750Y-91143581D01*
X147047926Y-91148797D01*
X147026691Y-91151947D01*
X147005250Y-91153000D01*
X146567750Y-91153000D01*
X146546309Y-91151947D01*
X146525074Y-91148797D01*
X146504250Y-91143581D01*
X146484038Y-91136349D01*
X146464632Y-91127170D01*
X146446219Y-91116134D01*
X146428976Y-91103346D01*
X146413070Y-91088930D01*
X146398654Y-91073024D01*
X146385866Y-91055781D01*
X146374830Y-91037368D01*
X146365651Y-91017962D01*
X146358419Y-90997750D01*
X146353203Y-90976926D01*
X146350053Y-90955691D01*
X146349000Y-90934250D01*
X146349000Y-90421750D01*
X146350053Y-90400309D01*
X146353203Y-90379074D01*
X146358419Y-90358250D01*
X146365651Y-90338038D01*
X146374830Y-90318632D01*
X146385866Y-90300219D01*
X146398654Y-90282976D01*
X146413070Y-90267070D01*
X146428976Y-90252654D01*
X146446219Y-90239866D01*
X146464632Y-90228830D01*
X146484038Y-90219651D01*
X146504250Y-90212419D01*
X146525074Y-90207203D01*
X146546309Y-90204053D01*
X146567750Y-90203000D01*
X147005250Y-90203000D01*
X147026691Y-90204053D01*
X147026691Y-90204053D01*
G37*
D13*
X146786500Y-90678000D03*
D12*
G36*
X148601691Y-90204053D02*
X148622926Y-90207203D01*
X148643750Y-90212419D01*
X148663962Y-90219651D01*
X148683368Y-90228830D01*
X148701781Y-90239866D01*
X148719024Y-90252654D01*
X148734930Y-90267070D01*
X148749346Y-90282976D01*
X148762134Y-90300219D01*
X148773170Y-90318632D01*
X148782349Y-90338038D01*
X148789581Y-90358250D01*
X148794797Y-90379074D01*
X148797947Y-90400309D01*
X148799000Y-90421750D01*
X148799000Y-90934250D01*
X148797947Y-90955691D01*
X148794797Y-90976926D01*
X148789581Y-90997750D01*
X148782349Y-91017962D01*
X148773170Y-91037368D01*
X148762134Y-91055781D01*
X148749346Y-91073024D01*
X148734930Y-91088930D01*
X148719024Y-91103346D01*
X148701781Y-91116134D01*
X148683368Y-91127170D01*
X148663962Y-91136349D01*
X148643750Y-91143581D01*
X148622926Y-91148797D01*
X148601691Y-91151947D01*
X148580250Y-91153000D01*
X148142750Y-91153000D01*
X148121309Y-91151947D01*
X148100074Y-91148797D01*
X148079250Y-91143581D01*
X148059038Y-91136349D01*
X148039632Y-91127170D01*
X148021219Y-91116134D01*
X148003976Y-91103346D01*
X147988070Y-91088930D01*
X147973654Y-91073024D01*
X147960866Y-91055781D01*
X147949830Y-91037368D01*
X147940651Y-91017962D01*
X147933419Y-90997750D01*
X147928203Y-90976926D01*
X147925053Y-90955691D01*
X147924000Y-90934250D01*
X147924000Y-90421750D01*
X147925053Y-90400309D01*
X147928203Y-90379074D01*
X147933419Y-90358250D01*
X147940651Y-90338038D01*
X147949830Y-90318632D01*
X147960866Y-90300219D01*
X147973654Y-90282976D01*
X147988070Y-90267070D01*
X148003976Y-90252654D01*
X148021219Y-90239866D01*
X148039632Y-90228830D01*
X148059038Y-90219651D01*
X148079250Y-90212419D01*
X148100074Y-90207203D01*
X148121309Y-90204053D01*
X148142750Y-90203000D01*
X148580250Y-90203000D01*
X148601691Y-90204053D01*
X148601691Y-90204053D01*
G37*
D13*
X148361500Y-90678000D03*
G04 #@! TD*
D14*
G04 #@! TO.C,D1*
X143256000Y-77848000D03*
X143256000Y-80648000D03*
G04 #@! TD*
G04 #@! TO.C,D2*
X143256000Y-86236000D03*
X143256000Y-83436000D03*
G04 #@! TD*
G04 #@! TO.C,D3*
X138560000Y-87249000D03*
X135760000Y-87249000D03*
G04 #@! TD*
D15*
G04 #@! TO.C,PMOS1*
X135636000Y-82773000D03*
X137736000Y-83723000D03*
X135636000Y-84673000D03*
G04 #@! TD*
D12*
G04 #@! TO.C,R1*
G36*
X140993691Y-78659053D02*
X141014926Y-78662203D01*
X141035750Y-78667419D01*
X141055962Y-78674651D01*
X141075368Y-78683830D01*
X141093781Y-78694866D01*
X141111024Y-78707654D01*
X141126930Y-78722070D01*
X141141346Y-78737976D01*
X141154134Y-78755219D01*
X141165170Y-78773632D01*
X141174349Y-78793038D01*
X141181581Y-78813250D01*
X141186797Y-78834074D01*
X141189947Y-78855309D01*
X141191000Y-78876750D01*
X141191000Y-79314250D01*
X141189947Y-79335691D01*
X141186797Y-79356926D01*
X141181581Y-79377750D01*
X141174349Y-79397962D01*
X141165170Y-79417368D01*
X141154134Y-79435781D01*
X141141346Y-79453024D01*
X141126930Y-79468930D01*
X141111024Y-79483346D01*
X141093781Y-79496134D01*
X141075368Y-79507170D01*
X141055962Y-79516349D01*
X141035750Y-79523581D01*
X141014926Y-79528797D01*
X140993691Y-79531947D01*
X140972250Y-79533000D01*
X140459750Y-79533000D01*
X140438309Y-79531947D01*
X140417074Y-79528797D01*
X140396250Y-79523581D01*
X140376038Y-79516349D01*
X140356632Y-79507170D01*
X140338219Y-79496134D01*
X140320976Y-79483346D01*
X140305070Y-79468930D01*
X140290654Y-79453024D01*
X140277866Y-79435781D01*
X140266830Y-79417368D01*
X140257651Y-79397962D01*
X140250419Y-79377750D01*
X140245203Y-79356926D01*
X140242053Y-79335691D01*
X140241000Y-79314250D01*
X140241000Y-78876750D01*
X140242053Y-78855309D01*
X140245203Y-78834074D01*
X140250419Y-78813250D01*
X140257651Y-78793038D01*
X140266830Y-78773632D01*
X140277866Y-78755219D01*
X140290654Y-78737976D01*
X140305070Y-78722070D01*
X140320976Y-78707654D01*
X140338219Y-78694866D01*
X140356632Y-78683830D01*
X140376038Y-78674651D01*
X140396250Y-78667419D01*
X140417074Y-78662203D01*
X140438309Y-78659053D01*
X140459750Y-78658000D01*
X140972250Y-78658000D01*
X140993691Y-78659053D01*
X140993691Y-78659053D01*
G37*
D13*
X140716000Y-79095500D03*
D12*
G36*
X140993691Y-80234053D02*
X141014926Y-80237203D01*
X141035750Y-80242419D01*
X141055962Y-80249651D01*
X141075368Y-80258830D01*
X141093781Y-80269866D01*
X141111024Y-80282654D01*
X141126930Y-80297070D01*
X141141346Y-80312976D01*
X141154134Y-80330219D01*
X141165170Y-80348632D01*
X141174349Y-80368038D01*
X141181581Y-80388250D01*
X141186797Y-80409074D01*
X141189947Y-80430309D01*
X141191000Y-80451750D01*
X141191000Y-80889250D01*
X141189947Y-80910691D01*
X141186797Y-80931926D01*
X141181581Y-80952750D01*
X141174349Y-80972962D01*
X141165170Y-80992368D01*
X141154134Y-81010781D01*
X141141346Y-81028024D01*
X141126930Y-81043930D01*
X141111024Y-81058346D01*
X141093781Y-81071134D01*
X141075368Y-81082170D01*
X141055962Y-81091349D01*
X141035750Y-81098581D01*
X141014926Y-81103797D01*
X140993691Y-81106947D01*
X140972250Y-81108000D01*
X140459750Y-81108000D01*
X140438309Y-81106947D01*
X140417074Y-81103797D01*
X140396250Y-81098581D01*
X140376038Y-81091349D01*
X140356632Y-81082170D01*
X140338219Y-81071134D01*
X140320976Y-81058346D01*
X140305070Y-81043930D01*
X140290654Y-81028024D01*
X140277866Y-81010781D01*
X140266830Y-80992368D01*
X140257651Y-80972962D01*
X140250419Y-80952750D01*
X140245203Y-80931926D01*
X140242053Y-80910691D01*
X140241000Y-80889250D01*
X140241000Y-80451750D01*
X140242053Y-80430309D01*
X140245203Y-80409074D01*
X140250419Y-80388250D01*
X140257651Y-80368038D01*
X140266830Y-80348632D01*
X140277866Y-80330219D01*
X140290654Y-80312976D01*
X140305070Y-80297070D01*
X140320976Y-80282654D01*
X140338219Y-80269866D01*
X140356632Y-80258830D01*
X140376038Y-80249651D01*
X140396250Y-80242419D01*
X140417074Y-80237203D01*
X140438309Y-80234053D01*
X140459750Y-80233000D01*
X140972250Y-80233000D01*
X140993691Y-80234053D01*
X140993691Y-80234053D01*
G37*
D13*
X140716000Y-80670500D03*
G04 #@! TD*
M02*
